<svg id="レイヤー_1" data-name="レイヤー 1" xmlns="http://www.w3.org/2000/svg" viewBox="0 0 614.88 355.9"><defs><style>.cls-1{fill:#c73d13;}.cls-2,.cls-3{fill:#fff;}.cls-3{font-size:16px;font-family:HelveticaNeue-Thin, Helvetica Neue;font-weight:200;letter-spacing:0.15em;}.cls-4{letter-spacing:0.13em;}.cls-5{letter-spacing:0.15em;}.cls-6{letter-spacing:0.07em;}.cls-7{letter-spacing:0.13em;}</style></defs><title>darumalcard</title><rect class="cls-1" width="614.88" height="355.9" rx="20.89"/><path class="cls-2" d="M225.54,247.8a11.64,11.64,0,0,0-6.1-4.3,20.24,20.24,0,0,0-5.4-.7h-14.6a.65.65,0,0,0-.6.6v32.1a.65.65,0,0,0,.6.6H214c5.3,0,9.3-2.1,11.9-6.3a20.57,20.57,0,0,0,2.8-11.1,21.08,21.08,0,0,0-.7-5.4A13.18,13.18,0,0,0,225.54,247.8Zm-6.2,17.2a6.37,6.37,0,0,1-6.4,4.3h-6V249.4h6c3,0,5,.8,5.9,2.4s1.5,4.1,1.5,7.3A15.54,15.54,0,0,1,219.34,265Z" transform="translate(0 0)"/><path class="cls-2" d="M262.94,273.1a4.7,4.7,0,0,1-.5-2.2l-.1-3.7V252.6c0-3.9-1.4-6.5-4.1-7.8a21.65,21.65,0,0,0-9.4-2q-8.1,0-11.4,4.2a12.35,12.35,0,0,0-2.4,6.8h.5l7.7.1a6.52,6.52,0,0,1,1.3-2.9,5.33,5.33,0,0,1,4.1-1.4,8.69,8.69,0,0,1,4,.7,2.63,2.63,0,0,1,1.3,2.6,2.52,2.52,0,0,1-1.7,2.3,14,14,0,0,1-3.3.7l-2.8.3a19.87,19.87,0,0,0-7.4,2.1,9.39,9.39,0,0,0-4.6,8.6A9.12,9.12,0,0,0,237,274a10.36,10.36,0,0,0,7.2,2.5,11.35,11.35,0,0,0,6.1-1.6,16.14,16.14,0,0,0,3.8-3.1c0,.3.2,1.7.2,1.7l.5,1.8,9.2.1.1-1.3A6.94,6.94,0,0,1,262.94,273.1Zm-9.1-13.1v2.9c-.1,2.8-.8,4.7-2.3,5.7a8.68,8.68,0,0,1-4.9,1.6,4.28,4.28,0,0,1-2.8-.9,3.51,3.51,0,0,1-1.2-3,3.75,3.75,0,0,1,1.9-3.5,13.58,13.58,0,0,1,3.8-1.1l1.9-.4,2.2-.6S253.54,260.2,253.84,260Zm-18.6-6.4a.76.76,0,0,1,.1-.4.76.76,0,0,0-.1.4Z" transform="translate(0 0)"/><path class="cls-2" d="M288.94,242.8h-.4a9.61,9.61,0,0,0-6.2,2,15.63,15.63,0,0,0-3.2,4.1v-5.2l-8-.1-.1,31.8,8.4.1.1-15.2a11.66,11.66,0,0,1,1-5.6c1.1-2.1,3.4-3.2,6.7-3.2h1l1.4.1v-.1h0V251l.2-8A3.71,3.71,0,0,0,288.94,242.8Z" transform="translate(0 0)"/><path class="cls-2" d="M316.14,260.9a13.17,13.17,0,0,1-.8,4.9c-1,2.2-3,3.4-5.8,3.4-2.2,0-3.6-.8-4.4-2.3a10.17,10.17,0,0,1-.6-4V243.8a.1.1,0,0,0-.1-.1h-8.6l-.1,19.2a20,20,0,0,0,1.4,8.3c1.6,3.4,4.9,5.2,9.6,5.2a13.52,13.52,0,0,0,4.3-.6,10.85,10.85,0,0,0,3.8-2.4l1.1-1.3.4-.6v4.1l8.3.1.1-31.8-8.6-.1Z" transform="translate(0 0)"/><path class="cls-2" d="M377.64,246.6a9.45,9.45,0,0,0-3.8-2.9,12.49,12.49,0,0,0-4.2-.8,12.37,12.37,0,0,0-5.8,1.3,10.23,10.23,0,0,0-4,4,9.12,9.12,0,0,0-2.7-3.7,9.8,9.8,0,0,0-5.9-1.6,9.66,9.66,0,0,0-6.3,1.9,11.92,11.92,0,0,0-2.7,3.3v-4.3l-8.3-.1-.1,31.7,8.6.1.1-19.2a7.55,7.55,0,0,1,.7-3.8c.8-1.5,2.4-2.2,4.7-2.2a4.08,4.08,0,0,1,4,2.2,9.84,9.84,0,0,1,.6,4v18.8l8.4.1.1-18.9a8,8,0,0,1,.7-3.6,4.83,4.83,0,0,1,4.7-2.8c2,0,3.3.7,4,2.1a6.24,6.24,0,0,1,.6,2.9v20.1l8.6.1c.1-.1.2-20,.2-20a28.25,28.25,0,0,0-.3-4.7A9.92,9.92,0,0,0,377.64,246.6Z" transform="translate(0 0)"/><path class="cls-2" d="M414.94,273.1a4.7,4.7,0,0,1-.5-2.2l-.1-3.7V252.6c0-3.9-1.4-6.5-4.1-7.8a21.65,21.65,0,0,0-9.4-2q-8.1,0-11.4,4.2a12.07,12.07,0,0,0-2.4,6.8h.5l7.7.1a6.52,6.52,0,0,1,1.3-2.9,5.33,5.33,0,0,1,4.1-1.4,8,8,0,0,1,3.9.7,2.63,2.63,0,0,1,1.3,2.6,2.52,2.52,0,0,1-1.7,2.3,14,14,0,0,1-3.3.7l-2.8.3a19.87,19.87,0,0,0-7.4,2.1,9.39,9.39,0,0,0-4.6,8.6,9.12,9.12,0,0,0,2.9,7.1,10.36,10.36,0,0,0,7.2,2.5,11.35,11.35,0,0,0,6.1-1.6,16.6,16.6,0,0,0,3.8-3.1c0,.3.2,1.7.2,1.7l.5,1.8,9.2.1.1-1.3C415.64,273.7,415.24,273.4,414.94,273.1Zm-9-13.1v2.9c-.1,2.7-.8,4.7-2.3,5.7a8.68,8.68,0,0,1-4.9,1.6,4.28,4.28,0,0,1-2.8-.9,3.51,3.51,0,0,1-1.2-3,3.75,3.75,0,0,1,1.9-3.5,12.57,12.57,0,0,1,3.8-1.1l1.9-.4,2.2-.6C404.44,260.7,405.54,260.2,405.94,260Zm-18.7-6.4a.76.76,0,0,1,.1-.4.76.76,0,0,0-.1.4Z" transform="translate(0 0)"/><path class="cls-2" d="M300.64,145.2c-5.4-6.4-14.3-13-23.2-18-1.6-1-1.4-1.4.7-1.2,9.1,1,20,4.4,29.5,8.6a104.39,104.39,0,0,0,13.9-31.1c.2-1.7-.4-2.5-1.9-2.5q-.9,0-14.4,1.2c-10,.9-15.8,1.3-17.3,1.3a125.87,125.87,0,0,1-18.7,18.4c-9.7,8.1-18.9,13.9-27.5,17.6a14.72,14.72,0,0,1-3.1,1.1l-.1.1A45.46,45.46,0,0,0,232,152c-6.3,13.5-2.6,29.6,4.6,41.2a129.76,129.76,0,0,0,28.5-13.8A133.8,133.8,0,0,0,300.64,145.2Z" transform="translate(0 0)"/><path class="cls-2" d="M373.64,185.3c7.9-17.2,3.8-35.9-8.4-48.9.8-5,0-13.8,0-13.8-2.6-14.8-3.4-31.2-9.4-45-3.4-9-10.3-17.1-18.5-23.6-8.1-6.1-19.3-12.2-32.9-11.9-25.6.5-34.2,8.5-41.6,15.4-11.8,10.9-17.6,27-20.8,42.2-2.1,15-4.2,23.3-2.6,38.3a4.62,4.62,0,0,0,.7-.7A132,132,0,0,0,269,106.6a124.83,124.83,0,0,0,14.1-27.7c1.5-3.6-.1-6.4-4.6-8.1q-1.95-.3-.3-1.5c3.4-1.7,6-2.5,7.8-2.5,3.1,0,7.3,1.8,12.6,5.3s8,6.6,8,8.8a2.55,2.55,0,0,1-1.5,2.5,13,13,0,0,0-3.1,1.8,74.69,74.69,0,0,0-8,10.3,119.71,119.71,0,0,0,24.1-2.5c1.5-.2,3.2-1.2,5.3-2.8,1.7-1.4,3.1-2.2,4.1-2.2,1.4,0,5.4,2,12.2,6.1q7.5,5.1,7.5,8.1a3.67,3.67,0,0,1-2.1,3.3,15.25,15.25,0,0,0-5.1,5.3c-.8,1.3-2.1,3.6-3.9,7-2.6,4.7-4.2,7.7-4.9,8.9-4.4,8-7.5,13.1-9.2,15.6,7.9,6.2,15.2,17.9,16.2,23.2,1.3,7.8-3,12.5-9.7,10.9-2.5-.6-11.6-10.1-18.4-18.7-17.1,19-40.9,31.7-71.2,38.3,7.5,9.1,17.6,14,28,17.2,27.4,7.9,61,6.3,81.5-3.9A61.17,61.17,0,0,0,373.64,185.3Zm-18.9-98.6a9,9,0,0,1-3.6,5.4,7.47,7.47,0,0,1-6.3,1.3c-3.5-.8-6.4-4.1-8.7-10a96.31,96.31,0,0,0-10.4-20.8,27,27,0,0,1,6.3.7c5.2,1.1,10.4,4,15.5,8.7Q356.24,79.8,354.74,86.7Z" transform="translate(0 0)"/><path class="cls-2" d="M370.74,58.7q-7.5-6.3-14.4-7.2a32.28,32.28,0,0,0-6.4-.2A95.88,95.88,0,0,1,361,70.9c2.3,5.6,5.1,8.6,8.1,9a6.83,6.83,0,0,0,5.7-1.8,8.66,8.66,0,0,0,3-5.5C378.54,68,376.14,63.4,370.74,58.7Z" transform="translate(0 0)"/><text class="cls-3" transform="translate(127.78 308.75)">EVERLA<tspan class="cls-4" x="68.78" y="0">S</tspan><tspan class="cls-5" x="80.91" y="0">TING GOOD </tspan><tspan class="cls-6" x="193.77" y="0">T</tspan><tspan x="203.23" y="0">A</tspan><tspan class="cls-4" x="215.12" y="0">S</tspan><tspan class="cls-5" x="227.25" y="0">TE-IN ALL </tspan><tspan class="cls-7" x="322.09" y="0">A</tspan><tspan x="333.69" y="0">GE</tspan></text></svg>