<svg id="Layer_1" data-name="Layer 1" xmlns="http://www.w3.org/2000/svg" viewBox="0 0 287.9 285.2"><title>paypal_icon</title><path d="M49.25,25C49,13.61,58.88,2.51,70.81.52A39,39,0,0,1,77,0Q139.5,0,202,0c17,0,28.25,11.33,28.25,28.32q0,62.94,0,125.87a26.43,26.43,0,0,1-22,26.4,27.18,27.18,0,0,1-5,.37q-52.4,0-104.79,0c-.88,0-1.76-.08-3.12-.15.94-4.08,1.8-8,2.73-11.86,1.47-6.15,3.17-12.25,4.41-18.45.58-2.92,2-3.69,4.73-3.88a221.94,221.94,0,0,0,44.42-7.22c12.29-3.46,24-8.15,33.56-17,10.53-9.79,16.29-21.82,15.47-36.4-.55-9.74-5.31-17.7-11.87-24.62C178.22,50.28,165,43.53,150.83,38.33A205.19,205.19,0,0,0,94.39,26.57c-14.19-1-28.45-1-42.68-1.47C50.94,25.08,50.16,25,49.25,25Z"/><path d="M83.84,181.43c-5.45-.51-10.8-.33-15.78-1.6A26,26,0,0,1,48.8,154.58c-.1-31.76,0-63.51-.08-95.27,0-2.14.86-2.8,2.72-2.84,17-.36,34-.8,51-1,3.93-.06,7.87.52,12.38.85C104.5,97.94,94.27,139.3,83.84,181.43Z"/><path d="M108.8,124.46c5.39-22.38,10.72-44.53,16.17-67.13,5.78,1.06,11.41,1.94,17,3.13,13,2.77,25.76,6.38,37.13,13.53a46.94,46.94,0,0,1,10.54,9c5.79,6.76,5.35,14.52-.59,21.2-4.17,4.68-9.52,7.69-15.17,10.16-14.12,6.17-29.07,8.86-44.32,10-5.81.44-11.66.33-17.49.43A29.73,29.73,0,0,1,108.8,124.46Z"/><path d="M12.84,248.87v20.19H.15c0-1-.14-1.95-.14-2.91q0-26.25,0-52.5c0-4.32.72-5.1,5-5.06,6.91,0,13.86-.14,20.74.37,11.68.87,19,7.81,19.45,17.78.47,10.59-6.75,19.29-18,21.16C22.56,248.65,17.88,248.56,12.84,248.87Zm.11-6.34a92.53,92.53,0,0,0,9.46-.06c6.67-.7,12.2-7.12,12.48-14.13a12.71,12.71,0,0,0-10.4-13.24c-3.7-.62-7.59-.11-11.54-.11Z"/><path d="M161,248.57v20.52h-12.5c-.06-1-.16-1.93-.16-2.88q0-26.43,0-52.85c0-4,.68-4.79,4.57-4.77,7,0,14.07-.14,21.06.38,11.39.84,18.91,7.76,19.4,17.21.56,11-6.36,19.6-17.77,21.7-3.37.62-6.88.5-10.33.68C164,248.62,162.77,248.57,161,248.57Zm.06-33.57v19.46c0,8.67,0,8.67,8.7,8.15,6.93-.42,12.74-6.46,13.37-13.92a12.72,12.72,0,0,0-10.32-13.58C169.14,214.46,165.24,215,161.09,215Z"/><path d="M222.3,239.39c1.73-6.55-1.17-10.83-7.93-11.31a34.89,34.89,0,0,0-6.21.24c-1.95.21-3.87.68-6,1.08L201,226.12c9.89-2.63,19.42-3.83,28.73,1.06a9.73,9.73,0,0,1,5.63,8.53c.2,11,.07,22.11.07,33.12-5.91,1.39-12.05.66-12.92-1.2-3.1.8-6.09,2-9.17,2.27-9.61.82-16.3-5-16.76-14.24-.48-9.51,5.7-16.56,15.13-16.91C215.2,238.63,218.74,239.16,222.3,239.39Zm.45,14.42V250c0-4.78-.78-5.55-5.62-5.56a13.19,13.19,0,0,0-1.78.1,10,10,0,0,0-8.72,11.93c1.06,5.7,6.23,9.22,11.56,7.9,3.43-.85,4.55-2.27,4.56-5.76Z"/><path d="M87.16,269.62c-4.71-1.35-9.41,1.49-13.37-1.89C71,268.44,68,269.65,65,269.9c-9.63.81-16.14-4.93-16.69-14.29S54,239.06,63.46,238.75A104.83,104.83,0,0,1,74,239.4c1.66-6.48-1.19-10.76-7.73-11.31a32.29,32.29,0,0,0-6.21.21c-2,.21-4.05.68-6.26,1.07l-1.17-3.14c1.79-.49,3.43-1.06,5.11-1.38,6.68-1.28,13.36-1.54,19.93.61s9.43,6,9.44,13q0,13.78,0,27.58ZM74.5,254.07v-4.73c0-4-.48-4.56-4.45-4.88a14.54,14.54,0,0,0-3,0,9.91,9.91,0,0,0-8.69,12.11c1.11,5.64,6.31,9.09,11.61,7.69,3.5-.93,4.47-2.19,4.48-5.79Z"/><path d="M239.94,223.88c4.21,0,7.88-.15,11.51.1a4,4,0,0,1,2.68,2.05c3.89,7.56,7.63,15.2,11.42,22.81.43.86.92,1.68,1.69,3.1l2.44-5.46c2.87-6.51,5.87-13,8.54-19.56,1-2.44,2.27-3.4,4.82-3a38.48,38.48,0,0,0,4.86,0c-.35,1.05-.54,1.86-.87,2.61-7,16-14,32-21.14,48-3.68,8.25-10.66,11.89-19.34,10.27v-6.24a6.22,6.22,0,0,1,1.38-.23c8.63.54,10.45-5.07,12.78-11.82.27-.8-.45-2-.92-3q-9.17-18.29-18.4-36.55C241,226.13,240.57,225.25,239.94,223.88Z"/><path d="M119,252c3.65-8.29,7.25-15.89,10.31-23.69,1.39-3.54,3.23-5.06,6.94-4.41a21.61,21.61,0,0,0,3.45,0c-.39,1.12-.59,1.86-.9,2.56-7,15.93-13.94,31.88-21,47.78-3.76,8.47-10.57,12.12-19.49,10.58v-6.26c.66-.08,1.3-.21,2-.23,6.42-.22,12.11-5.7,12.33-12.06a6.48,6.48,0,0,0-1-2.71q-9.06-18-18.15-36c-.52-1-1-2.08-1.78-3.65,4.47,0,8.47-.09,12.46.1.65,0,1.43,1.19,1.83,2,3.83,7.59,7.59,15.21,11.38,22.82C117.7,249.68,118.18,250.53,119,252Z"/></svg>