<svg id="Layer_1" data-name="Layer 1" xmlns="http://www.w3.org/2000/svg" viewBox="0 0 304.73 156.74"><title>waon_icon</title><path d="M47.71,56.65c-6.89,7.17-15,9.77-24.5,8.68A25.78,25.78,0,0,1,.15,40.66c-.31-11.29,0-22.6-.1-33.9C0,3.62,1.3,2.26,4.51,2.15c7.74-.27,8.09,0,8.09,7.59,0,9.63-.12,19.26,0,28.88.17,10.42,8.06,17.06,17.57,15,6.45-1.37,10.91-6.87,11-13.94.11-9.06,0-18.13,0-27.2,0-5.38.86-6.13,6.47-6.15s6.42.68,6.43,6.1c0,8.65,0,17.3,0,26,.07,9.32,6,15.67,14.37,15.63s14.21-6.5,14.25-15.79c0-10.19,0-20.37,0-30.55,0-5.13.56-5.53,6.43-5.53,5.59,0,6.16.45,6.18,5.35,0,10.46.13,20.93,0,31.39C95.25,50.29,90.23,59,79.61,63.33s-21,3.08-30-5C49.13,57.87,48.6,57.42,47.71,56.65Z" transform="translate(0 0)"/><path d="M113.58,41.87c0-5.3-.08-10.59,0-15.89.26-14.75,11.71-25.53,27-25.46,14.89.06,26.5,11,26.73,25.37.18,11,.06,22,0,33,0,4.47-.89,5.19-5.95,5.22-5.72,0-6.47-.52-6.55-5-.05-3.06,0-6.13,0-9.2s-1.36-4.73-4.5-4.74H130.64c-3.09,0-4.6,1.42-4.51,4.62s.16,6.7-.06,10c-.25,3.87-1.65,4.43-7.79,4.36-3.36,0-4.8-1.36-4.73-4.76C113.67,53.58,113.58,47.72,113.58,41.87Zm26.69-7.43a85.43,85.43,0,0,0,10-.12c1.5-.17,3.63-1.32,4.12-2.56,2.92-7.36-3-17.73-10.78-19.31-5.45-1.11-10.19.25-14,4.52s-4,9.68-3.16,15c.16,1,2.39,2.23,3.76,2.38A98.19,98.19,0,0,0,140.27,34.44Z" transform="translate(0 0)"/><path d="M235.63,33c-.22,3.89,0,7.85-.73,11.66-2.39,13.07-14.49,21.85-28.24,20.8-14.21-1.08-24.57-11.32-25-24.91-.16-5-.17-10.05,0-15.06.49-14.17,11.59-24.68,26.24-25,14.89-.33,26.39,9.76,27.41,24.15.2,2.77,0,5.57,0,8.36Zm-12.84.37h0c0-2.51.16-5,0-7.51-.59-8.2-6.66-14-14.4-13.88A14.35,14.35,0,0,0,194.22,25.8a113.21,113.21,0,0,0,0,14.62,14.23,14.23,0,0,0,14.23,13.63c7.75,0,13.78-5.81,14.3-14C222.91,37.87,222.79,35.64,222.79,33.41Z" transform="translate(0 0)"/><path d="M304.7,41.37c0,5.85-.09,11.71,0,17.57.07,3.43-1.44,4.66-4.79,4.69-7.53.08-7.77,0-7.77-7.54,0-9.48,0-19,0-28.45,0-9.32-5.83-15.87-14.08-16-8.45-.16-14.52,6.31-14.63,15.89-.13,10.18,0,20.36-.05,30.55,0,5.06-.56,5.52-5.94,5.54-6,0-6.58-.37-6.6-5.32-.05-10.6-.18-21.2,0-31.8.31-15.53,11.7-26.55,27-26.47,15.49.08,26.7,11.43,26.78,27.14C304.72,31.88,304.7,36.62,304.7,41.37Z" transform="translate(0 0)"/><path d="M151.89,88.33c-77.2,0-139.78,15.32-139.78,34.21s62.58,34.2,139.78,34.2,139.78-15.31,139.78-34.2S229.09,88.33,151.89,88.33Zm0,49.88C86.56,138.21,33.6,128,33.6,115.43s53-22.78,118.29-22.78,118.29,10.2,118.29,22.78S217.22,138.21,151.89,138.21Z" transform="translate(0 0)"/></svg>