<svg id="Layer_1" data-name="Layer 1" xmlns="http://www.w3.org/2000/svg" viewBox="0 0 257.57 122.59"><title>id_icon</title><g id="id"><path d="M83.92,112.76c5.07-1.45,10.12-3.15,15.29-4.27,2.51-.55,3.2-1.48,3.19-3.93q-.12-41.34,0-82.67c0-2.67-.82-3.5-3.42-4.06C93.9,16.74,89,15,84,13.59c1.19-5.35,1.45-5.48,5.61-4,13.47,4.66,27.33,5.54,41.46,4.62C144.58,13.29,157.22,8.7,170.3,6c18.35-3.73,36.53-3.46,53.93,4.29,18.75,8.41,29.88,22.86,32.62,43.4,1.93,14.52.18,28.46-7.67,41.11-9.14,14.74-23.07,22.42-39.61,25.9-17.23,3.64-34.19,1.72-50.87-3.24-14.48-4.32-29.25-6.63-44.29-5.39-8.31.69-16.54,2.86-24.7,4.77C85.33,117.87,85.39,118.25,83.92,112.76ZM130,63.2c0,13.2.11,26.4-.08,39.6,0,3,1.15,3.75,3.71,4.24,9.29,1.76,18.6,3.46,27.79,5.65,11.62,2.77,23.24,5,35.29,4.08,14.72-1.06,23.86-9,28.56-22.56,2.92-8.46,3.73-17.26,3.86-26.14.16-11.41.15-22.81-3.19-33.87-3.74-12.36-10.9-21.36-24.27-24-11.31-2.2-22.5-.67-33.52,1.87C156.51,14.76,145.1,18.7,133,19.41c-2.41.14-3,1.5-3,3.83C130.1,36.59,130,49.89,130,63.2Z"/><path d="M54.66,118.05a71.94,71.94,0,0,0-52.43.09c-.49-.92-.92-1.62-1.24-2.36S.55,114.4.11,113c4-1.17,7.82-2.47,11.74-3.37,2.24-.51,3.07-1.33,3.05-3.75q-.17-26,0-51.92c0-2.33-.89-3.07-2.9-3.57-3.93-1-7.8-2.19-12-3.4l2-5.16c13.09,4.61,26.23,6.81,40.2,3,.13,1.71.32,3,.32,4.3,0,18.67.06,37.35,0,56,0,2.75.5,4.28,3.56,4.63a37.64,37.64,0,0,1,7,1.94C57.38,113.16,57.55,113.81,54.66,118.05Z"/><path d="M28.5,32.68A16,16,0,0,1,12.34,16.74v-.33A16.49,16.49,0,0,1,28.56,0,16.53,16.53,0,0,1,44.74,16.46,16.08,16.08,0,0,1,28.8,32.68Z"/></g></svg>