<?xml version="1.0" encoding="utf-8"?>
<!-- Generator: Adobe Illustrator 23.1.0, SVG Export Plug-In . SVG Version: 6.00 Build 0)  -->
<svg version="1.1" id="レイヤー_1" xmlns="http://www.w3.org/2000/svg" xmlns:xlink="http://www.w3.org/1999/xlink" x="0px"
	 y="0px" viewBox="0 0 217.4 234.5" style="enable-background:new 0 0 217.4 234.5;" xml:space="preserve">
<style type="text/css">
	.st0{fill:#FFFFFF;}
</style>
<g>
	<g>
		<path class="st0" d="M26.7,205.8c-1.5-2.1-3.6-3.5-6.1-4.3c-1.4-0.4-3.3-0.7-5.4-0.7l0,0H0.6c-0.3,0-0.6,0.3-0.6,0.6v32.1
			c0,0.3,0.3,0.6,0.6,0.6h14.6c5.3,0,9.3-2.1,11.9-6.3c1.9-3,2.8-6.8,2.8-11.1c0-1.7-0.2-3.5-0.7-5.4
			C28.8,209.2,27.9,207.4,26.7,205.8z M20.5,223c-1.2,2.9-3.3,4.3-6.4,4.3c0,0-5,0-6,0c0-1,0-18.9,0-19.9c1,0,6,0,6,0
			c3,0,5,0.8,5.9,2.4c1,1.7,1.5,4.1,1.5,7.3C21.5,219.3,21.2,221.3,20.5,223z"/>
		<path class="st0" d="M64.1,231.1c-0.3-0.4-0.4-1.1-0.5-2.2l-0.1-3.7v-14.6c0-3.9-1.4-6.5-4.1-7.8c-2.7-1.3-5.9-2-9.4-2
			c-5.4,0-9.2,1.4-11.4,4.2c-1.4,1.8-2.2,4.1-2.4,6.8h0.1l0,0h0.4l7.7,0.1c0.3-1.3,0.7-2.2,1.3-2.9c0.8-0.9,2.2-1.4,4.1-1.4
			c1.7,0,3.1,0.2,4,0.7s1.3,1.3,1.3,2.6c0,1-0.6,1.8-1.7,2.3c-0.7,0.3-1.8,0.5-3.3,0.7l-2.8,0.3c-3.2,0.4-5.7,1.1-7.4,2.1
			c-3,1.8-4.6,4.7-4.6,8.6c0,3,1,5.4,2.9,7.1c1.9,1.7,4.3,2.5,7.2,2.5c2.3,0,4.3-0.5,6.1-1.6c1.4-0.8,2.7-1.9,3.8-3.1
			c0,0.3,0.2,1.7,0.2,1.7l0.5,1.8l9.2,0.1l0.1-1.3C64.7,231.7,64.4,231.4,64.1,231.1z M55,218c0,0.3,0,2.9,0,2.9
			c-0.1,2.8-0.8,4.7-2.3,5.7s-3.1,1.6-4.9,1.6c-1.1,0-2.1-0.3-2.8-0.9c-0.8-0.6-1.2-1.6-1.2-3c0-1.6,0.6-2.7,1.9-3.5
			c0.8-0.4,2-0.8,3.8-1.1l1.9-0.4l2.2-0.6C53.6,218.7,54.7,218.2,55,218z M36.4,211.6c0-0.1,0-0.2,0.1-0.4
			C36.4,211.4,36.4,211.5,36.4,211.6L36.4,211.6z"/>
		<path class="st0" d="M90.1,200.8L90.1,200.8h-0.4c-2.5,0-4.6,0.7-6.2,2c-0.9,0.7-2,2.1-3.2,4.1c0-0.6,0-5.2,0-5.2l-8-0.1
			l-0.1,31.8l8.4,0.1l0.1-15.2c0-2.5,0.3-4.4,1-5.6c1.1-2.1,3.4-3.2,6.7-3.2h1l1.4,0.1v-0.1l0,0V209l0.2-8
			C90.9,200.9,90.1,200.8,90.1,200.8z"/>
		<path class="st0" d="M117.3,218.9c0,2-0.3,3.7-0.8,4.9c-1,2.2-3,3.4-5.8,3.4c-2.2,0-3.6-0.8-4.4-2.3c-0.4-0.9-0.6-2.2-0.6-4v-19.1
			c0-0.1-0.1-0.1-0.1-0.1H97l-0.1,19.2c0,3.6,0.5,6.4,1.4,8.3c1.6,3.4,4.9,5.2,9.6,5.2c1.7,0,3.1-0.2,4.3-0.6
			c1.2-0.4,2.5-1.2,3.8-2.4l1.1-1.3c0,0,0.2-0.3,0.4-0.6c0,0.6,0,4.1,0,4.1l8.3,0.1l0.1-31.8l-8.6-0.1L117.3,218.9z"/>
		<path class="st0" d="M178.8,204.6c-1.1-1.4-2.4-2.3-3.8-2.9c-1.4-0.5-2.8-0.8-4.2-0.8c-2.1,0-4.1,0.4-5.8,1.3
			c-1.6,0.8-2.9,2.2-4,4c-0.6-1.5-1.5-2.7-2.7-3.7c-1.5-1.1-3.5-1.6-5.9-1.6c-2.6,0-4.7,0.6-6.3,1.9c-0.9,0.7-1.8,1.8-2.7,3.3
			c0-0.6,0-4.3,0-4.3l-8.3-0.1l-0.1,31.7l8.6,0.1l0.1-19.2c0-1.7,0.2-3,0.7-3.8c0.8-1.5,2.4-2.2,4.7-2.2c2,0,3.3,0.8,4,2.2
			c0.4,0.8,0.6,2.2,0.6,4v18.8l8.4,0.1l0.1-18.9c0-1.4,0.2-2.6,0.7-3.6c0.9-1.8,2.4-2.8,4.7-2.8c2,0,3.3,0.7,4,2.1
			c0.4,0.8,0.6,1.7,0.6,2.9v20.1l8.6,0.1c0.1-0.1,0.2-20,0.2-20c0-2-0.1-3.6-0.3-4.7C180.3,207,179.7,205.7,178.8,204.6z"/>
		<path class="st0" d="M216.1,231.1c-0.3-0.4-0.4-1.1-0.5-2.2l-0.1-3.7v-14.6c0-3.9-1.4-6.5-4.1-7.8c-2.7-1.3-5.9-2-9.4-2
			c-5.4,0-9.2,1.4-11.4,4.2c-1.4,1.8-2.2,4-2.4,6.8h0.1l0,0h0.4l7.7,0.1c0.3-1.3,0.7-2.2,1.3-2.9c0.8-0.9,2.2-1.4,4.1-1.4
			c1.7,0,3.1,0.2,3.9,0.7c0.9,0.5,1.3,1.3,1.3,2.6c0,1-0.6,1.8-1.7,2.3c-0.7,0.3-1.8,0.5-3.3,0.7l-2.8,0.3c-3.2,0.4-5.7,1.1-7.4,2.1
			c-3,1.8-4.6,4.7-4.6,8.6c0,3,1,5.4,2.9,7.1c1.9,1.7,4.3,2.5,7.2,2.5c2.3,0,4.3-0.5,6.1-1.6c1.5-0.9,2.7-1.9,3.8-3.1
			c0,0.3,0.2,1.7,0.2,1.7l0.5,1.8l9.2,0.1l0.1-1.3C216.8,231.7,216.4,231.4,216.1,231.1z M207.1,218c0,0.3,0,2.9,0,2.9
			c-0.1,2.7-0.8,4.7-2.3,5.7s-3.1,1.6-4.9,1.6c-1.1,0-2.1-0.3-2.8-0.9c-0.8-0.6-1.2-1.6-1.2-3c0-1.6,0.6-2.7,1.9-3.5
			c0.7-0.4,2-0.8,3.8-1.1l1.9-0.4l2.2-0.6C205.6,218.7,206.7,218.2,207.1,218z M188.4,211.6c0-0.1,0-0.2,0.1-0.4
			C188.4,211.4,188.4,211.5,188.4,211.6L188.4,211.6z"/>
	</g>
	<g>
		<path class="st0" d="M101.8,103.2c-5.4-6.4-14.3-13-23.2-18c-1.6-1-1.4-1.4,0.7-1.2c9.1,1,20,4.4,29.5,8.6
			c6.8-10.6,11.4-21,13.9-31.1c0.2-1.7-0.4-2.5-1.9-2.5c-0.6,0-5.4,0.4-14.4,1.2c-10,0.9-15.8,1.3-17.3,1.3
			c-4.5,5.7-10.8,11.9-18.7,18.4C60.7,88,51.5,93.8,42.9,97.5c-1.4,0.6-2.4,1-3.1,1.1l-0.1,0.1c-3.2,4.3-4.4,6.4-6.5,11.3
			c-6.3,13.5-2.6,29.6,4.6,41.2c10.4-3.6,19.9-8.2,28.5-13.8C79.8,128.6,91.7,117.2,101.8,103.2z"/>
		<path class="st0" d="M174.8,143.3c7.9-17.2,3.8-35.9-8.4-48.9c0.8-5,0-13.8,0-13.8c-2.6-14.8-3.4-31.2-9.4-45
			c-3.4-9-10.3-17.1-18.5-23.6c-8.1-6.1-19.3-12.2-32.9-11.9C80,0.6,71.4,8.6,64,15.5c-11.8,10.9-17.6,27-20.8,42.2
			C41.1,72.7,39,81,40.6,96c0.2-0.2,0.5-0.4,0.7-0.7c11.2-8.6,20.8-18.8,28.9-30.7c6-8.9,10.7-18.2,14.1-27.7
			c1.5-3.6-0.1-6.4-4.6-8.1c-1.3-0.2-1.4-0.7-0.3-1.5c3.4-1.7,6-2.5,7.8-2.5c3.1,0,7.3,1.8,12.6,5.3c5.3,3.6,8,6.6,8,8.8
			c0,1.2-0.5,2-1.5,2.5c-1.7,0.8-2.7,1.4-3.1,1.8c-2.2,2.2-4.8,5.6-8,10.3c8.7-0.1,16.8-0.9,24.1-2.5c1.5-0.2,3.2-1.2,5.3-2.8
			c1.7-1.4,3.1-2.2,4.1-2.2c1.4,0,5.4,2,12.2,6.1c5,3.4,7.5,6.1,7.5,8.1c0,1.4-0.7,2.5-2.1,3.3c-2.1,1.3-3.8,3.1-5.1,5.3
			c-0.8,1.3-2.1,3.6-3.9,7c-2.6,4.7-4.2,7.7-4.9,8.9c-4.4,8-7.5,13.1-9.2,15.6c7.9,6.2,15.2,17.9,16.2,23.2c1.3,7.8-3,12.5-9.7,10.9
			c-2.5-0.6-11.6-10.1-18.4-18.7c-17.1,19-40.9,31.7-71.2,38.3c7.5,9.1,17.6,14,28,17.2c27.4,7.9,61,6.3,81.5-3.9
			C167.3,158.2,174.8,143.3,174.8,143.3z M155.9,44.7c-0.5,2.2-1.7,4-3.6,5.4c-1.9,1.4-4,1.8-6.3,1.3c-3.5-0.8-6.4-4.1-8.7-10
			c-2.7-7.5-6.2-14.5-10.4-20.8c2.1,0,4.2,0.2,6.3,0.7c5.2,1.1,10.4,4,15.5,8.7C154.5,35.2,156.9,40.1,155.9,44.7z"/>
	</g>
	<path class="st0" d="M171.9,16.7c-5-4.2-9.8-6.6-14.4-7.2c-1.8-0.3-3.9-0.3-6.4-0.2c4.8,6.7,8.5,13.2,11.1,19.6
		c2.3,5.6,5.1,8.6,8.1,9c2.1,0.3,4-0.3,5.7-1.8s2.7-3.3,3-5.5C179.7,26,177.3,21.4,171.9,16.7z"/>
</g>
</svg>
