<svg id="Layer_1" data-name="Layer 1" xmlns="http://www.w3.org/2000/svg" viewBox="0 0 148.63 115.6"><title>master_icon</title><path d="M124.61,97.36a2.89,2.89,0,1,1-2.89-3A2.89,2.89,0,0,1,124.61,97.36Zm-80.2-3a3,3,0,1,0,2.81,3A2.85,2.85,0,0,0,44.41,94.34Zm30.32-.08a2.39,2.39,0,0,0-2.45,2.25h4.93A2.39,2.39,0,0,0,74.73,94.26Zm27.82.08a3,3,0,1,0,2.89,3A2.86,2.86,0,0,0,102.55,94.34Zm27.32,6.74c0,.07.08.12.08.28s-.08.13-.08.28a2.39,2.39,0,0,0-.13.21.3.3,0,0,1-.28.13c-.08.08-.13.08-.28.08a.52.52,0,0,1-.29-.08c-.07,0-.13-.08-.2-.13s-.13-.13-.13-.21a.45.45,0,0,1-.08-.28c0-.13,0-.21.08-.28a.46.46,0,0,1,.13-.29c.07-.08.13-.08.2-.13a.52.52,0,0,1,.29-.07.36.36,0,0,1,.28.07c.13.08.21.08.28.13S129.8,101,129.87,101.08Zm-.56.36c.12,0,.12-.08.2-.08a.24.24,0,0,0,.08-.21.22.22,0,0,0-.08-.2c-.08,0-.13-.08-.28-.08h-.41v.9h.2v-.36h.08l.28.36h.21l-.28-.33Zm19.32-89v90.83a12.38,12.38,0,0,1-12.38,12.38H12.39A12.39,12.39,0,0,1,0,103.22V12.39A12.39,12.39,0,0,1,12.39,0H136.25A12.39,12.39,0,0,1,148.63,12.39Zm-132.12,36A35.72,35.72,0,0,0,72,78.19C53.18,62.89,53.31,34,72,18.71a35.72,35.72,0,0,0-55.48,29.7ZM74.32,76.48c18.19-14.19,18.11-41.85,0-56.12C56.2,34.63,56.12,62.32,74.32,76.48ZM37.6,96.17a3.62,3.62,0,0,0-3.8-3.79,3.68,3.68,0,0,0-3.3,1.68,3.42,3.42,0,0,0-3.15-1.68,3.26,3.26,0,0,0-2.73,1.39V92.64H22.5v9.47h2.12c0-4.88-.65-7.79,2.32-7.79,2.63,0,2.12,2.63,2.12,7.79h2c0-4.72-.64-7.79,2.33-7.79,2.63,0,2.11,2.58,2.11,7.79h2.12V96.17Zm11.58-3.53h-2v1.13a3.7,3.7,0,0,0-3-1.39,5,5,0,0,0,0,10,3.56,3.56,0,0,0,3-1.39v1.18h2Zm10.45,6.6c0-3.87-5.91-2.11-5.91-3.92,0-1.47,3.08-1.24,4.78-.28l.85-1.68c-2.43-1.57-7.79-1.55-7.79,2.12s5.91,2.14,5.91,3.87-3.49,1.49-5.35.2l-.9,1.63c2.89,2,8.41,1.55,8.41-1.94Zm9.14,2.4-.57-1.75c-1,.54-3.15,1.13-3.15-1.06V94.55h3.38V92.64H65.05V89.75H62.94v2.89H61v1.88h2v4.31c0,4.54,4.46,3.72,5.83,2.81Zm3.43-3.45h7.1c0-4.18-1.91-5.84-4.49-5.84a4.65,4.65,0,0,0-4.7,5c0,5.29,5.83,6.17,8.72,3.67l-1-1.55C75.84,101.1,72.79,101,72.2,98.19Zm15.25-5.55a3,3,0,0,0-3.92,1.13V92.64H81.41v9.47h2.12V96.77c0-3,2.45-2.61,3.3-2.17l.62-2Zm2.74,4.72c0-2.94,3-3.9,5.34-2.17l1-1.67c-3-2.35-8.44-1.06-8.44,3.87,0,5.11,5.78,6.14,8.44,3.87l-1-1.68C93.15,101.26,90.19,100.25,90.19,97.36Zm17.21-4.72h-2.12v1.13c-2.14-2.84-7.71-1.24-7.71,3.59s5.78,6.37,7.71,3.59v1.18h2.12Zm8.69,0a3.1,3.1,0,0,0-3.92,1.13V92.64h-2v9.47h2V96.77c0-2.84,2.32-2.66,3.3-2.17l.62-2Zm10.4-3.85h-2v5c-2.11-2.81-7.71-1.31-7.71,3.59s5.81,6.35,7.71,3.59v1.18h2V88.79Zm2-19.38V70.6h.21V69.41h.49v-.2H128v.2Zm1.71,32a.75.75,0,0,0-.08-.41c-.08-.08-.13-.21-.21-.29s-.2-.13-.28-.2-.28-.08-.41-.08a2.93,2.93,0,0,1-.36.08,1.45,1.45,0,0,0-.29.2.4.4,0,0,0-.2.29.75.75,0,0,0-.08.41.71.71,0,0,0,.08.36.37.37,0,0,0,.2.28.9.9,0,0,0,.29.21.66.66,0,0,0,.36.08.75.75,0,0,0,.41-.08c.08-.08.21-.13.28-.21s.13-.2.21-.28A.71.71,0,0,0,130.16,101.36ZM131,69.18h-.36l-.41.9-.41-.9h-.37v1.4h.21V69.52l.41.9h.29l.36-.9v1.06H131Zm1.14-20.77A35.72,35.72,0,0,0,76.64,18.68c18.6,15.3,18.89,44.26,0,59.48a35.72,35.72,0,0,0,55.48-29.75Z"/></svg>