<svg id="Layer_1" data-name="Layer 1" xmlns="http://www.w3.org/2000/svg" viewBox="0 0 157.61 122.59"><title>visa_icon</title><path d="M128.63,54.53s2.08,10.18,2.55,12.32H122L126.42,55c-.06.08.9-2.49,1.45-4.08l.76,3.66Zm29-41.4v96.32a13.14,13.14,0,0,1-13.13,13.14H13.13A13.14,13.14,0,0,1,0,109.45V13.13A13.13,13.13,0,0,1,13.13,0H144.48A13.13,13.13,0,0,1,157.61,13.13ZM41.73,81.87,59,39.4H47.39l-10.75,29-1.18-5.89L31.63,43c-.63-2.71-2.57-3.48-5-3.59H9l-.19.85A43.44,43.44,0,0,1,20.3,44.93l9.8,36.94Zm25.83.06,6.9-42.53h-11L56.59,81.93ZM105.84,68c.06-4.84-2.9-8.53-9.22-11.57-3.86-1.94-6.21-3.26-6.21-5.25,0-1.81,2-3.67,6.32-3.67a19,19,0,0,1,8.18,1.61l1,.47,1.5-9.19a27.27,27.27,0,0,0-9.85-1.81c-10.86,0-18.5,5.8-18.55,14.06-.08,6.11,5.47,9.5,9.63,11.55s5.69,3.45,5.69,5.28c0,2.85-3.45,4.16-6.59,4.16a21.91,21.91,0,0,1-10.32-2.27L76,70.71l-1.53,9.55a33.81,33.81,0,0,0,12.26,2.27c11.54,0,19.07-5.69,19.15-14.51Zm38.64,13.91L135.61,39.4H127.1c-2.62,0-4.62.77-5.74,3.53L105,81.93h11.55s1.89-5.26,2.3-6.38H133c.32,1.5,1.31,6.38,1.31,6.38Z"/></svg>