<svg id="Layer_1" data-name="Layer 1" xmlns="http://www.w3.org/2000/svg" width="277.47" height="131.6" viewBox="0 0 277.47 131.6"><defs><style>.cls-1{fill:#007bff;}.cls-2{fill:#dd4343;}</style></defs><title>Artboard 1</title><path class="cls-1" d="M188,130.6a3.5,3.5,0,0,1-3.5-3.5v-71a3.5,3.5,0,1,1,7,0v71A3.5,3.5,0,0,1,188,130.6Z"/><path class="cls-1" d="M91.16,130.6a3.5,3.5,0,0,1-3.5-3.5v-71a3.5,3.5,0,1,1,7,0v71A3.5,3.5,0,0,1,91.16,130.6Z"/><path class="cls-1" d="M63.93,127.88H65.6v-4.74l.18-.82-.57.71-1.07.73-.66-.9,2.73-2.2h.88v7.22h1.63v1.32H63.93Z"/><path class="cls-1" d="M72.42,128.05a1.5,1.5,0,0,0,1.13-.4,1.3,1.3,0,0,0,.39-1,1.2,1.2,0,0,0-.41-1,2.09,2.09,0,0,0-1.28-.32h-.86v-.83l1.45-2,.68-.54-1,.11h-2V120.8h4.58v.85l-1.69,2.27-.53.32v.06l.51-.07a3,3,0,0,1,.79.19,2,2,0,0,1,1.11,1.18,2.79,2.79,0,0,1,.17,1,3,3,0,0,1-.23,1.22,2.54,2.54,0,0,1-.65.86,2.6,2.6,0,0,1-1,.52,4.1,4.1,0,0,1-1.18.17,7,7,0,0,1-1.1-.1,3.08,3.08,0,0,1-.91-.27l.42-1.3a3.51,3.51,0,0,0,.69.25A3.15,3.15,0,0,0,72.42,128.05Z"/><path class="cls-1" d="M13.24,57.87c-.56,3.25-1.87,5.68-3.57,6.93a5.5,5.5,0,0,0-1.18-1.13,7.85,7.85,0,0,0,3-4.67H8.87V57.56H12l.26-.05Zm6.36-.43a28.77,28.77,0,0,1-3.13,2.9,8.09,8.09,0,0,0,3.46,3.3A6,6,0,0,0,18.83,65,9.33,9.33,0,0,1,15,60.45V64c0,.87-.19,1.3-.68,1.54a5.72,5.72,0,0,1-2.39.32,5.59,5.59,0,0,0-.56-1.59c.79,0,1.55,0,1.8,0s.32-.08.32-.29V54.64H15v2.11a15.6,15.6,0,0,0,.85,2.41,19.72,19.72,0,0,0,2.41-2.66Z"/><path class="cls-1" d="M160.79,127.88h1.67v-4.74l.18-.82-.58.71-1.07.73-.66-.9,2.74-2.2H164v7.22h1.63v1.32h-4.79Z"/><path class="cls-1" d="M167.11,127.15a2.47,2.47,0,0,1,.11-.75,2.13,2.13,0,0,1,.31-.6,2.71,2.71,0,0,1,.47-.49,4.89,4.89,0,0,1,.58-.39,3.37,3.37,0,0,1-.93-.86,2.12,2.12,0,0,1-.33-1.21,2.29,2.29,0,0,1,.17-.87,2,2,0,0,1,.51-.71,2.3,2.3,0,0,1,.79-.47,3.23,3.23,0,0,1,1.06-.17,3,3,0,0,1,1,.15,2.34,2.34,0,0,1,.77.4,1.86,1.86,0,0,1,.49.65,2.05,2.05,0,0,1,.17.83,2.11,2.11,0,0,1-.32,1.2,3.09,3.09,0,0,1-.93.9,3.53,3.53,0,0,1,1.09.92,2.2,2.2,0,0,1,.37,1.3,2.38,2.38,0,0,1-.2,1,2.17,2.17,0,0,1-.56.75,2.49,2.49,0,0,1-.86.48,3.31,3.31,0,0,1-1.11.18,3.6,3.6,0,0,1-1.08-.16,2.54,2.54,0,0,1-.83-.45,2,2,0,0,1-.53-.7A2.24,2.24,0,0,1,167.11,127.15ZM171,127a1.06,1.06,0,0,0-.13-.5,2,2,0,0,0-.35-.42,4.22,4.22,0,0,0-.46-.34l-.53-.3a2.05,2.05,0,0,0-.77.7,1.58,1.58,0,0,0-.21.75,1.16,1.16,0,0,0,.33.83,1.25,1.25,0,0,0,.92.34,1.33,1.33,0,0,0,.87-.27A.94.94,0,0,0,171,127Zm-2.17-4.11a1.12,1.12,0,0,0,.1.5,1.36,1.36,0,0,0,.3.38,2.25,2.25,0,0,0,.42.3l.48.26a1.77,1.77,0,0,0,.72-1.35,1,1,0,0,0-.29-.76,1.05,1.05,0,0,0-.71-.26,1,1,0,0,0-.78.28A1,1,0,0,0,168.81,122.88Z"/><path class="cls-1" d="M115.13,64c0,.86-.2,1.27-.76,1.51a7.24,7.24,0,0,1-2.65.28,5.81,5.81,0,0,0-.6-1.5c.84,0,1.85,0,2.12,0s.38-.09.38-.35V62.25h-5.13a6.51,6.51,0,0,1-2,3.58,5.65,5.65,0,0,0-1.1-1c1.81-1.55,2-3.84,2-5.66v-4h7.8Zm-1.51-3.14V59.4h-4.81c0,.46,0,1-.08,1.47Zm-4.81-4.29v1.47h4.81V56.58Z"/><path class="cls-1" d="M262.14,122.85a3.67,3.67,0,0,1-.23,1.24,7.83,7.83,0,0,1-.56,1.22,11,11,0,0,1-.76,1.16c-.27.37-.54.71-.81,1l-.63.49v.06l.86-.17h2.3v1.32h-5.05v-.8l.65-.71c.24-.26.48-.55.73-.85s.48-.61.71-.93a10.37,10.37,0,0,0,.62-1,5,5,0,0,0,.44-1,2.5,2.5,0,0,0,.16-.86,1.16,1.16,0,0,0-.28-.81,1.14,1.14,0,0,0-.89-.32,2.27,2.27,0,0,0-.79.16,2.44,2.44,0,0,0-.68.42l-.62-1.11a4,4,0,0,1,1.06-.61,3.73,3.73,0,0,1,1.4-.24,2.91,2.91,0,0,1,1,.15,1.86,1.86,0,0,1,.74.42,1.74,1.74,0,0,1,.49.69A2.35,2.35,0,0,1,262.14,122.85Z"/><path class="cls-1" d="M265.88,128a1.71,1.71,0,0,0,1.21-.39,1.33,1.33,0,0,0,.42-1,1.2,1.2,0,0,0-.49-1.06,2.53,2.53,0,0,0-1.41-.33l-.94,0V120.8h4.12v1.46H266v1.62l.49,0a2.94,2.94,0,0,1,1.06.21,2.3,2.3,0,0,1,.81.54,2.17,2.17,0,0,1,.52.82,3.16,3.16,0,0,1,.18,1.09,3.06,3.06,0,0,1-.24,1.25,2.42,2.42,0,0,1-.67.9,2.76,2.76,0,0,1-1,.54,4.17,4.17,0,0,1-1.26.18,5.53,5.53,0,0,1-1-.09,3.06,3.06,0,0,1-.82-.25l.41-1.29a2.89,2.89,0,0,0,.61.18A3.72,3.72,0,0,0,265.88,128Z"/><path class="cls-1" d="M212,64c0,.86-.21,1.27-.76,1.51a7.24,7.24,0,0,1-2.65.28,5.81,5.81,0,0,0-.6-1.5c.84,0,1.85,0,2.11,0s.39-.09.39-.35V62.25h-5.14a6.44,6.44,0,0,1-2,3.58,5.71,5.71,0,0,0-1.11-1c1.81-1.55,2-3.84,2-5.66v-4H212Zm-1.51-3.14V59.4h-4.81c0,.46,0,1-.09,1.47Zm-4.81-4.29v1.47h4.81V56.58Z"/><path class="cls-2" d="M20.87,104a22.45,22.45,0,0,0,2.65.14c1.26,0,5.1,0,6.66-.07a10.24,10.24,0,0,0-1,2.82H23.39c-4.29,0-7.47-.7-9.62-4a11.6,11.6,0,0,1-3.09,4.39,17.3,17.3,0,0,0-2.28-1.88c2.51-1.86,3.65-5.07,4.07-9l2.89.28c-.14,1-.3,2-.51,3A6.22,6.22,0,0,0,18,103.24V95h-5V92.4h12.8V95h-5v2.91h6.4v2.61h-6.4ZM12.24,93.59H9.52V87.77H18V85.44h2.93v2.33h8.52v5.82H26.55V90.4H12.24Z"/><path class="cls-2" d="M48.45,93.75A22.76,22.76,0,0,0,54,102.17a10.14,10.14,0,0,0-2.07,2.21,23.83,23.83,0,0,1-4.7-7.4v10.17H44.5v-9.7a23.44,23.44,0,0,1-5,7,16.17,16.17,0,0,0-1.88-2v4.66H34.93V95.29A20.55,20.55,0,0,1,33,97.38a19.58,19.58,0,0,0-1.6-2.91,24,24,0,0,0,5.89-8.93l2.74.88a36.37,36.37,0,0,1-2.39,4.91v10.84a22.09,22.09,0,0,0,5.74-8.42H38.59v-2.7H44.5V85.79h2.74v5.26h6.08v2.7Z"/><path class="cls-2" d="M74.15,86.82v20h-3v-1.47H60.84v1.51H58V86.82ZM60.84,89.61v5H71.17v-5Zm10.33,13V97.36H60.84v5.21Z"/><path class="cls-2" d="M117.73,104a22.45,22.45,0,0,0,2.65.14c1.26,0,5.1,0,6.66-.07a10.24,10.24,0,0,0-1,2.82h-5.82c-4.28,0-7.47-.7-9.61-4a11.71,11.71,0,0,1-3.09,4.39,17.3,17.3,0,0,0-2.28-1.88c2.51-1.86,3.65-5.07,4.07-9l2.88.28c-.14,1-.3,2-.51,3a6.24,6.24,0,0,0,3.17,3.65V95h-5V92.4h12.8V95h-5v2.91h6.4v2.61h-6.4ZM109.1,93.59h-2.73V87.77h8.45V85.44h2.93v2.33h8.52v5.82h-2.86V90.4H109.1Z"/><path class="cls-2" d="M145.31,93.75a22.76,22.76,0,0,0,5.56,8.42,9.9,9.9,0,0,0-2.07,2.21,23.47,23.47,0,0,1-4.7-7.4v10.17h-2.75v-9.7a23.6,23.6,0,0,1-4.95,7,16.27,16.27,0,0,0-1.89-2v4.66h-2.72V95.29a21.78,21.78,0,0,1-1.91,2.09,21.59,21.59,0,0,0-1.6-2.91,23.88,23.88,0,0,0,5.88-8.93l2.75.88a36.45,36.45,0,0,1-2.4,4.91v10.84a22,22,0,0,0,5.75-8.42h-4.82v-2.7h5.91V85.79h2.75v5.26h6.07v2.7Z"/><path class="cls-2" d="M171,86.82v20h-3v-1.47H157.69v1.51h-2.86V86.82Zm-13.32,2.79v5H168v-5Zm10.34,13V97.36H157.69v5.21Z"/><path class="cls-2" d="M214.58,104a22.62,22.62,0,0,0,2.66.14c1.25,0,5.09,0,6.65-.07a10.58,10.58,0,0,0-1,2.82H217.1c-4.28,0-7.47-.7-9.61-4a11.73,11.73,0,0,1-3.1,4.39,16.67,16.67,0,0,0-2.28-1.88c2.51-1.86,3.65-5.07,4.07-9l2.89.28c-.14,1-.3,2-.51,3a6.26,6.26,0,0,0,3.16,3.65V95h-5V92.4h12.8V95h-5v2.91H221v2.61h-6.4ZM206,93.59h-2.72V87.77h8.45V85.44h2.93v2.33h8.51v5.82h-2.86V90.4H206Z"/><path class="cls-2" d="M242.16,93.75a22.66,22.66,0,0,0,5.57,8.42,9.94,9.94,0,0,0-2.08,2.21A23.83,23.83,0,0,1,241,97v10.17h-2.74v-9.7a23.44,23.44,0,0,1-5,7,15.46,15.46,0,0,0-1.88-2v4.66h-2.73V95.29a20.49,20.49,0,0,1-1.9,2.09,20.63,20.63,0,0,0-1.61-2.91A23.9,23.9,0,0,0,231,85.54l2.74.88a36.37,36.37,0,0,1-2.39,4.91v10.84a22.09,22.09,0,0,0,5.74-8.42H232.3v-2.7h5.91V85.79H241v5.26H247v2.7Z"/><path class="cls-2" d="M267.86,86.82v20h-3v-1.47H254.55v1.51h-2.86V86.82Zm-13.31,2.79v5h10.33v-5Zm10.33,13V97.36H254.55v5.21Z"/><path class="cls-2" d="M76.79,13.19h2.68V6.32H77.15V4.45a8.62,8.62,0,0,0,3.12-1.16H82.5v9.9h2.28v2.44h-8Z"/><path class="cls-2" d="M100.3,14.26c0,1.39-.33,2.09-1.19,2.5a9.71,9.71,0,0,1-3.88.47,9.77,9.77,0,0,0-1-2.6c1.09.09,2.52.07,2.93.07s.52-.14.52-.48v-2H90.88a9.08,9.08,0,0,1-2.85,5,9.66,9.66,0,0,0-1.93-1.79c2.5-2.07,2.71-5.25,2.71-7.78V1.85H100.3ZM97.66,9.87V8.24h-6.3c0,.51,0,1.07-.1,1.63Zm-6.3-5.61V5.89h6.3V4.26Z"/><path class="cls-2" d="M108.78,5.67a19.72,19.72,0,0,1-1.19,2v9.61H105.3v-6.8a11.85,11.85,0,0,1-1,.91A16.53,16.53,0,0,0,103,9.06a12.78,12.78,0,0,0,3.58-4.19ZM108.54,2a21.85,21.85,0,0,1-4.11,4.25,19.36,19.36,0,0,0-1.27-1.8,14,14,0,0,0,3.21-3.32ZM118,10.53a9.37,9.37,0,0,1-2.43,3.68,16.45,16.45,0,0,0,4,1,9.15,9.15,0,0,0-1.46,2.11,13.72,13.72,0,0,1-4.59-1.63A17,17,0,0,1,109,17.35a7.81,7.81,0,0,0-1.16-2.07,14.76,14.76,0,0,0,3.78-1.09,11,11,0,0,1-1-1.12,11.94,11.94,0,0,1-1.22.83,12.76,12.76,0,0,0-1.58-1.84,10,10,0,0,0,3.55-2.82l-3.11.09L108,7.17c.77,0,1.64,0,2.61,0,.17-.13.32-.27.49-.42a18.6,18.6,0,0,0-2.87-2.31l1.46-1.6c.29.17.59.37.9.58A16.45,16.45,0,0,0,112.28,1l2.13,1.1c-.73.85-1.53,1.75-2.21,2.45.24.19.46.38.65.56a27.71,27.71,0,0,0,2.54-2.87l2.2,1.21C116.4,4.67,115,6,113.68,7.12l2.19,0c-.22-.3-.42-.59-.65-.87l1.91-1A15.38,15.38,0,0,1,119.61,9l-2.07,1.16a7.79,7.79,0,0,0-.48-1l-3,.1c-.16.27-.33.54-.51.8h2.53l.39-.09Zm-5.88,1.23a7.44,7.44,0,0,0,1.37,1.31,7.38,7.38,0,0,0,1.31-1.31Z"/><path class="cls-2" d="M136.1,12.9h-6.53v4.33H127V12.9h-6.4V10.4H127V8.77h-5.39V6.32H127V1.08h2.61V6.32h5.7V8.77h-5.7V10.4h6.53ZM123.42,6a15,15,0,0,0-1.58-3.76l2.28-.88A15.35,15.35,0,0,1,125.88,5ZM135,2.1a41.09,41.09,0,0,1-2,3.74l-2.28-.78a19.35,19.35,0,0,0,1.56-3.77Z"/><path class="cls-2" d="M146.22,16.59l-1.57-2.45a13.34,13.34,0,0,0,1.67-.31,4.29,4.29,0,0,0,3.6-4.28c0-2.19-1.07-3.76-3-4.22a33,33,0,0,1-1,4.44c-1,3.4-2.53,5.68-4.54,5.68s-3.7-2.28-3.7-5.19a7.75,7.75,0,0,1,8-7.48,6.66,6.66,0,0,1,7.07,6.85C152.74,13.22,150.64,15.84,146.22,16.59Zm-4.8-4.36c.68,0,1.19-1,1.8-3a24.15,24.15,0,0,0,.87-3.83A5.08,5.08,0,0,0,140.32,10C140.32,11.47,140.83,12.23,141.42,12.23Z"/><path class="cls-2" d="M160.87,3.34c0,.29,0,.58-.05.87a20.4,20.4,0,0,0,2.94-.58l.05,2.55a30.08,30.08,0,0,1-3.06.5c0,.35,0,.71,0,1.08v.67a14.25,14.25,0,0,1,3-.36c2.68,0,4.91,1.38,4.91,3.89,0,2-.92,3.62-3.83,4.35a19.32,19.32,0,0,1-2.31.31L161.57,14a13.11,13.11,0,0,0,2.12-.12C165,13.61,166,13,166,12s-.85-1.62-2.26-1.62a12.67,12.67,0,0,0-2.9.37c0,1.28.06,2.47.06,3,0,2.39-.85,3-2.07,3-1.84,0-4.25-1.5-4.25-3.45,0-1.53,1.7-3.13,3.84-4.07,0-.44,0-.88,0-1.32v-1c-.28,0-.51,0-.74,0a21.24,21.24,0,0,1-2.48-.09l0-2.48a20,20,0,0,0,2.45.12c.25,0,.53,0,.82,0V3.36c0-.36-.07-1.34-.12-1.66h2.82C161,2,160.91,2.9,160.87,3.34ZM158,13.87c.26,0,.5-.07.5-.67,0-.32,0-.9,0-1.59-.85.47-1.36,1-1.36,1.51S157.64,13.87,158,13.87Zm12-8L168.78,8a31.94,31.94,0,0,0-4.24-2.43l1.11-2A41.72,41.72,0,0,1,170,5.86Z"/><path class="cls-2" d="M183.14,7.53a15.41,15.41,0,0,0,3.77,5.79,8.71,8.71,0,0,0-1.83,2,15.89,15.89,0,0,1-2.91-4.55v6.49h-2.45V11a17.2,17.2,0,0,1-3.17,4.42,12,12,0,0,0-1.5-1.67v3.49H172.6V9.07a13.08,13.08,0,0,1-1,1.14,18,18,0,0,0-1.42-2.65,17.26,17.26,0,0,0,4.14-6.37l2.47.79a27.64,27.64,0,0,1-1.7,3.52v7.67a16.23,16.23,0,0,0,3.79-5.64h-3.2V5.13h4.08V1.41h2.45V5.13h4.2v2.4Z"/><path class="cls-2" d="M192.07,2.63c1,0,2.58,0,3.41-.12a4.65,4.65,0,0,0,1.35-.29l1.63,1.28a4.52,4.52,0,0,0-.65.78,36.54,36.54,0,0,0-1.58,3.42,14.78,14.78,0,0,1,3.15.93c0-.07,0-.13,0-.19a12.22,12.22,0,0,0,0-2l2.7.31a25.1,25.1,0,0,1-.31,3.06c.66.39,1.23.74,1.68,1.05l-1.19,2.87q-.6-.56-1.29-1.08a8.8,8.8,0,0,1-4.2,4.33l-2.21-1.78a7.5,7.5,0,0,0,4.25-4A11,11,0,0,0,195.26,10a31.75,31.75,0,0,1-1.8,3.86,3.23,3.23,0,0,1-2.94,1.66,2.75,2.75,0,0,1-2.84-3c0-2.69,2.45-4.76,5.9-5,.41-1,.81-1.94,1.14-2.6-.68,0-1.82.05-2.59.1-.34,0-1,.08-1.46.15l-.1-2.63C191.05,2.6,191.69,2.63,192.07,2.63Zm-1.43,10.13c.3,0,.51-.17.8-.58a17,17,0,0,0,1.08-2.24c-1.56.32-2.44,1.27-2.44,2.14C190.08,12.54,190.31,12.76,190.64,12.76Z"/></svg>