<svg xmlns="http://www.w3.org/2000/svg" xmlns:xlink="http://www.w3.org/1999/xlink" width="419" height="177.57" viewBox="0 0 419 177.57">
  <defs>
    <clipPath id="clip-path">
      <rect id="Rectangle_2" data-name="Rectangle 2" width="126.73" height="17.429" transform="translate(0 0)" fill="#c73d16"/>
    </clipPath>
    <clipPath id="clip-path-2">
      <rect id="Rectangle_3" data-name="Rectangle 3" width="53.2" height="35.96" fill="none"/>
    </clipPath>
  </defs>
  <g id="Group_33" data-name="Group 33" transform="translate(-755 -321.37)">
    <g id="Group_22" data-name="Group 22" transform="translate(-5.124 -30.63)">
      <path id="Path_15" data-name="Path 15" d="M288.714,11.7h-5.186v3.2h-2.344V11.7h-6.966V9.513h2.421V6c-.187.219-.376.437-.562.625a15.658,15.658,0,0,0-1.953-1.484A11.708,11.708,0,0,0,277.279,0l2.328.594c-.125.359-.265.734-.422,1.093h8.608V3.874h-4.265V5.467h3.889V7.576h-3.889V9.513h5.186ZM278.092,3.874a15.621,15.621,0,0,1-1.047,1.593h4.139V3.874Zm3.092,3.7H278.92V9.513h2.264Z" transform="translate(621 352)" fill="#c73d13"/>
      <path id="Path_16" data-name="Path 16" d="M301.45,8.469a14.99,14.99,0,0,0,5.155,3.749,10.239,10.239,0,0,0-1.719,2.03,16.3,16.3,0,0,1-4.624-4.03V14.9h-2.42V10.343a16.49,16.49,0,0,1-4.625,4.015,12.925,12.925,0,0,0-1.686-2.015,15.622,15.622,0,0,0,5.233-3.874H292.89V6.235h4.952V4.58h-5.624V2.314h5.624V.065h2.42V2.314h5.749V4.58h-5.749V6.235h5.077V8.469Z" transform="translate(620.581 351.998)" fill="#c73d13"/>
      <path id="Path_17" data-name="Path 17" d="M323.914,11.7h-5.186v3.2h-2.343V11.7h-6.967V9.513h2.421V6c-.187.219-.375.437-.562.625a15.651,15.651,0,0,0-1.953-1.484A11.718,11.718,0,0,0,312.48,0l2.327.594c-.124.359-.265.734-.422,1.093h8.608V3.874h-4.265V5.467h3.889V7.576h-3.889V9.513h5.186ZM313.292,3.874a15.454,15.454,0,0,1-1.047,1.593h4.14V3.874Zm3.093,3.7h-2.264V9.513h2.264Z" transform="translate(620.152 352)" fill="#c73d13"/>
      <path id="Path_18" data-name="Path 18" d="M333.139,5.406a19.507,19.507,0,0,1-1.062,4.858,10.594,10.594,0,0,1,1.624,1.609L332.343,13.7a10.824,10.824,0,0,0-1.265-1.406,8.6,8.6,0,0,1-2.718,2.687A8.792,8.792,0,0,0,327,13.169a6.029,6.029,0,0,0,2.389-2.342c-.186-.156-.389-.312-.578-.468l-.125.468-1.828-.985c.36-1.249.75-2.905,1.125-4.639h-.968V3.109h1.405c.2-1.062.39-2.092.547-3.061l2.124.234c-.171.907-.359,1.859-.577,2.827h1.061l.391-.046,1.343.219c-.03.625-.077,1.218-.141,1.8l1.218-.062A31.675,31.675,0,0,0,335.639.048l2.53.454c-.468,1.5-1.031,3.093-1.561,4.4l2.109-.125c-.266-.468-.547-.937-.829-1.358l1.8-.907A17.333,17.333,0,0,1,342,6.8l-1.968,1.031a8.437,8.437,0,0,0-.36-1.062c-2.233.187-4.576.359-6.341.484Zm-3.077-.2c-.235,1.047-.468,2.078-.7,3.046.3.2.609.407.921.641a17.613,17.613,0,0,0,.781-3.687Zm4.015,3.031h7.06v6.607h-2.249v-.5h-2.672V14.9h-2.139Zm2.139,4.061h2.671V10.279h-2.671Z" transform="translate(619.73 351.999)" fill="#c73d13"/>
      <path id="Path_19" data-name="Path 19" d="M352.7,14.334l-1.437-2.25a11.7,11.7,0,0,0,1.531-.281,3.956,3.956,0,0,0,3.312-3.936,3.619,3.619,0,0,0-2.781-3.874A31.1,31.1,0,0,1,352.4,8.07c-.921,3.124-2.328,5.217-4.17,5.217-1.938,0-3.406-2.093-3.406-4.764A7.125,7.125,0,0,1,352.2,1.649a6.123,6.123,0,0,1,6.5,6.3c0,3.3-1.936,5.7-6,6.389m-4.405-4c.626,0,1.094-.953,1.656-2.765a23.324,23.324,0,0,0,.8-3.515,4.659,4.659,0,0,0-3.468,4.218c0,1.359.468,2.062,1.015,2.062" transform="translate(619.297 351.96)" fill="#c73d13"/>
      <path id="Path_20" data-name="Path 20" d="M368.143,2.14l-.047.8a19.7,19.7,0,0,0,2.7-.531l.047,2.343c-.859.187-1.858.344-2.812.453-.016.328-.016.656-.016,1v.61a13.224,13.224,0,0,1,2.749-.328c2.468,0,4.515,1.265,4.515,3.577,0,1.828-.844,3.328-3.514,4a17.65,17.65,0,0,1-2.126.281l-.858-2.452a11.894,11.894,0,0,0,1.953-.109c1.2-.2,2.077-.781,2.077-1.734,0-.921-.781-1.484-2.077-1.484a11.3,11.3,0,0,0-2.672.344c.031,1.171.063,2.265.063,2.749,0,2.2-.781,2.749-1.9,2.749-1.687,0-3.906-1.374-3.906-3.171,0-1.406,1.561-2.875,3.53-3.734-.016-.406-.016-.812-.016-1.218V5.388c-.25.016-.468.016-.671.016a20.21,20.21,0,0,1-2.281-.078l-.047-2.281a18.423,18.423,0,0,0,2.249.109c.234,0,.484,0,.749-.016V2.155c0-.328-.061-1.235-.109-1.531h2.593c-.062.3-.14,1.11-.172,1.516m-2.671,9.669c.234,0,.453-.062.453-.609,0-.3-.016-.829-.03-1.469-.782.437-1.251.953-1.251,1.39,0,.376.532.688.829.688m11.06-7.357-1.124,1.922a29.007,29.007,0,0,0-3.891-2.234L372.533,2.3a38.512,38.512,0,0,1,4,2.156" transform="translate(618.875 351.985)" fill="#c73d13"/>
      <path id="Path_21" data-name="Path 21" d="M383.87,8.328a3.158,3.158,0,0,1-.062.406c.828.843,2.452,2.7,2.858,3.2l-1.53,1.922c-.5-.812-1.25-1.875-1.953-2.8a8.258,8.258,0,0,1-2.8,3.8,8.913,8.913,0,0,0-1.625-1.718,7,7,0,0,0,2.813-4.811h-2.547V6.188h2.718V4.079h-.3a10.932,10.932,0,0,1-.969,1.875,14.132,14.132,0,0,0-1.811-1.313A11.243,11.243,0,0,0,380.309.08l2.17.438c-.093.484-.2.984-.343,1.468h3.936V4.079h-2.031V6.188h2.374v2.14Zm9.107-6.92V14.2h-2.312v-.828h-1.687v1.077h-2.2V1.408Zm-2.312,2.125h-1.687v7.717h1.687Z" transform="translate(618.482 351.998)" fill="#c73d13"/>
      <path id="Path_22" data-name="Path 22" d="M400.123,7.233a7.869,7.869,0,0,1,4.326-1.265c2.938,0,4.53,1.827,4.53,3.748,0,2.89-2.139,5.248-9.012,4.655l-.734-2.484c4.56.671,7.076-.312,7.076-2.218,0-.89-.844-1.547-2.094-1.547a5.242,5.242,0,0,0-4.045,1.7,3.937,3.937,0,0,0-.641.969l-2.17-.532a56.728,56.728,0,0,0,.781-6.639l2.546.344a24.133,24.133,0,0,0-.562,3.264M406.7,1.891l-.562,2.328c-1.641-.219-5.17-.968-6.4-1.281l.594-2.265A49.235,49.235,0,0,0,406.7,1.891" transform="translate(618.031 351.984)" fill="#c73d13"/>
      <path id="Path_23" data-name="Path 23" d="M423.237,2.542c-.017.547-.031,1-.031,1.422.3-.017.593-.048.86-.062.437-.032,1.14-.079,1.654-.126v2.3c-.3-.016-1.249.016-1.672.031-.264.017-.562.031-.89.047a24.935,24.935,0,0,1-.233,3.046c-.188.907-.609,1.11-1.454,1.11a24.461,24.461,0,0,1-2.515-.25L419,7.978a9.105,9.105,0,0,0,1.373.187c.267,0,.391-.047.424-.328.047-.375.077-.906.094-1.515-1.25.108-2.625.249-3.828.375-.017,1.327-.017,2.671,0,3.358.03,1.453.218,1.656,2.359,1.656a29.411,29.411,0,0,0,4.686-.423l-.094,2.594a44.071,44.071,0,0,1-4.406.249c-4.279,0-4.856-.859-4.92-3.686-.016-.671-.016-2.093-.016-3.5-.282.031-.516.062-.7.078-.5.062-1.641.234-2.047.3l-.249-2.39c.421,0,1.217-.031,2.14-.125.2-.016.5-.047.859-.078V3.494a14.553,14.553,0,0,0-.142-1.968h2.671a12.917,12.917,0,0,0-.109,1.828c0,.265,0,.672-.015,1.14,1.2-.108,2.562-.233,3.842-.344v-1.5a15.079,15.079,0,0,0-.124-1.578h2.546c-.047.234-.094,1.016-.109,1.469" transform="translate(617.686 351.974)" fill="#c73d13"/>
    </g>
    <g id="Group_20" data-name="Group 20" transform="translate(-40.937 -178.927)">
      <path id="Path_24" data-name="Path 24" d="M96.39,18.663a24.042,24.042,0,0,0,2.652.139c1.257,0,5.1,0,6.655-.07a10.39,10.39,0,0,0-.977,2.816H98.9c-4.281,0-7.469-.7-9.61-4a11.66,11.66,0,0,1-3.1,4.4,16.936,16.936,0,0,0-2.28-1.885c2.513-1.862,3.653-5.073,4.072-9.052l2.885.279c-.139,1.047-.3,2.025-.512,2.955A6.268,6.268,0,0,0,93.527,17.9V9.68H88.57V7.051h12.8V9.68H96.39v2.909h6.4V15.2h-6.4ZM87.756,8.238H85.033V2.42h8.448V.093h2.931V2.42h8.517V8.238h-2.861V5.05H87.756Z" transform="translate(834 651)" fill="#c73d13"/>
      <path id="Path_25" data-name="Path 25" d="M123.97,8.4a22.755,22.755,0,0,0,5.562,8.424,9.868,9.868,0,0,0-2.072,2.21,23.768,23.768,0,0,1-4.7-7.4V21.8h-2.746V12.1a23.636,23.636,0,0,1-4.956,7.05,15.387,15.387,0,0,0-1.885-2.047v4.654H110.45V9.936a20.985,20.985,0,0,1-1.908,2.094,20.13,20.13,0,0,0-1.605-2.909A23.882,23.882,0,0,0,112.824.186l2.746.884a36.721,36.721,0,0,1-2.4,4.91V16.824A22.072,22.072,0,0,0,118.92,8.4H114.1V5.7h5.91V.442h2.746V5.7h6.073V8.4Z" transform="translate(834 651)" fill="#c73d13"/>
      <path id="Path_26" data-name="Path 26" d="M149.666,1.466V21.478h-2.979V20.012H136.355v1.512h-2.862V1.466ZM136.355,9.261h10.332v-5H136.355Zm10.332,2.746H136.355v5.212h10.332Z" transform="translate(834 651)" fill="#c73d13"/>
    </g>
    <g id="Group_21" data-name="Group 21" transform="translate(-46 -178)">
      <path id="Path_27" data-name="Path 27" d="M19.756,3.676V8.633H17.08V6.026H2.536V8.633H0V3.676H2.839A18.467,18.467,0,0,0,1.3,1.419L3.7.372A15,15,0,0,1,5.771,3.351l-.745.325H8.609A18.976,18.976,0,0,0,7.1.814L9.518,0a15.708,15.708,0,0,1,1.768,3.071l-1.629.605h3.817A17.38,17.38,0,0,0,15.544.163l2.978.93c-.674.885-1.373,1.815-2.024,2.583Zm-8.773,9.192c-.186.512-.395.977-.6,1.419h7.7V21.85H15.335v-.768H4.421v.768H1.792V14.287H7.633c.116-.465.256-.954.348-1.419H3.746v-5.7H15.894v5.7Zm4.352,3.793H4.421v2.024H15.335ZM6.307,10.843h6.91V9.214H6.307Z" transform="translate(834 651)"/>
      <path id="Path_28" data-name="Path 28" d="M36.655,16.5a20.8,20.8,0,0,0,7.377,2.537,12.936,12.936,0,0,0-1.861,2.513,19.861,19.861,0,0,1-7.82-3.933V21.8H31.629V17.755a22.076,22.076,0,0,1-7.8,3.769,12.89,12.89,0,0,0-1.769-2.3A24.475,24.475,0,0,0,29.419,16.5H22.74v-2.28h8.889V13.194h-6.7v-2h6.7V10.145H23.764V7.981h4.421a10.534,10.534,0,0,0-.791-1.815l.28-.046H22.81V3.863h3.118A20.884,20.884,0,0,0,24.485.977L26.859.163a17.612,17.612,0,0,1,1.769,3.281l-1.141.419H29.6V.07h2.583V3.863H33.91V.07h2.6V3.863h2.072l-.838-.256A18.788,18.788,0,0,0,39.215.233l2.909.7c-.652,1.07-1.28,2.117-1.816,2.932h3.026V6.12H38.959c-.372.675-.744,1.3-1.094,1.861h4.562v2.164H34.351v1.048h6.982v2H34.351v1.024H43.4V16.5ZM30.326,6.12a12.47,12.47,0,0,1,.791,1.792l-.4.069h4.351c.279-.558.559-1.233.815-1.861Z" transform="translate(834 651)"/>
    </g>
    <path id="Path_39" data-name="Path 39" d="M0,0V112.457" transform="translate(1067.5 382.982)" fill="none" stroke="#007bff" stroke-linecap="round" stroke-width="7"/>
    <path id="Path_38" data-name="Path 38" d="M0,0V112.457" transform="translate(964.5 382.982)" fill="none" stroke="#007bff" stroke-linecap="round" stroke-width="7"/>
    <path id="Path_40" data-name="Path 40" d="M0,0V112.457" transform="translate(861.5 382.982)" fill="none" stroke="#007bff" stroke-linecap="round" stroke-width="7"/>
    <path id="Path_29" data-name="Path 29" d="M19.187,22.729c-.929,1.345-1.882,2.836-2.738,3.862h5.524v2.493H1.3V26.591H6.062a16.82,16.82,0,0,0-2.028-3.935L6.257,21.7H2.517V19.21H9.948V16.79h-4.5v-1.2a31.242,31.242,0,0,1-3.643,2.272A11.385,11.385,0,0,0,0,15.519,26.066,26.066,0,0,0,9.874,6.891H12.88a24.972,24.972,0,0,0,10.437,8.334,13.6,13.6,0,0,0-1.931,2.616,30.8,30.8,0,0,1-3.715-2.322V16.79H13v2.42h7.528V21.7H13v4.888h2.664l-1.589-.66A25.444,25.444,0,0,0,16.4,21.7ZM6.4,21.7a16.488,16.488,0,0,1,2.248,4.033l-2,.855h3.3V21.7Zm9.605-7.455a26.06,26.06,0,0,1-4.5-4.522,25.5,25.5,0,0,1-4.326,4.522Z" transform="translate(770 379.109)"/>
    <path id="Path_30" data-name="Path 30" d="M92.776,26.025v2.859H70.632V26.025h9.434V17.519H72.221V14.635h7.846v-7.5h3.129v7.5h7.968v2.884H83.195v8.505Z" transform="translate(802.368 378.869)" fill="#c73d13"/>
    <path id="Path_31" data-name="Path 31" d="M169.574.625v21.02h-3.128V20.1H155.593v1.588h-3.006V.625ZM155.593,8.813h10.852V3.558H155.593ZM166.446,11.7H155.594v5.475h10.852Z" transform="translate(823.413 385.375)" fill="#c73d13"/>
    <path id="Path_32" data-name="Path 32" d="M239.8,17.965c0,1.76-.415,2.591-1.54,3.079-1.173.513-2.884.562-5.4.562a12.481,12.481,0,0,0-1.222-3.055c1.711.1,3.764.074,4.3.074.587,0,.782-.2.782-.709V14.371H226.258a13.15,13.15,0,0,1-4.131,7.308,11.45,11.45,0,0,0-2.248-2.1c3.69-3.153,4.033-7.821,4.033-11.537V0H239.8Zm-3.08-6.4V8.579h-9.8c-.024.929-.073,1.956-.171,2.983Zm-9.8-5.745h9.8V2.836h-9.8Z" transform="translate(859.121 386)"/>
    <path id="Path_35" data-name="Path 35" d="M94.521,48.154h7.633V26.6H95.721V22.231a23.072,23.072,0,0,0,8.257-2.975h5.232v28.9h6.672v5.712H94.521Z" transform="translate(910.479 402.744)" fill="#c73d16"/>
    <path id="Path_36" data-name="Path 36" d="M166.759,69.214c9.265-8.832,15.361-14.881,15.361-20.018,0-3.5-1.921-5.616-5.329-5.616-2.592,0-4.7,1.729-6.528,3.7l-3.84-3.84c3.264-3.505,6.433-5.425,11.28-5.425,6.721,0,11.186,4.272,11.186,10.8,0,6.048-5.568,12.289-11.905,18.914,1.776-.193,4.128-.385,5.808-.385h7.777v5.953h-23.81Z" transform="translate(940.577 382.988)"/>
    <g id="Group_26" data-name="Group 26" transform="translate(43 -101)">
      <path id="Path_33" data-name="Path 33" d="M0,31.011l3.313-4.465a11.281,11.281,0,0,0,7.92,3.649c3.6,0,6.048-1.728,6.048-4.7,0-3.36-2.063-5.424-9.793-5.424V14.978c6.53,0,8.642-2.16,8.642-5.137,0-2.688-1.729-4.272-4.753-4.272-2.544,0-4.608,1.2-6.721,3.168l-3.6-4.321C4.129,1.729,7.537,0,11.713,0c6.865,0,11.521,3.361,11.521,9.313,0,3.744-2.209,6.337-5.9,7.825v.239c3.984,1.057,7.057,3.985,7.057,8.545,0,6.337-5.712,10.033-12.481,10.033-5.616,0-9.409-2.112-11.9-4.944" transform="translate(844 522)" fill="#c73d16"/>
      <path id="Path_34" data-name="Path 34" d="M30.96,29.57h7.633V8.016H32.16V3.648A23.053,23.053,0,0,0,40.417.672h5.232v28.9h6.672v5.713H30.96Z" transform="translate(844 522)" fill="#c73d16"/>
    </g>
    <g id="Group_27" data-name="Group 27" transform="translate(66.083 -178.093)">
      <path id="Path_24-2" data-name="Path 24" d="M96.39,18.663a24.042,24.042,0,0,0,2.652.139c1.257,0,5.1,0,6.655-.07a10.39,10.39,0,0,0-.977,2.816H98.9c-4.281,0-7.469-.7-9.61-4a11.66,11.66,0,0,1-3.1,4.4,16.936,16.936,0,0,0-2.28-1.885c2.513-1.862,3.653-5.073,4.072-9.052l2.885.279c-.139,1.047-.3,2.025-.512,2.955A6.268,6.268,0,0,0,93.527,17.9V9.68H88.57V7.051h12.8V9.68H96.39v2.909h6.4V15.2h-6.4ZM87.756,8.238H85.033V2.42h8.448V.093h2.931V2.42h8.517V8.238h-2.861V5.05H87.756Z" transform="translate(834 651)" fill="#c73d13"/>
      <path id="Path_25-2" data-name="Path 25" d="M123.97,8.4a22.755,22.755,0,0,0,5.562,8.424,9.868,9.868,0,0,0-2.072,2.21,23.768,23.768,0,0,1-4.7-7.4V21.8h-2.746V12.1a23.636,23.636,0,0,1-4.956,7.05,15.387,15.387,0,0,0-1.885-2.047v4.654H110.45V9.936a20.985,20.985,0,0,1-1.908,2.094,20.13,20.13,0,0,0-1.605-2.909A23.882,23.882,0,0,0,112.824.186l2.746.884a36.721,36.721,0,0,1-2.4,4.91V16.824A22.072,22.072,0,0,0,118.92,8.4H114.1V5.7h5.91V.442h2.746V5.7h6.073V8.4Z" transform="translate(834 651)" fill="#c73d13"/>
      <path id="Path_26-2" data-name="Path 26" d="M149.666,1.466V21.478h-2.979V20.012H136.355v1.512h-2.862V1.466ZM136.355,9.261h10.332v-5H136.355Zm10.332,2.746H136.355v5.212h10.332Z" transform="translate(834 651)" fill="#c73d13"/>
    </g>
    <g id="Group_28" data-name="Group 28" transform="translate(263 -178)">
      <path id="Path_27-2" data-name="Path 27" d="M19.756,3.676V8.633H17.08V6.026H2.536V8.633H0V3.676H2.839A18.467,18.467,0,0,0,1.3,1.419L3.7.372A15,15,0,0,1,5.771,3.351l-.745.325H8.609A18.976,18.976,0,0,0,7.1.814L9.518,0a15.708,15.708,0,0,1,1.768,3.071l-1.629.605h3.817A17.38,17.38,0,0,0,15.544.163l2.978.93c-.674.885-1.373,1.815-2.024,2.583Zm-8.773,9.192c-.186.512-.395.977-.6,1.419h7.7V21.85H15.335v-.768H4.421v.768H1.792V14.287H7.633c.116-.465.256-.954.348-1.419H3.746v-5.7H15.894v5.7Zm4.352,3.793H4.421v2.024H15.335ZM6.307,10.843h6.91V9.214H6.307Z" transform="translate(834 651)"/>
      <path id="Path_28-2" data-name="Path 28" d="M36.655,16.5a20.8,20.8,0,0,0,7.377,2.537,12.936,12.936,0,0,0-1.861,2.513,19.861,19.861,0,0,1-7.82-3.933V21.8H31.629V17.755a22.076,22.076,0,0,1-7.8,3.769,12.89,12.89,0,0,0-1.769-2.3A24.475,24.475,0,0,0,29.419,16.5H22.74v-2.28h8.889V13.194h-6.7v-2h6.7V10.145H23.764V7.981h4.421a10.534,10.534,0,0,0-.791-1.815l.28-.046H22.81V3.863h3.118A20.884,20.884,0,0,0,24.485.977L26.859.163a17.612,17.612,0,0,1,1.769,3.281l-1.141.419H29.6V.07h2.583V3.863H33.91V.07h2.6V3.863h2.072l-.838-.256A18.788,18.788,0,0,0,39.215.233l2.909.7c-.652,1.07-1.28,2.117-1.816,2.932h3.026V6.12H38.959c-.372.675-.744,1.3-1.094,1.861h4.562v2.164H34.351v1.048h6.982v2H34.351v1.024H43.4V16.5ZM30.326,6.12a12.47,12.47,0,0,1,.791,1.792l-.4.069h4.351c.279-.558.559-1.233.815-1.861Z" transform="translate(834 651)"/>
    </g>
    <path id="Path_41" data-name="Path 41" d="M0,0V112.457" transform="translate(758.5 382.982)" fill="none" stroke="#007bff" stroke-linecap="round" stroke-width="7" opacity="0"/>
    <path id="Path_42" data-name="Path 42" d="M0,0V112.457" transform="translate(1170.5 382.982)" fill="none" stroke="#007bff" stroke-linecap="round" stroke-width="7" opacity="0"/>
    <g id="Group_30" data-name="Group 30" transform="translate(901 342.998)">
      <g id="Group_29" data-name="Group 29" clip-path="url(#clip-path)">
        <path id="Path_43" data-name="Path 43" d="M.163,15.125c4.49-4.281,7.446-7.213,7.446-9.7A2.427,2.427,0,0,0,5.026,2.7,4.537,4.537,0,0,0,1.861,4.491L0,2.63A6.933,6.933,0,0,1,5.468,0C8.726,0,10.89,2.071,10.89,5.235c0,2.933-2.7,5.957-5.771,9.169.861-.093,2-.186,2.815-.186H11.7V17.1H.163Z" fill="#c73d16"/>
        <path id="Path_44" data-name="Path 44" d="M13.894,8.633C13.894,2.955,16.2,0,19.735,0s5.817,2.979,5.817,8.633c0,5.7-2.28,8.8-5.817,8.8s-5.841-3.1-5.841-8.8m8.424,0c0-4.653-1.094-5.957-2.583-5.957S17.13,3.98,17.13,8.633c0,4.678,1.116,6.12,2.605,6.12s2.583-1.442,2.583-6.12" fill="#c73d16"/>
        <path id="Path_45" data-name="Path 45" d="M27.581,15.125c4.49-4.281,7.446-7.213,7.446-9.7A2.427,2.427,0,0,0,32.444,2.7a4.537,4.537,0,0,0-3.165,1.792L27.418,2.63A6.933,6.933,0,0,1,32.886,0c3.258,0,5.422,2.071,5.422,5.235,0,2.933-2.7,5.957-5.771,9.169.861-.093,2-.186,2.815-.186h3.77V17.1H27.581Z" fill="#c73d16"/>
        <path id="Path_46" data-name="Path 46" d="M41.291,15.125c4.49-4.281,7.446-7.213,7.446-9.7A2.427,2.427,0,0,0,46.154,2.7a4.537,4.537,0,0,0-3.165,1.792L41.128,2.63A6.933,6.933,0,0,1,46.6,0c3.258,0,5.422,2.071,5.422,5.235,0,2.933-2.7,5.957-5.771,9.169.861-.093,2-.186,2.815-.186h3.77V17.1H41.291Z" fill="#c73d16"/>
        <rect id="Rectangle_1" data-name="Rectangle 1" width="6.353" height="2.443" transform="translate(60.423 9.215)" fill="#c73d16"/>
        <path id="Path_47" data-name="Path 47" d="M74.179,15.125c4.49-4.281,7.446-7.213,7.446-9.7A2.427,2.427,0,0,0,79.042,2.7a4.537,4.537,0,0,0-3.165,1.792L74.016,2.63A6.933,6.933,0,0,1,79.484,0c3.258,0,5.422,2.071,5.422,5.235,0,2.933-2.7,5.957-5.771,9.169.861-.093,2-.186,2.815-.186h3.77V17.1H74.179Z" fill="#c73d16"/>
        <path id="Path_48" data-name="Path 48" d="M87.91,8.633C87.91,2.955,90.214,0,93.751,0s5.817,2.979,5.817,8.633c0,5.7-2.28,8.8-5.817,8.8s-5.841-3.1-5.841-8.8m8.424,0c0-4.653-1.094-5.957-2.583-5.957s-2.6,1.3-2.6,5.957c0,4.678,1.116,6.12,2.6,6.12s2.583-1.442,2.583-6.12" fill="#c73d16"/>
        <path id="Path_49" data-name="Path 49" d="M101.6,15.125c4.49-4.281,7.446-7.213,7.446-9.7A2.427,2.427,0,0,0,106.46,2.7a4.537,4.537,0,0,0-3.165,1.792L101.434,2.63A6.933,6.933,0,0,1,106.9,0c3.258,0,5.422,2.071,5.422,5.235,0,2.933-2.7,5.957-5.771,9.169.861-.093,2-.186,2.815-.186h3.77V17.1H101.6Z" fill="#c73d16"/>
        <path id="Path_50" data-name="Path 50" d="M114.91,15.032l1.6-2.164a5.469,5.469,0,0,0,3.839,1.768c1.745,0,2.933-.837,2.933-2.28,0-1.629-1-2.63-4.747-2.63V7.26c3.164,0,4.188-1.047,4.188-2.49,0-1.3-.838-2.071-2.3-2.071a4.709,4.709,0,0,0-3.258,1.536l-1.745-2.1A7.666,7.666,0,0,1,120.588,0c3.327,0,5.584,1.629,5.584,4.514a3.992,3.992,0,0,1-2.863,3.793v.117a4.222,4.222,0,0,1,3.421,4.141c0,3.072-2.768,4.863-6.049,4.863a7.319,7.319,0,0,1-5.771-2.4" fill="#c73d16"/>
      </g>
    </g>
    <g id="Group_32" data-name="Group 32" transform="translate(784 421)">
      <g id="Group_31" data-name="Group 31" transform="translate(0 0)" clip-path="url(#clip-path-2)">
        <path id="Path_51" data-name="Path 51" d="M0,31.014,3.311,26.55A11.292,11.292,0,0,0,11.232,30.2c3.6,0,6.051-1.727,6.051-4.706,0-3.361-2.065-5.424-9.794-5.424V14.979c6.528,0,8.641-2.16,8.641-5.14,0-2.686-1.729-4.271-4.752-4.271-2.546,0-4.611,1.2-6.722,3.167l-3.6-4.32C4.129,1.727,7.537,0,11.715,0c6.864,0,11.521,3.361,11.521,9.311,0,3.747-2.21,6.34-5.907,7.826v.241c3.986,1.056,7.058,3.984,7.058,8.546,0,6.336-5.711,10.033-12.48,10.033C6.289,35.958,2.5,33.845,0,31.014" transform="translate(0 0.001)"/>
        <path id="Path_52" data-name="Path 52" d="M14.127,17.812C14.127,6.1,18.881,0,26.178,0s12,6.146,12,17.812c0,11.762-4.7,18.148-12,18.148S14.127,29.574,14.127,17.812m17.381,0c0-9.6-2.257-12.291-5.329-12.291S20.8,8.21,20.8,17.812c0,9.65,2.3,12.627,5.375,12.627s5.329-2.977,5.329-12.627" transform="translate(15.02 0.001)"/>
      </g>
    </g>
  </g>
</svg>
