<?xml version="1.0" encoding="utf-8"?>
<!-- Generator: Adobe Illustrator 23.1.0, SVG Export Plug-In . SVG Version: 6.00 Build 0)  -->
<svg version="1.1" id="Layer_1" xmlns="http://www.w3.org/2000/svg" xmlns:xlink="http://www.w3.org/1999/xlink" x="0px" y="0px"
	 viewBox="0 0 671.6 80.2" style="enable-background:new 0 0 671.6 80.2;" xml:space="preserve">
<style type="text/css">
	.st0{fill:none;stroke:#007BFF;stroke-width:7;stroke-linecap:round;stroke-miterlimit:10;}
	.st1{fill:#C73D13;}
	.st2{fill:none;}
</style>
<g>
	<line class="st0" x1="287.4" y1="4.9" x2="287.4" y2="75.9"/>
	<line class="st0" x1="190.6" y1="4.9" x2="190.6" y2="75.9"/>
	<line class="st0" x1="384.3" y1="4.9" x2="384.3" y2="75.9"/>
	<line class="st0" x1="93.7" y1="4.9" x2="93.7" y2="75.9"/>
	<line class="st0" x1="481.2" y1="4.9" x2="481.2" y2="75.9"/>
	<line class="st0" x1="578" y1="4.9" x2="578" y2="75.9"/>
</g>
<g>
	<g>
		<path class="st1" d="M83.9,75.3c0,0.4-0.1,0.8-0.2,1.1c-0.1,0.3-0.3,0.6-0.5,0.9c-0.2,0.2-0.5,0.4-0.8,0.6c-0.3,0.1-0.6,0.2-1,0.2
			c-0.4,0-0.7-0.1-1-0.2c-0.3-0.1-0.6-0.3-0.8-0.6s-0.4-0.6-0.5-1c-0.1-0.4-0.2-0.9-0.2-1.4c0-0.8,0.1-1.5,0.3-2.1
			c0.2-0.6,0.5-1.2,0.8-1.7s0.8-0.9,1.2-1.2c0.5-0.3,1-0.5,1.5-0.6l0.3,1.2c-0.4,0.1-0.7,0.2-1,0.4c-0.3,0.2-0.6,0.4-0.8,0.7
			c-0.2,0.3-0.4,0.5-0.6,0.9s-0.3,0.6-0.3,1c0.1-0.2,0.3-0.4,0.6-0.5c0.2-0.1,0.5-0.2,0.9-0.2c0.3,0,0.6,0.1,0.9,0.2
			c0.3,0.1,0.5,0.3,0.7,0.5c0.2,0.2,0.3,0.5,0.5,0.8C83.9,74.5,83.9,74.9,83.9,75.3z M82.6,75.4c0-0.9-0.4-1.3-1.2-1.3
			c-0.3,0-0.5,0.1-0.7,0.2c-0.2,0.1-0.3,0.3-0.4,0.5c0,0.1,0,0.2,0,0.2s0,0.1,0,0.2c0,0.2,0,0.4,0.1,0.6s0.1,0.4,0.2,0.5
			c0.1,0.1,0.2,0.3,0.4,0.4c0.2,0.1,0.3,0.1,0.5,0.1c0.3,0,0.6-0.1,0.8-0.4C82.5,76.1,82.6,75.8,82.6,75.4z"/>
	</g>
	<g>
		<path class="st1" d="M18.1,7.5c1,1.8,2.7,3.6,4.4,4.6c-0.3,0.3-0.8,0.9-1.1,1.2c-1.5-1-2.9-2.5-3.9-4.2v5.4H16V9.2
			c-1,1.7-2.4,3.3-4,4.2c-0.2-0.4-0.7-0.9-1.1-1.2c1.8-1,3.4-2.8,4.4-4.7h-3.8V6.1H16V3.3h1.5v2.8H22v1.4H18.1z"/>
	</g>
</g>
<g>
	<path class="st1" d="M169.4,76.6h1.7v-4.7l0.2-0.8l-0.6,0.7l-1.1,0.7l-0.7-0.9l2.7-2.2h0.9v7.2h1.6v1.3h-4.8V76.6z"/>
	<path class="st1" d="M175.4,73.7c0-1.5,0.3-2.6,0.8-3.3s1.2-1.1,2.2-1.1c1,0,1.7,0.4,2.2,1.1s0.7,1.8,0.7,3.3
		c0,1.5-0.3,2.6-0.8,3.3c-0.5,0.7-1.2,1.1-2.2,1.1c-1,0-1.7-0.4-2.2-1.1C175.7,76.2,175.4,75.1,175.4,73.7z M177,73.7
		c0,1,0.1,1.7,0.3,2.3c0.2,0.5,0.6,0.8,1,0.8c0.5,0,0.8-0.2,1-0.7c0.2-0.5,0.3-1.3,0.3-2.3c0-1-0.1-1.7-0.3-2.2
		c-0.2-0.5-0.6-0.8-1.1-0.8c-0.5,0-0.8,0.2-1,0.7C177.1,71.9,177,72.7,177,73.7z"/>
</g>
<g>
	<path class="st1" d="M117.7,12.7c0,0.9-0.2,1.3-0.8,1.5c-0.6,0.3-1.4,0.3-2.7,0.3c-0.1-0.4-0.4-1.1-0.6-1.5c0.8,0,1.8,0,2.1,0
		c0.3,0,0.4-0.1,0.4-0.3V11h-5.1c-0.3,1.3-0.9,2.7-2,3.6c-0.2-0.3-0.8-0.8-1.1-1c1.8-1.5,2-3.8,2-5.7V3.9h7.8V12.7z M116.2,9.6V8.1
		h-4.8c0,0.5,0,1-0.1,1.5H116.2z M111.4,5.3v1.5h4.8V5.3H111.4z"/>
</g>
<g>
	<path class="st1" d="M266.2,76.6h1.7v-4.7l0.2-0.8l-0.6,0.7l-1.1,0.7l-0.7-0.9l2.7-2.2h0.9v7.2h1.6v1.3h-4.8V76.6z"/>
	<path class="st1" d="M273.1,77.9l2.7-6.5l0.5-0.6l-0.7,0.1h-3.1v-1.5h5.4V70l-3.4,7.9H273.1z"/>
</g>
<g>
	<path class="st1" d="M214.6,12.7c0,0.9-0.2,1.3-0.8,1.5c-0.6,0.3-1.4,0.3-2.7,0.3c-0.1-0.4-0.4-1.1-0.6-1.5c0.8,0,1.8,0,2.1,0
		c0.3,0,0.4-0.1,0.4-0.3V11h-5.1c-0.3,1.3-0.9,2.7-2,3.6c-0.2-0.3-0.8-0.8-1.1-1c1.8-1.5,2-3.8,2-5.7V3.9h7.8V12.7z M213,9.6V8.1
		h-4.8c0,0.5,0,1-0.1,1.5H213z M208.2,5.3v1.5h4.8V5.3H208.2z"/>
</g>
<g>
	<g>
		<path class="st1" d="M363.1,76.6h1.7v-4.7l0.2-0.8l-0.6,0.7l-1.1,0.7l-0.7-0.9l2.7-2.2h0.9v7.2h1.6v1.3h-4.8V76.6z"/>
		<path class="st1" d="M369.4,75.9c0-0.3,0-0.5,0.1-0.8c0.1-0.2,0.2-0.4,0.3-0.6c0.1-0.2,0.3-0.3,0.5-0.5c0.2-0.1,0.4-0.3,0.6-0.4
			c-0.4-0.2-0.7-0.5-0.9-0.9c-0.2-0.3-0.3-0.7-0.3-1.2c0-0.3,0.1-0.6,0.2-0.9c0.1-0.3,0.3-0.5,0.5-0.7c0.2-0.2,0.5-0.4,0.8-0.5
			c0.3-0.1,0.7-0.2,1.1-0.2c0.4,0,0.7,0,1,0.1c0.3,0.1,0.5,0.2,0.8,0.4c0.2,0.2,0.4,0.4,0.5,0.6s0.2,0.5,0.2,0.8
			c0,0.5-0.1,0.9-0.3,1.2s-0.5,0.6-0.9,0.9c0.5,0.3,0.8,0.6,1.1,0.9s0.4,0.8,0.4,1.3c0,0.4-0.1,0.7-0.2,1s-0.3,0.5-0.6,0.8
			s-0.5,0.4-0.9,0.5c-0.3,0.1-0.7,0.2-1.1,0.2c-0.4,0-0.8-0.1-1.1-0.2c-0.3-0.1-0.6-0.3-0.8-0.5c-0.2-0.2-0.4-0.4-0.5-0.7
			C369.5,76.5,369.4,76.2,369.4,75.9z M373.3,75.7c0-0.2,0-0.4-0.1-0.5c-0.1-0.2-0.2-0.3-0.3-0.4s-0.3-0.2-0.5-0.3
			c-0.2-0.1-0.3-0.2-0.5-0.3c-0.4,0.2-0.6,0.5-0.8,0.7c-0.1,0.3-0.2,0.5-0.2,0.8c0,0.3,0.1,0.6,0.3,0.8c0.2,0.2,0.5,0.3,0.9,0.3
			c0.4,0,0.6-0.1,0.9-0.3C373.2,76.3,373.3,76.1,373.3,75.7z M371.1,71.6c0,0.2,0,0.4,0.1,0.5c0.1,0.1,0.2,0.3,0.3,0.4
			c0.1,0.1,0.3,0.2,0.4,0.3c0.2,0.1,0.3,0.2,0.5,0.3c0.5-0.4,0.7-0.9,0.7-1.3c0-0.3-0.1-0.6-0.3-0.8c-0.2-0.2-0.4-0.3-0.7-0.3
			c-0.4,0-0.6,0.1-0.8,0.3C371.2,71.1,371.1,71.3,371.1,71.6z"/>
	</g>
	<g>
		<path class="st1" d="M308.1,7.2c0,1.8,1.1,4.6,4.9,6c-0.3,0.3-0.8,0.9-1,1.3c-2.9-1.2-4.3-3.6-4.6-4.8c-0.3,1.2-1.6,3.5-4.4,4.8
			c-0.2-0.3-0.7-0.9-1-1.2c3.6-1.4,4.7-4.3,4.7-6.1V3.5h1.5V7.2z M304.9,6c-0.2,1.5-0.6,2.9-1.6,3.8L302.1,9
			c0.9-0.7,1.3-1.9,1.4-3.3L304.9,6z M312.4,6.3c-0.6,1.2-1.3,2.4-1.9,3.3L309.2,9c0.6-0.9,1.2-2.3,1.6-3.3L312.4,6.3z"/>
	</g>
</g>
<g>
	<g>
		<path class="st1" d="M459.9,76.6h1.7v-4.7l0.2-0.8l-0.6,0.7l-1.1,0.7l-0.7-0.9l2.7-2.2h0.9v7.2h1.6v1.3h-4.8V76.6z"/>
		<path class="st1" d="M466.1,72.1c0-0.4,0.1-0.8,0.2-1.1s0.3-0.6,0.5-0.9c0.2-0.2,0.5-0.4,0.9-0.6c0.3-0.1,0.7-0.2,1.2-0.2
			c0.9,0,1.6,0.3,2.1,0.8c0.5,0.5,0.8,1.3,0.8,2.4c0,0.9-0.1,1.7-0.4,2.4c-0.2,0.7-0.6,1.2-0.9,1.7c-0.4,0.5-0.9,0.8-1.4,1
			c-0.5,0.2-1.1,0.4-1.6,0.4l-0.3-1.2c0.4-0.1,0.8-0.2,1.2-0.3c0.3-0.2,0.6-0.4,0.9-0.6c0.2-0.2,0.4-0.5,0.6-0.8s0.3-0.6,0.3-1
			c-0.2,0.2-0.4,0.4-0.6,0.4c-0.2,0.1-0.5,0.1-0.9,0.1c-0.3,0-0.6-0.1-0.9-0.2c-0.3-0.1-0.6-0.3-0.8-0.5s-0.4-0.5-0.6-0.8
			C466.1,73,466.1,72.6,466.1,72.1z M467.6,72.1c0,0.5,0.1,0.8,0.4,1c0.3,0.2,0.6,0.3,1,0.3c0.3,0,0.6-0.1,0.8-0.2
			c0.2-0.1,0.4-0.2,0.5-0.4c0-0.2,0-0.3,0-0.5c0-0.2,0-0.4-0.1-0.7s-0.1-0.4-0.3-0.6s-0.3-0.3-0.4-0.4c-0.2-0.1-0.4-0.2-0.6-0.2
			c-0.4,0-0.7,0.1-0.9,0.4S467.6,71.6,467.6,72.1z"/>
	</g>
	<g>
		<path class="st1" d="M403.2,6.6c-0.6,3.3-1.9,5.7-3.6,6.9c-0.3-0.3-0.8-0.9-1.2-1.1c1.4-0.9,2.4-2.6,3-4.7h-2.6V6.3h3.1l0.3,0
			L403.2,6.6z M409.6,6.1c-1,1-2.2,2.1-3.1,2.9c0.9,1.4,2,2.6,3.5,3.3c-0.4,0.3-0.9,0.9-1.1,1.3c-1.7-1-3-2.6-3.8-4.5v3.5
			c0,0.9-0.2,1.3-0.7,1.5c-0.5,0.3-1.3,0.3-2.4,0.3c-0.1-0.5-0.3-1.2-0.6-1.6c0.8,0,1.5,0,1.8,0c0.2,0,0.3-0.1,0.3-0.3V3.4h1.5v2.1
			c0.2,0.8,0.5,1.6,0.9,2.4c0.9-0.8,1.8-1.8,2.4-2.7L409.6,6.1z"/>
	</g>
</g>
<g>
	<path class="st1" d="M561.3,71.6c0,0.4-0.1,0.8-0.2,1.2c-0.1,0.4-0.3,0.8-0.6,1.2c-0.2,0.4-0.5,0.8-0.8,1.2c-0.3,0.4-0.5,0.7-0.8,1
		l-0.6,0.5v0.1l0.9-0.2h2.3v1.3h-5.1v-0.8c0.2-0.2,0.4-0.4,0.6-0.7c0.2-0.3,0.5-0.6,0.7-0.9s0.5-0.6,0.7-0.9c0.2-0.3,0.4-0.6,0.6-1
		c0.2-0.3,0.3-0.6,0.4-0.9c0.1-0.3,0.2-0.6,0.2-0.9c0-0.3-0.1-0.6-0.3-0.8c-0.2-0.2-0.5-0.3-0.9-0.3c-0.3,0-0.5,0.1-0.8,0.2
		c-0.3,0.1-0.5,0.2-0.7,0.4l-0.6-1.1c0.3-0.3,0.7-0.5,1.1-0.6c0.4-0.2,0.9-0.2,1.4-0.2c0.3,0,0.7,0,0.9,0.1c0.3,0.1,0.5,0.2,0.7,0.4
		c0.2,0.2,0.4,0.4,0.5,0.7C561.2,70.9,561.3,71.2,561.3,71.6z"/>
	<path class="st1" d="M569,75.6h-1.3v2.3h-1.5v-2.3h-3.6v-0.9l3.8-5.2h1.3v4.9h1.3V75.6z M566.2,72.5l0.1-1h0l-0.4,0.9l-1.2,1.6
		l-0.6,0.5l0.8-0.1h1.4V72.5z"/>
</g>
<g>
	<path class="st1" d="M505.1,12.7c0,0.9-0.2,1.3-0.8,1.5c-0.6,0.3-1.4,0.3-2.7,0.3c-0.1-0.4-0.4-1.1-0.6-1.5c0.8,0,1.8,0,2.1,0
		c0.3,0,0.4-0.1,0.4-0.3V11h-5.1c-0.3,1.3-0.9,2.7-2,3.6c-0.2-0.3-0.8-0.8-1.1-1c1.8-1.5,2-3.8,2-5.7V3.9h7.8V12.7z M503.6,9.6V8.1
		h-4.8c0,0.5,0,1-0.1,1.5H503.6z M498.8,5.3v1.5h4.8V5.3H498.8z"/>
</g>
<g>
	<path class="st1" d="M655.3,76.8c0.5,0,0.9-0.1,1.1-0.4c0.3-0.3,0.4-0.6,0.4-1c0-0.5-0.1-0.8-0.4-1c-0.3-0.2-0.7-0.3-1.3-0.3h-0.9
		v-0.8l1.5-2l0.7-0.5l-0.9,0.1h-2v-1.3h4.6v0.9l-1.7,2.3l-0.5,0.3V73l0.5-0.1c0.3,0,0.5,0.1,0.8,0.2c0.3,0.1,0.5,0.3,0.7,0.5
		c0.2,0.2,0.3,0.4,0.4,0.7c0.1,0.3,0.2,0.6,0.2,1c0,0.5-0.1,0.9-0.2,1.2s-0.4,0.6-0.6,0.9c-0.3,0.2-0.6,0.4-1,0.5
		c-0.4,0.1-0.8,0.2-1.2,0.2c-0.4,0-0.7,0-1.1-0.1c-0.4-0.1-0.7-0.2-0.9-0.3l0.4-1.3c0.2,0.1,0.4,0.2,0.7,0.3
		C654.7,76.7,655,76.8,655.3,76.8z"/>
	<path class="st1" d="M660.4,76.6h1.7v-4.7l0.2-0.8l-0.6,0.7l-1.1,0.7l-0.7-0.9l2.7-2.2h0.9v7.2h1.6v1.3h-4.8V76.6z"/>
</g>
<g>
	<path class="st1" d="M602,12.7c0,0.9-0.2,1.3-0.8,1.5c-0.6,0.3-1.4,0.3-2.7,0.3c-0.1-0.4-0.4-1.1-0.6-1.5c0.8,0,1.8,0,2.1,0
		c0.3,0,0.4-0.1,0.4-0.3V11h-5.1c-0.3,1.3-0.9,2.7-2,3.6c-0.2-0.3-0.8-0.8-1.1-1c1.8-1.5,2-3.8,2-5.7V3.9h7.8V12.7z M600.5,9.6V8.1
		h-4.8c0,0.5,0,1-0.1,1.5H600.5z M595.7,5.3v1.5h4.8V5.3H595.7z"/>
</g>
<g>
	<path class="st1" d="M314,52c0.8,0.1,1.7,0.1,2.7,0.1c1.3,0,5.1,0,6.7-0.1c-0.4,0.7-0.8,2-1,2.8h-5.8c-4.3,0-7.5-0.7-9.6-4
		c-0.7,1.8-1.8,3.3-3.1,4.4c-0.5-0.5-1.6-1.5-2.3-1.9c2.5-1.9,3.7-5.1,4.1-9.1l2.9,0.3c-0.1,1-0.3,2-0.5,3c0.7,1.9,1.8,3,3.2,3.7
		v-8.2h-5v-2.6H319v2.6h-5V46h6.4v2.6H314V52z M305.4,41.6h-2.7v-5.8h8.4v-2.3h2.9v2.3h8.5v5.8h-2.9v-3.2h-14.3V41.6z"/>
	<path class="st1" d="M341.6,41.8c1.3,3.3,3.4,6.5,5.6,8.4c-0.7,0.5-1.6,1.5-2.1,2.2c-1.8-1.8-3.4-4.5-4.7-7.4v10.2h-2.7v-9.7
		c-1.3,2.8-3.1,5.3-5,7.1c-0.4-0.6-1.3-1.5-1.9-2v4.7h-2.7V43.3c-0.6,0.8-1.3,1.5-1.9,2.1c-0.3-0.7-1.1-2.2-1.6-2.9
		c2.3-2.1,4.6-5.5,5.9-8.9l2.7,0.9c-0.7,1.6-1.5,3.3-2.4,4.9v10.8c2.3-1.9,4.4-5.1,5.7-8.4h-4.8v-2.7h5.9v-5.3h2.7v5.3h6.1v2.7
		H341.6z"/>
	<path class="st1" d="M367.3,34.8v20h-3v-1.5H354v1.5h-2.9V34.8H367.3z M354,37.6v5h10.3v-5H354z M364.3,50.6v-5.2H354v5.2H364.3z"
		/>
</g>
<g>
	<path class="st1" d="M410.9,52c0.8,0.1,1.7,0.1,2.7,0.1c1.3,0,5.1,0,6.7-0.1c-0.4,0.7-0.8,2-1,2.8h-5.8c-4.3,0-7.5-0.7-9.6-4
		c-0.7,1.8-1.8,3.3-3.1,4.4c-0.5-0.5-1.6-1.5-2.3-1.9c2.5-1.9,3.7-5.1,4.1-9.1l2.9,0.3c-0.1,1-0.3,2-0.5,3c0.7,1.9,1.8,3,3.2,3.7
		v-8.2h-5v-2.6h12.8v2.6h-5V46h6.4v2.6h-6.4V52z M402.2,41.6h-2.7v-5.8h8.4v-2.3h2.9v2.3h8.5v5.8h-2.9v-3.2h-14.3V41.6z"/>
	<path class="st1" d="M438.4,41.8c1.3,3.3,3.4,6.5,5.6,8.4c-0.7,0.5-1.6,1.5-2.1,2.2c-1.8-1.8-3.4-4.5-4.7-7.4v10.2h-2.7v-9.7
		c-1.3,2.8-3.1,5.3-5,7.1c-0.4-0.6-1.3-1.5-1.9-2v4.7h-2.7V43.3c-0.6,0.8-1.3,1.5-1.9,2.1c-0.3-0.7-1.1-2.2-1.6-2.9
		c2.3-2.1,4.6-5.5,5.9-8.9l2.7,0.9c-0.7,1.6-1.5,3.3-2.4,4.9v10.8c2.3-1.9,4.4-5.1,5.7-8.4h-4.8v-2.7h5.9v-5.3h2.7v5.3h6.1v2.7
		H438.4z"/>
	<path class="st1" d="M464.1,34.8v20h-3v-1.5h-10.3v1.5H448V34.8H464.1z M450.8,37.6v5h10.3v-5H450.8z M461.2,50.6v-5.2h-10.3v5.2
		H461.2z"/>
</g>
<g>
	<path class="st1" d="M23.4,52c0.8,0.1,1.7,0.1,2.7,0.1c1.3,0,5.1,0,6.7-0.1c-0.4,0.7-0.8,2-1,2.8H26c-4.3,0-7.5-0.7-9.6-4
		c-0.7,1.8-1.8,3.3-3.1,4.4c-0.5-0.5-1.6-1.5-2.3-1.9c2.5-1.9,3.7-5.1,4.1-9.1l2.9,0.3c-0.1,1-0.3,2-0.5,3c0.7,1.9,1.8,3,3.2,3.7
		v-8.2h-5v-2.6h12.8v2.6h-5V46h6.4v2.6h-6.4V52z M14.8,41.6h-2.7v-5.8h8.4v-2.3h2.9v2.3H32v5.8h-2.9v-3.2H14.8V41.6z"/>
	<path class="st1" d="M51,41.8c1.3,3.3,3.4,6.5,5.6,8.4c-0.7,0.5-1.6,1.5-2.1,2.2c-1.8-1.8-3.4-4.5-4.7-7.4v10.2h-2.7v-9.7
		c-1.3,2.8-3.1,5.3-5,7.1c-0.4-0.6-1.3-1.5-1.9-2v4.7h-2.7V43.3c-0.6,0.8-1.3,1.5-1.9,2.1c-0.3-0.7-1.1-2.2-1.6-2.9
		c2.3-2.1,4.6-5.5,5.9-8.9l2.7,0.9c-0.7,1.6-1.5,3.3-2.4,4.9v10.8c2.3-1.9,4.4-5.1,5.7-8.4h-4.8v-2.7h5.9v-5.3h2.7v5.3h6.1v2.7H51z"
		/>
	<path class="st1" d="M76.7,34.8v20h-3v-1.5H63.4v1.5h-2.9V34.8H76.7z M63.4,37.6v5h10.3v-5H63.4z M73.7,50.6v-5.2H63.4v5.2H73.7z"
		/>
</g>
<g>
	<path class="st1" d="M120.3,52c0.8,0.1,1.7,0.1,2.7,0.1c1.3,0,5.1,0,6.7-0.1c-0.4,0.7-0.8,2-1,2.8h-5.8c-4.3,0-7.5-0.7-9.6-4
		c-0.7,1.8-1.8,3.3-3.1,4.4c-0.5-0.5-1.6-1.5-2.3-1.9c2.5-1.9,3.7-5.1,4.1-9.1l2.9,0.3c-0.1,1-0.3,2-0.5,3c0.7,1.9,1.8,3,3.2,3.7
		v-8.2h-5v-2.6h12.8v2.6h-5V46h6.4v2.6h-6.4V52z M111.7,41.6h-2.7v-5.8h8.4v-2.3h2.9v2.3h8.5v5.8H126v-3.2h-14.3V41.6z"/>
	<path class="st1" d="M147.9,41.8c1.3,3.3,3.4,6.5,5.6,8.4c-0.7,0.5-1.6,1.5-2.1,2.2c-1.8-1.8-3.4-4.5-4.7-7.4v10.2h-2.7v-9.7
		c-1.3,2.8-3.1,5.3-5,7.1c-0.4-0.6-1.3-1.5-1.9-2v4.7h-2.7V43.3c-0.6,0.8-1.3,1.5-1.9,2.1c-0.3-0.7-1.1-2.2-1.6-2.9
		c2.3-2.1,4.6-5.5,5.9-8.9l2.7,0.9c-0.7,1.6-1.5,3.3-2.4,4.9v10.8c2.3-1.9,4.4-5.1,5.7-8.4H138v-2.7h5.9v-5.3h2.7v5.3h6.1v2.7H147.9
		z"/>
	<path class="st1" d="M173.6,34.8v20h-3v-1.5h-10.3v1.5h-2.9V34.8H173.6z M160.3,37.6v5h10.3v-5H160.3z M170.6,50.6v-5.2h-10.3v5.2
		H170.6z"/>
</g>
<g>
	<path class="st1" d="M217.2,52c0.8,0.1,1.7,0.1,2.7,0.1c1.3,0,5.1,0,6.7-0.1c-0.4,0.7-0.8,2-1,2.8h-5.8c-4.3,0-7.5-0.7-9.6-4
		c-0.7,1.8-1.8,3.3-3.1,4.4c-0.5-0.5-1.6-1.5-2.3-1.9c2.5-1.9,3.7-5.1,4.1-9.1l2.9,0.3c-0.1,1-0.3,2-0.5,3c0.7,1.9,1.8,3,3.2,3.7
		v-8.2h-5v-2.6h12.8v2.6h-5V46h6.4v2.6h-6.4V52z M208.5,41.6h-2.7v-5.8h8.4v-2.3h2.9v2.3h8.5v5.8h-2.9v-3.2h-14.3V41.6z"/>
	<path class="st1" d="M244.7,41.8c1.3,3.3,3.4,6.5,5.6,8.4c-0.7,0.5-1.6,1.5-2.1,2.2c-1.8-1.8-3.4-4.5-4.7-7.4v10.2h-2.7v-9.7
		c-1.3,2.8-3.1,5.3-5,7.1c-0.4-0.6-1.3-1.5-1.9-2v4.7h-2.7V43.3c-0.6,0.8-1.3,1.5-1.9,2.1c-0.3-0.7-1.1-2.2-1.6-2.9
		c2.3-2.1,4.6-5.5,5.9-8.9l2.7,0.9c-0.7,1.6-1.5,3.3-2.4,4.9v10.8c2.3-1.9,4.4-5.1,5.7-8.4h-4.8v-2.7h5.9v-5.3h2.7v5.3h6.1v2.7
		H244.7z"/>
	<path class="st1" d="M270.4,34.8v20h-3v-1.5h-10.3v1.5h-2.9V34.8H270.4z M257.1,37.6v5h10.3v-5H257.1z M267.5,50.6v-5.2h-10.3v5.2
		H267.5z"/>
</g>
<g>
	<path class="st1" d="M507.7,52c0.8,0.1,1.7,0.1,2.7,0.1c1.3,0,5.1,0,6.7-0.1c-0.4,0.7-0.8,2-1,2.8h-5.8c-4.3,0-7.5-0.7-9.6-4
		c-0.7,1.8-1.8,3.3-3.1,4.4c-0.5-0.5-1.6-1.5-2.3-1.9c2.5-1.9,3.7-5.1,4.1-9.1l2.9,0.3c-0.1,1-0.3,2-0.5,3c0.7,1.9,1.8,3,3.2,3.7
		v-8.2h-5v-2.6h12.8v2.6h-5V46h6.4v2.6h-6.4V52z M499.1,41.6h-2.7v-5.8h8.4v-2.3h2.9v2.3h8.5v5.8h-2.9v-3.2h-14.3V41.6z"/>
	<path class="st1" d="M535.3,41.8c1.3,3.3,3.4,6.5,5.6,8.4c-0.7,0.5-1.6,1.5-2.1,2.2c-1.8-1.8-3.4-4.5-4.7-7.4v10.2h-2.7v-9.7
		c-1.3,2.8-3.1,5.3-5,7.1c-0.4-0.6-1.3-1.5-1.9-2v4.7h-2.7V43.3c-0.6,0.8-1.3,1.5-1.9,2.1c-0.3-0.7-1.1-2.2-1.6-2.9
		c2.3-2.1,4.6-5.5,5.9-8.9l2.7,0.9c-0.7,1.6-1.5,3.3-2.4,4.9v10.8c2.3-1.9,4.4-5.1,5.7-8.4h-4.8v-2.7h5.9v-5.3h2.7v5.3h6.1v2.7
		H535.3z"/>
	<path class="st1" d="M561,34.8v20h-3v-1.5h-10.3v1.5h-2.9V34.8H561z M547.7,37.6v5H558v-5H547.7z M558,50.6v-5.2h-10.3v5.2H558z"/>
</g>
<g>
	<path class="st1" d="M604.6,52c0.8,0.1,1.7,0.1,2.7,0.1c1.3,0,5.1,0,6.7-0.1c-0.4,0.7-0.8,2-1,2.8h-5.8c-4.3,0-7.5-0.7-9.6-4
		c-0.7,1.8-1.8,3.3-3.1,4.4c-0.5-0.5-1.6-1.5-2.3-1.9c2.5-1.9,3.7-5.1,4.1-9.1l2.9,0.3c-0.1,1-0.3,2-0.5,3c0.7,1.9,1.8,3,3.2,3.7
		v-8.2h-5v-2.6h12.8v2.6h-5V46h6.4v2.6h-6.4V52z M595.9,41.6h-2.7v-5.8h8.4v-2.3h2.9v2.3h8.5v5.8h-2.9v-3.2h-14.3V41.6z"/>
	<path class="st1" d="M632.2,41.8c1.3,3.3,3.4,6.5,5.6,8.4c-0.7,0.5-1.6,1.5-2.1,2.2c-1.8-1.8-3.4-4.5-4.7-7.4v10.2h-2.7v-9.7
		c-1.3,2.8-3.1,5.3-5,7.1c-0.4-0.6-1.3-1.5-1.9-2v4.7h-2.7V43.3c-0.6,0.8-1.3,1.5-1.9,2.1c-0.3-0.7-1.1-2.2-1.6-2.9
		c2.3-2.1,4.6-5.5,5.9-8.9l2.7,0.9c-0.7,1.6-1.5,3.3-2.4,4.9v10.8c2.3-1.9,4.4-5.1,5.7-8.4h-4.8v-2.7h5.9v-5.3h2.7v5.3h6.1v2.7
		H632.2z"/>
	<path class="st1" d="M657.9,34.8v20h-3v-1.5h-10.3v1.5h-2.9V34.8H657.9z M644.5,37.6v5h10.3v-5H644.5z M654.9,50.6v-5.2h-10.3v5.2
		H654.9z"/>
</g>
<rect x="578" y="3.9" class="st2" width="96.9" height="74"/>
<rect x="481.2" y="3.9" class="st2" width="96.9" height="74"/>
<rect x="384.3" y="3.9" class="st2" width="96.9" height="74"/>
<rect x="287.4" y="3.9" class="st2" width="96.9" height="74"/>
<rect x="190.6" y="3.9" class="st2" width="96.9" height="74"/>
<rect x="93.7" y="3.9" class="st2" width="96.9" height="74"/>
<rect x="-3.1" y="3.9" class="st2" width="96.9" height="74"/>
</svg>
