<svg id="Layer_1" data-name="Layer 1" xmlns="http://www.w3.org/2000/svg" width="678" height="78.03" viewBox="0 0 678 78.03"><defs><style>.cls-1,.cls-3{fill:none;}.cls-1{stroke:#007bff;stroke-linecap:round;stroke-miterlimit:10;stroke-width:7px;}.cls-2{fill:#c73d13;}</style></defs><title>Calender_golden_week</title><line class="cls-1" x1="290.57" y1="3.5" x2="290.57" y2="74.53"/><line class="cls-1" x1="193.71" y1="3.5" x2="193.71" y2="74.53"/><line class="cls-1" x1="387.43" y1="3.5" x2="387.43" y2="74.53"/><line class="cls-1" x1="96.86" y1="3.5" x2="96.86" y2="74.53"/><line class="cls-1" x1="484.28" y1="3.5" x2="484.28" y2="74.53"/><line class="cls-1" x1="581.14" y1="3.5" x2="581.14" y2="74.53"/><path class="cls-2" d="M18.12,11.54a12,12,0,0,0,4.44,4.58,5.58,5.58,0,0,0-1.07,1.25,13.29,13.29,0,0,1-3.94-4.23v5.4H16V13.2a12.75,12.75,0,0,1-3.95,4.22A7.8,7.8,0,0,0,11,16.19a11.48,11.48,0,0,0,4.4-4.65H11.55V10.12H16V7.34h1.53v2.78H22v1.42Z" transform="translate(3.13 -1.38)"/><path class="cls-2" d="M117.7,16.72c0,.86-.2,1.27-.75,1.51a7.3,7.3,0,0,1-2.65.28,6.81,6.81,0,0,0-.6-1.5c.84,0,1.84,0,2.11,0s.38-.1.38-.35V15h-5.13a6.4,6.4,0,0,1-2,3.58,6,6,0,0,0-1.1-1c1.81-1.54,2-3.83,2-5.66V7.91h7.79Zm-1.51-3.14V12.12h-4.81c0,.45,0,1-.08,1.46ZM111.38,9.3v1.46h4.81V9.3Z" transform="translate(3.13 -1.38)"/><path class="cls-2" d="M214.56,16.72c0,.86-.21,1.27-.76,1.51a7.24,7.24,0,0,1-2.65.28,6,6,0,0,0-.6-1.5c.84,0,1.85,0,2.11,0s.39-.1.39-.35V15h-5.14a6.44,6.44,0,0,1-2,3.58,5.73,5.73,0,0,0-1.11-1c1.81-1.54,2-3.83,2-5.66V7.91h7.8Zm-1.51-3.14V12.12h-4.81c0,.45,0,1-.09,1.46ZM208.24,9.3v1.46h4.81V9.3Z" transform="translate(3.13 -1.38)"/><path class="cls-2" d="M308.06,11.24c0,1.82,1.12,4.58,4.85,6a6,6,0,0,0-1,1.34,8.09,8.09,0,0,1-4.64-4.76,7.74,7.74,0,0,1-4.45,4.76,7.51,7.51,0,0,0-1-1.22,6.73,6.73,0,0,0,4.7-6.07V7.51h1.54ZM304.94,10a5.69,5.69,0,0,1-1.59,3.78L302.06,13a5,5,0,0,0,1.44-3.28Zm7.46.26a28.32,28.32,0,0,1-1.93,3.27L309.22,13a18.31,18.31,0,0,0,1.61-3.33Z" transform="translate(3.13 -1.38)"/><path class="cls-2" d="M403.23,10.58c-.55,3.25-1.87,5.69-3.56,6.93a5.5,5.5,0,0,0-1.19-1.12,7.84,7.84,0,0,0,3-4.68h-2.6V10.27H402l.26,0Zm6.37-.43a29.64,29.64,0,0,1-3.13,2.9,8,8,0,0,0,3.46,3.3,6,6,0,0,0-1.11,1.33A9.21,9.21,0,0,1,405,13.16V16.7c0,.86-.19,1.29-.69,1.53a5.46,5.46,0,0,1-2.38.33,5.57,5.57,0,0,0-.57-1.6c.8,0,1.55,0,1.8,0s.33-.09.33-.29V7.35H405V9.47a16.38,16.38,0,0,0,.85,2.41,20.4,20.4,0,0,0,2.41-2.67Z" transform="translate(3.13 -1.38)"/><path class="cls-2" d="M505.13,16.72c0,.86-.21,1.27-.76,1.51a7.24,7.24,0,0,1-2.65.28,6,6,0,0,0-.6-1.5c.84,0,1.85,0,2.11,0s.39-.1.39-.35V15h-5.14a6.44,6.44,0,0,1-2,3.58,6,6,0,0,0-1.11-1c1.81-1.54,2-3.83,2-5.66V7.91h7.8Zm-1.51-3.14V12.12h-4.81c0,.45,0,1-.09,1.46ZM498.81,9.3v1.46h4.81V9.3Z" transform="translate(3.13 -1.38)"/><path class="cls-2" d="M602,16.72c0,.86-.2,1.27-.75,1.51a7.3,7.3,0,0,1-2.65.28A6.36,6.36,0,0,0,598,17c.84,0,1.84,0,2.11,0s.38-.1.38-.35V15h-5.13a6.4,6.4,0,0,1-2,3.58,5.67,5.67,0,0,0-1.1-1c1.81-1.54,2-3.83,2-5.66V7.91H602Zm-1.51-3.14V12.12h-4.81c0,.45,0,1-.08,1.46ZM595.66,9.3v1.46h4.81V9.3Z" transform="translate(3.13 -1.38)"/><path class="cls-2" d="M312.88,51h7.7V34.54h-6.09V31.32c3.25-.56,5.53-.87,7.45-2.17h3.78V51h7v4.17H312.88Z" transform="translate(3.13 -1.38)"/><path class="cls-2" d="M339.34,48.51c0-3.15,1.57-5.15,4.48-6.79v-.14a6.32,6.32,0,0,1-3.54-5.67c-.07-4.24,3.5-7.18,8.86-7.18s8.71,2.91,8.75,6.93c0,2.59-1.19,4.45-3.57,6.13v.14c3.36,1.75,4.69,3.85,4.69,6.61,0,3.89-3.71,7.07-9.84,7.07S339.34,52.5,339.34,48.51ZM354,48.37c0-2.63-2.55-3.61-7.21-5-1.92,1.37-2.87,2.84-2.87,4.62,0,2.35,2.21,4,5.39,4C352.29,52,354,50.29,354,48.37Zm-.42-12.15c0-1.92-1.43-3.85-4.65-3.85-2.42,0-4.13,1.51-4.1,3.57,0,2.56,3.08,3.64,6.48,4.59C353.09,39,353.62,37.76,353.58,36.22Z" transform="translate(3.13 -1.38)"/><path class="cls-2" d="M409.73,51h7.7V34.54h-6.09V31.32c3.26-.56,5.53-.87,7.46-2.17h3.78V51h7v4.17H409.73Z" transform="translate(3.13 -1.38)"/><path class="cls-2" d="M439.41,49.21a6.8,6.8,0,0,0,5,2.2c2.91,0,6.1-1.85,6.44-8.54a8.4,8.4,0,0,1-6.19,2.73c-4.2,0-8.37-2.41-8.37-8.08,0-5.43,3.78-8.79,9.1-8.79,5.57,0,10.3,3.82,10.3,12.71,0,9.73-5.22,14.17-11.14,14.17a10.77,10.77,0,0,1-7.94-3.32Zm11.31-10.5c-.7-4.34-2.94-6-5.39-6s-4.2,1.75-4.2,4.69a4.16,4.16,0,0,0,4.41,4.41A6.31,6.31,0,0,0,450.72,38.71Z" transform="translate(3.13 -1.38)"/><path class="cls-2" d="M52.58,35.14a6.77,6.77,0,0,0-5-2.21c-2.9,0-6.09,1.86-6.44,8.51a8.55,8.55,0,0,1,6.2-2.7c4.2,0,8.36,2.42,8.36,8.09,0,5.42-3.78,8.78-9.1,8.78-5.56,0-10.29-3.81-10.29-12.7,0-9.73,5.22-14.18,11.13-14.18a10.9,10.9,0,0,1,8,3.29ZM50.87,46.93a4.15,4.15,0,0,0-4.41-4.37,6.31,6.31,0,0,0-5.18,3.08c.7,4.34,2.94,6,5.39,6S50.87,49.91,50.87,46.93Z" transform="translate(3.13 -1.38)"/><path class="cls-2" d="M119.16,51h7.7V34.54h-6.09V31.32c3.26-.56,5.53-.87,7.46-2.17H132V51h7v4.17H119.16Z" transform="translate(3.13 -1.38)"/><path class="cls-2" d="M145.59,42c0-8.82,4-13.26,10.08-13.26S165.75,33.21,165.75,42s-4,13.58-10.08,13.58S145.59,50.92,145.59,42Zm15.26,0c0-7.24-2.35-9.24-5.18-9.24s-5.18,2-5.18,9.24,2.34,9.56,5.18,9.56S160.85,49.28,160.85,42Z" transform="translate(3.13 -1.38)"/><path class="cls-2" d="M216,51h7.7V34.54h-6.09V31.32c3.26-.56,5.53-.87,7.46-2.17h3.78V51h7v4.17H216Z" transform="translate(3.13 -1.38)"/><path class="cls-2" d="M256.2,33.46H242.8V29.15h19v3.19c-6.33,7.73-8.08,13.33-8.15,22.82h-5.39C248.82,45.43,251,40.11,256.2,33.46Z" transform="translate(3.13 -1.38)"/><path class="cls-2" d="M506.87,52.22c7.42-5.81,13.41-11,13.41-15.16a4.14,4.14,0,0,0-4.48-4.23c-2.42,0-4.17,1.22-6.27,3.46l-3-2.94A12.65,12.65,0,0,1,516,28.73c5.36,0,9.24,2.91,9.24,8.16,0,5-4.55,9.52-10.11,14.21,1.4-.11,2.59-.25,3.85-.25h7.38v4.31H506.87Z" transform="translate(3.13 -1.38)"/><path class="cls-2" d="M553.18,48.44h-3.57v6.72h-4.76V48.44H532.14V44.9L543,29.15h6.65V44.48h3.57Zm-8.33-4v-6c0-1.54.1-3.68.21-5.46h-.14c-1,1.89-2,3.64-2.94,5.07l-4.38,6.44Z" transform="translate(3.13 -1.38)"/><path class="cls-2" d="M603.34,51.1l2.52-3.22a10.46,10.46,0,0,0,7.53,3.53c2.87,0,4.9-1.4,4.9-3.57,0-2.52-2-4.13-8.23-4.13V40c5.46,0,7.63-1.79,7.63-4,0-1.86-1.5-3.22-4.41-3.22A9.26,9.26,0,0,0,606.56,36l-2.69-3.15a13.93,13.93,0,0,1,9.59-4.1c5.56,0,9.06,2.73,9.06,6.79A6,6,0,0,1,618,41.58v.14a6.49,6.49,0,0,1,5.15,6.54c0,4.55-4.34,7.35-9.49,7.35A13.19,13.19,0,0,1,603.34,51.1Z" transform="translate(3.13 -1.38)"/><path class="cls-2" d="M630.05,51h7.7V34.54h-6.09V31.32c3.25-.56,5.53-.87,7.45-2.17h3.78V51h7v4.17H630.05Z" transform="translate(3.13 -1.38)"/><rect class="cls-3" x="581.14" y="2.5" width="96.86" height="74.03"/><rect class="cls-3" x="484.28" y="2.5" width="96.86" height="74.03"/><rect class="cls-3" x="387.43" y="2.5" width="96.86" height="74.03"/><rect class="cls-3" x="290.57" y="2.5" width="96.86" height="74.03"/><rect class="cls-3" x="193.71" y="2.5" width="96.86" height="74.03"/><rect class="cls-3" x="96.86" y="2.5" width="96.86" height="74.03"/><rect class="cls-3" y="2.5" width="96.86" height="74.03"/></svg>