<svg id="Layer_1" data-name="Layer 1" xmlns="http://www.w3.org/2000/svg" width="698.72" height="219.06" viewBox="0 0 698.72 219.06"><defs><style>.cls-1,.cls-3{fill:#007bff;}.cls-2{fill:#c73d13;}.cls-3{font-size:12px;font-family:PTSans-Bold, PT Sans;font-weight:700;}</style></defs><title>Artboard 1</title><path class="cls-1" d="M694.21,134.78h-678a3.5,3.5,0,0,1,0-7h678a3.5,3.5,0,0,1,0,7Z"/><path class="cls-1" d="M306.78,218.29a3.5,3.5,0,0,1-3.5-3.5v-71a3.5,3.5,0,0,1,7,0v71A3.5,3.5,0,0,1,306.78,218.29Z"/><path class="cls-1" d="M209.92,218.29a3.5,3.5,0,0,1-3.5-3.5v-71a3.5,3.5,0,0,1,7,0v71A3.5,3.5,0,0,1,209.92,218.29Z"/><path class="cls-1" d="M403.64,218.29a3.5,3.5,0,0,1-3.5-3.5v-71a3.5,3.5,0,0,1,7,0v71A3.5,3.5,0,0,1,403.64,218.29Z"/><path class="cls-1" d="M113.07,218.29a3.5,3.5,0,0,1-3.5-3.5v-71a3.5,3.5,0,0,1,7,0v71A3.5,3.5,0,0,1,113.07,218.29Z"/><path class="cls-1" d="M500.49,218.29a3.5,3.5,0,0,1-3.5-3.5v-71a3.5,3.5,0,0,1,7,0v71A3.5,3.5,0,0,1,500.49,218.29Z"/><path class="cls-1" d="M597.35,218.29a3.5,3.5,0,0,1-3.5-3.5v-71a3.5,3.5,0,0,1,7,0v71A3.5,3.5,0,0,1,597.35,218.29Z"/><path class="cls-1" d="M306.78,122.31a3.5,3.5,0,0,1-3.5-3.5v-71a3.5,3.5,0,1,1,7,0v71A3.5,3.5,0,0,1,306.78,122.31Z"/><path class="cls-1" d="M209.92,122.31a3.5,3.5,0,0,1-3.5-3.5v-71a3.5,3.5,0,0,1,7,0v71A3.5,3.5,0,0,1,209.92,122.31Z"/><path class="cls-1" d="M403.64,122.31a3.5,3.5,0,0,1-3.5-3.5v-71a3.5,3.5,0,1,1,7,0v71A3.5,3.5,0,0,1,403.64,122.31Z"/><path class="cls-1" d="M113.07,122.31a3.5,3.5,0,0,1-3.5-3.5v-71a3.5,3.5,0,0,1,7,0v71A3.5,3.5,0,0,1,113.07,122.31Z"/><path class="cls-1" d="M500.49,122.31a3.5,3.5,0,0,1-3.5-3.5v-71a3.5,3.5,0,1,1,7,0v71A3.5,3.5,0,0,1,500.49,122.31Z"/><path class="cls-1" d="M597.35,122.31a3.5,3.5,0,0,1-3.5-3.5v-71a3.5,3.5,0,1,1,7,0v71A3.5,3.5,0,0,1,597.35,122.31Z"/><path class="cls-1" d="M90.33,114.56a3.55,3.55,0,0,1-.22,1.23,7.58,7.58,0,0,1-.57,1.23,12,12,0,0,1-.75,1.16q-.42.55-.81,1l-.64.49v.06l.87-.16h2.3v1.32H85.46v-.81c.19-.2.41-.43.65-.7s.48-.55.72-.85.48-.61.72-.93a9.3,9.3,0,0,0,.62-1,6.54,6.54,0,0,0,.44-.94,2.5,2.5,0,0,0,.16-.86,1.16,1.16,0,0,0-.28-.81,1.12,1.12,0,0,0-.9-.32,2.05,2.05,0,0,0-.78.16,2.37,2.37,0,0,0-.68.41l-.62-1.1a3.84,3.84,0,0,1,1.06-.62,3.91,3.91,0,0,1,1.4-.23,3.09,3.09,0,0,1,.94.14,2.28,2.28,0,0,1,.75.42,2,2,0,0,1,.49.69A2.43,2.43,0,0,1,90.33,114.56Z"/><path class="cls-1" d="M92.68,120.91l2.75-6.47.53-.59-.72.12H92.15v-1.46h5.42V113l-3.36,8Z"/><path class="cls-1" d="M40.31,47.06V57.37H38.78v-.75H33.45v.77H32V47.06ZM33.45,48.5v2.57h5.33V48.5Zm5.33,6.68V52.49H33.45v2.69Z"/><path class="cls-1" d="M187.19,114.56a3.57,3.57,0,0,1-.23,1.23,6.77,6.77,0,0,1-.56,1.23,12.15,12.15,0,0,1-.76,1.16q-.4.55-.81,1l-.63.49v.06l.86-.16h2.31v1.32h-5.06v-.81c.2-.2.41-.43.65-.7l.73-.85c.24-.3.48-.61.71-.93a11.44,11.44,0,0,0,.63-1,5.53,5.53,0,0,0,.43-.94,2.52,2.52,0,0,0,.17-.86,1.16,1.16,0,0,0-.29-.81,1.09,1.09,0,0,0-.89-.32,2.06,2.06,0,0,0-.79.16,2.45,2.45,0,0,0-.67.41l-.63-1.1a3.63,3.63,0,0,1,2.46-.85,3.16,3.16,0,0,1,1,.14,2.14,2.14,0,0,1,.74.42,2,2,0,0,1,.5.69A2.43,2.43,0,0,1,187.19,114.56Z"/><path class="cls-1" d="M189,118.85a2.47,2.47,0,0,1,.11-.75,1.9,1.9,0,0,1,.31-.6,2.32,2.32,0,0,1,.46-.48,4.07,4.07,0,0,1,.59-.4,3.1,3.1,0,0,1-.93-.86,2.07,2.07,0,0,1-.33-1.2,2.16,2.16,0,0,1,.17-.88,2.08,2.08,0,0,1,.5-.71,2.33,2.33,0,0,1,.8-.46,3,3,0,0,1,1.06-.17,3.31,3.31,0,0,1,1,.14,2.22,2.22,0,0,1,.76.41,1.83,1.83,0,0,1,.5.64,2.07,2.07,0,0,1,.17.84,2.19,2.19,0,0,1-.32,1.2,3.34,3.34,0,0,1-.93.9,3.51,3.51,0,0,1,1.09.92,2.19,2.19,0,0,1,.36,1.3,2.33,2.33,0,0,1-.19,1,2.11,2.11,0,0,1-.56.75,2.63,2.63,0,0,1-.87.49,3.21,3.21,0,0,1-1.1.17,3.42,3.42,0,0,1-1.09-.16,2.48,2.48,0,0,1-.82-.45,1.88,1.88,0,0,1-.53-.69A2.13,2.13,0,0,1,189,118.85Zm3.87-.15a1,1,0,0,0-.14-.51,1.46,1.46,0,0,0-.34-.41,2.83,2.83,0,0,0-.47-.34,5.39,5.39,0,0,0-.52-.3,2,2,0,0,0-.77.7,1.52,1.52,0,0,0-.21.75,1.14,1.14,0,0,0,.33.82,1.2,1.2,0,0,0,.92.34,1.33,1.33,0,0,0,.87-.26A1,1,0,0,0,192.89,118.7Zm-2.18-4.12a1.19,1.19,0,0,0,.11.51,1.07,1.07,0,0,0,.3.37,2.25,2.25,0,0,0,.42.3,3.67,3.67,0,0,0,.48.26,1.75,1.75,0,0,0,.72-1.34,1,1,0,0,0-.29-.76,1,1,0,0,0-.72-.26.9.9,0,0,0-1,.92Z"/><path class="cls-1" d="M137,55.72c0,.86-.21,1.27-.76,1.51a7.29,7.29,0,0,1-2.65.27A6,6,0,0,0,133,56c.84,0,1.85,0,2.11,0s.39-.1.39-.35V54h-5.14a6.46,6.46,0,0,1-2,3.59,5.43,5.43,0,0,0-1.11-1c1.81-1.55,2-3.84,2-5.66v-4H137Zm-1.51-3.15V51.11h-4.81c0,.46,0,1-.09,1.46Zm-4.81-4.28v1.46h4.81V48.29Z"/><path class="cls-1" d="M284,114.56a3.65,3.65,0,0,1-.22,1.24,8.87,8.87,0,0,1-.56,1.22,12.15,12.15,0,0,1-.76,1.16q-.42.55-.81,1l-.64.49v.06l.87-.16h2.3v1.32h-5.05v-.81c.19-.2.41-.43.65-.7s.48-.55.72-.85.49-.61.72-.93a9.3,9.3,0,0,0,.62-1,5.62,5.62,0,0,0,.44-.94,2.5,2.5,0,0,0,.16-.86,1.16,1.16,0,0,0-.28-.81,1.12,1.12,0,0,0-.89-.32,2.06,2.06,0,0,0-.79.16,2.3,2.3,0,0,0-.68.42l-.62-1.11a3.84,3.84,0,0,1,1.06-.62,4,4,0,0,1,1.4-.23,3.21,3.21,0,0,1,.95.14,2.34,2.34,0,0,1,.74.42,2,2,0,0,1,.49.69A2.43,2.43,0,0,1,284,114.56Z"/><path class="cls-1" d="M285.69,115.13a3.37,3.37,0,0,1,.18-1.12,2.36,2.36,0,0,1,1.41-1.46,3.05,3.05,0,0,1,1.17-.21,2.82,2.82,0,0,1,2.13.81,3.3,3.3,0,0,1,.77,2.36,7.41,7.41,0,0,1-.35,2.4,5.34,5.34,0,0,1-.95,1.7,4.16,4.16,0,0,1-1.38,1,4.63,4.63,0,0,1-1.64.43l-.34-1.22a3.78,3.78,0,0,0,1.18-.32,3.31,3.31,0,0,0,.89-.6,2.76,2.76,0,0,0,.6-.8,3.18,3.18,0,0,0,.33-1,1.52,1.52,0,0,1-.61.43,2.69,2.69,0,0,1-.89.12,2.83,2.83,0,0,1-.9-.15,2.36,2.36,0,0,1-.81-.47,2.56,2.56,0,0,1-.57-.81A2.71,2.71,0,0,1,285.69,115.13Zm1.51-.08a1.33,1.33,0,0,0,.38,1,1.35,1.35,0,0,0,1,.35,1.74,1.74,0,0,0,.81-.16,1.42,1.42,0,0,0,.48-.38,4.12,4.12,0,0,0,0-.48,3,3,0,0,0-.08-.66,1.8,1.8,0,0,0-.26-.58,1.41,1.41,0,0,0-.44-.4,1.33,1.33,0,0,0-.65-.15,1.15,1.15,0,0,0-.91.38A1.59,1.59,0,0,0,287.2,115.05Z"/><path class="cls-1" d="M230.54,50.23c0,1.83,1.12,4.59,4.85,6a6.37,6.37,0,0,0-1,1.34,8.14,8.14,0,0,1-4.64-4.76,7.77,7.77,0,0,1-4.45,4.76,6.75,6.75,0,0,0-1-1.22,6.74,6.74,0,0,0,4.7-6.07V46.5h1.54ZM227.42,49a5.73,5.73,0,0,1-1.58,3.78l-1.3-.8A5,5,0,0,0,226,48.71Zm7.46.27A29,29,0,0,1,233,52.55L231.7,52a17.88,17.88,0,0,0,1.61-3.32Z"/><path class="cls-1" d="M378.09,119.75a1.56,1.56,0,0,0,1.14-.39,1.34,1.34,0,0,0,.39-1,1.22,1.22,0,0,0-.41-1,2,2,0,0,0-1.29-.32h-.86v-.83l1.45-2,.69-.54-.95.11h-2v-1.32h4.59v.85l-1.7,2.27-.52.32V116l.5-.07a2.67,2.67,0,0,1,.8.19,1.85,1.85,0,0,1,.66.45,2.31,2.31,0,0,1,.45.73,2.74,2.74,0,0,1,.16,1,2.94,2.94,0,0,1-.23,1.23,2.42,2.42,0,0,1-.65.86,2.62,2.62,0,0,1-1,.52,4.17,4.17,0,0,1-1.19.16,6.87,6.87,0,0,1-1.09-.09,3.47,3.47,0,0,1-.92-.28l.43-1.29a3.86,3.86,0,0,0,.68.25A3.76,3.76,0,0,0,378.09,119.75Z"/><path class="cls-1" d="M382.48,116.69a5.78,5.78,0,0,1,.76-3.28,2.5,2.5,0,0,1,2.17-1.07,2.47,2.47,0,0,1,2.22,1.06,6.07,6.07,0,0,1,.71,3.29,5.83,5.83,0,0,1-.76,3.3,2.52,2.52,0,0,1-2.18,1.08,2.41,2.41,0,0,1-2.21-1.13A6.2,6.2,0,0,1,382.48,116.69Zm1.56,0a6.44,6.44,0,0,0,.32,2.27,1.1,1.1,0,0,0,2.09.06,6,6,0,0,0,.33-2.33,6.57,6.57,0,0,0-.31-2.24,1.1,1.1,0,0,0-1.07-.79,1.08,1.08,0,0,0-1,.74A6.23,6.23,0,0,0,384,116.69Z"/><path class="cls-1" d="M325.71,49.57c-.55,3.26-1.87,5.69-3.56,6.94A5.55,5.55,0,0,0,321,55.38a7.84,7.84,0,0,0,3-4.68h-2.6V49.26h3.13l.26,0Zm6.37-.43A30.88,30.88,0,0,1,329,52.05a8,8,0,0,0,3.46,3.29,6.28,6.28,0,0,0-1.11,1.33,9.17,9.17,0,0,1-3.81-4.52v3.54c0,.87-.19,1.3-.68,1.54a5.72,5.72,0,0,1-2.39.32,5.8,5.8,0,0,0-.56-1.59c.79,0,1.54,0,1.79,0s.33-.08.33-.29V46.35h1.51v2.11a16,16,0,0,0,.85,2.41,19.72,19.72,0,0,0,2.41-2.66Z"/><path class="cls-2" d="M475,119.75a1.54,1.54,0,0,0,1.13-.39,1.34,1.34,0,0,0,.39-1,1.19,1.19,0,0,0-.41-1,2,2,0,0,0-1.28-.32h-.86v-.83l1.45-2,.68-.54-.95.11h-2v-1.32h4.58v.85L476,115.63l-.53.32V116l.51-.07a2.61,2.61,0,0,1,.79.19,1.69,1.69,0,0,1,.66.45,2.15,2.15,0,0,1,.45.73,2.54,2.54,0,0,1,.17,1,3.1,3.1,0,0,1-.23,1.23,2.42,2.42,0,0,1-.65.86,2.75,2.75,0,0,1-1,.52,4.06,4.06,0,0,1-1.18.16,7,7,0,0,1-1.1-.09,3.38,3.38,0,0,1-.91-.28l.42-1.29a4.3,4.3,0,0,0,.69.25A3.7,3.7,0,0,0,475,119.75Z"/><path class="cls-2" d="M480.07,119.59h1.67v-4.74l.18-.82-.58.71-1.06.73-.66-.9,2.73-2.21h.88v7.23h1.63v1.32h-4.79Z"/><path class="cls-2" d="M424.89,50.53a11.86,11.86,0,0,0,4.43,4.59,5.48,5.48,0,0,0-1.06,1.24,13.21,13.21,0,0,1-3.95-4.23v5.41h-1.52V52.19a12.79,12.79,0,0,1-4,4.22,7.26,7.26,0,0,0-1.07-1.22,11.38,11.38,0,0,0,4.4-4.66h-3.85V49.12h4.48V46.34h1.52v2.78h4.5v1.41Z"/><path class="cls-2" d="M576.12,119.59h1.67v-4.74L578,114l-.57.71-1.07.73-.66-.9,2.74-2.21h.87v7.23h1.63v1.32h-4.79Z"/><path class="cls-2" d="M524.12,54.07c-.46.66-.93,1.39-1.35,1.9h2.71v1.22H515.34V56h2.34a8.11,8.11,0,0,0-1-1.93l1.09-.47h-1.83V52.35h3.64V51.16h-2.2v-.59a16.71,16.71,0,0,1-1.79,1.12,5.61,5.61,0,0,0-.89-1.16,12.76,12.76,0,0,0,4.85-4.23H521a12.34,12.34,0,0,0,5.12,4.09,6.59,6.59,0,0,0-.94,1.28,14.06,14.06,0,0,1-1.83-1.14v.63h-2.29v1.19h3.7v1.22h-3.7V56h1.31l-.78-.33a11.93,11.93,0,0,0,1.14-2.07Zm-6.28-.5a8,8,0,0,1,1.11,2L518,56h1.62v-2.4Zm4.72-3.66a12.82,12.82,0,0,1-2.21-2.22,12.78,12.78,0,0,1-2.12,2.22Z"/><text class="cls-3" transform="translate(671.77 120.91)">2</text><path class="cls-1" d="M622.71,55.63V57H611.85v-1.4h4.63V51.46h-3.85V50h3.85V46.36H618V50h3.91v1.42H618v4.17Z"/><path class="cls-1" d="M93.52,215.63a1.54,1.54,0,0,0,1.14-.39,1.34,1.34,0,0,0,.39-1,1.22,1.22,0,0,0-.41-1,2,2,0,0,0-1.29-.32h-.86v-.83l1.45-2,.69-.54-.95.11h-2v-1.32h4.59v.85l-1.7,2.27-.52.32v.06l.5-.07a2.67,2.67,0,0,1,.8.19,1.85,1.85,0,0,1,.66.45,2.15,2.15,0,0,1,.45.73,2.74,2.74,0,0,1,.17,1,2.93,2.93,0,0,1-.24,1.23,2.31,2.31,0,0,1-.65.86,2.78,2.78,0,0,1-1,.52,4.17,4.17,0,0,1-1.19.16,6.87,6.87,0,0,1-1.09-.09,3.27,3.27,0,0,1-.91-.28l.42-1.29a3.69,3.69,0,0,0,.69.25A3.61,3.61,0,0,0,93.52,215.63Z"/><path class="cls-1" d="M40.31,142.94v10.31H38.78v-.75H33.45v.77H32V142.94Zm-6.86,1.44V147h5.33v-2.57Zm5.33,6.68v-2.69H33.45v2.69Z"/><path class="cls-1" d="M194.12,214.45H192.8v2.34h-1.45v-2.34h-3.64v-.89l3.81-5.23h1.28v4.87h1.32Zm-2.77-3.09.11-1h-.05l-.41.87-1.25,1.62-.6.45.77-.09h1.43Z"/><path class="cls-1" d="M137,151.6c0,.86-.21,1.27-.76,1.51a7.29,7.29,0,0,1-2.65.27,6,6,0,0,0-.6-1.5c.84.05,1.85,0,2.11,0s.39-.1.39-.35v-1.74h-5.14a6.46,6.46,0,0,1-2,3.59,5.43,5.43,0,0,0-1.11-1c1.81-1.55,2-3.84,2-5.66v-3.95H137Zm-1.51-3.15V147h-4.81c0,.46,0,1-.09,1.46Zm-4.81-4.28v1.46h4.81v-1.46Z"/><path class="cls-1" d="M287,215.57a1.71,1.71,0,0,0,1.21-.38,1.38,1.38,0,0,0,.43-1.06,1.17,1.17,0,0,0-.5-1,2.49,2.49,0,0,0-1.4-.34l-1,0v-4.39h4.13v1.46h-2.78v1.62l.49-.05a3.22,3.22,0,0,1,1.06.22,2.47,2.47,0,0,1,.81.53,2.41,2.41,0,0,1,.51.83,2.9,2.9,0,0,1,.18,1.09,3,3,0,0,1-.24,1.24,2.51,2.51,0,0,1-.66.9,2.93,2.93,0,0,1-1,.54A4.26,4.26,0,0,1,287,217a5.64,5.64,0,0,1-1-.09,3.65,3.65,0,0,1-.82-.24l.42-1.3a3.25,3.25,0,0,0,.6.19A4.58,4.58,0,0,0,287,215.57Z"/><path class="cls-1" d="M230.54,146.11c0,1.83,1.12,4.59,4.85,6a6.37,6.37,0,0,0-1,1.34,8.14,8.14,0,0,1-4.64-4.76,7.77,7.77,0,0,1-4.45,4.76,6.75,6.75,0,0,0-1-1.22,6.74,6.74,0,0,0,4.7-6.07v-3.75h1.54Zm-3.12-1.21a5.73,5.73,0,0,1-1.58,3.78l-1.3-.8a5,5,0,0,0,1.44-3.29Zm7.46.27a29,29,0,0,1-1.93,3.26l-1.25-.53a17.88,17.88,0,0,0,1.61-3.32Z"/><path class="cls-2" d="M387.44,214.18a3,3,0,0,1-.2,1.09,2.6,2.6,0,0,1-.56.88,2.68,2.68,0,0,1-.87.59,2.9,2.9,0,0,1-1.12.21,3.3,3.3,0,0,1-1.15-.19,2.58,2.58,0,0,1-1.5-1.59,4.24,4.24,0,0,1-.22-1.4,6.53,6.53,0,0,1,.34-2.14,5.69,5.69,0,0,1,.93-1.68,4.9,4.9,0,0,1,3-1.73l.35,1.23a3.34,3.34,0,0,0-1.1.38,3.73,3.73,0,0,0-.9.66,3.88,3.88,0,0,0-.66.85,3.45,3.45,0,0,0-.37,1,1.87,1.87,0,0,1,.62-.51,2,2,0,0,1,1-.21,3,3,0,0,1,1,.17,2,2,0,0,1,.77.5,2.24,2.24,0,0,1,.51.81A3.13,3.13,0,0,1,387.44,214.18Zm-1.51.09a1.18,1.18,0,0,0-1.32-1.35,1.4,1.4,0,0,0-.81.22,1.24,1.24,0,0,0-.47.5c0,.09,0,.17,0,.23v.19a1.88,1.88,0,0,0,.09.57,1.5,1.5,0,0,0,.24.51,1.48,1.48,0,0,0,.42.36,1.21,1.21,0,0,0,.6.13,1.16,1.16,0,0,0,.91-.38A1.38,1.38,0,0,0,385.93,214.27Z"/><path class="cls-2" d="M325.71,145.45c-.55,3.26-1.87,5.69-3.56,6.94a5.55,5.55,0,0,0-1.19-1.13,7.84,7.84,0,0,0,3-4.68h-2.6v-1.44h3.13l.26,0Zm6.37-.43a30.88,30.88,0,0,1-3.13,2.91,8,8,0,0,0,3.46,3.29,6.28,6.28,0,0,0-1.11,1.33,9.17,9.17,0,0,1-3.81-4.52v3.54c0,.87-.19,1.3-.68,1.54a5.72,5.72,0,0,1-2.39.32,5.69,5.69,0,0,0-.56-1.59c.79,0,1.54,0,1.79,0s.33-.08.33-.29v-9.34h1.51v2.11a16,16,0,0,0,.85,2.41,19.72,19.72,0,0,0,2.41-2.66Z"/><path class="cls-2" d="M479.3,216.79l2.75-6.47.53-.59-.72.12h-3.08v-1.46h5.41v.45l-3.36,7.95Z"/><path class="cls-2" d="M424.89,146.41a11.86,11.86,0,0,0,4.43,4.59,5.48,5.48,0,0,0-1.06,1.24,13.21,13.21,0,0,1-3.95-4.23v5.41h-1.52v-5.35a12.79,12.79,0,0,1-4,4.22,7.26,7.26,0,0,0-1.07-1.22,11.38,11.38,0,0,0,4.4-4.66h-3.85V145h4.48v-2.78h1.52V145h4.5v1.41Z"/><path class="cls-1" d="M575.65,214.73a2.48,2.48,0,0,1,.1-.75,2.13,2.13,0,0,1,.31-.6,2.37,2.37,0,0,1,.47-.48,4,4,0,0,1,.58-.4,3.06,3.06,0,0,1-.92-.86,2,2,0,0,1-.34-1.2,2.34,2.34,0,0,1,.17-.88,2.11,2.11,0,0,1,.51-.71,2.29,2.29,0,0,1,.79-.46,3,3,0,0,1,1.06-.17,3.43,3.43,0,0,1,1,.14,2.42,2.42,0,0,1,.76.41,1.85,1.85,0,0,1,.66,1.48,2.11,2.11,0,0,1-.32,1.2,3.34,3.34,0,0,1-.93.9,3.29,3.29,0,0,1,1.09.92,2.2,2.2,0,0,1,.37,1.3,2.34,2.34,0,0,1-.2,1,2,2,0,0,1-.56.75,2.68,2.68,0,0,1-.86.49,3.72,3.72,0,0,1-2.19,0,2.54,2.54,0,0,1-.83-.45,1.88,1.88,0,0,1-.53-.69A2.29,2.29,0,0,1,575.65,214.73Zm3.86-.15a1.1,1.1,0,0,0-.13-.51,1.69,1.69,0,0,0-.35-.41,2.74,2.74,0,0,0-.46-.34c-.18-.11-.35-.21-.53-.3a2,2,0,0,0-.77.7,1.52,1.52,0,0,0-.21.75,1.14,1.14,0,0,0,.33.82,1.21,1.21,0,0,0,.92.34,1.33,1.33,0,0,0,.87-.26A1,1,0,0,0,579.51,214.58Zm-2.17-4.12a1.06,1.06,0,0,0,.11.51,1.16,1.16,0,0,0,.29.37,2.25,2.25,0,0,0,.42.3,4.59,4.59,0,0,0,.49.26,1.78,1.78,0,0,0,.72-1.34.94.94,0,0,0-.3-.76,1.18,1.18,0,0,0-1.49,0A1,1,0,0,0,577.34,210.46Z"/><path class="cls-1" d="M524.12,150c-.46.66-.93,1.39-1.35,1.9h2.71v1.22H515.34v-1.22h2.34a8.11,8.11,0,0,0-1-1.93l1.09-.47h-1.83v-1.22h3.64V147h-2.2v-.59a16.71,16.71,0,0,1-1.79,1.12,5.61,5.61,0,0,0-.89-1.16,12.76,12.76,0,0,0,4.85-4.23H521a12.34,12.34,0,0,0,5.12,4.09,6.59,6.59,0,0,0-.94,1.28,14.06,14.06,0,0,1-1.83-1.14V147h-2.29v1.19h3.7v1.22h-3.7v2.4h1.31l-.78-.33a11.93,11.93,0,0,0,1.14-2.07Zm-6.28-.5a8,8,0,0,1,1.11,2l-1,.42h1.62v-2.4Zm4.72-3.66a12.82,12.82,0,0,1-2.21-2.22,12.78,12.78,0,0,1-2.12,2.22Z"/><text class="cls-3" transform="translate(671.77 216.79)">9</text><path class="cls-1" d="M622.71,151.51v1.4H611.85v-1.4h4.63v-4.17h-3.85v-1.42h3.85v-3.68H618v3.68h3.91v1.42H618v4.17Z"/><path class="cls-2" d="M430.21,95.72a24.67,24.67,0,0,0,2.65.14c1.26,0,5.09,0,6.65-.07a10.45,10.45,0,0,0-1,2.82h-5.82c-4.28,0-7.47-.7-9.61-4A11.58,11.58,0,0,1,420,99a15.43,15.43,0,0,0-2.28-1.88c2.52-1.87,3.66-5.08,4.08-9.06l2.88.28c-.14,1-.3,2-.51,3A6.26,6.26,0,0,0,427.34,95V86.74h-4.95V84.11h12.8v2.63h-5v2.91h6.4v2.6h-6.4ZM421.57,85.3h-2.72V79.48h8.45V77.15h2.93v2.33h8.52V85.3h-2.87V82.11H421.57Z"/><path class="cls-2" d="M457.79,85.46a22.72,22.72,0,0,0,5.56,8.42,9.68,9.68,0,0,0-2.07,2.21,23.58,23.58,0,0,1-4.7-7.4V98.86h-2.75v-9.7a23.7,23.7,0,0,1-5,7,14.86,14.86,0,0,0-1.88-2v4.65h-2.72V87a21.94,21.94,0,0,1-1.91,2.1,19.58,19.58,0,0,0-1.61-2.91,23.86,23.86,0,0,0,5.89-8.94l2.75.89A36.45,36.45,0,0,1,447,83V93.88a22.11,22.11,0,0,0,5.75-8.42h-4.82v-2.7h5.91V77.5h2.75v5.26h6.07v2.7Z"/><path class="cls-2" d="M483.48,78.52v20h-3V97.07H470.17v1.51h-2.86V78.52Zm-13.31,2.8v5H480.5v-5Zm10.33,13V89.06H470.17v5.22Z"/><path class="cls-2" d="M527.06,95.72a24.86,24.86,0,0,0,2.66.14c1.25,0,5.09,0,6.65-.07a10.46,10.46,0,0,0-1,2.82h-5.81c-4.29,0-7.47-.7-9.61-4a11.69,11.69,0,0,1-3.1,4.4,16,16,0,0,0-2.28-1.88c2.51-1.87,3.65-5.08,4.07-9.06l2.89.28c-.14,1-.3,2-.51,3A6.22,6.22,0,0,0,524.2,95V86.74h-5V84.11H532v2.63h-5v2.91h6.4v2.6h-6.4ZM518.43,85.3h-2.72V79.48h8.44V77.15h2.94v2.33h8.51V85.3h-2.86V82.11H518.43Z"/><path class="cls-2" d="M554.64,85.46a22.85,22.85,0,0,0,5.56,8.42,10.14,10.14,0,0,0-2.07,2.21,23.94,23.94,0,0,1-4.7-7.4V98.86h-2.74v-9.7a23.7,23.7,0,0,1-5,7,15.52,15.52,0,0,0-1.88-2v4.65h-2.73V87a21.89,21.89,0,0,1-1.9,2.1,19.58,19.58,0,0,0-1.61-2.91,24,24,0,0,0,5.89-8.94l2.74.89A36.37,36.37,0,0,1,543.85,83V93.88a22.09,22.09,0,0,0,5.74-8.42h-4.81v-2.7h5.91V77.5h2.74v5.26h6.08v2.7Z"/><path class="cls-2" d="M580.34,78.52v20h-3V97.07H567v1.51h-2.86V78.52ZM567,81.32v5h10.33v-5Zm10.33,13V89.06H567v5.22Z"/><path class="cls-2" d="M333.35,190.92a24.89,24.89,0,0,0,2.65.13c1.26,0,5.1,0,6.66-.07a10.36,10.36,0,0,0-1,2.82h-5.82c-4.28,0-7.47-.7-9.61-4a11.67,11.67,0,0,1-3.09,4.4,17.34,17.34,0,0,0-2.28-1.89c2.51-1.86,3.65-5.07,4.07-9.05l2.88.28c-.14,1.05-.3,2-.51,3a6.26,6.26,0,0,0,3.17,3.66v-8.22h-5V179.3h12.8v2.63h-5v2.91h6.4v2.61h-6.4Zm-8.63-10.43H322v-5.82h8.45v-2.32h2.93v2.32h8.52v5.82H339V177.3H324.72Z"/><path class="cls-2" d="M360.93,180.65a22.81,22.81,0,0,0,5.56,8.43,10.14,10.14,0,0,0-2.07,2.21,23.76,23.76,0,0,1-4.7-7.4v10.17H357v-9.71a23.6,23.6,0,0,1-5,7.05,15.55,15.55,0,0,0-1.89-2V194h-2.72V182.19a20.65,20.65,0,0,1-1.91,2.09,21.59,21.59,0,0,0-1.6-2.91,23.72,23.72,0,0,0,5.88-8.93l2.75.88a36.45,36.45,0,0,1-2.4,4.91v10.85a22,22,0,0,0,5.75-8.43h-4.82V178H357v-5.26h2.75V178h6.07v2.7Z"/><path class="cls-2" d="M386.63,173.72v20h-3v-1.47H373.32v1.52h-2.87V173.72Zm-13.31,2.79v5h10.33v-5Zm10.33,13v-5.21H373.32v5.21Z"/><path class="cls-2" d="M430.21,190.92a24.75,24.75,0,0,0,2.65.13c1.26,0,5.09,0,6.65-.07a10.69,10.69,0,0,0-1,2.82h-5.82c-4.28,0-7.47-.7-9.61-4a11.58,11.58,0,0,1-3.1,4.4,16.13,16.13,0,0,0-2.28-1.89c2.52-1.86,3.66-5.07,4.08-9.05l2.88.28c-.14,1.05-.3,2-.51,3a6.28,6.28,0,0,0,3.16,3.66v-8.22h-4.95V179.3h12.8v2.63h-5v2.91h6.4v2.61h-6.4Zm-8.64-10.43h-2.72v-5.82h8.45v-2.32h2.93v2.32h8.52v5.82h-2.87V177.3H421.57Z"/><path class="cls-2" d="M457.79,180.65a22.68,22.68,0,0,0,5.56,8.43,9.68,9.68,0,0,0-2.07,2.21,23.58,23.58,0,0,1-4.7-7.4v10.17h-2.75v-9.71a23.44,23.44,0,0,1-5,7.05,14.8,14.8,0,0,0-1.88-2V194h-2.72V182.19a20.65,20.65,0,0,1-1.91,2.09,20.63,20.63,0,0,0-1.61-2.91,23.74,23.74,0,0,0,5.89-8.93l2.75.88a36.45,36.45,0,0,1-2.4,4.91v10.85a22.15,22.15,0,0,0,5.75-8.43h-4.82V178h5.91V172.7h2.75V178h6.07v2.7Z"/><path class="cls-2" d="M483.48,173.72v20h-3v-1.46H470.17v1.51h-2.86V173.72Zm-13.31,2.79v5H480.5v-5Zm10.33,13v-5.21H470.17v5.21Z"/><path class="cls-2" d="M14.27,91.49c-3.2-3.41-5.57-5.89-7.5-5.88a1.74,1.74,0,0,0-2,1.85,3.58,3.58,0,0,0,1.37,2.39L4.34,91.7A5.88,5.88,0,0,1,2.14,87a4.3,4.3,0,0,1,4.42-4.65c2.3,0,4.76,2.13,7,4.25a21.22,21.22,0,0,1-.2-2.31V81.69h2.85l0,9.81Z"/><path class="cls-2" d="M9.22,80c-4.71,0-7.11-2-7.13-5s2.4-5,7.09-5,7.23,2,7.24,5S13.93,79.94,9.22,80Zm0-6.82c-3.72,0-4.48.81-4.47,1.82s.76,1.82,4.49,1.81,4.59-.84,4.59-1.84S12.92,73.13,9.19,73.14Z"/><path class="cls-2" d="M14.19,68.35c-3.2-3.41-5.56-5.89-7.5-5.88a1.75,1.75,0,0,0-2,1.85,3.56,3.56,0,0,0,1.38,2.39L4.26,68.56a5.94,5.94,0,0,1-2.2-4.69,4.3,4.3,0,0,1,4.43-4.65c2.3,0,4.76,2.13,7,4.25a19,19,0,0,1-.2-2.32v-2.6H16.1l0,9.81Z"/><path class="cls-2" d="M9.14,56.82c-4.71,0-7.11-2-7.12-5s2.39-5,7.09-5,7.22,2,7.23,5S13.85,56.8,9.14,56.82Zm0-6.82c-3.73,0-4.48.81-4.48,1.82s.77,1.82,4.49,1.8,4.59-.83,4.59-1.83S12.84,50,9.12,50Z"/><path class="cls-2" d="M14.27,187.37c-3.2-3.41-5.57-5.89-7.5-5.88a1.74,1.74,0,0,0-2,1.85,3.58,3.58,0,0,0,1.37,2.39l-1.82,1.85a6,6,0,0,1-2.2-4.69,4.31,4.31,0,0,1,4.43-4.65c2.3,0,4.76,2.13,7,4.25a21.22,21.22,0,0,1-.2-2.31v-2.61h2.85l0,9.81Z"/><path class="cls-2" d="M9.22,175.84c-4.71,0-7.12-2-7.13-5s2.4-5,7.09-5,7.23,2,7.24,5S13.93,175.82,9.22,175.84Zm0-6.82c-3.72,0-4.48.81-4.47,1.82s.76,1.82,4.49,1.81,4.59-.84,4.59-1.84S12.92,169,9.19,169Z"/><path class="cls-2" d="M14.19,164.23c-3.2-3.41-5.56-5.89-7.5-5.88a1.75,1.75,0,0,0-2,1.85,3.58,3.58,0,0,0,1.38,2.39l-1.82,1.85a5.91,5.91,0,0,1-2.2-4.69,4.3,4.3,0,0,1,4.43-4.65c2.3,0,4.75,2.13,7,4.25a19,19,0,0,1-.2-2.32v-2.6H16.1l0,9.8Z"/><path class="cls-2" d="M13.35,152v-3l-7.67,0v2.61H3.59a10,10,0,0,0-1.3-3.49v-2.49l11.05,0v-2.55h2.73l0,8.93Z"/><path class="cls-2" d="M288.84,12.63h-5.31v3.28h-2.4V12.63H274V10.39h2.48V6.79c-.19.22-.39.45-.58.64a15.24,15.24,0,0,0-2-1.52A12.16,12.16,0,0,0,277.13.64l2.38.61c-.13.37-.27.75-.43,1.12h8.82V4.61h-4.37V6.24h4V8.4h-4v2h5.31ZM278,4.61a15.89,15.89,0,0,1-1.08,1.63h4.25V4.61Zm3.17,5.78v-2h-2.32v2Z"/><path class="cls-2" d="M301.46,9.32a15.48,15.48,0,0,0,5.29,3.84A10.37,10.37,0,0,0,305,15.24a16.73,16.73,0,0,1-4.73-4.13v4.8h-2.48V11.24A17,17,0,0,1,293,15.35a13.12,13.12,0,0,0-1.73-2.06,16.09,16.09,0,0,0,5.36-4h-4V7h5.08V5.33H292V3h5.77V.7h2.48V3h5.89V5.33h-5.89V7h5.2V9.32Z"/><path class="cls-2" d="M324,12.63h-5.31v3.28h-2.4V12.63h-7.14V10.39h2.48V6.79c-.19.22-.39.45-.58.64a15.24,15.24,0,0,0-2-1.52A12.16,12.16,0,0,0,312.33.64l2.38.61c-.13.37-.27.75-.43,1.12h8.82V4.61h-4.37V6.24h4V8.4h-4v2H324Zm-10.88-8a15.89,15.89,0,0,1-1.08,1.63h4.25V4.61Zm3.17,5.78v-2H314v2Z"/><path class="cls-2" d="M333.06,6.18a20.12,20.12,0,0,1-1.09,5,10.45,10.45,0,0,1,1.67,1.65l-1.39,1.87a11.38,11.38,0,0,0-1.3-1.44A8.83,8.83,0,0,1,328.16,16a8.85,8.85,0,0,0-1.39-1.86,6.07,6.07,0,0,0,2.45-2.4l-.59-.48-.13.48-1.87-1c.37-1.28.77-3,1.15-4.75h-1V3.83h1.44c.21-1.09.4-2.15.56-3.14L331,.93c-.17.93-.36,1.9-.59,2.9h1.09l.4-.05,1.38.22c0,.64-.08,1.25-.15,1.84l1.25-.06A32.14,32.14,0,0,0,335.62.69l2.6.46c-.48,1.54-1.06,3.17-1.6,4.52l2.16-.13c-.28-.48-.56-1-.85-1.39l1.84-.93a17.93,17.93,0,0,1,2.37,4.38l-2,1.06a8.8,8.8,0,0,0-.37-1.09c-2.29.19-4.69.37-6.5.5ZM329.91,6c-.24,1.07-.48,2.13-.72,3.12.3.21.62.42.94.66a17.74,17.74,0,0,0,.8-3.78ZM334,9.08h7.24v6.77H339v-.52h-2.74v.58H334Zm2.19,2.09v2.07H339V11.17Z"/><path class="cls-2" d="M352.66,15.29,351.19,13a11.16,11.16,0,0,0,1.57-.29,4,4,0,0,0,3.39-4,3.71,3.71,0,0,0-2.85-4,31.77,31.77,0,0,1-.94,4.18c-.95,3.2-2.39,5.34-4.28,5.34s-3.48-2.14-3.48-4.88a7.3,7.3,0,0,1,7.55-7,6.28,6.28,0,0,1,6.66,6.45C358.81,12.12,356.82,14.58,352.66,15.29Zm-4.51-4.1c.64,0,1.12-1,1.7-2.83a23.89,23.89,0,0,0,.81-3.61,4.78,4.78,0,0,0-3.55,4.33C347.11,10.47,347.59,11.19,348.15,11.19Z"/><path class="cls-2" d="M368.05,2.82c0,.27,0,.54,0,.81a19.72,19.72,0,0,0,2.77-.54l0,2.4c-.88.19-1.9.35-2.88.46,0,.34,0,.68,0,1V7.6a13.66,13.66,0,0,1,2.81-.33c2.53,0,4.63,1.29,4.63,3.66,0,1.88-.87,3.41-3.6,4.1a19.22,19.22,0,0,1-2.18.29l-.88-2.51a11.65,11.65,0,0,0,2-.12c1.23-.2,2.13-.8,2.13-1.77S372,9.4,370.71,9.4a11.31,11.31,0,0,0-2.74.35c0,1.2.07,2.32.07,2.82,0,2.25-.8,2.81-2,2.81-1.73,0-4-1.41-4-3.25,0-1.44,1.6-2.94,3.62-3.82,0-.42,0-.83,0-1.25V6.15H365a19.38,19.38,0,0,1-2.34-.08l-.05-2.33a19.3,19.3,0,0,0,2.31.11c.24,0,.49,0,.77,0v-1c0-.33-.07-1.26-.12-1.57h2.66C368.17,1.57,368.09,2.4,368.05,2.82Zm-2.73,9.91c.24,0,.46-.07.46-.63,0-.3,0-.85,0-1.5-.8.45-1.28,1-1.28,1.42S365,12.73,365.32,12.73Zm11.33-7.54-1.15,2a27.89,27.89,0,0,0-4-2.29l1-1.89A38.17,38.17,0,0,1,376.65,5.19Z"/><path class="cls-2" d="M383.77,9.17c0,.15,0,.29-.07.42.85.86,2.51,2.77,2.93,3.28l-1.57,2c-.51-.83-1.28-1.92-2-2.87a8.46,8.46,0,0,1-2.86,3.89,9.28,9.28,0,0,0-1.67-1.76,7.16,7.16,0,0,0,2.88-4.93H378.8V7h2.79V4.82h-.31a11.42,11.42,0,0,1-1,1.92,15.16,15.16,0,0,0-1.85-1.35A11.6,11.6,0,0,0,380.12.72l2.22.45c-.09.5-.21,1-.35,1.5h4V4.82h-2.08V7h2.44V9.17Zm9.33-7.09V15.19h-2.37v-.85H389v1.11h-2.26V2.08Zm-2.37,10.09V4.26H389v7.91Z"/><path class="cls-2" d="M400,8a8,8,0,0,1,4.43-1.3c3,0,4.64,1.87,4.64,3.84,0,3-2.19,5.38-9.23,4.77l-.75-2.54c4.67.68,7.25-.32,7.25-2.28,0-.91-.87-1.58-2.15-1.58A5.38,5.38,0,0,0,400,10.69a4.09,4.09,0,0,0-.66,1l-2.22-.55a57.78,57.78,0,0,0,.79-6.8l2.61.35A25.16,25.16,0,0,0,400,8Zm6.74-5.48L406.12,5c-1.68-.23-5.3-1-6.56-1.32l.61-2.32A49.74,49.74,0,0,0,406.7,2.56Z"/><path class="cls-2" d="M423.29,3.22c0,.56,0,1,0,1.45.3,0,.61,0,.88-.06.45,0,1.17-.08,1.69-.13V6.84c-.3,0-1.28,0-1.71,0l-.91,0A25.45,25.45,0,0,1,423,10c-.19.92-.63,1.13-1.49,1.13-.56,0-2-.16-2.58-.25L419,8.79a10.26,10.26,0,0,0,1.41.19c.27,0,.4-.05.43-.34s.08-.92.1-1.55c-1.28.11-2.69.26-3.92.39,0,1.36,0,2.73,0,3.44,0,1.49.22,1.69,2.41,1.69a30.29,30.29,0,0,0,4.81-.43l-.1,2.66a44.6,44.6,0,0,1-4.51.25c-4.39,0-5-.88-5.05-3.77,0-.69,0-2.15,0-3.59-.29,0-.53.07-.72.08l-2.1.31-.26-2.45c.44,0,1.25,0,2.2-.13l.88-.08V4.19a14.87,14.87,0,0,0-.15-2h2.74A13.07,13.07,0,0,0,417,4.05c0,.27,0,.69,0,1.17l3.94-.35V3.33a15,15,0,0,0-.13-1.62h2.61A13.34,13.34,0,0,0,423.29,3.22Z"/></svg>