<?xml version="1.0" encoding="utf-8"?>
<!-- Generator: Adobe Illustrator 23.1.0, SVG Export Plug-In . SVG Version: 6.00 Build 0)  -->
<svg version="1.1" id="Layer_1" xmlns="http://www.w3.org/2000/svg" xmlns:xlink="http://www.w3.org/1999/xlink" x="0px" y="0px"
	 viewBox="0 0 383.1 176.5" style="enable-background:new 0 0 383.1 176.5;" xml:space="preserve">
<style type="text/css">
	.st0{fill:none;stroke:#007BFF;stroke-width:7;stroke-linecap:round;stroke-miterlimit:10;}
	.st1{fill:#C73D13;}
	.st2{fill:none;}
</style>
<g>
	<g>
		<line class="st0" x1="288.4" y1="7.9" x2="288.4" y2="78.9"/>
		<line class="st0" x1="191.6" y1="7.9" x2="191.6" y2="78.9"/>
		<line class="st0" x1="94.7" y1="7.9" x2="94.7" y2="78.9"/>
		<line class="st0" x1="94.8" y1="98.7" x2="94.8" y2="169.8"/>
		<line class="st0" x1="191.7" y1="98.7" x2="191.7" y2="169.8"/>
	</g>
	<g>
		<g>
			<path class="st1" d="M19.1,14.5c1,1.8,2.7,3.6,4.4,4.6c-0.3,0.3-0.8,0.9-1.1,1.2c-1.5-1-2.9-2.5-3.9-4.2v5.4H17v-5.3
				c-1,1.7-2.4,3.3-4,4.2c-0.2-0.4-0.7-0.9-1.1-1.2c1.8-1,3.4-2.8,4.4-4.7h-3.8v-1.4H17v-2.8h1.5v2.8H23v1.4H19.1z"/>
		</g>
	</g>
	<g>
		<path class="st1" d="M118.7,19.7c0,0.9-0.2,1.3-0.8,1.5c-0.6,0.3-1.4,0.3-2.7,0.3c-0.1-0.4-0.4-1.1-0.6-1.5c0.8,0,1.8,0,2.1,0
			c0.3,0,0.4-0.1,0.4-0.3V18h-5.1c-0.3,1.3-0.9,2.7-2,3.6c-0.2-0.3-0.8-0.8-1.1-1c1.8-1.5,2-3.8,2-5.7v-3.9h7.8V19.7z M117.2,16.6
			v-1.5h-4.8c0,0.5,0,1-0.1,1.5H117.2z M112.4,12.3v1.5h4.8v-1.5H112.4z"/>
	</g>
	<g>
		<path class="st1" d="M215.6,19.7c0,0.9-0.2,1.3-0.8,1.5c-0.6,0.3-1.4,0.3-2.7,0.3c-0.1-0.4-0.4-1.1-0.6-1.5c0.8,0,1.8,0,2.1,0
			c0.3,0,0.4-0.1,0.4-0.3V18h-5.1c-0.3,1.3-0.9,2.7-2,3.6c-0.2-0.3-0.8-0.8-1.1-1c1.8-1.5,2-3.8,2-5.7v-3.9h7.8V19.7z M214,16.6
			v-1.5h-4.8c0,0.5,0,1-0.1,1.5H214z M209.2,12.3v1.5h4.8v-1.5H209.2z"/>
	</g>
	<g>
		<g>
			<path class="st1" d="M309.1,14.2c0,1.8,1.1,4.6,4.9,6c-0.3,0.3-0.8,0.9-1,1.3c-2.9-1.2-4.3-3.6-4.6-4.8c-0.3,1.2-1.6,3.5-4.4,4.8
				c-0.2-0.3-0.7-0.9-1-1.2c3.6-1.4,4.7-4.3,4.7-6.1v-3.7h1.5V14.2z M305.9,13c-0.2,1.5-0.6,2.9-1.6,3.8l-1.3-0.8
				c0.9-0.7,1.3-1.9,1.4-3.3L305.9,13z M313.4,13.3c-0.6,1.2-1.3,2.4-1.9,3.3l-1.2-0.5c0.6-0.9,1.2-2.3,1.6-3.3L313.4,13.3z"/>
		</g>
	</g>
	<g>
		<g>
			<path class="st1" d="M16.9,104.4c-0.6,3.2-1.9,5.7-3.6,6.9c-0.3-0.3-0.8-0.9-1.2-1.1c1.4-0.9,2.4-2.6,3-4.7h-2.6v-1.4h3.1l0.3,0
				L16.9,104.4z M23.3,104c-1,1-2.2,2.1-3.1,2.9c0.9,1.4,2,2.6,3.5,3.3c-0.4,0.3-0.9,0.9-1.1,1.3c-1.7-1-3-2.6-3.8-4.5v3.5
				c0,0.9-0.2,1.3-0.7,1.5c-0.5,0.3-1.3,0.3-2.4,0.3c-0.1-0.5-0.3-1.2-0.6-1.6c0.8,0,1.5,0,1.8,0c0.2,0,0.3-0.1,0.3-0.3v-9.3h1.5
				v2.1c0.2,0.8,0.5,1.6,0.9,2.4c0.9-0.8,1.8-1.8,2.4-2.7L23.3,104z"/>
		</g>
	</g>
	<g>
		<path class="st1" d="M116.1,105.4c1,1.8,2.7,3.6,4.4,4.6c-0.3,0.3-0.8,0.9-1.1,1.2c-1.5-1-2.9-2.5-3.9-4.2v5.4H114V107
			c-1,1.7-2.4,3.3-4,4.2c-0.2-0.4-0.7-0.9-1.1-1.2c1.8-1,3.4-2.8,4.4-4.7h-3.8V104h4.5v-2.8h1.5v2.8h4.5v1.4H116.1z"/>
	</g>
	<g>
		<path class="st1" d="M215.7,110.6c0,0.9-0.2,1.3-0.8,1.5c-0.6,0.3-1.4,0.3-2.7,0.3c-0.1-0.4-0.4-1.1-0.6-1.5c0.8,0,1.8,0,2.1,0
			c0.3,0,0.4-0.1,0.4-0.3v-1.7H209c-0.3,1.3-0.9,2.7-2,3.6c-0.2-0.3-0.8-0.8-1.1-1c1.8-1.5,2-3.8,2-5.7v-3.9h7.8V110.6z
			 M214.1,107.4V106h-4.8c0,0.5,0,1-0.1,1.5H214.1z M209.3,103.1v1.5h4.8v-1.5H209.3z"/>
	</g>
	<g>
		<path class="st1" d="M313.9,54h7.7V37.5h-6.1v-3.2c3.3-0.6,5.5-0.9,7.5-2.2h3.8V54h7v4.2h-19.8V54z"/>
		<path class="st1" d="M340.3,51.5c0-3.2,1.6-5.1,4.5-6.8v-0.1c-2.3-1.3-3.5-3.3-3.5-5.7c-0.1-4.2,3.5-7.2,8.9-7.2
			c5.4,0,8.7,2.9,8.8,6.9c0,2.6-1.2,4.4-3.6,6.1v0.1c3.4,1.8,4.7,3.9,4.7,6.6c0,3.9-3.7,7.1-9.8,7.1C344,58.6,340.3,55.5,340.3,51.5
			z M355,51.4c0-2.6-2.6-3.6-7.2-5c-1.9,1.4-2.9,2.8-2.9,4.6c0,2.3,2.2,4,5.4,4C353.3,55,355,53.3,355,51.4z M354.6,39.2
			c0-1.9-1.4-3.9-4.7-3.9c-2.4,0-4.1,1.5-4.1,3.6c0,2.6,3.1,3.6,6.5,4.6C354.1,42,354.6,40.8,354.6,39.2z"/>
	</g>
	<g>
		<path class="st1" d="M23.4,144.8h7.7v-16.5H25v-3.2c3.3-0.6,5.5-0.9,7.5-2.2h3.8v21.8h7v4.2H23.4V144.8z"/>
		<path class="st1" d="M53.1,143c1.3,1.3,2.9,2.2,5,2.2c2.9,0,6.1-1.9,6.4-8.5c-1.4,1.5-3.5,2.7-6.2,2.7c-4.2,0-8.4-2.4-8.4-8.1
			c0-5.4,3.8-8.8,9.1-8.8c5.6,0,10.3,3.8,10.3,12.7c0,9.7-5.2,14.2-11.1,14.2c-3.6,0-6.3-1.5-7.9-3.3L53.1,143z M64.4,132.5
			c-0.7-4.3-2.9-6-5.4-6c-2.5,0-4.2,1.8-4.2,4.7c0,3.2,2.4,4.4,4.4,4.4C61.4,135.6,63.3,134.3,64.4,132.5z"/>
	</g>
	<g>
		<path class="st1" d="M53.6,38.1c-1.3-1.3-2.9-2.2-5-2.2c-2.9,0-6.1,1.9-6.4,8.5c1.4-1.5,3.5-2.7,6.2-2.7c4.2,0,8.4,2.4,8.4,8.1
			c0,5.4-3.8,8.8-9.1,8.8c-5.6,0-10.3-3.8-10.3-12.7c0-9.7,5.2-14.2,11.1-14.2c3.6,0,6.3,1.5,7.9,3.3L53.6,38.1z M51.9,49.9
			c0-3.2-2.4-4.4-4.4-4.4c-2.2,0-4.1,1.3-5.2,3.1c0.7,4.3,2.9,6,5.4,6C50.2,54.7,51.9,52.9,51.9,49.9z"/>
	</g>
	<g>
		<path class="st1" d="M120.2,54h7.7V37.5h-6.1v-3.2c3.3-0.6,5.5-0.9,7.5-2.2h3.8V54h7v4.2h-19.8V54z"/>
		<path class="st1" d="M146.6,45c0-8.8,4-13.3,10.1-13.3s10.1,4.4,10.1,13.3c0,8.9-4,13.6-10.1,13.6S146.6,53.9,146.6,45z M161.8,45
			c0-7.2-2.3-9.2-5.2-9.2s-5.2,2-5.2,9.2c0,7.2,2.3,9.6,5.2,9.6S161.8,52.3,161.8,45z"/>
	</g>
	<g>
		<path class="st1" d="M217,54h7.7V37.5h-6.1v-3.2c3.3-0.6,5.5-0.9,7.5-2.2h3.8V54h7v4.2H217V54z"/>
		<path class="st1" d="M257.2,36.5h-13.4v-4.3h19v3.2c-6.3,7.7-8.1,13.3-8.2,22.8h-5.4C249.8,48.4,252,43.1,257.2,36.5z"/>
	</g>
	<g>
		<path class="st1" d="M120.5,146.1c7.4-5.8,13.4-11,13.4-15.2c0-2.6-1.9-4.2-4.5-4.2c-2.4,0-4.2,1.2-6.3,3.5l-3-2.9
			c2.7-3,6-4.6,9.5-4.6c5.4,0,9.2,2.9,9.2,8.2c0,5-4.6,9.5-10.1,14.2c1.4-0.1,2.6-0.2,3.9-0.2h7.4v4.3h-19.5V146.1z"/>
		<path class="st1" d="M146.7,135.9c0-8.8,4-13.3,10.1-13.3s10.1,4.4,10.1,13.3c0,8.9-4,13.6-10.1,13.6S146.7,144.8,146.7,135.9z
			 M161.9,135.9c0-7.2-2.3-9.2-5.2-9.2s-5.2,2-5.2,9.2s2.3,9.6,5.2,9.6S161.9,143.1,161.9,135.9z"/>
	</g>
	<g>
		<path class="st1" d="M217.4,146.1c7.4-5.8,13.4-11,13.4-15.2c0-2.6-1.9-4.2-4.5-4.2c-2.4,0-4.2,1.2-6.3,3.5l-3-2.9
			c2.7-3,6-4.6,9.5-4.6c5.4,0,9.2,2.9,9.2,8.2c0,5-4.6,9.5-10.1,14.2c1.4-0.1,2.6-0.2,3.9-0.2h7.4v4.3h-19.5V146.1z"/>
		<path class="st1" d="M263.7,142.3h-3.6v6.7h-4.8v-6.7h-12.7v-3.5l10.8-15.8h6.7v15.3h3.6V142.3z M255.4,138.3v-6.1
			c0-1.5,0.1-3.7,0.2-5.5h-0.1c-1,1.9-2,3.6-2.9,5.1l-4.4,6.4H255.4z"/>
	</g>
	<rect x="191.7" y="97.7" class="st2" width="96.9" height="74"/>
	<rect x="94.8" y="97.7" class="st2" width="96.9" height="74"/>
	<rect x="-2" y="97.7" class="st2" width="96.9" height="74"/>
	<rect x="288.4" y="6.9" class="st2" width="96.9" height="74"/>
	<rect x="191.6" y="6.9" class="st2" width="96.9" height="74"/>
	<rect x="94.7" y="6.9" class="st2" width="96.9" height="74"/>
	<rect x="-2.1" y="6.9" class="st2" width="96.9" height="74"/>
	<line class="st0" x1="287.4" y1="98.7" x2="287.4" y2="169.8"/>
	<g>
		<g>
			<path class="st1" d="M311.3,110.6c0,0.9-0.2,1.3-0.8,1.5c-0.6,0.3-1.4,0.3-2.7,0.3c-0.1-0.4-0.4-1.1-0.6-1.5c0.8,0,1.8,0,2.1,0
				c0.3,0,0.4-0.1,0.4-0.3v-1.7h-5.1c-0.3,1.3-0.9,2.7-2,3.6c-0.2-0.3-0.8-0.8-1.1-1c1.8-1.5,2-3.8,2-5.7v-3.9h7.8V110.6z
				 M309.8,107.4V106H305c0,0.5,0,1-0.1,1.5H309.8z M305,103.1v1.5h4.8v-1.5H305z"/>
		</g>
	</g>
	<g>
		<path class="st1" d="M312.7,144.9l2.5-3.2c1.9,2.1,4.7,3.5,7.5,3.5c2.9,0,4.9-1.4,4.9-3.6c0-2.5-2-4.1-8.2-4.1v-3.7
			c5.5,0,7.6-1.8,7.6-4c0-1.9-1.5-3.2-4.4-3.2c-2.3,0-4.6,0.9-6.7,3.2l-2.7-3.2c2.7-2.6,6-4.1,9.6-4.1c5.6,0,9.1,2.7,9.1,6.8
			c0,3-1.6,5.1-4.5,6.1v0.1c2.9,0.7,5.1,3,5.1,6.5c0,4.6-4.3,7.4-9.5,7.4C318.1,149.5,314.8,147.4,312.7,144.9z"/>
		<path class="st1" d="M339.4,144.8h7.7v-16.5H341v-3.2c3.3-0.6,5.5-0.9,7.5-2.2h3.8v21.8h7v4.2h-19.8V144.8z"/>
	</g>
	<polyline class="st2" points="384.2,171.8 287.4,171.8 287.4,97.7 384.2,97.7 	"/>
</g>
</svg>
