<svg id="Layer_1" data-name="Layer 1" xmlns="http://www.w3.org/2000/svg" width="698.72" height="227.39" viewBox="0 0 698.72 227.39"><defs><style>.cls-1{fill:#007bff;}.cls-2{fill:#c73d13;}</style></defs><title>Artboard 1</title><path class="cls-1" d="M694.21,143.11h-678a3.5,3.5,0,0,1,0-7h678a3.5,3.5,0,0,1,0,7Z"/><path class="cls-1" d="M306.78,226.61a3.5,3.5,0,0,1-3.5-3.5v-71a3.5,3.5,0,0,1,7,0v71A3.5,3.5,0,0,1,306.78,226.61Z"/><path class="cls-1" d="M209.92,226.61a3.5,3.5,0,0,1-3.5-3.5v-71a3.5,3.5,0,0,1,7,0v71A3.49,3.49,0,0,1,209.92,226.61Z"/><path class="cls-1" d="M403.64,226.61a3.49,3.49,0,0,1-3.5-3.5v-71a3.5,3.5,0,0,1,7,0v71A3.5,3.5,0,0,1,403.64,226.61Z"/><path class="cls-1" d="M113.07,226.61a3.49,3.49,0,0,1-3.5-3.5v-71a3.5,3.5,0,1,1,7,0v71A3.5,3.5,0,0,1,113.07,226.61Z"/><path class="cls-1" d="M500.49,226.61a3.5,3.5,0,0,1-3.5-3.5v-71a3.5,3.5,0,0,1,7,0v71A3.49,3.49,0,0,1,500.49,226.61Z"/><path class="cls-1" d="M597.35,226.61a3.5,3.5,0,0,1-3.5-3.5v-71a3.5,3.5,0,0,1,7,0v71A3.5,3.5,0,0,1,597.35,226.61Z"/><path class="cls-1" d="M306.78,130.63a3.5,3.5,0,0,1-3.5-3.5v-71a3.5,3.5,0,0,1,7,0v71A3.5,3.5,0,0,1,306.78,130.63Z"/><path class="cls-1" d="M209.92,130.63a3.5,3.5,0,0,1-3.5-3.5v-71a3.5,3.5,0,1,1,7,0v71A3.49,3.49,0,0,1,209.92,130.63Z"/><path class="cls-1" d="M403.64,130.63a3.49,3.49,0,0,1-3.5-3.5v-71a3.5,3.5,0,0,1,7,0v71A3.5,3.5,0,0,1,403.64,130.63Z"/><path class="cls-1" d="M113.07,130.63a3.49,3.49,0,0,1-3.5-3.5v-71a3.5,3.5,0,1,1,7,0v71A3.5,3.5,0,0,1,113.07,130.63Z"/><path class="cls-1" d="M500.49,130.63a3.5,3.5,0,0,1-3.5-3.5v-71a3.5,3.5,0,0,1,7,0v71A3.49,3.49,0,0,1,500.49,130.63Z"/><path class="cls-1" d="M597.35,130.63a3.5,3.5,0,0,1-3.5-3.5v-71a3.5,3.5,0,0,1,7,0v71A3.5,3.5,0,0,1,597.35,130.63Z"/><path class="cls-1" d="M90.33,122.88a3.61,3.61,0,0,1-.22,1.24,7.48,7.48,0,0,1-.57,1.22,10,10,0,0,1-.75,1.16c-.28.38-.55.72-.81,1l-.64.49v.06l.87-.17h2.3v1.32H85.46v-.8c.19-.2.41-.43.65-.7s.48-.56.72-.85.48-.61.72-.94a9.19,9.19,0,0,0,.62-1,7.08,7.08,0,0,0,.44-.94,2.6,2.6,0,0,0,.16-.87,1.19,1.19,0,0,0-.28-.81,1.16,1.16,0,0,0-.9-.32,2.07,2.07,0,0,0-.78.17,2,2,0,0,0-.68.41l-.62-1.1a3.61,3.61,0,0,1,1.06-.62,3.7,3.7,0,0,1,1.4-.23,2.81,2.81,0,0,1,.94.14,2,2,0,0,1,.75.42,1.84,1.84,0,0,1,.49.69A2.38,2.38,0,0,1,90.33,122.88Z"/><path class="cls-1" d="M92.68,129.23l2.75-6.46.53-.59-.72.12H92.15v-1.47h5.42v.46l-3.36,7.94Z"/><path class="cls-1" d="M40.31,55.38V65.7H38.78v-.76H33.45v.78H32V55.38Zm-6.86,1.44V59.4h5.33V56.82Zm5.33,6.68V60.82H33.45V63.5Z"/><path class="cls-1" d="M187.19,122.88a3.62,3.62,0,0,1-.23,1.24,6.68,6.68,0,0,1-.56,1.22,10.07,10.07,0,0,1-.76,1.16c-.27.38-.54.72-.81,1l-.63.49v.06l.86-.17h2.31v1.32h-5.06v-.8c.2-.2.41-.43.65-.7l.73-.85c.24-.31.48-.61.71-.94a11.3,11.3,0,0,0,.63-1,5.91,5.91,0,0,0,.43-.94,2.62,2.62,0,0,0,.17-.87,1.2,1.2,0,0,0-.29-.81,1.12,1.12,0,0,0-.89-.32,2.08,2.08,0,0,0-.79.17,2,2,0,0,0-.67.41l-.63-1.1a3.63,3.63,0,0,1,2.46-.85,2.87,2.87,0,0,1,1,.14,2,2,0,0,1,1.24,1.11A2.38,2.38,0,0,1,187.19,122.88Z"/><path class="cls-1" d="M189,127.18a2.47,2.47,0,0,1,.11-.75,1.9,1.9,0,0,1,.31-.6,2.65,2.65,0,0,1,.46-.49,5,5,0,0,1,.59-.39,3.1,3.1,0,0,1-.93-.86,2.21,2.21,0,0,1,.34-2.79,2.35,2.35,0,0,1,.8-.47,3.19,3.19,0,0,1,1.06-.16,3,3,0,0,1,1,.14,2.06,2.06,0,0,1,.76.41,1.74,1.74,0,0,1,.5.64,2.05,2.05,0,0,1,.17.83,2.17,2.17,0,0,1-.32,1.2,3.09,3.09,0,0,1-.93.9,3.53,3.53,0,0,1,1.09.93,2.14,2.14,0,0,1,.36,1.29,2.38,2.38,0,0,1-.19,1,2.31,2.31,0,0,1-.56.75,2.63,2.63,0,0,1-.87.49,3.48,3.48,0,0,1-1.1.17,3.42,3.42,0,0,1-1.09-.16,2.48,2.48,0,0,1-.82-.45,1.92,1.92,0,0,1-.53-.7A2.06,2.06,0,0,1,189,127.18Zm3.87-.16a1,1,0,0,0-.14-.5,1.46,1.46,0,0,0-.34-.41,2.36,2.36,0,0,0-.47-.34l-.52-.31a2.07,2.07,0,0,0-.77.71,1.52,1.52,0,0,0-.21.75,1.14,1.14,0,0,0,.33.82,1.2,1.2,0,0,0,.92.34,1.39,1.39,0,0,0,.87-.26A1,1,0,0,0,192.89,127Zm-2.18-4.11a1.12,1.12,0,0,0,.11.5,1.1,1.1,0,0,0,.3.38,2.25,2.25,0,0,0,.42.3,5.42,5.42,0,0,0,.48.26,1.77,1.77,0,0,0,.72-1.35,1,1,0,0,0-.29-.76,1.08,1.08,0,0,0-.72-.26,1,1,0,0,0-.77.28A1,1,0,0,0,190.71,122.91Z"/><path class="cls-1" d="M137,64c0,.87-.21,1.27-.76,1.51a7,7,0,0,1-2.65.28,6,6,0,0,0-.6-1.5c.84,0,1.85,0,2.11,0s.39-.1.39-.35V62.28h-5.14a6.5,6.5,0,0,1-2,3.59,5.78,5.78,0,0,0-1.11-1c1.81-1.54,2-3.83,2-5.66V55.23H137Zm-1.51-3.14V59.44h-4.81c0,.45,0,1-.09,1.46Zm-4.81-4.28v1.46h4.81V56.62Z"/><path class="cls-1" d="M284,122.89a3.59,3.59,0,0,1-.22,1.23,8.47,8.47,0,0,1-.56,1.23,10.88,10.88,0,0,1-.76,1.15c-.28.38-.55.72-.81,1l-.64.49v.06l.87-.17h2.3v1.32h-5.05v-.8c.19-.2.41-.43.65-.7s.48-.55.72-.85.49-.61.72-.93a10.49,10.49,0,0,0,.62-1,5.62,5.62,0,0,0,.44-.94,2.55,2.55,0,0,0,.16-.87,1.19,1.19,0,0,0-.28-.81,1.15,1.15,0,0,0-.89-.31,2.06,2.06,0,0,0-.79.16,2.28,2.28,0,0,0-.68.41l-.62-1.1a3.84,3.84,0,0,1,1.06-.62,3.74,3.74,0,0,1,1.4-.23,2.91,2.91,0,0,1,.95.14,2.34,2.34,0,0,1,.74.42,1.84,1.84,0,0,1,.49.69A2.43,2.43,0,0,1,284,122.89Z"/><path class="cls-1" d="M285.69,123.46a3.43,3.43,0,0,1,.18-1.13,2.71,2.71,0,0,1,.54-.88,2.63,2.63,0,0,1,.87-.57,3.05,3.05,0,0,1,1.17-.21,2.82,2.82,0,0,1,2.13.81,3.29,3.29,0,0,1,.77,2.35,7.52,7.52,0,0,1-.35,2.41,5.18,5.18,0,0,1-.95,1.69,4.19,4.19,0,0,1-1.38,1,4.85,4.85,0,0,1-1.64.43l-.34-1.22a4.08,4.08,0,0,0,1.18-.33,3.29,3.29,0,0,0,.89-.59,2.9,2.9,0,0,0,.6-.8,3.27,3.27,0,0,0,.33-1,1.52,1.52,0,0,1-.61.43,2.69,2.69,0,0,1-.89.12,2.83,2.83,0,0,1-.9-.15,2.56,2.56,0,0,1-.81-.48,2.52,2.52,0,0,1-.57-.8A2.74,2.74,0,0,1,285.69,123.46Zm1.51-.08a1.34,1.34,0,0,0,.38,1,1.4,1.4,0,0,0,1,.35,1.74,1.74,0,0,0,.81-.16,1.42,1.42,0,0,0,.48-.38,4.12,4.12,0,0,0,0-.48,2.84,2.84,0,0,0-.08-.66,1.8,1.8,0,0,0-.26-.58,1.3,1.3,0,0,0-.44-.4,1.33,1.33,0,0,0-.65-.15,1.15,1.15,0,0,0-.91.38A1.59,1.59,0,0,0,287.2,123.38Z"/><path class="cls-1" d="M230.54,58.56c0,1.82,1.12,4.58,4.85,6a6.44,6.44,0,0,0-1,1.35,8.13,8.13,0,0,1-4.64-4.77,7.78,7.78,0,0,1-4.45,4.77,7.17,7.17,0,0,0-1-1.23,6.73,6.73,0,0,0,4.7-6.07V54.83h1.54Zm-3.12-1.21a5.73,5.73,0,0,1-1.58,3.78l-1.3-.81A4.93,4.93,0,0,0,226,57Zm7.46.26A28.32,28.32,0,0,1,233,60.88l-1.25-.53A17.88,17.88,0,0,0,233.31,57Z"/><path class="cls-1" d="M378.09,128.08a1.56,1.56,0,0,0,1.14-.39,1.34,1.34,0,0,0,.39-1,1.21,1.21,0,0,0-.41-1,2,2,0,0,0-1.29-.33h-.86v-.82l1.45-2,.69-.54-.95.1h-2v-1.32h4.59v.86l-1.7,2.26-.52.33v.06l.5-.07a2.4,2.4,0,0,1,.8.19,1.85,1.85,0,0,1,.66.45,2.26,2.26,0,0,1,.45.72,2.8,2.8,0,0,1,.16,1,2.86,2.86,0,0,1-.23,1.22,2.37,2.37,0,0,1-.65.87,2.6,2.6,0,0,1-1,.51,3.85,3.85,0,0,1-1.19.17,6.87,6.87,0,0,1-1.09-.09,3.47,3.47,0,0,1-.92-.28l.43-1.3a3.21,3.21,0,0,0,.68.26A3.76,3.76,0,0,0,378.09,128.08Z"/><path class="cls-1" d="M382.48,125a5.78,5.78,0,0,1,.76-3.28,2.79,2.79,0,0,1,4.39,0,6,6,0,0,1,.71,3.29,5.83,5.83,0,0,1-.76,3.3,2.52,2.52,0,0,1-2.18,1.08,2.43,2.43,0,0,1-2.21-1.13A6.2,6.2,0,0,1,382.48,125Zm1.56,0a6.34,6.34,0,0,0,.32,2.26,1.1,1.1,0,0,0,2.09.07,6,6,0,0,0,.33-2.33,6.53,6.53,0,0,0-.31-2.24,1.1,1.1,0,0,0-1.07-.79,1.07,1.07,0,0,0-1,.74A6.23,6.23,0,0,0,384,125Z"/><path class="cls-1" d="M325.71,57.9c-.55,3.25-1.87,5.69-3.56,6.93A5.5,5.5,0,0,0,321,63.71,7.84,7.84,0,0,0,324,59h-2.6V57.59h3.13l.26-.05Zm6.37-.43a29.64,29.64,0,0,1-3.13,2.9,8,8,0,0,0,3.46,3.3A6.28,6.28,0,0,0,331.3,65a9.17,9.17,0,0,1-3.81-4.52V64c0,.86-.19,1.29-.68,1.53a5.53,5.53,0,0,1-2.39.33,5.86,5.86,0,0,0-.56-1.6c.79,0,1.54,0,1.79,0s.33-.09.33-.29V54.68h1.51v2.11a16,16,0,0,0,.85,2.41,19.19,19.19,0,0,0,2.41-2.67Z"/><path class="cls-2" d="M475,128.08a1.54,1.54,0,0,0,1.13-.39,1.34,1.34,0,0,0,.39-1,1.18,1.18,0,0,0-.41-1,2,2,0,0,0-1.28-.33h-.86v-.82l1.45-2,.68-.54-.95.1h-2v-1.32h4.58v.86L476,124l-.53.33v.06l.51-.07a2.35,2.35,0,0,1,.79.19,1.69,1.69,0,0,1,.66.45,2.1,2.1,0,0,1,.45.72,2.59,2.59,0,0,1,.17,1,3,3,0,0,1-.23,1.22,2.37,2.37,0,0,1-.65.87,2.73,2.73,0,0,1-1,.51,3.74,3.74,0,0,1-1.18.17,7,7,0,0,1-1.1-.09A3.38,3.38,0,0,1,473,129l.42-1.3a3.52,3.52,0,0,0,.69.26A3.7,3.7,0,0,0,475,128.08Z"/><path class="cls-2" d="M480.07,127.91h1.67v-4.74l.18-.81-.58.71-1.06.73-.66-.9,2.73-2.21h.88v7.22h1.63v1.32h-4.79Z"/><path class="cls-2" d="M424.89,58.86a11.83,11.83,0,0,0,4.43,4.58,5.53,5.53,0,0,0-1.06,1.25,13.31,13.31,0,0,1-3.95-4.23v5.41h-1.52V60.52a12.79,12.79,0,0,1-4,4.22,7.32,7.32,0,0,0-1.07-1.23,11.36,11.36,0,0,0,4.4-4.65h-3.85V57.45h4.48V54.66h1.52v2.79h4.5v1.41Z"/><path class="cls-2" d="M576.12,127.91h1.67v-4.74l.18-.81-.57.7-1.07.74-.66-.9,2.74-2.21h.87v7.22h1.63v1.32h-4.79Z"/><path class="cls-2" d="M524.12,62.4c-.46.66-.93,1.39-1.35,1.89h2.71v1.23H515.34V64.29h2.34a8.3,8.3,0,0,0-1-1.93l1.09-.46h-1.83V60.67h3.64V59.48h-2.2V58.9A16.62,16.62,0,0,1,515.59,60a5.84,5.84,0,0,0-.89-1.15,12.76,12.76,0,0,0,4.85-4.23H521a12.34,12.34,0,0,0,5.12,4.09A6.59,6.59,0,0,0,525.2,60a15.22,15.22,0,0,1-1.83-1.14v.62h-2.29v1.19h3.7V61.9h-3.7v2.39h1.31l-.78-.32a11.93,11.93,0,0,0,1.14-2.07Zm-6.28-.5a8,8,0,0,1,1.11,2l-1,.42h1.62V61.9Zm4.72-3.66A12.82,12.82,0,0,1,520.35,56a12.78,12.78,0,0,1-2.12,2.22Z"/><path class="cls-1" d="M677.47,122.88a3.61,3.61,0,0,1-.22,1.24,7.48,7.48,0,0,1-.57,1.22,11.51,11.51,0,0,1-.75,1.16c-.28.38-.55.72-.81,1l-.64.49v.06l.87-.17h2.3v1.32h-5v-.8c.19-.2.41-.43.64-.7s.49-.56.73-.85.48-.61.72-.94a11.16,11.16,0,0,0,.62-1,7.08,7.08,0,0,0,.44-.94,2.6,2.6,0,0,0,.16-.87,1.19,1.19,0,0,0-.28-.81,1.16,1.16,0,0,0-.9-.32,2.07,2.07,0,0,0-.78.17,2,2,0,0,0-.68.41l-.62-1.1a3.61,3.61,0,0,1,1.06-.62,3.7,3.7,0,0,1,1.4-.23,2.81,2.81,0,0,1,.94.14,2,2,0,0,1,.75.42,1.84,1.84,0,0,1,.49.69A2.38,2.38,0,0,1,677.47,122.88Z"/><path class="cls-1" d="M622.71,64v1.4H611.85V64h4.63V59.78h-3.85V58.37h3.85V54.69H618v3.68h3.91v1.41H618V64Z"/><path class="cls-1" d="M93.52,224a1.54,1.54,0,0,0,1.14-.39,1.34,1.34,0,0,0,.39-1,1.21,1.21,0,0,0-.41-1,2,2,0,0,0-1.29-.33h-.86v-.82l1.45-2,.69-.54-.95.11h-2v-1.32h4.59v.86l-1.7,2.26-.52.33v.06l.5-.07a2.4,2.4,0,0,1,.8.19,1.85,1.85,0,0,1,.66.45,2,2,0,0,1,.45.72,2.79,2.79,0,0,1,.17,1,2.85,2.85,0,0,1-.24,1.22,2.27,2.27,0,0,1-.65.87,2.6,2.6,0,0,1-1,.51,4.17,4.17,0,0,1-1.19.17,5.89,5.89,0,0,1-1.09-.1,3,3,0,0,1-.91-.27l.42-1.3a3.1,3.1,0,0,0,.69.26A3.61,3.61,0,0,0,93.52,224Z"/><path class="cls-1" d="M40.31,151.26v10.32H38.78v-.76H33.45v.78H32V151.26Zm-6.86,1.44v2.58h5.33V152.7Zm5.33,6.68V156.7H33.45v2.68Z"/><path class="cls-1" d="M194.12,222.77H192.8v2.34h-1.45v-2.34h-3.64v-.89l3.81-5.23h1.28v4.88h1.32Zm-2.77-3.08.11-1h-.05l-.41.86-1.25,1.63-.6.45.77-.09h1.43Z"/><path class="cls-1" d="M137,159.92c0,.87-.21,1.27-.76,1.51a7,7,0,0,1-2.65.28,6,6,0,0,0-.6-1.5c.84,0,1.85,0,2.11,0s.39-.1.39-.35v-1.74h-5.14a6.5,6.5,0,0,1-2,3.59,5.78,5.78,0,0,0-1.11-1c1.81-1.54,2-3.83,2-5.66v-3.94H137Zm-1.51-3.14v-1.46h-4.81c0,.45,0,1-.09,1.46Zm-4.81-4.28V154h4.81V152.5Z"/><path class="cls-1" d="M287,223.9a1.75,1.75,0,0,0,1.21-.38,1.38,1.38,0,0,0,.43-1.06,1.17,1.17,0,0,0-.5-1.05,2.41,2.41,0,0,0-1.4-.34l-1,0v-4.4h4.13v1.47h-2.78v1.62l.49-.05a3.5,3.5,0,0,1,1.06.21,2.5,2.5,0,0,1,.81.54,2.32,2.32,0,0,1,.51.83,2.85,2.85,0,0,1,.18,1.08,3.06,3.06,0,0,1-.24,1.25,2.51,2.51,0,0,1-.66.9,2.93,2.93,0,0,1-1,.54,4.26,4.26,0,0,1-1.26.18,5.64,5.64,0,0,1-1-.09,3.65,3.65,0,0,1-.82-.24l.42-1.3a2.63,2.63,0,0,0,.6.18A3.72,3.72,0,0,0,287,223.9Z"/><path class="cls-1" d="M230.54,154.44c0,1.82,1.12,4.58,4.85,6a6.44,6.44,0,0,0-1,1.35,8.13,8.13,0,0,1-4.64-4.77,7.78,7.78,0,0,1-4.45,4.77,7.17,7.17,0,0,0-1-1.23,6.73,6.73,0,0,0,4.7-6.07v-3.74h1.54Zm-3.12-1.21a5.73,5.73,0,0,1-1.58,3.78l-1.3-.81a4.93,4.93,0,0,0,1.44-3.28Zm7.46.26a28.32,28.32,0,0,1-1.93,3.27l-1.25-.53a17.88,17.88,0,0,0,1.61-3.32Z"/><path class="cls-2" d="M387.44,222.51a3,3,0,0,1-.2,1.09,2.6,2.6,0,0,1-.56.88,2.68,2.68,0,0,1-.87.59,2.9,2.9,0,0,1-1.12.21,3.31,3.31,0,0,1-1.15-.2,2.56,2.56,0,0,1-.9-.59,2.7,2.7,0,0,1-.6-1,4.18,4.18,0,0,1-.22-1.39,6.6,6.6,0,0,1,.34-2.15,5.51,5.51,0,0,1,.93-1.67,4.66,4.66,0,0,1,1.36-1.15,4.84,4.84,0,0,1,1.63-.59l.35,1.24a3.32,3.32,0,0,0-1.1.37,4.36,4.36,0,0,0-.9.66,4.19,4.19,0,0,0-.66.86,3.35,3.35,0,0,0-.37,1,1.87,1.87,0,0,1,.62-.51,2,2,0,0,1,1-.21,3,3,0,0,1,1,.17,2.12,2.12,0,0,1,.77.49,2.28,2.28,0,0,1,.51.82A3.09,3.09,0,0,1,387.44,222.51Zm-1.51.08a1.18,1.18,0,0,0-1.32-1.34,1.48,1.48,0,0,0-.81.21,1.32,1.32,0,0,0-.47.51,2.15,2.15,0,0,0,0,.23v.19a1.88,1.88,0,0,0,.09.57,1.37,1.37,0,0,0,.24.5,1.22,1.22,0,0,0,.42.36,1.11,1.11,0,0,0,.6.14,1.19,1.19,0,0,0,.91-.38A1.4,1.4,0,0,0,385.93,222.59Z"/><path class="cls-2" d="M325.71,153.78c-.55,3.25-1.87,5.69-3.56,6.93a5.5,5.5,0,0,0-1.19-1.12,7.84,7.84,0,0,0,3-4.68h-2.6v-1.44h3.13l.26-.05Zm6.37-.43a29.64,29.64,0,0,1-3.13,2.9,8,8,0,0,0,3.46,3.3,6.28,6.28,0,0,0-1.11,1.33,9.21,9.21,0,0,1-3.81-4.52v3.54c0,.86-.19,1.29-.68,1.53a5.53,5.53,0,0,1-2.39.33,5.86,5.86,0,0,0-.56-1.6c.79,0,1.54,0,1.79,0s.33-.09.33-.29v-9.34h1.51v2.11a16,16,0,0,0,.85,2.41,19.19,19.19,0,0,0,2.41-2.67Z"/><path class="cls-2" d="M479.3,225.11l2.75-6.46.53-.59-.72.12h-3.08v-1.47h5.41v.46l-3.36,7.94Z"/><path class="cls-2" d="M424.89,154.74a11.83,11.83,0,0,0,4.43,4.58,5.53,5.53,0,0,0-1.06,1.25,13.31,13.31,0,0,1-3.95-4.23v5.41h-1.52V156.4a12.79,12.79,0,0,1-4,4.22,7.32,7.32,0,0,0-1.07-1.23,11.36,11.36,0,0,0,4.4-4.65h-3.85v-1.41h4.48v-2.79h1.52v2.79h4.5v1.41Z"/><path class="cls-1" d="M575.65,223.06a2.48,2.48,0,0,1,.1-.75,2.13,2.13,0,0,1,.31-.6,2.71,2.71,0,0,1,.47-.49,4.89,4.89,0,0,1,.58-.39,3.19,3.19,0,0,1-.92-.86,2,2,0,0,1-.34-1.21,2.29,2.29,0,0,1,.17-.87,2.11,2.11,0,0,1,.51-.71,2.47,2.47,0,0,1,.79-.47,3.23,3.23,0,0,1,1.06-.17,3.12,3.12,0,0,1,1,.15,2.42,2.42,0,0,1,.76.41,1.83,1.83,0,0,1,.49.64,1.9,1.9,0,0,1,.17.83,2.09,2.09,0,0,1-.32,1.2,3.09,3.09,0,0,1-.93.9,3.31,3.31,0,0,1,1.09.93,2.17,2.17,0,0,1,.37,1.29,2.38,2.38,0,0,1-.2,1,2.17,2.17,0,0,1-.56.75,2.68,2.68,0,0,1-.86.49,3.59,3.59,0,0,1-1.11.17,3.31,3.31,0,0,1-1.08-.16,2.54,2.54,0,0,1-.83-.45,1.84,1.84,0,0,1-.53-.7A2.21,2.21,0,0,1,575.65,223.06Zm3.86-.15a1.07,1.07,0,0,0-.13-.51A1.69,1.69,0,0,0,579,222a2.29,2.29,0,0,0-.46-.34l-.53-.31a2,2,0,0,0-.77.71,1.52,1.52,0,0,0-.21.75,1.14,1.14,0,0,0,.33.82,1.21,1.21,0,0,0,.92.34,1.39,1.39,0,0,0,.87-.26A1,1,0,0,0,579.51,222.91Zm-2.17-4.12a1,1,0,0,0,.11.5,1.2,1.2,0,0,0,.29.38,2.25,2.25,0,0,0,.42.3c.16.09.32.18.49.26a1.8,1.8,0,0,0,.72-1.35,1,1,0,0,0-.3-.76,1,1,0,0,0-.71-.25,1,1,0,0,0-.78.27A1,1,0,0,0,577.34,218.79Z"/><path class="cls-1" d="M524.12,158.28c-.46.66-.93,1.39-1.35,1.89h2.71v1.23H515.34v-1.23h2.34a8.3,8.3,0,0,0-1-1.93l1.09-.46h-1.83v-1.23h3.64v-1.19h-2.2v-.58a16.62,16.62,0,0,1-1.79,1.11,5.84,5.84,0,0,0-.89-1.15,12.76,12.76,0,0,0,4.85-4.23H521a12.34,12.34,0,0,0,5.12,4.09,6.59,6.59,0,0,0-.94,1.28,15.22,15.22,0,0,1-1.83-1.14v.62h-2.29v1.19h3.7v1.23h-3.7v2.39h1.31l-.78-.32a11.93,11.93,0,0,0,1.14-2.07Zm-6.28-.5a8,8,0,0,1,1.11,2l-1,.42h1.62v-2.39Zm4.72-3.66a12.82,12.82,0,0,1-2.21-2.22,12.78,12.78,0,0,1-2.12,2.22Z"/><path class="cls-1" d="M672.31,219.34a3.43,3.43,0,0,1,.18-1.13,2.71,2.71,0,0,1,.54-.88,2.82,2.82,0,0,1,.87-.58,3.25,3.25,0,0,1,1.17-.21,2.82,2.82,0,0,1,2.13.82,3.25,3.25,0,0,1,.77,2.35,7.25,7.25,0,0,1-.35,2.41,5.1,5.1,0,0,1-1,1.69,4.06,4.06,0,0,1-1.37,1,4.91,4.91,0,0,1-1.65.43l-.33-1.22a4,4,0,0,0,1.17-.33,3.14,3.14,0,0,0,.89-.59,3.19,3.19,0,0,0,.61-.81,3.75,3.75,0,0,0,.33-1,1.55,1.55,0,0,1-.62.43,2.94,2.94,0,0,1-1.79,0,2.23,2.23,0,0,1-.8-.47,2.39,2.39,0,0,1-.58-.8A2.74,2.74,0,0,1,672.31,219.34Zm1.51-.08a1.34,1.34,0,0,0,.38,1,1.41,1.41,0,0,0,1,.35,1.87,1.87,0,0,0,.8-.16,1.25,1.25,0,0,0,.48-.38,4.23,4.23,0,0,0,0-.48,2.39,2.39,0,0,0-.09-.66,1.61,1.61,0,0,0-.26-.58,1.21,1.21,0,0,0-.44-.4,1.29,1.29,0,0,0-.64-.15,1.12,1.12,0,0,0-.91.38A1.54,1.54,0,0,0,673.82,219.26Z"/><path class="cls-1" d="M622.71,159.84v1.4H611.85v-1.4h4.63v-4.18h-3.85v-1.41h3.85v-3.68H618v3.68h3.91v1.41H618v4.18Z"/><path class="cls-2" d="M430.21,104.05a24.67,24.67,0,0,0,2.65.14c1.26,0,5.09,0,6.65-.07a10.5,10.5,0,0,0-1,2.81h-5.82c-4.28,0-7.47-.7-9.61-4a11.58,11.58,0,0,1-3.1,4.4,16.13,16.13,0,0,0-2.28-1.89c2.52-1.86,3.66-5.07,4.08-9l2.88.28c-.14,1-.3,2-.51,3a6.29,6.29,0,0,0,3.16,3.65V95.06h-4.95V92.43h12.8v2.63h-5V98h6.4v2.61h-6.4Zm-8.64-10.43h-2.72V87.8h8.45V85.48h2.93V87.8h8.52v5.82h-2.87V90.43H421.57Z"/><path class="cls-2" d="M457.79,93.78a22.68,22.68,0,0,0,5.56,8.43,9.68,9.68,0,0,0-2.07,2.21,23.58,23.58,0,0,1-4.7-7.4v10.17h-2.75V97.48a23.44,23.44,0,0,1-5,7,15.4,15.4,0,0,0-1.88-2v4.65h-2.72V95.32a20.65,20.65,0,0,1-1.91,2.09,20,20,0,0,0-1.61-2.9,23.86,23.86,0,0,0,5.89-8.94l2.75.88a36.45,36.45,0,0,1-2.4,4.91v10.85a22.15,22.15,0,0,0,5.75-8.43h-4.82v-2.7h5.91V85.83h2.75v5.25h6.07v2.7Z"/><path class="cls-2" d="M483.48,86.85v20h-3V105.4H470.17v1.51h-2.86V86.85Zm-13.31,2.79v5H480.5v-5Zm10.33,13V97.39H470.17v5.21Z"/><path class="cls-2" d="M527.06,104.05a24.86,24.86,0,0,0,2.66.14c1.25,0,5.09,0,6.65-.07a10.51,10.51,0,0,0-1,2.81h-5.81c-4.29,0-7.47-.7-9.61-4a11.69,11.69,0,0,1-3.1,4.4,16.71,16.71,0,0,0-2.28-1.89c2.51-1.86,3.65-5.07,4.07-9l2.89.28c-.14,1-.3,2-.51,3a6.25,6.25,0,0,0,3.16,3.65V95.06h-5V92.43H532v2.63h-5V98h6.4v2.61h-6.4Zm-8.63-10.43h-2.72V87.8h8.44V85.48h2.94V87.8h8.51v5.82h-2.86V90.43H518.43Z"/><path class="cls-2" d="M554.64,93.78a22.81,22.81,0,0,0,5.56,8.43,10.14,10.14,0,0,0-2.07,2.21,23.94,23.94,0,0,1-4.7-7.4v10.17h-2.74V97.48a23.44,23.44,0,0,1-5,7,16.11,16.11,0,0,0-1.88-2v4.65h-2.73V95.32a20.6,20.6,0,0,1-1.9,2.09,20,20,0,0,0-1.61-2.9,24,24,0,0,0,5.89-8.94l2.74.88a36.37,36.37,0,0,1-2.39,4.91v10.85a22.13,22.13,0,0,0,5.74-8.43h-4.81v-2.7h5.91V85.83h2.74v5.25h6.08v2.7Z"/><path class="cls-2" d="M580.34,86.85v20h-3V105.4H567v1.51h-2.86V86.85ZM567,89.64v5h10.33v-5Zm10.33,13V97.39H567v5.21Z"/><path class="cls-2" d="M333.35,199.24a24.81,24.81,0,0,0,2.65.14c1.26,0,5.1,0,6.66-.07a10.24,10.24,0,0,0-1,2.82h-5.82c-4.28,0-7.47-.7-9.61-4a11.67,11.67,0,0,1-3.09,4.4,17.3,17.3,0,0,0-2.28-1.88c2.51-1.86,3.65-5.08,4.07-9l2.88.27c-.14,1-.3,2-.51,3a6.24,6.24,0,0,0,3.17,3.65v-8.21h-5v-2.63h12.8v2.63h-5v2.91h6.4v2.6h-6.4Zm-8.63-10.42H322V183h8.45v-2.33h2.93V183h8.52v5.82H339v-3.19H324.72Z"/><path class="cls-2" d="M360.93,189a22.76,22.76,0,0,0,5.56,8.42,10.14,10.14,0,0,0-2.07,2.21,23.65,23.65,0,0,1-4.7-7.4v10.17H357v-9.7a23.73,23.73,0,0,1-5,7,16.27,16.27,0,0,0-1.89-2v4.66h-2.72V190.52a23.05,23.05,0,0,1-1.91,2.09,21,21,0,0,0-1.6-2.91,23.88,23.88,0,0,0,5.88-8.93l2.75.88a36.45,36.45,0,0,1-2.4,4.91V197.4a22,22,0,0,0,5.75-8.42h-4.82v-2.7H357V181h2.75v5.26h6.07V189Z"/><path class="cls-2" d="M386.62,182.05v20h-3v-1.47H373.31v1.51h-2.86v-20Zm-13.31,2.79v5h10.34v-5Zm10.34,13v-5.21H373.31v5.21Z"/><path class="cls-2" d="M430.21,199.24a24.67,24.67,0,0,0,2.65.14c1.26,0,5.09,0,6.65-.07a10.57,10.57,0,0,0-1,2.82h-5.82c-4.28,0-7.47-.7-9.61-4a11.62,11.62,0,0,1-3.1,4.39,16.08,16.08,0,0,0-2.28-1.88c2.52-1.86,3.66-5.07,4.08-9l2.88.28c-.14,1-.3,2-.51,2.95a6.26,6.26,0,0,0,3.16,3.65v-8.21h-4.95v-2.63h12.8v2.63h-5v2.91h6.4v2.6h-6.4Zm-8.64-10.42h-2.72V183h8.45v-2.33h2.93V183h8.52v5.82h-2.87v-3.19H421.57Z"/><path class="cls-2" d="M457.79,189a22.64,22.64,0,0,0,5.56,8.42,9.68,9.68,0,0,0-2.07,2.21,23.47,23.47,0,0,1-4.7-7.4v10.17h-2.75v-9.7a23.44,23.44,0,0,1-5,7,15.46,15.46,0,0,0-1.88-2v4.66h-2.72V190.52a23.05,23.05,0,0,1-1.91,2.09,20.63,20.63,0,0,0-1.61-2.91,23.9,23.9,0,0,0,5.89-8.93l2.75.88a36.45,36.45,0,0,1-2.4,4.91V197.4a22.11,22.11,0,0,0,5.75-8.42h-4.82v-2.7h5.91V181h2.75v5.26h6.07V189Z"/><path class="cls-2" d="M483.48,182.05v20h-3v-1.47H470.17v1.51h-2.86v-20Zm-13.31,2.79v5H480.5v-5Zm10.33,13v-5.21H470.17v5.21Z"/><path class="cls-2" d="M14.2,99.82C11,96.41,8.63,93.93,6.69,93.94a1.75,1.75,0,0,0-2,1.85,3.6,3.6,0,0,0,1.38,2.39L4.26,100a5.91,5.91,0,0,1-2.2-4.69,4.3,4.3,0,0,1,4.43-4.65c2.3,0,4.76,2.13,7,4.25a19,19,0,0,1-.2-2.31V90H16.1l0,9.81Z"/><path class="cls-2" d="M9.14,88.29c-4.71,0-7.11-2-7.12-5s2.4-5,7.09-5,7.23,2,7.24,5S13.85,88.27,9.14,88.29Zm0-6.82c-3.72,0-4.48.81-4.48,1.82s.77,1.82,4.49,1.81,4.6-.83,4.59-1.84S12.84,81.46,9.12,81.47Z"/><path class="cls-2" d="M14.12,76.68c-3.2-3.41-5.57-5.89-7.5-5.88a1.74,1.74,0,0,0-2,1.85A3.58,3.58,0,0,0,6,75L4.19,76.89A5.91,5.91,0,0,1,2,72.2a4.3,4.3,0,0,1,4.43-4.65c2.29,0,4.75,2.13,7,4.25-.09-.7-.19-1.67-.2-2.32v-2.6H16l0,9.81Z"/><path class="cls-2" d="M9.07,65.15c-4.71,0-7.11-2-7.12-5s2.39-5,7.08-5,7.23,2,7.24,5S13.78,65.13,9.07,65.15Zm0-6.82c-3.72,0-4.48.81-4.47,1.82S5.33,62,9.06,62s4.59-.83,4.59-1.83S12.77,58.31,9,58.33Z"/><path class="cls-2" d="M14.2,195.7c-3.21-3.41-5.57-5.89-7.51-5.88a1.75,1.75,0,0,0-2,1.85,3.6,3.6,0,0,0,1.38,2.39l-1.82,1.85a5.94,5.94,0,0,1-2.2-4.69,4.3,4.3,0,0,1,4.43-4.65c2.3,0,4.76,2.13,7,4.25a19,19,0,0,1-.2-2.32v-2.6H16.1l0,9.81Z"/><path class="cls-2" d="M9.14,184.17c-4.71,0-7.11-2-7.12-5s2.4-5,7.09-5,7.23,2,7.24,5S13.85,184.15,9.14,184.17Zm0-6.82c-3.72,0-4.48.81-4.48,1.82S5.41,181,9.13,181s4.6-.84,4.59-1.84S12.84,177.34,9.12,177.35Z"/><path class="cls-2" d="M14.12,172.56c-3.2-3.41-5.57-5.89-7.5-5.88a1.74,1.74,0,0,0-2,1.85A3.6,3.6,0,0,0,6,170.92l-1.81,1.84A5.92,5.92,0,0,1,2,168.08a4.31,4.31,0,0,1,4.43-4.65c2.3,0,4.76,2.13,7,4.25a21.18,21.18,0,0,1-.2-2.32v-2.6H16l0,9.8Z"/><path class="cls-2" d="M13.28,160.31v-3l-7.67,0v2.6H3.52a9.94,9.94,0,0,0-1.31-3.49V154l11.06,0v-2.54H16l0,8.93Z"/><path class="cls-2" d="M288.34,12H283v3.28h-2.4V12h-7.14V9.75H276V6.15l-.58.64a15.24,15.24,0,0,0-2-1.52A12.05,12.05,0,0,0,276.62,0L279,.61c-.13.37-.28.75-.44,1.12h8.82V4H283V5.6h4V7.76h-4v2h5.32ZM277.45,4a14.36,14.36,0,0,1-1.07,1.63h4.24V4Zm3.17,5.78v-2H278.3v2Z"/><path class="cls-2" d="M301,8.68a15.34,15.34,0,0,0,5.28,3.84,10.66,10.66,0,0,0-1.76,2.08,16.77,16.77,0,0,1-4.74-4.13v4.8h-2.48V10.6a16.87,16.87,0,0,1-4.74,4.11,13.06,13.06,0,0,0-1.72-2.06,16.23,16.23,0,0,0,5.36-4h-4V6.39h5.07V4.69H291.5V2.37h5.76V.06h2.48V2.37h5.89V4.69h-5.89v1.7h5.2V8.68Z"/><path class="cls-2" d="M323.54,12h-5.32v3.28h-2.4V12h-7.14V9.75h2.49V6.15l-.58.64a15.24,15.24,0,0,0-2-1.52A12.05,12.05,0,0,0,311.82,0l2.39.61c-.13.37-.28.75-.44,1.12h8.82V4h-4.37V5.6h4V7.76h-4v2h5.32ZM312.65,4a14.36,14.36,0,0,1-1.07,1.63h4.24V4Zm3.17,5.78v-2H313.5v2Z"/><path class="cls-2" d="M332.56,5.54a20.12,20.12,0,0,1-1.09,5,9.94,9.94,0,0,1,1.66,1.65L331.74,14a11.23,11.23,0,0,0-1.29-1.44,8.93,8.93,0,0,1-2.79,2.75,9.21,9.21,0,0,0-1.39-1.86,6.14,6.14,0,0,0,2.45-2.4l-.6-.48-.12.48-1.88-1c.37-1.28.77-3,1.16-4.75h-1V3.19h1.44c.21-1.09.4-2.15.56-3.14l2.18.24c-.17.93-.37,1.9-.59,2.9H331l.4,0,1.37.22c0,.64-.08,1.25-.14,1.84l1.25-.06A32.14,32.14,0,0,0,335.12.05l2.59.46c-.48,1.54-1,3.17-1.6,4.52l2.16-.13c-.27-.48-.56-1-.85-1.39l1.84-.93A17.42,17.42,0,0,1,341.63,7l-2,1.06a8.8,8.8,0,0,0-.37-1.09c-2.29.19-4.69.37-6.5.5Zm-3.16-.21c-.24,1.07-.47,2.13-.72,3.12.31.21.63.42.95.66a18.37,18.37,0,0,0,.8-3.78Zm4.12,3.11h7.23v6.77h-2.3v-.52h-2.74v.58h-2.19Zm2.19,2.09V12.6h2.74V10.53Z"/><path class="cls-2" d="M352.16,14.65l-1.47-2.31a11.16,11.16,0,0,0,1.57-.29,4,4,0,0,0,3.39-4,3.7,3.7,0,0,0-2.85-4,31.89,31.89,0,0,1-.95,4.18c-.94,3.2-2.38,5.34-4.27,5.34s-3.49-2.14-3.49-4.88a7.3,7.3,0,0,1,7.56-7,6.28,6.28,0,0,1,6.66,6.45C358.31,11.48,356.32,13.94,352.16,14.65Zm-4.52-4.1c.65,0,1.13-1,1.7-2.84a23.47,23.47,0,0,0,.82-3.6,4.78,4.78,0,0,0-3.56,4.33C346.6,9.83,347.09,10.55,347.64,10.55Z"/><path class="cls-2" d="M367.55,2.18c0,.27,0,.54-.05.81a19.44,19.44,0,0,0,2.77-.54l.05,2.4c-.88.19-1.9.35-2.88.46,0,.34,0,.68,0,1V7a13.83,13.83,0,0,1,2.82-.33c2.53,0,4.63,1.29,4.63,3.66,0,1.88-.87,3.41-3.61,4.1a19.35,19.35,0,0,1-2.17.29l-.88-2.51a11.65,11.65,0,0,0,2-.12c1.23-.21,2.13-.8,2.13-1.77s-.8-1.52-2.13-1.52a11.31,11.31,0,0,0-2.74.35c0,1.2.06,2.32.06,2.81,0,2.26-.8,2.82-1.95,2.82-1.73,0-4-1.41-4-3.25,0-1.44,1.6-2.94,3.62-3.82,0-.42,0-.84,0-1.25V5.51h-.69a19.19,19.19,0,0,1-2.33-.08l-.05-2.34a17.65,17.65,0,0,0,2.3.12c.24,0,.5,0,.77,0v-1c0-.33-.06-1.26-.11-1.57h2.66A15.67,15.67,0,0,0,367.55,2.18Zm-2.74,9.9c.24,0,.47-.06.47-.62,0-.3,0-.85,0-1.5-.8.44-1.28,1-1.28,1.42S364.51,12.08,364.81,12.08Zm11.34-7.53-1.16,2a29.31,29.31,0,0,0-4-2.28l1-1.89A38.17,38.17,0,0,1,376.15,4.55Z"/><path class="cls-2" d="M383.26,8.53a2.65,2.65,0,0,1-.06.42c.85.86,2.51,2.77,2.93,3.28l-1.57,2c-.51-.83-1.28-1.92-2-2.87a8.41,8.41,0,0,1-2.87,3.89A9.22,9.22,0,0,0,378,13.46a7.16,7.16,0,0,0,2.88-4.93H378.3V6.34h2.79V4.18h-.31a11.42,11.42,0,0,1-1,1.92,15,15,0,0,0-1.86-1.35A11.46,11.46,0,0,0,379.61.08l2.23.45c-.1.49-.21,1-.35,1.5h4V4.18h-2.08V6.34h2.43V8.53Zm9.33-7.09V14.55h-2.37V13.7H388.5v1.11h-2.26V1.44Zm-2.37,10.08V3.62H388.5v7.9Z"/><path class="cls-2" d="M399.45,7.4a8.07,8.07,0,0,1,4.44-1.3c3,0,4.64,1.87,4.64,3.84,0,3-2.19,5.38-9.24,4.77l-.75-2.54c4.68.68,7.25-.33,7.25-2.28,0-.91-.86-1.58-2.14-1.58a5.4,5.4,0,0,0-4.15,1.74,4.18,4.18,0,0,0-.65,1l-2.23-.54a57.65,57.65,0,0,0,.8-6.8l2.61.35A25.16,25.16,0,0,0,399.45,7.4Zm6.74-5.48-.57,2.39c-1.68-.23-5.3-1-6.57-1.32l.61-2.32A50,50,0,0,0,406.19,1.92Z"/><path class="cls-2" d="M422.79,2.58c0,.56,0,1,0,1.45.31,0,.61,0,.88-.06l1.7-.13V6.19c-.3,0-1.28,0-1.71,0l-.91,0a27.65,27.65,0,0,1-.24,3.13c-.2.92-.63,1.13-1.49,1.13-.56,0-2-.16-2.58-.25l.05-2.13a10.07,10.07,0,0,0,1.41.19c.27,0,.4-.05.43-.34a14.74,14.74,0,0,0,.09-1.55c-1.28.11-2.68.26-3.92.38,0,1.37,0,2.74,0,3.45,0,1.48.23,1.69,2.42,1.69a30.27,30.27,0,0,0,4.8-.43l-.09,2.66a45,45,0,0,1-4.52.25c-4.38,0-5-.88-5-3.77,0-.69,0-2.15,0-3.59l-.72.08c-.51.06-1.68.24-2.09.31L410.94,5c.43,0,1.25,0,2.19-.13l.88-.08V3.55a15,15,0,0,0-.14-2h2.74a12.86,12.86,0,0,0-.12,1.87c0,.27,0,.69,0,1.17l3.94-.35V2.69a15,15,0,0,0-.13-1.62h2.61A13.34,13.34,0,0,0,422.79,2.58Z"/><path d="M63,89.06v5H60.33V91.41H45.78V94H43.25v-5h2.84a18.78,18.78,0,0,0-1.54-2.26l2.4-1a15,15,0,0,1,2.07,3l-.75.33h3.59a19.84,19.84,0,0,0-1.51-2.86l2.42-.82a15.6,15.6,0,0,1,1.76,3.08l-1.62.6h3.81a17.2,17.2,0,0,0,2.07-3.51l3,.93c-.67.88-1.37,1.81-2,2.58Zm-8.77,9.19c-.19.51-.39,1-.6,1.42h7.7v7.56H58.58v-.76H47.67v.76H45V99.67h5.84c.12-.46.26-1,.35-1.42H47v-5.7H59.14v5.7ZM58.58,102H47.67v2H58.58Zm-9-5.81h6.91V94.6H49.55Z"/><path d="M79.9,101.88a20.84,20.84,0,0,0,7.38,2.54,13,13,0,0,0-1.86,2.51A19.92,19.92,0,0,1,77.6,103v4.19H74.88v-4a22.09,22.09,0,0,1-7.8,3.77,12.22,12.22,0,0,0-1.77-2.31,24.4,24.4,0,0,0,7.36-2.72H66V99.6h8.89v-1h-6.7v-2h6.7v-1H67V93.37h4.42a10.12,10.12,0,0,0-.79-1.82l.28,0H66.06V89.25h3.12a21.68,21.68,0,0,0-1.45-2.89l2.38-.81a18.06,18.06,0,0,1,1.77,3.28l-1.14.42h2.11v-3.8h2.59v3.8h1.72v-3.8h2.6v3.8h2.07L81,89a18.17,18.17,0,0,0,1.46-3.37l2.91.69c-.65,1.08-1.28,2.12-1.81,2.94h3V91.5H82.21c-.38.68-.75,1.31-1.1,1.87h4.56v2.16H77.6v1h7v2h-7v1h9.05v2.28ZM73.57,91.5a13.23,13.23,0,0,1,.8,1.8l-.4.07h4.35c.28-.56.56-1.24.82-1.87Z"/><path d="M159.86,89.06v5h-2.68V91.41H142.64V94H140.1v-5h2.84a19.93,19.93,0,0,0-1.53-2.26l2.39-1a14.57,14.57,0,0,1,2.07,3l-.74.33h3.58a18,18,0,0,0-1.51-2.86l2.42-.82a15.67,15.67,0,0,1,1.77,3.08l-1.63.6h3.82a17.67,17.67,0,0,0,2.07-3.51l3,.93c-.68.88-1.38,1.81-2,2.58Zm-8.77,9.19c-.19.51-.4,1-.61,1.42h7.71v7.56h-2.75v-.76H144.53v.76H141.9V99.67h5.84c.11-.46.25-1,.35-1.42h-4.24v-5.7H156v5.7Zm4.35,3.79H144.53v2h10.91Zm-9-5.81h6.91V94.6h-6.91Z"/><path d="M176.76,101.88a20.84,20.84,0,0,0,7.38,2.54,12.56,12.56,0,0,0-1.86,2.51,19.85,19.85,0,0,1-7.82-3.93v4.19h-2.73v-4a22,22,0,0,1-7.79,3.77,13.12,13.12,0,0,0-1.77-2.31,24.24,24.24,0,0,0,7.35-2.72h-6.68V99.6h8.89v-1H165v-2h6.7v-1h-7.86V93.37h4.42a10.88,10.88,0,0,0-.79-1.82l.28,0h-4.87V89.25H166a20.46,20.46,0,0,0-1.44-2.89l2.37-.81a16.9,16.9,0,0,1,1.77,3.28l-1.14.42h2.12v-3.8h2.58v3.8H174v-3.8h2.61v3.8h2.07l-.84-.26a18.91,18.91,0,0,0,1.47-3.37l2.91.69c-.65,1.08-1.28,2.12-1.82,2.94h3V91.5h-4.38c-.37.68-.74,1.31-1.09,1.87h4.56v2.16h-8.07v1h7v2h-7v1h9v2.28ZM170.43,91.5a12,12,0,0,1,.79,1.8l-.39.07h4.35c.28-.56.56-1.24.81-1.87Z"/><path d="M256.72,89.06v5H254V91.41H239.5V94H237v-5h2.84a18.78,18.78,0,0,0-1.54-2.26l2.4-1a14.57,14.57,0,0,1,2.07,3l-.74.33h3.58a18,18,0,0,0-1.51-2.86l2.42-.82a16.19,16.19,0,0,1,1.77,3.08l-1.63.6h3.82a18.16,18.16,0,0,0,2.07-3.51l3,.93c-.67.88-1.37,1.81-2,2.58ZM248,98.25c-.19.51-.4,1-.61,1.42H255v7.56H252.3v-.76H241.38v.76h-2.63V99.67h5.84c.12-.46.26-1,.35-1.42h-4.23v-5.7h12.15v5.7ZM252.3,102H241.38v2H252.3Zm-9-5.81h6.91V94.6h-6.91Z"/><path d="M273.62,101.88a20.79,20.79,0,0,0,7.37,2.54,13.38,13.38,0,0,0-1.86,2.51,19.92,19.92,0,0,1-7.82-3.93v4.19h-2.72v-4a22,22,0,0,1-7.79,3.77A13.12,13.12,0,0,0,259,104.6a24.34,24.34,0,0,0,7.35-2.72H259.7V99.6h8.89v-1h-6.7v-2h6.7v-1h-7.86V93.37h4.42a10.88,10.88,0,0,0-.79-1.82l.28,0h-4.87V89.25h3.12a21.59,21.59,0,0,0-1.44-2.89l2.37-.81a17.46,17.46,0,0,1,1.77,3.28l-1.14.42h2.12v-3.8h2.58v3.8h1.72v-3.8h2.61v3.8h2.07l-.84-.26a18.91,18.91,0,0,0,1.47-3.37l2.91.69c-.66,1.08-1.28,2.12-1.82,2.94h3V91.5h-4.38c-.37.68-.74,1.31-1.09,1.87h4.56v2.16h-8.08v1h7v2h-7v1h9.06v2.28ZM267.29,91.5a13.07,13.07,0,0,1,.79,1.8l-.4.07H272c.28-.56.56-1.24.82-1.87Z"/><path d="M353.57,89.06v5H350.9V91.41H336.35V94h-2.53v-5h2.84a18.78,18.78,0,0,0-1.54-2.26l2.4-1a15.41,15.41,0,0,1,2.07,3l-.75.33h3.59a19,19,0,0,0-1.52-2.86l2.42-.82a15.19,15.19,0,0,1,1.77,3.08l-1.63.6h3.82a17.67,17.67,0,0,0,2.07-3.51l3,.93c-.68.88-1.37,1.81-2,2.58Zm-8.77,9.19c-.19.51-.39,1-.6,1.42h7.7v7.56h-2.75v-.76H338.24v.76h-2.63V99.67h5.84c.12-.46.26-1,.35-1.42h-4.24v-5.7h12.15v5.7Zm4.35,3.79H338.24v2h10.91Zm-9-5.81H347V94.6h-6.91Z"/><path d="M370.47,101.88a20.84,20.84,0,0,0,7.38,2.54,13,13,0,0,0-1.86,2.51,19.92,19.92,0,0,1-7.82-3.93v4.19h-2.72v-4a22.09,22.09,0,0,1-7.8,3.77,12.66,12.66,0,0,0-1.77-2.31,24.4,24.4,0,0,0,7.36-2.72h-6.68V99.6h8.89v-1h-6.71v-2h6.71v-1h-7.87V93.37H362a10.12,10.12,0,0,0-.79-1.82l.28,0h-4.86V89.25h3.11a20.46,20.46,0,0,0-1.44-2.89l2.38-.81a18.06,18.06,0,0,1,1.77,3.28l-1.15.42h2.12v-3.8H366v3.8h1.73v-3.8h2.6v3.8h2.07l-.83-.26A18.87,18.87,0,0,0,373,85.62l2.91.69c-.65,1.08-1.28,2.12-1.81,2.94h3V91.5h-4.37c-.38.68-.75,1.31-1.1,1.87h4.56v2.16h-8.07v1h7v2h-7v1h9.05v2.28ZM364.14,91.5a12,12,0,0,1,.79,1.8l-.39.07h4.35c.28-.56.56-1.24.81-1.87Z"/><path d="M644.14,89.06v5h-2.67V91.41H626.92V94h-2.53v-5h2.84a18.78,18.78,0,0,0-1.54-2.26l2.4-1a15,15,0,0,1,2.07,3l-.75.33H633a19.84,19.84,0,0,0-1.51-2.86l2.42-.82a15.6,15.6,0,0,1,1.76,3.08l-1.63.6h3.82a17.2,17.2,0,0,0,2.07-3.51l3,.93c-.67.88-1.37,1.81-2,2.58Zm-8.77,9.19c-.19.51-.39,1-.6,1.42h7.7v7.56h-2.75v-.76H628.81v.76h-2.63V99.67H632c.12-.46.26-1,.35-1.42h-4.24v-5.7h12.15v5.7Zm4.35,3.79H628.81v2h10.91Zm-9-5.81h6.91V94.6h-6.91Z"/><path d="M661,101.88a20.84,20.84,0,0,0,7.38,2.54,13,13,0,0,0-1.86,2.51,19.92,19.92,0,0,1-7.82-3.93v4.19H656v-4a22.09,22.09,0,0,1-7.8,3.77,12.66,12.66,0,0,0-1.77-2.31,24.4,24.4,0,0,0,7.36-2.72h-6.68V99.6H656v-1h-6.7v-2H656v-1h-7.87V93.37h4.42a10.12,10.12,0,0,0-.79-1.82l.28,0H647.2V89.25h3.12a21.68,21.68,0,0,0-1.45-2.89l2.38-.81A18.06,18.06,0,0,1,653,88.83l-1.15.42H654v-3.8h2.58v3.8h1.73v-3.8h2.6v3.8H663l-.83-.26a18.17,18.17,0,0,0,1.46-3.37l2.91.69c-.65,1.08-1.28,2.12-1.81,2.94h3V91.5h-4.37c-.38.68-.75,1.31-1.1,1.87h4.56v2.16h-8.07v1h7v2h-7v1h9v2.28ZM654.71,91.5a12,12,0,0,1,.79,1.8l-.39.07h4.35c.28-.56.56-1.24.82-1.87Z"/><path d="M63,184.26v5H60.33v-2.6H45.78v2.6H43.25v-5h2.84A17.31,17.31,0,0,0,44.55,182L47,181a15.32,15.32,0,0,1,2.07,3l-.75.33h3.59a20.46,20.46,0,0,0-1.51-2.87l2.42-.81a15.54,15.54,0,0,1,1.76,3.07l-1.62.61h3.81a17,17,0,0,0,2.07-3.52l3,.93c-.67.89-1.37,1.82-2,2.59Zm-8.77,9.19c-.19.51-.39,1-.6,1.42h7.7v7.56H58.58v-.77H47.67v.77H45v-7.56h5.84c.12-.47.26-1,.35-1.42H47v-5.7H59.14v5.7Zm4.35,3.79H47.67v2H58.58Zm-9-5.82h6.91v-1.63H49.55Z"/><path d="M79.9,197.08a20.64,20.64,0,0,0,7.38,2.53,13,13,0,0,0-1.86,2.52,19.81,19.81,0,0,1-7.82-3.94v4.19H74.88v-4a22.09,22.09,0,0,1-7.8,3.77,12.49,12.49,0,0,0-1.77-2.3,24.4,24.4,0,0,0,7.36-2.72H66V194.8h8.89v-1h-6.7v-2h6.7v-1H67v-2.17h4.42a10,10,0,0,0-.79-1.81l.28-.05H66.06v-2.26h3.12a21.58,21.58,0,0,0-1.45-2.88l2.38-.82A18.4,18.4,0,0,1,71.88,184l-1.14.42h2.11v-3.79h2.59v3.79h1.72v-3.79h2.6v3.79h2.07l-.83-.25a18.26,18.26,0,0,0,1.46-3.38l2.91.7c-.65,1.07-1.28,2.12-1.81,2.93h3v2.26H82.21c-.38.67-.75,1.3-1.1,1.86h4.56v2.17H77.6v1h7v2h-7v1h9.05v2.28ZM73.57,186.7a12.63,12.63,0,0,1,.8,1.79l-.4.07h4.35c.28-.56.56-1.23.82-1.86Z"/><path d="M159.86,184.26v5h-2.68v-2.6H142.64v2.6H140.1v-5h2.84a18.29,18.29,0,0,0-1.53-2.26L143.8,181a14.9,14.9,0,0,1,2.07,3l-.74.33h3.58a18.55,18.55,0,0,0-1.51-2.87l2.42-.81a15.62,15.62,0,0,1,1.77,3.07l-1.63.61h3.82a17.46,17.46,0,0,0,2.07-3.52l3,.93c-.68.89-1.38,1.82-2,2.59Zm-8.77,9.19c-.19.51-.4,1-.61,1.42h7.71v7.56h-2.75v-.77H144.53v.77H141.9v-7.56h5.84c.11-.47.25-1,.35-1.42h-4.24v-5.7H156v5.7Zm4.35,3.79H144.53v2h10.91Zm-9-5.82h6.91v-1.63h-6.91Z"/><path d="M176.76,197.08a20.64,20.64,0,0,0,7.38,2.53,12.62,12.62,0,0,0-1.86,2.52,19.74,19.74,0,0,1-7.82-3.94v4.19h-2.73v-4a22,22,0,0,1-7.79,3.77,13.43,13.43,0,0,0-1.77-2.3,24.24,24.24,0,0,0,7.35-2.72h-6.68V194.8h8.89v-1H165v-2h6.7v-1h-7.86v-2.17h4.42a10.78,10.78,0,0,0-.79-1.81l.28-.05h-4.87v-2.26H166a20.36,20.36,0,0,0-1.44-2.88l2.37-.82a17.2,17.2,0,0,1,1.77,3.28l-1.14.42h2.12v-3.79h2.58v3.79H174v-3.79h2.61v3.79h2.07l-.84-.25a19,19,0,0,0,1.47-3.38l2.91.7c-.65,1.07-1.28,2.12-1.82,2.93h3v2.26h-4.38c-.37.67-.74,1.3-1.09,1.86h4.56v2.17h-8.07v1h7v2h-7v1h9v2.28Zm-6.33-10.38a11.46,11.46,0,0,1,.79,1.79l-.39.07h4.35c.28-.56.56-1.23.81-1.86Z"/><path d="M256.72,184.26v5H254v-2.6H239.5v2.6H237v-5h2.84a17.31,17.31,0,0,0-1.54-2.26l2.4-1.05a14.9,14.9,0,0,1,2.07,3l-.74.33h3.58a19.46,19.46,0,0,0-1.51-2.87l2.42-.81a16.14,16.14,0,0,1,1.77,3.07l-1.63.61h3.81a17,17,0,0,0,2.07-3.52l3,.93c-.67.89-1.37,1.82-2,2.59Zm-8.78,9.19a14.43,14.43,0,0,1-.6,1.42H255v7.56H252.3v-.77H241.38v.77h-2.63v-7.56h5.84c.12-.47.26-1,.35-1.42h-4.23v-5.7h12.14v5.7Zm4.36,3.79H241.38v2H252.3Zm-9-5.82h6.91v-1.63h-6.91Z"/><path d="M273.62,197.08a20.52,20.52,0,0,0,7.37,2.53,13,13,0,0,0-1.86,2.52,19.81,19.81,0,0,1-7.82-3.94v4.19h-2.72v-4a22,22,0,0,1-7.8,3.77,12.88,12.88,0,0,0-1.76-2.3,24.34,24.34,0,0,0,7.35-2.72H259.7V194.8h8.89v-1h-6.7v-2h6.7v-1h-7.87v-2.17h4.43a10.78,10.78,0,0,0-.79-1.81l.27-.05h-4.86v-2.26h3.12a21.49,21.49,0,0,0-1.44-2.88l2.37-.82a18.4,18.4,0,0,1,1.77,3.28l-1.14.42h2.12v-3.79h2.58v3.79h1.72v-3.79h2.61v3.79h2.07l-.84-.25a19,19,0,0,0,1.47-3.38l2.9.7c-.65,1.07-1.28,2.12-1.81,2.93h3v2.26h-4.37c-.37.67-.74,1.3-1.09,1.86h4.56v2.17h-8.08v1h7v2h-7v1h9.05v2.28Zm-6.33-10.38a13.71,13.71,0,0,1,.79,1.79l-.4.07H272c.28-.56.56-1.23.82-1.86Z"/><path d="M547.29,184.26v5h-2.68v-2.6H530.07v2.6h-2.54v-5h2.84a17.31,17.31,0,0,0-1.54-2.26l2.4-1.05a14.9,14.9,0,0,1,2.07,3l-.74.33h3.58a19.46,19.46,0,0,0-1.51-2.87l2.42-.81a16.14,16.14,0,0,1,1.77,3.07l-1.63.61H541a17,17,0,0,0,2.07-3.52l3,.93c-.67.89-1.37,1.82-2,2.59Zm-8.78,9.19a14.43,14.43,0,0,1-.6,1.42h7.7v7.56h-2.74v-.77H532v.77h-2.63v-7.56h5.84c.12-.47.26-1,.35-1.42h-4.23v-5.7h12.14v5.7Zm4.36,3.79H532v2h10.92Zm-9-5.82h6.91v-1.63h-6.91Z"/><path d="M564.19,197.08a20.52,20.52,0,0,0,7.37,2.53,13,13,0,0,0-1.86,2.52,19.81,19.81,0,0,1-7.82-3.94v4.19h-2.72v-4a22.09,22.09,0,0,1-7.8,3.77,12.88,12.88,0,0,0-1.76-2.3,24.34,24.34,0,0,0,7.35-2.72h-6.68V194.8h8.89v-1h-6.7v-2h6.7v-1h-7.87v-2.17h4.43a10.07,10.07,0,0,0-.8-1.81l.28-.05h-4.86v-2.26h3.12a21.49,21.49,0,0,0-1.44-2.88l2.37-.82a18.4,18.4,0,0,1,1.77,3.28l-1.14.42h2.11v-3.79h2.59v3.79h1.72v-3.79h2.61v3.79h2.07l-.84-.25a18.26,18.26,0,0,0,1.46-3.38l2.91.7c-.65,1.07-1.28,2.12-1.81,2.93h3v2.26h-4.37c-.37.67-.75,1.3-1.09,1.86H570v2.17h-8.08v1h7v2h-7v1h9v2.28Zm-6.33-10.38a13.71,13.71,0,0,1,.79,1.79l-.4.07h4.35c.28-.56.56-1.23.82-1.86Z"/><path d="M644.14,184.26v5h-2.67v-2.6H626.92v2.6h-2.53v-5h2.84a17.31,17.31,0,0,0-1.54-2.26l2.4-1.05a15.32,15.32,0,0,1,2.07,3l-.75.33H633a20.46,20.46,0,0,0-1.51-2.87l2.42-.81a15.54,15.54,0,0,1,1.76,3.07l-1.63.61h3.82a17,17,0,0,0,2.07-3.52l3,.93c-.67.89-1.37,1.82-2,2.59Zm-8.77,9.19c-.19.51-.39,1-.6,1.42h7.7v7.56h-2.75v-.77H628.81v.77h-2.63v-7.56H632c.12-.47.26-1,.35-1.42h-4.24v-5.7h12.15v5.7Zm4.35,3.79H628.81v2h10.91Zm-9-5.82h6.91v-1.63h-6.91Z"/><path d="M661,197.08a20.64,20.64,0,0,0,7.38,2.53,13,13,0,0,0-1.86,2.52,19.81,19.81,0,0,1-7.82-3.94v4.19H656v-4a22.09,22.09,0,0,1-7.8,3.77,12.94,12.94,0,0,0-1.77-2.3,24.4,24.4,0,0,0,7.36-2.72h-6.68V194.8H656v-1h-6.7v-2H656v-1h-7.87v-2.17h4.42a10,10,0,0,0-.79-1.81l.28-.05H647.2v-2.26h3.12a21.58,21.58,0,0,0-1.45-2.88l2.38-.82A18.4,18.4,0,0,1,653,184l-1.15.42H654v-3.79h2.58v3.79h1.73v-3.79h2.6v3.79H663l-.83-.25a18.26,18.26,0,0,0,1.46-3.38l2.91.7c-.65,1.07-1.28,2.12-1.81,2.93h3v2.26h-4.37c-.38.67-.75,1.3-1.1,1.86h4.56v2.17h-8.07v1h7v2h-7v1h9v2.28Zm-6.33-10.38a11.46,11.46,0,0,1,.79,1.79l-.39.07h4.35c.28-.56.56-1.23.82-1.86Z"/></svg>