<svg width="447" height="113" viewBox="0 0 447 113" fill="none" xmlns="http://www.w3.org/2000/svg">
<path d="M35.722 100.332H40.496V95.9081H41.56V100.332H46.278V108.508H45.256V107.962H35.638V106.982H45.256V104.574H36.38V103.608H45.256V101.312H35.722V100.332ZM45.41 96.5101L46.32 96.9301C45.872 97.9101 45.284 98.8481 44.556 99.7581L43.646 99.2821C44.374 98.3581 44.962 97.4341 45.41 96.5101ZM36.716 96.6361C37.486 97.6021 38.074 98.4561 38.494 99.1841L37.64 99.7721C37.206 98.9881 36.618 98.1201 35.862 97.1681L36.716 96.6361ZM55.322 98.7081H56.344V100.374H60.964V101.326H56.344V103.37H60.026V108.592H59.032V107.892H53.124V108.592H52.13V103.37H55.322V98.7081ZM53.124 106.94H59.032V104.308H53.124V106.94ZM55.406 95.6981C55.63 96.1181 55.854 96.6081 56.078 97.1401H61.23V98.1201H50.912V101.186C50.87 104.238 50.366 106.688 49.386 108.536L48.63 107.864C49.456 106.268 49.89 104.042 49.918 101.186V97.1401H55.056C54.846 96.6781 54.608 96.2581 54.356 95.8661L55.406 95.6981ZM73.48 99.2681C74.096 99.8701 74.6 100.5 74.992 101.144L74.39 101.578C73.97 100.878 73.48 100.248 72.934 99.7021L73.48 99.2681ZM72.136 100.206C72.738 100.794 73.242 101.424 73.648 102.11L73.046 102.53C72.626 101.83 72.136 101.214 71.576 100.654L72.136 100.206ZM74.516 97.2661L74.544 98.2041L72.024 98.3161C71.604 98.3161 71.058 98.5681 70.414 99.0721C69.714 99.6041 69.126 100.234 68.664 100.962C68.118 101.802 67.852 102.656 67.852 103.51C67.852 104.49 68.272 105.274 69.126 105.848C70.036 106.436 71.366 106.758 73.13 106.814L72.934 107.78C70.89 107.752 69.336 107.36 68.286 106.604C67.278 105.89 66.774 104.882 66.774 103.58C66.774 102.46 67.138 101.396 67.88 100.416C68.482 99.5761 69.252 98.8901 70.204 98.3581C68.132 98.5261 65.864 98.7221 63.428 98.9741L63.288 97.9801C67.768 97.5461 71.506 97.3081 74.516 97.2661ZM88.908 98.5961L88.922 99.6041C88.222 99.7021 87.438 99.7721 86.556 99.8281C86.64 101.704 86.682 103.188 86.696 104.266C87.564 104.714 88.46 105.372 89.37 106.212L88.74 106.982C87.928 106.254 87.242 105.708 86.654 105.344C86.57 105.932 86.374 106.422 86.066 106.828C85.562 107.458 84.792 107.78 83.784 107.78C82.986 107.78 82.342 107.612 81.838 107.304C81.25 106.926 80.956 106.38 80.956 105.666C80.956 104.966 81.208 104.42 81.74 104.028C82.244 103.636 82.888 103.454 83.686 103.454C84.316 103.454 84.96 103.566 85.618 103.79C85.604 102.852 85.562 101.55 85.492 99.8701C84.89 99.8841 84.26 99.8981 83.602 99.8981C82.58 99.8981 81.67 99.8701 80.872 99.8281L80.858 98.8061C81.754 98.8621 82.678 98.8901 83.602 98.8901C84.246 98.8901 84.862 98.8761 85.45 98.8621L85.324 96.3561L86.388 96.3421C86.43 97.2241 86.472 98.0501 86.514 98.8201C87.41 98.7641 88.208 98.6941 88.908 98.5961ZM85.618 104.826C84.974 104.546 84.33 104.42 83.686 104.42C83.182 104.42 82.776 104.518 82.496 104.742C82.188 104.966 82.034 105.274 82.034 105.666C82.034 106.086 82.23 106.394 82.636 106.59C82.916 106.73 83.308 106.8 83.784 106.8C84.428 106.8 84.918 106.576 85.226 106.142C85.45 105.806 85.59 105.372 85.618 104.826ZM78.436 96.4401L79.486 96.6081C79.066 98.4981 78.87 100.64 78.87 103.034C78.87 104.742 79.122 106.226 79.64 107.5L78.674 107.85C78.1 106.506 77.82 104.91 77.82 103.034C77.82 100.626 78.016 98.4281 78.436 96.4401ZM90.882 101.088H92.492V97.6021H90.7V96.6361H95.292V97.6021H93.528V101.088H95.054V102.068H93.528V105.47C94.144 105.232 94.732 104.966 95.32 104.672V105.652C93.948 106.296 92.464 106.842 90.896 107.29L90.658 106.324C91.274 106.184 91.89 106.03 92.492 105.834V102.068H90.882V101.088ZM95.992 96.2861H102.348V104.014H100.752V106.982C100.752 107.234 100.85 107.388 101.074 107.416H101.788C102.082 107.388 102.264 107.22 102.32 106.898C102.376 106.506 102.418 105.89 102.418 105.05L103.3 105.386C103.3 106.716 103.202 107.542 103.02 107.85C102.838 108.144 102.446 108.312 101.844 108.34H101.06C100.22 108.34 99.8 107.948 99.8 107.178V104.014H98.54C98.4 106.072 97.392 107.57 95.488 108.508L94.956 107.668C96.58 106.926 97.448 105.708 97.588 104.014H95.992V96.2861ZM101.382 103.16V101.648H96.972V103.16H101.382ZM96.972 100.836H101.382V99.3801H96.972V100.836ZM96.972 98.5681H101.382V97.1541H96.972V98.5681ZM107.332 99.7721C106.66 100.178 105.96 100.556 105.232 100.892L104.644 100.052C107.08 98.9601 109.068 97.5741 110.608 95.8801H111.42C112.764 97.5461 114.738 98.9181 117.342 100.01L116.768 100.85C116.026 100.542 115.34 100.192 114.696 99.8141V100.584H111.518V102.6H116.502V103.538H111.518V107.276H113.072C113.548 106.366 113.968 105.386 114.332 104.336L115.256 104.658C114.906 105.638 114.514 106.52 114.094 107.276H116.992V108.242H105.022V107.276H107.92C107.626 106.38 107.248 105.554 106.8 104.77L107.71 104.434C108.144 105.218 108.536 106.17 108.9 107.276H110.51V103.538H105.512V102.6H110.51V100.584H107.332V99.7721ZM114.458 99.6741C113.086 98.8621 111.938 97.9101 111.014 96.8321C109.964 97.9241 108.788 98.8761 107.486 99.6741H114.458ZM123.278 97.2941C124.552 98.7641 125.532 100.052 126.204 101.144L125.35 101.732C124.636 100.556 123.67 99.2541 122.438 97.8121L123.278 97.2941ZM128.094 104.154C127.17 105.848 125.686 107.29 123.642 108.466L122.97 107.64C125.35 106.268 126.932 104.56 127.702 102.488C128.29 100.738 128.584 98.5121 128.598 95.8101H129.648C129.648 98.4701 129.354 100.71 128.766 102.558C128.696 102.768 128.626 102.978 128.542 103.188C129.69 104.644 130.656 106.1 131.44 107.556L130.67 108.326C130.012 107.01 129.158 105.624 128.094 104.154ZM119.806 107.01L119.47 106.058C119.722 105.862 119.848 105.61 119.848 105.288V96.1741H120.884V105.526C121.976 105.078 123.054 104.532 124.132 103.888L124.412 104.868C122.984 105.694 121.444 106.408 119.806 107.01ZM140.904 95.7961H141.94V100.024C143.102 100.878 144.278 101.844 145.482 102.922L144.866 103.846C143.718 102.698 142.752 101.788 141.94 101.144V108.592H140.904V95.7961ZM135.248 101.354C136.032 101.774 136.746 102.264 137.39 102.824C138.034 101.592 138.468 100.22 138.678 98.7221H135.906C135.234 100.318 134.324 101.62 133.204 102.656L132.518 101.802C134.114 100.318 135.206 98.3021 135.766 95.7821L136.774 95.9501C136.634 96.5801 136.466 97.1821 136.27 97.7561H139.672V98.6381C139.196 102.88 137.152 106.086 133.512 108.256L132.826 107.402C134.576 106.394 135.948 105.134 136.928 103.622C136.2 103.006 135.458 102.502 134.716 102.138L135.248 101.354ZM158.222 97.9521L158.18 98.9881C155.786 98.9881 153.56 99.0581 151.488 99.2121L151.32 98.2041C153.602 98.0361 155.898 97.9521 158.222 97.9521ZM152.006 102.39L152.986 102.894C152.482 103.692 152.23 104.35 152.23 104.868C152.23 105.358 152.538 105.722 153.154 105.96C153.714 106.17 154.596 106.282 155.786 106.282C156.626 106.282 157.592 106.212 158.684 106.1L158.74 107.15C157.466 107.248 156.486 107.304 155.786 107.304C154.204 107.304 153.042 107.122 152.314 106.758C151.53 106.38 151.138 105.764 151.138 104.91C151.138 104.238 151.418 103.398 152.006 102.39ZM148.856 96.4261L149.892 96.6781C149.36 98.6801 149.108 100.682 149.108 102.698C149.108 104.546 149.374 106.156 149.92 107.514L148.926 107.892C148.338 106.408 148.044 104.672 148.044 102.698C148.044 100.626 148.31 98.5261 148.856 96.4261ZM165.824 95.7681H166.86V100.094H172.054V101.074H166.86V107.066H173.244V108.046H160.784V107.066H165.824V95.7681ZM187.342 104.7C187.23 106.156 187.034 107.108 186.768 107.542C186.516 107.976 185.998 108.2 185.228 108.2H181.882C181.126 108.2 180.748 107.808 180.748 107.024V100.934H185.354V97.3221H180.356V96.3421H186.348V101.914H181.742V106.646C181.742 107.01 181.924 107.206 182.288 107.22H185.06C185.564 107.22 185.886 107.024 186.04 106.632C186.18 106.254 186.278 105.498 186.334 104.364L187.342 104.7ZM176.044 107.724V108.606H175.078V103.664H179.474V108.382H178.508V107.724H176.044ZM178.508 106.8V104.574H176.044V106.8H178.508ZM174.658 97.6021H176.94C176.716 97.0421 176.45 96.4961 176.142 95.9921L177.108 95.7261C177.43 96.3421 177.682 96.9161 177.864 97.4201L177.374 97.6021H179.852V98.5401H174.658V97.6021ZM175.19 99.6461H179.348V100.542H175.19V99.6461ZM175.19 101.578H179.348V102.488H175.19V101.578ZM195.308 97.4061C196.876 97.4061 198.178 97.8821 199.228 98.8621C200.236 99.8141 200.754 100.99 200.754 102.39C200.754 103.958 200.278 105.176 199.354 106.072C198.514 106.884 197.198 107.472 195.42 107.836L195.07 106.884C196.736 106.562 197.94 106.016 198.682 105.26C199.354 104.56 199.704 103.594 199.704 102.39C199.704 101.214 199.27 100.262 198.402 99.5061C197.618 98.8201 196.694 98.4421 195.63 98.3861L195.336 100.99C195.126 102.432 194.832 103.608 194.454 104.518C193.838 106.086 193.012 106.87 192.004 106.87C191.192 106.87 190.52 106.506 190.002 105.778C189.498 105.078 189.26 104.21 189.26 103.202C189.26 101.634 189.792 100.304 190.856 99.1981C191.99 97.9941 193.474 97.4061 195.308 97.4061ZM192.004 105.904C192.816 105.904 193.488 104.77 194.006 102.516C194.286 101.27 194.496 99.8981 194.608 98.4141C193.502 98.5261 192.55 98.9741 191.766 99.7301C190.786 100.654 190.31 101.816 190.31 103.202C190.31 103.986 190.478 104.63 190.814 105.148C191.122 105.652 191.528 105.904 192.004 105.904ZM203.708 95.9781C204.66 96.6221 205.472 97.2801 206.13 97.9241L205.444 98.6101C204.856 97.9941 204.044 97.3361 203.008 96.6361L203.708 95.9781ZM203.386 99.2961C204.31 99.9681 205.08 100.626 205.71 101.284L205.024 101.97C204.464 101.34 203.68 100.668 202.686 99.9681L203.386 99.2961ZM205.094 103.16L205.976 103.51C205.276 105.26 204.492 106.912 203.624 108.452L202.672 108.046C203.61 106.45 204.422 104.826 205.094 103.16ZM207.012 97.8681H209.826V95.7821H210.82V97.8681H214.012V101.984H215.258V102.936H211.1C211.996 104.952 213.452 106.562 215.468 107.78L214.796 108.55C212.752 107.164 211.282 105.414 210.372 103.3C209.686 105.736 208.258 107.514 206.088 108.634L205.458 107.808C207.53 106.814 208.86 105.19 209.462 102.936H206.438V101.984H209.658C209.77 101.34 209.826 100.668 209.826 99.9401V98.8341H207.012V97.8681ZM210.82 98.8341V99.7161C210.82 100.528 210.764 101.284 210.652 101.984H213.032V98.8341H210.82ZM217.568 96.0061C218.492 96.6781 219.276 97.3361 219.906 97.9941L219.206 98.7081C218.632 98.0641 217.848 97.3921 216.854 96.6921L217.568 96.0061ZM217.498 99.2961C218.394 100.01 219.136 100.724 219.752 101.438L219.052 102.138C218.492 101.466 217.736 100.738 216.784 99.9821L217.498 99.2961ZM218.954 103.062L219.836 103.412C219.248 105.204 218.576 106.884 217.834 108.452L216.91 108.046C217.694 106.422 218.38 104.756 218.954 103.062ZM220.424 96.9301H224.274C224.134 96.5381 223.994 96.1881 223.826 95.8661L224.848 95.6981C224.988 96.0621 225.128 96.4681 225.268 96.9301H229.104V97.8541H227.606C227.102 98.8201 226.402 99.6321 225.492 100.29C226.542 100.766 227.872 101.046 229.482 101.116L229.16 102.026C227.326 101.914 225.814 101.508 224.61 100.836C223.49 101.438 222.146 101.872 220.564 102.124L220.172 101.214C221.572 101.018 222.776 100.71 223.756 100.276C222.958 99.6601 222.3 98.8481 221.782 97.8541H220.424V96.9301ZM222.762 97.8541C223.182 98.5961 223.812 99.2541 224.638 99.8141C225.478 99.2821 226.108 98.6241 226.542 97.8541H222.762ZM222.664 104.042C222.636 104.518 222.58 104.98 222.482 105.428H226.906V104.042H222.664ZM222.202 106.31C221.88 107.15 221.39 107.92 220.732 108.634L219.962 107.962C221.11 106.744 221.698 105.358 221.698 103.79V102.222H222.664V103.16H226.906V102.292H227.872V108.592H226.906V106.31H222.202ZM230.91 97.8401H236.944C236.664 97.2241 236.328 96.6221 235.922 96.0621L236.874 95.7121C237.266 96.3001 237.63 97.0141 237.966 97.8401H243.202V98.8061H235.824L235.698 101.298V101.326H241.508C241.48 104.098 241.368 105.876 241.186 106.66C240.906 107.85 240.22 108.466 239.114 108.508C238.666 108.508 238.12 108.48 237.504 108.452L237.196 107.542C237.924 107.57 238.526 107.584 239.016 107.584C239.73 107.556 240.164 107.052 240.332 106.072C240.416 105.484 240.458 104.21 240.486 102.278H235.586C235.404 103.412 235.054 104.434 234.55 105.358C233.864 106.562 232.912 107.654 231.68 108.648L230.952 107.948C232.436 106.688 233.43 105.526 233.92 104.448C234.396 103.37 234.662 102.166 234.732 100.836C234.774 99.9541 234.802 99.2821 234.816 98.8061H230.91V97.8401ZM252.148 95.7681H253.184V98.0221H256.782V99.0021H253.184V101.62H257.16V102.6H252.568C251.672 104.742 250.888 106.254 250.216 107.136C251.938 106.954 253.66 106.688 255.396 106.352C254.99 105.512 254.57 104.742 254.15 104.042L255.116 103.72C255.956 105.12 256.698 106.632 257.328 108.228L256.376 108.648C256.18 108.158 255.998 107.696 255.802 107.248C253.688 107.64 251.392 107.962 248.914 108.2L248.676 107.318C248.76 107.29 248.83 107.248 248.886 107.22C249.544 106.646 250.412 105.106 251.476 102.6H248.158V101.62H252.148V99.0021H248.83V98.0221H252.148V95.7681ZM245.792 95.9921C246.702 96.6781 247.472 97.3641 248.088 98.0641L247.374 98.7921C246.814 98.1201 246.058 97.4201 245.078 96.6781L245.792 95.9921ZM245.456 99.2681C246.296 99.9541 246.996 100.654 247.57 101.354L246.842 102.068C246.338 101.41 245.638 100.71 244.742 99.9541L245.456 99.2681ZM247.066 103.146L247.976 103.51C247.374 105.274 246.702 106.94 245.96 108.494L244.952 108.06C245.764 106.464 246.478 104.826 247.066 103.146ZM268.738 97.9801L268.724 98.9461C267.338 99.0021 265.728 99.0301 263.894 99.0581C263.81 99.8421 263.74 100.57 263.684 101.214C265.14 101.172 266.68 101.116 268.304 101.046V102.04C266.694 102.124 265.126 102.18 263.6 102.222C263.516 103.216 263.488 104 263.488 104.574C263.488 105.344 263.726 105.918 264.202 106.296C264.636 106.632 265.322 106.814 266.246 106.814C267.114 106.814 267.828 106.702 268.388 106.506C269.2 106.226 269.606 105.75 269.606 105.078C269.606 104.574 269.368 103.874 268.892 103.006L269.872 102.558C270.404 103.636 270.67 104.49 270.67 105.12C270.67 106.912 269.186 107.808 266.246 107.808C264.986 107.808 264.034 107.556 263.404 107.052C262.746 106.52 262.424 105.694 262.424 104.574C262.424 103.986 262.452 103.216 262.522 102.25C261.458 102.264 260.408 102.278 259.4 102.278V101.284C260.408 101.284 261.486 101.27 262.606 101.242C262.662 100.584 262.732 99.8561 262.816 99.0721C261.808 99.0721 260.744 99.0861 259.624 99.0861V98.1201C260.786 98.1201 261.878 98.1061 262.914 98.1061L263.152 96.0061H264.23L263.992 98.0921C265.798 98.0641 267.38 98.0361 268.738 97.9801ZM284.404 95.2641C285.02 95.8661 285.524 96.4961 285.916 97.1541L285.314 97.5881C284.894 96.8881 284.404 96.2581 283.858 95.7121L284.404 95.2641ZM283.144 96.0901C283.732 96.6781 284.236 97.3081 284.642 97.9941L284.054 98.4141C283.634 97.7141 283.144 97.0981 282.584 96.5381L283.144 96.0901ZM274.968 97.5321C276.144 97.7561 277.53 97.8681 279.126 97.8681C280.61 97.8681 281.898 97.8121 282.99 97.7001L283.368 98.5821C282.458 99.1001 281.352 99.8421 280.036 100.822L279.434 100.024C280.092 99.5761 280.82 99.1281 281.604 98.6941C280.932 98.7781 280.106 98.8341 279.126 98.8341C277.432 98.8341 276.004 98.7221 274.828 98.5121L274.968 97.5321ZM275.64 102.362L276.466 103.006C275.598 103.944 275.178 104.644 275.178 105.106C275.178 106.212 276.55 106.772 279.294 106.772C280.932 106.772 282.458 106.632 283.858 106.366L284.026 107.36C282.612 107.626 281.03 107.766 279.294 107.766C275.822 107.766 274.1 106.898 274.1 105.162C274.1 104.392 274.604 103.454 275.64 102.362ZM290.788 97.1961H294.456V95.7681H295.478V97.1961H299.328V98.1621H295.478V99.4921H298.754V103.454H295.422C295.31 104.714 295.072 105.68 294.694 106.38C296.094 107.15 297.718 107.584 299.552 107.682L299.3 108.648C297.34 108.522 295.618 108.032 294.134 107.164C293.378 107.934 292.188 108.438 290.564 108.676L290.13 107.752C291.558 107.598 292.608 107.206 293.252 106.59C292.426 106.002 291.684 105.288 291.04 104.462L291.81 103.93C292.412 104.686 293.084 105.316 293.826 105.848C294.12 105.232 294.316 104.434 294.4 103.454H291.264V99.4921H294.456V98.1621H290.788V97.1961ZM297.802 102.544V100.388H295.478V102.208C295.478 102.32 295.464 102.432 295.464 102.544H297.802ZM294.442 102.544C294.442 102.432 294.456 102.32 294.456 102.208V100.388H292.216V102.544H294.442ZM288.226 100.822C287.778 101.452 287.302 102.054 286.77 102.628L286.434 101.564C287.89 99.8561 288.94 97.8961 289.584 95.6841L290.536 96.1181C290.186 97.2101 289.752 98.2461 289.234 99.2121V108.634H288.226V100.822ZM302.982 100.654V103.104H306.538V100.654H302.982ZM302.926 104.028C302.772 105.82 302.254 107.304 301.358 108.48L300.588 107.794C301.484 106.548 301.946 104.966 301.974 103.048V96.3281H312.404V106.814C312.404 107.794 311.914 108.284 310.934 108.284H309.324L309.058 107.29C309.618 107.318 310.136 107.346 310.612 107.346C311.116 107.346 311.382 107.052 311.382 106.464V104.028H307.574V108.13H306.538V104.028H302.926ZM311.382 103.104V100.654H307.574V103.104H311.382ZM311.382 99.7161V97.3081H307.574V99.7161H311.382ZM306.538 97.3081H302.982V99.7161H306.538V97.3081ZM317.262 96.4541H318.368V104.28C318.368 105.988 319.278 106.842 321.112 106.842C323.156 106.842 324.724 105.33 325.844 102.32L326.88 102.712C326.32 104.196 325.676 105.358 324.92 106.184C323.884 107.318 322.61 107.892 321.112 107.892C318.536 107.892 317.262 106.73 317.262 104.42V96.4541ZM340.516 97.2661L340.544 98.2041L338.024 98.3161C337.604 98.3161 337.058 98.5681 336.414 99.0721C335.714 99.6041 335.126 100.234 334.664 100.962C334.118 101.802 333.852 102.656 333.852 103.51C333.852 104.49 334.272 105.274 335.126 105.848C336.036 106.436 337.366 106.758 339.13 106.814L338.934 107.78C336.89 107.752 335.336 107.36 334.286 106.604C333.278 105.89 332.774 104.882 332.774 103.58C332.774 102.46 333.138 101.396 333.88 100.416C334.482 99.5761 335.252 98.8901 336.204 98.3581C334.132 98.5261 331.864 98.7221 329.428 98.9741L329.288 97.9801C333.768 97.5461 337.506 97.3081 340.516 97.2661ZM344.646 108.382H343.176L342.966 107.43C343.442 107.472 343.89 107.5 344.31 107.5C344.702 107.5 344.898 107.276 344.898 106.828V97.5041H342.742V96.5801H347.642V97.5041H345.878V107.066C345.878 107.934 345.458 108.382 344.646 108.382ZM348.566 98.5541H350.736C350.904 98.1341 351.03 97.6861 351.114 97.2241H348.09V96.3001H355.076V97.2241H352.08C351.968 97.7001 351.842 98.1341 351.688 98.5541H354.628V105.932H348.566V98.5541ZM353.648 105.064V103.734H349.546V105.064H353.648ZM349.546 102.894H353.648V101.564H349.546V102.894ZM349.546 100.738H353.648V99.4221H349.546V100.738ZM350.19 106.072L350.862 106.66C350.106 107.402 349.168 108.06 348.062 108.62L347.516 107.92C348.58 107.388 349.462 106.772 350.19 106.072ZM352.85 106.03C353.9 106.688 354.782 107.346 355.496 107.99L354.852 108.634C354.208 108.004 353.34 107.332 352.22 106.632L352.85 106.03ZM366.192 96.3841C366.304 97.5461 366.402 98.5681 366.472 99.4501C367.368 99.3941 368.222 99.3101 369.048 99.1981L369.062 100.206C368.25 100.304 367.41 100.388 366.542 100.458C366.584 101.13 366.612 101.69 366.612 102.138C366.612 103.622 366.444 104.798 366.108 105.652C365.632 106.8 364.764 107.682 363.504 108.326L362.846 107.458C363.91 106.926 364.652 106.184 365.058 105.232C365.366 104.504 365.52 103.468 365.52 102.152C365.52 101.676 365.492 101.13 365.464 100.514C364.806 100.542 364.134 100.556 363.434 100.556C362.538 100.556 361.628 100.528 360.69 100.5L360.676 99.4781C361.628 99.5201 362.552 99.5481 363.434 99.5481C364.106 99.5481 364.75 99.5341 365.394 99.5061C365.324 98.6241 365.226 97.6161 365.114 96.4961L366.192 96.3841ZM358.142 96.5241L359.206 96.6921C358.8 98.5961 358.604 100.696 358.604 103.02C358.604 104.686 358.856 106.142 359.374 107.374L358.38 107.738C357.806 106.422 357.526 104.84 357.526 103.02C357.526 100.64 357.722 98.4701 358.142 96.5241ZM382.236 97.8261V98.7921C380.682 98.8481 379.184 98.8901 377.742 98.9181C377.756 99.6461 377.77 100.304 377.798 100.906C379.17 100.892 380.556 100.864 381.956 100.822V101.788C380.612 101.816 379.24 101.83 377.826 101.844C377.854 102.81 377.868 103.58 377.868 104.154C378.162 104.266 378.456 104.378 378.764 104.518C379.968 105.036 381.13 105.736 382.25 106.618L381.606 107.416C380.556 106.59 379.506 105.932 378.442 105.428C378.232 105.33 378.022 105.246 377.826 105.162C377.742 105.89 377.532 106.478 377.196 106.912C376.692 107.542 375.894 107.864 374.802 107.864C374.018 107.864 373.36 107.682 372.856 107.346C372.282 106.968 372.002 106.436 372.002 105.75C372.002 105.05 372.282 104.518 372.87 104.126C373.374 103.762 374.018 103.594 374.83 103.594C375.46 103.594 376.118 103.678 376.804 103.846L376.762 101.858H375.404C374.774 101.858 373.822 101.844 372.562 101.816L372.17 101.802V100.85C372.45 100.85 372.87 100.864 373.43 100.878C374.186 100.906 374.844 100.92 375.39 100.92H376.748C376.72 100.318 376.706 99.6601 376.692 98.9321H375.586C374.928 98.9321 374.214 98.9181 373.444 98.9181L371.988 98.8761L371.974 97.9241L373.444 97.9661C374.2 97.9801 374.914 97.9941 375.586 97.9941H376.664L376.608 96.1461L377.644 96.1181C377.672 96.7621 377.686 97.3921 377.714 97.9801C379.058 97.9521 380.57 97.8961 382.236 97.8261ZM376.818 104.798C376.118 104.602 375.46 104.504 374.83 104.504C374.326 104.504 373.906 104.602 373.57 104.826C373.206 105.05 373.024 105.358 373.024 105.75C373.024 106.128 373.192 106.422 373.556 106.632C373.864 106.828 374.284 106.926 374.802 106.926C375.516 106.926 376.048 106.702 376.384 106.282C376.65 105.932 376.79 105.442 376.818 104.798ZM392.008 96.0481H393.016L393.058 97.9521L396.936 97.8961V98.8341L393.072 98.8901V99.0021C393.1 100.948 393.128 102.138 393.128 102.572C393.128 104.168 392.806 105.358 392.162 106.156C391.56 106.884 390.44 107.556 388.816 108.144L388.326 107.234C389.32 106.912 390.104 106.548 390.664 106.142C391.308 105.68 391.756 105.078 392.008 104.322C391.588 104.91 391.042 105.204 390.37 105.204C389.502 105.204 388.83 104.938 388.326 104.42C387.85 103.916 387.626 103.3 387.626 102.572C387.626 101.872 387.85 101.27 388.312 100.766C388.816 100.206 389.502 99.9261 390.37 99.9261C391.182 99.9261 391.784 100.248 392.176 100.892C392.12 100.444 392.078 99.9121 392.078 99.2681L392.064 98.9041L385.218 99.0021V98.0641L392.05 97.9661L392.008 96.0481ZM390.37 100.836C389.81 100.836 389.376 101.018 389.054 101.396C388.746 101.718 388.606 102.11 388.606 102.572C388.606 103.062 388.76 103.468 389.068 103.776C389.376 104.098 389.81 104.266 390.37 104.266C390.874 104.266 391.308 104.098 391.644 103.762C391.952 103.426 392.12 103.034 392.12 102.614C392.12 102.11 391.952 101.69 391.63 101.354C391.294 101.004 390.874 100.836 390.37 100.836ZM401.5 105.218C402.004 105.218 402.424 105.386 402.788 105.722C403.138 106.058 403.32 106.478 403.32 106.982C403.32 107.472 403.138 107.892 402.788 108.228C402.424 108.564 402.004 108.732 401.5 108.732C400.996 108.732 400.562 108.564 400.212 108.242C399.848 107.906 399.68 107.486 399.68 106.982C399.68 106.478 399.848 106.058 400.212 105.722C400.562 105.386 400.996 105.218 401.5 105.218ZM401.5 105.946C401.206 105.946 400.954 106.044 400.758 106.254C400.534 106.45 400.436 106.688 400.436 106.982C400.436 107.262 400.534 107.5 400.758 107.696C400.954 107.892 401.206 108.004 401.5 108.004C401.78 108.004 402.032 107.892 402.242 107.696C402.452 107.5 402.564 107.262 402.564 106.982C402.564 106.688 402.452 106.45 402.242 106.254C402.032 106.044 401.78 105.946 401.5 105.946Z" fill="white"/>
<path opacity="0.88" d="M383.021 51.1597C384.883 50.6267 386.738 50.0027 388.637 49.5917C389.559 49.3917 389.812 49.0477 389.809 48.1487C389.78 38.0267 389.78 27.9057 389.809 17.7857C389.809 16.8047 389.509 16.5007 388.553 16.2947C386.687 15.8947 384.88 15.2667 383.044 14.7377C383.481 12.7727 383.577 12.7247 385.104 13.2687C390.013 14.8551 395.193 15.4333 400.331 14.9687C405.3 14.6307 409.943 12.9447 414.747 11.9537C421.486 10.5837 428.164 10.6827 434.554 13.5297C441.44 16.6187 445.528 21.9297 446.534 29.4697C447.243 34.8027 446.6 39.9227 443.717 44.5697C440.36 49.9837 435.244 52.8037 429.169 54.0817C422.939 55.2696 416.509 54.8581 410.481 52.8857C405.23 51.213 399.712 50.5414 394.214 50.9057C391.151 51.2678 388.119 51.8534 385.142 52.6577C383.539 53.0367 383.561 53.1757 383.021 51.1597ZM399.96 32.9597C399.96 37.8077 400 42.6597 399.931 47.5037C399.931 48.6037 400.353 48.8807 401.294 49.0607C404.706 49.7067 408.125 50.3317 411.501 51.1357C415.716 52.3103 420.09 52.8165 424.462 52.6357C429.868 52.2467 433.225 49.3307 434.951 44.3497C435.933 41.2459 436.412 38.0049 436.369 34.7497C436.428 30.5587 436.424 26.3717 435.197 22.3097C433.823 17.7697 431.197 14.4647 426.283 13.4947C422.177 12.8505 417.981 13.0846 413.972 14.1817C409.682 15.1697 405.492 16.6167 401.051 16.8817C400.166 16.9327 399.951 17.4327 399.951 18.2887C399.981 23.1847 399.96 28.0687 399.96 32.9577V32.9597ZM372.279 53.1027C366.085 50.6911 359.209 50.7029 353.023 53.1357C352.843 52.7977 352.685 52.5407 352.568 52.2687C352.451 51.9967 352.401 51.7617 352.239 51.2477C353.708 50.8177 355.111 50.3407 356.551 50.0097C357.374 49.8227 357.679 49.5217 357.671 48.6327C357.632 42.2667 357.632 35.9104 357.671 29.5637C357.671 28.7077 357.344 28.4357 356.606 28.2527C355.163 27.8857 353.741 27.4527 352.199 27.0037L352.934 25.1037C357.742 26.7967 362.568 27.6037 367.698 26.2037C367.746 26.8317 367.816 27.3037 367.816 27.7827C367.816 34.6397 367.838 41.5007 367.816 48.3497C367.816 49.3597 368 49.9217 369.123 50.0497C370.001 50.2029 370.862 50.4417 371.694 50.7627C373.273 51.3067 373.336 51.5447 372.279 53.1027ZM362.666 21.7457C361.882 21.7511 361.104 21.5999 360.379 21.301C359.654 21.0021 358.995 20.5614 358.443 20.0049C357.89 19.4483 357.454 18.7871 357.16 18.0598C356.866 17.3326 356.72 16.554 356.731 15.7697C356.739 14.1861 357.367 12.6687 358.481 11.5427C359.594 10.4167 361.105 9.7716 362.688 9.74573C364.271 9.78037 365.778 10.4316 366.887 11.5607C367.997 12.6898 368.623 14.2075 368.63 15.7907C368.637 16.5753 368.487 17.3534 368.189 18.0794C367.892 18.8055 367.452 19.4649 366.897 20.0193C366.342 20.5737 365.682 21.0119 364.955 21.3084C364.229 21.6048 363.451 21.7535 362.666 21.7457ZM258.015 5.58373C258.073 4.25928 258.583 2.99476 259.461 2.00074C260.338 1.00673 261.529 0.343222 262.836 0.120729C263.294 0.046087 263.758 0.0092961 264.222 0.0107286H292.174C293.018 -0.0399526 293.864 0.0893306 294.654 0.390016C295.445 0.690701 296.163 1.15593 296.76 1.75488C297.357 2.35383 297.82 3.07284 298.119 3.86428C298.417 4.65573 298.544 5.50155 298.491 6.34573V34.4897C298.51 35.8989 298.024 37.2683 297.122 38.3512C296.22 39.4341 294.961 40.1591 293.572 40.3957C293.203 40.4568 292.828 40.4835 292.454 40.4757H269.015C268.815 40.4757 268.621 40.4557 268.315 40.4417C268.525 39.5267 268.715 38.6527 268.925 37.7897C269.254 36.4147 269.634 35.0477 269.911 33.6617C270.041 33.0087 270.347 32.8387 270.969 32.7937C274.326 32.5932 277.654 32.0521 280.902 31.1787C283.671 30.5333 286.244 29.2298 288.402 27.3787C289.565 26.3785 290.482 25.1237 291.082 23.7117C291.682 22.2997 291.949 20.7684 291.861 19.2367C291.673 17.1421 290.73 15.1873 289.207 13.7367C286.823 11.3771 283.919 9.60941 280.728 8.57573C276.665 7.1105 272.417 6.22513 268.107 5.94573C264.934 5.72173 261.745 5.72173 258.563 5.61673C258.38 5.61484 258.197 5.60383 258.015 5.58373ZM249.866 55.6577V60.1707H247.031C247.031 59.9467 247 59.7367 247 59.5227V47.7797C247 46.8137 247.161 46.6397 248.1 46.6487C249.647 46.6617 251.2 46.6177 252.74 46.7337C255.352 46.9257 256.989 48.4777 257.089 50.7077C257.141 51.8594 256.755 52.988 256.008 53.8661C255.261 54.7442 254.209 55.3066 253.064 55.4397C252.039 55.6087 250.995 55.5867 249.866 55.6577ZM249.893 54.2377C250.649 54.2377 251.335 54.2957 252.008 54.2267C252.767 54.1025 253.459 53.7198 253.967 53.1435C254.476 52.5672 254.77 51.8328 254.799 51.0647C254.838 50.3733 254.623 49.6915 254.194 49.1473C253.766 48.6031 253.154 48.2338 252.473 48.1087C251.615 48.0308 250.752 48.0225 249.893 48.0837V54.2377ZM283.005 55.5887V60.1887H280.205C280.192 59.9647 280.169 59.7547 280.169 59.5427V47.7217C280.169 46.8277 280.321 46.6487 281.191 46.6547C282.756 46.6547 284.337 46.6207 285.9 46.7377C288.447 46.9257 290.129 48.4727 290.238 50.5857C290.322 51.7494 289.957 52.901 289.218 53.8036C288.479 54.7062 287.421 55.2911 286.264 55.4377C285.497 55.538 284.725 55.5887 283.952 55.5897C283.676 55.5997 283.39 55.5887 283.005 55.5887ZM283.018 48.0817V52.4337C283.018 54.3727 283.018 54.3727 284.963 54.2557C285.749 54.1743 286.481 53.8168 287.028 53.2469C287.576 52.6769 287.903 51.9314 287.953 51.1427C288.013 50.4409 287.81 49.742 287.383 49.1814C286.957 48.6208 286.337 48.2385 285.645 48.1087C284.772 48.0265 283.893 48.0175 283.018 48.0817ZM296.706 53.5427C296.833 53.2586 296.885 52.9462 296.855 52.6363C296.826 52.3263 296.716 52.0293 296.537 51.7743C296.359 51.5192 296.117 51.3149 295.836 51.1813C295.555 51.0476 295.244 50.9892 294.933 51.0117C294.469 50.9884 294.004 51.0064 293.544 51.0657C293.097 51.1127 292.679 51.2177 292.191 51.3077L291.936 50.5767C294.148 49.9867 296.279 49.7207 298.36 50.8117C298.726 50.9822 299.038 51.2511 299.26 51.5883C299.482 51.9256 299.607 52.318 299.619 52.7217C299.664 55.1817 299.635 57.6637 299.635 60.1217C298.313 60.4327 296.952 60.2697 296.746 59.8557C296.077 60.0789 295.391 60.2478 294.695 60.3607C294.233 60.4373 293.76 60.4123 293.309 60.2875C292.858 60.1627 292.439 59.941 292.083 59.6379C291.726 59.3348 291.439 58.9576 291.243 58.5326C291.047 58.1075 290.946 57.6448 290.947 57.1767C290.895 56.7011 290.943 56.2197 291.089 55.764C291.235 55.3083 291.476 54.8885 291.795 54.532C292.114 54.1754 292.505 53.8901 292.942 53.6947C293.378 53.4993 293.851 53.3981 294.33 53.3977C295.124 53.405 295.917 53.4534 296.706 53.5427ZM296.806 56.7667V55.9037C296.806 54.8347 296.632 54.6607 295.549 54.6607C295.415 54.6572 295.282 54.6639 295.149 54.6807C294.84 54.7137 294.541 54.8108 294.272 54.9658C294.002 55.1207 293.768 55.3302 293.584 55.5807C293.4 55.8321 293.271 56.119 293.205 56.4231C293.139 56.7272 293.137 57.0418 293.199 57.3467C293.241 57.638 293.343 57.9173 293.499 58.167C293.655 58.4167 293.861 58.6313 294.104 58.7972C294.347 58.9631 294.622 59.0766 294.911 59.1306C295.2 59.1845 295.497 59.1778 295.784 59.1107C295.938 59.1002 296.088 59.0576 296.225 58.9857C296.362 58.9138 296.482 58.8141 296.578 58.6931C296.674 58.572 296.744 58.4323 296.783 58.2827C296.822 58.1332 296.829 57.9772 296.804 57.8247L296.806 56.7667ZM266.487 60.2977C265.434 59.9977 264.387 60.6287 263.497 59.8727C262.855 60.09 262.196 60.2529 261.527 60.3597C261.065 60.4354 260.592 60.4091 260.141 60.2827C259.69 60.1563 259.272 59.9329 258.916 59.6281C258.561 59.3232 258.276 58.9444 258.083 58.518C257.889 58.0916 257.791 57.628 257.795 57.1597C257.744 56.6841 257.794 56.2031 257.941 55.748C258.089 55.2929 258.33 54.8739 258.65 54.5183C258.97 54.1627 259.361 53.8784 259.798 53.684C260.236 53.4895 260.709 53.3893 261.187 53.3897C261.972 53.3627 262.752 53.4837 263.553 53.5347C263.676 53.254 263.725 52.9468 263.696 52.6419C263.667 52.3369 263.562 52.0443 263.389 51.7914C263.216 51.5386 262.982 51.3338 262.708 51.1964C262.434 51.0589 262.13 50.9933 261.824 51.0057C261.361 50.9778 260.896 50.9935 260.435 51.0527C259.988 51.0997 259.529 51.2047 259.035 51.2937L258.776 50.5937C259.176 50.4817 259.543 50.3567 259.919 50.2827C261.391 49.9437 262.925 49.9916 264.373 50.4217C265.021 50.5625 265.594 50.9366 265.983 51.4726C266.373 52.0087 266.552 52.6693 266.486 53.3287V59.4957L266.487 60.2977ZM263.656 56.8297V55.7717C263.656 54.8777 263.549 54.7517 262.656 54.6807C262.437 54.6583 262.215 54.6583 261.996 54.6807C261.682 54.7114 261.378 54.8089 261.105 54.9665C260.831 55.1241 260.595 55.3383 260.411 55.5947C260.227 55.851 260.1 56.1437 260.038 56.4531C259.976 56.7624 259.982 57.0814 260.053 57.3887C260.098 57.6786 260.203 57.9559 260.362 58.2028C260.52 58.4498 260.729 58.6609 260.973 58.8228C261.218 58.9847 261.494 59.0937 261.783 59.143C262.072 59.1922 262.369 59.1805 262.653 59.1087C263.436 58.9007 263.653 58.6217 263.653 57.8137L263.656 56.8297ZM300.651 50.0667C301.592 50.0667 302.413 50.0357 303.225 50.0887C303.352 50.1174 303.472 50.1735 303.576 50.2531C303.679 50.3327 303.764 50.4339 303.825 50.5497C304.695 52.2407 305.531 53.9497 306.379 55.6497C306.479 55.8417 306.579 56.0277 306.757 56.3497C306.981 55.8687 307.137 55.4997 307.3 55.1287C307.944 53.6727 308.615 52.2217 309.212 50.7527C309.238 50.637 309.286 50.5276 309.354 50.4306C309.422 50.3337 309.509 50.2511 309.609 50.1878C309.709 50.1244 309.821 50.0814 309.938 50.0613C310.055 50.0413 310.174 50.0445 310.29 50.0707C310.652 50.0936 311.015 50.0936 311.377 50.0707C311.299 50.2947 311.256 50.4867 311.182 50.6547C309.617 54.2327 308.051 57.8217 306.453 61.3877C306.138 62.2329 305.524 62.9334 304.728 63.3571C303.932 63.7809 303.008 63.8985 302.131 63.6877V62.2877C302.232 62.2589 302.335 62.2418 302.44 62.2367C304.37 62.3577 304.777 61.1027 305.298 59.5937C305.358 59.4147 305.198 59.1357 305.092 58.9227C303.725 56.1947 302.353 53.4697 300.978 50.7477C300.879 50.5667 300.792 50.3737 300.651 50.0667ZM273.598 56.3507C274.414 54.4967 275.219 52.7997 275.903 51.0507C276.214 50.2617 276.625 49.9217 277.455 50.0647C277.712 50.0853 277.969 50.0853 278.226 50.0647C278.139 50.3177 278.094 50.4827 278.026 50.6367C276.461 54.1987 274.909 57.7657 273.326 61.3207C273.016 62.1811 272.401 62.8977 271.598 63.3343C270.794 63.7709 269.858 63.897 268.968 63.6887V62.2887C269.116 62.2707 269.259 62.2417 269.415 62.2377C270.124 62.2025 270.796 61.909 271.304 61.4125C271.812 60.9161 272.121 60.251 272.172 59.5427C272.145 59.3255 272.068 59.1175 271.948 58.9347C270.606 56.2514 269.254 53.5681 267.892 50.8847C267.776 50.6607 267.668 50.4177 267.492 50.0687C268.492 50.0687 269.392 50.0467 270.28 50.0887C270.425 50.0887 270.6 50.3567 270.689 50.5357C271.545 52.2307 272.389 53.9357 273.234 55.6357C273.341 55.8812 273.462 56.1199 273.598 56.3507Z" fill="white"/>
<path d="M270.872 27.943C272.08 22.943 273.272 17.986 274.49 12.934C275.782 13.158 277.041 13.366 278.29 13.634C281.214 14.1448 284.024 15.17 286.59 16.662C287.471 17.2126 288.265 17.891 288.947 18.675C289.25 18.995 289.487 19.3715 289.644 19.7831C289.802 20.1948 289.877 20.6334 289.864 21.0739C289.852 21.5144 289.753 21.9481 289.573 22.3504C289.393 22.7526 289.135 23.1154 288.815 23.418C287.863 24.4128 286.706 25.1875 285.423 25.688C282.27 26.991 278.919 27.7472 275.512 27.924C274.212 28.024 272.905 27.998 271.599 28.024C271.355 28.0101 271.113 27.9831 270.872 27.943ZM265.301 40.682C264.117 40.654 262.938 40.535 261.772 40.326C260.531 39.9929 259.435 39.258 258.656 38.2362C257.877 37.2143 257.458 35.9631 257.465 34.678C257.443 27.578 257.465 20.478 257.445 13.378C257.445 12.899 257.64 12.754 258.055 12.745C261.855 12.662 265.655 12.564 269.455 12.508C270.334 12.495 271.215 12.624 272.223 12.698L265.301 40.682ZM190.305 28.413C190.305 28.413 191.389 33.713 191.634 34.832H186.851L189.151 28.657C189.12 28.699 189.62 27.357 189.907 26.531L190.307 28.438L190.305 28.413ZM205.416 6.841V57.03C205.416 58.8449 204.696 60.5855 203.413 61.8694C202.13 63.1533 200.39 63.8754 198.575 63.877H130.123C128.308 63.8754 126.568 63.1533 125.285 61.8694C124.003 60.5855 123.282 58.8449 123.282 57.03V6.841C123.282 5.02665 124.003 3.28662 125.286 2.00368C126.569 0.720746 128.309 0 130.123 0L198.564 0C200.378 0 202.118 0.720746 203.401 2.00368C204.684 3.28662 205.405 5.02665 205.405 6.841H205.416ZM145.026 42.659L154.026 20.53H147.975L142.375 35.641L141.76 32.572L139.76 22.406C139.432 20.994 138.421 20.593 137.155 20.535H127.972L127.872 20.978C129.974 21.4985 131.99 22.3178 133.859 23.411L138.965 42.659H145.026ZM158.482 42.69L162.082 20.53H156.348L152.768 42.69H158.482ZM178.428 35.432C178.459 32.91 176.917 30.987 173.628 29.403C171.617 28.392 170.392 27.703 170.392 26.667C170.392 25.724 171.434 24.755 173.685 24.755C175.15 24.7157 176.606 25.0023 177.947 25.594L178.468 25.839L179.25 21.051C177.612 20.4226 175.872 20.1028 174.118 20.108C168.459 20.108 164.478 23.13 164.452 27.434C164.41 30.618 167.302 32.384 169.47 33.452C171.638 34.52 172.435 35.252 172.435 36.203C172.435 37.688 170.635 38.371 169.001 38.371C167.139 38.4212 165.293 38.0151 163.624 37.188L162.884 36.844L162.084 41.82C164.122 42.606 166.289 43.0062 168.473 43C174.486 43 178.41 40.035 178.451 35.439L178.428 35.432ZM198.564 42.68L193.942 20.53H189.508C188.875 20.4532 188.235 20.5932 187.691 20.9272C187.148 21.2612 186.734 21.7695 186.517 22.369L177.993 42.69H184.011C184.011 42.69 184.996 39.949 185.211 39.366H192.582C192.749 40.148 193.265 42.69 193.265 42.69L198.564 42.68ZM68.8131 53.765C68.7993 54.1337 68.6586 54.4864 68.4146 54.7632C68.1707 55.0401 67.8385 55.2241 67.4744 55.2841C67.1104 55.3441 66.7367 55.2764 66.4168 55.0925C66.0969 54.9087 65.8504 54.6199 65.719 54.275C65.5877 53.9302 65.5795 53.5506 65.696 53.2005C65.8124 52.8503 66.0463 52.5512 66.358 52.3538C66.6697 52.1563 67.0401 52.0727 67.4064 52.117C67.7727 52.1613 68.1125 52.3309 68.3681 52.597C68.5168 52.7519 68.6329 52.9351 68.7094 53.1357C68.7858 53.3364 68.8211 53.5504 68.8131 53.765ZM24.5241 52.108C24.1927 52.087 23.8626 52.166 23.5767 52.3348C23.2907 52.5036 23.0621 52.7544 22.9205 53.0548C22.7788 53.3551 22.7306 53.691 22.7822 54.0191C22.8338 54.3471 22.9827 54.652 23.2097 54.8944C23.4367 55.1368 23.7313 55.3053 24.0553 55.3782C24.3792 55.4511 24.7176 55.425 25.0265 55.3033C25.3355 55.1816 25.6007 54.9698 25.7879 54.6955C25.975 54.4213 26.0754 54.0971 26.0761 53.765C26.0884 53.5526 26.0575 53.3399 25.9854 53.1398C25.9132 52.9397 25.8012 52.7563 25.6561 52.6007C25.511 52.445 25.3359 52.3204 25.1414 52.2344C24.9468 52.1483 24.7368 52.1026 24.5241 52.1V52.108ZM41.2681 52.064C40.9253 52.0548 40.5924 52.1795 40.3398 52.4115C40.0873 52.6435 39.935 52.9646 39.9151 53.307H42.6371C42.62 52.9597 42.4665 52.6331 42.2099 52.3983C41.9534 52.1635 41.6146 52.0394 41.2671 52.053L41.2681 52.064ZM56.6311 52.108C56.3012 52.0966 55.9754 52.1841 55.6955 52.3591C55.4156 52.5342 55.1944 52.7888 55.0602 53.0904C54.926 53.392 54.8849 53.7268 54.9423 54.0519C54.9996 54.377 55.1528 54.6775 55.3821 54.915C55.6114 55.1525 55.9064 55.3161 56.2293 55.3847C56.5522 55.4534 56.8882 55.4241 57.1943 55.3006C57.5004 55.177 57.7627 54.9648 57.9474 54.6912C58.1321 54.4176 58.2309 54.0951 58.2311 53.765C58.2433 53.5485 58.2109 53.3318 58.1357 53.1284C58.0605 52.925 57.9442 52.7393 57.7941 52.5828C57.644 52.4263 57.4633 52.3024 57.2632 52.2188C57.0631 52.1352 56.8479 52.0938 56.6311 52.097V52.108ZM71.7181 55.83C71.7181 55.869 71.7621 55.896 71.7621 55.985C71.7621 56.074 71.7181 56.057 71.7181 56.14C71.6921 56.1774 71.6681 56.2161 71.6461 56.256C71.6292 56.2809 71.6059 56.3008 71.5786 56.3135C71.5513 56.3262 71.521 56.3312 71.4911 56.328C71.4471 56.372 71.4191 56.372 71.3361 56.372C71.2796 56.3734 71.2239 56.3581 71.1761 56.328C71.1371 56.328 71.1041 56.284 71.0661 56.256C71.0461 56.2433 71.0293 56.2263 71.0168 56.2062C71.0044 56.1862 70.9966 56.1635 70.9941 56.14C70.9626 56.0947 70.9471 56.0401 70.9501 55.985C70.9501 55.913 70.9501 55.869 70.9941 55.83C70.9983 55.7698 71.0239 55.7131 71.0661 55.67C71.1051 55.626 71.1381 55.626 71.1761 55.598C71.2245 55.5696 71.2801 55.5561 71.3361 55.559C71.3632 55.5545 71.391 55.5556 71.4177 55.5623C71.4443 55.5691 71.4693 55.5812 71.4911 55.598C71.5631 55.642 71.6071 55.642 71.6461 55.67C71.6851 55.698 71.6791 55.77 71.7181 55.819V55.83ZM71.4091 56.03C71.4751 56.03 71.4751 55.986 71.5191 55.986C71.5353 55.9717 71.5478 55.9537 71.5554 55.9334C71.5631 55.9132 71.5657 55.8915 71.5631 55.87C71.5657 55.8494 71.563 55.8285 71.5553 55.8093C71.5476 55.7901 71.5352 55.7731 71.5191 55.76C71.4751 55.76 71.4471 55.716 71.3641 55.716H71.1381V56.216H71.2481V56.016H71.2921L71.4471 56.216H71.5631L71.4091 56.03ZM82.0781 6.881V57.04C82.0781 58.8533 81.3578 60.5923 80.0756 61.8745C78.7934 63.1567 77.0544 63.877 75.2411 63.877H6.84209C5.94063 63.877 5.04806 63.6989 4.21566 63.3529C3.38326 63.0068 2.62745 62.4997 1.99165 61.8607C1.35585 61.2216 0.852603 60.4632 0.510826 59.6291C0.169048 58.7949 -0.00452184 57.9014 8.95289e-05 57V6.842C8.95289e-05 5.02739 0.720941 3.2871 2.00407 2.00398C3.28719 0.720852 5.02748 0 6.84209 0L75.2421 0C77.0558 0.00132545 78.7948 0.722762 80.0769 2.00574C81.3589 3.28872 82.0791 5.02825 82.0791 6.842L82.0781 6.881ZM9.11709 26.761C9.1192 30.3279 10.0884 33.8274 11.9215 36.8872C13.7546 39.9469 16.3831 42.4524 19.5271 44.1369C22.6711 45.8214 26.2131 46.6219 29.7759 46.4533C33.3388 46.2846 36.7893 45.153 39.7601 43.179C37.3316 41.186 35.3753 38.6793 34.0321 35.8394C32.6889 32.9995 31.9923 29.897 31.9923 26.7555C31.9923 23.614 32.6889 20.5115 34.0321 17.6716C35.3753 14.8317 37.3316 12.325 39.7601 10.332C36.7906 8.36017 33.3423 7.22981 29.7818 7.06109C26.2212 6.89236 22.6815 7.69158 19.5389 9.37378C16.3962 11.056 13.7681 13.5583 11.9339 16.6147C10.0998 19.6711 9.12805 23.1675 9.12209 26.732L9.11709 26.761ZM41.0421 42.234C43.3851 40.3875 45.2789 38.0338 46.5809 35.3499C47.883 32.6659 48.5595 29.7216 48.5595 26.7385C48.5595 23.7554 47.883 20.8111 46.5809 18.1271C45.2789 15.4432 43.3851 13.0895 41.0421 11.243C38.6981 13.0888 36.8034 15.4423 35.5006 18.1263C34.1978 20.8104 33.521 23.755 33.521 26.7385C33.521 29.722 34.1978 32.6666 35.5006 35.3507C36.8034 38.0347 38.6981 40.3882 41.0421 42.234ZM20.7641 53.108C20.7774 52.829 20.7322 52.5503 20.6313 52.2899C20.5304 52.0294 20.3761 51.793 20.1782 51.5958C19.9804 51.3986 19.7435 51.2451 19.4827 51.1451C19.2219 51.045 18.943 51.0007 18.6641 51.015C18.3055 50.9948 17.9479 51.0701 17.6279 51.2331C17.3078 51.3961 17.0367 51.6411 16.8421 51.943C16.6657 51.6431 16.4098 51.3977 16.1028 51.2339C15.7958 51.0702 15.4495 50.9944 15.1021 51.015C14.807 51.0096 14.5152 51.0768 14.2522 51.2107C13.9892 51.3447 13.7632 51.5412 13.5941 51.783V51.159H12.4251V56.389H13.6001C13.6001 53.694 13.2411 52.089 14.8811 52.089C16.3331 52.089 16.0521 53.541 16.0521 56.389H17.1521C17.1521 53.782 16.7991 52.089 18.4391 52.089C19.8911 52.089 19.6041 53.514 19.6041 56.389H20.7751V53.109L20.7641 53.108ZM27.1591 51.159H26.0591V51.783C25.8614 51.5352 25.6088 51.3368 25.3212 51.2035C25.0336 51.0702 24.7189 51.0057 24.4021 51.015C23.6698 51.015 22.9676 51.3059 22.4498 51.8237C21.932 52.3415 21.6411 53.0437 21.6411 53.776C21.6411 54.5083 21.932 55.2105 22.4498 55.7283C22.9676 56.2461 23.6698 56.537 24.4021 56.537C24.7198 56.5526 25.0366 56.4909 25.3252 56.3571C25.6138 56.2233 25.8656 56.0215 26.0591 55.769V56.421H27.1591V51.159ZM32.9291 54.8C32.9291 52.663 29.6651 53.635 29.6651 52.635C29.6651 51.823 31.3651 51.95 32.3051 52.48L32.7741 51.552C31.4321 50.685 28.4741 50.696 28.4741 52.723C28.4741 54.75 31.7381 53.905 31.7381 54.86C31.7381 55.815 29.8111 55.683 28.7841 54.97L28.2841 55.87C29.8841 56.97 32.9281 56.726 32.9281 54.799L32.9291 54.8ZM37.9761 56.125L37.6611 55.159C37.1091 55.459 35.9211 55.783 35.9211 54.574V52.213H37.7881V51.158H35.9221V49.558H34.7571V51.158H33.6861V52.2H34.7861V54.58C34.7861 57.087 37.2491 56.634 38.0051 56.132L37.9761 56.125ZM39.8701 54.22H43.7911C43.7911 51.912 42.7361 50.995 41.3111 50.995C40.9543 50.9895 40.6003 51.0585 40.2716 51.1975C39.943 51.3365 39.6469 51.5424 39.4023 51.8022C39.1576 52.062 38.9698 52.3699 38.8508 52.7063C38.7318 53.0427 38.6842 53.4002 38.7111 53.756C38.7111 56.677 41.9301 57.163 43.5261 55.783L42.9741 54.927C41.8741 55.827 40.1911 55.772 39.8651 54.22H39.8701ZM48.2911 51.155C47.918 50.9669 47.4877 50.9267 47.0862 51.0424C46.6847 51.1581 46.3418 51.4212 46.1261 51.779V51.155H44.9571V56.385H46.1281V53.439C46.0877 53.2105 46.115 52.9752 46.2068 52.7621C46.2985 52.549 46.4507 52.3675 46.6445 52.2398C46.8382 52.1122 47.0651 52.0441 47.2972 52.044C47.5292 52.0438 47.7562 52.1116 47.9501 52.239L48.2921 51.139L48.2911 51.155ZM49.8041 53.762C49.8041 52.138 51.4611 51.608 52.7531 52.562L53.3051 51.64C52.8945 51.2921 52.3934 51.0685 51.8603 50.9953C51.3272 50.922 50.7843 51.0023 50.2951 51.2265C49.806 51.4508 49.3909 51.8098 49.0985 52.2615C48.8061 52.7132 48.6484 53.2389 48.6441 53.777C48.6441 56.599 51.8361 57.168 53.3051 55.914L52.7531 54.986C51.4401 55.919 49.8051 55.361 49.8051 53.765L49.8041 53.762ZM59.3041 51.155H58.1391V51.779C56.9571 50.211 53.8811 51.094 53.8811 53.761C53.8811 56.428 57.0731 57.279 58.1391 55.743V56.4H59.3101L59.3041 51.155ZM64.1041 51.155C63.7288 50.9794 63.3026 50.9459 62.9045 51.0606C62.5064 51.1754 62.1634 51.4306 61.9391 51.779V51.155H60.8391V56.385H61.9391V53.439C61.9042 53.2119 61.9352 52.9796 62.0284 52.7696C62.1217 52.5596 62.2732 52.3808 62.4651 52.2545C62.657 52.1281 62.8811 52.0595 63.1108 52.0567C63.3406 52.054 63.5663 52.1172 63.7611 52.239L64.1031 51.139L64.1041 51.155ZM69.8471 49.029H68.7471V51.79C67.5821 50.238 64.4891 51.067 64.4891 53.772C64.4891 56.477 67.6971 57.279 68.7471 55.754V56.406H69.8471V49.029ZM70.9471 38.329V38.986H71.0631V38.33H71.3341V38.22H70.6771V38.33L70.9471 38.329ZM71.9001 56C71.9071 55.922 71.8918 55.8437 71.8561 55.774C71.8121 55.73 71.7841 55.658 71.7401 55.614C71.6961 55.57 71.6301 55.542 71.5851 55.504C71.5154 55.4684 71.4371 55.4532 71.3591 55.46C71.2934 55.4789 71.2266 55.4936 71.1591 55.504C71.1015 55.534 71.0478 55.571 70.9991 55.614C70.9698 55.6305 70.9446 55.6535 70.9256 55.6813C70.9065 55.709 70.894 55.7407 70.8891 55.774C70.8534 55.8437 70.8381 55.922 70.8451 56C70.8418 56.0694 70.857 56.1384 70.8891 56.2C70.8931 56.2329 70.9053 56.2643 70.9245 56.2914C70.9437 56.3185 70.9693 56.3403 70.9991 56.355C71.0442 56.4039 71.0986 56.4434 71.1591 56.471C71.2202 56.5045 71.2896 56.5198 71.3591 56.515C71.4371 56.522 71.5154 56.5067 71.5851 56.471C71.6291 56.427 71.7011 56.399 71.7401 56.355C71.7791 56.311 71.8121 56.245 71.8561 56.2C71.8856 56.1285 71.8932 56.0499 71.8781 55.974L71.9001 56ZM72.3421 38.2H72.1421L71.9161 38.7L71.6901 38.2H71.4901V38.973H71.6001V38.388L71.8261 38.888H71.9861L72.1861 38.388V38.973H72.3411L72.3421 38.2ZM72.9721 26.73C72.97 23.1625 72.0005 19.6624 70.1667 16.6023C68.333 13.5422 65.7037 11.0366 62.5589 9.3524C59.414 7.66818 55.8713 6.86832 52.3078 7.03801C48.7444 7.20769 45.2937 8.34056 42.3231 10.316C44.7504 12.3097 46.7057 14.8166 48.0481 17.6564C49.3906 20.4963 50.0869 23.5984 50.0869 26.7395C50.0869 29.8806 49.3906 32.9827 48.0481 35.8226C46.7057 38.6624 44.7504 41.1693 42.3231 43.163C45.2947 45.136 48.7456 46.2663 52.3086 46.4336C55.8716 46.601 59.4133 45.7991 62.5568 44.1133C65.7002 42.4276 68.3277 39.921 70.1597 36.8605C71.9916 33.7999 72.9594 30.2999 72.9601 26.733L72.9721 26.73Z" fill="white"/>
</svg>
