<svg xmlns="http://www.w3.org/2000/svg" width="574.984" height="111.206" viewBox="0 0 574.984 111.206"><defs><style>.a,.b{fill:#fff;}.a{font-size:14px;font-family:PingFangSC-Regular, PingFang SC;letter-spacing:0.1em;}</style></defs><g transform="translate(-396 -2270.794)"><text class="a" transform="translate(484 2377)"><tspan x="0" y="0">当店では現金以外に上記の決済方法もご使用して頂けます</tspan></text><path class="b" d="M-677.829-34.359a7.945,7.945,0,0,1-7.038,2.5,7.406,7.406,0,0,1-6.607-7.09c-.092-3.243,0-6.492-.029-9.738,0-.9.356-1.293,1.278-1.324,2.223-.078,2.324,0,2.324,2.183,0,2.763-.034,5.53,0,8.293.052,2.993,2.315,4.9,5.05,4.309a4,4,0,0,0,3.16-4c.034-2.6,0-5.208,0-7.814,0-1.545.247-1.761,1.861-1.767s1.841.2,1.847,1.752v7.469c.02,2.677,1.724,4.5,4.128,4.49s4.085-1.867,4.094-4.536v-8.776c0-1.474.158-1.589,1.847-1.586,1.6,0,1.77.126,1.775,1.534,0,3.008.037,6.012,0,9.017-.049,3.266-1.488,5.771-4.542,7.012a7.759,7.759,0,0,1-8.618-1.436C-677.421-34.009-677.579-34.135-677.829-34.359Z" transform="translate(1574.987 2331.277)"/><path class="b" d="M-578.052-39.722c0-1.52-.023-3.042,0-4.565A7.39,7.39,0,0,1-570.3-51.6a7.456,7.456,0,0,1,7.679,7.291c.052,3.16.017,6.32,0,9.48,0,1.284-.256,1.491-1.724,1.5-1.643,0-1.859-.149-1.882-1.436-.014-.879,0-1.761,0-2.643s-.391-1.359-1.3-1.362h-5.645c-.888,0-1.321.411-1.293,1.327s.046,1.925-.017,2.873c-.075,1.112-.477,1.275-2.241,1.252-.965,0-1.379-.391-1.359-1.367C-578.023-36.358-578.052-38.038-578.052-39.722Zm7.664-2.134a25.247,25.247,0,0,0,2.873-.032,1.655,1.655,0,0,0,1.183-.738,4.506,4.506,0,0,0-3.1-5.547,3.947,3.947,0,0,0-4.007,1.3,5.033,5.033,0,0,0-.908,4.309c.046.287.684.641,1.077.684a28.216,28.216,0,0,0,2.881.023Z" transform="translate(1494.131 2332.394)"/><path class="b" d="M-494.5-42.257a25.458,25.458,0,0,1-.21,3.35,7.478,7.478,0,0,1-8.109,5.975A7.413,7.413,0,0,1-510-40.088c-.049-1.436-.052-2.873,0-4.326a7.422,7.422,0,0,1,7.541-7.182,7.413,7.413,0,0,1,7.874,6.937c.057.8,0,1.6,0,2.4Zm-3.688.106h0c0-.718.043-1.436,0-2.157a4.09,4.09,0,0,0-4.14-3.987,4.125,4.125,0,0,0-4.056,3.961,33,33,0,0,0,0,4.2,4.091,4.091,0,0,0,4.079,3.915,4.1,4.1,0,0,0,4.111-4.022C-498.157-40.866-498.191-41.51-498.191-42.15Z" transform="translate(1445.643 2332.392)"/><path class="b" d="M-425.3-40.215c0,1.683-.026,3.367,0,5.047.02.988-.414,1.339-1.373,1.35-2.163.02-2.232,0-2.232-2.169v-8.173c0-2.677-1.678-4.559-4.048-4.6-2.424-.046-4.168,1.813-4.2,4.565-.034,2.924,0,5.852,0,8.776,0,1.454-.161,1.586-1.709,1.591-1.724,0-1.89-.106-1.9-1.528,0-3.045-.052-6.09,0-9.135A7.491,7.491,0,0,1-433-52.09a7.529,7.529,0,0,1,7.7,7.782C-425.291-42.941-425.3-41.579-425.3-40.215Z" transform="translate(1396.278 2332.743)"/><path class="b" d="M-639.313,36.22c-22.177,0-40.157,4.4-40.157,9.824s17.98,9.824,40.157,9.824,40.154-4.4,40.154-9.824S-617.136,36.22-639.313,36.22Zm0,14.326c-18.764,0-33.989-2.93-33.989-6.544s15.225-6.544,33.983-6.544,33.98,2.93,33.98,6.544S-620.546,50.546-639.313,50.546Z" transform="translate(1566.401 2269.801)"/><g transform="translate(747.756 2280.647)"><path class="b" d="M83.94,43.734c1.862-.533,3.717-1.157,5.616-1.568.922-.2,1.175-.544,1.172-1.443q-.044-15.183,0-30.363c0-.981-.3-1.285-1.256-1.491-1.866-.4-3.673-1.028-5.509-1.557.437-1.965.533-2.013,2.06-1.469a38.305,38.305,0,0,0,15.227,1.7c4.969-.338,9.612-2.024,14.416-3.015,6.739-1.37,13.417-1.271,19.807,1.576,6.886,3.089,10.974,8.4,11.98,15.94.709,5.333.066,10.453-2.817,15.1-3.357,5.414-8.473,8.234-14.548,9.512A37.505,37.505,0,0,1,111.4,45.46a44.005,44.005,0,0,0-16.267-1.98,63.262,63.262,0,0,0-9.072,1.752C84.458,45.611,84.48,45.75,83.94,43.734Zm16.939-18.2c0,4.848.04,9.7-.029,14.544,0,1.1.422,1.377,1.363,1.557,3.412.646,6.831,1.271,10.207,2.075a41.846,41.846,0,0,0,12.961,1.5c5.406-.389,8.763-3.305,10.489-8.286a30.49,30.49,0,0,0,1.418-9.6c.059-4.191.055-8.378-1.172-12.44-1.374-4.54-4-7.845-8.914-8.815a29.384,29.384,0,0,0-12.311.687c-4.29.988-8.48,2.435-12.921,2.7-.885.051-1.1.551-1.1,1.407C100.9,15.759,100.879,20.643,100.879,25.532Z" transform="translate(-53.118 -2.32)"/><path class="b" d="M20.1,69.824a26.422,26.422,0,0,0-19.256.033c-.18-.338-.338-.595-.455-.867S.222,68.483.06,67.969c1.469-.43,2.872-.907,4.312-1.238.823-.187,1.128-.488,1.12-1.377q-.059-9.549,0-19.069c0-.856-.327-1.128-1.065-1.311-1.443-.367-2.865-.8-4.407-1.249l.735-1.9c4.808,1.693,9.634,2.5,14.764,1.1.048.628.118,1.1.118,1.579,0,6.857.022,13.718,0,20.567,0,1.01.184,1.572,1.307,1.7a13.659,13.659,0,0,1,2.571.713C21.094,68.028,21.157,68.266,20.1,69.824Z" transform="translate(-0.02 -26.467)"/><path class="b" d="M18.294,12a5.895,5.895,0,0,1-5.935-5.976A6.056,6.056,0,0,1,18.316,0a6.075,6.075,0,0,1,5.942,6.045A5.906,5.906,0,0,1,18.294,12Z" transform="translate(-7.827 0)"/></g><path class="b" d="M-535.5,239.482a5.8,5.8,0,0,1,4.821-5.463,8.458,8.458,0,0,1,1.386-.11h27.952a5.971,5.971,0,0,1,6.317,6.335v28.144a5.912,5.912,0,0,1-4.919,5.906,6.08,6.08,0,0,1-1.118.08H-524.5c-.2,0-.394-.02-.7-.034.21-.915.4-1.789.61-2.652.329-1.375.709-2.742.986-4.128.13-.653.436-.823,1.058-.868a49.651,49.651,0,0,0,9.933-1.615,17.687,17.687,0,0,0,7.5-3.8,9.985,9.985,0,0,0,3.459-8.142,8.666,8.666,0,0,0-2.654-5.5,21.449,21.449,0,0,0-8.479-5.161,45.965,45.965,0,0,0-12.621-2.63c-3.173-.224-6.362-.224-9.544-.329A5.51,5.51,0,0,1-535.5,239.482Z" transform="translate(1189.072 2037.003)"/><path class="b" d="M-581.873,451.478v4.513h-2.835c0-.224-.031-.434-.031-.648V443.6c0-.966.161-1.14,1.1-1.131,1.547.013,3.1-.031,4.64.085,2.612.192,4.249,1.744,4.349,3.974a4.556,4.556,0,0,1-4.025,4.732C-579.7,451.429-580.744,451.407-581.873,451.478Zm.027-1.42c.756,0,1.442.058,2.115-.011a3.332,3.332,0,0,0,2.791-3.162,2.844,2.844,0,0,0-2.326-2.956,15.972,15.972,0,0,0-2.58-.025Z" transform="translate(1227.296 1875.081)"/><path class="b" d="M-433.549,451.418v4.6h-2.8c-.013-.224-.036-.434-.036-.646V443.551c0-.894.152-1.073,1.022-1.067,1.565,0,3.146-.034,4.709.083,2.547.188,4.229,1.735,4.338,3.848a4.559,4.559,0,0,1-3.974,4.852,18.012,18.012,0,0,1-2.312.152C-432.878,451.429-433.164,451.418-433.549,451.418Zm.013-7.507v4.352c0,1.939,0,1.939,1.945,1.822a3.341,3.341,0,0,0,2.99-3.113,2.842,2.842,0,0,0-2.308-3.034A15.737,15.737,0,0,0-433.536,443.911Z" transform="translate(1112.111 1875.072)"/><path class="b" d="M-382.463,461.2a1.8,1.8,0,0,0-1.773-2.531,7.8,7.8,0,0,0-1.389.054c-.447.047-.865.152-1.353.242l-.255-.731c2.212-.59,4.343-.856,6.424.235a2.18,2.18,0,0,1,1.259,1.91c.045,2.46.016,4.942.016,7.4-1.322.311-2.683.148-2.889-.266a13.129,13.129,0,0,1-2.051.505,3.221,3.221,0,0,1-3.748-3.184,3.406,3.406,0,0,1,3.383-3.779A23.006,23.006,0,0,1-382.463,461.2Zm.1,3.224v-.863c0-1.069-.174-1.243-1.257-1.243a2.621,2.621,0,0,0-.4.02,2.236,2.236,0,0,0-1.565.9,2.236,2.236,0,0,0-.385,1.766,2.123,2.123,0,0,0,2.585,1.764,1.11,1.11,0,0,0,1.02-1.286Z" transform="translate(1074.726 1863.244)"/><path class="b" d="M-527.794,467.98c-1.053-.3-2.1.331-2.99-.425a12.081,12.081,0,0,1-1.97.487,3.213,3.213,0,0,1-3.732-3.2,3.408,3.408,0,0,1,3.392-3.77c.785-.027,1.565.094,2.366.145a1.807,1.807,0,0,0-1.729-2.529,7.405,7.405,0,0,0-1.389.047c-.447.047-.906.152-1.4.241l-.259-.7c.4-.112.767-.237,1.143-.311a8.746,8.746,0,0,1,4.454.139,2.7,2.7,0,0,1,2.113,2.907v6.167Zm-2.831-3.468v-1.058c0-.894-.107-1.02-1-1.091a3.246,3.246,0,0,0-.66,0,2.216,2.216,0,0,0-1.585.914,2.216,2.216,0,0,0-.358,1.794,2.109,2.109,0,0,0,2.6,1.72c.783-.208,1-.487,1-1.295Z" transform="translate(1189.838 1863.219)"/><path class="b" d="M-344.81,457.7c.941,0,1.762-.031,2.574.022a.9.9,0,0,1,.6.461c.87,1.691,1.706,3.4,2.554,5.1.1.192.2.378.378.7.224-.481.38-.85.543-1.221.644-1.456,1.315-2.907,1.912-4.376a.9.9,0,0,1,1.078-.682,8.62,8.62,0,0,0,1.087,0c-.078.224-.121.416-.195.584-1.565,3.578-3.131,7.167-4.729,10.733a3.692,3.692,0,0,1-4.322,2.3v-1.4a1.367,1.367,0,0,1,.309-.051c1.93.121,2.337-1.134,2.858-2.643.06-.179-.1-.458-.206-.671q-2.051-4.092-4.114-8.175C-344.582,458.2-344.669,458.007-344.81,457.7Z" transform="translate(1041.018 1863.268)"/><path class="b" d="M-486.978,463.933c.816-1.854,1.621-3.551,2.305-5.3.311-.789.722-1.129,1.552-.986a4.834,4.834,0,0,0,.771,0c-.087.253-.132.418-.2.572-1.565,3.562-3.117,7.129-4.7,10.684a3.729,3.729,0,0,1-4.358,2.368v-1.4c.148-.018.291-.047.447-.051a2.909,2.909,0,0,0,2.757-2.695,1.422,1.422,0,0,0-.224-.608q-2.013-4.025-4.056-8.05c-.116-.224-.224-.467-.4-.816,1,0,1.9-.022,2.788.02.145,0,.32.268.409.447.856,1.695,1.7,3.4,2.545,5.1A6.645,6.645,0,0,0-486.978,463.933Z" transform="translate(1156.133 1863.319)"/><path class="b" d="M-476,306.229c1.208-5,2.4-9.957,3.618-15.009,1.292.224,2.551.432,3.8.7a25.108,25.108,0,0,1,8.3,3.028,10.488,10.488,0,0,1,2.357,2.013,3.353,3.353,0,0,1-.132,4.743,9.448,9.448,0,0,1-3.392,2.27,30.02,30.02,0,0,1-9.911,2.236c-1.3.1-2.607.074-3.913.1A6.76,6.76,0,0,1-476,306.229Z" transform="translate(1142.872 1992.508)"/><path class="b" d="M-528.185,317.474a23.077,23.077,0,0,1-3.529-.356,5.814,5.814,0,0,1-4.307-5.648c-.022-7.1,0-14.2-.02-21.3,0-.479.195-.624.61-.633,3.8-.083,7.6-.181,11.4-.237.879-.013,1.76.116,2.768.19Z" transform="translate(1189.486 1994.002)"/><path class="b" d="M67.023,28.413s1.084,5.3,1.329,6.419H63.569l2.3-6.175c-.031.042.469-1.3.756-2.126l.4,1.907ZM82.134,6.841V57.03a6.847,6.847,0,0,1-6.841,6.847H6.841A6.847,6.847,0,0,1,0,57.03V6.841A6.841,6.841,0,0,1,6.841,0H75.282a6.841,6.841,0,0,1,6.841,6.841ZM21.744,42.659l9-22.129H24.693l-5.6,15.111-.615-3.069-2-10.166c-.328-1.412-1.339-1.813-2.605-1.871H4.69l-.1.443a22.635,22.635,0,0,1,5.987,2.433l5.106,19.248ZM35.2,42.69l3.6-22.16H33.066l-3.58,22.16Zm19.946-7.258c.031-2.522-1.511-4.445-4.8-6.029-2.011-1.011-3.236-1.7-3.236-2.736,0-.943,1.042-1.912,3.293-1.912a9.9,9.9,0,0,1,4.262.839l.521.245.782-4.788a14.209,14.209,0,0,0-5.132-.943c-5.659,0-9.64,3.022-9.666,7.326-.042,3.184,2.85,4.95,5.018,6.018s2.965,1.8,2.965,2.751c0,1.485-1.8,2.168-3.434,2.168a11.416,11.416,0,0,1-5.377-1.183l-.74-.344-.8,4.976A17.617,17.617,0,0,0,45.191,43c6.013,0,9.937-2.965,9.978-7.561ZM75.282,42.68,70.66,20.53H66.226a2.82,2.82,0,0,0-2.991,1.839L54.711,42.69h6.018s.985-2.741,1.2-3.324H69.3c.167.782.683,3.324.683,3.324Z" transform="translate(519.282 2270.794)"/><path class="b" d="M68.813,53.765a1.6,1.6,0,1,1-.445-1.168A1.6,1.6,0,0,1,68.813,53.765ZM24.524,52.108a1.657,1.657,0,1,0,1.552,1.657A1.574,1.574,0,0,0,24.524,52.1Zm16.744-.044a1.32,1.32,0,0,0-1.353,1.243h2.722a1.32,1.32,0,0,0-1.37-1.254Zm15.363.044a1.657,1.657,0,1,0,1.6,1.657,1.579,1.579,0,0,0-1.6-1.668ZM71.718,55.83c0,.039.044.066.044.155s-.044.072-.044.155a1.318,1.318,0,0,0-.072.116.166.166,0,0,1-.155.072c-.044.044-.072.044-.155.044a.287.287,0,0,1-.16-.044c-.039,0-.072-.044-.11-.072a.157.157,0,0,1-.072-.116.248.248,0,0,1-.044-.155c0-.072,0-.116.044-.155a.254.254,0,0,1,.072-.16c.039-.044.072-.044.11-.072a.287.287,0,0,1,.16-.039.2.2,0,0,1,.155.039c.072.044.116.044.155.072s.033.1.072.149Zm-.309.2c.066,0,.066-.044.11-.044a.133.133,0,0,0,.044-.116.122.122,0,0,0-.044-.11c-.044,0-.072-.044-.155-.044h-.226v.5h.11v-.2h.044l.155.2h.116ZM82.078,6.881V57.04a6.837,6.837,0,0,1-6.837,6.837H6.842A6.842,6.842,0,0,1,0,57V6.842A6.842,6.842,0,0,1,6.842,0h68.4a6.842,6.842,0,0,1,6.837,6.842ZM9.117,26.761A19.726,19.726,0,0,0,39.76,43.179a21.246,21.246,0,0,1,0-32.847,19.726,19.726,0,0,0-30.638,16.4ZM41.042,42.234a19.729,19.729,0,0,0,0-30.991A19.723,19.723,0,0,0,41.042,42.234ZM20.764,53.108a2,2,0,0,0-2.1-2.093,2.032,2.032,0,0,0-1.822.928,1.889,1.889,0,0,0-1.74-.928,1.8,1.8,0,0,0-1.508.768v-.624H12.425v5.23H13.6c0-2.695-.359-4.3,1.281-4.3,1.452,0,1.171,1.452,1.171,4.3h1.1c0-2.607-.353-4.3,1.287-4.3,1.452,0,1.165,1.425,1.165,4.3h1.171v-3.28Zm6.395-1.949h-1.1v.624a2.043,2.043,0,0,0-1.657-.768,2.761,2.761,0,0,0,0,5.522,1.966,1.966,0,0,0,1.657-.768v.652h1.1ZM32.929,54.8c0-2.137-3.264-1.165-3.264-2.165,0-.812,1.7-.685,2.64-.155l.469-.928c-1.342-.867-4.3-.856-4.3,1.171s3.264,1.182,3.264,2.137-1.927.823-2.954.11l-.5.9c1.6,1.1,4.644.856,4.644-1.071Zm5.047,1.325-.315-.966c-.552.3-1.74.624-1.74-.585V52.213h1.867V51.158H35.922v-1.6H34.757v1.6H33.686V52.2h1.1v2.38c0,2.507,2.463,2.054,3.219,1.552Zm1.894-1.905h3.921c0-2.308-1.055-3.225-2.48-3.225a2.568,2.568,0,0,0-2.6,2.761c0,2.921,3.219,3.407,4.815,2.027l-.552-.856c-1.1.9-2.783.845-3.109-.707Zm8.421-3.065a1.657,1.657,0,0,0-2.165.624v-.624H44.957v5.23h1.171V53.439a1.188,1.188,0,0,1,1.822-1.2l.342-1.1Zm1.513,2.607c0-1.624,1.657-2.154,2.949-1.2l.552-.922a2.831,2.831,0,0,0-4.661,2.137c0,2.822,3.192,3.391,4.661,2.137l-.552-.928C51.44,55.919,49.805,55.361,49.805,53.765Zm9.5-2.607H58.139v.624c-1.182-1.568-4.258-.685-4.258,1.982s3.192,3.518,4.258,1.982V56.4h1.171Zm4.8,0a1.712,1.712,0,0,0-2.165.624v-.624h-1.1v5.23h1.1V53.439a1.2,1.2,0,0,1,1.822-1.2l.342-1.1Zm5.743-2.126h-1.1v2.761c-1.165-1.552-4.258-.723-4.258,1.982s3.208,3.507,4.258,1.982v.652h1.1Zm1.1-10.7v.657h.116V38.33h.271v-.11h-.657v.11ZM71.9,56a.414.414,0,0,0-.044-.226c-.044-.044-.072-.116-.116-.16s-.11-.072-.155-.11a.417.417,0,0,0-.226-.044,1.62,1.62,0,0,1-.2.044.8.8,0,0,0-.16.11.221.221,0,0,0-.11.16.414.414,0,0,0-.044.226.392.392,0,0,0,.044.2.2.2,0,0,0,.11.155.5.5,0,0,0,.16.116.364.364,0,0,0,.2.044.414.414,0,0,0,.226-.044c.044-.044.116-.072.155-.116s.072-.11.116-.155a.392.392,0,0,0,.022-.226Zm.442-17.8h-.2l-.226.5-.226-.5h-.2v.773H71.6v-.585l.226.5h.16l.2-.5v.585h.155Zm.63-11.47A19.726,19.726,0,0,0,42.323,10.316a21.253,21.253,0,0,1,0,32.847A19.726,19.726,0,0,0,72.96,26.733Z" transform="translate(396 2270.794)"/></g></svg>