<svg id="Layer_1" data-name="Layer 1" xmlns="http://www.w3.org/2000/svg" width="729" height="195" viewBox="0 0 729 195"><defs><style>.cls-1,.cls-2{fill:none;}.cls-2{stroke:#007bff;stroke-width:6px;}.cls-3{isolation:isolate;}.cls-4{fill:#fff;}</style></defs><title>Artboard 1</title><path class="cls-1" d="M97.5,0h534A97.5,97.5,0,0,1,729,97.5h0A97.5,97.5,0,0,1,631.5,195H97.5A97.5,97.5,0,0,1,0,97.5H0A97.5,97.5,0,0,1,97.5,0Z"/><path class="cls-2" d="M97.5,3h534A94.5,94.5,0,0,1,726,97.5h0A94.5,94.5,0,0,1,631.5,192H97.5A94.5,94.5,0,0,1,3,97.5H3A94.5,94.5,0,0,1,97.5,3Z"/><g class="cls-3"><g class="cls-3"><path class="cls-4" d="M79.12,121.88c-3.76.24-7.12.44-10,.56v5.68a31.2,31.2,0,0,1,6.56-.64A13,13,0,0,1,84,130a8.65,8.65,0,0,1,3.48,7.28c0,6.64-4.44,10-13.27,10l-.64-2.8c3.88,0,6.68-.68,8.44-2a6.16,6.16,0,0,0,2.43-5.24,6.32,6.32,0,0,0-2.47-5.2,9.83,9.83,0,0,0-6.32-1.88,26.58,26.58,0,0,0-6.56.76c0,3.48,0,7.2,0,11.16,0,3.32-1.6,5-4.8,5a10.13,10.13,0,0,1-6.24-1.8,6.16,6.16,0,0,1-2.56-5.2c0-3.84,2.12-7,6.4-9.4a20.53,20.53,0,0,1,4.16-1.84c0-2.24,0-4.4,0-6.4-1.52,0-2.92.08-4.12.08-2.12,0-3.92,0-5.36-.08l0-2.84c2.12,0,3.92.08,5.36.08s2.72,0,4.16,0c0-2.47,0-4.76,0-6.87h3c0,2.07,0,4.36,0,6.79q4.8-.24,9.84-.6Zm-15,11c-3.76,1.92-5.6,4.36-5.6,7.32a3.64,3.64,0,0,0,1.64,3.12,6.2,6.2,0,0,0,3.8,1.08c1.4,0,2.12-.88,2.12-2.6V132A17.23,17.23,0,0,0,64.16,132.84Zm26.11-7.52L88,127.12a49,49,0,0,0-8-8.72l2.19-2A57.86,57.86,0,0,1,90.27,125.32Z"/><path class="cls-4" d="M114.08,128.92H102.8v20H99.92V113.73h14.16Zm-2.88-12.63h-8.4v3.87h8.4Zm-8.4,10.07h8.4V122.6h-8.4Zm20.84,5.8V144H108.28V132.16Zm-2.8,2.56h-9.76v6.76h9.76Zm-3.2-5.8V113.73H132v31.71c0,2.2-1.12,3.32-3.32,3.32-1.4,0-2.79,0-4.15-.08l-.72-2.76c1.36.08,2.6.16,3.79.16a1.38,1.38,0,0,0,1.56-1.56v-15.6Zm11.51-12.59h-8.63v3.83h8.63Zm-8.63,10h8.63V122.6h-8.63Z"/><path class="cls-4" d="M148,118a71.11,71.11,0,0,0-.76,10.6,25.72,25.72,0,0,0,1.84,10.6c1.12,2.4,2.44,3.64,4,3.64q1.56,0,2.88-3.24a24,24,0,0,0,1.32-4.6l3.08.72a22.94,22.94,0,0,1-2.64,7.12c-1.28,2-2.8,3.08-4.56,3.08-2.88,0-5.12-1.64-6.76-4.92s-2.36-7.28-2.36-12.4a73.31,73.31,0,0,1,.8-11Zm29.83,22-3.12.16c-.48-8.88-2.72-15.68-6.75-20.48l2.52-1.88C174.87,123.12,177.35,130.52,177.83,140Z"/><path class="cls-4" d="M205,112.29a57.5,57.5,0,0,0,17.59,13.87l-1.56,2.76a56.56,56.56,0,0,1-17.07-14A58.26,58.26,0,0,1,186.76,129l-1.52-2.76A59.14,59.14,0,0,0,203,112.29ZM216.63,149h-2.8v-2.4H194.16V149h-2.8V132.84h25.27Zm-2.23-24v2.76H193.6V125Zm-.57,18.8v-8.24H194.16v8.24Z"/><path class="cls-4" d="M263.27,124.52a12.45,12.45,0,0,1,3,8.48,11.88,11.88,0,0,1-4,9.28c-2.76,2.4-6.75,3.88-12,4.48L249.12,144c4.64-.48,8.15-1.72,10.59-3.64a9.11,9.11,0,0,0,3.48-7.36,10.08,10.08,0,0,0-2.16-6.6,8.13,8.13,0,0,0-6.51-2.8c-3.52,0-7.4,1.72-11.64,5.2a16.28,16.28,0,0,0-1.36,1.16c-.16,7.08-.24,12.92-.24,17.56h-2.92c0-4.68,0-9.56.16-14.68-1.92,1.92-4.08,4.32-6.44,7.12L229.84,138a106,106,0,0,1,8.8-9.52l.16-6-7,.44-.16-2.76,7.28-.48.16-6.68,2.92,0c-.08,1.6-.12,3.8-.16,6.52l1.24,1.12-1.36,2.92c0,.76,0,1.52,0,2.28,4.4-3.52,8.72-5.24,12.88-5.24A10.83,10.83,0,0,1,263.27,124.52Z"/><path class="cls-4" d="M302.08,123.84l6.95-.32.08,2.84-7,.32V127c0,4-.29,6.76-.81,8.2a4.41,4.41,0,0,1-4.51,3,22.46,22.46,0,0,1-4.92-.64l0-2.8a26.61,26.61,0,0,0,4.8.6c1.12,0,1.88-1,2.2-2.8a39.66,39.66,0,0,0,.24-5.44v-.24l-14,.6-.08,10c0,2.32.68,4,2.12,5.08a9.7,9.7,0,0,0,5.6,1.36c4.64,0,8.76-.2,12.39-.56l.2,2.84c-4.08.36-8.27.56-12.59.56-3.52,0-6.12-.68-7.8-2-2-1.52-2.92-3.92-2.92-7.28,0-2,0-5.28,0-9.88l-7.16.28-.08-2.8,7.28-.32.08-9.27h3l-.08,9.15,14-.6c0-3.84-.12-7.12-.24-9.75l2.95,0C302,117,302,120.24,302.08,123.84Z"/><path class="cls-4" d="M338,128.52a2.9,2.9,0,0,1,.88,2.08,2.81,2.81,0,0,1-.88,2,2.9,2.9,0,0,1-4.08,0,2.67,2.67,0,0,1-.88-2,2.91,2.91,0,0,1,5-2.08Z"/></g><g class="cls-3"><path class="cls-4" d="M362,128.9q0-8.28,2.69-12.47a8.74,8.74,0,0,1,7.84-4.18q5.57,0,8.07,4.12t2.51,12.53q0,8.28-2.69,12.47a8.78,8.78,0,0,1-7.89,4.18,8.55,8.55,0,0,1-8-4.37Q362,136.82,362,128.9Zm3.82,0a35,35,0,0,0,.39,5.45,15.56,15.56,0,0,0,1.22,4.23,7.41,7.41,0,0,0,2.09,2.76,4.74,4.74,0,0,0,3,1,5.4,5.4,0,0,0,5.13-3.24q1.64-3.24,1.63-10.19a39.72,39.72,0,0,0-.34-5.43,15.75,15.75,0,0,0-1.15-4.28,7.06,7.06,0,0,0-2.09-2.76,5.18,5.18,0,0,0-3.18-1,5.36,5.36,0,0,0-5.08,3.26Q365.79,122,365.8,128.9Z"/><path class="cls-4" d="M388.2,137.32a8.45,8.45,0,0,1,1.52-5,13.79,13.79,0,0,1,4.73-3.89,24.92,24.92,0,0,1-2.14-1.44,9.83,9.83,0,0,1-1.74-1.73,7.59,7.59,0,0,1-1.2-2.16,8.07,8.07,0,0,1-.44-2.76,8.4,8.4,0,0,1,.62-3.27,7.23,7.23,0,0,1,1.8-2.53,8.64,8.64,0,0,1,2.8-1.65,10.73,10.73,0,0,1,3.71-.6,10.35,10.35,0,0,1,3.49.55,7.71,7.71,0,0,1,2.65,1.52,6.74,6.74,0,0,1,1.68,2.3,7.09,7.09,0,0,1,.6,2.94,8.79,8.79,0,0,1-1.2,4.62,13.55,13.55,0,0,1-4,3.94,19.64,19.64,0,0,1,2.28,1.52,10.64,10.64,0,0,1,1.89,1.84,8,8,0,0,1,1.26,2.27,8.33,8.33,0,0,1,.46,2.88,9.74,9.74,0,0,1-.64,3.61,7.63,7.63,0,0,1-1.89,2.8,8.7,8.7,0,0,1-3,1.84,11.64,11.64,0,0,1-4.1.67,11,11,0,0,1-3.91-.64,8.5,8.5,0,0,1-2.87-1.75,7.12,7.12,0,0,1-1.77-2.6A8.64,8.64,0,0,1,388.2,137.32Zm15.22-.46a5.05,5.05,0,0,0-.55-2.42,7.23,7.23,0,0,0-1.45-1.88,11.85,11.85,0,0,0-2-1.54c-.77-.46-1.57-.91-2.4-1.34a10.63,10.63,0,0,0-4,3.5,7,7,0,0,0-1.19,3.68,6.24,6.24,0,0,0,.36,2.11,4.76,4.76,0,0,0,1.11,1.75,5.34,5.34,0,0,0,1.81,1.17,6.5,6.5,0,0,0,2.51.44,7.09,7.09,0,0,0,2.21-.34,5.42,5.42,0,0,0,1.86-1,4.71,4.71,0,0,0,1.29-1.7A5.66,5.66,0,0,0,403.42,136.86Zm-10.9-16.65a4.9,4.9,0,0,0,.51,2.27,6.41,6.41,0,0,0,1.35,1.77,11.45,11.45,0,0,0,2,1.45c.74.45,1.5.87,2.3,1.27a13,13,0,0,0,3.06-3.18,6.31,6.31,0,0,0,1-3.45,4.54,4.54,0,0,0-1.45-3.61,5.11,5.11,0,0,0-3.47-1.26,5.51,5.51,0,0,0-3.87,1.47,4.21,4.21,0,0,0-1,1.49A4.71,4.71,0,0,0,392.52,120.21Z"/><path class="cls-4" d="M432.77,135.29a12,12,0,0,1-.64,4,9.67,9.67,0,0,1-1.89,3.27,8.81,8.81,0,0,1-3.08,2.21,10.47,10.47,0,0,1-4.19.8,11.1,11.1,0,0,1-4.14-.73,8.6,8.6,0,0,1-3.17-2.19,9.8,9.8,0,0,1-2.05-3.56,15.44,15.44,0,0,1-.71-4.88,28.76,28.76,0,0,1,1.17-8.4,22.4,22.4,0,0,1,3.25-6.69,17.56,17.56,0,0,1,4.89-4.62,15.41,15.41,0,0,1,6.15-2.23l.78,2.94a13.51,13.51,0,0,0-4.69,1.75,15.25,15.25,0,0,0-3.71,3.17,17.06,17.06,0,0,0-2.6,4.24,19.58,19.58,0,0,0-1.38,4.83,6.81,6.81,0,0,1,2.49-2.28,8.25,8.25,0,0,1,4.28-1,9.1,9.1,0,0,1,6.78,2.49A9.43,9.43,0,0,1,432.77,135.29Zm-3.82.37a7.07,7.07,0,0,0-1.51-4.92,6.11,6.11,0,0,0-4.7-1.66,6.73,6.73,0,0,0-3.88,1.11,6.24,6.24,0,0,0-2.28,2.48,7.92,7.92,0,0,0-.09,1.06v.92a10.3,10.3,0,0,0,.39,2.81,7.09,7.09,0,0,0,1.22,2.46,6.5,6.5,0,0,0,2,1.75,6,6,0,0,0,2.88.66,5.71,5.71,0,0,0,2.41-.5,5.83,5.83,0,0,0,1.87-1.38,6.48,6.48,0,0,0,1.22-2.12A8,8,0,0,0,429,135.66Z"/><path class="cls-4" d="M446.53,130.05h11.13v3.4H446.53Z"/><path class="cls-4" d="M489.49,120.11a15,15,0,0,1-.9,5,31.83,31.83,0,0,1-2.34,5.12,50.7,50.7,0,0,1-3.25,5c-1.19,1.64-2.39,3.2-3.58,4.67l-2.26,2v.18l2.95-.5h10V145h-18.3v-1.33c.67-.71,1.48-1.58,2.43-2.63s1.94-2.2,3-3.47,2-2.62,3-4a48.74,48.74,0,0,0,2.71-4.34,27.78,27.78,0,0,0,2-4.37,12.74,12.74,0,0,0,.73-4.1,5.55,5.55,0,0,0-1.29-3.75,4.89,4.89,0,0,0-3.91-1.49,8.6,8.6,0,0,0-3.4.71,13.75,13.75,0,0,0-2.85,1.63l-1.52-2.62a11.87,11.87,0,0,1,3.82-2.16,14.11,14.11,0,0,1,4.74-.78,9.9,9.9,0,0,1,3.49.57,7.31,7.31,0,0,1,2.58,1.64,7.13,7.13,0,0,1,1.61,2.5A8.76,8.76,0,0,1,489.49,120.11Z"/><path class="cls-4" d="M514.56,120.11a15,15,0,0,1-.9,5,32.72,32.72,0,0,1-2.34,5.12,50.7,50.7,0,0,1-3.25,5c-1.19,1.64-2.39,3.2-3.58,4.67l-2.26,2v.18l2.95-.5h10V145H496.9v-1.33c.67-.71,1.48-1.58,2.43-2.63s1.94-2.2,3-3.47,2-2.62,3-4a48.74,48.74,0,0,0,2.71-4.34,27.78,27.78,0,0,0,2-4.37,12.74,12.74,0,0,0,.73-4.1,5.55,5.55,0,0,0-1.29-3.75,4.89,4.89,0,0,0-3.91-1.49,8.6,8.6,0,0,0-3.4.71,13.49,13.49,0,0,0-2.85,1.63l-1.52-2.62a11.87,11.87,0,0,1,3.82-2.16,14.11,14.11,0,0,1,4.74-.78,9.9,9.9,0,0,1,3.49.57,7.31,7.31,0,0,1,2.58,1.64A7.13,7.13,0,0,1,514,117,8.76,8.76,0,0,1,514.56,120.11Z"/><path class="cls-4" d="M543.22,135.11h-5.43V145H534.2v-9.89H520v-1.52l15.28-21.3h2.48v19.6h5.43Zm-9-13.25.46-3.77h-.14l-1.61,3.13L526.43,130l-2.21,2.26,3.22-.37h6.76Z"/><path class="cls-4" d="M555.5,130.05h11.13v3.4H555.5Z"/><path class="cls-4" d="M588.71,142.33a8.77,8.77,0,0,0,2.9-.46,6.24,6.24,0,0,0,2.3-1.36,6.52,6.52,0,0,0,1.52-2.13,6.61,6.61,0,0,0,.55-2.72,5.83,5.83,0,0,0-1.91-4.78,8.1,8.1,0,0,0-5.27-1.57h-3.4V128L592,117.77l2.12-2-3,.46H582v-3.4h16.42v1.33l-7.31,11-1.61,1.33v.09l1.56-.32a10,10,0,0,1,3.41.67,7.68,7.68,0,0,1,2.71,1.79,8.27,8.27,0,0,1,1.8,2.81,10,10,0,0,1,.64,3.7,10.66,10.66,0,0,1-.87,4.42,9.51,9.51,0,0,1-2.37,3.24,10.25,10.25,0,0,1-3.52,2,13.19,13.19,0,0,1-4.28.69,20.1,20.1,0,0,1-3.73-.32,15.63,15.63,0,0,1-2.89-.83l1-3.26a13.13,13.13,0,0,0,2.51.85A14.07,14.07,0,0,0,588.71,142.33Z"/><path class="cls-4" d="M612.82,142.33a7.58,7.58,0,0,0,5.24-1.84,6.74,6.74,0,0,0,2.07-5.33,6.07,6.07,0,0,0-2-5,8.72,8.72,0,0,0-5.63-1.65l-3.87.23V112.8h14.36v3.4H612v9.16l2-.09a10.15,10.15,0,0,1,7.18,2.53q2.63,2.47,2.62,7.13a11.36,11.36,0,0,1-.87,4.57,9.63,9.63,0,0,1-2.37,3.34,10.13,10.13,0,0,1-3.52,2,13.32,13.32,0,0,1-4.33.69,22.76,22.76,0,0,1-3.49-.23,13.74,13.74,0,0,1-2.67-.69l1-3.13a10.66,10.66,0,0,0,2.27.62A18.28,18.28,0,0,0,612.82,142.33Z"/><path class="cls-4" d="M648.6,120.11a15.26,15.26,0,0,1-.89,5,31.9,31.9,0,0,1-2.35,5.12,52.45,52.45,0,0,1-3.24,5c-1.2,1.64-2.39,3.2-3.59,4.67l-2.25,2v.18l2.94-.5h10V145H630.94v-1.33c.67-.71,1.49-1.58,2.44-2.63s1.94-2.2,3-3.47,2-2.62,3-4a46.54,46.54,0,0,0,2.71-4.34,26.89,26.89,0,0,0,2-4.37,12.76,12.76,0,0,0,.74-4.1A5.55,5.55,0,0,0,643.5,117a4.9,4.9,0,0,0-3.91-1.49,8.65,8.65,0,0,0-3.41.71,13.75,13.75,0,0,0-2.85,1.63l-1.52-2.62a12,12,0,0,1,3.82-2.16,14.11,14.11,0,0,1,4.74-.78,10,10,0,0,1,3.5.57,7.18,7.18,0,0,1,2.57,1.64,7,7,0,0,1,1.61,2.5A8.76,8.76,0,0,1,648.6,120.11Z"/><path class="cls-4" d="M663,142.33a7.58,7.58,0,0,0,5.24-1.84,6.74,6.74,0,0,0,2.07-5.33,6.07,6.07,0,0,0-2-5,8.72,8.72,0,0,0-5.63-1.65l-3.87.23V112.8h14.36v3.4H662.17v9.16l2-.09a10.15,10.15,0,0,1,7.18,2.53q2.63,2.47,2.62,7.13a11.36,11.36,0,0,1-.87,4.57,9.63,9.63,0,0,1-2.37,3.34,10.13,10.13,0,0,1-3.52,2,13.32,13.32,0,0,1-4.33.69,22.76,22.76,0,0,1-3.49-.23,13.74,13.74,0,0,1-2.67-.69l1-3.13a10.66,10.66,0,0,0,2.27.62A18.28,18.28,0,0,0,663,142.33Z"/></g></g><g class="cls-3"><g class="cls-3"><path class="cls-4" d="M107.77,80.7a.77.77,0,0,1-.74-.76.73.73,0,0,1,.22-.54.75.75,0,0,1,.53-.22.77.77,0,0,1,.54.22.76.76,0,0,1-.55,1.3Zm3.3-1.35,3.27-3.28.6.59-3.28,3.28,3.28,3.28-.6.6-3.27-3.28-3.29,3.28-.59-.6,3.27-3.28-3.27-3.28.59-.59Zm0-1.93a.76.76,0,0,1-.52-1.3.76.76,0,0,1,1.07,0,.76.76,0,0,1-.55,1.3Zm0,6.56a.69.69,0,0,1-.52-.22.73.73,0,0,1-.22-.54.69.69,0,0,1,.22-.53.74.74,0,0,1,1.07,0,.69.69,0,0,1,.22.53.75.75,0,0,1-.77.76Zm3.28-3.28a.74.74,0,0,1-.53-.23.75.75,0,0,1-.22-.53.76.76,0,1,1,1.3.54A.74.74,0,0,1,114.33,80.7Z"/></g><g class="cls-3"><path class="cls-4" d="M122,80.78a4,4,0,0,0-1.29,2.1c0,1.11,1.37,1.67,4.11,1.67a24.19,24.19,0,0,0,4.57-.41l.17,1a26.37,26.37,0,0,1-4.74.4c-3.47,0-5.19-.87-5.19-2.6a4.54,4.54,0,0,1,1.54-2.81Zm2.66-5.14c1.48,0,2.77-.06,3.86-.17l.38.88a33.51,33.51,0,0,0-3.33,2.24l-.6-.79c.65-.45,1.38-.9,2.17-1.34a19.13,19.13,0,0,1-2.48.14,24.76,24.76,0,0,1-4.3-.32l.14-1A21.91,21.91,0,0,0,124.65,75.64Zm5.52.12-.59.42a9.63,9.63,0,0,0-1.47-1.87l.56-.45A10,10,0,0,1,130.17,75.76Zm1.27-.84-.6.44a9.74,9.74,0,0,0-1.46-1.88l.55-.45A9.94,9.94,0,0,1,131.44,74.92Z"/><path class="cls-4" d="M140.13,77.52a15.21,15.21,0,0,0,2.62-2.46H135.4v-1H144v.81a16.63,16.63,0,0,1-3.18,3.2c.14.11.27.24.39.35h4.41v.87a13.6,13.6,0,0,1-2.48,2.91l-.79-.7a13.11,13.11,0,0,0,2.08-2.12h-3.92V85c0,.87-.42,1.32-1.26,1.32h-2l-.22-1c.66,0,1.29.07,1.89.07.39,0,.59-.22.59-.64V79.43h-5.46v-1h5.79a25.27,25.27,0,0,0-2.78-2l.68-.67A27.6,27.6,0,0,1,140.13,77.52Z"/><path class="cls-4" d="M150.57,82.94A14.12,14.12,0,0,1,150,86.3l-.86-.27a12.22,12.22,0,0,0,.61-3.19Zm4-1-.85.23c-.06-.25-.13-.48-.19-.69a32.62,32.62,0,0,1-4,.72l-.25-.89a1.6,1.6,0,0,0,.44-.26,16.08,16.08,0,0,0,2.2-2.75c-.85.11-1.67.23-2.5.32l-.24-.86a1.26,1.26,0,0,0,.41-.37,20,20,0,0,0,2.14-3.89l.93.36a19.59,19.59,0,0,1-2.29,3.83c.7-.07,1.42-.17,2.12-.28.34-.55.7-1.14,1.06-1.77l.89.34a31.48,31.48,0,0,1-3.74,5.24c.86-.14,1.73-.31,2.6-.52-.15-.49-.32-1-.5-1.42l.81-.25A20.17,20.17,0,0,1,154.55,82Zm-1.78,3.77-.89.21c-.12-1.15-.27-2.16-.44-3l.83-.18C152.45,83.67,152.62,84.67,152.77,85.75Zm1.93-.87-.79.35a22.31,22.31,0,0,0-.79-2.52l.76-.24A18.89,18.89,0,0,1,154.7,84.88Zm2.64-11.22a15.42,15.42,0,0,1-.69,2.27h4.57q0,7-.21,8.59A1.81,1.81,0,0,1,159,86.21c-.28,0-.74,0-1.4,0l-.24-.91c.57,0,1.08,0,1.5,0a1.18,1.18,0,0,0,1.25-1.16c.08-.79.14-3.2.16-7.22h-4a11.9,11.9,0,0,1-1.59,2.36l-.63-.8a10.9,10.9,0,0,0,2.39-4.93Zm1.43,8.48-.79.57a24.92,24.92,0,0,0-2.31-3.19l.77-.49A27.37,27.37,0,0,1,158.77,82.14Z"/><path class="cls-4" d="M167.21,74.38a29.79,29.79,0,0,0-.62,6.43,11.79,11.79,0,0,0,.77,4.47l-1,.35a12.33,12.33,0,0,1-.85-4.82,32.08,32.08,0,0,1,.61-6.6Zm9.44,3c-.7.09-1.49.16-2.37.22.08,1.88.13,3.36.14,4.44A12.52,12.52,0,0,1,177.09,84l-.63.77a15,15,0,0,0-2.08-1.64,3.13,3.13,0,0,1-.59,1.48,2.78,2.78,0,0,1-2.28,1,3.65,3.65,0,0,1-1.95-.48,1.82,1.82,0,0,1-.88-1.64,1.91,1.91,0,0,1,.78-1.64,3.07,3.07,0,0,1,1.95-.57,6.07,6.07,0,0,1,1.93.33c0-.94-.06-2.24-.13-3.92q-.9,0-1.89,0c-1,0-1.93,0-2.73-.07v-1c.89,0,1.82.08,2.74.08.65,0,1.26,0,1.85,0l-.12-2.5,1.06,0c0,.88.08,1.71.13,2.48.89,0,1.69-.13,2.39-.22Zm-5.24,4.81a1.83,1.83,0,0,0-1.19.33,1.07,1.07,0,0,0-.47.92,1,1,0,0,0,.61.93,2.78,2.78,0,0,0,1.15.21,1.68,1.68,0,0,0,1.44-.66,2.64,2.64,0,0,0,.39-1.32A4.79,4.79,0,0,0,171.41,82.19Z"/><path class="cls-4" d="M183.15,84.42a13.8,13.8,0,0,1,1.21,1.44l-.7.59a14.92,14.92,0,0,0-1.2-1.43,11.06,11.06,0,0,0-1.55-1.41l.63-.59A11.18,11.18,0,0,1,183.15,84.42Z"/><path class="cls-4" d="M204.85,77.46h-1.13a1.9,1.9,0,0,0-2.07-1.71,2,2,0,0,0-1.85,1.16,5.28,5.28,0,0,0-.66,2.8c0,.06,0,.19,0,.37h.06a2.71,2.71,0,0,1,1.08-1.21,2.78,2.78,0,0,1,1.55-.43,3,3,0,0,1,2.31.92,3.35,3.35,0,0,1,.87,2.39,3.39,3.39,0,0,1-1,2.45,3.29,3.29,0,0,1-2.42,1,3.15,3.15,0,0,1-2.75-1.36,6.24,6.24,0,0,1-.87-3.57,7.22,7.22,0,0,1,.94-3.9,3,3,0,0,1,2.69-1.57A2.88,2.88,0,0,1,204.85,77.46ZM200,80.06a2.36,2.36,0,0,0-.64,1.71A2.43,2.43,0,0,0,200,83.5a2.12,2.12,0,0,0,1.67.71,2.16,2.16,0,0,0,1.64-.69,2.56,2.56,0,0,0,.63-1.77,2.32,2.32,0,0,0-.62-1.7,2.13,2.13,0,0,0-1.65-.66A2.21,2.21,0,0,0,200,80.06Z"/><path class="cls-4" d="M219.62,76.37a8.55,8.55,0,0,1,0,7.22,3.09,3.09,0,0,1-5.4,0,8.55,8.55,0,0,1,0-7.22,3.09,3.09,0,0,1,5.4,0Zm-4.63.84a7.36,7.36,0,0,0-.42,2.77,7.47,7.47,0,0,0,.42,2.77,2,2,0,0,0,3.86,0,7.42,7.42,0,0,0,.44-2.77,7.31,7.31,0,0,0-.44-2.77,2,2,0,0,0-3.86,0Z"/><path class="cls-4" d="M230.29,86.34h-1V81.4c-.87.28-1.78.53-2.76.77l-.53-1a24.7,24.7,0,0,0,6-2,17.08,17.08,0,0,0-2.52-1.68l.87-.55a21.46,21.46,0,0,1,2.51,1.77,8.6,8.6,0,0,0,3.12-3h-5.18a14.39,14.39,0,0,1-3.65,2.37l-.67-.87a9.7,9.7,0,0,0,4.85-3.77l1.1.13a9.16,9.16,0,0,1-.75,1.19h5.46v.89a11.07,11.07,0,0,1-5.45,4.71h5.84v5.91h-1v-.83h-6.26Zm6.26-5h-6.26v3.16h6.26Z"/><path class="cls-4" d="M253,76.56c-1.55.06-3.05.1-4.5.13,0,.73,0,1.39.06,2,1.37,0,2.76,0,4.16-.09v1c-1.35,0-2.72,0-4.13.06,0,1,0,1.73,0,2.31.29.11.59.22.9.36a15.81,15.81,0,0,1,3.48,2.1l-.64.8a17.13,17.13,0,0,0-3.17-2c-.21-.1-.42-.18-.61-.26a3.6,3.6,0,0,1-.63,1.75,2.91,2.91,0,0,1-2.4,1,3.47,3.47,0,0,1-2-.52,1.94,1.94,0,0,1,0-3.22,3.27,3.27,0,0,1,2-.53,8.12,8.12,0,0,1,2,.25l0-2h-1.36c-.63,0-1.58,0-2.84,0l-.39,0v-.95l1.26,0c.76,0,1.41,0,2,0h1.36c0-.6,0-1.26-.06-2h-3.25l-1.45,0,0-1,1.47,0,2.15,0h1.07l0-1.84,1,0c0,.64,0,1.27.07,1.86,1.34,0,2.85-.08,4.52-.15Zm-7.41,5.72a2.27,2.27,0,0,0-1.26.32,1,1,0,0,0-.55.92,1,1,0,0,0,.54.89,2.32,2.32,0,0,0,1.24.29,1.9,1.9,0,0,0,1.58-.64,2.58,2.58,0,0,0,.44-1.49A7.6,7.6,0,0,0,245.55,82.28Z"/><path class="cls-4" d="M268.67,76l-2.52.12a2.9,2.9,0,0,0-1.61.75,7.69,7.69,0,0,0-1.76,1.89,4.7,4.7,0,0,0-.81,2.55,2.67,2.67,0,0,0,1.28,2.34,7.9,7.9,0,0,0,4,1l-.19,1a8.11,8.11,0,0,1-4.65-1.18,3.49,3.49,0,0,1-1.52-3A5.16,5.16,0,0,1,262,78.19a6.94,6.94,0,0,1,2.33-2.06c-2.08.17-4.35.36-6.78.62l-.14-1q6.72-.65,11.23-.71Zm-.9,3.91-.6.42a9.63,9.63,0,0,0-1.47-1.87l.56-.45A9.27,9.27,0,0,1,267.77,79.88Zm1.35-1-.61.43a10.1,10.1,0,0,0-1.45-1.88l.54-.43A9.65,9.65,0,0,1,269.12,78.92Z"/><path class="cls-4" d="M275.57,77.4v.87a10.9,10.9,0,0,1-2.88,7.33l-.64-.79a10.29,10.29,0,0,0,2.62-6.45h-2.33v-1Zm7-3.36V75a30.13,30.13,0,0,1-3.34,1.89v.93h1.73v.94h-1.73v1.31h2V81h-2v1.32h2.61v1h-2.61v2c0,.76-.36,1.15-1.09,1.15h-1.61l-.27-.94c.47,0,1,0,1.52,0,.28,0,.43-.19.43-.59V83.26h-2.72v-1h2.72V81H276v-.93h2.21V78.75h-1.9v-.94h1.9V76.42c1.26-.59,2.23-1.06,2.89-1.43h-6.64V74ZM285,77.52A8.73,8.73,0,0,1,284,79a8,8,0,0,1-1.15,1A11.21,11.21,0,0,0,285,84.88l-.71.72a14.1,14.1,0,0,1-2.67-8.7h.93a15.55,15.55,0,0,0,.14,2.2c.22-.21.43-.44.63-.67a8.22,8.22,0,0,0,.87-1.42Z"/><path class="cls-4" d="M291.29,74.81a16.09,16.09,0,0,0-.63,4.18,5.69,5.69,0,0,0,.28,2.07,5.34,5.34,0,0,1,.7-1.84l.85.41a9.05,9.05,0,0,0-1.05,2.65l-.87.15a3.73,3.73,0,0,1-.77-1.65,7.39,7.39,0,0,1-.19-1.79,14.81,14.81,0,0,1,.21-2.44,11.72,11.72,0,0,1,.46-2Zm6.94,4a7.53,7.53,0,0,1-1.12,4.34,8.53,8.53,0,0,1-3.71,2.75l-.6-.9a7.63,7.63,0,0,0,3.38-2.38,6.63,6.63,0,0,0,1-3.81,15,15,0,0,0-.5-4l1.05-.25A15.33,15.33,0,0,1,298.23,78.82Z"/><path class="cls-4" d="M314.56,76.56c-1.56.06-3.05.1-4.5.13,0,.73,0,1.39.06,2,1.37,0,2.76,0,4.16-.09v1c-1.35,0-2.72,0-4.13.06,0,1,0,1.73,0,2.31.29.11.59.22.9.36a15.81,15.81,0,0,1,3.48,2.1l-.64.8a17.13,17.13,0,0,0-3.17-2c-.21-.1-.42-.18-.61-.26a3.6,3.6,0,0,1-.63,1.75,2.91,2.91,0,0,1-2.4,1,3.47,3.47,0,0,1-1.95-.52,1.94,1.94,0,0,1,0-3.22,3.27,3.27,0,0,1,2-.53,8.12,8.12,0,0,1,2,.25l0-2h-1.36c-.63,0-1.58,0-2.84,0l-.39,0v-.95l1.26,0c.76,0,1.41,0,2,0h1.36c0-.6,0-1.26-.06-2h-3.25l-1.45,0,0-1,1.47,0,2.15,0H309l-.05-1.84,1,0c0,.64.05,1.27.08,1.86,1.34,0,2.85-.08,4.52-.15Zm-7.41,5.72a2.27,2.27,0,0,0-1.26.32,1,1,0,0,0-.55.92,1,1,0,0,0,.54.89,2.32,2.32,0,0,0,1.24.29,1.9,1.9,0,0,0,1.58-.64,2.58,2.58,0,0,0,.44-1.49A7.6,7.6,0,0,0,307.15,82.28Z"/><path class="cls-4" d="M326.74,73.82l0,1.9,3.88,0v.93l-3.87.06v.11c0,2,.06,3.14.06,3.57a5.59,5.59,0,0,1-1,3.59,7.78,7.78,0,0,1-3.34,2l-.49-.91a8.62,8.62,0,0,0,2.33-1.09,3.56,3.56,0,0,0,1.35-1.82,2,2,0,0,1-1.64.88,2.69,2.69,0,0,1-2-.79,2.76,2.76,0,0,1,0-3.65,2.64,2.64,0,0,1,2.06-.84,2,2,0,0,1,1.81,1,12.08,12.08,0,0,1-.1-1.62v-.37l-6.85.1v-.94l6.83-.09,0-1.92Zm-4,5.35a1.8,1.8,0,0,0,0,2.38,1.73,1.73,0,0,0,1.3.49,1.77,1.77,0,0,0,1.28-.5,1.75,1.75,0,0,0,0-2.41,1.81,1.81,0,0,0-2.58,0Z"/><path class="cls-4" d="M337.91,83.5a1.74,1.74,0,0,1,0,2.5,1.83,1.83,0,0,1-1.29.51,1.85,1.85,0,0,1-1.29-.49,1.66,1.66,0,0,1-.53-1.26,1.63,1.63,0,0,1,.53-1.26,1.78,1.78,0,0,1,1.29-.51A1.83,1.83,0,0,1,337.91,83.5Zm-2,.53a.89.89,0,0,0-.33.73.87.87,0,0,0,.33.71,1,1,0,0,0,.74.31,1.05,1.05,0,0,0,.74-.31.93.93,0,0,0,.32-.71.94.94,0,0,0-.32-.73,1,1,0,0,0-.74-.31A1,1,0,0,0,335.88,84Z"/><path class="cls-4" d="M358,76.88c-1.31.09-2.49.16-3.5.2v2a11.29,11.29,0,0,1,2.3-.22,4.59,4.59,0,0,1,2.93.89A3,3,0,0,1,361,82.29c0,2.33-1.56,3.5-4.65,3.5l-.23-1a5.09,5.09,0,0,0,3-.68,2.16,2.16,0,0,0,.85-1.84,2.2,2.2,0,0,0-.87-1.82,3.42,3.42,0,0,0-2.21-.66,9.48,9.48,0,0,0-2.3.27c0,1.22,0,2.52,0,3.91,0,1.16-.56,1.75-1.68,1.75a3.56,3.56,0,0,1-2.19-.63,2.17,2.17,0,0,1-.9-1.82A3.73,3.73,0,0,1,352,80a7.13,7.13,0,0,1,1.46-.65c0-.78,0-1.54,0-2.24l-1.45,0c-.74,0-1.37,0-1.87,0l0-1,1.88,0h1.46c0-.87,0-1.67,0-2.41h1.07c0,.73,0,1.53,0,2.38l3.45-.21Zm-5.23,3.84c-1.32.68-2,1.53-2,2.57a1.29,1.29,0,0,0,.58,1.09,2.16,2.16,0,0,0,1.33.38c.49,0,.74-.31.74-.91V80.42A5.19,5.19,0,0,0,352.78,80.72Zm9.14-2.63-.81.63a17.39,17.39,0,0,0-2.79-3l.77-.7A19.76,19.76,0,0,1,361.92,78.09Z"/><path class="cls-4" d="M367.7,80.67l-.53-.89A5.84,5.84,0,0,0,370,76.59h-3.55v9.78h-1V75.62h4.94a18.68,18.68,0,0,0,.47-2.15l1,.08a18.62,18.62,0,0,1-.47,2.07h5v9c0,1-.48,1.58-1.4,1.58h-2.09l-.28-1,2,0q.72,0,.72-.84V76.59h-4.32l-.17.44a38.82,38.82,0,0,1,3.74,2.47l-.56.86a37.39,37.39,0,0,0-3.56-2.55A6.33,6.33,0,0,1,367.7,80.67Zm0,3.86-.5-.91a6.19,6.19,0,0,0,3.39-4.2l1,.13a10.28,10.28,0,0,1-.5,1.51c1.12.69,2.27,1.47,3.43,2.35l-.56.84c-1.32-1-2.41-1.85-3.28-2.41A7,7,0,0,1,367.74,84.53Z"/><path class="cls-4" d="M390.55,76.63a4.67,4.67,0,0,1,1.53,3.53,4.92,4.92,0,0,1-1.4,3.69,7.86,7.86,0,0,1-3.94,1.76l-.35-1A6.72,6.72,0,0,0,390,83a4,4,0,0,0,1-2.87,3.64,3.64,0,0,0-1.31-2.88A4.37,4.37,0,0,0,387,76.16l-.29,2.6a14.79,14.79,0,0,1-.89,3.53c-.61,1.57-1.44,2.36-2.45,2.36a2.37,2.37,0,0,1-2-1.1,4.33,4.33,0,0,1-.74-2.57,5.59,5.59,0,0,1,1.59-4,5.82,5.82,0,0,1,4.46-1.79A5.5,5.5,0,0,1,390.55,76.63Zm-5.22,3.66a28.34,28.34,0,0,0,.6-4.11,4.79,4.79,0,0,0-2.85,1.32A4.58,4.58,0,0,0,381.63,81a3.54,3.54,0,0,0,.5,1.94,1.38,1.38,0,0,0,1.19.76C384.14,83.68,384.81,82.54,385.33,80.29Z"/><path class="cls-4" d="M404.21,76.88c-1.31.09-2.49.16-3.5.2v2a11.29,11.29,0,0,1,2.3-.22,4.59,4.59,0,0,1,2.93.89,3,3,0,0,1,1.22,2.55c0,2.33-1.56,3.5-4.65,3.5l-.23-1a5.09,5.09,0,0,0,3-.68,2.16,2.16,0,0,0,.85-1.84,2.2,2.2,0,0,0-.87-1.82,3.42,3.42,0,0,0-2.21-.66,9.48,9.48,0,0,0-2.3.27c0,1.22,0,2.52,0,3.91,0,1.16-.56,1.75-1.68,1.75a3.56,3.56,0,0,1-2.19-.63,2.17,2.17,0,0,1-.9-1.82A3.73,3.73,0,0,1,398.21,80a6.81,6.81,0,0,1,1.45-.65c0-.78,0-1.54,0-2.24l-1.44,0c-.75,0-1.38,0-1.88,0l0-1,1.88,0h1.46c0-.87,0-1.67,0-2.41h1.07c0,.73,0,1.53,0,2.38l3.45-.21ZM399,80.72c-1.32.68-2,1.53-2,2.57a1.29,1.29,0,0,0,.58,1.09,2.16,2.16,0,0,0,1.33.38c.49,0,.74-.31.74-.91V80.42A5.19,5.19,0,0,0,399,80.72Zm9.14-2.63-.81.63a17.39,17.39,0,0,0-2.79-3l.77-.7A19.76,19.76,0,0,1,408.12,78.09Z"/><path class="cls-4" d="M411.22,86.26l-.21-1a10.66,10.66,0,0,0,1.1.07c.36,0,.56-.21.56-.62V81.42c-.55.2-1.1.38-1.63.55l-.25-1a17.63,17.63,0,0,0,1.88-.56V77.19h-1.73v-1h1.73V73.72h1v2.51h1.46v1h-1.46V80c.51-.23,1-.46,1.47-.72v1q-.7.38-1.47.69v4c0,.84-.41,1.26-1.2,1.26Zm9.39-5.93V79.25h1v1.08h1.72v.94h-1.72V85a1.1,1.1,0,0,1-1.24,1.24h-1.86l-.22-1c.6,0,1.17.06,1.72.06a.52.52,0,0,0,.59-.57V81.27h-5.16v-.94Zm-.69-6.75V75h2.87V76h-2.87v1.63h3.41v1h-7.65v-1h3.25V76h-2.75V75h2.75V73.58Zm-1.33,10.6-.8.56a18.72,18.72,0,0,0-1.69-2.32l.81-.49A17.76,17.76,0,0,1,418.59,84.18Z"/><path class="cls-4" d="M438,76.75c-2,.11-4.28.19-6.67.25,0,.17-.09.35-.13.53A9.59,9.59,0,0,1,430,80.39,7.77,7.77,0,0,1,434.23,79a3.7,3.7,0,0,1,2.49.81,2.78,2.78,0,0,1,1,2.26,3.07,3.07,0,0,1-1.12,2.45,6,6,0,0,1-3.79,1,17.19,17.19,0,0,1-3-.23l.1-1a16.91,16.91,0,0,0,2.9.24,4.88,4.88,0,0,0,3-.79,2.06,2.06,0,0,0,.83-1.7,1.94,1.94,0,0,0-.66-1.52,2.61,2.61,0,0,0-1.78-.57,7.26,7.26,0,0,0-2.55.48,9.33,9.33,0,0,0-2.53,1.38l-.75-.67a10.87,10.87,0,0,0,1.67-3.62c.06-.19.1-.37.15-.57l-3.13,0V76h3.34c.14-.75.24-1.52.31-2.31l1.05.05c-.08.79-.18,1.54-.29,2.24,2.49,0,4.62-.15,6.4-.26Z"/><path class="cls-4" d="M445.13,73.71v6.82c0,2.66-.84,4.59-2.38,5.82L442,85.7c1.42-1.08,2.14-2.81,2.17-5.17V73.71ZM443,75.62v7.13h-.95V75.62Zm11,5.94h-.89V79.91h-2.73V81.2h2.72v3.28c0,.6-.34.91-1,.91h-.86l-.21-.81.74,0c.28,0,.42-.14.42-.39V82h-1.82v4.31h-.88V82h-1.82v3.42h-.87V81.2h2.69V79.91h-2.73v1.67h-.88V79.07H454Zm-7.33-3.32v-.79h5.42v-1H447v-.76h5.08v-.91h-5.52V74H453v4.23Z"/><path class="cls-4" d="M460.69,74.81a16.09,16.09,0,0,0-.63,4.18,5.69,5.69,0,0,0,.28,2.07,5.34,5.34,0,0,1,.7-1.84l.85.41a9.05,9.05,0,0,0-1.05,2.65l-.87.15a3.73,3.73,0,0,1-.77-1.65A7.39,7.39,0,0,1,459,79a14.81,14.81,0,0,1,.21-2.44,11.72,11.72,0,0,1,.46-2Zm6.95,4a7.53,7.53,0,0,1-1.13,4.34,8.53,8.53,0,0,1-3.71,2.75l-.6-.9a7.63,7.63,0,0,0,3.38-2.38,6.63,6.63,0,0,0,1-3.81,14.65,14.65,0,0,0-.5-4l1-.25A15.31,15.31,0,0,1,467.64,78.82Z"/><path class="cls-4" d="M475.21,74.38a29.79,29.79,0,0,0-.62,6.43,11.79,11.79,0,0,0,.77,4.47l-1,.35a12.33,12.33,0,0,1-.85-4.82,31.37,31.37,0,0,1,.62-6.6Zm9.44,3c-.7.09-1.49.16-2.37.22.08,1.88.13,3.36.14,4.44A12.52,12.52,0,0,1,485.09,84l-.63.77a15,15,0,0,0-2.08-1.64,3.13,3.13,0,0,1-.59,1.48,2.77,2.77,0,0,1-2.28,1,3.65,3.65,0,0,1-1.95-.48,1.82,1.82,0,0,1-.88-1.64,1.91,1.91,0,0,1,.78-1.64,3.07,3.07,0,0,1,2-.57,6.07,6.07,0,0,1,1.93.33c0-.94,0-2.24-.13-3.92q-.9,0-1.89,0c-1,0-1.93,0-2.73-.07v-1c.89,0,1.82.08,2.74.08.65,0,1.26,0,1.85,0l-.12-2.5,1.06,0c0,.88.09,1.71.13,2.48.89,0,1.69-.13,2.39-.22Zm-5.24,4.81a1.83,1.83,0,0,0-1.19.33,1.07,1.07,0,0,0-.47.92,1,1,0,0,0,.61.93,2.78,2.78,0,0,0,1.15.21,1.68,1.68,0,0,0,1.44-.66,2.64,2.64,0,0,0,.39-1.32A4.79,4.79,0,0,0,479.41,82.19Z"/><path class="cls-4" d="M499.57,73.92v.79h-5v.82h5.33v2.55H499v-1.8H494.6V79.2h-1V76.28h-4.38v1.85h-.95v-2.6h5.33v-.82h-5v-.79Zm-.78,5.74V84.2h-4.23v.57a.5.5,0,0,0,.58.56h3.72a.67.67,0,0,0,.53-.19,3.39,3.39,0,0,0,.28-1.46l.88.28a3.32,3.32,0,0,1-.5,1.93,1.49,1.49,0,0,1-1,.3h-4.15A1.1,1.1,0,0,1,493.63,85V84.2h-4.2V79.66ZM493,78.33V79h-3v-.64Zm0-1.33v.66h-3V77Zm.69,4.52v-1h-3.25v1Zm0,.79h-3.25v1.06h3.25Zm.93-.79h3.27v-1h-3.27Zm3.27.79h-3.27v1.06h3.27Zm.51-4V79h-3v-.64Zm0-1.33v.66h-3V77Z"/><path class="cls-4" d="M505.39,75.37a12.36,12.36,0,0,0-.73-1.61l1-.26a12.26,12.26,0,0,1,.67,1.69l-.48.18h2.33v.94h-5v-.94Zm-.81,11h-1V81.44h4.1v4.72h-1V85.5h-2.17Zm3-9v.89h-3.85v-.89Zm0,1.93v.91h-3.85v-.91Zm-.85,3h-2.17v2.23h2.17Zm4.75-4.72v-2.1c-.82.08-1.67.12-2.59.12l-.3-.91a17.43,17.43,0,0,0,6.28-1l.49.86a12.61,12.61,0,0,1-2.9.78v2.23h3.37v1h-3.37v2.25H515v5.48h-1v-.69h-4v.69h-1V80.86h2.51V78.61h-3.13v-1ZM514,84.71V81.77h-4v2.94Z"/><path class="cls-4" d="M521.71,79.13l-.71.71a16.66,16.66,0,0,0-2.31-2.1l.71-.69A14.53,14.53,0,0,1,521.71,79.13Zm.35,2.15a46.44,46.44,0,0,1-2.1,5l-1-.43a43.34,43.34,0,0,0,2.22-4.92Zm.13-5.46-.71.72A14.52,14.52,0,0,0,519,74.45l.73-.7A17.67,17.67,0,0,1,522.19,75.82Zm4.31.08a18.27,18.27,0,0,0-1-2.17l1-.26a15.52,15.52,0,0,1,.91,2.21l-.57.22H531v1H527.4v3.36h3.24v1H527.4v3.68h3.88v1h-8.89v-1h4V81.23h-3.25v-1h3.25V76.9h-3.64v-1Z"/><path class="cls-4" d="M540,75.9a11,11,0,0,0-1.4-2.1l1-.36a12.58,12.58,0,0,1,1.46,2.46h5.35v1h-2.19a14.17,14.17,0,0,1-3.09,5.56,18.42,18.42,0,0,0,5.59,3.13l-.55.84a18.84,18.84,0,0,1-5.74-3.25,14.59,14.59,0,0,1-6,3.23l-.53-.88a13.74,13.74,0,0,0,5.8-3,12.71,12.71,0,0,1-3.38-5.63h-2.16v-1Zm.44,5.94a12.56,12.56,0,0,0,2.74-4.93h-5.82A11.57,11.57,0,0,0,540.45,81.84Z"/><path class="cls-4" d="M556.44,79.21a1,1,0,0,1,.3.73,1,1,0,0,1-1,1,.94.94,0,0,1-.71-.3.92.92,0,0,1-.31-.71,1,1,0,0,1,.31-.73.94.94,0,0,1,.71-.29A1,1,0,0,1,556.44,79.21Z"/><path class="cls-4" d="M568.59,80.78a4,4,0,0,0-1.29,2.1c0,1.11,1.37,1.67,4.12,1.67a24.16,24.16,0,0,0,4.56-.41l.17,1a26.25,26.25,0,0,1-4.73.4c-3.48,0-5.2-.87-5.2-2.6a4.54,4.54,0,0,1,1.54-2.81Zm2.66-5.14c1.48,0,2.77-.06,3.86-.17l.38.88a33.51,33.51,0,0,0-3.33,2.24l-.6-.79c.65-.45,1.38-.9,2.17-1.34a19.13,19.13,0,0,1-2.48.14,24.76,24.76,0,0,1-4.3-.32l.14-1A21.91,21.91,0,0,0,571.25,75.64Zm5.52.12-.59.42a9.63,9.63,0,0,0-1.47-1.87l.56-.45A10,10,0,0,1,576.77,75.76Zm1.27-.84-.6.44A9.74,9.74,0,0,0,576,73.48l.55-.45A9.94,9.94,0,0,1,578,74.92Z"/><path class="cls-4" d="M586.73,77.52a15.21,15.21,0,0,0,2.62-2.46H582v-1h8.64v.81a16.63,16.63,0,0,1-3.18,3.2c.14.11.27.24.39.35h4.41v.87a13.85,13.85,0,0,1-2.47,2.91l-.8-.7a13.11,13.11,0,0,0,2.08-2.12h-3.92V85c0,.87-.42,1.32-1.26,1.32h-2l-.22-1c.66,0,1.29.07,1.89.07.39,0,.59-.22.59-.64V79.43h-5.46v-1h5.79a25.27,25.27,0,0,0-2.78-2l.68-.67A27.6,27.6,0,0,1,586.73,77.52Z"/><path class="cls-4" d="M597.17,82.94a14.12,14.12,0,0,1-.59,3.36l-.86-.27a12.22,12.22,0,0,0,.61-3.19Zm4-1-.85.23c-.06-.25-.13-.48-.19-.69a32.62,32.62,0,0,1-4,.72l-.25-.89a1.6,1.6,0,0,0,.44-.26,16.08,16.08,0,0,0,2.2-2.75c-.85.11-1.67.23-2.5.32l-.24-.86a1.26,1.26,0,0,0,.41-.37,20,20,0,0,0,2.14-3.89l.93.36a19.11,19.11,0,0,1-2.29,3.83c.7-.07,1.42-.17,2.12-.28.34-.55.7-1.14,1.06-1.77L601,76a31.48,31.48,0,0,1-3.74,5.24c.86-.14,1.73-.31,2.6-.52-.15-.49-.32-1-.5-1.42l.81-.25A20.17,20.17,0,0,1,601.15,82Zm-1.78,3.77-.89.21c-.12-1.15-.27-2.16-.44-3l.83-.18C599.05,83.67,599.22,84.67,599.37,85.75Zm1.93-.87-.79.35a22.31,22.31,0,0,0-.79-2.52l.76-.24A18.89,18.89,0,0,1,601.3,84.88Zm2.64-11.22a15.42,15.42,0,0,1-.69,2.27h4.57q0,7-.21,8.59a1.81,1.81,0,0,1-2.06,1.69c-.28,0-.74,0-1.4,0l-.24-.91c.57,0,1.08,0,1.5,0a1.18,1.18,0,0,0,1.25-1.16c.08-.79.14-3.2.16-7.22h-4a11.48,11.48,0,0,1-1.59,2.36l-.63-.8A10.9,10.9,0,0,0,603,73.54Zm1.43,8.48-.79.57a24.92,24.92,0,0,0-2.31-3.19L603,79A27.37,27.37,0,0,1,605.37,82.14Z"/><path class="cls-4" d="M622.87,76l-2.52.12a2.9,2.9,0,0,0-1.61.75A7.69,7.69,0,0,0,617,78.73a4.7,4.7,0,0,0-.81,2.55,2.67,2.67,0,0,0,1.28,2.34,7.9,7.9,0,0,0,4,1l-.19,1a8.11,8.11,0,0,1-4.65-1.18,3.49,3.49,0,0,1-1.52-3,5.16,5.16,0,0,1,1.11-3.16,6.94,6.94,0,0,1,2.33-2.06c-2.08.17-4.35.36-6.78.62l-.14-1q6.72-.65,11.23-.71Zm-.9,3.91-.6.42a9.63,9.63,0,0,0-1.47-1.87l.56-.45A9.27,9.27,0,0,1,622,79.88Zm1.35-1-.61.43a10.1,10.1,0,0,0-1.45-1.88l.54-.43A9.65,9.65,0,0,1,623.32,78.92Z"/></g></g><g class="cls-3"><g class="cls-3"><path class="cls-4" d="M247.47,46.8a4,4,0,0,0-1.29,2.1c0,1.11,1.37,1.67,4.12,1.67a24.08,24.08,0,0,0,4.56-.41l.17,1a25.33,25.33,0,0,1-4.73.41c-3.48,0-5.2-.87-5.2-2.6a4.57,4.57,0,0,1,1.54-2.81Zm2.66-5.14c1.48,0,2.77-.06,3.87-.17l.37.88A34.72,34.72,0,0,0,251,44.61l-.6-.8c.66-.44,1.38-.89,2.17-1.33a19,19,0,0,1-2.48.14,24.93,24.93,0,0,1-4.3-.32l.14-1A22.84,22.84,0,0,0,250.13,41.66Zm5.52.12-.59.42a9.63,9.63,0,0,0-1.47-1.87l.56-.45A10,10,0,0,1,255.65,41.78Zm1.27-.84-.6.44a9.74,9.74,0,0,0-1.46-1.88l.55-.45A9,9,0,0,1,256.92,40.94Z"/><path class="cls-4" d="M265.61,43.53a14.8,14.8,0,0,0,2.62-2.45h-7.35v-.95h8.64v.81a16.92,16.92,0,0,1-3.18,3.2,4.4,4.4,0,0,1,.39.35h4.42v.86a13.7,13.7,0,0,1-2.48,2.92l-.8-.7A13.57,13.57,0,0,0,270,45.45H266V51c0,.87-.42,1.31-1.26,1.31h-2l-.23-1c.66,0,1.29.07,1.89.07.4,0,.59-.22.59-.64V45.45h-5.46v-1h5.8a24.2,24.2,0,0,0-2.79-2l.69-.67A29,29,0,0,1,265.61,43.53Z"/><path class="cls-4" d="M276.06,49a15.2,15.2,0,0,1-.59,3.36l-.87-.27a12.22,12.22,0,0,0,.61-3.19Zm4-1-.85.23c-.06-.26-.13-.48-.18-.69a32.84,32.84,0,0,1-4,.71l-.26-.88a1.6,1.6,0,0,0,.44-.26,16.08,16.08,0,0,0,2.2-2.75l-2.5.32-.23-.87a1.11,1.11,0,0,0,.4-.36,20.55,20.55,0,0,0,2.15-3.89l.92.36a19.2,19.2,0,0,1-2.28,3.82c.7-.07,1.41-.16,2.11-.28.34-.54.7-1.13,1.07-1.76l.88.34a30.31,30.31,0,0,1-3.74,5.23c.87-.14,1.74-.3,2.6-.51-.15-.49-.32-1-.5-1.42l.81-.25A19,19,0,0,1,280,48Zm-1.78,3.77-.89.21c-.11-1.15-.27-2.16-.44-3l.83-.18C277.93,49.68,278.1,50.69,278.25,51.77Zm1.94-.87-.8.35a22.31,22.31,0,0,0-.79-2.52l.76-.24A20.58,20.58,0,0,1,280.19,50.9Zm2.63-11.22a15.42,15.42,0,0,1-.69,2.27h4.57q0,7-.21,8.59a1.81,1.81,0,0,1-2.06,1.69l-1.4,0-.24-.91c.58,0,1.08,0,1.5,0a1.17,1.17,0,0,0,1.25-1.16q.12-1.18.17-7.22h-4a11.8,11.8,0,0,1-1.6,2.36l-.63-.8a10.8,10.8,0,0,0,2.39-4.93Zm1.43,8.48-.79.57a24.24,24.24,0,0,0-2.31-3.19l.77-.49A26.51,26.51,0,0,1,284.25,48.16Z"/><path class="cls-4" d="M296.92,45.23a1,1,0,0,1,.31.73,1,1,0,0,1-1,1,1,1,0,0,1-.71-.3.92.92,0,0,1-.31-.71,1,1,0,0,1,1-1A1,1,0,0,1,296.92,45.23Z"/><path class="cls-4" d="M314.1,42.9c-1.32.09-2.5.16-3.5.2v2a10.46,10.46,0,0,1,2.29-.23,4.59,4.59,0,0,1,2.93.9A3,3,0,0,1,317,48.31c0,2.33-1.56,3.5-4.65,3.5l-.23-1a5.17,5.17,0,0,0,3-.68,2.16,2.16,0,0,0,.85-1.84,2.21,2.21,0,0,0-.86-1.82,3.45,3.45,0,0,0-2.22-.66,9.33,9.33,0,0,0-2.29.27c0,1.22,0,2.52,0,3.91,0,1.16-.56,1.75-1.68,1.75a3.56,3.56,0,0,1-2.19-.63,2.17,2.17,0,0,1-.89-1.83A3.74,3.74,0,0,1,308.09,46a7.88,7.88,0,0,1,1.45-.64c0-.79,0-1.54,0-2.24l-1.44,0c-.74,0-1.37,0-1.88,0v-1l1.87,0h1.46c0-.87,0-1.67,0-2.41h1.06c0,.73,0,1.52,0,2.38l3.44-.21Zm-5.24,3.84a2.94,2.94,0,0,0-2,2.56,1.28,1.28,0,0,0,.57,1.1,2.21,2.21,0,0,0,1.33.38c.49,0,.74-.31.74-.91V46.43C309.31,46.52,309.08,46.63,308.86,46.74ZM318,44.11l-.82.63a17.41,17.41,0,0,0-2.78-3.06l.77-.7A21.35,21.35,0,0,1,318,44.11Z"/><path class="cls-4" d="M326.33,45.37h-3.95v7h-1V40.05h5Zm-1-4.43h-2.94V42.3h2.94Zm-2.94,3.53h2.94V43.16h-2.94Zm7.3,2v4.16H324.3V46.5Zm-1,.9h-3.42v2.37h3.42Zm-1.12-2V40.05h5v11.1a1,1,0,0,1-1.17,1.17c-.49,0-1,0-1.45,0l-.25-1c.47,0,.91.06,1.33.06a.48.48,0,0,0,.54-.55V45.37Zm4-4.41h-3V42.3h3Zm-3,3.5h3v-1.3h-3Z"/><path class="cls-4" d="M338.2,41.54a25.36,25.36,0,0,0-.26,3.72,9.09,9.09,0,0,0,.64,3.71c.39.84.85,1.27,1.41,1.27.37,0,.7-.37,1-1.13a8.72,8.72,0,0,0,.47-1.61l1.07.25a7.79,7.79,0,0,1-.92,2.49,1.91,1.91,0,0,1-1.6,1.08,2.6,2.6,0,0,1-2.36-1.72,9.51,9.51,0,0,1-.83-4.34,25.17,25.17,0,0,1,.28-3.84Zm10.45,7.71-1.09,0c-.17-3.1-.95-5.49-2.37-7.17l.88-.66A13,13,0,0,1,348.65,49.25Z"/><path class="cls-4" d="M358.17,39.54a20.05,20.05,0,0,0,6.16,4.86l-.55,1a19.93,19.93,0,0,1-6-4.92,20.25,20.25,0,0,1-6,4.95l-.54-1a20.58,20.58,0,0,0,6.21-4.89Zm4.06,12.85h-1v-.84h-6.89v.84h-1V46.74h8.85ZM361.45,44v1h-7.29V44Zm-.2,6.58V47.69h-6.89v2.89Z"/><path class="cls-4" d="M378.55,43.83a4.34,4.34,0,0,1,1,3,4.15,4.15,0,0,1-1.41,3.25A7.62,7.62,0,0,1,374,51.62l-.37-1a7.18,7.18,0,0,0,3.71-1.27,3.22,3.22,0,0,0,1.22-2.58,3.48,3.48,0,0,0-.76-2.31,2.84,2.84,0,0,0-2.28-1,6.67,6.67,0,0,0-4.08,1.82c-.15.11-.31.25-.48.4q-.07,3.72-.08,6.15h-1c0-1.64,0-3.34.05-5.14-.67.67-1.42,1.51-2.25,2.5l-.79-.68a36.09,36.09,0,0,1,3.09-3.33l.05-2.09-2.46.16-.06-1,2.55-.17.06-2.34,1,0c0,.56,0,1.33-.06,2.28l.44.39-.48,1c0,.27,0,.54,0,.8a7.28,7.28,0,0,1,4.51-1.83A3.76,3.76,0,0,1,378.55,43.83Z"/><path class="cls-4" d="M392.13,43.59l2.44-.11,0,1-2.47.11v.1a9.56,9.56,0,0,1-.28,2.87,1.54,1.54,0,0,1-1.58,1,7.8,7.8,0,0,1-1.72-.22v-1a9.44,9.44,0,0,0,1.68.21c.39,0,.66-.34.77-1a13.08,13.08,0,0,0,.09-1.91v-.08l-4.89.21,0,3.5a2.07,2.07,0,0,0,.74,1.78,3.41,3.41,0,0,0,2,.47c1.63,0,3.07-.07,4.35-.19l.07,1c-1.43.13-2.9.2-4.42.2a4.42,4.42,0,0,1-2.73-.7,3,3,0,0,1-1-2.55c0-.7,0-1.85,0-3.46l-2.5.1,0-1,2.55-.12,0-3.25h1.05l0,3.21,4.89-.21c0-1.34-.05-2.49-.09-3.42h1C392.09,41.19,392.12,42.33,392.13,43.59Z"/><path class="cls-4" d="M400.49,40.4a29.79,29.79,0,0,0-.62,6.43,11.7,11.7,0,0,0,.77,4.46l-1,.35a12.06,12.06,0,0,1-.86-4.81,32,32,0,0,1,.62-6.6Zm9.44,3c-.7.1-1.49.17-2.37.23.09,1.88.13,3.36.14,4.44A12.56,12.56,0,0,1,410.38,50l-.63.77a15.6,15.6,0,0,0-2.09-1.64,3,3,0,0,1-.59,1.48,2.75,2.75,0,0,1-2.28,1,3.68,3.68,0,0,1-2-.47,1.84,1.84,0,0,1-.88-1.64,1.91,1.91,0,0,1,.78-1.64,3.09,3.09,0,0,1,1.95-.57,6.07,6.07,0,0,1,1.93.33c0-.94-.05-2.24-.12-3.92-.61,0-1.24,0-1.89,0-1,0-1.94,0-2.73-.07l0-1c.9,0,1.82.08,2.75.08.64,0,1.26,0,1.85,0l-.13-2.51h1.06c.05.88.09,1.71.13,2.48.9-.06,1.69-.13,2.4-.22Zm-5.24,4.82a1.85,1.85,0,0,0-1.19.33,1.06,1.06,0,0,0-.46.92.94.94,0,0,0,.6.92,2.62,2.62,0,0,0,1.15.21,1.67,1.67,0,0,0,1.44-.65,2.46,2.46,0,0,0,.39-1.32A4.79,4.79,0,0,0,404.69,48.21Z"/><path class="cls-4" d="M416.87,46.8a4,4,0,0,0-1.29,2.1c0,1.11,1.37,1.67,4.12,1.67a24.08,24.08,0,0,0,4.56-.41l.17,1a25.33,25.33,0,0,1-4.73.41c-3.48,0-5.2-.87-5.2-2.6A4.57,4.57,0,0,1,416,46.15Zm2.66-5.14c1.62,0,3-.06,4.08-.17l.39.88a34.81,34.81,0,0,0-3.56,2.24l-.6-.8c.77-.5,1.51-1,2.22-1.34a17.7,17.7,0,0,1-2.53.15,24.84,24.84,0,0,1-4.3-.32l.14-1A22.84,22.84,0,0,0,419.53,41.66Z"/><path class="cls-4" d="M440.24,42.76c-2.05.12-4.27.2-6.67.26,0,.16-.08.35-.12.53a9.85,9.85,0,0,1-1.18,2.86,7.77,7.77,0,0,1,4.24-1.36,3.74,3.74,0,0,1,2.5.81,2.79,2.79,0,0,1,1,2.25,3,3,0,0,1-1.12,2.46,6,6,0,0,1-3.79,1,16.26,16.26,0,0,1-3-.24l.1-1a17,17,0,0,0,2.9.24,4.88,4.88,0,0,0,3-.79,2.08,2.08,0,0,0,.83-1.71,1.89,1.89,0,0,0-.66-1.51,2.61,2.61,0,0,0-1.78-.57,7.51,7.51,0,0,0-2.55.47,10,10,0,0,0-2.53,1.39l-.74-.67a10.87,10.87,0,0,0,1.66-3.62c.06-.19.1-.37.16-.57h-3.14v-1h3.35a21.29,21.29,0,0,0,.3-2.32l1.06.06c-.09.78-.19,1.54-.3,2.24q3.74-.09,6.4-.27Z"/><path class="cls-4" d="M447.5,42.37a18.17,18.17,0,0,1-.73,4.54,6.56,6.56,0,0,1,2.13-1.16,7.19,7.19,0,0,1,2.52-.44,4.1,4.1,0,0,1,2.52.76A2.55,2.55,0,0,1,455,48.2a3,3,0,0,1-1.48,2.67,7,7,0,0,1-3.68.86c-.84,0-1.74,0-2.67-.1l.06-1c.92.07,1.79.11,2.61.11a5.68,5.68,0,0,0,3.05-.67,2.1,2.1,0,0,0,1.05-1.85,1.7,1.7,0,0,0-.66-1.35,2.82,2.82,0,0,0-1.85-.57,7.18,7.18,0,0,0-2.62.46,8.49,8.49,0,0,0-2.43,1.5l-.87-.39a20.73,20.73,0,0,0,.95-5.56ZM450,40.51a22.54,22.54,0,0,1,3.13.88l-.39.9a23.87,23.87,0,0,0-3-.83,29.28,29.28,0,0,0-3-.55l.23-1A26,26,0,0,1,450,40.51Z"/><path class="cls-4" d="M470.84,42.58c-1.55.06-3,.1-4.49.13,0,.73,0,1.38,0,2l4.16-.09v1c-1.34,0-2.71,0-4.13.05,0,1,0,1.74,0,2.32.3.11.59.22.9.36a15.87,15.87,0,0,1,3.49,2.1l-.65.8a16.87,16.87,0,0,0-3.16-2c-.21-.1-.42-.18-.62-.26a3.44,3.44,0,0,1-.63,1.75,2.88,2.88,0,0,1-2.4.95,3.41,3.41,0,0,1-1.94-.52,1.8,1.8,0,0,1-.86-1.6,1.82,1.82,0,0,1,.87-1.62,3.22,3.22,0,0,1,2-.53,8.26,8.26,0,0,1,2,.25l0-2H464l-2.85,0-.39,0v-1l1.26,0c.76,0,1.42,0,2,0h1.36c0-.6,0-1.26-.05-2h-3.25l-1.46,0v-1l1.47,0,2.14,0h1.08l-.06-1.85,1,0c0,.64,0,1.27.07,1.86,1.34,0,2.86-.09,4.52-.15Zm-7.41,5.72a2.19,2.19,0,0,0-1.26.32,1,1,0,0,0-.54.92,1,1,0,0,0,.53.89,2.37,2.37,0,0,0,1.24.29,1.93,1.93,0,0,0,1.59-.64,2.66,2.66,0,0,0,.43-1.49A7.2,7.2,0,0,0,463.43,48.3Z"/><path class="cls-4" d="M486.55,42l-2.52.12a2.9,2.9,0,0,0-1.61.75,7.15,7.15,0,0,0-1.75,1.89,4.62,4.62,0,0,0-.81,2.55,2.68,2.68,0,0,0,1.27,2.34,7.92,7.92,0,0,0,4,1l-.2,1a8.11,8.11,0,0,1-4.65-1.17,3.5,3.5,0,0,1-1.51-3,5.15,5.15,0,0,1,1.1-3.16,7.13,7.13,0,0,1,2.33-2.06c-2.08.17-4.34.36-6.78.61l-.14-1c4.48-.44,8.22-.67,11.23-.72Zm-.9,3.91-.6.42a9.7,9.7,0,0,0-1.47-1.88l.56-.44A8.77,8.77,0,0,1,485.65,45.9Zm1.35-1-.6.44a9.74,9.74,0,0,0-1.46-1.88l.55-.43A9.84,9.84,0,0,1,487,44.93Z"/></g></g></svg>