<svg xmlns="http://www.w3.org/2000/svg" width="360" height="96.053"><defs><style>.c{fill:#fff}</style></defs><text transform="translate(0 91.053)" font-size="14" font-family="PTSans-Regular,PT Sans" fill="#fff"><tspan x="0" y="0">Copyright(C) 2020 </tspan><tspan y="0" font-family="PingFangSC-Regular,PingFang SC">焼肉ダルマ 青江店</tspan><tspan y="0"> All Rights Reserved.</tspan></text><path class="c" d="M163.292 40.719a2.307 2.307 0 00-1.209-.852 4.012 4.012 0 00-1.07-.139h-2.894a.128.128 0 00-.119.119v6.363a.128.128 0 00.119.119h2.894a2.591 2.591 0 002.359-1.249 4.078 4.078 0 00.555-2.2 4.179 4.179 0 00-.139-1.07 2.613 2.613 0 00-.496-1.091zm-1.229 3.409a1.262 1.262 0 01-1.269.852h-1.188v-3.944h1.189c.595 0 .991.159 1.169.476a2.866 2.866 0 01.3 1.447 3.08 3.08 0 01-.201 1.169zM170.696 45.734a.931.931 0 01-.1-.436l-.02-.733v-2.894a1.55 1.55 0 00-.813-1.546 4.29 4.29 0 00-1.863-.4 2.714 2.714 0 00-2.26.832 2.449 2.449 0 00-.476 1.348h.1l1.523.023a1.292 1.292 0 01.258-.575 1.056 1.056 0 01.813-.277 1.723 1.723 0 01.793.139.521.521 0 01.258.515.5.5 0 01-.337.456 2.779 2.779 0 01-.654.139l-.555.059a3.938 3.938 0 00-1.467.416 1.862 1.862 0 00-.912 1.7 1.807 1.807 0 00.575 1.407 2.054 2.054 0 001.427.5 2.25 2.25 0 001.209-.317 3.2 3.2 0 00.753-.614c0 .059.04.337.04.337l.1.357 1.824.02.02-.258a1.376 1.376 0 01-.236-.198zm-1.8-2.6v.575a1.317 1.317 0 01-.456 1.13 1.721 1.721 0 01-.971.317.848.848 0 01-.555-.178.7.7 0 01-.238-.595.744.744 0 01.377-.694 2.692 2.692 0 01.753-.218l.377-.079.436-.119s.213-.096.268-.136zm-3.687-1.269a.15.15 0 01.02-.079.15.15 0 00-.02.079zM175.84 39.728h-.079a1.9 1.9 0 00-1.229.4 3.1 3.1 0 00-.634.813V39.91l-1.586-.02-.02 6.3 1.665.02.02-3.013a2.312 2.312 0 01.2-1.11 1.374 1.374 0 011.328-.634h.2l.277.02V41.353l.04-1.586a.735.735 0 00-.182-.039zM181.224 43.315a2.611 2.611 0 01-.159.971 1.166 1.166 0 01-1.15.674.892.892 0 01-.872-.456 2.015 2.015 0 01-.119-.793v-3.785a.019.019 0 00-.02-.02h-1.7l-.02 3.806a3.971 3.971 0 00.277 1.645 1.921 1.921 0 001.9 1.031 2.679 2.679 0 00.852-.119 2.15 2.15 0 00.753-.476l.218-.258.079-.119v.813l1.645.02.02-6.3-1.7-.02zM193.4 40.481a1.873 1.873 0 00-.753-.575 2.477 2.477 0 00-.833-.159 2.452 2.452 0 00-1.15.258 2.029 2.029 0 00-.793.793 1.807 1.807 0 00-.535-.733 1.942 1.942 0 00-1.169-.317 1.915 1.915 0 00-1.249.377 2.362 2.362 0 00-.535.654v-.852l-1.645-.02-.02 6.283 1.7.02.02-3.806a1.5 1.5 0 01.139-.753.958.958 0 01.932-.436.808.808 0 01.793.436 1.95 1.95 0 01.119.793v3.726l1.665.02.02-3.746a1.582 1.582 0 01.139-.714.957.957 0 01.932-.555.8.8 0 01.793.416 1.236 1.236 0 01.119.575v3.982l1.7.02c.02-.02.04-3.964.04-3.964a5.6 5.6 0 00-.059-.932 1.967 1.967 0 00-.37-.791zM200.782 45.734a.931.931 0 01-.1-.436l-.02-.733v-2.894a1.55 1.55 0 00-.808-1.543 4.29 4.29 0 00-1.863-.4 2.714 2.714 0 00-2.26.832 2.393 2.393 0 00-.476 1.348h.1l1.526.02a1.292 1.292 0 01.258-.575 1.056 1.056 0 01.813-.277 1.582 1.582 0 01.773.139.521.521 0 01.258.515.5.5 0 01-.337.456 2.779 2.779 0 01-.654.139l-.555.059a3.938 3.938 0 00-1.467.416 1.862 1.862 0 00-.912 1.7 1.807 1.807 0 00.575 1.407 2.054 2.054 0 001.427.5 2.25 2.25 0 001.209-.317 3.292 3.292 0 00.753-.614c0 .059.04.337.04.337l.1.357 1.824.02.02-.258c-.085-.079-.164-.139-.224-.198zm-1.784-2.6v.575a1.343 1.343 0 01-.456 1.13 1.721 1.721 0 01-.971.317.848.848 0 01-.555-.178.7.7 0 01-.238-.595.744.744 0 01.377-.694 2.491 2.491 0 01.753-.218l.377-.079.436-.119c-.02.003.198-.096.277-.136zm-3.707-1.269a.15.15 0 01.02-.079.15.15 0 00-.02.079z"/><g><path class="c" d="M178.179 20.438a17.6 17.6 0 00-4.6-3.568c-.317-.2-.277-.278.139-.238a21.165 21.165 0 015.847 1.7 20.691 20.691 0 002.757-6.155c.04-.337-.079-.5-.377-.5q-.178 0-2.854.238c-1.982.178-3.132.258-3.429.258a24.949 24.949 0 01-3.707 3.647 22.612 22.612 0 01-5.451 3.489 2.917 2.917 0 01-.614.218l-.02.02a9.01 9.01 0 00-1.288 2.24c-1.249 2.676-.515 5.867.912 8.166a25.721 25.721 0 005.649-2.735 26.521 26.521 0 007.036-6.78z"/><path class="c" d="M192.648 28.387a8.688 8.688 0 00-1.665-9.693 14.6 14.6 0 000-2.735c-.515-2.934-.674-6.184-1.863-8.92a11.359 11.359 0 00-3.667-4.678 10.5 10.5 0 00-6.521-2.359c-5.074.1-6.779 1.685-8.246 3.052-2.339 2.157-3.486 5.357-4.123 8.366-.416 2.973-.832 4.618-.515 7.592a.916.916 0 00.139-.139 26.158 26.158 0 005.728-6.085 24.743 24.743 0 002.795-5.491c.3-.714-.02-1.269-.912-1.606q-.387-.059-.059-.3a3.829 3.829 0 011.546-.5 5.117 5.117 0 012.5 1.051c1.051.714 1.586 1.308 1.586 1.744a.506.506 0 01-.3.5 2.567 2.567 0 00-.614.357 14.8 14.8 0 00-1.586 2.042 23.729 23.729 0 004.777-.5 2.462 2.462 0 001.052-.548 1.554 1.554 0 01.813-.436 8.56 8.56 0 012.416 1.21q1.486 1.009 1.486 1.6a.727.727 0 01-.416.654 3.022 3.022 0 00-1.011 1.051c-.159.258-.416.714-.773 1.387-.515.932-.832 1.526-.971 1.764-.872 1.586-1.487 2.6-1.824 3.092a10.326 10.326 0 013.211 4.6c.258 1.546-.595 2.478-1.923 2.161-.5-.119-2.3-2-3.647-3.707-3.389 3.766-8.107 6.283-14.113 7.592a11.142 11.142 0 005.55 3.409c5.431 1.566 12.091 1.249 16.154-.773a12.125 12.125 0 004.996-4.754zM188.9 8.843a1.79 1.79 0 01-.712 1.068 1.48 1.48 0 01-1.249.258c-.694-.159-1.269-.813-1.724-1.982a19.09 19.09 0 00-2.061-4.123 5.36 5.36 0 011.249.139 6.634 6.634 0 013.072 1.724q1.725 1.548 1.425 2.916z"/></g><path class="c" d="M192.032 3.293a5.7 5.7 0 00-2.854-1.427 6.4 6.4 0 00-1.269-.04 19.005 19.005 0 012.2 3.885c.456 1.11 1.011 1.7 1.606 1.784a1.353 1.353 0 001.13-.357 1.716 1.716 0 00.595-1.09 3.139 3.139 0 00-1.408-2.755z"/></svg>