<svg width="33" height="39" viewBox="0 0 33 39" fill="none" xmlns="http://www.w3.org/2000/svg">
<path d="M15.922 22.5293C14.722 21.1293 12.822 19.7293 10.822 18.6293C10.522 18.4293 10.522 18.3293 10.922 18.3293C12.922 18.5293 15.322 19.3293 17.322 20.2293C18.822 17.9293 19.822 15.6293 20.322 13.4293C20.322 13.0293 20.222 12.9293 19.922 12.9293C19.822 12.9293 18.722 13.0293 16.722 13.2293C14.522 13.4293 13.322 13.5293 12.922 13.5293C11.922 14.8293 10.522 16.1293 8.82195 17.5293C6.72195 19.3293 4.72195 20.5293 2.82195 21.3293C2.52195 21.4293 2.32196 21.5293 2.12196 21.5293C1.42196 22.2293 0.921961 23.1293 0.721961 24.0293C-0.678039 26.9293 0.121961 30.5293 1.72196 33.0293C4.02196 32.2293 6.02196 31.2293 7.92196 30.0293C11.122 28.1293 13.722 25.6293 15.922 22.5293Z" fill="#007BFF"/>
<path d="M30.0222 20.6292V17.6292C29.4222 14.4292 29.3222 10.8292 27.9222 7.82925C27.2222 5.82925 25.7222 4.12925 23.9222 2.62925C22.1222 1.52925 20.2222 0.529246 18.1222 0.229246C15.8222 -0.370754 13.5222 0.329246 11.5222 0.929246C11.3222 1.02925 11.1222 1.12925 10.9222 1.12925C9.52222 2.02925 7.92223 2.62925 6.72223 4.02925V4.12925C4.62223 6.12925 3.82223 8.52925 3.22223 11.1292C2.72223 14.4292 2.12222 17.7292 2.42222 20.9292C2.42222 20.9292 2.52222 20.8292 2.62222 20.8292C5.12222 18.9292 7.22222 16.7292 8.92222 14.1292C10.2222 12.1292 11.2222 10.1292 12.0222 8.12925C12.3222 7.32925 12.0222 6.72925 11.0222 6.32925C10.7222 6.32925 10.7222 6.12925 10.9222 6.02925C11.6222 5.62925 12.2222 5.52925 12.6222 5.52925C13.3222 5.52925 14.2222 5.92925 15.4222 6.72925C16.6222 7.52925 17.1222 8.12925 17.1222 8.62925C17.1222 8.92925 17.0222 9.02925 16.8222 9.12925C16.4222 9.32925 16.2222 9.42925 16.1222 9.52925C15.6222 10.0292 15.0222 10.7292 14.4222 11.7292C16.3222 11.7292 18.1222 11.5292 19.7222 11.2292C20.0222 11.2292 20.4222 10.9292 20.9222 10.6292C21.3222 10.3292 21.6222 10.1292 21.8222 10.1292C22.1222 10.1292 23.0222 10.5292 24.5222 11.4292C25.6222 12.1292 26.1222 12.7292 26.1222 13.2292C26.1222 13.5292 25.9222 13.8292 25.7222 13.9292C25.2222 14.2292 24.9222 14.6292 24.6222 15.1292C24.4222 15.4292 24.1222 15.9292 23.7222 16.6292C23.1222 17.6292 22.8222 18.3292 22.6222 18.6292C21.6222 20.3292 21.0222 21.5292 20.6222 22.0292C22.3222 23.4292 23.9222 25.9292 24.1222 27.1292C24.4222 28.8292 23.4222 29.8292 22.0222 29.5292C21.4222 29.4292 19.5222 27.3292 18.0222 25.4292C14.3222 29.5292 9.12222 32.3292 2.42222 33.8292C4.02222 35.8292 6.22223 36.9292 8.52223 37.5292C14.5222 39.2292 20.8222 39.0292 26.3222 36.6292C27.6222 36.0292 28.9222 35.1292 30.0222 34.1292C30.7222 33.2292 31.3222 32.3292 31.8222 31.3292C33.5222 27.9292 32.7222 23.3292 30.0222 20.6292ZM27.7222 9.72925C27.6222 10.2292 27.3222 10.6292 26.9222 10.9292C26.5222 11.2292 26.0222 11.3292 25.5222 11.2292C24.7222 11.0292 24.1222 10.3292 23.6222 9.02925C23.0222 7.42925 22.2222 5.82925 21.3222 4.52925C21.8222 4.52925 22.2222 4.52925 22.7222 4.62925C23.8222 4.82925 25.0222 5.52925 26.1222 6.52925C27.4222 7.72925 27.9222 8.72925 27.7222 9.72925Z" fill="#007BFF"/>
<path d="M2.52193 21.0292C2.02193 21.4292 2.02192 21.6292 2.32192 21.5292L2.52193 21.1292V21.0292Z" fill="#007BFF"/>
<path d="M31.2227 3.62922C30.1227 2.72922 29.1227 2.22922 28.1227 2.02922C27.7227 1.92922 27.2227 1.92922 26.7227 2.02922C27.7227 3.52922 28.6227 4.92922 29.1227 6.32922C29.6227 7.52922 30.2227 8.22922 30.9227 8.32922C31.4227 8.42922 31.8227 8.22922 32.1227 7.92922C32.5227 7.62922 32.7226 7.22922 32.8226 6.72922C32.9226 5.62922 32.4227 4.62922 31.2227 3.62922Z" fill="#007BFF"/>
</svg>
