<?xml version="1.0" encoding="utf-8"?>
<!-- Generator: Adobe Illustrator 23.1.0, SVG Export Plug-In . SVG Version: 6.00 Build 0)  -->
<svg version="1.1" id="Layer_1" xmlns="http://www.w3.org/2000/svg" xmlns:xlink="http://www.w3.org/1999/xlink" x="0px" y="0px"
	 viewBox="0 0 360 96.1" style="enable-background:new 0 0 360 96.1;" xml:space="preserve">
<style type="text/css">
	.st0{enable-background:new    ;}
	.st1{fill:#FFFFFF;}
</style>
<g>
	<g class="st0">
		<path class="st1" d="M9.1,91.6C8.8,91.8,8.4,92,8,92.1c-0.4,0.1-0.9,0.1-1.4,0.1c-0.6,0-1.1-0.1-1.7-0.3c-0.5-0.2-1-0.5-1.3-0.9
			C3.3,90.6,3,90,2.7,89.4c-0.2-0.6-0.3-1.4-0.3-2.3c0-0.9,0.1-1.7,0.4-2.3c0.2-0.6,0.6-1.2,1-1.6s0.9-0.7,1.4-0.9
			c0.5-0.2,1-0.3,1.5-0.3c0.6,0,1,0,1.4,0.1c0.4,0.1,0.7,0.1,0.9,0.2l-0.3,1c-0.4-0.2-1.1-0.3-1.9-0.3c-0.4,0-0.8,0.1-1.1,0.2
			c-0.4,0.1-0.7,0.4-1,0.7c-0.3,0.3-0.5,0.7-0.7,1.2c-0.2,0.5-0.3,1.1-0.3,1.9c0,0.7,0.1,1.3,0.3,1.8s0.4,0.9,0.7,1.3s0.6,0.6,1,0.8
			c0.4,0.2,0.8,0.3,1.3,0.3c0.4,0,0.8,0,1.1-0.1s0.6-0.2,0.8-0.3L9.1,91.6z"/>
		<path class="st1" d="M10.2,88.5c0-1.2,0.3-2.1,0.8-2.7s1.3-0.9,2.3-0.9c0.5,0,1,0.1,1.4,0.3s0.7,0.4,1,0.7s0.4,0.7,0.6,1.2
			c0.1,0.5,0.2,1,0.2,1.5c0,1.2-0.3,2.1-0.8,2.7s-1.3,0.9-2.3,0.9c-0.5,0-1-0.1-1.4-0.3c-0.4-0.2-0.7-0.4-1-0.7
			c-0.3-0.3-0.4-0.7-0.6-1.2C10.2,89.6,10.2,89.1,10.2,88.5z M11.3,88.5c0,0.4,0,0.7,0.1,1c0.1,0.3,0.2,0.6,0.3,0.9
			c0.1,0.2,0.3,0.4,0.6,0.6s0.5,0.2,0.9,0.2c1.3,0,1.9-0.9,1.9-2.7c0-0.4,0-0.7-0.1-1c-0.1-0.3-0.2-0.6-0.3-0.9
			c-0.1-0.2-0.3-0.4-0.6-0.6c-0.2-0.1-0.5-0.2-0.9-0.2C12,85.8,11.3,86.7,11.3,88.5z"/>
		<path class="st1" d="M18.4,85h0.8l0.2,0.8h0.1c0.2-0.3,0.5-0.6,0.8-0.7s0.7-0.3,1.2-0.3c0.9,0,1.6,0.3,2.1,0.8
			c0.5,0.6,0.7,1.5,0.7,2.7c0,0.6-0.1,1.1-0.2,1.6c-0.2,0.5-0.4,0.9-0.7,1.2c-0.3,0.3-0.6,0.6-1,0.8c-0.4,0.2-0.8,0.3-1.3,0.3
			c-0.3,0-0.6,0-0.8-0.1s-0.4-0.1-0.7-0.2v2.9h-1.1V85z M21.2,85.8c-0.5,0-0.9,0.1-1.1,0.4c-0.3,0.2-0.5,0.6-0.6,1.1v3.5
			c0.2,0.1,0.4,0.2,0.6,0.3s0.5,0.1,0.9,0.1c0.6,0,1.2-0.2,1.5-0.7c0.4-0.5,0.6-1.2,0.6-2.1c0-0.4,0-0.7-0.1-1
			c-0.1-0.3-0.2-0.6-0.3-0.8c-0.1-0.2-0.3-0.4-0.6-0.5S21.6,85.8,21.2,85.8z"/>
		<path class="st1" d="M28.2,89.5l0.4,1.3h0.1l0.3-1.4l1.4-4.5h1.1l-2.1,6.3c-0.2,0.5-0.3,0.9-0.5,1.3c-0.2,0.4-0.3,0.8-0.5,1.1
			s-0.4,0.6-0.6,0.8c-0.2,0.2-0.5,0.3-0.8,0.3c-0.3,0-0.6,0-0.8-0.1l0.2-1c0.1,0,0.2,0.1,0.4,0.1c0.3,0,0.5-0.1,0.8-0.4
			c0.2-0.3,0.4-0.7,0.6-1.4l-2.8-7h1.3L28.2,89.5z"/>
		<path class="st1" d="M36.3,86.1C36.1,86,35.8,86,35.5,86c-0.4,0-0.7,0.1-1,0.3c-0.2,0.2-0.4,0.5-0.4,0.8V92H33v-7h0.8l0.2,0.9h0.1
			c0.2-0.3,0.4-0.6,0.6-0.7s0.6-0.3,0.9-0.3c0.3,0,0.6,0,0.9,0.1L36.3,86.1z"/>
		<path class="st1" d="M38.1,82.9c0-0.2,0.1-0.4,0.2-0.6c0.1-0.2,0.3-0.2,0.6-0.2c0.2,0,0.4,0.1,0.6,0.2c0.2,0.2,0.2,0.3,0.2,0.6
			s-0.1,0.4-0.2,0.5c-0.2,0.1-0.3,0.2-0.6,0.2c-0.2,0-0.4-0.1-0.6-0.2C38.2,83.3,38.1,83.1,38.1,82.9z M38.4,85h1.1v7h-1.1V85z"/>
		<path class="st1" d="M47.6,92.3c0,0.9-0.2,1.6-0.7,2c-0.5,0.4-1.2,0.6-2.1,0.6c-0.6,0-1,0-1.4-0.1c-0.3-0.1-0.6-0.2-0.9-0.3l0.3-1
			c0.2,0.1,0.5,0.2,0.7,0.2c0.3,0.1,0.6,0.1,1,0.1c0.4,0,0.7,0,1-0.1c0.2-0.1,0.4-0.2,0.6-0.3c0.1-0.2,0.3-0.4,0.3-0.6
			c0.1-0.3,0.1-0.6,0.1-0.9v-0.7h-0.1c-0.2,0.3-0.4,0.5-0.7,0.6c-0.3,0.1-0.7,0.2-1.1,0.2c-0.9,0-1.6-0.3-2.1-0.9
			c-0.4-0.6-0.7-1.5-0.7-2.7c0-1.2,0.3-2.1,0.9-2.7c0.6-0.6,1.4-0.9,2.5-0.9c0.5,0,1,0,1.4,0.1s0.7,0.2,1,0.3V92.3z M44.8,91.2
			c0.5,0,0.8-0.1,1.1-0.4c0.3-0.2,0.5-0.6,0.6-1.1v-3.6c-0.4-0.2-0.8-0.3-1.4-0.3c-0.6,0-1.1,0.2-1.5,0.6s-0.5,1.1-0.5,2
			c0,0.4,0,0.8,0.1,1.1c0.1,0.3,0.2,0.6,0.3,0.8c0.1,0.2,0.3,0.4,0.5,0.5C44.2,91.1,44.5,91.2,44.8,91.2z"/>
		<path class="st1" d="M54.6,92v-4c0-0.4,0-0.7-0.1-1s-0.1-0.5-0.2-0.7c-0.1-0.2-0.3-0.3-0.5-0.4c-0.2-0.1-0.4-0.1-0.7-0.1
			c-0.4,0-0.8,0.1-1.2,0.4c-0.4,0.3-0.6,0.7-0.7,1.1V92h-1.1v-9.8h1.1v3.6h0.1c0.2-0.3,0.5-0.5,0.9-0.7s0.8-0.3,1.3-0.3
			c0.4,0,0.7,0,1,0.1s0.5,0.2,0.7,0.5c0.2,0.2,0.3,0.5,0.4,0.9c0.1,0.4,0.1,0.9,0.1,1.4V92H54.6z"/>
		<path class="st1" d="M57.2,85h1.1v-1.4l1.1-0.3V85h1.9v1h-1.9v3.9c0,0.5,0.1,0.8,0.2,1c0.1,0.2,0.3,0.3,0.6,0.3
			c0.2,0,0.4,0,0.6-0.1c0.2-0.1,0.4-0.1,0.6-0.2l0.3,0.9c-0.3,0.1-0.5,0.2-0.8,0.3c-0.3,0.1-0.6,0.1-1,0.1c-0.6,0-1-0.2-1.2-0.5
			c-0.2-0.3-0.4-0.9-0.4-1.6V86h-1.1V85z"/>
		<path class="st1" d="M65.3,95.1c-0.4-0.4-0.8-0.9-1.1-1.5c-0.3-0.5-0.5-1.1-0.7-1.7c-0.2-0.6-0.3-1.1-0.4-1.7S63,89.1,63,88.6
			c0-0.5,0-1.1,0.1-1.6c0.1-0.6,0.2-1.1,0.4-1.7c0.2-0.6,0.4-1.1,0.7-1.7c0.3-0.6,0.7-1.1,1.1-1.5l0.7,0.5c-0.4,0.5-0.7,1-0.9,1.5
			c-0.2,0.5-0.4,1-0.6,1.5c-0.1,0.5-0.3,1-0.3,1.6c-0.1,0.5-0.1,1-0.1,1.5c0,0.4,0,0.9,0.1,1.5c0.1,0.5,0.2,1.1,0.3,1.6
			c0.2,0.5,0.4,1,0.6,1.5c0.2,0.5,0.5,1,0.9,1.4L65.3,95.1z"/>
		<path class="st1" d="M73.9,91.6c-0.3,0.2-0.6,0.4-1.1,0.4c-0.4,0.1-0.9,0.1-1.4,0.1c-0.6,0-1.1-0.1-1.7-0.3
			c-0.5-0.2-1-0.5-1.3-0.9c-0.4-0.4-0.7-0.9-0.9-1.6c-0.2-0.6-0.3-1.4-0.3-2.3c0-0.9,0.1-1.7,0.4-2.3c0.2-0.6,0.6-1.2,1-1.6
			s0.9-0.7,1.4-0.9c0.5-0.2,1-0.3,1.5-0.3c0.6,0,1,0,1.4,0.1c0.4,0.1,0.7,0.1,0.9,0.2l-0.3,1c-0.4-0.2-1.1-0.3-1.9-0.3
			c-0.4,0-0.8,0.1-1.1,0.2c-0.4,0.1-0.7,0.4-1,0.7c-0.3,0.3-0.5,0.7-0.7,1.2c-0.2,0.5-0.3,1.1-0.3,1.9c0,0.7,0.1,1.3,0.3,1.8
			s0.4,0.9,0.7,1.3s0.6,0.6,1,0.8c0.4,0.2,0.8,0.3,1.3,0.3c0.4,0,0.8,0,1.1-0.1s0.6-0.2,0.8-0.3L73.9,91.6z"/>
		<path class="st1" d="M75.5,82c0.4,0.4,0.8,0.9,1.1,1.5c0.3,0.5,0.5,1.1,0.7,1.7c0.2,0.6,0.3,1.1,0.4,1.7s0.1,1.1,0.1,1.6
			c0,0.5,0,1.1-0.1,1.6s-0.2,1.1-0.4,1.7c-0.2,0.6-0.4,1.1-0.7,1.7c-0.3,0.6-0.7,1.1-1.1,1.5l-0.7-0.5c0.4-0.5,0.7-1,0.9-1.5
			c0.3-0.5,0.5-1,0.6-1.6c0.1-0.5,0.2-1,0.3-1.6s0.1-1,0.1-1.5c0-0.4,0-0.9-0.1-1.5c-0.1-0.5-0.2-1-0.3-1.6c-0.2-0.5-0.4-1-0.6-1.6
			s-0.5-1-0.9-1.4L75.5,82z"/>
		<path class="st1" d="M89.4,84.4c0,0.5-0.1,1-0.3,1.5c-0.2,0.5-0.4,1-0.7,1.6c-0.3,0.5-0.6,1-1,1.5s-0.7,1-1.1,1.4l-0.7,0.6v0.1
			l0.9-0.2h3.1v1H84v-0.4c0.2-0.2,0.5-0.5,0.7-0.8c0.3-0.3,0.6-0.7,0.9-1.1c0.3-0.4,0.6-0.8,0.9-1.2c0.3-0.4,0.6-0.9,0.8-1.3
			c0.2-0.4,0.4-0.9,0.6-1.3c0.1-0.4,0.2-0.9,0.2-1.2c0-0.5-0.1-0.8-0.4-1.1c-0.3-0.3-0.7-0.5-1.2-0.5c-0.4,0-0.7,0.1-1,0.2
			c-0.3,0.1-0.6,0.3-0.9,0.5l-0.5-0.8c0.3-0.3,0.7-0.5,1.2-0.7c0.4-0.2,0.9-0.2,1.4-0.2c0.4,0,0.8,0.1,1.1,0.2
			c0.3,0.1,0.6,0.3,0.8,0.5s0.4,0.5,0.5,0.8C89.3,83.8,89.4,84.1,89.4,84.4z"/>
		<path class="st1" d="M91.7,87.1c0-1.7,0.3-2.9,0.8-3.8c0.5-0.8,1.3-1.3,2.4-1.3c1.1,0,1.9,0.4,2.5,1.3c0.5,0.8,0.8,2.1,0.8,3.8
			c0,1.7-0.3,2.9-0.8,3.8c-0.5,0.8-1.3,1.3-2.4,1.3c-1.1,0-1.9-0.4-2.4-1.3S91.7,88.7,91.7,87.1z M92.9,87.1c0,0.6,0,1.2,0.1,1.7
			c0.1,0.5,0.2,0.9,0.4,1.3s0.4,0.6,0.6,0.8c0.3,0.2,0.6,0.3,0.9,0.3c0.7,0,1.2-0.3,1.6-1s0.5-1.7,0.5-3.1c0-0.6,0-1.1-0.1-1.7
			c-0.1-0.5-0.2-0.9-0.4-1.3c-0.2-0.4-0.4-0.6-0.6-0.8c-0.3-0.2-0.6-0.3-1-0.3c-0.7,0-1.2,0.3-1.5,1C93,84.7,92.9,85.7,92.9,87.1z"
			/>
		<path class="st1" d="M105.3,84.4c0,0.5-0.1,1-0.3,1.5c-0.2,0.5-0.4,1-0.7,1.6c-0.3,0.5-0.6,1-1,1.5s-0.7,1-1.1,1.4l-0.7,0.6v0.1
			l0.9-0.2h3.1v1h-5.6v-0.4c0.2-0.2,0.5-0.5,0.7-0.8c0.3-0.3,0.6-0.7,0.9-1.1c0.3-0.4,0.6-0.8,0.9-1.2c0.3-0.4,0.6-0.9,0.8-1.3
			c0.2-0.4,0.4-0.9,0.6-1.3c0.1-0.4,0.2-0.9,0.2-1.2c0-0.5-0.1-0.8-0.4-1.1c-0.3-0.3-0.7-0.5-1.2-0.5c-0.4,0-0.7,0.1-1,0.2
			c-0.3,0.1-0.6,0.3-0.9,0.5l-0.5-0.8c0.3-0.3,0.7-0.5,1.2-0.7c0.4-0.2,0.9-0.2,1.4-0.2c0.4,0,0.8,0.1,1.1,0.2
			c0.3,0.1,0.6,0.3,0.8,0.5s0.4,0.5,0.5,0.8C105.3,83.8,105.3,84.1,105.3,84.4z"/>
		<path class="st1" d="M108.6,91h2v-6.8l0.1-0.8l-0.6,0.7l-1.5,1.1l-0.5-0.7l3.1-2.4h0.5V91h1.9v1h-5V91z"/>
	</g>
	<g class="st0">
		<path class="st1" d="M114.1,93.6l-0.7-0.6c1.5-1.4,2.2-3.8,2.2-6.9v-5.2h0.9v4c0.5-0.5,1-1,1.4-1.7l0.6,0.8
			c-0.6,0.7-1.2,1.4-1.9,1.9V86c0,0.9-0.1,1.7-0.2,2.5c0.7,0.7,1.3,1.4,2,2.3l-0.6,0.9c-0.6-0.9-1.2-1.7-1.6-2.2
			C115.8,91.2,115.1,92.6,114.1,93.6z M114.8,83.6c0,1.4-0.2,2.8-0.5,4.1l-0.8-0.2c0.3-1.2,0.4-2.5,0.5-3.9L114.8,83.6z M119.5,85.4
			v-1.6h1v1.6h2.9v-1.6h1v1.6h1.5v1h-1.5V88h1.2V89h-2.2v2.9c0,0.3,0.2,0.5,0.6,0.5h0.7c0.2,0,0.4-0.1,0.4-0.2
			c0.1-0.2,0.2-0.6,0.2-1.4l0.9,0.3c-0.1,1-0.2,1.7-0.4,1.9c-0.2,0.2-0.5,0.3-1,0.3h-1.2c-0.8,0-1.2-0.4-1.2-1.2V89h-1.5
			c-0.4,2.4-1.4,3.9-3.2,4.5l-0.4-0.9c1.5-0.5,2.4-1.7,2.7-3.6h-1.8V88h1.3v-1.7h-1.6v-1H119.5z M121.4,82.2v-1.5h1v1.5h2.9v0.9
			h-2.9v1.6h-1v-1.6h-2.9v-0.9H121.4z M123.4,88v-1.7h-2.9V88H123.4z"/>
		<path class="st1" d="M131,87.8l-0.5-0.9c1.2-0.6,2.2-1.7,2.9-3.2h-3.6v9.8h-1V82.8h4.9c0.2-0.7,0.4-1.4,0.5-2.2l1,0.1
			c-0.1,0.7-0.3,1.4-0.5,2.1h5v9c0,1.1-0.5,1.6-1.4,1.6h-2.1l-0.3-1l2,0c0.5,0,0.7-0.3,0.7-0.8v-7.8h-4.3c-0.1,0.2-0.1,0.3-0.2,0.4
			c1.2,0.7,2.5,1.5,3.7,2.5l-0.6,0.9c-1.4-1.1-2.6-2-3.6-2.5C133.1,86.3,132.1,87.3,131,87.8z M131,91.7l-0.5-0.9
			c1.8-0.9,2.9-2.3,3.4-4.2l1,0.1c-0.1,0.5-0.3,1-0.5,1.5c1.1,0.7,2.3,1.5,3.4,2.4l-0.6,0.8c-1.3-1.1-2.4-1.8-3.3-2.4
			C133.2,90.2,132.3,91.1,131,91.7z"/>
		<path class="st1" d="M148.4,81.4c-0.2,0.5-0.4,1-0.6,1.4h4.8l0.7,0.4c-0.4,2.2-1.2,4.1-2.5,5.9c-1.4,1.8-3.2,3.1-5.3,3.9l-0.6-0.9
			c1.9-0.8,3.5-1.9,4.7-3.3c0-0.1,0.1-0.1,0.1-0.2c-0.4-0.3-0.8-0.6-1.3-0.9c-0.8-0.5-1.5-0.9-2.1-1.2l0.6-0.8
			c0.6,0.3,1.3,0.7,2.1,1.2c0.5,0.3,0.9,0.6,1.3,0.8c0.8-1.2,1.3-2.5,1.7-3.9h-4.8c-0.2,0.4-0.5,0.8-0.7,1.1c-0.8,1.1-1.7,2-2.7,2.8
			l-0.7-0.7c1-0.8,1.8-1.7,2.6-2.8c0.7-1.1,1.3-2.1,1.7-3.2L148.4,81.4z M153.5,82.2l-0.6,0.4c-0.4-0.7-0.9-1.3-1.5-1.9l0.6-0.4
			C152.6,80.9,153.1,81.5,153.5,82.2z M155.4,82.1l-0.6,0.4c-0.4-0.7-0.9-1.3-1.5-1.9l0.6-0.4C154.5,80.9,155,81.5,155.4,82.1z"/>
		<path class="st1" d="M160.7,82.1v4.3c0,1.6-0.2,2.9-0.6,3.9c-0.4,1-1.2,1.8-2.3,2.7l-0.7-0.8c1-0.8,1.7-1.5,2-2.4
			c0.3-0.8,0.5-1.9,0.5-3.3v-4.3H160.7z M164.7,81.8v9.3c1.5-1.1,2.9-2.4,4-4.1l0.9,0.6c-0.7,1-1.5,1.9-2.4,2.8
			c-1,0.9-1.9,1.6-2.9,2.1l-0.7-0.4V81.8H164.7z"/>
		<path class="st1" d="M182.3,82.3l0.6,0.6c-0.6,1-1.3,2.2-2.3,3.4c-0.9,1.1-1.8,2.1-2.6,2.9c1.1,1,2.1,2,3,3.1l-0.9,0.7
			c-0.9-1-2-2.2-3.3-3.3c-1.3-1.2-2.5-2.1-3.6-2.8l0.7-0.8c1.1,0.7,2.1,1.5,3.2,2.4c0.8-0.8,1.5-1.6,2.2-2.4c0.8-1,1.5-2,2-2.9h-9.8
			v-1H182.3z"/>
		<path class="st1" d="M196.1,81.6v-0.9h1v0.9h5.1v0.8h-5.1v1h4.5v0.8h-4.5v1h5.6V86h-12.3v-0.9h5.6v-1h-4.5v-0.8h4.5v-1h-5v-0.8
			H196.1z M198.2,93.5l-0.2-0.9l1.5,0c0.4,0,0.7-0.2,0.7-0.6v-0.7h-7v2.3h-1v-6.7h9v5.3c0,0.9-0.4,1.3-1.3,1.3H198.2z M200.1,88.7
			v-1h-7v1H200.1z M200.1,90.5v-1h-7v1H200.1z"/>
		<path class="st1" d="M207.8,86.3l-0.7,0.7c-0.6-0.6-1.4-1.3-2.5-2l0.7-0.7C206.3,85,207.1,85.7,207.8,86.3z M208,88.4
			c-0.7,1.8-1.4,3.5-2.3,5l-0.9-0.4c0.9-1.6,1.7-3.3,2.3-5L208,88.4z M208.2,83l-0.7,0.7c-0.6-0.6-1.5-1.3-2.5-2l0.7-0.7
			C206.7,81.6,207.5,82.3,208.2,83z M208.9,82.5v-1h7.9v1h-3.4v9.5h3.9v1h-9.1v-1h4.2v-9.5H208.9z"/>
		<path class="st1" d="M226.4,82.1h5.2v1h-10.3v3.1c0,3.1-0.5,5.5-1.5,7.4l-0.8-0.7c0.8-1.6,1.3-3.8,1.3-6.7v-4h5.1
			c-0.2-0.5-0.4-0.9-0.7-1.3l1.1-0.2C225.9,81.1,226.1,81.5,226.4,82.1z M226.6,83.7v1.7h4.6v1h-4.6v2h3.7v5.2h-1v-0.7h-5.9v0.7h-1
			v-5.2h3.2v-4.7H226.6z M229.3,91.9v-2.6h-5.9v2.6H229.3z"/>
	</g>
	<g class="st0">
		<path class="st1" d="M239,89.3h-3.6l-1,2.7h-1.2l3.7-10h0.5l3.7,10H240L239,89.3z M235.7,88.3h2.9l-1.1-3l-0.3-1.5h0l-0.3,1.5
			L235.7,88.3z"/>
		<path class="st1" d="M244,90.3c0,0.3,0.1,0.6,0.2,0.7c0.1,0.1,0.3,0.2,0.5,0.2c0.1,0,0.3,0,0.4,0s0.3-0.1,0.5-0.1l0.1,0.9
			c-0.1,0.1-0.4,0.1-0.6,0.2c-0.3,0-0.5,0.1-0.7,0.1c-0.4,0-0.8-0.1-1-0.4c-0.3-0.2-0.4-0.6-0.4-1.2v-8.4h1.1V90.3z"/>
		<path class="st1" d="M248.4,90.3c0,0.3,0.1,0.6,0.2,0.7c0.1,0.1,0.3,0.2,0.5,0.2c0.1,0,0.3,0,0.4,0c0.1,0,0.3-0.1,0.5-0.1l0.1,0.9
			c-0.1,0.1-0.4,0.1-0.6,0.2s-0.5,0.1-0.7,0.1c-0.4,0-0.8-0.1-1-0.4c-0.3-0.2-0.4-0.6-0.4-1.2v-8.4h1.1V90.3z"/>
		<path class="st1" d="M255.8,82.3c0.4-0.1,0.8-0.1,1.2-0.2c0.5,0,0.9-0.1,1.3-0.1c0.4,0,0.8,0,1.2,0.1c0.4,0.1,0.7,0.2,1,0.5
			c0.3,0.2,0.5,0.5,0.7,0.8c0.2,0.3,0.3,0.8,0.3,1.3c0,0.8-0.2,1.4-0.6,1.9c-0.4,0.5-1,0.8-1.6,1l0.7,0.5l2.4,3.9h-1.4l-2.7-4.2
			l-1.4-0.2V92h-1.2V82.3z M258.3,83.1c-0.1,0-0.2,0-0.4,0s-0.3,0-0.4,0c-0.1,0-0.2,0-0.3,0c-0.1,0-0.2,0-0.3,0v3.6h1.1
			c0.6,0,1.2-0.2,1.6-0.5s0.6-0.8,0.6-1.5c0-0.5-0.2-0.9-0.5-1.2C259.4,83.3,259,83.1,258.3,83.1z"/>
		<path class="st1" d="M264.4,82.9c0-0.2,0.1-0.4,0.2-0.6c0.1-0.2,0.3-0.2,0.6-0.2c0.2,0,0.4,0.1,0.6,0.2c0.2,0.2,0.2,0.3,0.2,0.6
			s-0.1,0.4-0.2,0.5c-0.2,0.1-0.3,0.2-0.6,0.2c-0.2,0-0.4-0.1-0.6-0.2C264.5,83.3,264.4,83.1,264.4,82.9z M264.6,85h1.1v7h-1.1V85z"
			/>
		<path class="st1" d="M273.8,92.3c0,0.9-0.2,1.6-0.7,2c-0.5,0.4-1.2,0.6-2.1,0.6c-0.6,0-1,0-1.4-0.1c-0.3-0.1-0.6-0.2-0.9-0.3
			l0.3-1c0.2,0.1,0.5,0.2,0.7,0.2c0.3,0.1,0.6,0.1,1,0.1c0.4,0,0.7,0,1-0.1c0.2-0.1,0.4-0.2,0.6-0.3c0.1-0.2,0.3-0.4,0.3-0.6
			c0.1-0.3,0.1-0.6,0.1-0.9v-0.7h-0.1c-0.2,0.3-0.4,0.5-0.7,0.6c-0.3,0.1-0.7,0.2-1.1,0.2c-0.9,0-1.6-0.3-2.1-0.9
			c-0.4-0.6-0.7-1.5-0.7-2.7c0-1.2,0.3-2.1,0.9-2.7c0.6-0.6,1.4-0.9,2.5-0.9c0.5,0,1,0,1.4,0.1s0.7,0.2,1,0.3V92.3z M271,91.2
			c0.5,0,0.8-0.1,1.1-0.4c0.3-0.2,0.5-0.6,0.6-1.1v-3.6c-0.4-0.2-0.8-0.3-1.4-0.3c-0.6,0-1.1,0.2-1.5,0.6s-0.5,1.1-0.5,2
			c0,0.4,0,0.8,0.1,1.1c0.1,0.3,0.2,0.6,0.3,0.8c0.1,0.2,0.3,0.4,0.5,0.5C270.4,91.1,270.7,91.2,271,91.2z"/>
		<path class="st1" d="M280.8,92v-4c0-0.4,0-0.7-0.1-1s-0.1-0.5-0.2-0.7c-0.1-0.2-0.3-0.3-0.5-0.4c-0.2-0.1-0.4-0.1-0.7-0.1
			c-0.4,0-0.8,0.1-1.2,0.4c-0.4,0.3-0.6,0.7-0.7,1.1V92h-1.1v-9.8h1.1v3.6h0.1c0.2-0.3,0.5-0.5,0.9-0.7s0.8-0.3,1.3-0.3
			c0.4,0,0.7,0,1,0.1s0.5,0.2,0.7,0.5c0.2,0.2,0.3,0.5,0.4,0.9c0.1,0.4,0.1,0.9,0.1,1.4V92H280.8z"/>
		<path class="st1" d="M283.4,85h1.1v-1.4l1.1-0.3V85h1.9v1h-1.9v3.9c0,0.5,0.1,0.8,0.2,1c0.1,0.2,0.3,0.3,0.6,0.3
			c0.2,0,0.4,0,0.6-0.1c0.2-0.1,0.4-0.1,0.6-0.2l0.3,0.9c-0.3,0.1-0.5,0.2-0.8,0.3c-0.3,0.1-0.6,0.1-1,0.1c-0.6,0-1-0.2-1.2-0.5
			c-0.2-0.3-0.3-0.9-0.3-1.6V86h-1.1V85z"/>
		<path class="st1" d="M292.5,90.1c0-0.3-0.1-0.5-0.3-0.7c-0.2-0.2-0.4-0.3-0.6-0.4c-0.2-0.1-0.5-0.2-0.8-0.3
			c-0.3-0.1-0.6-0.2-0.8-0.4c-0.2-0.2-0.5-0.4-0.6-0.6c-0.2-0.2-0.3-0.6-0.3-1c0-0.7,0.2-1.2,0.6-1.5c0.4-0.3,0.9-0.5,1.6-0.5
			c0.5,0,0.9,0,1.3,0.1s0.6,0.2,0.9,0.3l-0.3,0.9c-0.2-0.1-0.5-0.2-0.8-0.3c-0.3-0.1-0.6-0.1-1-0.1c-0.4,0-0.7,0.1-0.9,0.2
			c-0.2,0.1-0.3,0.4-0.3,0.7c0,0.2,0.1,0.4,0.3,0.6c0.2,0.1,0.4,0.3,0.6,0.4c0.2,0.1,0.5,0.2,0.8,0.3s0.6,0.2,0.8,0.4
			c0.2,0.2,0.5,0.4,0.6,0.6s0.3,0.6,0.3,1c0,0.3,0,0.6-0.1,0.8c-0.1,0.3-0.2,0.5-0.5,0.7s-0.5,0.3-0.8,0.4c-0.3,0.1-0.7,0.2-1.1,0.2
			c-0.5,0-1-0.1-1.4-0.2c-0.4-0.1-0.7-0.2-0.9-0.4l0.3-1c0.2,0.1,0.5,0.2,0.8,0.3s0.7,0.2,1,0.2c0.4,0,0.7-0.1,1-0.2
			C292.4,90.8,292.5,90.5,292.5,90.1z"/>
		<path class="st1" d="M299.9,82.3c0.4-0.1,0.8-0.1,1.2-0.2c0.5,0,0.9-0.1,1.3-0.1c0.4,0,0.8,0,1.2,0.1c0.4,0.1,0.7,0.2,1,0.5
			s0.5,0.5,0.7,0.8c0.2,0.3,0.3,0.8,0.3,1.3c0,0.8-0.2,1.4-0.6,1.9c-0.4,0.5-1,0.8-1.6,1l0.7,0.5l2.4,3.9h-1.4l-2.7-4.2l-1.4-0.2V92
			h-1.2V82.3z M302.4,83.1c-0.1,0-0.2,0-0.4,0c-0.1,0-0.3,0-0.4,0c-0.1,0-0.2,0-0.3,0c-0.1,0-0.2,0-0.3,0v3.6h1.1
			c0.6,0,1.2-0.2,1.6-0.5s0.6-0.8,0.6-1.5c0-0.5-0.2-0.9-0.5-1.2C303.5,83.3,303,83.1,302.4,83.1z"/>
		<path class="st1" d="M312.9,91.5c-0.3,0.2-0.6,0.4-1.1,0.5c-0.4,0.1-0.9,0.2-1.4,0.2c-0.5,0-1-0.1-1.4-0.3c-0.4-0.2-0.7-0.4-1-0.7
			s-0.4-0.7-0.6-1.2c-0.1-0.4-0.2-1-0.2-1.5c0-1.2,0.3-2.1,0.8-2.7c0.5-0.6,1.3-0.9,2.3-0.9c0.3,0,0.6,0,1,0.1
			c0.3,0.1,0.6,0.2,0.9,0.4c0.3,0.2,0.5,0.5,0.6,0.8c0.2,0.4,0.2,0.8,0.2,1.4c0,0.3,0,0.6-0.1,1h-4.5c0,0.4,0,0.8,0.1,1.1
			s0.2,0.6,0.4,0.8c0.2,0.2,0.4,0.4,0.7,0.5c0.3,0.1,0.6,0.2,1,0.2c0.3,0,0.6-0.1,1-0.2c0.3-0.1,0.6-0.2,0.7-0.4L312.9,91.5z
			 M310.5,85.8c-0.6,0-1,0.1-1.3,0.4c-0.3,0.3-0.5,0.8-0.6,1.5h3.5c0-0.7-0.1-1.2-0.4-1.5C311.4,86,311,85.8,310.5,85.8z"/>
		<path class="st1" d="M318.3,90.1c0-0.3-0.1-0.5-0.3-0.7c-0.2-0.2-0.4-0.3-0.6-0.4c-0.2-0.1-0.5-0.2-0.8-0.3
			c-0.3-0.1-0.6-0.2-0.8-0.4c-0.2-0.2-0.5-0.4-0.6-0.6c-0.2-0.2-0.3-0.6-0.3-1c0-0.7,0.2-1.2,0.6-1.5c0.4-0.3,0.9-0.5,1.6-0.5
			c0.5,0,0.9,0,1.3,0.1s0.6,0.2,0.9,0.3l-0.3,0.9c-0.2-0.1-0.5-0.2-0.8-0.3c-0.3-0.1-0.6-0.1-1-0.1c-0.4,0-0.7,0.1-0.9,0.2
			c-0.2,0.1-0.3,0.4-0.3,0.7c0,0.2,0.1,0.4,0.3,0.6c0.2,0.1,0.4,0.3,0.6,0.4c0.2,0.1,0.5,0.2,0.8,0.3s0.6,0.2,0.8,0.4
			c0.2,0.2,0.5,0.4,0.6,0.6s0.3,0.6,0.3,1c0,0.3,0,0.6-0.1,0.8c-0.1,0.3-0.2,0.5-0.5,0.7s-0.5,0.3-0.8,0.4c-0.3,0.1-0.7,0.2-1.1,0.2
			c-0.5,0-1-0.1-1.4-0.2c-0.4-0.1-0.7-0.2-0.9-0.4l0.3-1c0.2,0.1,0.5,0.2,0.8,0.3s0.7,0.2,1,0.2c0.4,0,0.7-0.1,1-0.2
			C318.2,90.8,318.3,90.5,318.3,90.1z"/>
		<path class="st1" d="M326.6,91.5c-0.3,0.2-0.6,0.4-1.1,0.5c-0.4,0.1-0.9,0.2-1.4,0.2c-0.5,0-1-0.1-1.4-0.3c-0.4-0.2-0.7-0.4-1-0.7
			c-0.3-0.3-0.4-0.7-0.6-1.2c-0.1-0.4-0.2-1-0.2-1.5c0-1.2,0.3-2.1,0.8-2.7c0.5-0.6,1.3-0.9,2.3-0.9c0.3,0,0.6,0,1,0.1
			c0.3,0.1,0.6,0.2,0.9,0.4s0.5,0.5,0.6,0.8c0.2,0.4,0.2,0.8,0.2,1.4c0,0.3,0,0.6-0.1,1h-4.5c0,0.4,0,0.8,0.1,1.1s0.2,0.6,0.4,0.8
			c0.2,0.2,0.4,0.4,0.7,0.5c0.3,0.1,0.6,0.2,1,0.2c0.3,0,0.6-0.1,1-0.2c0.3-0.1,0.6-0.2,0.7-0.4L326.6,91.5z M324.2,85.8
			c-0.6,0-1,0.1-1.3,0.4s-0.5,0.8-0.6,1.5h3.5c0-0.7-0.1-1.2-0.4-1.5C325.1,86,324.7,85.8,324.2,85.8z"/>
		<path class="st1" d="M332.3,86.1c-0.3-0.1-0.5-0.1-0.8-0.1c-0.4,0-0.7,0.1-1,0.3c-0.2,0.2-0.4,0.5-0.4,0.8V92H329v-7h0.8l0.2,0.9
			h0.1c0.2-0.3,0.4-0.6,0.6-0.7c0.2-0.2,0.6-0.3,0.9-0.3c0.3,0,0.6,0,0.9,0.1L332.3,86.1z"/>
		<path class="st1" d="M336.1,89.1l0.4,1.3h0l0.4-1.4l1.6-4.1h1.2l-3,7.2h-0.5l-3-7.2h1.3L336.1,89.1z"/>
		<path class="st1" d="M346.1,91.5c-0.3,0.2-0.6,0.4-1.1,0.5c-0.4,0.1-0.9,0.2-1.4,0.2c-0.5,0-1-0.1-1.4-0.3c-0.4-0.2-0.7-0.4-1-0.7
			s-0.4-0.7-0.6-1.2c-0.1-0.4-0.2-1-0.2-1.5c0-1.2,0.3-2.1,0.8-2.7c0.5-0.6,1.3-0.9,2.3-0.9c0.3,0,0.6,0,1,0.1
			c0.3,0.1,0.6,0.2,0.9,0.4c0.3,0.2,0.5,0.5,0.6,0.8c0.2,0.4,0.2,0.8,0.2,1.4c0,0.3,0,0.6-0.1,1h-4.5c0,0.4,0,0.8,0.1,1.1
			s0.2,0.6,0.4,0.8c0.2,0.2,0.4,0.4,0.7,0.5c0.3,0.1,0.6,0.2,1,0.2c0.3,0,0.6-0.1,1-0.2c0.3-0.1,0.6-0.2,0.7-0.4L346.1,91.5z
			 M343.7,85.8c-0.6,0-1,0.1-1.3,0.4c-0.3,0.3-0.5,0.8-0.6,1.5h3.5c0-0.7-0.1-1.2-0.4-1.5C344.6,86,344.2,85.8,343.7,85.8z"/>
		<path class="st1" d="M353.9,89.6c0,0.5,0,0.9,0,1.3c0,0.4,0.1,0.8,0.1,1.1h-0.8l-0.3-1h-0.1c-0.2,0.3-0.5,0.6-0.8,0.8
			c-0.4,0.2-0.8,0.3-1.2,0.3c-0.9,0-1.6-0.3-2.1-0.9c-0.5-0.6-0.7-1.5-0.7-2.8c0-1.2,0.3-2.1,0.8-2.7c0.6-0.6,1.3-0.9,2.3-0.9
			c0.3,0,0.6,0,0.8,0.1c0.2,0,0.4,0.1,0.7,0.2v-2.9h1.1V89.6z M351,91.2c0.5,0,0.9-0.1,1.1-0.4c0.3-0.2,0.5-0.6,0.6-1.1v-3.5
			c-0.2-0.1-0.4-0.2-0.6-0.3c-0.2-0.1-0.5-0.1-0.9-0.1c-0.6,0-1.1,0.2-1.5,0.6s-0.5,1.1-0.5,2c0,0.4,0,0.7,0.1,1.1
			c0.1,0.3,0.2,0.6,0.3,0.8c0.1,0.2,0.3,0.4,0.6,0.6C350.4,91.1,350.7,91.2,351,91.2z"/>
		<path class="st1" d="M356,91.4c0-0.3,0.1-0.5,0.2-0.6c0.1-0.1,0.3-0.2,0.6-0.2c0.3,0,0.5,0.1,0.6,0.2c0.1,0.1,0.2,0.3,0.2,0.6
			c0,0.2-0.1,0.4-0.2,0.6c-0.1,0.1-0.4,0.2-0.6,0.2c-0.2,0-0.4-0.1-0.6-0.2C356,91.8,356,91.6,356,91.4z"/>
	</g>
	<g>
		<g>
			<path class="st1" d="M162.1,45.9c-0.3-0.5-0.8-0.8-1.3-0.9c-0.3-0.1-0.7-0.2-1.2-0.2c0,0,0,0,0,0h-3.2c-0.1,0-0.1,0.1-0.1,0.1v7
				c0,0.1,0.1,0.1,0.1,0.1h3.2c1.2,0,2-0.5,2.6-1.4c0.4-0.7,0.6-1.5,0.6-2.4c0-0.4,0-0.8-0.1-1.2C162.5,46.7,162.4,46.3,162.1,45.9z
				 M160.7,49.7c-0.3,0.6-0.7,0.9-1.4,0.9c0,0-1.1,0-1.3,0c0-0.2,0-4.1,0-4.3c0.2,0,1.3,0,1.3,0c0.7,0,1.1,0.2,1.3,0.5
				c0.2,0.4,0.3,0.9,0.3,1.6C160.9,48.9,160.9,49.3,160.7,49.7z"/>
			<path class="st1" d="M170.3,51.5c-0.1-0.1-0.1-0.2-0.1-0.5c0,0,0-0.8,0-0.8V47c0-0.8-0.3-1.4-0.9-1.7c-0.6-0.3-1.3-0.4-2-0.4
				c-1.2,0-2,0.3-2.5,0.9c-0.3,0.4-0.5,0.9-0.5,1.5l0,0c0,0,0,0,0,0h0.1l1.7,0c0.1-0.3,0.1-0.5,0.3-0.6c0.2-0.2,0.5-0.3,0.9-0.3
				c0.4,0,0.7,0.1,0.9,0.2c0.2,0.1,0.3,0.3,0.3,0.6c0,0.2-0.1,0.4-0.4,0.5c-0.1,0.1-0.4,0.1-0.7,0.2c0,0-0.6,0.1-0.6,0.1
				c-0.7,0.1-1.2,0.2-1.6,0.5c-0.7,0.4-1,1-1,1.9c0,0.7,0.2,1.2,0.6,1.5c0.4,0.4,0.9,0.5,1.6,0.5c0.5,0,0.9-0.1,1.3-0.3
				c0.3-0.2,0.6-0.4,0.8-0.7c0,0.1,0,0.4,0,0.4l0.1,0.4l2,0l0-0.3C170.4,51.6,170.3,51.5,170.3,51.5z M168.3,48.6c0,0.1,0,0.6,0,0.6
				c0,0.6-0.2,1-0.5,1.2c-0.3,0.2-0.7,0.3-1.1,0.3c-0.2,0-0.5-0.1-0.6-0.2c-0.2-0.1-0.3-0.4-0.3-0.7c0-0.3,0.1-0.6,0.4-0.8
				c0.2-0.1,0.4-0.2,0.8-0.2l0.4-0.1l0.5-0.1C168,48.8,168.2,48.6,168.3,48.6z M164.2,47.2C164.2,47.2,164.2,47.2,164.2,47.2
				C164.2,47.2,164.2,47.2,164.2,47.2L164.2,47.2z"/>
			<path class="st1" d="M175.9,44.9L175.9,44.9L175.9,44.9c-0.6,0-1.1,0.1-1.4,0.4c-0.2,0.2-0.4,0.5-0.7,0.9c0-0.1,0-1.1,0-1.1
				l-1.8,0l0,6.9l1.8,0l0-3.3c0-0.5,0.1-1,0.2-1.2c0.2-0.5,0.7-0.7,1.5-0.7l0.2,0l0.3,0l0,0c0,0,0,0,0,0v-0.1l0-1.7
				C176.1,44.9,175.9,44.9,175.9,44.9z"/>
			<path class="st1" d="M181.9,48.8c0,0.4-0.1,0.8-0.2,1.1c-0.2,0.5-0.6,0.7-1.3,0.7c-0.5,0-0.8-0.2-1-0.5c-0.1-0.2-0.1-0.5-0.1-0.9
				V45c0,0,0,0,0,0h-1.9l0,4.2c0,0.8,0.1,1.4,0.3,1.8c0.4,0.7,1.1,1.1,2.1,1.1c0.4,0,0.7,0,0.9-0.1c0.3-0.1,0.5-0.3,0.8-0.5l0.2-0.3
				c0,0,0-0.1,0.1-0.1c0,0.1,0,0.9,0,0.9l1.8,0l0-6.9l-1.9,0L181.9,48.8z"/>
			<path class="st1" d="M195.3,45.7c-0.2-0.3-0.5-0.5-0.8-0.6c-0.3-0.1-0.6-0.2-0.9-0.2c-0.5,0-0.9,0.1-1.3,0.3
				c-0.3,0.2-0.6,0.5-0.9,0.9c-0.1-0.3-0.3-0.6-0.6-0.8c-0.3-0.2-0.8-0.4-1.3-0.4c-0.6,0-1,0.1-1.4,0.4c-0.2,0.1-0.4,0.4-0.6,0.7
				c0-0.1,0-0.9,0-0.9l-1.8,0l0,6.9l1.9,0l0-4.2c0-0.4,0-0.7,0.1-0.8c0.2-0.3,0.5-0.5,1-0.5c0.4,0,0.7,0.2,0.9,0.5
				c0.1,0.2,0.1,0.5,0.1,0.9V52l1.8,0l0-4.1c0-0.3,0.1-0.6,0.1-0.8c0.2-0.4,0.5-0.6,1-0.6c0.4,0,0.7,0.2,0.9,0.5
				c0.1,0.2,0.1,0.4,0.1,0.6V52l1.9,0c0,0,0-4.4,0-4.4c0-0.4,0-0.8-0.1-1C195.7,46.2,195.5,45.9,195.3,45.7z"/>
			<path class="st1" d="M203.5,51.5c-0.1-0.1-0.1-0.2-0.1-0.5c0,0,0-0.8,0-0.8V47c0-0.8-0.3-1.4-0.9-1.7c-0.6-0.3-1.3-0.4-2-0.4
				c-1.2,0-2,0.3-2.5,0.9c-0.3,0.4-0.5,0.9-0.5,1.5l0,0c0,0,0,0,0,0h0.1l1.7,0c0.1-0.3,0.1-0.5,0.3-0.6c0.2-0.2,0.5-0.3,0.9-0.3
				c0.4,0,0.7,0.1,0.9,0.2c0.2,0.1,0.3,0.3,0.3,0.6c0,0.2-0.1,0.4-0.4,0.5c-0.1,0.1-0.4,0.1-0.7,0.2l-0.6,0.1
				c-0.7,0.1-1.2,0.2-1.6,0.5c-0.7,0.4-1,1-1,1.9c0,0.7,0.2,1.2,0.6,1.5c0.4,0.4,0.9,0.5,1.6,0.5c0.5,0,0.9-0.1,1.3-0.3
				c0.3-0.2,0.6-0.4,0.8-0.7c0,0.1,0,0.4,0,0.4l0.1,0.4l2,0l0-0.3C203.6,51.6,203.5,51.5,203.5,51.5z M201.5,48.6c0,0.1,0,0.6,0,0.6
				c0,0.6-0.2,1-0.5,1.2c-0.3,0.2-0.7,0.3-1.1,0.3c-0.2,0-0.4-0.1-0.6-0.2c-0.2-0.1-0.3-0.4-0.3-0.7c0-0.3,0.1-0.6,0.4-0.8
				c0.2-0.1,0.4-0.2,0.8-0.2l0.4-0.1l0.5-0.1C201.2,48.8,201.4,48.6,201.5,48.6z M197.4,47.2C197.4,47.2,197.4,47.2,197.4,47.2
				C197.4,47.2,197.4,47.2,197.4,47.2L197.4,47.2z"/>
		</g>
		<g>
			<path class="st1" d="M178.5,23.5c-1.2-1.4-3.1-2.8-5.1-3.9c-0.3-0.2-0.3-0.3,0.1-0.3c2,0.2,4.4,1,6.4,1.9c1.5-2.3,2.5-4.6,3-6.8
				c0-0.4-0.1-0.5-0.4-0.5c-0.1,0-1.2,0.1-3.2,0.3c-2.2,0.2-3.4,0.3-3.8,0.3c-1,1.3-2.4,2.6-4.1,4c-2.1,1.8-4.1,3-6,3.8
				c-0.3,0.1-0.5,0.2-0.7,0.2l0,0c-0.7,0.7-1.2,1.6-1.4,2.5c-1.4,2.9-0.6,6.5,1,9c2.3-0.8,4.3-1.8,6.2-3
				C173.7,29.1,176.3,26.6,178.5,23.5z"/>
			<path class="st1" d="M192.6,21.6v-3c-0.6-3.2-0.7-6.8-2.1-9.8c-0.7-2-2.2-3.7-4-5.2c-1.8-1.1-3.7-2.1-5.8-2.4
				c-2.3-0.6-4.6,0.1-6.6,0.7c-0.2,0.1-0.4,0.2-0.6,0.2c-1.4,0.9-3,1.5-4.2,2.9v0.1c-2.1,2-2.9,4.4-3.5,7c-0.5,3.3-1.1,6.6-0.8,9.8
				c0,0,0.1-0.1,0.2-0.1c2.5-1.9,4.6-4.1,6.3-6.7c1.3-2,2.3-4,3.1-6c0.3-0.8,0-1.4-1-1.8c-0.3,0-0.3-0.2-0.1-0.3
				c0.7-0.4,1.3-0.5,1.7-0.5c0.7,0,1.6,0.4,2.8,1.2c1.2,0.8,1.7,1.4,1.7,1.9c0,0.3-0.1,0.4-0.3,0.5c-0.4,0.2-0.6,0.3-0.7,0.4
				c-0.5,0.5-1.1,1.2-1.7,2.2c1.9,0,3.7-0.2,5.3-0.5c0.3,0,0.7-0.3,1.2-0.6c0.4-0.3,0.7-0.5,0.9-0.5c0.3,0,1.2,0.4,2.7,1.3
				c1.1,0.7,1.6,1.3,1.6,1.8c0,0.3-0.2,0.6-0.4,0.7c-0.5,0.3-0.8,0.7-1.1,1.2c-0.2,0.3-0.5,0.8-0.9,1.5c-0.6,1-0.9,1.7-1.1,2
				c-1,1.7-1.6,2.9-2,3.4c1.7,1.4,3.3,3.9,3.5,5.1c0.3,1.7-0.7,2.7-2.1,2.4c-0.6-0.1-2.5-2.2-4-4.1c-3.7,4.1-8.9,6.9-15.6,8.4
				c1.6,2,3.8,3.1,6.1,3.7c6,1.7,12.3,1.5,17.8-0.9c1.3-0.6,2.6-1.5,3.7-2.5c0.7-0.9,1.3-1.8,1.8-2.8
				C196.1,28.9,195.3,24.3,192.6,21.6z M190.3,10.7c-0.1,0.5-0.4,0.9-0.8,1.2c-0.4,0.3-0.9,0.4-1.4,0.3c-0.8-0.2-1.4-0.9-1.9-2.2
				c-0.6-1.6-1.4-3.2-2.3-4.5c0.5,0,0.9,0,1.4,0.1c1.1,0.2,2.3,0.9,3.4,1.9C190,8.7,190.5,9.7,190.3,10.7z"/>
			<path class="st1" d="M165.1,22c-0.5,0.4-0.5,0.6-0.2,0.5l0.2-0.4C165.1,22.1,165.1,22,165.1,22z"/>
		</g>
		<path class="st1" d="M193.8,4.6c-1.1-0.9-2.1-1.4-3.1-1.6c-0.4-0.1-0.9-0.1-1.4,0c1,1.5,1.9,2.9,2.4,4.3c0.5,1.2,1.1,1.9,1.8,2
			c0.5,0.1,0.9-0.1,1.2-0.4c0.4-0.3,0.6-0.7,0.7-1.2C195.5,6.6,195,5.6,193.8,4.6z"/>
	</g>
</g>
</svg>
