<svg xmlns="http://www.w3.org/2000/svg" width="551" height="252.013"><defs><filter id="a" x="235.973" y="0" width="84.1" height="75.4" filterUnits="userSpaceOnUse"><feOffset dx="3" dy="3"/><feGaussianBlur stdDeviation="1" result="b"/><feFlood flood-opacity=".161"/><feComposite operator="in" in2="b"/><feComposite in="SourceGraphic"/></filter><style>.a{fill:#fff;font-size:20px;font-family:NotoSansJP-Regular,Noto Sans JP}</style></defs><text class="a" transform="translate(42 217.013)"><tspan x="0" y="0">営業時間 : 11:00 ~ 15:00 (</tspan><tspan y="0">オーダーストップ 14:30)</tspan><tspan x="0" y="29"> 17:00 ~ 22:00 (オーダーストップ 21:30）</tspan></text><text class="a" transform="translate(77 168.013)"><tspan x="0" y="0">駐車場 : 40台完備 第2駐車場</tspan><tspan y="0">あり (</tspan><tspan y="0">徒歩1分)</tspan></text><text class="a" transform="translate(0 118.013)"><tspan x="0" y="0">住所 : 岡山県岡山市帰宅青江1-22-7 (青江交差点北</tspan><tspan y="0">へ４００</tspan><tspan y="0">ｍ)</tspan></text><g transform="translate(.003 .001)" filter="url(#a)"><path d="M274.97 0a17.1 17.1 0 00-17 17.1c0 7.6 11.2 21.5 15.4 26.6a2.1 2.1 0 003.3 0c4.3-5 15.4-18.9 15.4-26.6A17.1 17.1 0 00274.97 0zm0 22.8a5.7 5.7 0 115.7-5.7 5.7 5.7 0 01-5.7 5.7zm-36.3 6.5a4.3 4.3 0 00-2.7 4v33.9a2.2 2.2 0 003 2l18.7-8.5V29.1a41 41 0 01-2.9-6.3zm36.3 19.4a6.5 6.5 0 01-4.9-2.3 129.43 129.43 0 01-8.1-10.4v24.7l26 8.7V36a129.43 129.43 0 01-8.1 10.4 6.5 6.5 0 01-4.9 2.3zm36.1-26.9l-18.7 8.6v39l19-7.6a4.3 4.3 0 002.7-4V23.9a2.2 2.2 0 00-3-2z" fill="#007bff"/></g></svg>