<svg xmlns="http://www.w3.org/2000/svg" width="126.089" height="103.999"><defs><style>.b{fill:#c73d13}</style></defs><path d="M15.464.1a62.534 62.534 0 006.2 88.5 63.279 63.279 0 0088.9-6.1 62.563 62.563 0 000-82.5h-95.1z" fill="#fff"/><path class="b" d="M47.264 63.875a2.73 2.73 0 00-1.2-.9 4.1 4.1 0 00-1.1-.1h-2.9c-.1 0-.1 0-.1.1v6.4c0 .1 0 .1.1.1h2.9a2.982 2.982 0 002.4-1.2 4.282 4.282 0 00.6-2.2 4.1 4.1 0 00-.1-1.1 2.384 2.384 0 00-.6-1.1zm-1.2 3.3a1.424 1.424 0 01-1.3.9h-1.2v-3.9h1.2a1.346 1.346 0 011.2.5l.2.5.2.8a2.133 2.133 0 01-.3 1.2zM54.664 68.775a.6.6 0 01-.1-.4v-3.6a1.411 1.411 0 00-.8-1.5 4.058 4.058 0 00-1.9-.4 2.855 2.855 0 00-2.3.8 3.36 3.36 0 00-.5 1.4h1.6a.864.864 0 01.3-.6 1.135 1.135 0 01.8-.3 2.2 2.2 0 01.8.1.55.55 0 01.3.5.55.55 0 01-.3.5 1.7 1.7 0 01-.7.1l-.5.2a4.191 4.191 0 00-1.5.4 1.965 1.965 0 00-.9 1.7 1.974 1.974 0 00.6 1.4 2.389 2.389 0 001.4.5 2.663 2.663 0 001.2-.3c.3-.2.5-.4.8-.6v.3l.1.3h1.8v-.3c-.1 0-.1-.1-.2-.2zm-1.8-2.6v.6a1.173 1.173 0 01-.5 1.1 1.689 1.689 0 01-1 .3 1.421 1.421 0 01-.6-.2.481.481 0 01-.2-.6.67.67 0 01.4-.7 1.884 1.884 0 01.8-.2h.4l.4-.1c.1 0 .2-.1.3-.2zM59.764 62.875a2.01 2.01 0 00-1.3.4 1.555 1.555 0 00-.6.8v-1h-1.6v6.3h1.7v-3a1.978 1.978 0 01.2-1.1 1.2 1.2 0 011.3-.6h.5v-1.7c0-.1-.1-.1-.2-.1zM65.164 66.375a1.8 1.8 0 01-.2 1 1.387 1.387 0 01-1.2.7 1.05 1.05 0 01-.9-.5 2.2 2.2 0 01-.1-.8v-3.8h-1.7v3.8a4.529 4.529 0 00.3 1.6 1.886 1.886 0 001.9 1 2.769 2.769 0 00.9-.1 2.177 2.177 0 00.8-.5l.2-.3.1-.1v.8h1.6v-6.3h-1.7zM77.364 63.675a1.555 1.555 0 00-.8-.6 2.353 2.353 0 00-.8-.2 2.016 2.016 0 00-1.1.3 3.044 3.044 0 00-.8.8 1.794 1.794 0 00-.5-.7 2.663 2.663 0 00-1.2-.3 1.746 1.746 0 00-1.2.4 1.794 1.794 0 00-.5.7v-.9h-1.6v6.3h1.7v-3.9a2.2 2.2 0 01.1-.8.807.807 0 01.9-.4.909.909 0 01.8.4 2.2 2.2 0 01.1.8v3.7h1.7v-3.7a1.7 1.7 0 01.1-.7.875.875 0 01.9-.6.909.909 0 01.8.4 1.268 1.268 0 01.1.6v4h1.7v-4a2.769 2.769 0 00-.1-.9 1.08 1.08 0 00-.3-.7zM84.764 68.775a.6.6 0 01-.1-.4v-3.6a1.411 1.411 0 00-.8-1.5 4.058 4.058 0 00-1.9-.4 2.855 2.855 0 00-2.3.8 2.106 2.106 0 00-.5 1.3h1.6a.864.864 0 01.3-.6 1.135 1.135 0 01.8-.3 2.2 2.2 0 01.8.1.55.55 0 01.3.5.55.55 0 01-.3.5 1.7 1.7 0 01-.7.1l-.6.3a4.191 4.191 0 00-1.5.4 1.965 1.965 0 00-.9 1.7 1.974 1.974 0 00.6 1.4 2.389 2.389 0 001.4.5 2.663 2.663 0 001.2-.3c.3-.2.5-.4.8-.6v.3l.1.4h1.8v-.3c0-.2-.1-.2-.1-.3zm-1.8-2.6v.6a1.606 1.606 0 01-.5 1.1 1.689 1.689 0 01-1 .3 1.421 1.421 0 01-.6-.2.481.481 0 01-.2-.6.67.67 0 01.4-.7 1.884 1.884 0 01.8-.2l.4-.1.4-.1c0 .1.2 0 .3-.1z"/><g><path class="b" d="M62.107 43.547a16.023 16.023 0 00-4.6-3.5c-.3-.2-.2-.3.2-.3a22.814 22.814 0 015.8 1.7 23.14 23.14 0 002.8-6.2c0-.3-.1-.4-.4-.4-.1 0-1.1.1-2.9.2-1.9.2-3.1.3-3.4.3a25.26 25.26 0 01-3.7 3.6 21.783 21.783 0 01-5.4 3.5 1.421 1.421 0 01-.6.2 9.8 9.8 0 00-1.3 2.2 8.807 8.807 0 00.9 8.3 28.9 28.9 0 005.6-2.7 27.026 27.026 0 007-6.9z"/><path class="b" d="M76.607 51.547a8.722 8.722 0 00-1.7-9.7 12.188 12.188 0 000-2.7c-.5-2.9-.7-6.2-1.9-8.9a11.433 11.433 0 00-3.7-4.7 10.8 10.8 0 00-6.5-2.4c-5.1.1-6.8 1.7-8.2 3.1a15.509 15.509 0 00-4.1 8.4c-.4 3-.8 4.6-.5 7.6.1 0 .1 0 .1-.1a28.49 28.49 0 005.8-6.2 21.936 21.936 0 002.8-5.5c.3-.7 0-1.3-.9-1.6-.3 0-.3-.1-.1-.3a4.424 4.424 0 011.5-.5 4.721 4.721 0 012.5 1.1c1.1.7 1.6 1.3 1.6 1.7a.55.55 0 01-.3.5 2.092 2.092 0 00-.6.4 15.583 15.583 0 00-1.6 2 26.073 26.073 0 004.8-.5 2.1 2.1 0 001.1-.4 1.234 1.234 0 01.8-.4 8.989 8.989 0 012.4 1.2c1 .7 1.5 1.2 1.5 1.6a1.012 1.012 0 01-.4.7 2.66 2.66 0 00-1 1.1c-.2.3-.4.7-.8 1.4-.5.8-.8 1.4-1 1.7-.9 1.6-1.5 2.6-1.8 3.1a7.825 7.825 0 013.2 4.4c.3 1.5-.6 2.5-1.9 2.2-.5-.1-2.3-2-3.6-3.7-3.5 3.7-8.2 6.2-14.2 7.5a10.3 10.3 0 005.5 3.4c5.4 1.6 12.1 1.2 16.2-.8a11.958 11.958 0 005-4.7zm-3.7-19.4a2.589 2.589 0 01-.7 1.1 1.314 1.314 0 01-1.2.3 2.664 2.664 0 01-1.7-2 15.9 15.9 0 00-2.1-4.1 4.869 4.869 0 011.2.1 7.26 7.26 0 013.1 1.7c1.1 1 1.6 1.9 1.4 2.9z"/></g><path class="b" d="M75.964 26.558a6.061 6.061 0 00-2.9-1.4 2.854 2.854 0 00-1.3 0 18.655 18.655 0 012.2 3.9c.5 1.1 1 1.7 1.6 1.8a1.19 1.19 0 001.1-.4 2.384 2.384 0 00.6-1.1 2.487 2.487 0 00-1.3-2.8z"/></svg>