<svg width="506" height="295" viewBox="0 0 506 295" fill="none" xmlns="http://www.w3.org/2000/svg">
<path d="M371.14 225.297C371.324 224.351 371.609 223.429 371.99 222.544C388.262 191.235 414.423 172.24 447.564 162.48C463.836 157.699 476.491 162.769 486.056 176.966C490.63 183.775 493.776 191.453 497.573 198.877C497.988 199.656 498.332 200.47 498.784 201.231C498.892 201.394 499.326 201.376 500.321 201.575C498.815 179.045 492.298 157.136 481.246 137.454L482.584 136.766C485.098 140.985 487.882 145.078 490.069 149.442C503.34 176.043 507.969 204.219 505.257 233.753C503.991 247.479 501.912 260.915 495.819 273.591C492.63 280.472 487.669 286.378 481.445 290.703C474.394 295.447 466.873 296.443 459.171 292.785C451.505 289.304 444.044 285.386 436.824 281.051C432.196 278.154 428.507 273.808 424.168 270.186C416.846 264.247 409.361 258.507 401.948 252.676C401.406 252.259 400.773 251.934 399.616 251.191C414.08 249.036 427.368 248.638 439.717 256.624C446.515 261.042 453.548 265.134 460.599 269.172C462.488 270.057 464.598 270.353 466.656 270.023C456.622 258.869 443.152 252.477 431.292 244.129L432.051 242.952C438.632 246.918 445.304 250.738 451.794 254.867C457.869 258.76 463.709 263.034 469.874 266.945C470.851 267.579 472.46 267.235 473.779 267.343C473.237 266.148 473.002 264.428 472.062 263.849C463.022 258.018 453.711 252.386 444.508 246.7C444.147 246.483 443.839 246.193 443.803 245.161C445.81 246.03 447.871 246.773 449.769 247.787C457.869 252.115 465.879 256.569 473.978 260.879C475.786 261.821 477.992 263.812 479.222 260.879C479.655 259.865 477.956 257.058 476.564 256.298C467.777 251.481 458.791 247.026 449.878 242.427L450.366 241.159L481.915 253.509C484.537 249.887 484.338 248.62 480.107 246.99C472.586 244.093 464.957 241.558 457.381 238.715L457.616 237.447C462.57 238.443 467.578 239.258 472.496 240.471C475.425 241.159 478.191 242.445 481.12 243.115C482.433 243.136 483.738 242.915 484.971 242.463C484.447 240.779 484.374 238.027 483.326 237.574C479.568 236.07 475.675 234.93 471.7 234.17C467.169 233.423 462.684 232.42 458.267 231.164C459.398 230.836 460.563 230.642 461.738 230.584C467.885 231.001 474.015 231.58 480.162 232.015C481.97 232.141 484.646 233.934 484.989 230.204C485.278 227.017 484.194 225.025 480.415 225.206C474.991 225.478 469.567 225.478 464.143 225.568C462.368 225.69 460.589 225.411 458.936 224.753C460.225 224.172 461.57 223.723 462.95 223.413C468.464 222.671 474.033 222.2 479.529 221.367C480.813 221.168 481.952 219.918 483.145 219.158C481.807 218.56 480.433 217.347 479.131 217.347C472.821 217.691 466.475 218.361 460.238 218.904C458.362 219.17 456.45 218.946 454.687 218.253C460.111 216.894 465.625 215.5 471.122 214.178C473.599 213.581 476.148 213.218 478.589 212.494C479.529 212.204 480.252 211.208 481.066 210.52C480.071 209.832 479.005 208.456 478.101 208.565C471.399 209.374 464.709 210.363 458.032 211.534C454.705 212.096 451.433 213.11 448.142 213.907L447.69 212.458C454.488 210.068 461.286 207.659 468.102 205.341C470.145 204.834 472.17 204.237 474.159 203.531C475.35 202.748 476.422 201.796 477.341 200.706C475.804 199.656 474.033 197.483 472.767 197.754C468.23 198.808 463.781 200.213 459.46 201.955C453.012 204.587 446.449 206.893 439.771 208.873C443.098 207.062 446.334 204.943 449.769 203.295C455.718 200.416 461.829 197.863 467.849 194.966C469.187 194.314 471.23 192.43 471.013 191.724C470.164 188.917 467.795 188.954 465.589 190.167C456.839 194.821 448.07 199.438 439.373 204.219C436.029 206.03 432.865 208.221 429.628 210.249L428.743 208.945L462.425 185.911C462.314 185.4 462.103 184.916 461.805 184.486C461.506 184.056 461.126 183.69 460.686 183.407C460.246 183.125 459.755 182.932 459.241 182.84C458.726 182.747 458.199 182.757 457.688 182.869C457.232 182.964 456.797 183.142 456.405 183.394C440.598 191.91 426.234 202.874 413.845 215.88C419.016 216.279 423.282 216.333 427.441 216.985C431.312 217.492 435.107 218.471 438.741 219.9C445.466 222.761 446.407 230.457 440.422 234.695C435.287 238.59 428.853 240.36 422.451 239.638C418.089 239.4 413.717 239.442 409.361 239.765H399.941L399.779 238.606C404.732 237.701 409.704 236.795 414.64 235.835C417.446 235.348 420.208 234.639 422.903 233.717C424.078 233.264 424.855 231.761 425.814 230.729C424.638 230.005 423.373 228.574 422.198 228.683C415.026 229.188 407.886 230.077 400.809 231.345C393.161 232.884 385.694 235.31 378.137 237.32C377.692 237.418 377.23 237.411 376.788 237.302C376.346 237.192 375.935 236.981 375.588 236.687C377.631 235.437 379.619 234.061 381.717 232.902C391.064 227.759 400.447 222.671 409.795 217.51C410.667 216.915 411.478 216.236 412.217 215.482C423.662 205.052 435.07 194.585 446.569 184.209C447.509 183.358 449.082 183.213 450.004 182.399C445.484 178.777 442.519 180.008 439.862 182.236C429.448 190.891 419.076 199.613 408.746 208.402C406.016 210.72 403.322 213.128 400.646 215.5L399.67 214.613C409.072 203.875 418.491 193.155 428.272 182.018C426.575 181.48 424.757 181.456 423.045 181.949C421.334 182.442 419.807 183.43 418.654 184.789C411.982 191.742 405.275 198.678 398.64 205.686C397.791 206.734 397.046 207.862 396.416 209.054L394.933 207.75L409.234 190.022L408.077 188.936C394.138 199.185 383.29 212.73 371.14 225.297ZM24.7836 135.426C14.3504 155.144 7.84733 176.707 5.637 198.913C5.67006 200.321 5.8396 201.721 6.14324 203.096C9.3253 196.36 11.8384 190.312 14.9481 184.608C20.4625 174.54 26.9713 165.178 39.0125 162.226C48.8299 159.8 58.4484 161.61 67.7414 165.323C96.0364 176.55 118.998 193.752 133.353 221.222C134.04 222.562 134.691 223.92 135.306 225.297C135.255 225.859 135.133 226.412 134.944 226.944C123.156 213.11 111.856 199.42 97.8444 188.573L96.6511 189.642L112.236 208.945L112.037 209.09C106.613 203.947 101.533 198.605 95.9822 193.716C90.4317 188.827 87.575 180.914 77.3238 181.33L106.505 214.667L105.655 215.482C97.8806 208.71 90.1605 201.847 82.2957 195.183C76.8718 190.511 71.0319 186.129 65.4091 181.584C62.7694 179.483 59.8767 179.266 56.2607 181.077L59.6597 184.264C70.9777 194.585 82.2776 204.943 93.668 215.192C95.428 216.537 97.3106 217.714 99.2908 218.705C108.078 224.138 116.883 229.389 125.398 235.636C120.137 234.423 114.659 233.825 109.651 231.888C101.243 228.683 92.5832 228.592 83.8868 228.61C82.6031 228.61 81.3194 230.095 80.0357 230.892C81.0663 231.87 81.9522 233.409 83.1636 233.717C89.0757 235.22 95.0782 236.433 101.045 237.646C102.853 238.008 104.552 238.063 106.306 238.262V239.367H97.1031C91.6792 239.493 86.3637 239.367 81.0482 239.964C76.4378 240.453 65.3187 235.763 62.9683 231.689C62.402 230.827 62.0116 229.861 61.8196 228.847C61.6276 227.833 61.6377 226.791 61.8495 225.781C62.0612 224.771 62.4704 223.814 63.0534 222.963C63.6364 222.112 64.3817 221.385 65.2464 220.824C65.9093 220.406 66.6274 220.083 67.3798 219.864C73.5892 218.233 79.9013 217.023 86.2733 216.243C88.0791 216.116 89.8915 216.116 91.6973 216.243C91.2323 215.253 90.6689 214.312 90.0158 213.436C78.5826 202.048 65.6796 192.243 51.6503 184.282C48.6852 182.634 46.0456 182.471 43.4601 185.676L79.3487 210.448L78.6074 211.553C71.7913 207.333 65.0656 202.915 58.0868 198.877C52.3429 195.631 46.4215 192.711 40.3504 190.131C38.9763 189.551 36.7344 190.891 34.9264 191.344C35.957 192.521 36.7344 194.151 38.0362 194.784C46.371 198.949 54.8143 202.879 63.2214 206.917C64.2638 207.396 65.0894 208.249 65.5357 209.307C59.5512 206.989 53.6029 204.617 47.6004 202.39C43.2432 200.76 38.8136 199.275 34.4021 197.79C31.9071 196.957 29.8641 197.464 28.9781 200.253C28.0741 203.35 30.6776 203.187 32.4133 203.748L58.3579 212.168L57.924 213.798C54.742 213.056 51.5961 212.186 48.3779 211.589C42.3211 210.466 36.2643 209.325 30.1352 208.565C28.5804 208.384 26.8266 209.669 25.1633 210.267C26.3477 211.316 27.6901 212.172 29.1409 212.802C36.671 214.492 44.0963 216.62 51.3791 219.176L44.7619 218.651C38.5966 218.162 32.4676 217.564 26.3023 217.293C25.1271 217.293 23.8977 218.47 22.6863 219.104C23.7933 220.029 25.054 220.752 26.4108 221.24C32.0517 222.073 37.765 222.598 43.424 223.323C44.8927 223.485 46.2412 224.212 47.1846 225.351C46.0094 225.351 44.8161 225.55 43.5686 225.532C37.548 225.423 31.5093 225.387 25.4887 225.079C21.8727 224.916 20.9687 226.89 21.0591 229.824C21.0591 233.445 23.7169 232.087 25.6695 231.924C31.5093 231.399 37.3491 230.838 43.1889 230.403C44.8103 230.291 46.4203 230.746 47.7451 231.689C43.4782 232.431 39.2114 233.047 34.9807 233.916C31.1658 234.713 27.4052 235.727 23.6446 236.777C20.9326 237.519 19.7936 239.638 21.023 241.92C21.4931 242.807 24.2954 243.042 25.8322 242.68C31.672 241.34 37.4214 239.548 43.2612 238.099C45.069 237.677 46.9628 237.822 48.6852 238.515L26.9894 246.429C26.1396 246.737 24.9825 246.881 24.5486 247.515C23.757 248.892 23.0972 250.341 22.5779 251.843C23.9881 252.078 25.5972 252.857 26.7543 252.422C35.6135 249.109 44.3822 245.541 53.2052 242.101C53.717 241.895 54.2682 241.806 54.8187 241.84C55.3692 241.875 55.9051 242.032 56.3872 242.3C49.8785 245.523 43.3516 248.674 36.879 251.97C33.7464 253.492 30.7255 255.235 27.8391 257.185C26.9532 257.801 26.8086 259.521 26.3385 260.806C27.7487 261.042 29.4844 261.947 30.4968 261.422C40.3865 256.352 50.1678 251.046 59.9851 245.831C60.398 245.625 60.8529 245.518 61.314 245.518C61.7752 245.518 62.23 245.625 62.6429 245.831L31.3104 265.333C33.01 269.625 34.9264 267.869 36.7344 266.637C47.3292 259.792 57.924 252.929 68.555 246.139C70.1349 245.067 71.9544 244.401 73.8524 244.201L38.3435 268.539L39.2114 270.585C41.2582 270.427 43.2727 269.982 45.1958 269.263C52.1204 265.333 58.6653 260.662 65.7707 257.094C76.1124 251.915 86.8157 247.461 98.9292 250.249C100.969 250.575 103.029 250.756 105.094 250.793C105.127 251.157 105.097 251.525 105.004 251.879C93.1437 258.706 84.1399 268.973 73.7801 277.575C64.2038 285.705 52.8606 291.479 40.6577 294.433C32.9015 296.244 26.1938 292.622 20.5348 287.48C11.3502 279.078 6.83028 268.14 4.26293 256.37C-0.81519 234.238 -1.36258 211.304 2.65382 188.954C5.66797 171.234 12.2167 154.303 21.9089 139.175C22.7947 137.871 23.7545 136.619 24.7836 135.426ZM128.58 19.5707L146.895 28.1721L146.57 28.8783L114.46 20.3856L113.899 22.3775L132.504 28.1358L132.359 29.3129L127.839 28.9688C120.86 28.2264 113.827 27.2667 106.812 26.814C104.861 26.9727 102.95 27.4498 101.153 28.2264L101.316 29.6388L132.413 32.4637V34.4012C131.401 34.4012 130.388 34.5823 129.394 34.5642L98.658 33.9123C97.0481 33.7283 95.4216 34.0649 94.0163 34.8728C92.611 35.6808 91.5006 36.9179 90.8475 38.4031L120.824 36.8639L120.932 38.4937C116.25 39.0912 111.549 39.5439 106.884 40.3045C100.086 41.4453 93.2341 42.568 86.5626 44.252C84.3026 44.8315 82.4765 47.0588 80.4516 48.5255L81.2109 49.8655L116.177 43.4553L116.557 45.2661C110.609 46.7147 104.606 47.9099 98.7484 49.6482C91.408 51.8393 84.1579 54.3201 76.9441 56.8915C72.623 58.4488 71.6828 62.4688 70.0376 67.6296C82.1692 60.8933 93.1798 54.9539 106.035 53.958C100.412 56.5474 94.572 58.7385 89.2022 61.7988C81.7714 66.0179 74.5756 70.726 67.5064 75.6152C65.8973 76.7379 65.4091 79.436 64.3966 81.3917L65.391 82.0255L98.9292 61.6901L99.8151 63.1025C97.4286 64.6055 94.9516 65.9998 92.5832 67.6296C83.5432 73.9131 74.6479 80.3052 65.7888 86.6611C63.6373 88.2003 62.1728 90.2828 63.9808 93.6327L98.0252 69.042L99.0558 70.3096C97.8806 71.1968 96.7054 72.1204 95.5664 73.0077C86.5987 80.2509 77.6371 87.5545 68.6816 94.9184C67.7888 95.4892 67.045 96.2652 66.512 97.1819C66.0987 98.6212 65.8559 100.104 65.7888 101.6C67.0933 101.335 68.3494 100.871 69.5132 100.224C77.0887 93.8138 84.4834 87.1863 92.0769 80.7941C94.6624 78.6212 97.6275 76.919 100.43 74.9995L101.189 75.9231C95.5483 80.9209 89.817 85.8101 84.3026 90.9347C80.0357 94.9365 76.0039 99.21 71.9721 103.465C71.4297 104.045 71.5382 105.276 71.3393 106.182C72.3156 106.327 73.6174 106.96 74.1959 106.562C76.7196 104.848 79.1349 102.979 81.4279 100.967C91.3899 92.0392 101.316 82.9671 111.278 74.1304C114.14 71.6514 117.447 69.7403 121.023 68.4987C119.54 69.7301 117.931 70.8528 116.557 72.1204C103.901 84.2709 91.4441 96.3852 79.0956 108.644C70.9596 116.702 63.2757 124.942 52.4277 129.324C50.7325 130.047 48.9117 130.428 47.0693 130.446C45.2269 130.465 43.3989 130.119 41.6898 129.43C39.9807 128.74 38.4239 127.72 37.1083 126.428C35.7928 125.136 34.7442 123.597 34.0224 121.899C33.4188 120.57 33.0341 119.151 32.8834 117.698C31.7624 108.952 34.6914 100.948 37.6203 93.0714C41.5798 82.2066 46.2625 71.5771 50.6198 60.8209C50.8757 59.8643 50.7992 58.849 50.4028 57.9417C35.9389 71.8306 27.5137 89.486 18.7088 107.178C19.141 104.874 19.795 102.618 20.6614 100.441C28.3273 84.9771 35.9389 69.4585 44.0025 54.1753C51.3576 40.2402 61.284 27.8283 73.2558 17.5969C86.9965 5.68183 102.581 -2.62978 121.439 0.991838C129.946 2.79584 138.12 5.91778 145.666 10.2451C164.612 20.4949 182.481 32.628 199.001 46.4612C204.552 50.8382 210.574 54.5796 216.955 57.6158C220.751 59.6077 222.487 58.7928 226.627 55.6058C225.055 54.1934 223.699 52.7628 222.107 51.5858C215.147 46.4793 208.096 41.6445 201.388 36.3207C198.71 34.2978 196.784 31.4367 195.916 28.1918C195.048 24.947 195.288 21.5046 196.597 18.4118C199.923 10.8607 208.638 7.78237 217.244 11.8567C227.803 16.8907 235.035 25.0213 235.035 37.4072C234.926 49.1774 234.673 60.6942 244.816 69.6214L243.152 70.5087L230.008 58.2134C222.071 64.4244 219.432 64.515 210.247 59.0463C192.294 48.3263 174.503 37.3166 156.333 26.995C150.276 23.5364 143.333 21.5626 136.662 19.281C134.07 18.6841 131.421 18.3744 128.761 18.3575L128.58 19.5707ZM373.798 33.2785C383.706 29.8018 394.282 30.8521 404.534 29.8923L404.931 28.5161C403.301 27.6431 401.544 27.032 399.724 26.7053C392.673 27.1399 385.658 27.9548 378.625 28.661C376.817 28.8421 375.136 29.1861 373.4 29.4577L373.075 28.2264L392.33 22.3231L391.751 20.3494L359.786 28.8421L359.442 28.1539L377.649 19.5707V18.5205C374.883 18.7559 371.881 18.3937 369.386 19.3353C360.853 22.5948 352.066 25.5826 344.074 30.0191C328.706 38.6023 313.863 48.1272 298.875 57.1812C297.211 58.1952 295.584 59.2998 293.848 60.2052C285.676 64.515 283.308 64.2433 276.311 58.1409L263.528 69.9836L262.643 69.1506C264.38 66.9814 265.86 64.6175 267.054 62.1066C268.831 57.0852 270.215 51.933 271.194 46.6966C271.827 43.1837 271.194 39.4534 271.466 35.8318C271.866 30.0591 274.049 24.5541 277.713 20.0798C281.377 15.6055 286.34 12.3837 291.914 10.8607C294.93 9.85908 298.192 9.8803 301.195 10.9211C304.199 11.9619 306.776 13.9644 308.529 16.6191C311.82 22.0515 311.241 30.2545 306.414 34.6185C301.297 39.2361 295.566 43.1837 290.142 47.2942C287.629 49.1955 284.917 50.9158 282.458 52.8534C281.536 53.5958 280.252 55.479 280.506 55.8593C281.301 56.9458 282.892 58.3582 283.959 58.2134C287.466 57.7063 291.317 57.2898 294.21 55.4971C300.164 51.7205 305.865 47.5589 311.277 43.0388C329.036 28.5542 348.336 16.0747 368.826 5.82669C386.707 -3.22734 404.335 -1.41654 421.257 9.08615C437.764 19.3534 450.185 33.7131 459.894 50.2096C467.994 63.8993 475.009 78.259 482.241 92.4557C484.358 96.7465 485.745 101.361 486.345 106.109C482.024 97.5622 477.92 88.8884 473.309 80.4863C468.809 71.9841 462.973 64.2621 456.025 57.6158L454.759 58.3582C456.079 61.4366 457.598 64.4425 458.683 67.5933C463.619 81.8082 468.916 95.8963 473.147 110.328C474.371 114.211 474.053 118.417 472.258 122.071C470.462 125.724 467.329 128.543 463.51 129.939C461.45 130.714 459.227 130.954 457.049 130.637C454.871 130.321 452.809 129.458 451.053 128.129C444.777 124.275 438.892 119.817 433.479 114.819C417.641 99.1376 403.395 81.9168 385.098 68.8066L385.785 67.865C388.885 69.7188 391.868 71.7629 394.716 73.9855C404.877 82.9309 414.857 92.0936 424.928 101.148C426.761 102.923 428.725 104.558 430.804 106.037C431.708 106.616 433.244 106.2 434.42 106.236C434.076 105.077 434.076 103.574 433.317 102.85C425.434 95.2263 417.425 87.7114 409.433 80.1966C407.933 78.7841 406.396 77.426 404.895 76.0317L405.817 74.8547C411.657 79.3636 417.623 83.7276 423.3 88.4357C427.82 92.166 431.961 96.3671 436.39 100.206C437.544 100.856 438.806 101.291 440.115 101.492C439.844 99.9525 440.115 97.87 439.229 96.9827C432.105 90.663 424.873 84.5244 417.641 78.4944C414.224 75.6514 410.536 73.062 406.974 70.4544L407.914 69.1506L441.995 93.7414C444.219 90.6992 442.465 88.653 440.476 87.132C433.244 81.6995 426.012 76.2671 418.781 71.0882C414.749 68.2633 410.41 65.8731 406.45 62.8852C418.817 67.3941 429.411 75.1082 440.259 82.3876L441.742 81.0839C440.44 79.092 439.518 76.6112 437.746 75.1806C426.858 66.3609 414.559 59.4488 401.37 54.7366C401.086 54.642 400.83 54.4783 400.625 54.2602C400.42 54.0421 400.272 53.7765 400.194 53.4871C413.103 54.7547 424.15 60.9115 435.577 66.706C434.166 62.5231 433.353 57.9417 428.345 56.4388C416.105 52.8171 403.846 49.1955 391.588 45.6826C390.844 45.5597 390.163 45.1898 389.654 44.6323C401.731 43.9623 413.158 48.2539 424.891 50.0647L425.723 48.5255C423.59 47.0226 421.637 44.6685 419.287 44.1796C409.433 42.1515 399.399 40.6666 389.527 39.0007C388.063 38.7472 386.598 38.5661 385.116 38.3669V36.8277L414.767 38.2945C413.194 34.4737 410.373 33.8037 407.264 33.858C397.03 34.0391 386.797 34.2926 376.528 34.528H373.906L373.798 33.2785Z" fill="white"/>
<path d="M346.731 234.737C347.237 234.159 347.454 233.635 347.798 233.545C360.226 230.386 372.382 224.32 385.587 227.858C396.821 230.873 407.602 234.574 416.701 243.005C428.893 254.144 441.748 264.538 455.196 274.13C466.628 282.399 473.756 281.153 484.139 271.585C485.857 269.798 487.833 268.277 490 267.071C489.721 267.887 489.389 268.683 489.005 269.455C481.353 281.406 469.704 285.486 453.821 281.478C433.885 276.693 414.84 268.77 397.4 258.008C388.29 252.576 378.791 247.821 368.981 243.782C362.595 240.965 355.957 238.727 349.444 236.181C348.522 235.748 347.617 235.26 346.731 234.737ZM160.011 234.195C159.165 234.793 158.29 235.347 157.388 235.856C147.439 239.918 137.345 243.673 127.54 248.079C121.173 250.931 115.312 254.885 109.071 258.062C88.4124 268.552 68.0255 279.384 44.6357 282.616C38.7148 283.646 32.6191 282.589 27.3942 279.624C22.1693 276.659 18.1409 271.972 16 266.367C17.5195 267.794 19.0571 269.184 20.5586 270.628C32.0997 281.569 38.7747 282.255 52.0343 273.336C56.8667 270.017 61.5278 266.456 65.9995 262.666C72.982 256.799 79.5123 250.371 86.712 244.775C92.8262 239.99 99.0852 234.448 106.212 232.137C119.671 227.714 133.727 224.193 147.818 230.693C151.8 232.131 155.873 233.301 160.011 234.195ZM285.588 51.02C292.444 46.2357 299.174 41.2528 306.174 36.6852C320.251 27.1645 335.555 19.5912 351.669 14.1719C354.329 13.3234 357.53 14.1719 360.479 14.1719C358.797 16.4467 357.567 19.5881 355.305 20.8158C348.773 24.4804 342.052 27.8008 335.172 30.7635C320.7 37.1907 306.011 43.4012 291.431 49.7201C289.622 50.4784 288.03 51.3991 286.33 52.2476L285.588 51.02ZM219.634 52.2296C211.494 48.1675 203.498 43.7443 195.141 40.1696C183.147 35.0423 170.81 30.7454 158.962 25.6001C154.683 23.4532 150.665 20.8243 146.986 17.7646C146.046 17.0605 145.955 15.2552 145.467 13.9372C146.715 13.6303 148.126 12.7457 149.085 13.0706C156.114 15.1231 163.033 17.5334 169.815 20.2922C186.647 27.9114 202.509 37.5055 217.065 48.8716C218.114 49.6659 219.073 50.677 220.068 51.4713L219.634 52.2296Z" fill="white"/>
<path d="M202.526 142.452H238.364L241.466 137.766C241.466 137.766 241.774 138.074 242.39 138.69C243.05 139.262 243.798 139.988 244.634 140.868C245.514 141.704 246.262 142.496 246.878 143.244C246.746 143.948 246.196 144.3 245.228 144.3H203.054L202.526 142.452ZM204.374 127.008H234.998L238.76 121.926C238.76 121.926 238.98 122.124 239.42 122.52C239.86 122.872 240.432 123.356 241.136 123.972C241.884 124.588 242.632 125.226 243.38 125.886C244.172 126.546 244.876 127.184 245.492 127.8C245.316 128.504 244.722 128.856 243.71 128.856H204.902L204.374 127.008ZM203.12 154.728H237.704L240.872 149.976C240.872 149.976 241.202 150.284 241.862 150.9C242.566 151.516 243.38 152.264 244.304 153.144C245.228 153.98 246.02 154.772 246.68 155.52C246.548 156.224 245.976 156.576 244.964 156.576H203.648L203.12 154.728ZM210.446 132.882L219.488 133.674C219.444 134.114 219.268 134.466 218.96 134.73C218.696 134.994 218.212 135.192 217.508 135.324V155.454H210.446V132.882ZM229.718 132.882L238.694 133.674C238.65 134.07 238.474 134.422 238.166 134.73C237.902 134.994 237.396 135.192 236.648 135.324V155.454H229.718V132.882ZM220.148 118.428L229.52 119.286C229.476 119.682 229.3 120.034 228.992 120.342C228.728 120.606 228.2 120.782 227.408 120.87V136.116C227.408 136.292 227.1 136.512 226.484 136.776C225.868 137.04 225.098 137.282 224.174 137.502C223.25 137.722 222.348 137.832 221.468 137.832H220.148V118.428ZM192.428 118.824L202.064 119.748C201.976 120.276 201.734 120.694 201.338 121.002C200.942 121.31 200.37 121.508 199.622 121.596C199.578 127.404 199.534 132.772 199.49 137.7C199.49 142.584 199.314 147.116 198.962 151.296C198.61 155.432 197.928 159.216 196.916 162.648C195.904 166.08 194.408 169.204 192.428 172.02C190.492 174.836 187.896 177.366 184.64 179.61L183.848 178.62C186.4 175.452 188.292 171.91 189.524 167.994C190.756 164.078 191.57 159.7 191.966 154.86C192.362 149.976 192.538 144.564 192.494 138.624C192.45 132.684 192.428 126.084 192.428 118.824ZM197.312 155.256C200.26 156.312 202.57 157.522 204.242 158.886C205.914 160.206 207.08 161.548 207.74 162.912C208.4 164.276 208.664 165.53 208.532 166.674C208.4 167.818 208.004 168.742 207.344 169.446C206.684 170.15 205.848 170.524 204.836 170.568C203.868 170.568 202.856 170.084 201.8 169.116C201.756 167.576 201.47 165.992 200.942 164.364C200.458 162.736 199.842 161.174 199.094 159.678C198.346 158.182 197.554 156.84 196.718 155.652L197.312 155.256ZM202.922 129.978L211.172 135.324C211.04 135.588 210.754 135.808 210.314 135.984C209.874 136.16 209.302 136.138 208.598 135.918C207.982 136.578 207.146 137.37 206.09 138.294C205.078 139.174 203.978 140.098 202.79 141.066C201.602 141.99 200.436 142.87 199.292 143.706L198.698 143.244C199.27 141.924 199.82 140.428 200.348 138.756C200.92 137.084 201.426 135.456 201.866 133.872C202.35 132.288 202.702 130.99 202.922 129.978ZM187.676 132.486L188.534 132.354C189.678 134.554 190.514 136.71 191.042 138.822C191.57 140.934 191.746 142.848 191.57 144.564C191.394 146.28 190.756 147.688 189.656 148.788C188.776 149.712 187.852 150.174 186.884 150.174C185.96 150.174 185.168 149.844 184.508 149.184C183.892 148.524 183.606 147.666 183.65 146.61C183.738 145.51 184.31 144.366 185.366 143.178C186.026 142.342 186.62 140.912 187.148 138.888C187.676 136.864 187.852 134.73 187.676 132.486ZM226.022 155.52H233.018C233.018 155.872 233.018 156.246 233.018 156.642C233.018 157.038 233.018 157.368 233.018 157.632V171.426C233.018 171.822 233.106 172.108 233.282 172.284C233.458 172.416 233.832 172.482 234.404 172.482H237.374C237.946 172.482 238.474 172.482 238.958 172.482C239.442 172.482 239.794 172.482 240.014 172.482C240.586 172.438 241.004 172.196 241.268 171.756C241.576 171.272 241.928 170.348 242.324 168.984C242.764 167.62 243.226 166.124 243.71 164.496H244.502L244.7 171.954C245.536 172.35 246.086 172.768 246.35 173.208C246.614 173.648 246.746 174.198 246.746 174.858C246.746 175.738 246.438 176.464 245.822 177.036C245.25 177.652 244.216 178.114 242.72 178.422C241.268 178.73 239.244 178.884 236.648 178.884H232.292C230.488 178.884 229.124 178.686 228.2 178.29C227.32 177.938 226.726 177.344 226.418 176.508C226.154 175.672 226.022 174.528 226.022 173.076V155.52ZM213.416 155.388H221.204C221.028 157.5 220.764 159.546 220.412 161.526C220.06 163.506 219.422 165.376 218.498 167.136C217.618 168.896 216.32 170.568 214.604 172.152C212.932 173.692 210.688 175.122 207.872 176.442C205.1 177.762 201.624 178.972 197.444 180.072L196.784 179.082C200.744 177.498 203.846 175.804 206.09 174C208.334 172.152 209.94 170.238 210.908 168.258C211.92 166.278 212.58 164.232 212.888 162.12C213.196 159.964 213.372 157.72 213.416 155.388ZM290.306 133.608C293.958 133.96 296.928 134.62 299.216 135.588C301.548 136.512 303.33 137.568 304.562 138.756C305.794 139.944 306.564 141.132 306.872 142.32C307.18 143.508 307.136 144.542 306.74 145.422C306.344 146.258 305.684 146.83 304.76 147.138C303.88 147.446 302.802 147.314 301.526 146.742C300.954 145.642 300.228 144.52 299.348 143.376C298.468 142.188 297.478 141.044 296.378 139.944C295.322 138.8 294.222 137.744 293.078 136.776C291.934 135.808 290.834 134.95 289.778 134.202L290.306 133.608ZM290.24 152.22C294.024 152.748 297.104 153.562 299.48 154.662C301.856 155.762 303.638 156.972 304.826 158.292C306.058 159.568 306.828 160.844 307.136 162.12C307.444 163.352 307.378 164.43 306.938 165.354C306.498 166.278 305.794 166.872 304.826 167.136C303.858 167.4 302.736 167.202 301.46 166.542C300.976 165.354 300.272 164.122 299.348 162.846C298.468 161.57 297.478 160.338 296.378 159.15C295.278 157.918 294.156 156.752 293.012 155.652C291.868 154.552 290.768 153.584 289.712 152.748L290.24 152.22ZM287.138 143.046L297.104 145.686C297.016 146.038 296.796 146.346 296.444 146.61C296.136 146.83 295.586 146.94 294.794 146.94C293.782 150.064 292.352 153.056 290.504 155.916C288.7 158.776 286.39 161.328 283.574 163.572C280.802 165.772 277.414 167.488 273.41 168.72L272.948 167.928C275.94 166.036 278.404 163.77 280.34 161.13C282.276 158.446 283.794 155.542 284.894 152.418C285.994 149.294 286.742 146.17 287.138 143.046ZM310.37 128.394H309.71L313.274 124.302L320.864 130.242C320.644 130.462 320.292 130.704 319.808 130.968C319.368 131.232 318.818 131.43 318.158 131.562V170.568C318.158 172.328 317.916 173.846 317.432 175.122C316.992 176.398 316.002 177.41 314.462 178.158C312.966 178.95 310.656 179.478 307.532 179.742C307.4 178.51 307.202 177.432 306.938 176.508C306.674 175.584 306.234 174.836 305.618 174.264C305.002 173.692 304.21 173.186 303.242 172.746C302.274 172.262 300.822 171.866 298.886 171.558V170.7C298.886 170.7 299.304 170.722 300.14 170.766C300.976 170.81 301.966 170.876 303.11 170.964C304.298 171.008 305.42 171.052 306.476 171.096C307.532 171.14 308.302 171.162 308.786 171.162C309.446 171.162 309.864 171.052 310.04 170.832C310.26 170.568 310.37 170.194 310.37 169.71V128.394ZM264.302 128.394V125.028L272.552 128.394H313.142V130.242H271.892V176.97C271.892 177.278 271.584 177.652 270.968 178.092C270.396 178.532 269.626 178.906 268.658 179.214C267.69 179.566 266.656 179.742 265.556 179.742H264.302V128.394ZM287.072 118.494L297.434 119.286C297.39 119.682 297.192 120.034 296.84 120.342C296.488 120.65 295.938 120.848 295.19 120.936C295.014 122.96 294.772 125.006 294.464 127.074C294.2 129.098 293.672 131.122 292.88 133.146C292.132 135.126 291.032 137.062 289.58 138.954C288.128 140.802 286.148 142.584 283.64 144.3C281.176 145.972 278.03 147.534 274.202 148.986L273.608 148.062C276.908 145.862 279.46 143.574 281.264 141.198C283.112 138.822 284.432 136.38 285.224 133.872C286.016 131.364 286.5 128.812 286.676 126.216C286.896 123.62 287.028 121.046 287.072 118.494Z" fill="white"/>
</svg>
