<svg width="506" height="295" viewBox="0 0 506 295" fill="none" xmlns="http://www.w3.org/2000/svg">
<path d="M371.14 225.297C371.324 224.351 371.609 223.429 371.99 222.544C388.262 191.235 414.423 172.24 447.564 162.48C463.836 157.699 476.491 162.769 486.056 176.966C490.63 183.775 493.776 191.453 497.573 198.877C497.988 199.656 498.332 200.47 498.784 201.231C498.892 201.394 499.326 201.376 500.321 201.575C498.815 179.045 492.298 157.136 481.246 137.454L482.584 136.766C485.098 140.985 487.882 145.078 490.069 149.442C503.34 176.043 507.969 204.219 505.257 233.753C503.991 247.479 501.912 260.915 495.819 273.591C492.63 280.472 487.669 286.378 481.445 290.703C474.394 295.447 466.873 296.443 459.171 292.785C451.505 289.304 444.044 285.386 436.824 281.051C432.196 278.154 428.507 273.808 424.168 270.186C416.846 264.247 409.361 258.507 401.948 252.676C401.406 252.259 400.773 251.934 399.616 251.191C414.08 249.036 427.368 248.638 439.717 256.624C446.515 261.042 453.548 265.134 460.599 269.172C462.488 270.057 464.598 270.353 466.656 270.023C456.622 258.869 443.152 252.477 431.292 244.129L432.051 242.952C438.632 246.918 445.304 250.738 451.794 254.867C457.869 258.76 463.709 263.034 469.874 266.945C470.851 267.579 472.46 267.235 473.779 267.343C473.237 266.148 473.002 264.428 472.062 263.849C463.022 258.018 453.711 252.386 444.508 246.7C444.147 246.483 443.839 246.193 443.803 245.161C445.81 246.03 447.871 246.773 449.769 247.787C457.869 252.115 465.879 256.569 473.978 260.879C475.786 261.821 477.992 263.812 479.222 260.879C479.655 259.865 477.956 257.058 476.564 256.298C467.777 251.481 458.791 247.026 449.878 242.427L450.366 241.159L481.915 253.509C484.537 249.887 484.338 248.62 480.107 246.99C472.586 244.093 464.957 241.558 457.381 238.715L457.616 237.447C462.57 238.443 467.578 239.258 472.496 240.471C475.425 241.159 478.191 242.445 481.12 243.115C482.433 243.136 483.738 242.915 484.971 242.463C484.447 240.779 484.374 238.027 483.326 237.574C479.568 236.07 475.675 234.93 471.7 234.17C467.169 233.423 462.684 232.42 458.267 231.164C459.398 230.836 460.563 230.642 461.738 230.584C467.885 231.001 474.015 231.58 480.162 232.015C481.97 232.141 484.646 233.934 484.989 230.204C485.278 227.017 484.194 225.025 480.415 225.206C474.991 225.478 469.567 225.478 464.143 225.568C462.368 225.69 460.589 225.411 458.936 224.753C460.225 224.172 461.57 223.723 462.95 223.413C468.464 222.671 474.033 222.2 479.529 221.367C480.813 221.168 481.952 219.918 483.145 219.158C481.807 218.56 480.433 217.347 479.131 217.347C472.821 217.691 466.475 218.361 460.238 218.904C458.362 219.17 456.45 218.946 454.687 218.253C460.111 216.894 465.625 215.5 471.122 214.178C473.599 213.581 476.148 213.218 478.589 212.494C479.529 212.204 480.252 211.208 481.066 210.52C480.071 209.832 479.005 208.456 478.101 208.565C471.399 209.374 464.709 210.363 458.032 211.534C454.705 212.096 451.433 213.11 448.142 213.907L447.69 212.458C454.488 210.068 461.286 207.659 468.102 205.341C470.145 204.834 472.17 204.237 474.159 203.531C475.35 202.748 476.422 201.796 477.341 200.706C475.804 199.656 474.033 197.483 472.767 197.754C468.23 198.808 463.781 200.213 459.46 201.955C453.012 204.587 446.449 206.893 439.771 208.873C443.098 207.062 446.334 204.943 449.769 203.295C455.718 200.416 461.829 197.863 467.849 194.966C469.187 194.314 471.23 192.43 471.013 191.724C470.164 188.917 467.795 188.954 465.589 190.167C456.839 194.821 448.07 199.438 439.373 204.219C436.029 206.03 432.865 208.221 429.628 210.249L428.743 208.945L462.425 185.911C462.314 185.4 462.103 184.916 461.805 184.486C461.506 184.056 461.126 183.69 460.686 183.407C460.246 183.125 459.755 182.932 459.241 182.84C458.726 182.747 458.199 182.757 457.688 182.869C457.232 182.964 456.797 183.142 456.405 183.394C440.598 191.91 426.234 202.874 413.845 215.88C419.016 216.279 423.282 216.333 427.441 216.985C431.312 217.492 435.107 218.471 438.741 219.9C445.466 222.761 446.407 230.457 440.422 234.695C435.287 238.59 428.853 240.36 422.451 239.638C418.089 239.4 413.717 239.442 409.361 239.765H399.941L399.779 238.606C404.732 237.701 409.704 236.795 414.64 235.835C417.446 235.348 420.208 234.639 422.903 233.717C424.078 233.264 424.855 231.761 425.814 230.729C424.638 230.005 423.373 228.574 422.198 228.683C415.026 229.188 407.886 230.077 400.809 231.345C393.161 232.884 385.694 235.31 378.137 237.32C377.692 237.418 377.23 237.411 376.788 237.302C376.346 237.192 375.935 236.981 375.588 236.687C377.631 235.437 379.619 234.061 381.717 232.902C391.064 227.759 400.447 222.671 409.795 217.51C410.667 216.915 411.478 216.236 412.217 215.482C423.662 205.052 435.07 194.585 446.569 184.209C447.509 183.358 449.082 183.213 450.004 182.399C445.484 178.777 442.519 180.008 439.862 182.236C429.448 190.891 419.076 199.613 408.746 208.402C406.016 210.72 403.322 213.128 400.646 215.5L399.67 214.613C409.072 203.875 418.491 193.155 428.272 182.018C426.575 181.48 424.757 181.456 423.045 181.949C421.334 182.442 419.807 183.43 418.654 184.789C411.982 191.742 405.275 198.678 398.64 205.686C397.791 206.734 397.046 207.862 396.416 209.054L394.933 207.75L409.234 190.022L408.077 188.936C394.138 199.185 383.29 212.73 371.14 225.297ZM24.7836 135.426C14.3504 155.144 7.84733 176.707 5.637 198.913C5.67006 200.321 5.8396 201.721 6.14324 203.096C9.3253 196.36 11.8384 190.312 14.9481 184.608C20.4625 174.54 26.9713 165.178 39.0125 162.226C48.8299 159.8 58.4484 161.61 67.7414 165.323C96.0364 176.55 118.998 193.752 133.353 221.222C134.04 222.562 134.691 223.92 135.306 225.297C135.255 225.859 135.133 226.412 134.944 226.944C123.156 213.11 111.856 199.42 97.8444 188.573L96.6511 189.642L112.236 208.945L112.037 209.09C106.613 203.947 101.533 198.605 95.9822 193.716C90.4317 188.827 87.575 180.914 77.3238 181.33L106.505 214.667L105.655 215.482C97.8806 208.71 90.1605 201.847 82.2957 195.183C76.8718 190.511 71.0319 186.129 65.4091 181.584C62.7694 179.483 59.8767 179.266 56.2607 181.077L59.6597 184.264C70.9777 194.585 82.2776 204.943 93.668 215.192C95.428 216.537 97.3106 217.714 99.2908 218.705C108.078 224.138 116.883 229.389 125.398 235.636C120.137 234.423 114.659 233.825 109.651 231.888C101.243 228.683 92.5832 228.592 83.8868 228.61C82.6031 228.61 81.3194 230.095 80.0357 230.892C81.0663 231.87 81.9522 233.409 83.1636 233.717C89.0757 235.22 95.0782 236.433 101.045 237.646C102.853 238.008 104.552 238.063 106.306 238.262V239.367H97.1031C91.6792 239.493 86.3637 239.367 81.0482 239.964C76.4378 240.453 65.3187 235.763 62.9683 231.689C62.402 230.827 62.0116 229.861 61.8196 228.847C61.6276 227.833 61.6377 226.791 61.8495 225.781C62.0612 224.771 62.4704 223.814 63.0534 222.963C63.6364 222.112 64.3817 221.385 65.2464 220.824C65.9093 220.406 66.6274 220.083 67.3798 219.864C73.5892 218.233 79.9013 217.023 86.2733 216.243C88.0791 216.116 89.8915 216.116 91.6973 216.243C91.2323 215.253 90.6689 214.312 90.0158 213.436C78.5826 202.048 65.6796 192.243 51.6503 184.282C48.6852 182.634 46.0456 182.471 43.4601 185.676L79.3487 210.448L78.6074 211.553C71.7913 207.333 65.0656 202.915 58.0868 198.877C52.3429 195.631 46.4215 192.711 40.3504 190.131C38.9763 189.551 36.7344 190.891 34.9264 191.344C35.957 192.521 36.7344 194.151 38.0362 194.784C46.371 198.949 54.8143 202.879 63.2214 206.917C64.2638 207.396 65.0894 208.249 65.5357 209.307C59.5512 206.989 53.6029 204.617 47.6004 202.39C43.2432 200.76 38.8136 199.275 34.4021 197.79C31.9071 196.957 29.8641 197.464 28.9781 200.253C28.0741 203.35 30.6776 203.187 32.4133 203.748L58.3579 212.168L57.924 213.798C54.742 213.056 51.5961 212.186 48.3779 211.589C42.3211 210.466 36.2643 209.325 30.1352 208.565C28.5804 208.384 26.8266 209.669 25.1633 210.267C26.3477 211.316 27.6901 212.172 29.1409 212.802C36.671 214.492 44.0963 216.62 51.3791 219.176L44.7619 218.651C38.5966 218.162 32.4676 217.564 26.3023 217.293C25.1271 217.293 23.8977 218.47 22.6863 219.104C23.7933 220.029 25.054 220.752 26.4108 221.24C32.0517 222.073 37.765 222.598 43.424 223.323C44.8927 223.485 46.2412 224.212 47.1846 225.351C46.0094 225.351 44.8161 225.55 43.5686 225.532C37.548 225.423 31.5093 225.387 25.4887 225.079C21.8727 224.916 20.9687 226.89 21.0591 229.824C21.0591 233.445 23.7169 232.087 25.6695 231.924C31.5093 231.399 37.3491 230.838 43.1889 230.403C44.8103 230.291 46.4203 230.746 47.7451 231.689C43.4782 232.431 39.2114 233.047 34.9807 233.916C31.1658 234.713 27.4052 235.727 23.6446 236.777C20.9326 237.519 19.7936 239.638 21.023 241.92C21.4931 242.807 24.2954 243.042 25.8322 242.68C31.672 241.34 37.4214 239.548 43.2612 238.099C45.069 237.677 46.9628 237.822 48.6852 238.515L26.9894 246.429C26.1396 246.737 24.9825 246.881 24.5486 247.515C23.757 248.892 23.0972 250.341 22.5779 251.843C23.9881 252.078 25.5972 252.857 26.7543 252.422C35.6135 249.109 44.3822 245.541 53.2052 242.101C53.717 241.895 54.2682 241.806 54.8187 241.84C55.3692 241.875 55.9051 242.032 56.3872 242.3C49.8785 245.523 43.3516 248.674 36.879 251.97C33.7464 253.492 30.7255 255.235 27.8391 257.185C26.9532 257.801 26.8086 259.521 26.3385 260.806C27.7487 261.042 29.4844 261.947 30.4968 261.422C40.3865 256.352 50.1678 251.046 59.9851 245.831C60.398 245.625 60.8529 245.518 61.314 245.518C61.7752 245.518 62.23 245.625 62.6429 245.831L31.3104 265.333C33.01 269.625 34.9264 267.869 36.7344 266.637C47.3292 259.792 57.924 252.929 68.555 246.139C70.1349 245.067 71.9544 244.401 73.8524 244.201L38.3435 268.539L39.2114 270.585C41.2582 270.427 43.2727 269.982 45.1958 269.263C52.1204 265.333 58.6653 260.662 65.7707 257.094C76.1124 251.915 86.8157 247.461 98.9292 250.249C100.969 250.575 103.029 250.756 105.094 250.793C105.127 251.157 105.097 251.525 105.004 251.879C93.1437 258.706 84.1399 268.973 73.7801 277.575C64.2038 285.705 52.8606 291.479 40.6577 294.433C32.9015 296.244 26.1938 292.622 20.5348 287.48C11.3502 279.078 6.83028 268.14 4.26293 256.37C-0.81519 234.238 -1.36258 211.304 2.65382 188.954C5.66797 171.234 12.2167 154.303 21.9089 139.175C22.7947 137.871 23.7545 136.619 24.7836 135.426ZM128.58 19.5707L146.895 28.1721L146.57 28.8783L114.46 20.3856L113.899 22.3775L132.504 28.1358L132.359 29.3129L127.839 28.9688C120.86 28.2264 113.827 27.2667 106.812 26.814C104.861 26.9727 102.95 27.4498 101.153 28.2264L101.316 29.6388L132.413 32.4637V34.4012C131.401 34.4012 130.388 34.5823 129.394 34.5642L98.658 33.9123C97.0481 33.7283 95.4216 34.0649 94.0163 34.8728C92.611 35.6808 91.5006 36.9179 90.8475 38.4031L120.824 36.8639L120.932 38.4937C116.25 39.0912 111.549 39.5439 106.884 40.3045C100.086 41.4453 93.2341 42.568 86.5626 44.252C84.3026 44.8315 82.4765 47.0588 80.4516 48.5255L81.2109 49.8655L116.177 43.4553L116.557 45.2661C110.609 46.7147 104.606 47.9099 98.7484 49.6482C91.408 51.8393 84.1579 54.3201 76.9441 56.8915C72.623 58.4488 71.6828 62.4688 70.0376 67.6296C82.1692 60.8933 93.1798 54.9539 106.035 53.958C100.412 56.5474 94.572 58.7385 89.2022 61.7988C81.7714 66.0179 74.5756 70.726 67.5064 75.6152C65.8973 76.7379 65.4091 79.436 64.3966 81.3917L65.391 82.0255L98.9292 61.6901L99.8151 63.1025C97.4286 64.6055 94.9516 65.9998 92.5832 67.6296C83.5432 73.9131 74.6479 80.3052 65.7888 86.6611C63.6373 88.2003 62.1728 90.2828 63.9808 93.6327L98.0252 69.042L99.0558 70.3096C97.8806 71.1968 96.7054 72.1204 95.5664 73.0077C86.5987 80.2509 77.6371 87.5545 68.6816 94.9184C67.7888 95.4892 67.045 96.2652 66.512 97.1819C66.0987 98.6212 65.8559 100.104 65.7888 101.6C67.0933 101.335 68.3494 100.871 69.5132 100.224C77.0887 93.8138 84.4834 87.1863 92.0769 80.7941C94.6624 78.6212 97.6275 76.919 100.43 74.9995L101.189 75.9231C95.5483 80.9209 89.817 85.8101 84.3026 90.9347C80.0357 94.9365 76.0039 99.21 71.9721 103.465C71.4297 104.045 71.5382 105.276 71.3393 106.182C72.3156 106.327 73.6174 106.96 74.1959 106.562C76.7196 104.848 79.1349 102.979 81.4279 100.967C91.3899 92.0392 101.316 82.9671 111.278 74.1304C114.14 71.6514 117.447 69.7403 121.023 68.4987C119.54 69.7301 117.931 70.8528 116.557 72.1204C103.901 84.2709 91.4441 96.3852 79.0956 108.644C70.9596 116.702 63.2757 124.942 52.4277 129.324C50.7325 130.047 48.9117 130.428 47.0693 130.446C45.2269 130.465 43.3989 130.119 41.6898 129.43C39.9807 128.74 38.4239 127.72 37.1083 126.428C35.7928 125.136 34.7442 123.597 34.0224 121.899C33.4188 120.57 33.0341 119.151 32.8834 117.698C31.7624 108.952 34.6914 100.948 37.6203 93.0714C41.5798 82.2066 46.2625 71.5771 50.6198 60.8209C50.8757 59.8643 50.7992 58.849 50.4028 57.9417C35.9389 71.8306 27.5137 89.486 18.7088 107.178C19.141 104.874 19.795 102.618 20.6614 100.441C28.3273 84.9771 35.9389 69.4585 44.0025 54.1753C51.3576 40.2402 61.284 27.8283 73.2558 17.5969C86.9965 5.68183 102.581 -2.62978 121.439 0.991838C129.946 2.79584 138.12 5.91778 145.666 10.2451C164.612 20.4949 182.481 32.628 199.001 46.4612C204.552 50.8382 210.574 54.5796 216.955 57.6158C220.751 59.6077 222.487 58.7928 226.627 55.6058C225.055 54.1934 223.699 52.7628 222.107 51.5858C215.147 46.4793 208.096 41.6445 201.388 36.3207C198.71 34.2978 196.784 31.4367 195.916 28.1918C195.048 24.947 195.288 21.5046 196.597 18.4118C199.923 10.8607 208.638 7.78237 217.244 11.8567C227.803 16.8907 235.035 25.0213 235.035 37.4072C234.926 49.1774 234.673 60.6942 244.816 69.6214L243.152 70.5087L230.008 58.2134C222.071 64.4244 219.432 64.515 210.247 59.0463C192.294 48.3263 174.503 37.3166 156.333 26.995C150.276 23.5364 143.333 21.5626 136.662 19.281C134.07 18.6841 131.421 18.3744 128.761 18.3575L128.58 19.5707ZM373.798 33.2785C383.706 29.8018 394.282 30.8521 404.534 29.8923L404.931 28.5161C403.301 27.6431 401.544 27.032 399.724 26.7053C392.673 27.1399 385.658 27.9548 378.625 28.661C376.817 28.8421 375.136 29.1861 373.4 29.4577L373.075 28.2264L392.33 22.3231L391.751 20.3494L359.786 28.8421L359.442 28.1539L377.649 19.5707V18.5205C374.883 18.7559 371.881 18.3937 369.386 19.3353C360.853 22.5948 352.066 25.5826 344.074 30.0191C328.706 38.6023 313.863 48.1272 298.875 57.1812C297.211 58.1952 295.584 59.2998 293.848 60.2052C285.676 64.515 283.308 64.2433 276.311 58.1409L263.528 69.9836L262.643 69.1506C264.38 66.9814 265.86 64.6175 267.054 62.1066C268.831 57.0852 270.215 51.933 271.194 46.6966C271.827 43.1837 271.194 39.4534 271.466 35.8318C271.866 30.0591 274.049 24.5541 277.713 20.0798C281.377 15.6055 286.34 12.3837 291.914 10.8607C294.93 9.85908 298.192 9.8803 301.195 10.9211C304.199 11.9619 306.776 13.9644 308.529 16.6191C311.82 22.0515 311.241 30.2545 306.414 34.6185C301.297 39.2361 295.566 43.1837 290.142 47.2942C287.629 49.1955 284.917 50.9158 282.458 52.8534C281.536 53.5958 280.252 55.479 280.506 55.8593C281.301 56.9458 282.892 58.3582 283.959 58.2134C287.466 57.7063 291.317 57.2898 294.21 55.4971C300.164 51.7205 305.865 47.5589 311.277 43.0388C329.036 28.5542 348.336 16.0747 368.826 5.82669C386.707 -3.22734 404.335 -1.41654 421.257 9.08615C437.764 19.3534 450.185 33.7131 459.894 50.2096C467.994 63.8993 475.009 78.259 482.241 92.4557C484.358 96.7465 485.745 101.361 486.345 106.109C482.024 97.5622 477.92 88.8884 473.309 80.4863C468.809 71.9841 462.973 64.2621 456.025 57.6158L454.759 58.3582C456.079 61.4366 457.598 64.4425 458.683 67.5933C463.619 81.8082 468.916 95.8963 473.147 110.328C474.371 114.211 474.053 118.417 472.258 122.071C470.462 125.724 467.329 128.543 463.51 129.939C461.45 130.714 459.227 130.954 457.049 130.637C454.871 130.321 452.809 129.458 451.053 128.129C444.777 124.275 438.892 119.817 433.479 114.819C417.641 99.1376 403.395 81.9168 385.098 68.8066L385.785 67.865C388.885 69.7188 391.868 71.7629 394.716 73.9855C404.877 82.9309 414.857 92.0936 424.928 101.148C426.761 102.923 428.725 104.558 430.804 106.037C431.708 106.616 433.244 106.2 434.42 106.236C434.076 105.077 434.076 103.574 433.317 102.85C425.434 95.2263 417.425 87.7114 409.433 80.1966C407.933 78.7841 406.396 77.426 404.895 76.0317L405.817 74.8547C411.657 79.3636 417.623 83.7276 423.3 88.4357C427.82 92.166 431.961 96.3671 436.39 100.206C437.544 100.856 438.806 101.291 440.115 101.492C439.844 99.9525 440.115 97.87 439.229 96.9827C432.105 90.663 424.873 84.5244 417.641 78.4944C414.224 75.6514 410.536 73.062 406.974 70.4544L407.914 69.1506L441.995 93.7414C444.219 90.6992 442.465 88.653 440.476 87.132C433.244 81.6995 426.012 76.2671 418.781 71.0882C414.749 68.2633 410.41 65.8731 406.45 62.8852C418.817 67.3941 429.411 75.1082 440.259 82.3876L441.742 81.0839C440.44 79.092 439.518 76.6112 437.746 75.1806C426.858 66.3609 414.559 59.4488 401.37 54.7366C401.086 54.642 400.83 54.4783 400.625 54.2602C400.42 54.0421 400.272 53.7765 400.194 53.4871C413.103 54.7547 424.15 60.9115 435.577 66.706C434.166 62.5231 433.353 57.9417 428.345 56.4388C416.105 52.8171 403.846 49.1955 391.588 45.6826C390.844 45.5597 390.163 45.1898 389.654 44.6323C401.731 43.9623 413.158 48.2539 424.891 50.0647L425.723 48.5255C423.59 47.0226 421.637 44.6685 419.287 44.1796C409.433 42.1515 399.399 40.6666 389.527 39.0007C388.063 38.7472 386.598 38.5661 385.116 38.3669V36.8277L414.767 38.2945C413.194 34.4737 410.373 33.8037 407.264 33.858C397.03 34.0391 386.797 34.2926 376.528 34.528H373.906L373.798 33.2785Z" fill="white"/>
<path d="M346.731 234.737C347.237 234.159 347.454 233.635 347.798 233.545C360.226 230.386 372.382 224.32 385.587 227.858C396.821 230.873 407.602 234.574 416.701 243.005C428.893 254.144 441.748 264.538 455.196 274.13C466.628 282.399 473.756 281.153 484.139 271.585C485.857 269.798 487.833 268.277 490 267.071C489.721 267.887 489.389 268.683 489.005 269.455C481.353 281.406 469.704 285.486 453.821 281.478C433.885 276.693 414.84 268.77 397.4 258.008C388.29 252.576 378.791 247.821 368.981 243.782C362.595 240.965 355.957 238.727 349.444 236.181C348.522 235.748 347.617 235.26 346.731 234.737ZM160.011 234.195C159.165 234.793 158.29 235.347 157.388 235.856C147.439 239.918 137.345 243.673 127.54 248.079C121.173 250.931 115.312 254.885 109.071 258.062C88.4124 268.552 68.0255 279.384 44.6357 282.616C38.7148 283.646 32.6191 282.589 27.3942 279.624C22.1693 276.659 18.1409 271.972 16 266.367C17.5195 267.794 19.0571 269.184 20.5586 270.628C32.0997 281.569 38.7747 282.255 52.0343 273.336C56.8667 270.017 61.5278 266.456 65.9995 262.666C72.982 256.799 79.5123 250.371 86.712 244.775C92.8262 239.99 99.0852 234.448 106.212 232.137C119.671 227.714 133.727 224.193 147.818 230.693C151.8 232.131 155.873 233.301 160.011 234.195ZM285.588 51.02C292.444 46.2357 299.174 41.2528 306.174 36.6852C320.251 27.1645 335.555 19.5912 351.669 14.1719C354.329 13.3234 357.53 14.1719 360.479 14.1719C358.797 16.4467 357.567 19.5881 355.305 20.8158C348.773 24.4804 342.052 27.8008 335.172 30.7635C320.7 37.1907 306.011 43.4012 291.431 49.7201C289.622 50.4784 288.03 51.3991 286.33 52.2476L285.588 51.02ZM219.634 52.2296C211.494 48.1675 203.498 43.7443 195.141 40.1696C183.147 35.0423 170.81 30.7454 158.962 25.6001C154.683 23.4532 150.665 20.8243 146.986 17.7646C146.046 17.0605 145.955 15.2552 145.467 13.9372C146.715 13.6303 148.126 12.7457 149.085 13.0706C156.114 15.1231 163.033 17.5334 169.815 20.2922C186.647 27.9114 202.509 37.5055 217.065 48.8716C218.114 49.6659 219.073 50.677 220.068 51.4713L219.634 52.2296Z" fill="white"/>
<path d="M128.134 136.994L128.854 136.706C129.366 137.154 129.814 137.554 130.198 137.906C130.614 138.258 131.03 138.546 131.446 138.77C131.862 138.962 132.358 139.058 132.934 139.058C133.446 139.058 134.278 139.01 135.43 138.914C136.614 138.818 137.942 138.706 139.414 138.578C140.918 138.45 142.406 138.306 143.878 138.146C145.382 137.954 146.726 137.794 147.91 137.666C149.094 137.538 149.942 137.442 150.454 137.378C151.126 137.282 151.654 137.106 152.038 136.85C152.422 136.562 152.774 136.306 153.094 136.082C153.414 135.826 153.782 135.698 154.198 135.698C154.646 135.698 155.238 135.874 155.974 136.226C156.71 136.578 157.462 137.026 158.23 137.57C159.03 138.082 159.686 138.642 160.198 139.25C160.742 139.826 161.014 140.386 161.014 140.93C161.014 141.378 160.87 141.778 160.582 142.13C160.326 142.482 160.038 142.866 159.718 143.282C159.398 143.666 159.158 144.13 158.998 144.674C158.774 145.506 158.518 146.482 158.23 147.602C157.974 148.69 157.686 149.89 157.366 151.202C157.046 152.482 156.71 153.81 156.358 155.186C156.038 156.53 155.702 157.874 155.35 159.218H150.262C150.55 157.906 150.838 156.434 151.126 154.802C151.414 153.138 151.686 151.474 151.942 149.81C152.198 148.114 152.422 146.578 152.614 145.202C152.806 143.794 152.918 142.69 152.95 141.89C152.982 141.474 152.806 141.266 152.422 141.266C152.006 141.266 151.318 141.314 150.358 141.41C149.43 141.506 148.374 141.634 147.19 141.794C146.006 141.922 144.79 142.082 143.542 142.274C142.326 142.434 141.19 142.61 140.134 142.802C139.11 142.962 138.31 143.106 137.734 143.234C136.71 143.49 135.83 143.794 135.094 144.146C134.39 144.466 133.718 144.626 133.078 144.626C132.566 144.626 131.99 144.386 131.35 143.906C130.71 143.426 130.134 142.85 129.622 142.178C129.11 141.506 128.758 140.866 128.566 140.258C128.406 139.81 128.278 139.298 128.182 138.722C128.118 138.114 128.102 137.538 128.134 136.994ZM126.742 156.098L127.414 155.81C128.118 156.514 128.806 157.106 129.478 157.586C130.182 158.034 131.03 158.258 132.022 158.258C132.502 158.258 133.334 158.21 134.518 158.114C135.702 157.986 137.078 157.842 138.646 157.682C140.214 157.522 141.83 157.362 143.494 157.202C145.19 157.01 146.79 156.834 148.294 156.674C149.83 156.514 151.126 156.386 152.182 156.29C153.238 156.162 153.926 156.098 154.246 156.098C155.43 156.066 156.422 156.258 157.222 156.674C158.022 157.058 158.63 157.554 159.046 158.162C159.462 158.738 159.67 159.346 159.67 159.986C159.67 160.53 159.478 160.946 159.094 161.234C158.71 161.522 158.134 161.666 157.366 161.666C156.502 161.666 155.398 161.554 154.054 161.33C152.71 161.106 151.046 160.994 149.062 160.994C147.526 160.994 145.99 161.09 144.454 161.282C142.918 161.442 141.51 161.65 140.23 161.906C138.982 162.13 137.958 162.354 137.158 162.578C136.454 162.738 135.846 162.914 135.334 163.106C134.822 163.298 134.342 163.458 133.894 163.586C133.446 163.714 132.982 163.778 132.502 163.778C131.862 163.778 131.19 163.554 130.486 163.106C129.782 162.658 129.142 162.114 128.566 161.474C127.99 160.802 127.574 160.162 127.318 159.554C127.126 159.01 126.966 158.402 126.838 157.73C126.742 157.026 126.71 156.482 126.742 156.098ZM179.926 144.866C180.406 145.506 180.838 146.066 181.222 146.546C181.638 147.026 182.118 147.41 182.662 147.698C183.206 147.954 183.894 148.082 184.726 148.082C185.59 148.082 186.662 148.066 187.942 148.034C189.254 147.97 190.678 147.906 192.214 147.842C193.75 147.746 195.286 147.65 196.822 147.554C198.39 147.458 199.878 147.362 201.286 147.266C202.694 147.17 203.91 147.09 204.934 147.026C205.99 146.93 206.774 146.882 207.286 146.882C208.886 146.722 210.23 146.578 211.318 146.45C212.406 146.29 213.238 146.21 213.814 146.21C214.806 146.21 215.702 146.37 216.502 146.69C217.302 146.978 217.942 147.394 218.422 147.938C218.934 148.45 219.19 149.058 219.19 149.762C219.19 150.466 218.918 150.994 218.374 151.346C217.83 151.666 217.046 151.826 216.022 151.826C215.094 151.826 214.118 151.81 213.094 151.778C212.102 151.714 210.758 151.682 209.062 151.682C208.326 151.682 207.35 151.714 206.134 151.778C204.95 151.81 203.638 151.874 202.198 151.97C200.758 152.034 199.318 152.114 197.878 152.21C196.438 152.306 195.11 152.402 193.894 152.498C192.678 152.594 191.702 152.69 190.966 152.786C189.814 152.882 188.918 153.058 188.278 153.314C187.638 153.538 187.078 153.762 186.598 153.986C186.118 154.178 185.574 154.274 184.966 154.274C184.358 154.274 183.654 153.986 182.854 153.41C182.086 152.802 181.366 152.082 180.694 151.25C180.022 150.386 179.542 149.57 179.254 148.802C179.03 148.258 178.934 147.666 178.966 147.026C178.998 146.354 179.046 145.73 179.11 145.154L179.926 144.866ZM237.679 134.306L238.495 133.97C238.847 134.418 239.231 134.866 239.647 135.314C240.063 135.73 240.511 136.082 240.991 136.37C241.471 136.626 241.983 136.754 242.527 136.754C243.167 136.754 243.983 136.69 244.975 136.562C245.999 136.434 247.071 136.29 248.191 136.13C249.343 135.97 250.463 135.794 251.551 135.602C252.671 135.378 253.663 135.186 254.527 135.026C255.423 134.866 256.095 134.722 256.543 134.594C256.959 134.498 257.327 134.322 257.647 134.066C257.967 133.778 258.287 133.522 258.607 133.298C258.927 133.042 259.247 132.914 259.567 132.914C260.079 132.914 260.687 133.106 261.391 133.49C262.127 133.874 262.831 134.354 263.503 134.93C264.207 135.506 264.783 136.098 265.231 136.706C265.711 137.282 265.951 137.762 265.951 138.146C265.951 138.594 265.759 138.994 265.375 139.346C264.991 139.666 264.575 139.97 264.127 140.258C263.679 140.514 263.359 140.786 263.167 141.074C262.591 141.906 261.887 142.946 261.055 144.194C260.255 145.41 259.359 146.69 258.367 148.034C257.407 149.346 256.351 150.61 255.199 151.826C254.111 152.946 252.799 154.21 251.263 155.618C249.759 156.994 248.031 158.402 246.079 159.842C244.127 161.282 241.903 162.642 239.407 163.922C236.911 165.17 234.127 166.274 231.055 167.234L230.527 166.226C232.799 165.042 235.055 163.65 237.295 162.05C239.535 160.418 241.695 158.658 243.775 156.77C245.887 154.85 247.823 152.866 249.583 150.818C251.375 148.77 252.959 146.722 254.335 144.674C255.711 142.594 256.767 140.626 257.503 138.77C257.759 138.162 257.583 137.858 256.975 137.858C256.495 137.922 255.791 138.066 254.863 138.29C253.967 138.482 252.975 138.738 251.887 139.058C250.831 139.346 249.823 139.65 248.863 139.97C247.903 140.258 247.119 140.498 246.511 140.69C245.967 140.85 245.519 141.074 245.167 141.362C244.847 141.618 244.527 141.858 244.207 142.082C243.887 142.274 243.487 142.37 243.007 142.37C242.303 142.37 241.599 142.114 240.895 141.602C240.223 141.09 239.631 140.482 239.119 139.778C238.607 139.042 238.255 138.386 238.063 137.81C237.903 137.298 237.791 136.754 237.727 136.178C237.663 135.57 237.647 134.946 237.679 134.306ZM252.799 151.346L253.567 150.386C255.743 150.93 257.855 151.634 259.903 152.498C261.983 153.362 263.839 154.37 265.471 155.522C267.135 156.642 268.447 157.874 269.407 159.218C270.367 160.53 270.847 161.906 270.847 163.346C270.847 164.082 270.591 164.786 270.079 165.458C269.567 166.13 268.831 166.466 267.871 166.466C267.231 166.466 266.655 166.306 266.143 165.986C265.631 165.666 265.135 165.218 264.655 164.642C264.207 164.034 263.695 163.314 263.119 162.482C262.319 161.106 261.487 159.778 260.623 158.498C259.759 157.218 258.719 155.97 257.503 154.754C256.287 153.538 254.719 152.402 252.799 151.346ZM318.127 126.29L325.327 127.01C325.295 127.33 325.151 127.618 324.895 127.874C324.671 128.098 324.223 128.258 323.551 128.354V169.298C323.551 169.49 323.327 169.746 322.879 170.066C322.463 170.386 321.903 170.658 321.199 170.882C320.527 171.106 319.839 171.218 319.135 171.218H318.127V126.29ZM284.287 145.058H299.599L302.287 141.602C302.287 141.602 302.559 141.826 303.103 142.274C303.679 142.722 304.335 143.266 305.071 143.906C305.839 144.514 306.527 145.09 307.135 145.634C307.007 146.146 306.575 146.402 305.839 146.402H284.671L284.287 145.058ZM291.583 145.058H297.439V145.826C296.415 149.57 294.815 152.978 292.639 156.05C290.495 159.09 287.871 161.762 284.767 164.066L284.239 163.538C285.487 161.906 286.575 160.066 287.503 158.018C288.431 155.97 289.231 153.842 289.903 151.634C290.607 149.394 291.167 147.202 291.583 145.058ZM301.135 130.37L307.519 132.338C307.423 132.626 307.231 132.866 306.943 133.058C306.655 133.25 306.239 133.346 305.695 133.346C304.863 134.786 303.935 136.274 302.911 137.81C301.887 139.314 300.879 140.626 299.887 141.746L299.167 141.458C299.391 140.498 299.615 139.41 299.839 138.194C300.063 136.946 300.287 135.65 300.511 134.306C300.735 132.93 300.943 131.618 301.135 130.37ZM292.927 126.29L299.839 127.01C299.775 127.33 299.615 127.618 299.359 127.874C299.135 128.098 298.703 128.258 298.063 128.354V169.442C298.063 169.602 297.855 169.826 297.439 170.114C297.023 170.434 296.495 170.706 295.855 170.93C295.215 171.154 294.575 171.266 293.935 171.266H292.927V126.29ZM298.063 148.946C300.207 149.394 301.903 150.002 303.151 150.77C304.431 151.506 305.327 152.306 305.839 153.17C306.383 154.002 306.639 154.802 306.607 155.57C306.575 156.338 306.335 156.978 305.887 157.49C305.439 157.97 304.879 158.242 304.207 158.306C303.535 158.37 302.799 158.114 301.999 157.538C301.871 156.546 301.583 155.554 301.135 154.562C300.687 153.57 300.143 152.61 299.503 151.682C298.895 150.754 298.271 149.954 297.631 149.282L298.063 148.946ZM285.295 130.514C287.055 131.474 288.399 132.482 289.327 133.538C290.255 134.562 290.879 135.57 291.199 136.562C291.519 137.554 291.599 138.434 291.439 139.202C291.279 139.97 290.959 140.578 290.479 141.026C289.999 141.442 289.423 141.634 288.751 141.602C288.111 141.538 287.471 141.186 286.831 140.546C286.863 139.426 286.767 138.29 286.543 137.138C286.351 135.986 286.095 134.866 285.775 133.778C285.455 132.658 285.103 131.65 284.719 130.754L285.295 130.514ZM306.559 142.034C308.767 142.258 310.527 142.69 311.839 143.33C313.183 143.938 314.159 144.642 314.767 145.442C315.407 146.242 315.743 147.026 315.775 147.794C315.807 148.53 315.615 149.17 315.199 149.714C314.783 150.258 314.223 150.594 313.519 150.722C312.847 150.818 312.095 150.61 311.263 150.098C311.071 149.138 310.703 148.194 310.159 147.266C309.647 146.306 309.039 145.394 308.335 144.53C307.631 143.666 306.895 142.946 306.127 142.37L306.559 142.034ZM307.471 130.514C309.647 130.866 311.359 131.394 312.607 132.098C313.887 132.802 314.799 133.57 315.343 134.402C315.887 135.202 316.143 135.986 316.111 136.754C316.111 137.49 315.887 138.114 315.439 138.626C315.023 139.138 314.463 139.426 313.759 139.49C313.055 139.554 312.303 139.314 311.503 138.77C311.343 137.81 311.023 136.85 310.543 135.89C310.095 134.93 309.551 134.018 308.911 133.154C308.303 132.258 307.679 131.474 307.039 130.802L307.471 130.514ZM304.975 159.026L323.743 155.186L325.807 151.058C325.807 151.058 326.079 151.25 326.623 151.634C327.199 151.986 327.855 152.418 328.591 152.93C329.359 153.442 330.047 153.922 330.655 154.37C330.655 154.626 330.559 154.85 330.367 155.042C330.175 155.234 329.935 155.362 329.647 155.426L305.599 160.226L304.975 159.026ZM356.623 158.258H375.871L378.703 154.274C378.703 154.274 378.879 154.434 379.231 154.754C379.583 155.042 380.015 155.426 380.527 155.906C381.071 156.354 381.631 156.85 382.207 157.394C382.783 157.906 383.311 158.386 383.791 158.834C383.695 159.346 383.247 159.602 382.447 159.602H357.007L356.623 158.258ZM352.303 168.194H377.311L380.335 163.874C380.335 163.874 380.511 164.034 380.863 164.354C381.247 164.674 381.727 165.09 382.303 165.602C382.879 166.114 383.471 166.642 384.079 167.186C384.719 167.762 385.279 168.29 385.759 168.77C385.727 169.026 385.583 169.218 385.327 169.346C385.103 169.474 384.815 169.538 384.463 169.538H352.687L352.303 168.194ZM360.607 139.682H379.567V141.026H360.607V139.682ZM360.607 149.33H379.567V150.722H360.607V149.33ZM366.799 130.034H372.319V169.058H366.799V130.034ZM377.023 130.034H376.543L379.183 127.154L384.511 131.282C384.383 131.474 384.143 131.666 383.791 131.858C383.471 132.05 383.071 132.21 382.591 132.338V151.106C382.591 151.266 382.335 151.49 381.823 151.778C381.311 152.034 380.703 152.274 379.999 152.498C379.295 152.69 378.623 152.786 377.983 152.786H377.023V130.034ZM356.863 130.034V127.682L362.623 130.034H379.423V131.378H362.335V152.066C362.335 152.226 362.111 152.45 361.663 152.738C361.215 153.026 360.639 153.282 359.935 153.506C359.231 153.73 358.495 153.842 357.727 153.842H356.863V130.034ZM339.583 131.282H349.855L352.735 127.346C352.735 127.346 352.911 127.49 353.263 127.778C353.615 128.066 354.063 128.45 354.607 128.93C355.151 129.378 355.711 129.874 356.287 130.418C356.895 130.93 357.423 131.41 357.871 131.858C357.775 132.37 357.343 132.626 356.575 132.626H339.967L339.583 131.282ZM339.679 144.53H350.527L352.879 140.786C352.879 140.786 353.119 141.026 353.599 141.506C354.079 141.986 354.639 142.562 355.279 143.234C355.951 143.906 356.527 144.546 357.007 145.154C356.879 145.634 356.463 145.874 355.759 145.874H340.063L339.679 144.53ZM339.055 160.754C340.047 160.562 341.471 160.21 343.327 159.698C345.215 159.186 347.343 158.594 349.711 157.922C352.111 157.218 354.527 156.498 356.959 155.762L357.151 156.29C355.647 157.41 353.695 158.786 351.295 160.418C348.927 162.018 346.079 163.81 342.751 165.794C342.559 166.434 342.159 166.866 341.551 167.09L339.055 160.754ZM344.863 131.282H350.383V159.266L344.863 161.186V131.282Z" fill="white"/>
</svg>
