<svg width="506" height="295" viewBox="0 0 506 295" fill="none" xmlns="http://www.w3.org/2000/svg">
<path d="M371.14 225.297C371.324 224.351 371.609 223.429 371.99 222.544C388.262 191.235 414.423 172.24 447.564 162.48C463.836 157.699 476.491 162.769 486.056 176.966C490.63 183.775 493.776 191.453 497.573 198.877C497.988 199.656 498.332 200.47 498.784 201.231C498.892 201.394 499.326 201.376 500.321 201.575C498.815 179.045 492.298 157.136 481.246 137.454L482.584 136.766C485.098 140.985 487.882 145.078 490.069 149.442C503.34 176.043 507.969 204.219 505.257 233.753C503.991 247.479 501.912 260.915 495.819 273.591C492.63 280.472 487.669 286.378 481.445 290.703C474.394 295.447 466.873 296.443 459.171 292.785C451.505 289.304 444.044 285.386 436.824 281.051C432.196 278.154 428.507 273.808 424.168 270.186C416.846 264.247 409.361 258.507 401.948 252.676C401.406 252.259 400.773 251.934 399.616 251.191C414.08 249.036 427.368 248.638 439.717 256.624C446.515 261.042 453.548 265.134 460.599 269.172C462.488 270.057 464.598 270.353 466.656 270.023C456.622 258.869 443.152 252.477 431.292 244.129L432.051 242.952C438.632 246.918 445.304 250.738 451.794 254.867C457.869 258.76 463.709 263.034 469.874 266.945C470.851 267.579 472.46 267.235 473.779 267.343C473.237 266.148 473.002 264.428 472.062 263.849C463.022 258.018 453.711 252.386 444.508 246.7C444.147 246.483 443.839 246.193 443.803 245.161C445.81 246.03 447.871 246.773 449.769 247.787C457.869 252.115 465.879 256.569 473.978 260.879C475.786 261.821 477.992 263.812 479.222 260.879C479.655 259.865 477.956 257.058 476.564 256.298C467.777 251.481 458.791 247.026 449.878 242.427L450.366 241.159L481.915 253.509C484.537 249.887 484.338 248.62 480.107 246.99C472.586 244.093 464.957 241.558 457.381 238.715L457.616 237.447C462.57 238.443 467.578 239.258 472.496 240.471C475.425 241.159 478.191 242.445 481.12 243.115C482.433 243.136 483.738 242.915 484.971 242.463C484.447 240.779 484.374 238.027 483.326 237.574C479.568 236.07 475.675 234.93 471.7 234.17C467.169 233.423 462.684 232.42 458.267 231.164C459.398 230.836 460.563 230.642 461.738 230.584C467.885 231.001 474.015 231.58 480.162 232.015C481.97 232.141 484.646 233.934 484.989 230.204C485.278 227.017 484.194 225.025 480.415 225.206C474.991 225.478 469.567 225.478 464.143 225.568C462.368 225.69 460.589 225.411 458.936 224.753C460.225 224.172 461.57 223.723 462.95 223.413C468.464 222.671 474.033 222.2 479.529 221.367C480.813 221.168 481.952 219.918 483.145 219.158C481.807 218.56 480.433 217.347 479.131 217.347C472.821 217.691 466.475 218.361 460.238 218.904C458.362 219.17 456.45 218.946 454.687 218.253C460.111 216.894 465.625 215.5 471.122 214.178C473.599 213.581 476.148 213.218 478.589 212.494C479.529 212.204 480.252 211.208 481.066 210.52C480.071 209.832 479.005 208.456 478.101 208.565C471.399 209.374 464.709 210.363 458.032 211.534C454.705 212.096 451.433 213.11 448.142 213.907L447.69 212.458C454.488 210.068 461.286 207.659 468.102 205.341C470.145 204.834 472.17 204.237 474.159 203.531C475.35 202.748 476.422 201.796 477.341 200.706C475.804 199.656 474.033 197.483 472.767 197.754C468.23 198.808 463.781 200.213 459.46 201.955C453.012 204.587 446.449 206.893 439.771 208.873C443.098 207.062 446.334 204.943 449.769 203.295C455.718 200.416 461.829 197.863 467.849 194.966C469.187 194.314 471.23 192.43 471.013 191.724C470.164 188.917 467.795 188.954 465.589 190.167C456.839 194.821 448.07 199.438 439.373 204.219C436.029 206.03 432.865 208.221 429.628 210.249L428.743 208.945L462.425 185.911C462.314 185.4 462.103 184.916 461.805 184.486C461.506 184.056 461.126 183.69 460.686 183.407C460.246 183.125 459.755 182.932 459.241 182.84C458.726 182.747 458.199 182.757 457.688 182.869C457.232 182.964 456.797 183.142 456.405 183.394C440.598 191.91 426.234 202.874 413.845 215.88C419.016 216.279 423.282 216.333 427.441 216.985C431.312 217.492 435.107 218.471 438.741 219.9C445.466 222.761 446.407 230.457 440.422 234.695C435.287 238.59 428.853 240.36 422.451 239.638C418.089 239.4 413.717 239.442 409.361 239.765H399.941L399.779 238.606C404.732 237.701 409.704 236.795 414.64 235.835C417.446 235.348 420.208 234.639 422.903 233.717C424.078 233.264 424.855 231.761 425.814 230.729C424.638 230.005 423.373 228.574 422.198 228.683C415.026 229.188 407.886 230.077 400.809 231.345C393.161 232.884 385.694 235.31 378.137 237.32C377.692 237.418 377.23 237.411 376.788 237.302C376.346 237.192 375.935 236.981 375.588 236.687C377.631 235.437 379.619 234.061 381.717 232.902C391.064 227.759 400.447 222.671 409.795 217.51C410.667 216.915 411.478 216.236 412.217 215.482C423.662 205.052 435.07 194.585 446.569 184.209C447.509 183.358 449.082 183.213 450.004 182.399C445.484 178.777 442.519 180.008 439.862 182.236C429.448 190.891 419.076 199.613 408.746 208.402C406.016 210.72 403.322 213.128 400.646 215.5L399.67 214.613C409.072 203.875 418.491 193.155 428.272 182.018C426.575 181.48 424.757 181.456 423.045 181.949C421.334 182.442 419.807 183.43 418.654 184.789C411.982 191.742 405.275 198.678 398.64 205.686C397.791 206.734 397.046 207.862 396.416 209.054L394.933 207.75L409.234 190.022L408.077 188.936C394.138 199.185 383.29 212.73 371.14 225.297ZM24.7836 135.426C14.3504 155.144 7.84733 176.707 5.637 198.913C5.67006 200.321 5.8396 201.721 6.14324 203.096C9.3253 196.36 11.8384 190.312 14.9481 184.608C20.4625 174.54 26.9713 165.178 39.0125 162.226C48.8299 159.8 58.4484 161.61 67.7414 165.323C96.0364 176.55 118.998 193.752 133.353 221.222C134.04 222.562 134.691 223.92 135.306 225.297C135.255 225.859 135.133 226.412 134.944 226.944C123.156 213.11 111.856 199.42 97.8444 188.573L96.6511 189.642L112.236 208.945L112.037 209.09C106.613 203.947 101.533 198.605 95.9822 193.716C90.4317 188.827 87.575 180.914 77.3238 181.33L106.505 214.667L105.655 215.482C97.8806 208.71 90.1605 201.847 82.2957 195.183C76.8718 190.511 71.0319 186.129 65.4091 181.584C62.7694 179.483 59.8767 179.266 56.2607 181.077L59.6597 184.264C70.9777 194.585 82.2776 204.943 93.668 215.192C95.428 216.537 97.3106 217.714 99.2908 218.705C108.078 224.138 116.883 229.389 125.398 235.636C120.137 234.423 114.659 233.825 109.651 231.888C101.243 228.683 92.5832 228.592 83.8868 228.61C82.6031 228.61 81.3194 230.095 80.0357 230.892C81.0663 231.87 81.9522 233.409 83.1636 233.717C89.0757 235.22 95.0782 236.433 101.045 237.646C102.853 238.008 104.552 238.063 106.306 238.262V239.367H97.1031C91.6792 239.493 86.3637 239.367 81.0482 239.964C76.4378 240.453 65.3187 235.763 62.9683 231.689C62.402 230.827 62.0116 229.861 61.8196 228.847C61.6276 227.833 61.6377 226.791 61.8495 225.781C62.0612 224.771 62.4704 223.814 63.0534 222.963C63.6364 222.112 64.3817 221.385 65.2464 220.824C65.9093 220.406 66.6274 220.083 67.3798 219.864C73.5892 218.233 79.9013 217.023 86.2733 216.243C88.0791 216.116 89.8915 216.116 91.6973 216.243C91.2323 215.253 90.6689 214.312 90.0158 213.436C78.5826 202.048 65.6796 192.243 51.6503 184.282C48.6852 182.634 46.0456 182.471 43.4601 185.676L79.3487 210.448L78.6074 211.553C71.7913 207.333 65.0656 202.915 58.0868 198.877C52.3429 195.631 46.4215 192.711 40.3504 190.131C38.9763 189.551 36.7344 190.891 34.9264 191.344C35.957 192.521 36.7344 194.151 38.0362 194.784C46.371 198.949 54.8143 202.879 63.2214 206.917C64.2638 207.396 65.0894 208.249 65.5357 209.307C59.5512 206.989 53.6029 204.617 47.6004 202.39C43.2432 200.76 38.8136 199.275 34.4021 197.79C31.9071 196.957 29.8641 197.464 28.9781 200.253C28.0741 203.35 30.6776 203.187 32.4133 203.748L58.3579 212.168L57.924 213.798C54.742 213.056 51.5961 212.186 48.3779 211.589C42.3211 210.466 36.2643 209.325 30.1352 208.565C28.5804 208.384 26.8266 209.669 25.1633 210.267C26.3477 211.316 27.6901 212.172 29.1409 212.802C36.671 214.492 44.0963 216.62 51.3791 219.176L44.7619 218.651C38.5966 218.162 32.4676 217.564 26.3023 217.293C25.1271 217.293 23.8977 218.47 22.6863 219.104C23.7933 220.029 25.054 220.752 26.4108 221.24C32.0517 222.073 37.765 222.598 43.424 223.323C44.8927 223.485 46.2412 224.212 47.1846 225.351C46.0094 225.351 44.8161 225.55 43.5686 225.532C37.548 225.423 31.5093 225.387 25.4887 225.079C21.8727 224.916 20.9687 226.89 21.0591 229.824C21.0591 233.445 23.7169 232.087 25.6695 231.924C31.5093 231.399 37.3491 230.838 43.1889 230.403C44.8103 230.291 46.4203 230.746 47.7451 231.689C43.4782 232.431 39.2114 233.047 34.9807 233.916C31.1658 234.713 27.4052 235.727 23.6446 236.777C20.9326 237.519 19.7936 239.638 21.023 241.92C21.4931 242.807 24.2954 243.042 25.8322 242.68C31.672 241.34 37.4214 239.548 43.2612 238.099C45.069 237.677 46.9628 237.822 48.6852 238.515L26.9894 246.429C26.1396 246.737 24.9825 246.881 24.5486 247.515C23.757 248.892 23.0972 250.341 22.5779 251.843C23.9881 252.078 25.5972 252.857 26.7543 252.422C35.6135 249.109 44.3822 245.541 53.2052 242.101C53.717 241.895 54.2682 241.806 54.8187 241.84C55.3692 241.875 55.9051 242.032 56.3872 242.3C49.8785 245.523 43.3516 248.674 36.879 251.97C33.7464 253.492 30.7255 255.235 27.8391 257.185C26.9532 257.801 26.8086 259.521 26.3385 260.806C27.7487 261.042 29.4844 261.947 30.4968 261.422C40.3865 256.352 50.1678 251.046 59.9851 245.831C60.398 245.625 60.8529 245.518 61.314 245.518C61.7752 245.518 62.23 245.625 62.6429 245.831L31.3104 265.333C33.01 269.625 34.9264 267.869 36.7344 266.637C47.3292 259.792 57.924 252.929 68.555 246.139C70.1349 245.067 71.9544 244.401 73.8524 244.201L38.3435 268.539L39.2114 270.585C41.2582 270.427 43.2727 269.982 45.1958 269.263C52.1204 265.333 58.6653 260.662 65.7707 257.094C76.1124 251.915 86.8157 247.461 98.9292 250.249C100.969 250.575 103.029 250.756 105.094 250.793C105.127 251.157 105.097 251.525 105.004 251.879C93.1437 258.706 84.1399 268.973 73.7801 277.575C64.2038 285.705 52.8606 291.479 40.6577 294.433C32.9015 296.244 26.1938 292.622 20.5348 287.48C11.3502 279.078 6.83028 268.14 4.26293 256.37C-0.81519 234.238 -1.36258 211.304 2.65382 188.954C5.66797 171.234 12.2167 154.303 21.9089 139.175C22.7947 137.871 23.7545 136.619 24.7836 135.426ZM128.58 19.5707L146.895 28.1721L146.57 28.8783L114.46 20.3856L113.899 22.3775L132.504 28.1358L132.359 29.3129L127.839 28.9688C120.86 28.2264 113.827 27.2667 106.812 26.814C104.861 26.9727 102.95 27.4498 101.153 28.2264L101.316 29.6388L132.413 32.4637V34.4012C131.401 34.4012 130.388 34.5823 129.394 34.5642L98.658 33.9123C97.0481 33.7283 95.4216 34.0649 94.0163 34.8728C92.611 35.6808 91.5006 36.9179 90.8475 38.4031L120.824 36.8639L120.932 38.4937C116.25 39.0912 111.549 39.5439 106.884 40.3045C100.086 41.4453 93.2341 42.568 86.5626 44.252C84.3026 44.8315 82.4765 47.0588 80.4516 48.5255L81.2109 49.8655L116.177 43.4553L116.557 45.2661C110.609 46.7147 104.606 47.9099 98.7484 49.6482C91.408 51.8393 84.1579 54.3201 76.9441 56.8915C72.623 58.4488 71.6828 62.4688 70.0376 67.6296C82.1692 60.8933 93.1798 54.9539 106.035 53.958C100.412 56.5474 94.572 58.7385 89.2022 61.7988C81.7714 66.0179 74.5756 70.726 67.5064 75.6152C65.8973 76.7379 65.4091 79.436 64.3966 81.3917L65.391 82.0255L98.9292 61.6901L99.8151 63.1025C97.4286 64.6055 94.9516 65.9998 92.5832 67.6296C83.5432 73.9131 74.6479 80.3052 65.7888 86.6611C63.6373 88.2003 62.1728 90.2828 63.9808 93.6327L98.0252 69.042L99.0558 70.3096C97.8806 71.1968 96.7054 72.1204 95.5664 73.0077C86.5987 80.2509 77.6371 87.5545 68.6816 94.9184C67.7888 95.4892 67.045 96.2652 66.512 97.1819C66.0987 98.6212 65.8559 100.104 65.7888 101.6C67.0933 101.335 68.3494 100.871 69.5132 100.224C77.0887 93.8138 84.4834 87.1863 92.0769 80.7941C94.6624 78.6212 97.6275 76.919 100.43 74.9995L101.189 75.9231C95.5483 80.9209 89.817 85.8101 84.3026 90.9347C80.0357 94.9365 76.0039 99.21 71.9721 103.465C71.4297 104.045 71.5382 105.276 71.3393 106.182C72.3156 106.327 73.6174 106.96 74.1959 106.562C76.7196 104.848 79.1349 102.979 81.4279 100.967C91.3899 92.0392 101.316 82.9671 111.278 74.1304C114.14 71.6514 117.447 69.7403 121.023 68.4987C119.54 69.7301 117.931 70.8528 116.557 72.1204C103.901 84.2709 91.4441 96.3852 79.0956 108.644C70.9596 116.702 63.2757 124.942 52.4277 129.324C50.7325 130.047 48.9117 130.428 47.0693 130.446C45.2269 130.465 43.3989 130.119 41.6898 129.43C39.9807 128.74 38.4239 127.72 37.1083 126.428C35.7928 125.136 34.7442 123.597 34.0224 121.899C33.4188 120.57 33.0341 119.151 32.8834 117.698C31.7624 108.952 34.6914 100.948 37.6203 93.0714C41.5798 82.2066 46.2625 71.5771 50.6198 60.8209C50.8757 59.8643 50.7992 58.849 50.4028 57.9417C35.9389 71.8306 27.5137 89.486 18.7088 107.178C19.141 104.874 19.795 102.618 20.6614 100.441C28.3273 84.9771 35.9389 69.4585 44.0025 54.1753C51.3576 40.2402 61.284 27.8283 73.2558 17.5969C86.9965 5.68183 102.581 -2.62978 121.439 0.991838C129.946 2.79584 138.12 5.91778 145.666 10.2451C164.612 20.4949 182.481 32.628 199.001 46.4612C204.552 50.8382 210.574 54.5796 216.955 57.6158C220.751 59.6077 222.487 58.7928 226.627 55.6058C225.055 54.1934 223.699 52.7628 222.107 51.5858C215.147 46.4793 208.096 41.6445 201.388 36.3207C198.71 34.2978 196.784 31.4367 195.916 28.1918C195.048 24.947 195.288 21.5046 196.597 18.4118C199.923 10.8607 208.638 7.78237 217.244 11.8567C227.803 16.8907 235.035 25.0213 235.035 37.4072C234.926 49.1774 234.673 60.6942 244.816 69.6214L243.152 70.5087L230.008 58.2134C222.071 64.4244 219.432 64.515 210.247 59.0463C192.294 48.3263 174.503 37.3166 156.333 26.995C150.276 23.5364 143.333 21.5626 136.662 19.281C134.07 18.6841 131.421 18.3744 128.761 18.3575L128.58 19.5707ZM373.798 33.2785C383.706 29.8018 394.282 30.8521 404.534 29.8923L404.931 28.5161C403.301 27.6431 401.544 27.032 399.724 26.7053C392.673 27.1399 385.658 27.9548 378.625 28.661C376.817 28.8421 375.136 29.1861 373.4 29.4577L373.075 28.2264L392.33 22.3231L391.751 20.3494L359.786 28.8421L359.442 28.1539L377.649 19.5707V18.5205C374.883 18.7559 371.881 18.3937 369.386 19.3353C360.853 22.5948 352.066 25.5826 344.074 30.0191C328.706 38.6023 313.863 48.1272 298.875 57.1812C297.211 58.1952 295.584 59.2998 293.848 60.2052C285.676 64.515 283.308 64.2433 276.311 58.1409L263.528 69.9836L262.643 69.1506C264.38 66.9814 265.86 64.6175 267.054 62.1066C268.831 57.0852 270.215 51.933 271.194 46.6966C271.827 43.1837 271.194 39.4534 271.466 35.8318C271.866 30.0591 274.049 24.5541 277.713 20.0798C281.377 15.6055 286.34 12.3837 291.914 10.8607C294.93 9.85908 298.192 9.8803 301.195 10.9211C304.199 11.9619 306.776 13.9644 308.529 16.6191C311.82 22.0515 311.241 30.2545 306.414 34.6185C301.297 39.2361 295.566 43.1837 290.142 47.2942C287.629 49.1955 284.917 50.9158 282.458 52.8534C281.536 53.5958 280.252 55.479 280.506 55.8593C281.301 56.9458 282.892 58.3582 283.959 58.2134C287.466 57.7063 291.317 57.2898 294.21 55.4971C300.164 51.7205 305.865 47.5589 311.277 43.0388C329.036 28.5542 348.336 16.0747 368.826 5.82669C386.707 -3.22734 404.335 -1.41654 421.257 9.08615C437.764 19.3534 450.185 33.7131 459.894 50.2096C467.994 63.8993 475.009 78.259 482.241 92.4557C484.358 96.7465 485.745 101.361 486.345 106.109C482.024 97.5622 477.92 88.8884 473.309 80.4863C468.809 71.9841 462.973 64.2621 456.025 57.6158L454.759 58.3582C456.079 61.4366 457.598 64.4425 458.683 67.5933C463.619 81.8082 468.916 95.8963 473.147 110.328C474.371 114.211 474.053 118.417 472.258 122.071C470.462 125.724 467.329 128.543 463.51 129.939C461.45 130.714 459.227 130.954 457.049 130.637C454.871 130.321 452.809 129.458 451.053 128.129C444.777 124.275 438.892 119.817 433.479 114.819C417.641 99.1376 403.395 81.9168 385.098 68.8066L385.785 67.865C388.885 69.7188 391.868 71.7629 394.716 73.9855C404.877 82.9309 414.857 92.0936 424.928 101.148C426.761 102.923 428.725 104.558 430.804 106.037C431.708 106.616 433.244 106.2 434.42 106.236C434.076 105.077 434.076 103.574 433.317 102.85C425.434 95.2263 417.425 87.7114 409.433 80.1966C407.933 78.7841 406.396 77.426 404.895 76.0317L405.817 74.8547C411.657 79.3636 417.623 83.7276 423.3 88.4357C427.82 92.166 431.961 96.3671 436.39 100.206C437.544 100.856 438.806 101.291 440.115 101.492C439.844 99.9525 440.115 97.87 439.229 96.9827C432.105 90.663 424.873 84.5244 417.641 78.4944C414.224 75.6514 410.536 73.062 406.974 70.4544L407.914 69.1506L441.995 93.7414C444.219 90.6992 442.465 88.653 440.476 87.132C433.244 81.6995 426.012 76.2671 418.781 71.0882C414.749 68.2633 410.41 65.8731 406.45 62.8852C418.817 67.3941 429.411 75.1082 440.259 82.3876L441.742 81.0839C440.44 79.092 439.518 76.6112 437.746 75.1806C426.858 66.3609 414.559 59.4488 401.37 54.7366C401.086 54.642 400.83 54.4783 400.625 54.2602C400.42 54.0421 400.272 53.7765 400.194 53.4871C413.103 54.7547 424.15 60.9115 435.577 66.706C434.166 62.5231 433.353 57.9417 428.345 56.4388C416.105 52.8171 403.846 49.1955 391.588 45.6826C390.844 45.5597 390.163 45.1898 389.654 44.6323C401.731 43.9623 413.158 48.2539 424.891 50.0647L425.723 48.5255C423.59 47.0226 421.637 44.6685 419.287 44.1796C409.433 42.1515 399.399 40.6666 389.527 39.0007C388.063 38.7472 386.598 38.5661 385.116 38.3669V36.8277L414.767 38.2945C413.194 34.4737 410.373 33.8037 407.264 33.858C397.03 34.0391 386.797 34.2926 376.528 34.528H373.906L373.798 33.2785Z" fill="white"/>
<path d="M346.731 234.737C347.237 234.159 347.454 233.635 347.798 233.545C360.226 230.386 372.382 224.32 385.587 227.858C396.821 230.873 407.602 234.574 416.701 243.005C428.893 254.144 441.748 264.538 455.196 274.13C466.628 282.399 473.756 281.153 484.139 271.585C485.857 269.798 487.833 268.277 490 267.071C489.721 267.887 489.389 268.683 489.005 269.455C481.353 281.406 469.704 285.486 453.821 281.478C433.885 276.693 414.84 268.77 397.4 258.008C388.29 252.576 378.791 247.821 368.981 243.782C362.595 240.965 355.957 238.727 349.444 236.181C348.522 235.748 347.617 235.26 346.731 234.737ZM160.011 234.195C159.165 234.793 158.29 235.347 157.388 235.856C147.439 239.918 137.345 243.673 127.54 248.079C121.173 250.931 115.312 254.885 109.071 258.062C88.4124 268.552 68.0255 279.384 44.6357 282.616C38.7148 283.646 32.6191 282.589 27.3942 279.624C22.1693 276.659 18.1409 271.972 16 266.367C17.5195 267.794 19.0571 269.184 20.5586 270.628C32.0997 281.569 38.7747 282.255 52.0343 273.336C56.8667 270.017 61.5278 266.456 65.9995 262.666C72.982 256.799 79.5123 250.371 86.712 244.775C92.8262 239.99 99.0852 234.448 106.212 232.137C119.671 227.714 133.727 224.193 147.818 230.693C151.8 232.131 155.873 233.301 160.011 234.195ZM285.588 51.02C292.444 46.2357 299.174 41.2528 306.174 36.6852C320.251 27.1645 335.555 19.5912 351.669 14.1719C354.329 13.3234 357.53 14.1719 360.479 14.1719C358.797 16.4467 357.567 19.5881 355.305 20.8158C348.773 24.4804 342.052 27.8008 335.172 30.7635C320.7 37.1907 306.011 43.4012 291.431 49.7201C289.622 50.4784 288.03 51.3991 286.33 52.2476L285.588 51.02ZM219.634 52.2296C211.494 48.1675 203.498 43.7443 195.141 40.1696C183.147 35.0423 170.81 30.7454 158.962 25.6001C154.683 23.4532 150.665 20.8243 146.986 17.7646C146.046 17.0605 145.955 15.2552 145.467 13.9372C146.715 13.6303 148.126 12.7457 149.085 13.0706C156.114 15.1231 163.033 17.5334 169.815 20.2922C186.647 27.9114 202.509 37.5055 217.065 48.8716C218.114 49.6659 219.073 50.677 220.068 51.4713L219.634 52.2296Z" fill="white"/>
<path d="M154.956 138.822L155.946 138.36C156.914 139.328 157.794 140.12 158.586 140.736C159.378 141.308 160.39 141.594 161.622 141.594C162.414 141.594 163.646 141.528 165.318 141.396C166.99 141.264 168.86 141.088 170.928 140.868C173.04 140.604 175.152 140.34 177.264 140.076C179.376 139.812 181.334 139.548 183.138 139.284C184.942 139.02 186.35 138.778 187.362 138.558C188.594 138.338 189.518 137.986 190.134 137.502C190.75 137.018 191.432 136.776 192.18 136.776C192.884 136.776 193.698 137.018 194.622 137.502C195.59 137.986 196.514 138.602 197.394 139.35C198.274 140.098 199.022 140.89 199.638 141.726C200.254 142.518 200.562 143.244 200.562 143.904C200.562 144.52 200.298 145.07 199.77 145.554C199.242 146.038 198.626 146.566 197.922 147.138C197.218 147.71 196.602 148.458 196.074 149.382C194.006 153.21 191.366 156.95 188.154 160.602C184.942 164.254 180.982 167.576 176.274 170.568C171.566 173.516 165.956 175.958 159.444 177.894L158.718 176.574C162.766 174.462 166.44 172.108 169.74 169.512C173.04 166.916 175.944 164.21 178.452 161.394C180.96 158.534 183.072 155.674 184.788 152.814C186.504 149.91 187.846 147.138 188.814 144.498C189.078 143.706 188.814 143.332 188.022 143.376C187.318 143.42 186.262 143.552 184.854 143.772C183.49 143.948 181.95 144.19 180.234 144.498C178.562 144.806 176.846 145.136 175.086 145.488C173.37 145.84 171.786 146.192 170.334 146.544C168.882 146.852 167.738 147.138 166.902 147.402C165.934 147.666 165.098 148.04 164.394 148.524C163.69 148.964 162.964 149.184 162.216 149.184C161.336 149.184 160.412 148.832 159.444 148.128C158.476 147.38 157.618 146.522 156.87 145.554C156.166 144.586 155.704 143.772 155.484 143.112C155.264 142.32 155.11 141.594 155.022 140.934C154.978 140.274 154.956 139.57 154.956 138.822ZM189.936 129.45C188.616 129.758 187.076 130.088 185.316 130.44C183.6 130.748 181.774 131.056 179.838 131.364C177.902 131.672 176.032 131.914 174.228 132.09C172.468 132.266 170.862 132.354 169.41 132.354C167.342 132.354 165.67 131.76 164.394 130.572C163.118 129.34 161.886 127.514 160.698 125.094L161.424 124.5C162.788 125.38 164.064 125.93 165.252 126.15C166.44 126.37 167.584 126.48 168.684 126.48C171.148 126.48 173.348 126.26 175.284 125.82C177.22 125.38 178.87 124.962 180.234 124.566C181.334 124.258 182.214 123.972 182.874 123.708C183.534 123.444 184.04 123.224 184.392 123.048C184.788 122.872 185.14 122.784 185.448 122.784C187.692 122.784 189.474 123.114 190.794 123.774C192.114 124.434 192.774 125.424 192.774 126.744C192.774 127.404 192.554 127.954 192.114 128.394C191.718 128.834 190.992 129.186 189.936 129.45ZM231.978 127.536C234.222 127.8 236.51 128.24 238.842 128.856C241.174 129.472 243.33 130.264 245.31 131.232C247.29 132.2 248.874 133.366 250.062 134.73C251.25 136.05 251.844 137.568 251.844 139.284C251.844 140.472 251.448 141.506 250.656 142.386C249.864 143.266 248.83 143.706 247.554 143.706C246.498 143.706 245.574 143.42 244.782 142.848C244.034 142.232 243.242 141.352 242.406 140.208C241.614 139.108 240.888 138.118 240.228 137.238C239.568 136.358 238.842 135.478 238.05 134.598C237.302 133.718 236.378 132.816 235.278 131.892C234.222 130.924 232.902 129.846 231.318 128.658L231.978 127.536ZM280.95 134.07L282.138 134.862C279.674 139.702 276.682 144.234 273.162 148.458C269.686 152.638 265.792 156.554 261.48 160.206C257.168 163.814 252.46 167.18 247.356 170.304C246.652 170.744 246.058 171.25 245.574 171.822C245.09 172.35 244.606 172.812 244.122 173.208C243.682 173.604 243.132 173.802 242.472 173.802C241.24 173.802 239.942 173.45 238.578 172.746C237.258 171.998 236.07 171.118 235.014 170.106C233.958 169.094 233.21 168.148 232.77 167.268C232.33 166.52 231.978 165.574 231.714 164.43C231.45 163.242 231.318 162.186 231.318 161.262L232.242 160.668C232.77 161.196 233.364 161.79 234.024 162.45C234.684 163.066 235.41 163.616 236.202 164.1C236.994 164.54 237.764 164.76 238.512 164.76C239.7 164.76 241.328 164.32 243.396 163.44C245.508 162.516 247.884 161.262 250.524 159.678C253.208 158.094 255.98 156.268 258.84 154.2C261.7 152.132 264.516 149.954 267.288 147.666C270.104 145.378 272.678 143.068 275.01 140.736C277.386 138.404 279.366 136.182 280.95 134.07ZM334.476 121.002C336.412 121.222 337.93 121.574 339.03 122.058C340.174 122.542 341.23 123.092 342.198 123.708C343.078 124.324 343.914 125.116 344.706 126.084C345.542 127.052 345.96 127.932 345.96 128.724C345.96 129.296 345.696 129.67 345.168 129.846C344.684 130.022 344.09 130.154 343.386 130.242C342.682 130.33 342.044 130.484 341.472 130.704C339.844 131.32 338.348 131.848 336.984 132.288C335.62 132.684 334.3 133.058 333.024 133.41C331.748 133.718 330.34 134.048 328.8 134.4C327.744 134.576 326.16 134.84 324.048 135.192C321.98 135.544 319.494 135.874 316.59 136.182C313.73 136.446 310.562 136.6 307.086 136.644L306.756 135.192C309.484 134.576 312.3 133.85 315.204 133.014C318.152 132.178 320.968 131.32 323.652 130.44C326.38 129.516 328.734 128.658 330.714 127.866C332.738 127.03 334.102 126.326 334.806 125.754C335.466 125.226 335.752 124.698 335.664 124.17C335.576 123.642 334.96 122.85 333.816 121.794L334.476 121.002ZM308.472 177.234C311.904 175.166 314.808 172.966 317.184 170.634C319.56 168.302 321.496 165.794 322.992 163.11C324.532 160.426 325.632 157.544 326.292 154.464C326.996 151.34 327.326 147.952 327.282 144.3C327.282 142.584 327.194 141.11 327.018 139.878C326.842 138.602 326.512 137.502 326.028 136.578C325.588 135.61 324.906 134.862 323.982 134.334L329.196 132.816C330.516 133.168 331.704 133.674 332.76 134.334C333.86 134.95 334.696 135.566 335.268 136.182C335.884 136.798 336.192 137.304 336.192 137.7C336.192 138.272 336.082 138.778 335.862 139.218C335.686 139.614 335.51 140.142 335.334 140.802C335.158 141.462 335.048 142.43 335.004 143.706C334.96 149.426 334.014 154.508 332.166 158.952C330.318 163.396 327.48 167.224 323.652 170.436C319.868 173.648 315.028 176.288 309.132 178.356L308.472 177.234ZM301.08 143.31L302.07 142.914C303.082 144.014 303.962 144.806 304.71 145.29C305.458 145.73 306.294 145.95 307.218 145.95C308.318 145.95 309.704 145.906 311.376 145.818C313.048 145.686 314.808 145.51 316.656 145.29C318.504 145.07 320.33 144.85 322.134 144.63C323.938 144.41 325.522 144.212 326.886 144.036C328.294 143.86 329.372 143.728 330.12 143.64C331.968 143.464 333.64 143.288 335.136 143.112C336.676 142.936 338.062 142.782 339.294 142.65C340.526 142.518 341.604 142.386 342.528 142.254C343.936 142.034 345.014 141.836 345.762 141.66C346.554 141.44 347.148 141.264 347.544 141.132C347.984 141 348.336 140.934 348.6 140.934C349.964 140.934 351.262 141.132 352.494 141.528C353.77 141.924 354.826 142.474 355.662 143.178C356.498 143.882 356.916 144.674 356.916 145.554C356.916 146.61 356.652 147.336 356.124 147.732C355.64 148.128 355.002 148.326 354.21 148.326C353.418 148.326 352.208 148.216 350.58 147.996C348.996 147.732 347.258 147.6 345.366 147.6C344.222 147.6 343.056 147.622 341.868 147.666C340.68 147.666 339.47 147.71 338.238 147.798C337.006 147.842 335.774 147.908 334.542 147.996C333.354 148.084 332.166 148.194 330.978 148.326C329.702 148.414 328.228 148.59 326.556 148.854C324.884 149.118 323.168 149.404 321.408 149.712C319.692 149.976 318.108 150.284 316.656 150.636C315.248 150.944 314.192 151.208 313.488 151.428C312.564 151.736 311.706 152.066 310.914 152.418C310.122 152.77 309.242 152.946 308.274 152.946C307.526 152.946 306.712 152.66 305.832 152.088C304.952 151.472 304.138 150.746 303.39 149.91C302.686 149.074 302.18 148.304 301.872 147.6C301.432 146.544 301.168 145.114 301.08 143.31Z" fill="white"/>
</svg>
