<svg id="Layer_1" data-name="Layer 1" xmlns="http://www.w3.org/2000/svg" width="279.87" height="173.82" viewBox="0 0 279.87 173.82"><defs><style>.cls-1{fill:#fff;}</style></defs><title>Artboard 1</title><path class="cls-1" d="M205.28,124.42a7.43,7.43,0,0,1,.47-1.52c9-17.29,23.47-27.78,41.8-33.17,9-2.64,16,.16,21.29,8,2.53,3.76,4.27,8,6.37,12.1.23.43.42.88.67,1.3.06.09.3.08.85.19a83.64,83.64,0,0,0-10.55-35.41l.74-.38c1.39,2.33,2.93,4.59,4.14,7,7.34,14.69,9.9,30.25,8.4,46.56-.7,7.58-1.85,15-5.22,22a23.59,23.59,0,0,1-7.95,9.45c-3.9,2.62-8.06,3.17-12.32,1.15a122.05,122.05,0,0,1-12.36-6.48c-2.56-1.6-4.6-4-7-6-4.05-3.28-8.19-6.45-12.29-9.67-.3-.23-.65-.41-1.29-.82,8-1.19,15.35-1.41,22.18,3,3.76,2.44,7.65,4.7,11.55,6.93a5.76,5.76,0,0,0,3.35.47c-5.55-6.16-13-9.69-19.56-14.3l.42-.65c3.64,2.19,7.33,4.3,10.92,6.58,3.36,2.15,6.59,4.51,10,6.67.54.35,1.43.16,2.16.22-.3-.66-.43-1.61-.95-1.93-5-3.22-10.15-6.33-15.24-9.47-.2-.12-.37-.28-.39-.85,1.11.48,2.25.89,3.3,1.45,4.48,2.39,8.91,4.85,13.39,7.23,1,.52,2.22,1.62,2.9,0,.24-.56-.7-2.11-1.47-2.53-4.86-2.66-9.83-5.12-14.76-7.66l.27-.7L266.55,140c1.45-2,1.34-2.7-1-3.6-4.16-1.6-8.38-3-12.57-4.57l.13-.7c2.74.55,5.51,1,8.23,1.67,1.62.38,3.15,1.09,4.77,1.46a5.93,5.93,0,0,0,2.13-.36c-.29-.93-.33-2.45-.91-2.7a35.1,35.1,0,0,0-6.43-1.88,67,67,0,0,1-7.43-1.66,8.38,8.38,0,0,1,1.92-.32c3.4.23,6.79.55,10.19.79,1,.07,2.48,1.06,2.67-1,.16-1.76-.44-2.86-2.53-2.76-3,.15-6,.15-9,.2a6.58,6.58,0,0,1-2.88-.45,11.57,11.57,0,0,1,2.22-.74c3.05-.41,6.13-.67,9.17-1.13.71-.11,1.34-.8,2-1.22-.74-.33-1.5-1-2.22-1-3.49.19-7,.56-10.45.86a6.07,6.07,0,0,1-3.07-.36c3-.75,6.05-1.52,9.09-2.25,1.37-.33,2.78-.53,4.13-.93.52-.16.92-.71,1.37-1.09-.55-.38-1.14-1.14-1.64-1.08q-5.56.67-11.1,1.64c-1.84.31-3.65.87-5.47,1.31l-.25-.8c3.76-1.32,7.52-2.65,11.29-3.93,1.13-.28,2.25-.61,3.35-1a8.17,8.17,0,0,0,1.76-1.56c-.85-.58-1.83-1.78-2.53-1.63a49.89,49.89,0,0,0-7.36,2.32q-5.35,2.18-10.89,3.82c1.84-1,3.63-2.17,5.53-3.08,3.29-1.59,6.67-3,10-4.6.74-.36,1.87-1.4,1.75-1.79-.47-1.55-1.78-1.53-3-.86-4.84,2.57-9.69,5.12-14.5,7.76-1.85,1-3.6,2.21-5.39,3.33l-.49-.72,18.63-12.72a2.2,2.2,0,0,0-2.62-1.68h0a2.09,2.09,0,0,0-.71.29,94.23,94.23,0,0,0-23.54,17.94c2.86.22,5.22.25,7.52.61a26.48,26.48,0,0,1,6.25,1.61c3.72,1.58,4.24,5.83.93,8.17a13.89,13.89,0,0,1-9.94,2.73,56.43,56.43,0,0,0-7.24.07h-5.21l-.09-.64c2.74-.5,5.49-1,8.22-1.53a30,30,0,0,0,4.57-1.17c.65-.25,1.08-1.08,1.61-1.65-.65-.4-1.35-1.19-2-1.13a111.75,111.75,0,0,0-11.83,1.47c-4.23.85-8.36,2.19-12.54,3.3a1.64,1.64,0,0,1-1.41-.35c1.13-.69,2.23-1.45,3.39-2.09,5.17-2.84,10.36-5.65,15.53-8.5A8.94,8.94,0,0,0,228,119c6.33-5.76,12.64-11.54,19-17.27.52-.47,1.39-.55,1.9-1-2.5-2-4.14-1.32-5.61-.09q-8.64,7.17-17.21,14.45c-1.51,1.28-3,2.61-4.48,3.92l-.54-.49c5.2-5.93,10.41-11.85,15.82-18a5,5,0,0,0-5.32,1.53c-3.69,3.84-7.4,7.67-11.07,11.54a11.52,11.52,0,0,0-1.23,1.86l-.82-.72,7.91-9.79-.64-.6C218,110,212,117.48,205.28,124.42Z"/><path class="cls-1" d="M13.71,74.79A95,95,0,0,0,3.12,109.85a12,12,0,0,0,.28,2.31c1.76-3.72,3.15-7.06,4.87-10.21,3.05-5.56,6.65-10.73,13.31-12.36,5.43-1.34,10.75-.34,15.89,1.71,15.65,6.2,28.35,15.7,36.29,30.87q.57,1.11,1.08,2.25a3.72,3.72,0,0,1-.2.91c-6.52-7.64-12.77-15.2-20.52-21.19l-.66.59,8.62,10.66-.11.08c-3-2.84-5.81-5.79-8.88-8.49s-4.65-7.07-10.32-6.84l16.14,18.41-.47.45c-4.3-3.74-8.57-7.53-12.92-11.21-3-2.58-6.23-5-9.34-7.51-1.46-1.16-3.06-1.28-5.06-.28L33,101.76c6.26,5.7,12.51,11.42,18.81,17.08a19.51,19.51,0,0,0,3.11,1.94c4.86,3,9.73,5.9,14.44,9.35-2.91-.67-5.94-1-8.71-2.07-4.65-1.77-9.44-1.82-14.25-1.81-.71,0-1.42.82-2.13,1.26.57.54,1.06,1.39,1.73,1.56,3.27.83,6.59,1.5,9.89,2.17,1,.2,1.94.23,2.91.34v.61H53.71c-3,.07-5.94,0-8.88.33-2.55.27-8.7-2.32-10-4.57a4.32,4.32,0,0,1,1.26-6l0,0a4.64,4.64,0,0,1,1.18-.53,78.94,78.94,0,0,1,10.45-2,21.45,21.45,0,0,1,3,0,9,9,0,0,0-.93-1.55,100,100,0,0,0-21.22-16.1c-1.64-.91-3.1-1-4.53.77l19.85,13.68-.41.61c-3.77-2.33-7.49-4.77-11.35-7A97.34,97.34,0,0,0,22.32,105c-.76-.32-2,.42-3,.67.57.65,1,1.55,1.72,1.9,4.61,2.3,9.28,4.47,13.93,6.7a2.54,2.54,0,0,1,1.28,1.32c-3.31-1.28-6.6-2.59-9.92-3.82-2.41-.9-4.86-1.72-7.3-2.54-1.38-.46-2.51-.18-3,1.36-.5,1.71.94,1.62,1.9,1.93l14.35,4.65-.24.9c-1.76-.41-3.5-.89-5.28-1.22-3.35-.62-6.7-1.25-10.09-1.67-.86-.1-1.83.61-2.75.94a8.31,8.31,0,0,0,2.2,1.4,109.82,109.82,0,0,1,12.3,3.52l-3.66-.29c-3.41-.27-6.8-.6-10.21-.75-.65,0-1.33.65-2,1a6.81,6.81,0,0,0,2.06,1.18c3.12.46,6.28.75,9.41,1.15a3.15,3.15,0,0,1,2.08,1.12c-.65,0-1.31.11-2,.1-3.33-.06-6.67-.08-10-.25-2-.09-2.5,1-2.45,2.62,0,2,1.47,1.25,2.55,1.16,3.23-.29,6.46-.6,9.69-.84a3.89,3.89,0,0,1,2.52.71c-2.36.41-4.72.75-7.06,1.23-2.11.44-4.19,1-6.27,1.58-1.5.41-2.13,1.58-1.45,2.84.26.49,1.81.62,2.66.42,3.23-.74,6.41-1.73,9.64-2.53a5,5,0,0,1,3,.23l-12,4.37c-.47.17-1.11.25-1.35.6a13.93,13.93,0,0,0-1.09,2.39c.78.13,1.67.56,2.31.32,4.9-1.83,9.75-3.8,14.63-5.7a2.05,2.05,0,0,1,1.76.11c-3.6,1.78-7.21,3.52-10.79,5.34a40.73,40.73,0,0,0-5,2.88c-.49.34-.57,1.29-.83,2,.78.13,1.74.63,2.3.34,5.47-2.8,10.88-5.73,16.31-8.61a1.65,1.65,0,0,1,1.47,0L17.32,146.53c.94,2.37,2,1.4,3,.72,5.86-3.78,11.72-7.57,17.6-11.32a6.42,6.42,0,0,1,2.93-1.07L21.21,148.3l.48,1.13A12.11,12.11,0,0,0,25,148.7c3.83-2.17,7.45-4.75,11.38-6.72,5.72-2.86,11.64-5.32,18.34-3.78a24.4,24.4,0,0,0,3.41.3,1.75,1.75,0,0,1-.05.6c-6.56,3.77-11.54,9.44-17.27,14.19a44.5,44.5,0,0,1-18.32,9.31c-4.29,1-8-1-11.13-3.84-5.08-4.64-7.58-10.68-9-17.18a92.82,92.82,0,0,1-.89-37.23A73.88,73.88,0,0,1,12.12,76.86,22.73,22.73,0,0,1,13.71,74.79Z"/><path class="cls-1" d="M71.12,10.81l10.13,4.75-.18.39L63.31,11.26,63,12.36l10.29,3.18-.08.65L70.71,16c-3.86-.41-7.75-.94-11.63-1.19a9.93,9.93,0,0,0-3.13.78l.09.78,17.2,1.56V19c-.56,0-1.12.1-1.67.09l-17-.36a4.2,4.2,0,0,0-4.32,2.48l16.58-.85.06.9c-2.59.33-5.19.58-7.77,1-3.76.63-7.55,1.25-11.24,2.18-1.25.32-2.26,1.55-3.38,2.36l.42.74L64.26,24l.21,1c-3.29.8-6.61,1.46-9.85,2.42-4.06,1.21-8.07,2.58-12.06,4-2.39.86-2.91,3.08-3.82,5.93,6.71-3.72,12.8-7,19.91-7.55-3.11,1.43-6.34,2.64-9.31,4.33-4.11,2.33-8.09,4.93-12,7.63-.89.62-1.16,2.11-1.72,3.19l.55.35L54.72,34.07l.49.78c-1.32.83-2.69,1.6-4,2.5-5,3.47-9.92,7-14.82,10.51-1.19.85-2,2-1,3.85L54.22,38.13l.57.7c-.65.49-1.3,1-1.93,1.49q-7.44,6-14.87,12.1a3.68,3.68,0,0,0-1.2,1.25,10.54,10.54,0,0,0-.4,2.44,7.19,7.19,0,0,0,2.06-.76c4.19-3.54,8.28-7.2,12.48-10.73,1.43-1.2,3.07-2.14,4.62-3.2l.42.51c-3.12,2.76-6.29,5.46-9.34,8.29-2.36,2.21-4.59,4.57-6.82,6.92-.3.32-.24,1-.35,1.5.54.08,1.26.43,1.58.21a40.84,40.84,0,0,0,4-3.09c5.51-4.93,11-9.94,16.51-14.82a16.51,16.51,0,0,1,5.39-3.11c-.82.68-1.71,1.3-2.47,2-7,6.71-13.89,13.4-20.72,20.17C39.25,64.45,35,69,29,71.42a7.76,7.76,0,0,1-10.18-4.1h0A7.47,7.47,0,0,1,18.19,65c-.62-4.83,1-9.25,2.62-13.6C23,45.4,25.59,39.53,28,33.59A2.41,2.41,0,0,0,27.88,32c-8,7.67-12.66,17.42-17.53,27.19a20.05,20.05,0,0,1,1.08-3.72c4.24-8.54,8.45-17.11,12.91-25.55A68.86,68.86,0,0,1,40.52,9.72C48.12,3.14,56.74-1.45,67.17.55a46.25,46.25,0,0,1,13.4,5.11,177.55,177.55,0,0,1,29.5,20A52.4,52.4,0,0,0,120,31.82c2.1,1.1,3.06.65,5.35-1.11-.87-.78-1.62-1.57-2.5-2.22C119,25.67,115.1,23,111.39,20.06a8.32,8.32,0,0,1-2.65-9.89C110.58,6,115.4,4.3,120.16,6.55,126,9.33,130,13.82,130,20.66c-.06,6.5-.2,12.86,5.41,17.79l-.92.49-7.27-6.79c-4.39,3.43-5.85,3.48-10.93.46-9.93-5.92-19.77-12-29.82-17.7-3.35-1.91-7.19-3-10.88-4.26a20.07,20.07,0,0,0-4.37-.51Z"/><path class="cls-1" d="M206.75,18.38c5.48-1.92,11.33-1.34,17-1.87l.22-.76a9.76,9.76,0,0,0-2.88-1c-3.9.24-7.78.69-11.67,1.08-1,.1-1.93.29-2.89.44l-.18-.68L217,12.33l-.32-1.09L199,15.93l-.19-.38,10.07-4.74v-.58c-1.53.13-3.19-.07-4.57.45-4.72,1.8-9.58,3.45-14,5.9-8.5,4.74-16.71,10-25,15-.92.56-1.82,1.17-2.78,1.67-4.52,2.38-5.83,2.23-9.7-1.14l-7.07,6.54-.49-.46a19.86,19.86,0,0,0,2.44-3.89A56.75,56.75,0,0,0,150,25.79c.35-1.94,0-4,.15-6A15.4,15.4,0,0,1,161.46,6a8,8,0,0,1,9.19,3.18c1.82,3,1.5,7.53-1.17,9.94-2.83,2.55-6,4.73-9,7-1.39,1.05-2.89,2-4.25,3.07-.51.41-1.22,1.45-1.08,1.66.44.6,1.32,1.38,1.91,1.3,1.94-.28,4.07-.51,5.67-1.5a89.62,89.62,0,0,0,9.44-6.88A172.34,172.34,0,0,1,204,3.22c9.89-5,19.64-4,29,1.8,9.13,5.67,16,13.6,21.37,22.71,4.48,7.56,8.36,15.49,12.36,23.33A23.75,23.75,0,0,1,269,58.6c-2.39-4.72-4.66-9.51-7.21-14.15a49.57,49.57,0,0,0-9.56-12.63l-.7.41c.73,1.7,1.57,3.36,2.17,5.1,2.73,7.85,5.66,15.63,8,23.6a8.73,8.73,0,0,1-5.33,10.83,7.22,7.22,0,0,1-6.89-1,62.65,62.65,0,0,1-9.72-7.35C231,54.75,223.12,45.24,213,38l.38-.52a48.45,48.45,0,0,1,4.94,3.38c5.62,4.94,11.14,10,16.71,15a28,28,0,0,0,3.25,2.7c.5.32,1.35.09,2,.11-.19-.64-.19-1.47-.61-1.87-4.36-4.21-8.79-8.36-13.21-12.51-.83-.78-1.68-1.53-2.51-2.3l.51-.65c3.23,2.49,6.53,4.9,9.67,7.5,2.5,2.06,4.79,4.38,7.24,6.5a6.08,6.08,0,0,0,2.06.71c-.15-.85,0-2-.49-2.49C239,50.07,235,46.68,231,43.35c-1.89-1.57-3.93-3-5.9-4.44l.52-.72,18.85,13.58c1.23-1.68.26-2.81-.84-3.65-4-3-8-6-12-8.86-2.23-1.56-4.63-2.88-6.82-4.53,6.84,2.49,12.7,6.75,18.7,10.77l.82-.72c-.72-1.1-1.23-2.47-2.21-3.26A68.7,68.7,0,0,0,222,30.23a1,1,0,0,1-.65-.69c7.14.7,13.25,4.1,19.57,7.3-.78-2.31-1.23-4.84-4-5.67-6.77-2-13.55-4-20.33-5.94a1.86,1.86,0,0,1-1.07-.58c6.68-.37,13,2,19.49,3l.46-.85c-1.18-.83-2.26-2.13-3.56-2.4-5.45-1.12-11-1.94-16.46-2.86-.81-.14-1.62-.24-2.44-.35v-.85l16.4.81c-.87-2.11-2.43-2.48-4.15-2.45-5.66.1-11.32.24-17,.37h-1.45Z"/><path class="cls-1" d="M191.8,147.09c.28-.32.4-.61.59-.66,6.87-1.75,13.59-5.11,20.89-3.15,6.21,1.67,12.17,3.72,17.2,8.39a227,227,0,0,0,21.28,17.24c6.32,4.58,10.26,3.89,16-1.41A13.82,13.82,0,0,1,271,165a10.82,10.82,0,0,1-.55,1.32c-4.23,6.62-10.67,8.88-19.45,6.66a106.8,106.8,0,0,1-31.19-13,119.46,119.46,0,0,0-15.71-7.88c-3.53-1.56-7.2-2.8-10.8-4.21C192.79,147.65,192.29,147.38,191.8,147.09Z"/><path class="cls-1" d="M88.58,146.79a16.87,16.87,0,0,1-1.45.92c-5.5,2.25-11.08,4.33-16.5,6.77-3.52,1.58-6.76,3.77-10.21,5.53C49,165.82,37.73,171.82,24.8,173.61a14.31,14.31,0,0,1-15.83-9c.84.79,1.69,1.56,2.52,2.36,6.38,6.06,10.07,6.44,17.4,1.5a96.12,96.12,0,0,0,7.72-5.91c3.86-3.25,7.47-6.81,11.45-9.91,3.38-2.65,6.84-5.72,10.78-7,7.44-2.45,15.21-4.4,23-.8A52.41,52.41,0,0,0,88.58,146.79Z"/><path class="cls-1" d="M158,45.33c3.79-2.65,7.51-5.41,11.38-7.94a104.07,104.07,0,0,1,25.15-12.47c1.47-.47,3.24,0,4.87,0-.93,1.26-1.61,3-2.86,3.68a118.59,118.59,0,0,1-11.13,5.51c-8,3.56-16.12,7-24.18,10.5-1,.42-1.88.93-2.82,1.4Z"/><path class="cls-1" d="M121.54,46c-4.5-2.25-8.92-4.7-13.54-6.68-6.63-2.84-13.45-5.22-20-8.07a34.66,34.66,0,0,1-6.62-4.34c-.52-.39-.57-1.39-.84-2.12.69-.17,1.47-.66,2-.48a118.6,118.6,0,0,1,11.46,4,128.59,128.59,0,0,1,26.12,15.83c.58.44,1.11,1,1.66,1.44Z"/><path class="cls-1" d="M90.34,84.09a13.61,13.61,0,0,1,1.66.35,10,10,0,0,1,1.47.55v1.17H83.15V85a6.12,6.12,0,0,1,1.25-.56,9.49,9.49,0,0,1,1.29-.34V66.54a7.66,7.66,0,0,1-1.37-.36,6.3,6.3,0,0,1-1.17-.54V64.46h3.9c.83,0,1.77,0,2.84-.12s2-.13,2.93-.13a15.61,15.61,0,0,1,3.21.33,8.4,8.4,0,0,1,2.79,1.1,5.87,5.87,0,0,1,2,2.06,6.3,6.3,0,0,1,.75,3.21,6.56,6.56,0,0,1-.73,3.16,6.43,6.43,0,0,1-1.94,2.2,8.32,8.32,0,0,1-2.79,1.29,12.6,12.6,0,0,1-3.25.42h-.5l-.73,0-.74,0a4,4,0,0,1-.51,0ZM92,66.23a8.18,8.18,0,0,0-1,0,4,4,0,0,0-.69.14v9.42a3.07,3.07,0,0,0,.83.11h.9a4.92,4.92,0,0,0,1.62-.27,3.9,3.9,0,0,0,1.37-.87,4.34,4.34,0,0,0,1-1.52,6,6,0,0,0,.37-2.23,4.88,4.88,0,0,0-1.21-3.66A4.35,4.35,0,0,0,92,66.23Z"/><path class="cls-1" d="M110.46,86.16H102.8V85a7.18,7.18,0,0,1,1.07-.55,7.31,7.31,0,0,1,1.13-.35l8-20h2.29l7.78,20a7.91,7.91,0,0,1,1.24.35,5.28,5.28,0,0,1,1.09.55v1.17h-9.7V85a11.55,11.55,0,0,1,1.27-.53,7.78,7.78,0,0,1,1.3-.37l-1.8-4.93h-6.88l-1.83,4.93a7.31,7.31,0,0,1,2.7.9Zm-.13-9h5.49l-2-5.92-.58-2.67h-.07l-.68,2.73Z"/><path class="cls-1" d="M136.31,84.09a7.6,7.6,0,0,1,1.27.4l1.09.5v1.17h-9.55V85a8,8,0,0,1,1.3-.58,11.3,11.3,0,0,1,1.24-.32V66.54a9.45,9.45,0,0,1-2.54-.9V64.46h3.28l1.41,0c.53,0,1.08,0,1.66-.08l1.77-.09c.6,0,1.18-.05,1.74-.05a12,12,0,0,1,3.14.39,7.21,7.21,0,0,1,2.48,1.17,5.34,5.34,0,0,1,1.61,2,6,6,0,0,1,.58,2.73,5.86,5.86,0,0,1-1.09,3.67,6.48,6.48,0,0,1-3,2.15q1.23,1.94,2.63,4t2.95,3.89l1.48,1v1h-5.17l-1.34-1a19.2,19.2,0,0,1-2.52-3.93q-1.09-2.23-1.94-4.39h-2.51Zm1.56-17.86a5.09,5.09,0,0,0-1.56.19v8.65h1.84a3.66,3.66,0,0,0,2.71-1.14A4.56,4.56,0,0,0,142,70.57a5.54,5.54,0,0,0-.31-2,3.58,3.58,0,0,0-.87-1.35,3.47,3.47,0,0,0-1.31-.77A5,5,0,0,0,137.87,66.23Z"/><path class="cls-1" d="M167,86.16H156.34V85c.41-.17.88-.34,1.41-.52a9.93,9.93,0,0,1,1.59-.38V66.48h-3.59l-2,5.3h-1.27c-.08-.41-.16-.94-.25-1.58s-.15-1.3-.21-2-.12-1.35-.16-2-.06-1.24-.06-1.72h19.72c0,.5,0,1.08-.07,1.74s-.09,1.33-.15,2-.14,1.34-.22,2-.16,1.16-.25,1.6h-1.27l-2-5.3H164V84.09c.54.1,1.07.22,1.6.37A7,7,0,0,1,167,85Z"/><path class="cls-1" d="M189.13,64.46h7.6v1.18a9.15,9.15,0,0,1-1,.54,4.2,4.2,0,0,1-1.16.36l-6,10.54v7a4.22,4.22,0,0,1,1.23.32,10.86,10.86,0,0,1,1.13.58v1.17h-9.55V85a9.27,9.27,0,0,1,1.18-.53,6.82,6.82,0,0,1,1.36-.37v-7L177.6,66.54a7.46,7.46,0,0,1-1.35-.37,11.46,11.46,0,0,1-1.16-.53V64.46h10.17v1.18c-.29.17-.62.33-1,.5a6.76,6.76,0,0,1-1.31.4l4.44,8.31,4.21-8.31a9.74,9.74,0,0,1-1.36-.4,10.21,10.21,0,0,1-1.12-.5Z"/><path class="cls-1" d="M102.12,121.29a14,14,0,0,1,1.66.35,10,10,0,0,1,1.47.55v1.17H94.92v-1.17a6.45,6.45,0,0,1,1.26-.56,9.49,9.49,0,0,1,1.29-.34V103.74a7.66,7.66,0,0,1-1.37-.36,6.72,6.72,0,0,1-1.18-.54v-1.18h3.91c.83,0,1.77,0,2.84-.12s2-.12,2.93-.12a15.61,15.61,0,0,1,3.21.32,8.61,8.61,0,0,1,2.79,1.1,6,6,0,0,1,2,2.06,6.3,6.3,0,0,1,.75,3.21,6.3,6.3,0,0,1-2.67,5.36,8.32,8.32,0,0,1-2.79,1.29,12.6,12.6,0,0,1-3.25.42h-.5l-.73,0-.74,0a4,4,0,0,1-.51,0Zm1.67-17.86a8.18,8.18,0,0,0-1,0,4,4,0,0,0-.69.14V113a3.07,3.07,0,0,0,.83.11h.9a4.92,4.92,0,0,0,1.62-.27,3.9,3.9,0,0,0,1.37-.87,4.25,4.25,0,0,0,1-1.52,6,6,0,0,0,.37-2.23,4.88,4.88,0,0,0-1.21-3.66A4.35,4.35,0,0,0,103.79,103.43Z"/><path class="cls-1" d="M122.24,123.36h-7.66v-1.17a7.18,7.18,0,0,1,1.07-.55,7.31,7.31,0,0,1,1.13-.35l8-20h2.29l7.78,20a7.91,7.91,0,0,1,1.24.35,5.28,5.28,0,0,1,1.09.55v1.17h-9.7v-1.17a11.55,11.55,0,0,1,1.27-.53,7.78,7.78,0,0,1,1.3-.37l-1.8-4.93h-6.88l-1.83,4.93a7.31,7.31,0,0,1,2.7.9Zm-.13-9h5.49l-2-5.92-.59-2.67h-.06l-.68,2.73Z"/><path class="cls-1" d="M140.9,101.66h10.17v1.18a8.27,8.27,0,0,1-1.45.58,9.71,9.71,0,0,1-1.53.32v17.61h6l2.08-5.55h1.27c.08.48.16,1,.23,1.67s.13,1.32.17,2,.08,1.39.1,2.08,0,1.28,0,1.79h-17v-1.17a8.54,8.54,0,0,1,1.35-.59,6.77,6.77,0,0,1,1.19-.31V103.74a6.52,6.52,0,0,1-2.54-.9Z"/><path class="cls-1" d="M176.64,101.66h7.69v1.21a7.16,7.16,0,0,1-1.3.82,7.82,7.82,0,0,1-1.34.54v19.51h-2.63l-10.94-15.82-1.24-2.38h-.1l.28,2.48V121a7.19,7.19,0,0,1,1.38.51,7.6,7.6,0,0,1,1.29.73v1.17h-7.66v-1.17a10.17,10.17,0,0,1,1.23-.7,8.48,8.48,0,0,1,1.37-.54v-16.9c-.41-.17-.82-.35-1.24-.56a8.32,8.32,0,0,1-1.11-.65v-1.18H169l8.9,12.9,1.43,2.67h.12l-.15-2.66V104.23a9.63,9.63,0,0,1-1.45-.6,8.24,8.24,0,0,1-1.22-.76Z"/></svg>