<svg id="Layer_1" data-name="Layer 1" xmlns="http://www.w3.org/2000/svg" width="580" height="289" viewBox="0 0 580 289"><defs><style>.cls-1{fill:#007bff;}.cls-2{fill:none;stroke:#707070;}.cls-3{fill:#c73d13;}.cls-4{isolation:isolate;}.cls-5{fill:#fff;}</style></defs><title>Artboard 1</title><path class="cls-1" d="M0,0H580V289H0Z"/><path class="cls-2" d="M.5.5h579v288H.5Z"/><rect class="cls-3" x="29" y="99.49" width="211.98" height="122.7" rx="11"/><g class="cls-4"><g class="cls-4"><path class="cls-5" d="M411.88,245.62a18.69,18.69,0,0,1-2.53,4.4,41.12,41.12,0,0,1,4.38,4.48l-1.05.91a33.92,33.92,0,0,0-4.12-4.46,19,19,0,0,1-5.85,4.38l-1-1a17.28,17.28,0,0,0,6.18-4.46,13.29,13.29,0,0,0,2.49-4.17h-5.85c-.53,0-1.35.06-1.52.08v-1.37c.21,0,1.07.09,1.52.09h5.79a3.9,3.9,0,0,0,1.12-.12l.77.59A3.5,3.5,0,0,0,411.88,245.62Z"/><path class="cls-5" d="M421.16,244.4c-.09.18-.2.36-.31.54h4.06a3,3,0,0,0,1-.15l1,.6a4.54,4.54,0,0,0-.36.81,15.08,15.08,0,0,1-2.34,4.66c.63.47,1.23.93,1.71,1.32l-.88,1c-.46-.4-1-.87-1.64-1.36a14.39,14.39,0,0,1-5.71,3.81l-1.08-.93a13.21,13.21,0,0,0,5.8-3.61c-1.08-.79-2.22-1.56-3.18-2.16l.81-.83c1,.57,2.11,1.29,3.17,2a12.66,12.66,0,0,0,2-4.16h-5.06a16.49,16.49,0,0,1-4,4l-1-.78A13.75,13.75,0,0,0,420,244a5.46,5.46,0,0,0,.48-1.19l1.36.44C421.58,243.62,421.31,244.12,421.16,244.4Z"/><path class="cls-5" d="M434.87,251.87a14.2,14.2,0,0,0,5-5.52l.72,1.27a15,15,0,0,1-5,5.34,16.45,16.45,0,0,1-5.89,2.33l-.8-1.24A15.35,15.35,0,0,0,434.87,251.87Zm-.89-4.76-.94.95a30.47,30.47,0,0,0-3.74-3.14l.86-.91A32.66,32.66,0,0,1,434,247.11Z"/><path class="cls-5" d="M452.63,242.54a1.69,1.69,0,1,1,0,3.37,1.84,1.84,0,0,1-.57-.09,1.22,1.22,0,0,1,0,.17,14.65,14.65,0,0,1-2.24,5.53,11.34,11.34,0,0,1-5.91,4l-1-1.13a9.81,9.81,0,0,0,5.84-3.6,11.21,11.21,0,0,0,2-4.89H443c-.6,0-1.11,0-1.5.05v-1.34a11.47,11.47,0,0,0,1.5.11h7.52a4.44,4.44,0,0,0,.49,0,1.51,1.51,0,0,1-.08-.48A1.69,1.69,0,0,1,452.63,242.54Zm0,2.68a1,1,0,1,0-1-1A1,1,0,0,0,452.63,245.22Z"/><path class="cls-5" d="M461.44,244.43c0,.54-.05,1-.08,1.54h3.57a6,6,0,0,0,1-.07l.84.42a5.24,5.24,0,0,0-.07.73c-.06,1.44-.24,5.81-.92,7.24a1.56,1.56,0,0,1-1.61.92c-.76,0-1.63-.06-2.41-.1l-.15-1.25a19.48,19.48,0,0,0,2.23.17.82.82,0,0,0,.88-.5c.57-1.14.76-4.83.76-6.43h-4.2c-.54,4.3-2.1,6.58-4.6,8.31l-1.1-.89a7.8,7.8,0,0,0,1.55-1.11,9.68,9.68,0,0,0,3-6.31h-2.52a16.1,16.1,0,0,0-1.73.06v-1.28a15.77,15.77,0,0,0,1.71.09h2.64c0-.48.06-1,.06-1.53a9,9,0,0,0-.1-1.24h1.41A12.27,12.27,0,0,0,461.44,244.43Z"/><path class="cls-5" d="M471.67,248.58h8.21a14.14,14.14,0,0,0,1.63-.08V250c-.3,0-.93-.08-1.61-.08h-8.23c-.83,0-1.62,0-2.09.08V248.5C470,248.54,470.83,248.58,471.67,248.58Z"/><path class="cls-5" d="M485.75,245.15a9.43,9.43,0,0,0-.12-1.56h1.49a13.79,13.79,0,0,0-.11,1.56v2.44a51,51,0,0,1,6.41,2.48l-.53,1.27a38.24,38.24,0,0,0-5.88-2.4v4.94c0,.48.05,1.29.09,1.76h-1.44a16.17,16.17,0,0,0,.09-1.76Zm6.63,1.32-.85.39a14.67,14.67,0,0,0-1.34-2.28l.83-.38A22.7,22.7,0,0,1,492.38,246.47Zm1.86-.8-.84.42a14,14,0,0,0-1.39-2.25l.82-.39A20.75,20.75,0,0,1,494.24,245.67Z"/></g><g class="cls-4"><path class="cls-5" d="M515.42,248.79V251H519v1h-3.55v2.41c0,.47.09.56.6.56h1.71c.46,0,.54-.3.6-1.91a3.06,3.06,0,0,0,1,.47c-.1,1.91-.42,2.43-1.51,2.43h-2c-1.26,0-1.59-.33-1.59-1.56v-2.4h-2.7c-.23,1.61-1.12,3.14-4.06,4.15a4.16,4.16,0,0,0-.71-.88c2.51-.84,3.37-2,3.63-3.27h-3.33v-1h3.45v-2.24H509v-.57a12,12,0,0,1-2.23,1.32,6.93,6.93,0,0,0-.7-.84,10.23,10.23,0,0,0,3-1.95,15,15,0,0,0-1.8-1.57l.69-.59a21.73,21.73,0,0,1,1.81,1.47,10.44,10.44,0,0,0,1.4-2h-3.72v-1h4.28l.19,0,.73.36a10.35,10.35,0,0,1-3.12,4.34h7.05a12.88,12.88,0,0,1-3.34-5l1-.28a10.45,10.45,0,0,0,.95,1.89,21.1,21.1,0,0,0,1.84-1.79l.84.6a19.41,19.41,0,0,1-2.21,1.89,9.9,9.9,0,0,0,1,1.15,17.14,17.14,0,0,0,2.14-1.93l.84.6a25.46,25.46,0,0,1-2.35,1.94,9.94,9.94,0,0,0,2.8,1.74,4.29,4.29,0,0,0-.76.93,9.31,9.31,0,0,1-2.15-1.31v.57Zm-1.16,0h-2.6V251h2.6Z"/><path class="cls-5" d="M526.22,246a20,20,0,0,1-1.65,2.26v7.89h-1.11v-6.65a16.94,16.94,0,0,1-1.7,1.55,10.43,10.43,0,0,0-.77-.92,16.48,16.48,0,0,0,4.19-4.52Zm-.59-3.16a18,18,0,0,1-3.84,3.71,9.17,9.17,0,0,0-.66-.88,14.91,14.91,0,0,0,3.44-3.25Zm9.2,5.65h-2.27v6.19c0,.7-.16,1-.66,1.22a11.68,11.68,0,0,1-2.82.16,3.71,3.71,0,0,0-.36-1.08c1.07,0,2.06,0,2.34,0s.38-.07.38-.33v-6.18h-5v-1.06h8.4Zm-.44-4.11h-7.31v-1h7.31Z"/><path class="cls-5" d="M549,245.12v7h-1.14v-.85h-4.3v4.86h-1.16v-4.86h-4.29v.93h-1.09v-7.09h5.38v-2.67h1.16v2.67Zm-6.6,5.07v-4h-4.29v4Zm5.46,0v-4h-4.3v4Z"/><path class="cls-5" d="M552,254.16a1,1,0,1,1,2,0,1,1,0,1,1-2,0Zm.35-8.83,0-1.56h1.39l0,1.56-.17,6.36h-1Z"/><path class="cls-5" d="M556.82,254.16a1,1,0,1,1,2,0,1,1,0,1,1-2,0Zm.35-8.83,0-1.56h1.39l0,1.56-.18,6.36h-.95Z"/></g></g><g class="cls-4"><g class="cls-4"><path class="cls-5" d="M87.67,50.76c2.12-1.27,4.3-2.32,5.62-3.07A14.74,14.74,0,0,0,95,46.56l1,1.76c-.52.31-1.12.62-1.82,1A69.46,69.46,0,0,0,87.48,53c-2.23,1.44-3.58,3-3.58,4.85,0,2,1.9,3.24,5.69,3.24a36.34,36.34,0,0,0,7.68-.81l0,2.13a43.94,43.94,0,0,1-7.58.6c-4.52,0-7.76-1.34-7.76-4.94,0-2.5,1.56-4.44,4.15-6.22-1.1-2-2.37-4.8-3.5-7.39l1.9-.79A54.5,54.5,0,0,0,87.67,50.76Zm10.66-4-1.3.57a25,25,0,0,0-2-3.33l1.29-.55A32.47,32.47,0,0,1,98.33,46.71Zm2.69-1-1.27.58a24.29,24.29,0,0,0-2-3.32L99,42.44A27.68,27.68,0,0,1,101,45.7Z"/><path class="cls-5" d="M114.29,45.36c-1.06,1.66-3.27,5.64-4.51,8a5.3,5.3,0,0,1,3.57-1.49,2.71,2.71,0,0,1,2.81,2.91c0,1.42,0,3.26.1,4.44a1.72,1.72,0,0,0,1.94,1.7c2.67,0,4.25-3.31,4.87-5.85l1.59,1.29c-1.27,3.87-3.29,6.55-6.77,6.55a3.11,3.11,0,0,1-3.48-3c-.07-1.4,0-3.24-.1-4.56a1.61,1.61,0,0,0-1.75-1.68c-1.94,0-3.74,2-4.68,3.84a38,38,0,0,0-2.06,5.47l-2.07-.72c1.75-4.85,7-14.69,8.31-17,.29-.55.6-1.15.89-1.85l2.11.87C114.84,44.48,114.58,44.91,114.29,45.36Z"/><path class="cls-5" d="M136.42,50.76c2.11-1.27,4.29-2.32,5.61-3.07a14.92,14.92,0,0,0,1.71-1.13l1,1.76c-.53.31-1.13.62-1.83,1A68.26,68.26,0,0,0,136.23,53c-2.24,1.44-3.58,3-3.58,4.85,0,2,1.9,3.24,5.69,3.24a36.42,36.42,0,0,0,7.68-.81l0,2.13a43.94,43.94,0,0,1-7.58.6c-4.51,0-7.75-1.34-7.75-4.94,0-2.5,1.56-4.44,4.15-6.22-1.1-2-2.38-4.8-3.5-7.39l1.89-.79A54.45,54.45,0,0,0,136.42,50.76Zm10.65-4-1.29.57a25.09,25.09,0,0,0-2-3.33l1.3-.55A32.41,32.41,0,0,1,147.07,46.71Zm2.69-1-1.27.58a24.29,24.29,0,0,0-2-3.32l1.28-.52A27.58,27.58,0,0,1,149.76,45.7Z"/><path class="cls-5" d="M163,45.36c-1.05,1.66-3.26,5.64-4.51,8a5.32,5.32,0,0,1,3.58-1.49,2.72,2.72,0,0,1,2.81,2.91c0,1.42,0,3.26.09,4.44a1.73,1.73,0,0,0,1.95,1.7c2.66,0,4.24-3.31,4.87-5.85l1.58,1.29c-1.27,3.87-3.29,6.55-6.77,6.55a3.12,3.12,0,0,1-3.48-3c-.07-1.4,0-3.24-.09-4.56a1.61,1.61,0,0,0-1.75-1.68c-1.95,0-3.75,2-4.69,3.84a38,38,0,0,0-2.06,5.47l-2.06-.72c1.75-4.85,7-14.69,8.3-17,.29-.55.6-1.15.89-1.85l2.11.87C163.59,44.48,163.32,44.91,163,45.36Z"/></g><g class="cls-4"><path class="cls-5" d="M204.36,56.84a44.6,44.6,0,0,1-5.47,3.26,19,19,0,0,0,6.79,2.19,7.06,7.06,0,0,0-1.08,1.53c-5.16-.89-9-3.12-11-6.94h-3.74v4.69L196,61l0,1.58c-3.74.41-7.65.8-10.39,1L185.38,62l2.71-.24V49a28.61,28.61,0,0,1-3.22,1.73,6.85,6.85,0,0,0-1.05-1.44c4.05-1.75,8.06-4.75,10-7.42h1.75A28.06,28.06,0,0,0,206,49a11.39,11.39,0,0,0-1.15,1.56c-1-.46-2.11-1-3.19-1.66v7.82c.48-.33.93-.67,1.32-1Zm-3.45-8.38a27.66,27.66,0,0,1-6.12-5,27.27,27.27,0,0,1-5.81,5h4.94V46.08h1.8v2.38Zm-11.07,3.48H200v-2H189.84Zm0,3.48H200V53.31H189.84Zm5.54,1.46a9.12,9.12,0,0,0,2.19,2.33,35,35,0,0,0,3.94-2.33Z"/></g><g class="cls-4"><path class="cls-5" d="M212.45,54.27c1.27-1.27,3.29-4,4.7-5.71s2.67-1.88,4.25-.27,3.29,3.87,4.8,5.5,3.84,4.1,6,6.05l-1.53,1.73c-1.83-1.73-4-4.23-5.62-6.1s-3.41-4.06-4.51-5.28-1.49-1-2.31.07c-1.13,1.37-3.12,4-4.34,5.5-.48.64-1,1.41-1.42,1.92l-1.75-1.83A12.73,12.73,0,0,0,212.45,54.27Zm16-4.63-1.41.62a28.79,28.79,0,0,0-2.24-3.86l1.37-.6A35.74,35.74,0,0,1,228.48,49.64Zm3.17-1.3-1.37.67A27.27,27.27,0,0,0,228,45.2l1.35-.63A30.91,30.91,0,0,1,231.65,48.34Z"/><path class="cls-5" d="M238.39,45.94c1.56-.17,6.1-.62,10.52-1,2.61-.24,4.87-.36,6.48-.44v1.92a20.17,20.17,0,0,0-4.71.39,8.44,8.44,0,0,0-5.5,7.58c0,4.71,4.37,6.19,8.29,6.34l-.7,2c-4.44-.17-9.51-2.54-9.51-7.9a9.75,9.75,0,0,1,4.49-8.11c-2.57.29-8.69.87-11.28,1.42l-.21-2.09C237.17,46,237.94,46,238.39,45.94Z"/><path class="cls-5" d="M259.51,58l1.56-1.37A45.1,45.1,0,0,1,266.45,62l-1.63,1.39A40.12,40.12,0,0,0,259.51,58Z"/><path class="cls-5" d="M282.55,50.76c2.12-1.27,4.3-2.32,5.62-3.07a14.74,14.74,0,0,0,1.7-1.13l1,1.76c-.52.31-1.12.62-1.82,1A69.46,69.46,0,0,0,282.36,53c-2.23,1.44-3.57,3-3.57,4.85,0,2,1.89,3.24,5.68,3.24a36.34,36.34,0,0,0,7.68-.81l0,2.13a43.94,43.94,0,0,1-7.58.6c-4.52,0-7.76-1.34-7.76-4.94,0-2.5,1.56-4.44,4.16-6.22-1.11-2-2.38-4.8-3.51-7.39l1.9-.79A54.5,54.5,0,0,0,282.55,50.76Zm10.66-4-1.3.57A25,25,0,0,0,290,44l1.29-.55A32.47,32.47,0,0,1,293.21,46.71Zm2.69-1-1.27.58a24.29,24.29,0,0,0-2-3.32l1.27-.52A27.68,27.68,0,0,1,295.9,45.7Z"/><path class="cls-5" d="M309.17,45.36c-1.06,1.66-3.26,5.64-4.51,8a5.3,5.3,0,0,1,3.57-1.49A2.71,2.71,0,0,1,311,54.75c0,1.42,0,3.26.1,4.44a1.72,1.72,0,0,0,1.94,1.7c2.67,0,4.25-3.31,4.88-5.85l1.58,1.29c-1.27,3.87-3.29,6.55-6.77,6.55a3.11,3.11,0,0,1-3.48-3c-.07-1.4,0-3.24-.1-4.56a1.61,1.61,0,0,0-1.75-1.68c-1.94,0-3.74,2-4.68,3.84a38,38,0,0,0-2.06,5.47l-2.07-.72c1.75-4.85,7-14.69,8.31-17,.29-.55.6-1.15.89-1.85l2.11.87C309.72,44.48,309.46,44.91,309.17,45.36Z"/><path class="cls-5" d="M331.3,50.76c2.11-1.27,4.29-2.32,5.61-3.07a14.92,14.92,0,0,0,1.71-1.13l1,1.76c-.53.31-1.13.62-1.83,1A68.26,68.26,0,0,0,331.11,53c-2.24,1.44-3.58,3-3.58,4.85,0,2,1.9,3.24,5.69,3.24a36.42,36.42,0,0,0,7.68-.81l0,2.13a43.94,43.94,0,0,1-7.58.6c-4.51,0-7.75-1.34-7.75-4.94,0-2.5,1.56-4.44,4.15-6.22-1.11-2-2.38-4.8-3.5-7.39l1.89-.79A54.45,54.45,0,0,0,331.3,50.76Zm10.65-4-1.29.57a25.09,25.09,0,0,0-2-3.33l1.3-.55A32.41,32.41,0,0,1,342,46.71Zm2.69-1-1.27.58a24.29,24.29,0,0,0-2-3.32l1.28-.52A27.58,27.58,0,0,1,344.64,45.7Z"/><path class="cls-5" d="M357.91,45.36c-1.05,1.66-3.26,5.64-4.51,8A5.32,5.32,0,0,1,357,51.84a2.72,2.72,0,0,1,2.81,2.91c0,1.42,0,3.26.09,4.44a1.73,1.73,0,0,0,1.95,1.7c2.66,0,4.25-3.31,4.87-5.85l1.58,1.29c-1.27,3.87-3.28,6.55-6.77,6.55a3.12,3.12,0,0,1-3.48-3c-.07-1.4,0-3.24-.09-4.56a1.61,1.61,0,0,0-1.75-1.68c-1.95,0-3.75,2-4.68,3.84a38.17,38.17,0,0,0-2.07,5.47l-2.06-.72c1.75-4.85,7-14.69,8.3-17,.29-.55.6-1.15.89-1.85l2.11.87C358.47,44.48,358.2,44.91,357.91,45.36Z"/></g><g class="cls-4"><path class="cls-5" d="M396.5,58.73a15.85,15.85,0,0,1-3,5.12,10.29,10.29,0,0,0-1.41-1,11.22,11.22,0,0,0,2.71-4.48Zm4.61-.93h-7.77v-15h7.77Zm-1.7-13.47H395v3h4.44Zm0,4.44H395v3h4.44Zm0,4.47H395v3.12h4.44Zm0,5A18.89,18.89,0,0,1,401.83,62l-1.51.77A19.05,19.05,0,0,0,398,58.92Zm14.71-6.1H409v9.53c0,1-.21,1.51-1,1.78a12.72,12.72,0,0,1-3.69.28,6.37,6.37,0,0,0-.58-1.65,28.58,28.58,0,0,0,3,0c.36,0,.48-.1.48-.44v-9.5h-5.47V50.55h12.41ZM403.66,49h-1.61V44.79h5V41.91h1.73v2.88h5.09V49h-1.66V46.32h-8.59Z"/></g><g class="cls-4"><path class="cls-5" d="M433.49,45.29c-.12.53-.24,1.08-.38,1.66a7.47,7.47,0,0,1,6.48,7.7c0,4.78-3.44,7.68-8.57,8.4l-1.13-1.7c5-.43,7.8-3.07,7.8-6.77a5.82,5.82,0,0,0-5-6,31.32,31.32,0,0,1-3.5,8.16,14.53,14.53,0,0,0,1.48,1.68l-1.51,1.25c-.38-.43-.77-.89-1.13-1.39-1.49,1.8-2.95,3-4.75,3S419.9,59.76,419.9,57a10.07,10.07,0,0,1,3.7-7.44c-.26-.75-.5-1.49-.72-2.21a16,16,0,0,0-.79-2.16l2-.65c.12.67.31,1.46.48,2.14s.36,1.2.58,1.87a12.18,12.18,0,0,1,6.17-1.71c.14-.6.28-1.17.38-1.75a14.78,14.78,0,0,0,.14-1.82l2.07.19C433.73,44,433.59,44.84,433.49,45.29ZM423.43,59.38c1.18,0,2.45-1.2,3.51-2.62-.19-.28-.36-.59-.56-.91a27.72,27.72,0,0,1-2.16-4.61,8.18,8.18,0,0,0-2.59,5.57C421.63,58.4,422.35,59.38,423.43,59.38ZM428,55.13a30.83,30.83,0,0,0,2.81-6.67,10.64,10.64,0,0,0-5.16,1.66,27.91,27.91,0,0,0,1.87,4.22C427.71,54.6,427.87,54.87,428,55.13Z"/><path class="cls-5" d="M455.35,45.53c0,.65,0,1.51,0,2.45,1.9,0,4.95-.17,7.11-.43l.07,1.8c-2.14.21-5.21.36-7.18.38v.19c0,1.59.12,3.92.24,6A19,19,0,0,1,463.06,60l-1.15,1.83a17.16,17.16,0,0,0-6.24-4c0,.63,0,1.18,0,1.61,0,2-1.2,3.65-4.39,3.65s-5.76-1.06-5.76-3.79c0-2.16,1.9-3.94,6.05-3.94a13.7,13.7,0,0,1,2,.15c-.1-2-.19-4.16-.19-5.6s0-3.36,0-4.39a12.05,12.05,0,0,0-.19-2.37h2.28C455.45,43.66,455.38,44.81,455.35,45.53ZM451.13,61.3c1.75,0,2.62-.81,2.62-2.47,0-.39,0-.91,0-1.54a10.9,10.9,0,0,0-2.35-.24c-2.47,0-3.89.87-3.89,2.19S448.83,61.3,451.13,61.3Z"/><path class="cls-5" d="M478.63,50.55a22.46,22.46,0,0,0-6.55,1.2c-.74.24-1.44.5-2,.74l-.62-2.23a15.15,15.15,0,0,0,2.21-.36,32,32,0,0,1,7.18-1.15c3.4,0,5.95,1.89,5.95,5.33,0,5.21-4.68,8.13-10.9,9.07l-1.08-1.82c5.83-.73,9.94-3,9.94-7.33C482.74,52,481.11,50.55,478.63,50.55Zm4.23-6.24-.29,1.85c-2.66-.17-7.51-.65-10.23-1.13l.32-1.83A65.61,65.61,0,0,0,482.86,44.31Z"/><path class="cls-5" d="M494.07,60.53a1.54,1.54,0,1,1,1.53,1.59A1.5,1.5,0,0,1,494.07,60.53Zm.26-13.65L494.28,44h2.64l-.05,2.84-.48,9.31h-1.58Z"/></g></g><g class="cls-4"><g class="cls-4"><path class="cls-5" d="M277.3,104.48l-4,4,4,4-.35.35-3.95-4-4,4-.35-.35,4-4-4-4,.35-.34,4,4,3.95-4Zm-7.72,4.86a.9.9,0,1,1,.9-.9A.91.91,0,0,1,269.58,109.34ZM272.1,105a.9.9,0,1,1,.9.9A.9.9,0,0,1,272.1,105Zm1.8,6.84a.9.9,0,1,1-.9-.9A.91.91,0,0,1,273.9,111.86Zm2.52-4.32a.9.9,0,1,1-.9.9A.9.9,0,0,1,276.42,107.54Z"/><path class="cls-5" d="M283.91,110.9c0,.92.92,1.55,2.84,1.55a15,15,0,0,0,4.1-.47v1a16.86,16.86,0,0,1-4.09.42c-2.43,0-3.85-.8-3.85-2.31a6.75,6.75,0,0,1,.25-1.67l1,.1A4.09,4.09,0,0,0,283.91,110.9Zm2.92-6c1.15,0,2.38-.08,3.24-.17v1c-.81.06-2.12.15-3.23.15s-2.23,0-3.17-.14v-1A28.6,28.6,0,0,0,286.83,104.86Zm4.56.16-.65.3a11.76,11.76,0,0,0-1-1.67l.65-.28A17.93,17.93,0,0,1,291.39,105Zm1.36-.49-.66.29a11,11,0,0,0-1-1.65l.64-.28A18.31,18.31,0,0,1,292.75,104.53Z"/></g><g class="cls-4"><path class="cls-5" d="M298.75,105.68a16.5,16.5,0,0,0-1.76-2,10.62,10.62,0,0,1-2.51,2.86,2.82,2.82,0,0,0-.54-.6,8.41,8.41,0,0,0,2.51-3h.86a17.75,17.75,0,0,1,2.07,2.14Zm3.77,1.83c0,.93.38,4.11,2.73,5.66a8.12,8.12,0,0,0-.56.75,6.81,6.81,0,0,1-2.61-4.57,6.77,6.77,0,0,1-2.81,4.57c-.13-.18-.38-.55-.53-.72,2.54-1.58,2.91-4.71,2.91-5.69v-1.57h-.9a9.15,9.15,0,0,1-1.15,2.3c-.15-.12-.48-.32-.69-.45V110h-3v2.2c.6-.17,1.26-.36,1.92-.57-.18-.37-.37-.75-.56-1.07l.72-.27a12.51,12.51,0,0,1,1.12,2.38l-.76.33c-.05-.2-.14-.43-.23-.68-1.26.42-2.54.85-3.56,1.17l-.32-.82.87-.24v-6.3h1.54V105h.81v1.1h1.49v1.58a10.75,10.75,0,0,0,1.69-4.7l.87.13a16.24,16.24,0,0,1-.47,2h3.34l.14,0,.59.17a16.5,16.5,0,0,1-.95,3.08l-.69-.26a14.94,14.94,0,0,0,.62-2.13h-1.53Zm-6.65-.77v.93h2.24v-.93Zm2.24,2.55v-1h-2.24v1Z"/><path class="cls-5" d="M316.42,110.42a20.72,20.72,0,0,1-2.73,1.63,9.33,9.33,0,0,0,3.39,1.09,3.44,3.44,0,0,0-.54.77c-2.58-.44-4.48-1.56-5.5-3.46h-1.87v2.33l3.08-.28v.79c-1.87.2-3.83.39-5.19.51l-.13-.82,1.35-.12v-6.35a16.66,16.66,0,0,1-1.61.87,3.12,3.12,0,0,0-.52-.72,13,13,0,0,0,5-3.71H312a13.87,13.87,0,0,0,5.24,3.57,6,6,0,0,0-.57.78,15.19,15.19,0,0,1-1.6-.82v3.91l.66-.48Zm-1.72-4.18a14.13,14.13,0,0,1-3.06-2.49,13.3,13.3,0,0,1-2.91,2.49h2.48v-1.19h.89v1.19ZM309.17,108h5v-1h-5Zm0,1.74h5v-1h-5Zm2.77.74a4.42,4.42,0,0,0,1.09,1.16,17.35,17.35,0,0,0,2-1.16Z"/><path class="cls-5" d="M319.25,112.09h2.67v-6.57h-2v-.7a6.4,6.4,0,0,0,2.31-.64H323v7.91h2.51V113h-6.27Z"/><path class="cls-5" d="M327.44,114.63a1.79,1.79,0,0,0,1.2-1.63h-.13a.75.75,0,0,1-.8-.77.78.78,0,0,1,.83-.76c.57,0,.92.49.92,1.29a2.68,2.68,0,0,1-1.75,2.51Z"/><path class="cls-5" d="M331.45,108.56c0-3,1.33-4.51,3.25-4.51s3.25,1.5,3.25,4.51-1.33,4.58-3.25,4.58S331.45,111.57,331.45,108.56Zm5.42,0c0-2.61-.91-3.62-2.17-3.62s-2.17,1-2.17,3.62.91,3.7,2.17,3.7S336.87,111.17,336.87,108.56Z"/><path class="cls-5" d="M340.57,108.56c0-3,1.33-4.51,3.25-4.51s3.25,1.5,3.25,4.51-1.33,4.58-3.25,4.58S340.57,111.57,340.57,108.56Zm5.42,0c0-2.61-.91-3.62-2.17-3.62s-2.17,1-2.17,3.62.91,3.7,2.17,3.7S346,111.17,346,108.56Z"/><path class="cls-5" d="M349.69,108.56c0-3,1.33-4.51,3.25-4.51s3.25,1.5,3.25,4.51-1.33,4.58-3.25,4.58S349.69,111.57,349.69,108.56Zm5.42,0c0-2.61-.91-3.62-2.17-3.62s-2.17,1-2.17,3.62.91,3.7,2.17,3.7S355.11,111.17,355.11,108.56Z"/><path class="cls-5" d="M368.46,112.72c0,.58-.15.87-.56,1a7.21,7.21,0,0,1-2.13.16,4.06,4.06,0,0,0-.34-.89c.82,0,1.6,0,1.82,0s.3-.07.3-.3v-3.67h-8v4.87h-.89V103.79h9.83Zm-8.94-4.55H363v-3.52h-3.51Zm8,0v-3.52h-3.64v3.52Z"/><path class="cls-5" d="M379.24,109.52c-.06.81-.13,1.47-.2,2h1.61v.79h-1.73a2.84,2.84,0,0,1-.44,1.18,1.17,1.17,0,0,1-.92.44,12.11,12.11,0,0,1-1.66,0,2,2,0,0,0-.22-.7c.69.06,1.27.07,1.54.07a.55.55,0,0,0,.48-.18,1.77,1.77,0,0,0,.32-.78h-5.73q-.07.4-.15.75l-.9-.06c.21-.91.44-2.17.65-3.47h-1.83v-.8h2c.15-.94.27-1.85.36-2.65h7.06s0,.31,0,.43c0,.83-.08,1.57-.13,2.22H381v.8ZM372.83,105a10.46,10.46,0,0,1-1.78,2.08,3.21,3.21,0,0,0-.73-.54,9.08,9.08,0,0,0,2.57-3.56l1,.17c-.16.33-.33.68-.53,1h7.06V105Zm-.08,4.54c-.1.7-.21,1.37-.32,2h2.38c.09-.57.19-1.27.27-2Zm.41-2.67c-.08.6-.18,1.23-.28,1.87h2.29c.07-.65.14-1.28.19-1.87Zm5,4.66c.08-.51.15-1.16.21-2H375.9c-.09.72-.17,1.42-.27,2Zm.27-2.79c0-.57.07-1.18.11-1.87H376.2c-.06.59-.14,1.23-.21,1.87Z"/></g><g class="cls-4"><path class="cls-5" d="M395.87,104.78a27.84,27.84,0,0,0-.6,4.6,11.85,11.85,0,0,0,.11,1.68c.2-.54.49-1.26.69-1.75l.5.38a24.78,24.78,0,0,0-.85,2.69,2.78,2.78,0,0,0-.06.54c0,.13,0,.3,0,.42l-.87.06a15.17,15.17,0,0,1-.44-3.85,34.1,34.1,0,0,1,.54-4.81,5.1,5.1,0,0,0,.08-.86l1.07.1C396,104.18,395.91,104.57,395.87,104.78Zm2.79,6.11c0,.55.4,1.08,2,1.08a13.53,13.53,0,0,0,3-.31l0,1a15.74,15.74,0,0,1-3,.26c-2,0-2.92-.68-2.92-1.8a6.66,6.66,0,0,1,.21-1.42l.86.09A4.16,4.16,0,0,0,398.66,110.89Zm4.64-6v1a27.06,27.06,0,0,1-4.93,0v-1A20.31,20.31,0,0,0,403.3,104.89Z"/><path class="cls-5" d="M413.28,105.5a15.21,15.21,0,0,1-2,3.52,34,34,0,0,1,3.5,3.58l-.84.72a27.24,27.24,0,0,0-3.3-3.56,15.12,15.12,0,0,1-4.67,3.5l-.77-.8a13.59,13.59,0,0,0,4.94-3.56,10.52,10.52,0,0,0,2-3.34h-4.68c-.42,0-1.08,0-1.21.06v-1.09a11.81,11.81,0,0,0,1.21.07h4.63a3.3,3.3,0,0,0,.9-.09l.62.47A2.75,2.75,0,0,0,413.28,105.5Z"/><path class="cls-5" d="M420.71,104.52a3.78,3.78,0,0,1-.26.43h3.25a2.5,2.5,0,0,0,.8-.12l.79.48a3.79,3.79,0,0,0-.29.65,12.06,12.06,0,0,1-1.87,3.73c.5.37,1,.74,1.37,1.06l-.71.82c-.36-.32-.82-.69-1.31-1.09a11.4,11.4,0,0,1-4.57,3l-.86-.75a10.47,10.47,0,0,0,4.64-2.89c-.86-.62-1.78-1.24-2.54-1.72l.64-.66a29.57,29.57,0,0,1,2.53,1.62A10.08,10.08,0,0,0,424,105.8H419.9a13,13,0,0,1-3.18,3.18l-.8-.62a10.91,10.91,0,0,0,3.85-4.18,4.09,4.09,0,0,0,.38-.94l1.1.34C421,103.9,420.83,104.3,420.71,104.52Z"/><path class="cls-5" d="M431.67,110.49a11.33,11.33,0,0,0,4-4.41l.57,1a11.86,11.86,0,0,1-4,4.27,13.15,13.15,0,0,1-4.71,1.86l-.63-1A12.34,12.34,0,0,0,431.67,110.49Zm-.71-3.8-.75.76a24.26,24.26,0,0,0-3-2.51l.69-.73A25.93,25.93,0,0,1,431,106.69Z"/><path class="cls-5" d="M445.88,103a1.37,1.37,0,0,1,1.35,1.36,1.35,1.35,0,0,1-1.35,1.34,1.43,1.43,0,0,1-.46-.07.69.69,0,0,1,0,.13,11.7,11.7,0,0,1-1.79,4.43,9.08,9.08,0,0,1-4.72,3.2l-.82-.9a8,8,0,0,0,4.68-2.88,9,9,0,0,0,1.57-3.91h-6.13c-.48,0-.89,0-1.2,0V104.7a9,9,0,0,0,1.2.08h6.41a1.21,1.21,0,0,1-.06-.38A1.35,1.35,0,0,1,445.88,103Zm0,2.15a.8.8,0,0,0,.8-.79.8.8,0,1,0-1.59,0A.8.8,0,0,0,445.88,105.18Z"/><path class="cls-5" d="M448.75,112.09h2.68v-6.57h-2v-.7a6.34,6.34,0,0,0,2.3-.64h.83v7.91H455V113h-6.27Z"/></g><g class="cls-4"><path class="cls-5" d="M468.36,103.25a19.68,19.68,0,0,1-1,2.33v8.34h-.85v-6.81a12,12,0,0,1-1.17,1.58,5.91,5.91,0,0,0-.46-.9,13.89,13.89,0,0,0,2.62-4.77Zm7.37.44V113.8h-.85v-.61h-5.27v.71h-.83V103.69Zm-.85,8.71v-7.93h-5.27v7.93Zm-2.25-5.5v1.31H474v3.2h-3.42v-3.2h1.31V106.9h-1.8v-.69h1.8v-1.35h.73v1.35h1.84v.69Zm.67,2h-2v1.86h2Z"/><path class="cls-5" d="M479.57,109.45v3.38c0,.52-.11.76-.42.91a3.58,3.58,0,0,1-1.56.17,4,4,0,0,0-.29-.86c.54,0,1,0,1.19,0s.22,0,.22-.23v-3.12l-1.47.46-.22-.86c.47-.12,1.06-.28,1.69-.47V106.2h-1.47v-.83h1.47V103h.86v2.4h1.29v.83h-1.29v2.4l1.29-.37.11.79ZM482.8,111a8,8,0,0,1-1.65,2.43,4,4,0,0,0-.7-.46,6.09,6.09,0,0,0,1.55-2.16Zm2.9-5.73a7.14,7.14,0,0,0,2.63,2.36,4,4,0,0,0-.61.69,8.48,8.48,0,0,1-3-3H484a7.11,7.11,0,0,1-2.91,3.06,3,3,0,0,0-.6-.64A6.19,6.19,0,0,0,483,105.3H481v-.78h2.48a8.56,8.56,0,0,0,.48-1.53l.85.1a10.48,10.48,0,0,1-.43,1.43H488v.78Zm-.87,4.85v2.79c0,.46-.07.68-.38.83a4.33,4.33,0,0,1-1.47.13,3,3,0,0,0-.25-.83,7.63,7.63,0,0,0,1.07,0c.16,0,.18,0,.18-.15v-2.78h-2.83v-.81h6.51v.81Zm1.52-2.69v.78h-3.83v-.78Zm.16,3.31a12.88,12.88,0,0,1,1.62,2.34l-.74.39a13.27,13.27,0,0,0-1.59-2.41Z"/><path class="cls-5" d="M494.35,103.73a26.24,26.24,0,0,1-3.52,1.25v2.14h3.3V108h-3.3v2.91h3.38v.86h-3.38v1h-.89V104l.55.22a19.59,19.59,0,0,0,3.09-1.27Zm5.32,7.17c0,.53-.09.83-.48,1a6,6,0,0,1-1.89.16,3.73,3.73,0,0,0-.35-.94c.73,0,1.39,0,1.58,0s.26-.07.26-.25v-6.21h-3v9.18H495V103.8h4.72Z"/></g><g class="cls-4"><path class="cls-5" d="M503.7,104.87c-.06,1.35-.15,4.18-.15,6,0,1.32.83,1.79,2,1.79a5,5,0,0,0,4.29-2.48l.69.81a6,6,0,0,1-5,2.65c-1.72,0-2.91-.72-2.91-2.67,0-1.78.12-4.81.12-6.07a5.62,5.62,0,0,0-.1-1.22h1.22A9.71,9.71,0,0,0,503.7,104.87Z"/><path class="cls-5" d="M517.27,104.28c0,.16,0,.42,0,.73a29.79,29.79,0,0,0,3.25-.32l0,.87c-.94.11-2.08.22-3.23.28v1.68a32.32,32.32,0,0,0,3.34-.32v.89c-1.13.15-2.18.24-3.32.28,0,.62.06,1.27.08,1.85a9.34,9.34,0,0,1,3.5,1.87l-.55.85a8.78,8.78,0,0,0-2.9-1.81c0,.3,0,.55,0,.74,0,.83-.55,1.68-2.11,1.68-1.72,0-2.66-.61-2.66-1.76s1-1.84,2.77-1.84a6.66,6.66,0,0,1,1,.08c0-.54,0-1.12,0-1.64h-.68c-.82,0-2.14-.07-3-.16v-.9a22.73,22.73,0,0,0,3,.22h.65v-1.67h-.53c-.84,0-2.32-.12-3.07-.21v-.89a20.85,20.85,0,0,0,3.07.27h.55v-.85c0-.21,0-.55,0-.72h1A5,5,0,0,0,517.27,104.28Zm-2.06,8.43c.68,0,1.27-.21,1.27-1,0-.21,0-.49,0-.8a4.91,4.91,0,0,0-1.16-.12c-1.14,0-1.76.44-1.76,1S514,112.71,515.21,112.71Z"/><path class="cls-5" d="M528.68,104.26c0,.18,0,.45,0,.78h3.69v.89c-.67,0-1.76-.06-3.51-.06h-.17c0,.68,0,1.42,0,2a3,3,0,0,1,.39,1.54c0,1.62-.8,3.42-3.59,4.26l-.8-.79a4.16,4.16,0,0,0,3.17-2.13,1.64,1.64,0,0,1-1,.33,1.91,1.91,0,0,1-2-2A2.1,2.1,0,0,1,527,107a2.55,2.55,0,0,1,.81.13c0-.36,0-.79,0-1.21-1.83,0-3.87.09-5.36.2l0-.92c1.33,0,3.59-.1,5.37-.12,0-.34,0-.63,0-.79,0-.31-.06-.66-.07-.76h1.09C528.72,103.63,528.69,104.1,528.68,104.26Zm-1.7,6c.7,0,1.16-.56,1-1.7a1.08,1.08,0,0,0-1.07-.76,1.22,1.22,0,0,0-1.21,1.27A1.16,1.16,0,0,0,527,110.23Z"/></g><g class="cls-4"><path class="cls-5" d="M277.3,121.48l-4,4,4,4-.35.35-3.95-4-4,4-.35-.35,4-4-4-4,.35-.34,4,4,3.95-4Zm-7.72,4.86a.9.9,0,1,1,.9-.9A.91.91,0,0,1,269.58,126.34ZM272.1,122a.9.9,0,1,1,.9.9A.9.9,0,0,1,272.1,122Zm1.8,6.84a.9.9,0,1,1-.9-.9A.91.91,0,0,1,273.9,128.86Zm2.52-4.32a.9.9,0,1,1-.9.9A.9.9,0,0,1,276.42,124.54Z"/><path class="cls-5" d="M290.38,122.5a14.8,14.8,0,0,1-2,3.52,34,34,0,0,1,3.5,3.58l-.84.72a27.24,27.24,0,0,0-3.3-3.56,15,15,0,0,1-4.68,3.5l-.76-.8a13.68,13.68,0,0,0,4.94-3.56,10.7,10.7,0,0,0,2-3.34h-4.68c-.42,0-1.08,0-1.21.06v-1.09a11.81,11.81,0,0,0,1.21.07h4.63a3.3,3.3,0,0,0,.9-.09l.61.47A3.42,3.42,0,0,0,290.38,122.5Z"/><path class="cls-5" d="M297.81,121.52a2.67,2.67,0,0,1-.25.43h3.25a2.43,2.43,0,0,0,.79-.12l.79.48a4.71,4.71,0,0,0-.28.65,12.29,12.29,0,0,1-1.87,3.73c.5.37,1,.74,1.36,1.06l-.7.82c-.36-.32-.82-.69-1.31-1.09a11.47,11.47,0,0,1-4.57,3l-.86-.75a10.47,10.47,0,0,0,4.64-2.89c-.87-.62-1.78-1.24-2.55-1.72l.65-.66c.79.45,1.69,1,2.53,1.62a10,10,0,0,0,1.63-3.33H297a13.13,13.13,0,0,1-3.18,3.18l-.8-.62a11,11,0,0,0,3.85-4.18,4.09,4.09,0,0,0,.38-.94l1.09.34C298.15,120.9,297.93,121.3,297.81,121.52Z"/><path class="cls-5" d="M308.78,127.49a11.33,11.33,0,0,0,4-4.41l.57,1a11.94,11.94,0,0,1-4,4.27,13.22,13.22,0,0,1-4.71,1.86l-.64-1A12.33,12.33,0,0,0,308.78,127.49Zm-.71-3.8-.75.76a24.26,24.26,0,0,0-3-2.51l.68-.73A25.25,25.25,0,0,1,308.07,123.69Z"/><path class="cls-5" d="M323,120a1.37,1.37,0,0,1,1.35,1.36,1.35,1.35,0,0,1-1.35,1.34,1.39,1.39,0,0,1-.46-.07.69.69,0,0,1,0,.13,11.86,11.86,0,0,1-1.79,4.43,9.07,9.07,0,0,1-4.73,3.2l-.81-.9a8,8,0,0,0,4.68-2.88,9,9,0,0,0,1.57-3.91H315.3c-.48,0-.89,0-1.2,0V121.7a9,9,0,0,0,1.2.08h6.4a1.59,1.59,0,0,1-.06-.38A1.36,1.36,0,0,1,323,120Zm0,2.15a.8.8,0,0,0,.8-.79.81.81,0,0,0-.8-.81.8.8,0,0,0-.79.81A.79.79,0,0,0,323,122.18Z"/><path class="cls-5" d="M325.62,128.66l.58-.7a3.42,3.42,0,0,0,2.71,1.27c1.13,0,2-.62,2-1.63s-.86-1.74-3-1.74V125c2,0,2.8-.79,2.8-1.64s-.64-1.43-1.81-1.43a3.27,3.27,0,0,0-2.43,1.11l-.6-.68a4.35,4.35,0,0,1,3.07-1.34c1.74,0,2.83.91,2.83,2.22a2.11,2.11,0,0,1-1.68,2.1v0a2.25,2.25,0,0,1,1.93,2.25c0,1.55-1.38,2.48-3.05,2.48A4.14,4.14,0,0,1,325.62,128.66Z"/><path class="cls-5" d="M340.36,122.77a2.33,2.33,0,0,0-1.83-.81c-1.16,0-2.51.89-2.6,3.72a3.21,3.21,0,0,1,2.4-1.16,2.57,2.57,0,0,1,2.8,2.7,2.74,2.74,0,0,1-2.88,2.92c-1.83,0-3.38-1.22-3.38-4.11,0-3.6,1.84-5,3.63-5a3.24,3.24,0,0,1,2.49,1Zm-.27,4.47a1.75,1.75,0,0,0-1.91-1.87,2.72,2.72,0,0,0-2.22,1.34c.19,1.78,1.13,2.56,2.31,2.56A1.81,1.81,0,0,0,340.09,127.24Z"/></g><g class="cls-4"><path class="cls-5" d="M357,120.25a18.12,18.12,0,0,1-1,2.33v8.34h-.85v-6.81a11.14,11.14,0,0,1-1.16,1.58,5.21,5.21,0,0,0-.47-.9,13.74,13.74,0,0,0,2.63-4.77Zm7.38.44V130.8h-.85v-.61h-5.28v.71h-.83V120.69Zm-.85,8.71v-7.93h-5.28v7.93Zm-2.26-5.5v1.31h1.38v3.2h-3.42v-3.2h1.31V123.9h-1.8v-.69h1.8v-1.35h.73v1.35h1.85v.69Zm.67,2h-2v1.86h2Z"/></g><g class="cls-4"><path class="cls-5" d="M366.92,122.05c.78-.09,3.05-.31,5.26-.49,1.3-.11,2.43-.18,3.23-.22v1a10,10,0,0,0-2.35.19,4.22,4.22,0,0,0-2.74,3.8c0,2.34,2.18,3.09,4.14,3.16l-.35,1c-2.22-.08-4.75-1.27-4.75-3.94a4.89,4.89,0,0,1,2.24-4.06c-1.28.15-4.34.44-5.64.71l-.1-1C366.31,122.1,366.7,122.07,366.92,122.05Zm7.75,3.39-.61.29a11.14,11.14,0,0,0-1-1.69l.61-.26A14.86,14.86,0,0,1,374.67,125.44Zm1.37-.51-.63.3a10.35,10.35,0,0,0-1-1.68l.58-.28A16.49,16.49,0,0,1,376,124.93Z"/><path class="cls-5" d="M376.45,128l.78-.69a23.37,23.37,0,0,1,2.69,2.67l-.82.69A19.69,19.69,0,0,0,376.45,128Z"/></g><g class="cls-4"><path class="cls-5" d="M392.61,126.43c-.88,1-1.88,2-2.69,2.77l-.58-.74c.7-.64,1.77-1.75,2.79-2.8Zm-.73-3.19a13.47,13.47,0,0,0-2.16-1.84l.64-.64a13.35,13.35,0,0,1,2.19,1.77Zm4.74,1.27a6.33,6.33,0,0,0,3.8,5.61c-.15.2-.43.58-.57.79a6.77,6.77,0,0,1-3.7-4.74,6.87,6.87,0,0,1-4.16,4.74,4.16,4.16,0,0,0-.55-.72,6.37,6.37,0,0,0,4.26-5.68V123h-1.47a11.33,11.33,0,0,1-1.33,2.43,5.77,5.77,0,0,0-.85-.5A11.63,11.63,0,0,0,394.2,120l.93.17c-.17.67-.35,1.31-.56,1.94h4.83l.18,0,.65.36a16,16,0,0,1-1.32,3.17c-.19-.09-.53-.28-.74-.36a13.53,13.53,0,0,0,.92-2.23h-2.47Z"/><path class="cls-5" d="M411.82,120.46v10.45h-.95v-.65h-8.09v.65h-.9V120.46Zm-.95,9v-8.07h-8.09v8.07Zm-1.73-6.21v4.33h-4.63v-4.33Zm-.88.81h-2.9v2.73h2.9Z"/><path class="cls-5" d="M414.41,129.09h2.67v-6.57h-2v-.7a6.28,6.28,0,0,0,2.3-.64h.83v7.91h2.51V130h-6.27Z"/><path class="cls-5" d="M422.6,131.63a1.79,1.79,0,0,0,1.2-1.63h-.13a.75.75,0,0,1-.8-.77.78.78,0,0,1,.83-.76c.57,0,.92.49.92,1.29a2.68,2.68,0,0,1-1.75,2.51Z"/><path class="cls-5" d="M426.61,125.56c0-3,1.33-4.51,3.25-4.51s3.25,1.5,3.25,4.51-1.33,4.58-3.25,4.58S426.61,128.57,426.61,125.56Zm5.42,0c0-2.61-.91-3.62-2.17-3.62s-2.17,1-2.17,3.62.91,3.7,2.17,3.7S432,128.17,432,125.56Z"/><path class="cls-5" d="M435.73,125.56c0-3,1.33-4.51,3.25-4.51s3.25,1.5,3.25,4.51-1.33,4.58-3.25,4.58S435.73,128.57,435.73,125.56Zm5.42,0c0-2.61-.91-3.62-2.17-3.62s-2.17,1-2.17,3.62.91,3.7,2.17,3.7S441.15,128.17,441.15,125.56Z"/><path class="cls-5" d="M444.85,125.56c0-3,1.33-4.51,3.25-4.51s3.25,1.5,3.25,4.51-1.33,4.58-3.25,4.58S444.85,128.57,444.85,125.56Zm5.42,0c0-2.61-.91-3.62-2.17-3.62s-2.17,1-2.17,3.62.91,3.7,2.17,3.7S450.27,128.17,450.27,125.56Z"/><path class="cls-5" d="M463.61,129.72c0,.58-.14.87-.55,1a7.21,7.21,0,0,1-2.13.16,4.06,4.06,0,0,0-.34-.89c.82,0,1.6,0,1.83,0s.29-.07.29-.3v-3.67h-8v4.87h-.89V120.79h9.82Zm-8.93-4.55h3.51v-3.52h-3.51Zm8,0v-3.52h-3.64v3.52Z"/><path class="cls-5" d="M468.69,120.26a17,17,0,0,1-1.23,2.59v8h-.84v-6.73a11.29,11.29,0,0,1-1.21,1.47,5.11,5.11,0,0,0-.51-.86,13.74,13.74,0,0,0,3-4.76Zm7.44,10h-6.55v.59h-.83v-7.32h.83v6h6.55ZM472,123c0-.3.08-.64.12-1h-3.2v-.78h3.27c0-.44.07-.85.1-1.23l.89,0c0,.37-.08.77-.11,1.18h3V122H473c0,.36-.08.7-.13,1h2.58v5.62h-4.76V123Zm2.56.69h-3.06v1h3.06Zm0,1.62h-3.06v1h3.06Zm0,1.63h-3.06v1h3.06Z"/><path class="cls-5" d="M482.71,125.73s0,.29,0,.41c-.21,2.83-.41,3.94-.85,4.35a1.16,1.16,0,0,1-.94.39,18.42,18.42,0,0,1-1.9,0,2,2,0,0,0-.31-.91c.79.07,1.58.08,1.88.08a.7.7,0,0,0,.53-.13c.29-.25.49-1.17.65-3.33h-3.16c0,.2-.09.39-.13.57l-.87-.14c.24-1,.52-2.58.69-3.79h3.5v-1.9h-3.91v-.84h4.79V124H479c-.1.56-.19,1.15-.3,1.69Zm4.1-5.64v10.82h-.89V120.09Z"/></g><g class="cls-4"><path class="cls-5" d="M502.56,122.79c0,.76,0,1.85.08,2.84.19,2,.78,3.34,1.63,3.34.61,0,1.18-1.25,1.49-2.45l.76.85c-.72,2-1.46,2.74-2.26,2.74-1.14,0-2.23-1.13-2.55-4.24-.11-1-.13-2.5-.13-3.2a5.66,5.66,0,0,0-.09-1.07l1.16,0A10.9,10.9,0,0,0,502.56,122.79Zm8.45,5.13-1,.4a12.09,12.09,0,0,0-2.08-6l.93-.33A12.92,12.92,0,0,1,511,127.92Z"/><path class="cls-5" d="M516.29,121.52c0,.25-.11.56-.18.89a19.06,19.06,0,0,0,2.3-.43v.94a21.73,21.73,0,0,1-2.5.41c-.1.53-.24,1.08-.38,1.61a37.08,37.08,0,0,1-1.87,5.49l-1.06-.36a26.39,26.39,0,0,0,2-5.36c.11-.39.21-.85.31-1.28l-1.1,0c-.53,0-1,0-1.39,0l0-.94a11.11,11.11,0,0,0,1.44.08c.39,0,.83,0,1.29-.06.09-.42.15-.8.18-1a5,5,0,0,0,0-1l1.15.1C516.43,120.83,516.33,121.28,516.29,121.52Zm1.42,6.69c0,.57.31,1.12,2,1.12a12,12,0,0,0,2.34-.24l0,1a15.38,15.38,0,0,1-2.31.17c-1.9,0-2.93-.58-2.93-1.77a7.17,7.17,0,0,1,.18-1.41l.9.08A4.2,4.2,0,0,0,517.71,128.21Zm2.11-4.1a19.8,19.8,0,0,1,2.08.11l0,.91a15.86,15.86,0,0,0-2-.14,18.3,18.3,0,0,0-2.23.12v-.89C518.26,124.16,519.06,124.11,519.82,124.11Z"/><path class="cls-5" d="M526,121.87c-.06,1.35-.14,4.18-.14,6,0,1.32.83,1.79,2,1.79a5,5,0,0,0,4.29-2.48l.68.81a6,6,0,0,1-5,2.65c-1.73,0-2.91-.72-2.91-2.67,0-1.78.12-4.81.12-6.07a6.33,6.33,0,0,0-.1-1.22h1.21A12.09,12.09,0,0,0,526,121.87Z"/><path class="cls-5" d="M539.56,121.28c0,.16,0,.42,0,.73a29.79,29.79,0,0,0,3.25-.32v.87c-.95.11-2.09.22-3.24.28v1.68a32.25,32.25,0,0,0,3.35-.32v.89c-1.13.15-2.19.24-3.33.28,0,.62.06,1.27.09,1.85a9.43,9.43,0,0,1,3.5,1.87l-.55.85a8.78,8.78,0,0,0-2.9-1.81c0,.3,0,.55,0,.74,0,.83-.55,1.68-2.11,1.68-1.73,0-2.66-.61-2.66-1.76s1-1.84,2.77-1.84a6.43,6.43,0,0,1,1,.08c0-.54,0-1.12,0-1.64H538c-.81,0-2.13-.07-3-.16l0-.9a22.88,22.88,0,0,0,3,.22h.64v-1.67h-.53c-.83,0-2.31-.12-3.07-.21v-.89a21,21,0,0,0,3.07.27h.56v-.85c0-.21,0-.55,0-.72h1A6.27,6.27,0,0,0,539.56,121.28Zm-2.06,8.43c.69,0,1.27-.21,1.27-1,0-.21,0-.49,0-.8a5,5,0,0,0-1.16-.12c-1.14,0-1.77.44-1.77,1S536.31,129.71,537.5,129.71Z"/><path class="cls-5" d="M551,121.26c0,.18,0,.45,0,.78h3.7v.89c-.68,0-1.77-.06-3.52-.06H551c0,.68,0,1.42,0,2a3,3,0,0,1,.38,1.54c0,1.62-.79,3.42-3.58,4.26l-.81-.79a4.16,4.16,0,0,0,3.18-2.13,1.66,1.66,0,0,1-1,.33,1.91,1.91,0,0,1-2-2,2.09,2.09,0,0,1,2.11-2.08,2.44,2.44,0,0,1,.8.13c0-.36,0-.79,0-1.21-1.82,0-3.86.09-5.36.2l0-.92c1.33,0,3.58-.1,5.37-.12,0-.34,0-.63,0-.79,0-.31-.06-.66-.07-.76H551C551,120.63,551,121.1,551,121.26Zm-1.71,6c.71,0,1.17-.56,1.06-1.7a1.08,1.08,0,0,0-1.07-.76,1.22,1.22,0,0,0-1.21,1.27A1.15,1.15,0,0,0,549.27,127.23Z"/></g><g class="cls-4"><path class="cls-5" d="M277.3,138.48l-4,4,4,4-.35.35-3.95-4-4,4-.35-.35,4-4-4-4,.35-.34,4,4,3.95-4Zm-7.72,4.86a.9.9,0,1,1,.9-.9A.91.91,0,0,1,269.58,143.34ZM272.1,139a.9.9,0,1,1,.9.9A.9.9,0,0,1,272.1,139Zm1.8,6.84a.9.9,0,1,1-.9-.9A.91.91,0,0,1,273.9,145.86Zm2.52-4.32a.9.9,0,1,1-.9.9A.9.9,0,0,1,276.42,141.54Z"/></g><g class="cls-4"><path class="cls-5" d="M286.59,144.78,282.34,146l-.24-.85c.52-.13,1.17-.3,1.88-.5v-2.91h-1.51V141H284V138.4h-1.66v-.82h4.09v.82h-1.58V141h1.48v.82h-1.48v2.68l1.66-.47Zm5.63,2.28c.27,0,.32-.18.36-1.42a2.1,2.1,0,0,0,.74.35c-.06,1.47-.29,1.84-1,1.84h-1.16c-.85,0-1.07-.25-1.07-1.12v-2.66h-1.17a4.06,4.06,0,0,1-3.22,3.93,2.64,2.64,0,0,0-.5-.73,3.3,3.3,0,0,0,2.84-3.2H287v-6.56h5.6v6.56h-1.63v2.66c0,.3,0,.35.34.35Zm-4.42-7.62h3.89v-1.19H287.8Zm0,1.91h3.89v-1.2H287.8Zm0,1.94h3.89v-1.22H287.8Z"/><path class="cls-5" d="M300.09,146.74h4.69v.79H294.61v-.79h4.56v-3h-4V143h4v-1.6H296.7v-.69a16.45,16.45,0,0,1-2,1.25,3.38,3.38,0,0,0-.54-.7,13.36,13.36,0,0,0,5-4.3H300a14.1,14.1,0,0,0,5.21,4.15,4.33,4.33,0,0,0-.58.79,15.63,15.63,0,0,1-2-1.25v.75h-2.57V143h4.12v.78h-4.12Zm-3.22-2.64a7.73,7.73,0,0,1,1.14,2.14l-.77.34a8.84,8.84,0,0,0-1.09-2.21Zm5.72-3.5a14,14,0,0,1-2.95-2.79,13.25,13.25,0,0,1-2.81,2.79Zm-1.5,5.68a13.82,13.82,0,0,0,1.28-2.21l.84.33a20.11,20.11,0,0,1-1.46,2.18Z"/></g><g class="cls-4"><path class="cls-5" d="M310.64,141.23c1.13-.68,2.42-1.32,3.08-1.68a7.14,7.14,0,0,0,.86-.56l.52.85c-.27.17-.57.32-.92.5a39.79,39.79,0,0,0-3.65,2c-1.11.72-1.78,1.52-1.78,2.43s.94,1.62,2.84,1.62a17.86,17.86,0,0,0,3.84-.41V147a24.29,24.29,0,0,1-3.79.3c-2.26,0-3.89-.68-3.89-2.47,0-1.24.79-2.21,2.08-3.11a37.2,37.2,0,0,1-1.74-3.7l.94-.39A25.64,25.64,0,0,0,310.64,141.23Z"/><path class="cls-5" d="M322.34,147.37l-.56-.89a8.16,8.16,0,0,0,1-.15,3.63,3.63,0,0,0,3.05-3.56,3.35,3.35,0,0,0-3.21-3.48,22.29,22.29,0,0,1-.72,3.45c-.73,2.47-1.68,3.73-2.79,3.73s-2.14-1.22-2.14-3.2a5.12,5.12,0,0,1,5.24-4.88,4.35,4.35,0,0,1,4.6,4.41C326.84,145.32,325.18,147,322.34,147.37Zm-3.17-2c.57,0,1.2-.8,1.82-2.83a19.57,19.57,0,0,0,.67-3.24,4.18,4.18,0,0,0-3.72,3.89C317.94,144.7,318.63,145.37,319.17,145.37Z"/></g><g class="cls-4"><path class="cls-5" d="M338.22,142.07a8.49,8.49,0,0,1-2,3,10.35,10.35,0,0,0,4.83,2,3.7,3.7,0,0,0-.58.84,10.59,10.59,0,0,1-4.95-2.18,12.85,12.85,0,0,1-4.91,2.23,3.37,3.37,0,0,0-.57-.84,11.71,11.71,0,0,0,4.83-2,9.52,9.52,0,0,1-1.88-3l.86-.26a7.69,7.69,0,0,0,1.7,2.64,7.32,7.32,0,0,0,1.7-2.7Zm-3.91-2a12.78,12.78,0,0,1-3.33,3,4.93,4.93,0,0,0-.73-.71,9.9,9.9,0,0,0,3.16-2.62Zm6.48-.72H330.35v-.86h4.75V137H336v1.57h4.81Zm-3.1.33a18.2,18.2,0,0,1,3.21,2.65l-.78.61a17.6,17.6,0,0,0-3.14-2.72Z"/><path class="cls-5" d="M344.43,143.27v3.61c0,.49-.1.73-.4.88a3.9,3.9,0,0,1-1.49.15,3.77,3.77,0,0,0-.26-.81c.51,0,1,0,1.12,0s.21,0,.21-.22v-3.35l-1.43.47-.23-.86c.46-.12,1-.3,1.66-.49v-2.46h-1.5v-.82h1.5V137h.82v2.4h1.29v.46a6.93,6.93,0,0,0,2-2.87l.84.13c-.11.27-.23.53-.36.79h2l.13,0,.57.37a10.55,10.55,0,0,1-.87,1.57h2.39v3.9h-.78v-1.21h-1.11c-.71,0-.88-.16-.88-.83v-1.13h-.83a2.34,2.34,0,0,1-1.45,2.3,1.66,1.66,0,0,0-.39-.49v1.38h-.76v-3.31c-.07.07-.16.13-.23.19a2.39,2.39,0,0,0-.39-.39h-1.22v2.2l1.19-.38.12.83Zm5.49,1.63a4.09,4.09,0,0,0,3.19,2.24,2.76,2.76,0,0,0-.54.74,4.59,4.59,0,0,1-3.31-2.55c-.5,1.27-1.5,2.11-3.64,2.61a2.24,2.24,0,0,0-.44-.69c2.06-.42,3-1.16,3.37-2.35H345.6v-.75h3.15c.06-.33.1-.69.13-1.07h.82c0,.38-.07.73-.13,1.07h3.36v.75Zm-2.09-6.3a7.75,7.75,0,0,1-.91,1.18h2.29a10.9,10.9,0,0,0,.63-1.18Zm-.8,3.71a1.83,1.83,0,0,0,1.17-1.8H347Zm4.66-1.8h-1.31v1.13c0,.19,0,.21.28.21h.79c.17,0,.22,0,.24-.08Z"/><path class="cls-5" d="M364.48,140.7a9.44,9.44,0,0,1-2.74,4.86,9.54,9.54,0,0,0,3.43,1.51,4.38,4.38,0,0,0-.62.83,9.92,9.92,0,0,1-3.58-1.7,11.3,11.3,0,0,1-3.66,1.72,4.51,4.51,0,0,0-.5-.78,10.09,10.09,0,0,0,3.46-1.54,11.34,11.34,0,0,1-2.65-4.24,9.58,9.58,0,0,1-2.95,6.34A3.22,3.22,0,0,0,354,147c2.55-2.37,2.75-5.35,2.75-7.47v-1h-2.11v-.86h6.58l.15-.05.69.12c-.17.82-.41,1.84-.68,2.81h2.31l.15-.05Zm-6.79-1.8A11.6,11.6,0,0,0,361,145a8.3,8.3,0,0,0,2.35-3.67h-2.16c-.06.21-.12.42-.18.61l-.9-.12c.29-1,.62-2.36.85-3.35h-3.29Z"/></g><g class="cls-4"><path class="cls-5" d="M376.69,143.4l-.64.85a9.61,9.61,0,0,1-1.62-2.38c.25,3-.66,5.92-4,5.92a2.92,2.92,0,0,1-3.25-3,7.77,7.77,0,0,1,2.22-5.15c-.6.1-1.6.22-2,.26-.23,0-.43.06-.67.11l-.07-1a3.41,3.41,0,0,0,.64,0,17.75,17.75,0,0,0,3.78-.59l.29.83a5.93,5.93,0,0,0-.63.22,7.23,7.23,0,0,0-2.6,5.12,2.09,2.09,0,0,0,2.34,2.27c2.77,0,3.78-2.88,3-7.34-.09-.28-.19-.58-.27-.88l.94-.27A8.44,8.44,0,0,0,376.69,143.4Zm-.68-4.08-.62.24a16,16,0,0,0-.8-1.71l.6-.2C375.43,138.09,375.81,138.83,376,139.32Zm1.25-.46-.62.22a11.79,11.79,0,0,0-.82-1.67l.59-.23C376.67,137.62,377,138.35,377.26,138.86Z"/></g><g class="cls-4"><path class="cls-5" d="M381.61,137.26a19,19,0,0,1-1.21,2.54v8.1h-.88v-6.73a12.44,12.44,0,0,1-1.18,1.44,6.28,6.28,0,0,0-.51-.84,13.44,13.44,0,0,0,3-4.76Zm5.68,9.69c.74,0,.86-.32,1-1.74a2.58,2.58,0,0,0,.83.37c-.15,1.65-.43,2.18-1.75,2.18H384.2c-1.43,0-1.85-.34-1.85-1.65v-3.9l-1.16.46-.35-.78,1.51-.59v-3.15h.88V141l1.75-.69V137h.85v3l1.86-.72.12-.11L388,139l.61.25,0,.16a36.48,36.48,0,0,1-.14,4.39.93.93,0,0,1-.72.87,4.83,4.83,0,0,1-1.21.09,2.73,2.73,0,0,0-.22-.84c.33,0,.76,0,.91,0s.34-.05.41-.36a23.81,23.81,0,0,0,.13-3.45l-1.87.73v4.4H385V141.2l-1.75.69v4.22c0,.69.15.84,1,.84Z"/><path class="cls-5" d="M398.53,142.18a7.27,7.27,0,0,0,2.58,1.91,2.43,2.43,0,0,0-.59.73,7.16,7.16,0,0,1-1.82-1.24,2.19,2.19,0,0,1,0,.28c-.15,2.4-.34,3.34-.66,3.69a1.06,1.06,0,0,1-.8.34c-.31,0-.95,0-1.6,0a1.85,1.85,0,0,0-.27-.83c.63.06,1.26.06,1.48.06a.57.57,0,0,0,.45-.12c.21-.22.35-.94.48-2.71h-2.46c-.34,1.76-1.18,3-3.68,3.66a3.11,3.11,0,0,0-.51-.75c2.25-.51,3-1.52,3.27-2.91h-2.06v-.58a8.82,8.82,0,0,1-1.73,1.15,4,4,0,0,0-.57-.69,8,8,0,0,0,2.59-2h-2.35v-.83h3A10.65,10.65,0,0,0,394,140h-3v-.8h1.76a7.61,7.61,0,0,0-1-1.72l.76-.28a7.88,7.88,0,0,1,1.1,1.79l-.5.21h1.22A13.86,13.86,0,0,0,395,137l.91.17a19.27,19.27,0,0,1-.6,2.08h2.35l-.43-.16a10.93,10.93,0,0,0,1.12-1.89l.88.3a16.1,16.1,0,0,1-1.16,1.75h2.12v.8h-3a9.42,9.42,0,0,0,.75,1.35h3v.83Zm.06,1.29a8.23,8.23,0,0,1-1.13-1.29h-3.72a8.9,8.9,0,0,1-1.16,1.29ZM395,140a13.26,13.26,0,0,1-.7,1.35h2.64a11.23,11.23,0,0,1-.66-1.35Z"/></g><g class="cls-4"><path class="cls-5" d="M406.52,141.23c1.13-.68,2.42-1.32,3.08-1.68a7.14,7.14,0,0,0,.86-.56l.52.85c-.27.17-.57.32-.92.5a39.79,39.79,0,0,0-3.65,2c-1.11.72-1.78,1.52-1.78,2.43s.94,1.62,2.84,1.62a17.86,17.86,0,0,0,3.84-.41V147a24.29,24.29,0,0,1-3.79.3c-2.26,0-3.89-.68-3.89-2.47,0-1.24.79-2.21,2.08-3.11a37.2,37.2,0,0,1-1.74-3.7l.94-.39A25.64,25.64,0,0,0,406.52,141.23Z"/><path class="cls-5" d="M418.22,147.37l-.56-.89a8.16,8.16,0,0,0,1-.15,3.63,3.63,0,0,0,3.05-3.56,3.35,3.35,0,0,0-3.21-3.48,22.29,22.29,0,0,1-.72,3.45c-.73,2.47-1.68,3.73-2.79,3.73s-2.14-1.22-2.14-3.2a5.12,5.12,0,0,1,5.24-4.88,4.35,4.35,0,0,1,4.6,4.41C422.72,145.32,421.06,147,418.22,147.37Zm-3.17-2c.57,0,1.2-.8,1.82-2.83a19.57,19.57,0,0,0,.67-3.24,4.18,4.18,0,0,0-3.72,3.89C413.82,144.7,414.51,145.37,415.05,145.37Z"/></g><g class="cls-4"><path class="cls-5" d="M429.62,137.25a16.66,16.66,0,0,1-1.22,2.47v8.16h-.84V141a13.62,13.62,0,0,1-1.33,1.59,6.13,6.13,0,0,0-.51-.87,13.19,13.19,0,0,0,3.07-4.72Zm7.37,6.34h-2v4.31h-.87v-4.31h-2.19a5.57,5.57,0,0,1-2.35,4.42,3.37,3.37,0,0,0-.61-.65,4.57,4.57,0,0,0,2.1-3.77h-2v-.86h2v-2.41h-1.71v-.84h7.33v.84H435v2.41h2Zm-5.61-4.15a8.4,8.4,0,0,0-1-2.12l.75-.3a7.9,7.9,0,0,1,1.08,2.06Zm2.73,3.29v-2.41H432v2.41Zm1.78-5.47a23.63,23.63,0,0,1-1.31,2.18l-.71-.3a13.69,13.69,0,0,0,1.1-2.2Z"/><path class="cls-5" d="M448.05,146.71c0,.58-.16.84-.54,1a8.1,8.1,0,0,1-2.23.14,3.67,3.67,0,0,0-.3-.86c.84,0,1.65,0,1.87,0s.32-.08.32-.31v-2.43H444v3.53h-.89v-3.53h-3a6.88,6.88,0,0,1-1.5,3.71,2.69,2.69,0,0,0-.68-.58c1.32-1.49,1.44-3.6,1.44-5.27v-4.32h8.73Zm-5-3.3v-2h-2.87v.71c0,.4,0,.84,0,1.28Zm-2.87-4.74v1.91h2.87v-1.91Zm7,0H444v1.91h3.22Zm0,4.74v-2H444v2Z"/></g><g class="cls-4"><path class="cls-5" d="M452.3,138.65a29.78,29.78,0,0,0-.6,4.84,11.69,11.69,0,0,0,.12,1.66c.19-.54.48-1.27.69-1.76l.49.38c-.29.84-.73,2.07-.85,2.65a2.09,2.09,0,0,0,0,.54c0,.12,0,.29,0,.42l-.84.06a14.51,14.51,0,0,1-.45-3.79,35.26,35.26,0,0,1,.55-5.05,6.35,6.35,0,0,0,.07-.85l1.06.09A5.67,5.67,0,0,0,452.3,138.65Zm6.06-.17c0,.33,0,.89,0,1.46a20.54,20.54,0,0,0,2.08-.28v.92c-.66.11-1.36.18-2.08.23,0,1.21.1,2.41.15,3.42a7.67,7.67,0,0,1,2.37,1.55l-.53.8a10.07,10.07,0,0,0-1.81-1.39v.25c0,1-.45,1.93-2.07,1.93s-2.5-.63-2.5-1.71.9-1.81,2.47-1.81a5.69,5.69,0,0,1,1.12.1c0-.92-.11-2.1-.12-3.08l-1.15,0c-.69,0-1.31,0-2-.09v-.9c.69.06,1.32.1,2,.1.37,0,.76,0,1.13,0V138.5a6.13,6.13,0,0,0,0-.74h1.08C458.4,138,458.37,138.25,458.36,138.48Zm-2.1,8c1,0,1.31-.52,1.31-1.31,0-.12,0-.26,0-.42a4.16,4.16,0,0,0-1.23-.19c-.9,0-1.53.38-1.53,1S455.4,146.51,456.26,146.51Z"/><path class="cls-5" d="M463,139.05c.78-.09,3-.31,5.26-.49,1.3-.11,2.43-.18,3.23-.22v1a10,10,0,0,0-2.35.19,4.22,4.22,0,0,0-2.74,3.8c0,2.34,2.18,3.09,4.14,3.16l-.35,1c-2.22-.08-4.75-1.27-4.75-3.94a4.89,4.89,0,0,1,2.24-4.06c-1.28.15-4.34.44-5.64.71l-.1-1C462.43,139.1,462.82,139.07,463,139.05Zm7.75,3.39-.61.29a11.14,11.14,0,0,0-1-1.69l.61-.26A14.86,14.86,0,0,1,470.79,142.44Zm1.37-.51-.63.3a10.35,10.35,0,0,0-1-1.68l.58-.28A16.49,16.49,0,0,1,472.16,141.93Z"/><path class="cls-5" d="M477.66,137.56l1-.13a8.58,8.58,0,0,0,.28,1.43,13.39,13.39,0,0,0,2.46-.54l.13.86a17.84,17.84,0,0,1-2.36.48c.09.3.18.58.27.83s.18.48.27.72a13.06,13.06,0,0,0,2.4-.52l.14.9a17.67,17.67,0,0,1-2.17.43,13.37,13.37,0,0,0,.84,1.49,4.41,4.41,0,0,0,.45.52l-.49.73a23.28,23.28,0,0,0-2.63-.39l.08-.73,1.8.21a12.59,12.59,0,0,1-.93-1.73,35.49,35.49,0,0,1-5.28,0l-.05-.9a26.22,26.22,0,0,0,5,.06c-.08-.21-.17-.42-.24-.62l-.33-.94a27.76,27.76,0,0,1-4.12-.08l-.06-.88a23.88,23.88,0,0,0,4,.15c0-.1-.06-.21-.09-.3C477.9,138.27,477.78,137.9,477.66,137.56Zm-2.53,7.62c0,1,.88,1.48,2.77,1.48a13.55,13.55,0,0,0,2.85-.25l0,1a18.49,18.49,0,0,1-2.81.21c-2.35,0-3.67-.7-3.68-2.24a3.34,3.34,0,0,1,.47-1.71l.93.19A2.31,2.31,0,0,0,475.13,145.18Z"/><path class="cls-5" d="M489.49,138.28c0,.16,0,.42,0,.73a29.79,29.79,0,0,0,3.25-.32l0,.87c-.94.11-2.08.22-3.23.28v1.68a32.32,32.32,0,0,0,3.34-.32v.89c-1.13.15-2.18.24-3.32.28,0,.62.06,1.27.08,1.85a9.34,9.34,0,0,1,3.5,1.87l-.55.85a8.68,8.68,0,0,0-2.9-1.81c0,.3,0,.55,0,.74,0,.83-.55,1.68-2.11,1.68-1.72,0-2.66-.61-2.66-1.76s1-1.84,2.77-1.84a6.56,6.56,0,0,1,1,.08c0-.54,0-1.12,0-1.64h-.68c-.82,0-2.14-.07-3-.16v-.9a22.73,22.73,0,0,0,3,.22h.65v-1.67h-.53c-.84,0-2.32-.12-3.07-.21v-.89a20.85,20.85,0,0,0,3.07.27h.55v-.85a5.31,5.31,0,0,0,0-.72h1A5,5,0,0,0,489.49,138.28Zm-2.06,8.43c.68,0,1.27-.21,1.27-1,0-.21,0-.49,0-.8a4.91,4.91,0,0,0-1.16-.12c-1.14,0-1.76.44-1.76,1S486.24,146.71,487.43,146.71Z"/><path class="cls-5" d="M502.52,138.62c0,.55,0,1.15,0,1.68l1.33-.09.93-.06v.94h-.95c-.35,0-.81,0-1.34.07a17.36,17.36,0,0,1-.17,2.51c-.1.52-.37.68-.92.68a11.77,11.77,0,0,1-1.58-.17l0-.83a5.93,5.93,0,0,0,1.2.16c.29,0,.42,0,.46-.32s.1-1.22.13-2c-1.24.1-2.64.24-3.84.36,0,1.23,0,2.48,0,2.95,0,1.29.06,1.75,2.14,1.75a22.07,22.07,0,0,0,3.56-.29l0,1c-.8.09-2.27.19-3.48.19-2.77,0-3-.63-3.09-2.54,0-.51,0-1.79,0-3l-1.29.15-1.21.17-.11-1a11.08,11.08,0,0,0,1.25-.07l1.36-.12c0-.8,0-1.46,0-1.67a8.89,8.89,0,0,0-.07-1h1c0,.28-.05.6-.05,1s0,1,0,1.62l3.85-.35v-1.72a6.27,6.27,0,0,0-.06-.9h1A7.75,7.75,0,0,0,502.52,138.62Z"/><path class="cls-5" d="M511.1,138.69c-.53.83-1.63,2.82-2.25,4a2.61,2.61,0,0,1,1.78-.74,1.36,1.36,0,0,1,1.41,1.45c0,.71,0,1.63,0,2.22a.87.87,0,0,0,1,.85c1.33,0,2.12-1.66,2.43-2.93l.79.65c-.63,1.93-1.64,3.27-3.38,3.27a1.56,1.56,0,0,1-1.74-1.52c0-.7,0-1.62-.05-2.28a.8.8,0,0,0-.87-.84c-1,0-1.87,1-2.34,1.92a18.49,18.49,0,0,0-1,2.74l-1-.36a83.55,83.55,0,0,1,4.15-8.51,10,10,0,0,0,.44-.92l1.06.43C511.38,138.25,511.25,138.46,511.1,138.69Z"/></g><g class="cls-4"><path class="cls-5" d="M277.3,155.48l-4,4,4,4-.35.35-3.95-4-4,4-.35-.35,4-4-4-4,.35-.34,4,4,3.95-4Zm-7.72,4.86a.9.9,0,1,1,.9-.9A.91.91,0,0,1,269.58,160.34ZM272.1,156a.9.9,0,1,1,.9.9A.9.9,0,0,1,272.1,156Zm1.8,6.84a.9.9,0,1,1-.9-.9A.91.91,0,0,1,273.9,162.86Zm2.52-4.32a.9.9,0,1,1-.9.9A.9.9,0,0,1,276.42,158.54Z"/></g><g class="cls-4"><path class="cls-5" d="M283.58,160.91a10.23,10.23,0,0,1-.85,3,2.94,2.94,0,0,0-.69-.33,9,9,0,0,0,.78-2.86Zm1.41-1v5h-.81V160l-1.95.1-.07-.8.79,0c.26-.31.54-.68.8-1.06a10.42,10.42,0,0,0-1.57-1.73l.46-.58.36.31a16.65,16.65,0,0,0,1.06-2.23l.79.3a20.09,20.09,0,0,1-1.36,2.41,9.87,9.87,0,0,1,.73.83,24.35,24.35,0,0,0,1.28-2.18l.77.34a42,42,0,0,1-2.48,3.57l1.92-.09a11.74,11.74,0,0,0-.59-1.06l.66-.29a10.59,10.59,0,0,1,1.19,2.43l-.71.34a4.2,4.2,0,0,0-.23-.68Zm1.2,3.31a12.17,12.17,0,0,0-.77-2.33l.67-.22a10,10,0,0,1,.8,2.31Zm5.06-9.29a10.12,10.12,0,0,0,2.12,4.28,4.33,4.33,0,0,0-.7.72l-.22-.27a1.67,1.67,0,0,1,0,.32c-.16,3.71-.32,5-.68,5.44a1,1,0,0,1-.77.38,11.84,11.84,0,0,1-1.32,0,2,2,0,0,0-.25-.82c.52.05,1,.05,1.2.05s.3,0,.4-.16c.26-.27.42-1.42.54-4.47H289.6c-.19,2.51-.68,4.44-3,5.48a2.18,2.18,0,0,0-.51-.63c2.05-.92,2.47-2.64,2.61-4.85h-1.46v-.81h5.1a13.7,13.7,0,0,1-2-4.42Zm-2.05.22A10.05,10.05,0,0,1,287,158.9a5.71,5.71,0,0,0-.75-.58A8.13,8.13,0,0,0,288.3,154Z"/><path class="cls-5" d="M300.45,160.21a6.36,6.36,0,0,0,4.84,3.89,3.7,3.7,0,0,0-.6.81,7,7,0,0,1-5-4.33c-.55,1.72-1.87,3.29-4.93,4.34a2.77,2.77,0,0,0-.55-.76c2.89-1,4.11-2.4,4.62-3.95h-4.48v-.89h4.68a10.18,10.18,0,0,0,.12-1.65V157h-2.69a10.1,10.1,0,0,1-1.17,1.88,5.54,5.54,0,0,0-.87-.47,10.47,10.47,0,0,0,2.1-4.22l.94.21a14.42,14.42,0,0,1-.6,1.71h2.29V154h.91v2.09H304V157h-3.91v.72a11.42,11.42,0,0,1-.1,1.65h5v.89Z"/></g><g class="cls-4"><path class="cls-5" d="M310.65,156.34a11.53,11.53,0,0,0,1.89-.45l0,.9a16.69,16.69,0,0,1-2.18.45,21.39,21.39,0,0,1-2.62,5.06l-.92-.48a18.21,18.21,0,0,0,2.57-4.49c-.36,0-.72,0-1.07,0s-.95,0-1.4,0l-.06-.9a11.11,11.11,0,0,0,1.46.09c.43,0,.89,0,1.35-.06a10.51,10.51,0,0,0,.38-2.08l1.05.1C311,154.91,310.85,155.64,310.65,156.34Zm3.29,3.14c0,.44.06,1.22.08,2a8.48,8.48,0,0,1,2.5,1.48l-.52.82a8.54,8.54,0,0,0-1.94-1.38c0,.19,0,.36,0,.5,0,1-.61,1.74-2.1,1.74-1.32,0-2.4-.54-2.4-1.73s1.05-1.79,2.4-1.79a5,5,0,0,1,1.18.12c0-1-.11-2.17-.13-3H314C313.93,158.67,313.93,159.05,313.94,159.48Zm-2.09,4.27c1,0,1.33-.53,1.33-1.19,0-.15,0-.34,0-.54a4.11,4.11,0,0,0-1.23-.18c-.88,0-1.48.41-1.48,1S310.92,163.75,311.85,163.75Zm1.75-6.9.5-.73a17.12,17.12,0,0,1,2.79,1.6l-.54.79A14.06,14.06,0,0,0,313.6,156.85Z"/><path class="cls-5" d="M322.3,158.39c1.06-.64,2.15-1.17,2.81-1.54a7,7,0,0,0,.85-.56l.48.87c-.26.16-.56.32-.91.5a34.54,34.54,0,0,0-3.32,1.83c-1.12.72-1.79,1.51-1.79,2.42s.95,1.62,2.84,1.62a17.79,17.79,0,0,0,3.84-.41v1.07a22,22,0,0,1-3.79.3c-2.25,0-3.87-.67-3.87-2.47,0-1.25.78-2.22,2.07-3.1-.55-1-1.19-2.4-1.75-3.7l.95-.39A29,29,0,0,0,322.3,158.39Zm5.33-2-.65.29a13.48,13.48,0,0,0-1-1.67l.65-.27A16.69,16.69,0,0,1,327.63,156.36Zm1.34-.5-.63.28a13.24,13.24,0,0,0-1-1.65l.64-.26A12.75,12.75,0,0,1,329,155.86Z"/><path class="cls-5" d="M331.44,155.78a27.84,27.84,0,0,0-.6,4.6,13.54,13.54,0,0,0,.11,1.68c.2-.54.49-1.26.69-1.75l.51.38a23,23,0,0,0-.86,2.69,2.78,2.78,0,0,0-.06.54c0,.13,0,.3,0,.42l-.86.06a15.09,15.09,0,0,1-.45-3.85,34.1,34.1,0,0,1,.54-4.81,5.13,5.13,0,0,0,.09-.86l1.06.1C331.59,155.18,331.49,155.57,331.44,155.78Zm2.79,6.11c0,.55.4,1.08,2,1.08a13.53,13.53,0,0,0,3-.31l0,1a15.66,15.66,0,0,1-3,.26c-2,0-2.91-.68-2.91-1.8a6.56,6.56,0,0,1,.2-1.42l.86.09A4.16,4.16,0,0,0,334.23,161.89Zm4.65-6v1a27.06,27.06,0,0,1-4.93,0v-1A20.32,20.32,0,0,0,338.88,155.89Z"/><path class="cls-5" d="M345.87,155.77c0,.33,0,.76,0,1.23.95,0,2.47-.09,3.55-.22l0,.9c-1.07.11-2.6.18-3.59.19v.1c0,.79.06,1.95.12,3a9.44,9.44,0,0,1,3.73,2l-.57.92a8.61,8.61,0,0,0-3.12-2c0,.32,0,.59,0,.81,0,1-.6,1.82-2.19,1.82S341,164,341,162.66c0-1.08.95-2,3-2a6.81,6.81,0,0,1,1,.07c0-1-.09-2.07-.09-2.79s0-1.68,0-2.2a6.18,6.18,0,0,0-.09-1.19H346C345.92,154.84,345.88,155.41,345.87,155.77Zm-2.11,7.88c.88,0,1.31-.41,1.31-1.23,0-.2,0-.46,0-.77a5.83,5.83,0,0,0-1.18-.12c-1.23,0-1.94.43-1.94,1.09S342.61,163.65,343.76,163.65Z"/><path class="cls-5" d="M353.41,155.21c.62,0,3.48-.1,4.11-.16a3.12,3.12,0,0,0,.65-.09l.55.69c-.21.16-.45.31-.67.49-.6.46-2.23,1.85-3.16,2.63a5.07,5.07,0,0,1,1.66-.25c2,0,3.42,1.2,3.42,2.82,0,1.93-1.58,3.18-4.12,3.18-1.64,0-2.63-.71-2.63-1.71a1.69,1.69,0,0,1,1.85-1.56,2.32,2.32,0,0,1,2.44,2.13,2.12,2.12,0,0,0,1.5-2c0-1.18-1.13-2.07-2.69-2.07-2,0-3.07.85-4.59,2.4l-.68-.71c1-.81,2.53-2.1,3.22-2.68s2.18-1.81,2.79-2.35l-3.67.16c-.27,0-.54,0-.79.08l0-1A6.33,6.33,0,0,0,353.41,155.21Zm2.28,8.47a5.86,5.86,0,0,0,1-.08,1.65,1.65,0,0,0-1.61-1.63.88.88,0,0,0-1,.77C354.09,163.32,354.75,163.68,355.69,163.68Z"/></g><g class="cls-4"><path class="cls-5" d="M376.83,162h-1.45v1.8c0,.54-.13.81-.52.95a7.34,7.34,0,0,1-2.08.16,3.63,3.63,0,0,0-.33-.86c.79,0,1.56,0,1.76,0s.29-.06.29-.25V162h-6.37V165h-.87V162h-1.42v-.82h1.42v-4.53h3.57v-1.15h-4.54v-.84h10.1v.84h-4.67v1.15h3.66v4.53h1.45Zm-8.7-4.53V159h2.7V157.5Zm0,3.71h2.7v-1.48h-2.7Zm3.59-3.71V159h2.78V157.5Zm2.78,3.71v-1.48h-2.78v1.48Z"/><path class="cls-5" d="M385.22,159v1.78h2.84v.83h-2.84v1.93c0,.37.07.44.48.44h1.37c.37,0,.43-.24.48-1.52a2.34,2.34,0,0,0,.8.37c-.08,1.53-.34,1.95-1.21,1.95h-1.57c-1,0-1.27-.27-1.27-1.25v-1.92h-2.16c-.19,1.28-.9,2.51-3.25,3.32a3.78,3.78,0,0,0-.57-.71c2-.67,2.69-1.62,2.91-2.61h-2.67v-.83h2.76V159h-1.26v-.46a9.33,9.33,0,0,1-1.78,1,5,5,0,0,0-.56-.67,8,8,0,0,0,2.44-1.56,14.25,14.25,0,0,0-1.44-1.26l.55-.46a14.77,14.77,0,0,1,1.45,1.17,8.56,8.56,0,0,0,1.12-1.58h-3v-.79h3.42l.16,0,.58.29a8.32,8.32,0,0,1-2.49,3.48h5.64a10.38,10.38,0,0,1-2.68-4l.77-.23a8.54,8.54,0,0,0,.76,1.51,15.52,15.52,0,0,0,1.47-1.43l.67.48a14.52,14.52,0,0,1-1.76,1.51,8.73,8.73,0,0,0,.78.93,14.68,14.68,0,0,0,1.71-1.55l.68.48a21.3,21.3,0,0,1-1.89,1.55,7.83,7.83,0,0,0,2.25,1.39,3.69,3.69,0,0,0-.62.74,7.52,7.52,0,0,1-1.71-1V159Zm-.92,0h-2.09v1.78h2.09Z"/><path class="cls-5" d="M393.86,156.83a15.4,15.4,0,0,1-1.32,1.81V165h-.89v-5.33a13.88,13.88,0,0,1-1.35,1.25,8.11,8.11,0,0,0-.62-.74,13.15,13.15,0,0,0,3.35-3.61Zm-.47-2.53a14.65,14.65,0,0,1-3.07,3c-.13-.19-.37-.54-.52-.71a12,12,0,0,0,2.74-2.6Zm7.36,4.52h-1.82v5c0,.55-.13.83-.52,1a8.58,8.58,0,0,1-2.26.14,2.79,2.79,0,0,0-.29-.87c.86,0,1.65,0,1.88,0s.3-.06.3-.26v-4.94h-4V158h6.72Zm-.35-3.29h-5.86v-.84h5.86Z"/></g><g class="cls-4"><path class="cls-5" d="M404.18,155.65a29.78,29.78,0,0,0-.6,4.84,11.69,11.69,0,0,0,.12,1.66c.19-.54.48-1.27.69-1.76l.49.38c-.29.84-.73,2.07-.85,2.65a2.09,2.09,0,0,0,0,.54c0,.12,0,.29,0,.42l-.84.06a14.51,14.51,0,0,1-.45-3.79,35.26,35.26,0,0,1,.55-5.05c0-.27.07-.6.07-.85l1.06.09A5.67,5.67,0,0,0,404.18,155.65Zm6.06-.17c0,.33,0,.89,0,1.46a20.54,20.54,0,0,0,2.08-.28v.92c-.66.11-1.36.18-2.08.23,0,1.21.1,2.41.15,3.42a7.67,7.67,0,0,1,2.37,1.55l-.53.8a10.07,10.07,0,0,0-1.81-1.39v.25c0,1-.45,1.93-2.07,1.93s-2.5-.63-2.5-1.71.9-1.81,2.47-1.81a5.69,5.69,0,0,1,1.12.1c0-.92-.11-2.1-.12-3.08l-1.15,0c-.69,0-1.31,0-2-.09v-.9c.69.06,1.32.1,2,.1.37,0,.76,0,1.13,0V155.5a6.13,6.13,0,0,0,0-.74h1.08C410.28,155,410.25,155.25,410.24,155.48Zm-2.1,8c1,0,1.31-.52,1.31-1.31,0-.12,0-.26,0-.42a4.16,4.16,0,0,0-1.23-.19c-.9,0-1.53.38-1.53,1S407.28,163.51,408.14,163.51Z"/><path class="cls-5" d="M415.7,156.79c0,.76,0,1.85.09,2.84.19,2,.78,3.34,1.63,3.34.61,0,1.17-1.25,1.48-2.45l.76.85c-.72,2-1.45,2.74-2.25,2.74-1.14,0-2.24-1.13-2.56-4.24-.11-1-.13-2.5-.13-3.2a4.94,4.94,0,0,0-.09-1.07l1.17,0A8.78,8.78,0,0,0,415.7,156.79Zm8.46,5.13-1,.4a12.19,12.19,0,0,0-2.09-6l.94-.33A13,13,0,0,1,424.16,161.92Z"/><path class="cls-5" d="M429.43,155.52c-.05.25-.11.56-.18.89a18.7,18.7,0,0,0,2.3-.43v.94a21.55,21.55,0,0,1-2.49.41c-.11.53-.24,1.08-.39,1.61a36,36,0,0,1-1.87,5.49l-1.05-.36a25.81,25.81,0,0,0,2-5.36c.11-.39.22-.85.31-1.28l-1.1,0c-.53,0-1,0-1.39,0l0-.94a11.2,11.2,0,0,0,1.44.08c.4,0,.83,0,1.3-.06.08-.42.14-.8.18-1a4.3,4.3,0,0,0,0-1l1.15.1C429.57,154.83,429.48,155.28,429.43,155.52Zm1.43,6.69c0,.57.31,1.12,2,1.12a12,12,0,0,0,2.34-.24l0,1a15.42,15.42,0,0,1-2.32.17c-1.89,0-2.93-.58-2.93-1.77a8,8,0,0,1,.18-1.41l.9.08A4.63,4.63,0,0,0,430.86,162.21Zm2.11-4.1a19.75,19.75,0,0,1,2.07.11l0,.91a15.89,15.89,0,0,0-2-.14,18.52,18.52,0,0,0-2.23.12v-.89C431.41,158.16,432.2,158.11,433,158.11Z"/><path class="cls-5" d="M439.14,155.87c-.06,1.35-.15,4.18-.15,6,0,1.32.83,1.79,2,1.79a5,5,0,0,0,4.29-2.48l.69.81a6,6,0,0,1-5,2.65c-1.72,0-2.91-.72-2.91-2.67,0-1.78.12-4.81.12-6.07a5.62,5.62,0,0,0-.1-1.22h1.22A9.71,9.71,0,0,0,439.14,155.87Z"/><path class="cls-5" d="M452.71,155.28c0,.16,0,.42,0,.73a29.79,29.79,0,0,0,3.25-.32l0,.87c-.94.11-2.08.22-3.23.28v1.68a32.32,32.32,0,0,0,3.34-.32v.89c-1.13.15-2.18.24-3.32.28,0,.62.06,1.27.08,1.85a9.34,9.34,0,0,1,3.5,1.87l-.55.85a8.68,8.68,0,0,0-2.9-1.81c0,.3,0,.55,0,.74,0,.83-.55,1.68-2.11,1.68-1.72,0-2.66-.61-2.66-1.76s1-1.84,2.77-1.84a6.66,6.66,0,0,1,1,.08c0-.54,0-1.12-.05-1.64h-.68c-.82,0-2.14-.07-3-.16v-.9a22.73,22.73,0,0,0,3,.22h.65v-1.67h-.53c-.84,0-2.32-.12-3.07-.21v-.89a20.85,20.85,0,0,0,3.07.27h.55v-.85a5.31,5.31,0,0,0-.05-.72h1A5,5,0,0,0,452.71,155.28Zm-2.06,8.43c.68,0,1.27-.21,1.27-1,0-.21,0-.49,0-.8a4.91,4.91,0,0,0-1.16-.12c-1.14,0-1.76.44-1.76,1S449.46,163.71,450.65,163.71Z"/><path class="cls-5" d="M465.74,155.62c0,.55,0,1.15,0,1.68l1.34-.09.93-.06v.94h-1c-.36,0-.81,0-1.34.07a17.36,17.36,0,0,1-.17,2.51c-.1.52-.37.68-.92.68a11.77,11.77,0,0,1-1.58-.17l0-.83a5.93,5.93,0,0,0,1.2.16c.29,0,.42,0,.46-.32s.1-1.22.13-2c-1.24.1-2.64.24-3.84.36,0,1.23,0,2.48,0,2.95,0,1.29.06,1.75,2.13,1.75a22.1,22.1,0,0,0,3.57-.29l0,1c-.8.09-2.27.19-3.48.19-2.77,0-3-.63-3.09-2.54,0-.51,0-1.79,0-3l-1.29.15-1.21.17-.11-1a11.08,11.08,0,0,0,1.25-.07l1.36-.12c0-.8,0-1.46,0-1.67a8.89,8.89,0,0,0-.07-1h1c0,.28-.05.6-.05,1s0,1,0,1.62l3.85-.35v-1.72a6.27,6.27,0,0,0-.06-.9h1A7.75,7.75,0,0,0,465.74,155.62Z"/><path class="cls-5" d="M474.32,155.69c-.53.83-1.63,2.82-2.25,4a2.61,2.61,0,0,1,1.78-.74,1.36,1.36,0,0,1,1.41,1.45c0,.71,0,1.63,0,2.22a.87.87,0,0,0,1,.85c1.33,0,2.12-1.66,2.43-2.93l.79.65c-.63,1.93-1.64,3.27-3.38,3.27a1.56,1.56,0,0,1-1.74-1.52c0-.7,0-1.62-.05-2.28a.8.8,0,0,0-.87-.84c-1,0-1.87,1-2.34,1.92a18.49,18.49,0,0,0-1,2.74l-1-.36a83.55,83.55,0,0,1,4.15-8.51c.14-.27.29-.57.44-.92l1.06.43C474.6,155.25,474.46,155.46,474.32,155.69Z"/></g><g class="cls-4"><path class="cls-5" d="M277.3,172.48l-4,4,4,4-.35.35-3.95-4-4,4-.35-.35,4-4-4-4,.35-.34,4,4,3.95-4Zm-7.72,4.86a.9.9,0,1,1,.9-.9A.91.91,0,0,1,269.58,177.34ZM272.1,173a.9.9,0,1,1,.9.9A.9.9,0,0,1,272.1,173Zm1.8,6.84a.9.9,0,1,1-.9-.9A.91.91,0,0,1,273.9,179.86Zm2.52-4.32a.9.9,0,1,1-.9.9A.9.9,0,0,1,276.42,175.54Z"/></g><g class="cls-4"><path class="cls-5" d="M289.58,176v1.78h2.84v.83h-2.84v1.93c0,.37.07.44.48.44h1.37c.37,0,.43-.24.48-1.52a2.34,2.34,0,0,0,.8.37c-.08,1.53-.34,1.95-1.21,1.95h-1.57c-1,0-1.27-.27-1.27-1.25v-1.92H286.5c-.19,1.28-.9,2.51-3.25,3.32a3.78,3.78,0,0,0-.57-.71c2-.67,2.69-1.62,2.91-2.61h-2.67v-.83h2.76V176h-1.26v-.46a9.33,9.33,0,0,1-1.78,1,5,5,0,0,0-.56-.67,8.13,8.13,0,0,0,2.44-1.56,14.25,14.25,0,0,0-1.44-1.26l.55-.46a14.77,14.77,0,0,1,1.45,1.17,8.56,8.56,0,0,0,1.12-1.58h-3v-.79h3.42l.16,0,.58.29a8.32,8.32,0,0,1-2.49,3.48h5.64a10.38,10.38,0,0,1-2.68-4l.77-.23a8.54,8.54,0,0,0,.76,1.51,15.52,15.52,0,0,0,1.47-1.43l.67.48a14.52,14.52,0,0,1-1.76,1.51,8.73,8.73,0,0,0,.78.93,14.68,14.68,0,0,0,1.71-1.55l.68.48a21.3,21.3,0,0,1-1.89,1.55,7.83,7.83,0,0,0,2.25,1.39,3.69,3.69,0,0,0-.62.74,7.52,7.52,0,0,1-1.71-1V176Zm-.92,0h-2.09v1.78h2.09Z"/><path class="cls-5" d="M298.22,173.83a15.4,15.4,0,0,1-1.32,1.81V182H296v-5.33a13.88,13.88,0,0,1-1.35,1.25,8.11,8.11,0,0,0-.62-.74,13.15,13.15,0,0,0,3.35-3.61Zm-.47-2.53a14.65,14.65,0,0,1-3.07,3c-.13-.19-.37-.54-.52-.71a12,12,0,0,0,2.74-2.6Zm7.36,4.52h-1.82v5c0,.55-.13.83-.52,1a8.58,8.58,0,0,1-2.26.14,2.79,2.79,0,0,0-.29-.87c.86,0,1.65,0,1.88,0s.29-.06.29-.26v-4.94h-4V175h6.72Zm-.35-3.29h-5.85v-.84h5.85Z"/><path class="cls-5" d="M317.07,172.51v.85h-9v2.24c0,1.83-.17,4.51-1.19,6.32a3.63,3.63,0,0,0-.75-.5,12.41,12.41,0,0,0,1.07-5.82v-3.09h4.4V171h.91v1.54ZM312.88,175h4v.8h-4v1.72h3.22v4.34h-.9v-.44H310v.46h-.88v-4.36H312v-3.95h.9Zm2.32,3.31H310v2.3h5.18Z"/></g><g class="cls-4"><path class="cls-5" d="M323.89,181.37l-.57-.89a8.07,8.07,0,0,0,1-.15,3.62,3.62,0,0,0,3-3.56,3.34,3.34,0,0,0-3.2-3.48,23.53,23.53,0,0,1-.72,3.45c-.73,2.47-1.68,3.73-2.79,3.73s-2.14-1.22-2.14-3.2a5.12,5.12,0,0,1,5.24-4.88,4.35,4.35,0,0,1,4.6,4.41C328.39,179.32,326.73,181,323.89,181.37Zm-3.17-2c.57,0,1.2-.8,1.81-2.83a20.65,20.65,0,0,0,.68-3.24,4.18,4.18,0,0,0-3.72,3.89C319.49,178.7,320.18,179.37,320.72,179.37Z"/><path class="cls-5" d="M332.78,172.25c.64,0,2.21-.09,2.71-.13a2.24,2.24,0,0,0,.6-.13l.6.49c-.11.14-.21.26-.31.4-.34.54-.86,1.76-1.37,2.88a10.58,10.58,0,0,1,3.3,1c.05-.3.07-.6.1-.89s0-.77,0-1.1l1,.1a17,17,0,0,1-.25,2.32c.57.32,1.06.65,1.45.92l-.45,1a11.83,11.83,0,0,0-1.24-1,5.68,5.68,0,0,1-3.16,3.56l-.79-.66a5.12,5.12,0,0,0,3.14-3.38,8.51,8.51,0,0,0-3.43-1.11,24.66,24.66,0,0,1-1.51,3.15,1.68,1.68,0,0,1-1.51.82,1.52,1.52,0,0,1-1.56-1.64c0-1.76,1.63-3.12,4-3.18.41-.94.87-2,1.24-2.73-.48,0-1.94.08-2.49.12-.27,0-.6,0-.89.07l-.05-1C332.19,172.23,332.54,172.25,332.78,172.25Zm-1.11,7.35a.89.89,0,0,0,.72-.42,16.36,16.36,0,0,0,1.3-2.62c-1.75.13-2.74,1.19-2.74,2.22A.73.73,0,0,0,331.67,179.6Z"/><path class="cls-5" d="M343.21,178.9c0,.92.92,1.55,2.84,1.55a14.91,14.91,0,0,0,4.1-.47l0,1a16.92,16.92,0,0,1-4.09.42c-2.44,0-3.85-.8-3.85-2.31a6.75,6.75,0,0,1,.25-1.67l1,.1A4.09,4.09,0,0,0,343.21,178.9Zm2.93-6c1.15,0,2.37-.08,3.24-.17v1c-.82.06-2.13.15-3.23.15s-2.23,0-3.18-.14v-1A28.79,28.79,0,0,0,346.14,172.86Zm4.55.16-.64.3a11.83,11.83,0,0,0-1-1.67l.65-.28A17.93,17.93,0,0,1,350.69,173Zm1.36-.49-.66.29a10.21,10.21,0,0,0-1-1.65l.64-.28A18.31,18.31,0,0,1,352.05,172.53Z"/></g><g class="cls-4"><path class="cls-5" d="M357.69,174.56H360v.82h-2.29v.87c.54.42,1.91,1.6,2.26,1.91l-.52.73c-.36-.4-1.12-1.16-1.74-1.73v4.73h-.86v-5.17a12.72,12.72,0,0,1-2.28,3.54,5.32,5.32,0,0,0-.49-.83,12.54,12.54,0,0,0,2.59-4.05h-2.33v-.82h2.51v-2c-.78.15-1.57.27-2.31.37a2.63,2.63,0,0,0-.28-.7,23.15,23.15,0,0,0,4.95-1.17l.66.69a14.46,14.46,0,0,1-2.16.63Zm4,4.39h-.86v-6.56h.86Zm3-7.75v9.52c0,.62-.17.89-.54,1.05a8.31,8.31,0,0,1-2.16.15,3.49,3.49,0,0,0-.32-.9c.84,0,1.59,0,1.82,0s.31-.08.31-.3V171.2Z"/><path class="cls-5" d="M376.29,180.71c0,.58-.16.84-.54,1a8.1,8.1,0,0,1-2.23.14,3.67,3.67,0,0,0-.3-.86c.84,0,1.66,0,1.87,0s.32-.08.32-.31v-2.43h-3.22v3.53h-.89v-3.53h-3a6.88,6.88,0,0,1-1.5,3.71,2.69,2.69,0,0,0-.68-.58c1.32-1.49,1.44-3.6,1.44-5.27v-4.32h8.73Zm-5-3.3v-2h-2.87v.71c0,.4,0,.84,0,1.28Zm-2.87-4.74v1.91h2.87v-1.91Zm7,0h-3.22v1.91h3.22Zm0,4.74v-2h-3.22v2Z"/><path class="cls-5" d="M381,172.58v7.84c0,.54-.14.8-.5.94a5.28,5.28,0,0,1-1.87.17,3.45,3.45,0,0,0-.28-.88c.68,0,1.33,0,1.52,0s.25-.06.25-.25v-7.83H378.2v-.84h4.25v.84Zm4.12,7.76a11.25,11.25,0,0,1-3,1.56,6.56,6.56,0,0,0-.57-.64,9,9,0,0,0,2.82-1.41Zm-.11-6.88c.1-.36.2-.79.28-1.17h-2.64v-.76h6.5v.76h-2.85c-.12.4-.27.81-.4,1.17h2.82v6.18H383v-6.18Zm2.85.69h-4v1.15h4Zm0,1.79h-4v1.17h4Zm0,1.83h-4V179h4ZM387,179.9a14.56,14.56,0,0,1,2.4,1.5l-.7.54a14.85,14.85,0,0,0-2.36-1.56Z"/></g><g class="cls-4"><path class="cls-5" d="M392.49,172.6a15.94,15.94,0,0,0-.33,6.34c.17-.51.42-1.24.65-1.84l.51.31c-.29.84-.65,2.07-.78,2.65a1.82,1.82,0,0,0-.06.54c0,.12,0,.29,0,.41l-.82.1a13.37,13.37,0,0,1-.63-3.8,33.13,33.13,0,0,1,.45-4.79,4.72,4.72,0,0,0,.06-.8l1.12.11Zm6.24-.25c0,.27,0,1.07,0,1.81a14.73,14.73,0,0,0,2-.27v1c-.55.09-1.23.16-1.94.21v.42c0,2.75,0,4.71-2.55,6.21l-.87-.69a3.82,3.82,0,0,0,1.16-.74c1.28-1.13,1.36-2.48,1.36-4.78v-.38c-.52,0-1,0-1.53,0s-1.42,0-1.94-.07v-1a14.07,14.07,0,0,0,1.93.13c.49,0,1,0,1.51,0,0-.75-.05-1.55-.07-1.85a5.27,5.27,0,0,0-.11-.72h1.12A4.9,4.9,0,0,0,398.73,172.35Z"/><path class="cls-5" d="M407.86,172.28c0,.16,0,.42,0,.73a29.79,29.79,0,0,0,3.25-.32v.87c-.95.11-2.09.22-3.24.28v1.68a32.25,32.25,0,0,0,3.35-.32v.89c-1.13.15-2.19.24-3.33.28,0,.62.06,1.27.09,1.85a9.43,9.43,0,0,1,3.5,1.87l-.55.85a8.78,8.78,0,0,0-2.9-1.81c0,.3,0,.55,0,.74,0,.83-.55,1.68-2.11,1.68-1.73,0-2.66-.61-2.66-1.76s1-1.84,2.77-1.84a6.66,6.66,0,0,1,1,.08c0-.54,0-1.12,0-1.64h-.69c-.81,0-2.13-.07-3-.16v-.9a22.85,22.85,0,0,0,3,.22H407v-1.67h-.53c-.83,0-2.31-.12-3.07-.21v-.89a21,21,0,0,0,3.07.27H407v-.85c0-.21,0-.55,0-.72h1A6.27,6.27,0,0,0,407.86,172.28Zm-2.06,8.43c.68,0,1.27-.21,1.27-1,0-.21,0-.49,0-.8a5,5,0,0,0-1.16-.12c-1.14,0-1.77.44-1.77,1S404.61,180.71,405.8,180.71Z"/><path class="cls-5" d="M419.28,172.26c0,.18,0,.45,0,.78H423v.89c-.67,0-1.77-.06-3.52-.06h-.17c0,.68,0,1.42,0,2a3,3,0,0,1,.38,1.54c0,1.62-.79,3.42-3.58,4.26l-.81-.79a4.16,4.16,0,0,0,3.18-2.13,1.66,1.66,0,0,1-1,.33,1.91,1.91,0,0,1-2-2,2.09,2.09,0,0,1,2.11-2.08,2.59,2.59,0,0,1,.81.13c0-.36,0-.79,0-1.21-1.82,0-3.86.09-5.36.2l0-.92c1.33,0,3.58-.1,5.37-.12,0-.34,0-.63,0-.79,0-.31-.06-.66-.08-.76h1.1C419.31,171.63,419.29,172.1,419.28,172.26Zm-1.71,6c.71,0,1.17-.56,1.06-1.7a1.08,1.08,0,0,0-1.07-.76,1.22,1.22,0,0,0-1.21,1.27A1.15,1.15,0,0,0,417.57,178.23Z"/></g><g class="cls-4"><path class="cls-5" d="M277.3,189.48l-4,4,4,4-.35.35-3.95-4-4,4-.35-.35,4-4-4-4,.35-.34,4,4,3.95-4Zm-7.72,4.86a.9.9,0,1,1,.9-.9A.91.91,0,0,1,269.58,194.34ZM272.1,190a.9.9,0,1,1,.9.9A.9.9,0,0,1,272.1,190Zm1.8,6.84a.9.9,0,1,1-.9-.9A.91.91,0,0,1,273.9,196.86Zm2.52-4.32a.9.9,0,1,1-.9.9A.9.9,0,0,1,276.42,192.54Z"/><path class="cls-5" d="M290.38,190.5a14.8,14.8,0,0,1-2,3.52,34,34,0,0,1,3.5,3.58l-.84.72a27.24,27.24,0,0,0-3.3-3.56,15,15,0,0,1-4.68,3.5l-.76-.8a13.68,13.68,0,0,0,4.94-3.56,10.7,10.7,0,0,0,2-3.34h-4.68c-.42,0-1.08.05-1.21.06v-1.09a11.81,11.81,0,0,0,1.21.07h4.63a3.3,3.3,0,0,0,.9-.09l.61.47A3.42,3.42,0,0,0,290.38,190.5Z"/><path class="cls-5" d="M297.81,189.52a2.67,2.67,0,0,1-.25.43h3.25a2.43,2.43,0,0,0,.79-.12l.79.48a4.71,4.71,0,0,0-.28.65,12.29,12.29,0,0,1-1.87,3.73c.5.37,1,.74,1.36,1.06l-.7.82c-.36-.32-.82-.69-1.31-1.09a11.47,11.47,0,0,1-4.57,3.05l-.86-.75a10.47,10.47,0,0,0,4.64-2.89c-.87-.62-1.78-1.24-2.55-1.72l.65-.66c.79.45,1.69,1,2.53,1.62a10,10,0,0,0,1.63-3.33H297a13.13,13.13,0,0,1-3.18,3.18l-.8-.62a11,11,0,0,0,3.85-4.18,4.09,4.09,0,0,0,.38-.94l1.09.34C298.15,188.9,297.93,189.3,297.81,189.52Z"/><path class="cls-5" d="M308.78,195.49a11.33,11.33,0,0,0,4-4.41l.57,1a11.94,11.94,0,0,1-4,4.27,13.22,13.22,0,0,1-4.71,1.86l-.64-1A12.33,12.33,0,0,0,308.78,195.49Zm-.71-3.8-.75.76a24.26,24.26,0,0,0-3-2.51l.68-.73A25.25,25.25,0,0,1,308.07,191.69Z"/><path class="cls-5" d="M323,188a1.37,1.37,0,0,1,1.35,1.36,1.35,1.35,0,0,1-1.35,1.34,1.39,1.39,0,0,1-.46-.07.69.69,0,0,1,0,.13,11.86,11.86,0,0,1-1.79,4.43,9.07,9.07,0,0,1-4.73,3.2l-.81-.9a8,8,0,0,0,4.68-2.88,9,9,0,0,0,1.57-3.91H315.3c-.48,0-.89,0-1.2,0V189.7a9,9,0,0,0,1.2.08h6.4a1.59,1.59,0,0,1-.06-.38A1.36,1.36,0,0,1,323,188Zm0,2.15a.8.8,0,0,0,.8-.79.81.81,0,0,0-.8-.81.8.8,0,0,0-.79.81A.79.79,0,0,0,323,190.18Z"/><path class="cls-5" d="M330,189.54c0,.44,0,.84-.06,1.24h2.86a4.07,4.07,0,0,0,.77-.06l.67.34a3.26,3.26,0,0,0-.06.58c0,1.15-.19,4.65-.73,5.8a1.26,1.26,0,0,1-1.29.73c-.61,0-1.31,0-1.93-.09l-.12-1a15.37,15.37,0,0,0,1.79.13.64.64,0,0,0,.69-.4c.46-.91.62-3.86.62-5.14h-3.36c-.43,3.44-1.68,5.26-3.68,6.64l-.88-.7a5.88,5.88,0,0,0,1.23-.89,7.69,7.69,0,0,0,2.38-5h-2a12.28,12.28,0,0,0-1.38,0v-1a12,12,0,0,0,1.36.07H329c0-.38.05-.79.05-1.22a7,7,0,0,0-.08-1h1.13C330.07,188.84,330,189.26,330,189.54Z"/><path class="cls-5" d="M338.22,192.87h6.57c.6,0,1,0,1.3-.06V194c-.24,0-.75-.06-1.29-.06h-6.58c-.66,0-1.3,0-1.67.06v-1.17C336.91,192.83,337.55,192.87,338.22,192.87Z"/><path class="cls-5" d="M349.49,190.12a7.88,7.88,0,0,0-.1-1.25h1.19a10.82,10.82,0,0,0-.09,1.25v2a41.63,41.63,0,0,1,5.13,2l-.42,1a31.48,31.48,0,0,0-4.71-1.92v3.95c0,.38,0,1,.08,1.42h-1.16a12.79,12.79,0,0,0,.08-1.42Zm5.3,1.06-.69.31a11.56,11.56,0,0,0-1.06-1.82l.66-.3A17.67,17.67,0,0,1,354.79,191.18Zm1.49-.64-.68.34a10.7,10.7,0,0,0-1.11-1.8l.66-.32A17.11,17.11,0,0,1,356.28,190.54Z"/><path class="cls-5" d="M362.94,198.37l-.57-.89a7.64,7.64,0,0,0,1-.15,3.62,3.62,0,0,0,3.05-3.56,3.34,3.34,0,0,0-3.2-3.48,23.53,23.53,0,0,1-.72,3.45c-.73,2.47-1.68,3.73-2.8,3.73s-2.13-1.22-2.13-3.2a5.11,5.11,0,0,1,5.24-4.88,4.34,4.34,0,0,1,4.59,4.41C367.43,196.32,365.78,198,362.94,198.37Zm-3.17-2c.56,0,1.2-.8,1.81-2.83a19.57,19.57,0,0,0,.67-3.24,4.18,4.18,0,0,0-3.71,3.89C358.54,195.7,359.23,196.37,359.77,196.37Z"/><path class="cls-5" d="M370.52,195.9c0,.92.93,1.55,2.85,1.55a15,15,0,0,0,4.1-.47v1a16.92,16.92,0,0,1-4.09.42c-2.43,0-3.85-.8-3.85-2.31a6.75,6.75,0,0,1,.25-1.67l1,.1A4.37,4.37,0,0,0,370.52,195.9Zm2.93-6c1.15,0,2.37-.08,3.24-.17v1c-.82.06-2.13.15-3.23.15s-2.23,0-3.18-.14v-1A28.92,28.92,0,0,0,373.45,189.86ZM378,190l-.65.3a12.79,12.79,0,0,0-1-1.67l.64-.28C377.32,188.8,377.75,189.54,378,190Zm1.35-.49-.66.29a10.92,10.92,0,0,0-1-1.65l.63-.28A16.28,16.28,0,0,1,379.36,189.53Z"/></g><g class="cls-4"><path class="cls-5" d="M393.33,191.56h2.29v.82h-2.29v.87c.54.42,1.91,1.6,2.26,1.91l-.52.73c-.36-.4-1.12-1.16-1.74-1.73v4.73h-.86v-5.17a12.72,12.72,0,0,1-2.28,3.54,5.32,5.32,0,0,0-.49-.83,12.54,12.54,0,0,0,2.59-4.05H390v-.82h2.51v-2c-.78.15-1.57.27-2.31.37a2.63,2.63,0,0,0-.28-.7,23.15,23.15,0,0,0,4.95-1.17l.66.69a14.46,14.46,0,0,1-2.16.63Zm4,4.39h-.86v-6.56h.86Zm2.95-7.75v9.52c0,.62-.17.89-.54,1.05a8.31,8.31,0,0,1-2.16.15,3.49,3.49,0,0,0-.32-.9c.84,0,1.59,0,1.82,0s.31-.08.31-.3V188.2Z"/><path class="cls-5" d="M411.93,197.71c0,.58-.16.84-.54,1a8.1,8.1,0,0,1-2.23.14,3.67,3.67,0,0,0-.3-.86c.84,0,1.65,0,1.87,0s.32-.08.32-.31v-2.43h-3.22v3.53h-.89v-3.53h-3a6.88,6.88,0,0,1-1.5,3.71,2.69,2.69,0,0,0-.68-.58c1.32-1.49,1.44-3.6,1.44-5.27v-4.32h8.73Zm-5-3.3v-2h-2.87v.71c0,.4,0,.84,0,1.28Zm-2.87-4.74v1.91h2.87v-1.91Zm7,0h-3.22v1.91h3.22Zm0,4.74v-2h-3.22v2Z"/></g><g class="cls-4"><path class="cls-5" d="M416.18,189.65a29.78,29.78,0,0,0-.6,4.84,11.69,11.69,0,0,0,.12,1.66c.19-.54.48-1.27.69-1.76l.49.38c-.29.84-.73,2.07-.85,2.65a2.09,2.09,0,0,0,0,.54c0,.12,0,.29,0,.42l-.84.06a14.51,14.51,0,0,1-.45-3.79,35.26,35.26,0,0,1,.55-5.05c0-.27.07-.6.07-.85l1.06.09A5.67,5.67,0,0,0,416.18,189.65Zm6.06-.17c0,.33,0,.89,0,1.46a20.54,20.54,0,0,0,2.08-.28v.92c-.66.11-1.36.18-2.08.23,0,1.21.1,2.41.15,3.42a7.67,7.67,0,0,1,2.37,1.55l-.53.8a10.07,10.07,0,0,0-1.81-1.39v.25c0,1-.45,1.93-2.07,1.93s-2.5-.63-2.5-1.71.9-1.81,2.47-1.81a5.69,5.69,0,0,1,1.12.1c0-.92-.11-2.1-.12-3.08l-1.15,0c-.69,0-1.31,0-2-.09v-.9c.69.06,1.32.1,2,.1.37,0,.76,0,1.13,0V189.5a6.13,6.13,0,0,0,0-.74h1.08C422.28,189,422.25,189.25,422.24,189.48Zm-2.1,8c1,0,1.31-.52,1.31-1.31,0-.12,0-.26,0-.42a4.16,4.16,0,0,0-1.23-.19c-.9,0-1.53.38-1.53,1S419.28,197.51,420.14,197.51Z"/><path class="cls-5" d="M425.84,196l.78-.69a21.87,21.87,0,0,1,2.69,2.67l-.82.69A18.6,18.6,0,0,0,425.84,196Z"/><path class="cls-5" d="M432.89,197.09h2.67v-6.57h-2v-.7a6.4,6.4,0,0,0,2.31-.64h.82v7.91h2.51V198h-6.27Z"/></g><g class="cls-4"><path class="cls-5" d="M460.3,188.46v10.45h-.95v-.65h-8.09v.65h-.9V188.46Zm-.95,9v-8.07h-8.09v8.07Zm-1.73-6.21v4.33H453v-4.33Zm-.88.81h-2.9v2.73h2.9Z"/></g><g class="cls-4"><path class="cls-5" d="M464.17,189.78a27.84,27.84,0,0,0-.6,4.6,13.54,13.54,0,0,0,.11,1.68c.2-.54.49-1.26.69-1.75l.51.38a22.74,22.74,0,0,0-.85,2.69,1.79,1.79,0,0,0-.06.54c0,.13,0,.3,0,.42l-.86.06a15.17,15.17,0,0,1-.44-3.85,34.32,34.32,0,0,1,.53-4.81,5.13,5.13,0,0,0,.09-.86l1.07.1C464.33,189.18,464.22,189.57,464.17,189.78Zm2.79,6.11c0,.55.4,1.08,2,1.08a13.69,13.69,0,0,0,3-.31l0,1a15.66,15.66,0,0,1-3,.26c-2,0-2.91-.68-2.91-1.8a6.56,6.56,0,0,1,.2-1.42l.86.09A4.16,4.16,0,0,0,467,195.89Zm4.65-6v1a27.06,27.06,0,0,1-4.93,0v-1A20.31,20.31,0,0,0,471.61,189.89Z"/><path class="cls-5" d="M474.72,191.39a19.24,19.24,0,0,1,5.12-1.19c2,0,3.57,1.16,3.57,3.17,0,2.87-2.86,4.26-6.56,4.46l-.43-1c3.14-.09,5.95-1,5.95-3.49a2.28,2.28,0,0,0-2.55-2.25c-2,0-5,1.31-6,1.69l-.44-1A10.37,10.37,0,0,0,474.72,191.39Z"/><path class="cls-5" d="M489.27,188.56l1-.13a9.8,9.8,0,0,0,.29,1.43,13.77,13.77,0,0,0,2.46-.54l.13.86a17.84,17.84,0,0,1-2.36.48c.08.3.18.58.26.83s.18.48.28.72a13.45,13.45,0,0,0,2.4-.52l.14.9a18.06,18.06,0,0,1-2.17.43,12,12,0,0,0,.84,1.49,3.57,3.57,0,0,0,.44.52l-.49.73a23,23,0,0,0-2.63-.39l.09-.73,1.8.21a13.85,13.85,0,0,1-.94-1.73,35.48,35.48,0,0,1-5.28,0l0-.9a26.12,26.12,0,0,0,5,.06l-.24-.62c-.12-.34-.22-.65-.32-.94a27.9,27.9,0,0,1-4.13-.08l-.05-.88a23.73,23.73,0,0,0,3.95.15c0-.1-.06-.21-.08-.3C489.51,189.27,489.39,188.9,489.27,188.56Zm-2.53,7.62c0,1,.89,1.48,2.77,1.48a13.65,13.65,0,0,0,2.86-.25l0,1a18.49,18.49,0,0,1-2.81.21c-2.35,0-3.67-.7-3.68-2.24a3.55,3.55,0,0,1,.47-1.71l.94.19A2.33,2.33,0,0,0,486.74,196.18Z"/><path class="cls-5" d="M496.2,197.09h2.67v-6.57h-2v-.7a6.4,6.4,0,0,0,2.31-.64H500v7.91h2.51V198H496.2Z"/></g><g class="cls-4"><path class="cls-5" d="M520.83,193.87h-1.08v4c0,.46-.08.73-.38.9a3.9,3.9,0,0,1-1.47.15,2.62,2.62,0,0,0-.28-.86c.47,0,.93,0,1.07,0s.2-.06.2-.22v-4h-1.83v4.91h-.84v-4.91h-1.78v4.91h-.83v-4.91h-1.72V199H511v-5.08h-1.16V193H511v-4.29h8.73V193h1.08Zm-7.22-.86v-3.43h-1.72V193Zm2.61,0v-3.43h-1.78V193Zm2.67,0v-3.43h-1.83V193Z"/><path class="cls-5" d="M526,188.8c-.37,1-.87,2.23-1.32,3.17a3.49,3.49,0,0,1,1.19,2.58,1.5,1.5,0,0,1-.5,1.37,1.48,1.48,0,0,1-.67.23,5.2,5.2,0,0,1-.89,0,2,2,0,0,0-.22-.82,3.5,3.5,0,0,0,.78,0,1.08,1.08,0,0,0,.42-.1,1,1,0,0,0,.27-.82,3.29,3.29,0,0,0-1.2-2.37c.39-.87.78-2,1.07-2.79h-1.76v9.62h-.84V188.48h2.94l.14,0Zm6.52,5.76a16.57,16.57,0,0,1-1.93,1.57,5.14,5.14,0,0,0,2.23,2,3,3,0,0,0-.59.74c-1.76-.9-2.85-2.76-3.43-5.1h-1.29v3.69l2.28-.45.06.76c-1.5.35-3.1.7-4.26,1l-.29-.86,1.35-.25v-9.14H532v5.29h-2.45a9.39,9.39,0,0,0,.66,1.73,15.5,15.5,0,0,0,1.6-1.44Zm-5-5.28v1.46h3.62v-1.46Zm0,3.71h3.62V191.5h-3.62Z"/></g><g class="cls-4"><path class="cls-5" d="M536.1,191.87c.49-1.22,1.74-2.72,3.26-2.72s2.73,1.59,2.73,4.11c0,3.34-2.08,4.8-5.06,5.34l-.56-.86c2.6-.39,4.64-1.45,4.64-4.47,0-1.89-.65-3.26-1.91-3.26-1.49,0-2.89,2.19-3,3.76a5.62,5.62,0,0,0,0,1.47l-.92.07a14.45,14.45,0,0,1-.13-1.9,32.56,32.56,0,0,1,.37-3.88c0-.36.07-.7.1-1l1,0A22.06,22.06,0,0,0,536.1,191.87Z"/><path class="cls-5" d="M548.27,192.23c1.12-.68,2.42-1.32,3.08-1.68a6.26,6.26,0,0,0,.85-.56l.53.85c-.28.17-.58.32-.93.5a39.78,39.78,0,0,0-3.64,2c-1.12.72-1.79,1.52-1.79,2.43s1,1.62,2.84,1.62a17.79,17.79,0,0,0,3.84-.41V198a24.29,24.29,0,0,1-3.79.3c-2.25,0-3.88-.68-3.88-2.47,0-1.24.79-2.21,2.07-3.11a39.59,39.59,0,0,1-1.74-3.7l.95-.39A25.64,25.64,0,0,0,548.27,192.23Z"/></g><g class="cls-4"><path class="cls-5" d="M275.24,205.56l1-.13a15.14,15.14,0,0,0,.55,2,15.06,15.06,0,0,0,2.68-.59l.1.94a18.77,18.77,0,0,1-2.48.49,12.86,12.86,0,0,0,1.34,2.47c.17.23.35.43.53.64l-.49.67a27.41,27.41,0,0,0-2.89-.33l.07-.8c.67.06,1.56.13,2,.18a16.78,16.78,0,0,1-1.45-2.73,30.45,30.45,0,0,1-5,0l0-1a25.28,25.28,0,0,0,4.74.15c-.15-.45-.27-.81-.35-1.08S275.35,205.87,275.24,205.56Zm-2.81,7.36c0,1.14,1.05,1.65,2.82,1.66a13.6,13.6,0,0,0,3.1-.3l-.05,1a17.63,17.63,0,0,1-3.1.26c-2.27,0-3.71-.84-3.71-2.47a4.75,4.75,0,0,1,.57-2l.94.22A3.07,3.07,0,0,0,272.43,212.92Z"/><path class="cls-5" d="M289.17,206.62c0,.55,0,1.15,0,1.68l1.33-.09.93-.06v.94h-.94c-.36,0-.82,0-1.35.07a17.52,17.52,0,0,1-.16,2.51c-.11.52-.38.68-.93.68a11.77,11.77,0,0,1-1.58-.17l0-.83a6,6,0,0,0,1.2.16c.29,0,.42,0,.46-.32s.11-1.22.13-2c-1.24.1-2.64.24-3.84.36,0,1.23,0,2.48,0,2.95,0,1.29.06,1.75,2.14,1.75a22.07,22.07,0,0,0,3.56-.29l0,1c-.8.09-2.26.19-3.48.19-2.77,0-3-.63-3.09-2.54,0-.51,0-1.79,0-3l-1.29.15L281,210l-.1-1a11,11,0,0,0,1.24-.07l1.36-.12c0-.8,0-1.46,0-1.67a7.09,7.09,0,0,0-.07-1h1c0,.28-.05.6-.05,1s0,1,0,1.62l3.85-.35v-1.72a6.27,6.27,0,0,0-.06-.9h1C289.2,206,289.18,206.37,289.17,206.62Z"/><path class="cls-5" d="M293.53,207c.78-.09,3.05-.31,5.25-.5,1.31-.11,2.44-.18,3.24-.21v1a10,10,0,0,0-2.35.19,4.21,4.21,0,0,0-2.74,3.79c0,2.35,2.18,3.09,4.13,3.17l-.35,1c-2.21-.08-4.74-1.27-4.74-3.94a4.88,4.88,0,0,1,2.24-4.06c-1.28.15-4.34.43-5.64.71l-.11-1Z"/></g><g class="cls-4"><path class="cls-5" d="M309,206.58v7.84c0,.54-.14.8-.5.94a5.28,5.28,0,0,1-1.87.17,3.45,3.45,0,0,0-.28-.88c.68,0,1.33,0,1.52,0s.25-.06.25-.25v-7.83H306.2v-.84h4.25v.84Zm4.12,7.76a11.25,11.25,0,0,1-3,1.56,6.56,6.56,0,0,0-.57-.64,9,9,0,0,0,2.82-1.41Zm-.11-6.88c.1-.36.2-.79.28-1.17h-2.64v-.76h6.5v.76h-2.85c-.12.4-.27.81-.4,1.17h2.82v6.18H311v-6.18Zm2.85.69h-4v1.15h4Zm0,1.79h-4v1.17h4Zm0,1.83h-4V213h4ZM315,213.9a14.56,14.56,0,0,1,2.4,1.5l-.7.54a14.85,14.85,0,0,0-2.36-1.56Z"/></g><g class="cls-4"><path class="cls-5" d="M322.81,205.56l1-.13a8.64,8.64,0,0,0,.29,1.43,13.47,13.47,0,0,0,2.45-.54l.14.86a18.35,18.35,0,0,1-2.37.48c.09.3.18.58.27.83s.18.48.27.72a13.06,13.06,0,0,0,2.4-.52l.15.9a18.06,18.06,0,0,1-2.17.43,10.8,10.8,0,0,0,.84,1.49,3.57,3.57,0,0,0,.44.52l-.49.73a23,23,0,0,0-2.63-.39l.08-.73,1.8.21a12.59,12.59,0,0,1-.93-1.73,35.49,35.49,0,0,1-5.28,0l0-.9a26.22,26.22,0,0,0,5,.06c-.08-.21-.17-.42-.24-.62s-.23-.65-.32-.94a27.88,27.88,0,0,1-4.13-.08l-.06-.88a23.88,23.88,0,0,0,4,.15c0-.1-.06-.21-.09-.3C323.05,206.27,322.93,205.9,322.81,205.56Zm-2.53,7.62c0,1,.89,1.48,2.77,1.48a13.55,13.55,0,0,0,2.85-.25l0,1a18.49,18.49,0,0,1-2.81.21c-2.35,0-3.67-.7-3.68-2.24a3.44,3.44,0,0,1,.47-1.71l.93.19A2.31,2.31,0,0,0,320.28,213.18Z"/><path class="cls-5" d="M334.64,206.28c0,.16,0,.42,0,.73a29.79,29.79,0,0,0,3.25-.32v.87c-.95.11-2.09.22-3.24.28v1.68a32.32,32.32,0,0,0,3.34-.32v.89a33.27,33.27,0,0,1-3.32.28c0,.62.06,1.27.08,1.85a9.48,9.48,0,0,1,3.51,1.87l-.56.85a8.68,8.68,0,0,0-2.9-1.81c0,.3,0,.55,0,.74,0,.83-.56,1.68-2.11,1.68-1.73,0-2.67-.61-2.67-1.76s1.05-1.84,2.77-1.84a6.56,6.56,0,0,1,1,.08c0-.54,0-1.12-.05-1.64h-.68c-.82,0-2.14-.07-3-.16v-.9a22.73,22.73,0,0,0,3,.22h.65v-1.67h-.53c-.84,0-2.31-.12-3.07-.21v-.89a21,21,0,0,0,3.07.27h.55v-.85a5.31,5.31,0,0,0-.05-.72h1A6.59,6.59,0,0,0,334.64,206.28Zm-2.06,8.43c.68,0,1.27-.21,1.27-1,0-.21,0-.49,0-.8a5.05,5.05,0,0,0-1.17-.12c-1.14,0-1.76.44-1.76,1S331.39,214.71,332.58,214.71Z"/><path class="cls-5" d="M346.05,206.26c0,.18,0,.45,0,.78h3.69v.89c-.67,0-1.76-.06-3.51-.06H346c0,.68,0,1.42,0,2a2.86,2.86,0,0,1,.39,1.54c0,1.62-.79,3.42-3.59,4.26l-.8-.79a4.18,4.18,0,0,0,3.18-2.13,1.69,1.69,0,0,1-1.05.33,1.91,1.91,0,0,1-2-2,2.09,2.09,0,0,1,2.11-2.08,2.48,2.48,0,0,1,.8.13c0-.36,0-.79,0-1.21-1.82,0-3.86.09-5.36.2l0-.92c1.33,0,3.59-.1,5.38-.12,0-.34,0-.63,0-.79,0-.31-.06-.66-.07-.76h1.09C346.09,205.63,346.06,206.1,346.05,206.26Zm-1.7,6c.71,0,1.16-.56,1-1.7a1.07,1.07,0,0,0-1.06-.76,1.22,1.22,0,0,0-1.21,1.27A1.15,1.15,0,0,0,344.35,212.23Z"/></g></g><path class="cls-5" d="M114.3,162.41c8.82-2,16.69-5.54,22.89-12.31.33.36.58.65.84.92,1.45,1.54,2.88,3.1,4.37,4.6a2.06,2.06,0,0,0,2.46.36,2.21,2.21,0,0,0,1.31-2.15,6.1,6.1,0,0,0-.46-2.31,17,17,0,0,0-4.27-5.81.69.69,0,0,1-.16-1c1.44-2.48,2.83-5,4.28-7.48.63-1.08,1.33-2.12,2-3.14a3,3,0,0,1,.79-.67c.75-.54.88-1,.26-1.73a9.86,9.86,0,0,0-1.88-1.66c-1.07-.69-2.22-1.26-3.34-1.87a1.08,1.08,0,0,0-1.33.09c-1.54,1.44-3.51,1.56-5.44,1.79-1.32.17-2.66.2-4,.28a6.1,6.1,0,0,1-.7-.06c.44-.63.77-1.18,1.17-1.67a6.56,6.56,0,0,1,2.46-2.33c.5-.2.54-.91.13-1.4a7.22,7.22,0,0,0-1.33-1.32,37.33,37.33,0,0,0-3.38-2c-1.44-.75-2.75-.21-4.16.58.29.16.46.27.64.36a1.84,1.84,0,0,1,1.11,2.68,38.52,38.52,0,0,1-3.67,7.49,42,42,0,0,1-6.51,8c-1,1-2.16,1.86-3.23,2.8a5.75,5.75,0,0,0-.62.75l.14.18c.41-.16.83-.3,1.22-.49a37.45,37.45,0,0,0,8-5.29c1.28-1.09,2.54-2.22,3.76-3.38.72-.68,1.33-1.47,2-2.18a1.08,1.08,0,0,1,.64-.37c1.76-.16,3.52-.28,5.29-.42,1.33-.11,2.66-.22,4-.36,1.08-.11,1.42.23,1.15,1.29a31.43,31.43,0,0,1-3.79,8.71,3.07,3.07,0,0,0-.23.39c-.22.43-.49.51-1,.32a33.87,33.87,0,0,0-8.31-2.48,1.72,1.72,0,0,0-.86.06l.74.46a30.26,30.26,0,0,1,6.39,4.94.73.73,0,0,1,.06,1.14A41.17,41.17,0,0,1,117.57,160c-1.08.5-2.2.9-3.29,1.36a.67.67,0,0,1-1-.35,16.25,16.25,0,0,1-2.12-6.47,14.13,14.13,0,0,1,2.51-9.37,4.75,4.75,0,0,0,.76-3,30.81,30.81,0,0,1,.07-4.32,68.19,68.19,0,0,1,1.11-8.15,21.26,21.26,0,0,1,3.85-9.32,19.92,19.92,0,0,1,12.89-7.2,18.45,18.45,0,0,1,11.88,2.52,17.48,17.48,0,0,1,6.71,6.59,22.32,22.32,0,0,1,2.65,7.69,72.33,72.33,0,0,1,1.28,8.39c.09,1.81.06,2.63,0,3.95a2,2,0,0,0,.55,1.45,14.44,14.44,0,0,1,3.37,8.19,14,14,0,0,1-.75,6.12,13.26,13.26,0,0,1-3.07,5.06,18.44,18.44,0,0,1-3.81,2.78,31,31,0,0,1-10.39,3.29,38,38,0,0,1-8.79.35,34.89,34.89,0,0,1-10.93-2.31,16.83,16.83,0,0,1-6.52-4.46Zm28.21-42.65a2.65,2.65,0,0,0,.14.31,42.86,42.86,0,0,1,3.15,6.46,8.46,8.46,0,0,0,1.52,2.29,2.16,2.16,0,0,0,2.9.26,2.93,2.93,0,0,0,1-3.66,8.89,8.89,0,0,0-2.8-3.34A9.22,9.22,0,0,0,142.51,119.76Z"/><path class="cls-5" d="M143.51,187.77h2.6v1.1a3.68,3.68,0,0,1,2.93-1.39,2.8,2.8,0,0,1,2.77,1.66,3.49,3.49,0,0,1,3-1.65,2.94,2.94,0,0,1,3.3,2.9c.13,2.45,0,4.91,0,7.43h-2.75v-1c0-1.79,0-3.59,0-5.38,0-1.05-.46-1.6-1.33-1.67a1.55,1.55,0,0,0-1.82,1.43,25.74,25.74,0,0,0-.11,2.78c0,1.25,0,2.5,0,3.82h-2.7v-2.68c0-1.28,0-2.55,0-3.83a1.34,1.34,0,0,0-1.41-1.5c-1,0-1.68.46-1.72,1.43-.05,1.36,0,2.73,0,4.09v2.5h-2.73Z"/><path class="cls-5" d="M114.43,191H112a3,3,0,0,1,2.15-3.19,7.07,7.07,0,0,1,5,.26,2.46,2.46,0,0,1,1.47,2.51c0,1.78,0,3.55,0,5.32,0,.58-.07,1.18.48,1.61,0,0,0,.2,0,.36-.93,0-1.83,0-2.72,0-.2,0-.35-.53-.56-.88l-.52.41a4,4,0,0,1-3.48.79,2.75,2.75,0,0,1-2.29-2.54,2.92,2.92,0,0,1,1.82-3.31,23.19,23.19,0,0,1,2.89-.62,3.59,3.59,0,0,0,1.06-.27.85.85,0,0,0,0-1.57A2,2,0,0,0,114.43,191Zm3.48,2.1-2.24.51a3,3,0,0,0-.78.28,1.22,1.22,0,0,0-.63,1.37,1.12,1.12,0,0,0,1.09,1,2.15,2.15,0,0,0,2.43-1.7A12.58,12.58,0,0,0,117.91,193.07Z"/><path class="cls-5" d="M160.6,191a3.15,3.15,0,0,1,2.35-3.23,7.18,7.18,0,0,1,4.75.25,2.26,2.26,0,0,1,1.54,2.19c0,1.92,0,3.85,0,5.77,0,.53-.05,1.09.45,1.49,0,0-.11.41-.17.41a15.53,15.53,0,0,1-2.46,0c-.21,0-.36-.54-.58-.88l-.45.37a3.94,3.94,0,0,1-3.52.83,2.75,2.75,0,0,1-2.31-2.67,2.86,2.86,0,0,1,1.7-3.12,23.43,23.43,0,0,1,3-.68,3.41,3.41,0,0,0,1-.24c.27-.17.59-.54.57-.79a1.21,1.21,0,0,0-.61-.85,2,2,0,0,0-2.68,1,.54.54,0,0,1-.4.23C162.1,191,161.37,191,160.6,191Zm6,2.11-1.59.37a10.19,10.19,0,0,0-1.23.35,1.25,1.25,0,0,0-.73,1.56,1.13,1.13,0,0,0,1.13.88,2.13,2.13,0,0,0,2.41-2C166.56,193.84,166.55,193.48,166.55,193.08Z"/><path class="cls-5" d="M100.26,198V187.53a2.64,2.64,0,0,1,.49-.08c1.55,0,3.11,0,4.66,0a4.06,4.06,0,0,1,4.22,3.53,7.25,7.25,0,0,1-.34,4.27,4,4,0,0,1-3.54,2.72c-1.66.1-3.32.05-5,.06C100.62,198.06,100.47,198,100.26,198Zm2.58-2.06h1.9a2.09,2.09,0,0,0,2.09-1.54,5.61,5.61,0,0,0,0-3.62,1.4,1.4,0,0,0-1.1-1.08c-.95-.13-1.91-.15-2.9-.22Z"/><path class="cls-5" d="M140.52,197.85h-2.58l-.07-1.09a.84.84,0,0,0-.23.14,4,4,0,0,1-4.46.94,2.73,2.73,0,0,1-1.78-2.57c-.1-2-.09-4-.11-6,0-1.54,0-1.54,1.52-1.54h1.26v.73c0,1.9,0,3.81,0,5.71a1.55,1.55,0,0,0,.82,1.57,1.85,1.85,0,0,0,2-.22,3.27,3.27,0,0,0,.79-1.41,6.13,6.13,0,0,0,.11-1.55c0-1.57,0-3.14,0-4.77h2.69Z"/><path class="cls-5" d="M129.28,190.15a14.07,14.07,0,0,0-1.44.14,1.82,1.82,0,0,0-1.67,1.91c-.08,1.72-.09,3.44-.13,5.17,0,.13,0,.26,0,.45h-2.58V187.76h2.47l.07,1.6c.83-1.34,1.81-2.07,3.3-1.84Z"/><path class="cls-5" d="M86.87,203.87h1.91v.51H87.41v.9H88.6v.5H87.41v1h1.37v.51H86.87Z"/><path class="cls-5" d="M91.88,203.87h.58l-1.35,3.41H90.6l-1.36-3.41h.59l1,2.43.07.23.07-.23Z"/><path class="cls-5" d="M93.07,203.87H95v.51H93.61v.9h1.2v.5h-1.2v1H95v.51H93.07Z"/><path class="cls-5" d="M95.74,203.87h1a1.16,1.16,0,0,1,.83.3.93.93,0,0,1,.32.75,1,1,0,0,1-.16.58,1,1,0,0,1-.46.36l.77,1.42H97.4L96.69,206h-.4v1.33h-.55Zm1,.51h-.44v1.08h.44a.63.63,0,0,0,.44-.14.51.51,0,0,0,.16-.4.5.5,0,0,0-.16-.39A.63.63,0,0,0,96.73,204.38Z"/><path class="cls-5" d="M98.65,203.87h.55v2.9h1.47v.51h-2Z"/><path class="cls-5" d="M102.38,203.87H103l1.35,3.41h-.6l-.33-.83H102l-.32.83H101Zm.35.87-.06-.19-.06.19-.48,1.22h1.09Z"/><path class="cls-5" d="M105.87,203.81a1,1,0,0,1,.74.26,1,1,0,0,1,.29.73h-.55a.5.5,0,0,0-.14-.37.48.48,0,0,0-.35-.13.43.43,0,0,0-.47.45.38.38,0,0,0,.14.31,2,2,0,0,0,.51.25,1.85,1.85,0,0,1,.75.42.82.82,0,0,1,.22.61.92.92,0,0,1-.31.74,1.12,1.12,0,0,1-.78.27,1.18,1.18,0,0,1-.85-.29,1.08,1.08,0,0,1-.31-.8h.55a.63.63,0,0,0,.16.45.64.64,0,0,0,.45.15.57.57,0,0,0,.4-.13.47.47,0,0,0,.14-.35.39.39,0,0,0-.15-.32,1.67,1.67,0,0,0-.52-.25,2,2,0,0,1-.72-.39.89.89,0,0,1-.23-.63,1,1,0,0,1,.28-.7A1,1,0,0,1,105.87,203.81Z"/><path class="cls-5" d="M107.41,203.87h2.87v.51h-1.16v2.9h-.55v-2.9h-1.16Z"/><path class="cls-5" d="M110.87,203.87h.55v3.41h-.55Z"/><path class="cls-5" d="M114.55,203.87h.55v3.41h-.54L113,205l-.13-.21v2.48h-.54v-3.41h.53l1.56,2.27.14.23Z"/><path class="cls-5" d="M117.51,203.81a1.67,1.67,0,0,1,1,.29,1.53,1.53,0,0,1,.54.82h-.6a.9.9,0,0,0-.94-.6,1,1,0,0,0-.81.36,1.28,1.28,0,0,0-.31.9,1.31,1.31,0,0,0,.31.9,1,1,0,0,0,.82.35,1.11,1.11,0,0,0,.71-.21.8.8,0,0,0,.27-.62h-.92v-.51h1.5v.26a1.58,1.58,0,0,1-.42,1.17,1.51,1.51,0,0,1-1.14.43,1.61,1.61,0,0,1-1.23-.51,1.75,1.75,0,0,1-.48-1.26,1.78,1.78,0,0,1,.48-1.27A1.62,1.62,0,0,1,117.51,203.81Z"/><path class="cls-5" d="M122.53,203.81a1.69,1.69,0,0,1,1,.29,1.53,1.53,0,0,1,.54.82h-.61a.89.89,0,0,0-.94-.6,1,1,0,0,0-.8.36,1.28,1.28,0,0,0-.31.9,1.31,1.31,0,0,0,.31.9,1,1,0,0,0,.82.35,1.06,1.06,0,0,0,.7-.21.78.78,0,0,0,.28-.62h-.92v-.51h1.5v.26a1.58,1.58,0,0,1-.42,1.17,1.51,1.51,0,0,1-1.14.43,1.61,1.61,0,0,1-1.23-.51,1.75,1.75,0,0,1-.48-1.26,1.78,1.78,0,0,1,.48-1.27A1.62,1.62,0,0,1,122.53,203.81Z"/><path class="cls-5" d="M126.46,203.81a1.67,1.67,0,0,1,1.25.5,1.88,1.88,0,0,1,0,2.53,1.64,1.64,0,0,1-1.25.51,1.69,1.69,0,0,1-1.27-.51,1.77,1.77,0,0,1,1.27-3Zm-1.19,1.76a1.29,1.29,0,0,0,.33.91,1.22,1.22,0,0,0,1.71,0,1.28,1.28,0,0,0,.32-.91,1.23,1.23,0,0,0-.32-.89,1.2,1.2,0,0,0-1.71,0A1.24,1.24,0,0,0,125.27,205.57Z"/><path class="cls-5" d="M130.55,203.81a1.67,1.67,0,0,1,1.25.5,1.85,1.85,0,0,1,0,2.53,1.64,1.64,0,0,1-1.25.51,1.69,1.69,0,0,1-1.27-.51,1.77,1.77,0,0,1,1.27-3Zm-1.19,1.76a1.29,1.29,0,0,0,.33.91,1.22,1.22,0,0,0,1.71,0,1.29,1.29,0,0,0,.33-.91,1.24,1.24,0,0,0-.33-.89,1.2,1.2,0,0,0-1.71,0A1.24,1.24,0,0,0,129.36,205.57Z"/><path class="cls-5" d="M133,203.87h1.25a1.71,1.71,0,0,1,1.27.48,1.67,1.67,0,0,1,.47,1.23,1.71,1.71,0,0,1-.47,1.24,1.74,1.74,0,0,1-1.27.46H133Zm1.25.51h-.7v2.39h.7a1.2,1.2,0,1,0,0-2.39Z"/><path class="cls-5" d="M137.6,203.87h2.87v.51H139.3v2.9h-.54v-2.9H137.6Z"/><path class="cls-5" d="M141.57,203.87h.59l1.35,3.41h-.6l-.33-.83h-1.44l-.32.83h-.6Zm.35.87-.06-.19-.06.19-.48,1.22h1.09Z"/><path class="cls-5" d="M145.06,203.81a1,1,0,0,1,.74.26,1,1,0,0,1,.29.73h-.55a.5.5,0,0,0-.14-.37.48.48,0,0,0-.35-.13.43.43,0,0,0-.47.45.38.38,0,0,0,.14.31,2,2,0,0,0,.51.25,1.85,1.85,0,0,1,.75.42.82.82,0,0,1,.22.61.92.92,0,0,1-.31.74,1.12,1.12,0,0,1-.78.27,1.18,1.18,0,0,1-.85-.29,1.08,1.08,0,0,1-.31-.8h.55a.63.63,0,0,0,.16.45.64.64,0,0,0,.45.15.57.57,0,0,0,.4-.13.47.47,0,0,0,.14-.35.39.39,0,0,0-.15-.32,1.67,1.67,0,0,0-.52-.25,2,2,0,0,1-.72-.39.89.89,0,0,1-.23-.63,1,1,0,0,1,.28-.7A1,1,0,0,1,145.06,203.81Z"/><path class="cls-5" d="M146.6,203.87h2.87v.51h-1.16v2.9h-.55v-2.9H146.6Z"/><path class="cls-5" d="M150.06,203.87H152v.51h-1.36v.9h1.19v.5h-1.19v1H152v.51h-1.91Z"/><path class="cls-5" d="M152.49,205.79H154v.46h-1.54Z"/><path class="cls-5" d="M154.68,203.87h.55v3.41h-.55Z"/><path class="cls-5" d="M158.37,203.87h.54v3.41h-.54L156.81,205l-.13-.21v2.48h-.55v-3.41h.54l1.55,2.27.15.23Z"/><path class="cls-5" d="M162,203.87h.58l1.35,3.41h-.6l-.33-.83H161.6l-.32.83h-.6Zm.35.87-.07-.19-.06.19-.47,1.22h1.08Z"/><path class="cls-5" d="M164.57,203.87h.54v2.9h1.48v.51h-2Z"/><path class="cls-5" d="M167.23,203.87h.55v2.9h1.48v.51h-2Z"/><path class="cls-5" d="M172.12,203.87h.59l1.34,3.41h-.59l-.33-.83h-1.44l-.32.83h-.6Zm.35.87-.06-.19-.07.19-.47,1.22H173Z"/><path class="cls-5" d="M176,203.81a1.69,1.69,0,0,1,1,.29,1.53,1.53,0,0,1,.54.82H177a.89.89,0,0,0-.94-.6,1,1,0,0,0-.8.36,1.28,1.28,0,0,0-.31.9,1.31,1.31,0,0,0,.31.9,1,1,0,0,0,.82.35,1.06,1.06,0,0,0,.7-.21A.78.78,0,0,0,177,206h-.92v-.51h1.5v.26a1.58,1.58,0,0,1-.42,1.17,1.51,1.51,0,0,1-1.14.43,1.61,1.61,0,0,1-1.23-.51,1.75,1.75,0,0,1-.48-1.26,1.78,1.78,0,0,1,.48-1.27A1.61,1.61,0,0,1,176,203.81Z"/><path class="cls-5" d="M178.38,203.87h1.91v.51h-1.37v.9h1.2v.5h-1.2v1h1.37v.51h-1.91Z"/><path class="cls-5" d="M182,203.81a1,1,0,0,1,.74.26,1,1,0,0,1,.29.73h-.55a.54.54,0,0,0-.14-.37.48.48,0,0,0-.35-.13.45.45,0,0,0-.34.12.42.42,0,0,0-.13.33.38.38,0,0,0,.14.31,2,2,0,0,0,.51.25,1.85,1.85,0,0,1,.75.42.82.82,0,0,1,.22.61.92.92,0,0,1-.31.74,1.13,1.13,0,0,1-.79.27,1.17,1.17,0,0,1-.84-.29,1.08,1.08,0,0,1-.31-.8h.55a.63.63,0,0,0,.16.45.64.64,0,0,0,.45.15.57.57,0,0,0,.4-.13.47.47,0,0,0,.14-.35.39.39,0,0,0-.15-.32,1.67,1.67,0,0,0-.52-.25,2,2,0,0,1-.72-.39.89.89,0,0,1-.23-.63,1,1,0,0,1,.28-.7A1,1,0,0,1,182,203.81Z"/><path class="cls-5" d="M118.85,180.82c.15.06.18.12.18.22s-.2.3-1.17.3h-.62c-.52,0-.64-.11-.64-.49v-2.68h-.94c-.09,1.68-.51,2.74-2.25,3.35l0-.08c1.39-.76,1.7-1.77,1.74-3.27H113.5l0-.17H118l.34-.43s.39.29.63.5a.15.15,0,0,1-.16.1h-1.71v2.56c0,.11,0,.15.25.15h.55a3.2,3.2,0,0,0,.51,0,.1.1,0,0,0,.12-.09,5.38,5.38,0,0,0,.23-1h.08Zm-4.72-4.14,0-.16h3.35l.33-.42s.38.28.61.49a.15.15,0,0,1-.16.09Z"/><path class="cls-5" d="M122,177.34s-.12.06-.27.07a4.68,4.68,0,0,1-.63.94c1.17.42.84,1.2.44.91a2.25,2.25,0,0,0-.48-.76v2.85a.44.44,0,0,1-.38.16h-.09v-2.63a6.37,6.37,0,0,1-1,.77l-.07-.06a6.61,6.61,0,0,0,1.7-2.27h-1.5l0-.18h.92V176l.67.07c0,.08-.07.14-.22.16v.93h.21l.29-.27Zm2.88,3.47s.26.26.4.44-.07.09-.15.09H121.5l0-.16h.79v-5l.51.22h1.31l.23-.31.57.44a.38.38,0,0,1-.27.11v4.49h.08Zm-2.2-4.19V178h1.42v-1.34Zm1.42,1.51H122.7v1.39h1.42Zm-1.42,3.05h1.42v-1.49H122.7Z"/><path class="cls-5" d="M126.32,177.3c.21.64.21,1.17,0,1.43s-.63,0-.31-.37a1.77,1.77,0,0,0,.26-1.06Zm1.81.19a.17.17,0,0,1-.23,0,5.84,5.84,0,0,1-.75.65,10.2,10.2,0,0,1-.1,1.19c1.35.61,1,1.56.51,1.19a2.49,2.49,0,0,0-.53-1,2.94,2.94,0,0,1-1.09,1.95l-.09-.1c1-1.08.85-2.72.85-5.33l.68.07a.22.22,0,0,1-.21.17c0,.62,0,1.19,0,1.7.15-.29.32-.66.4-.86Zm3.21,3.47c.13,0,.16.1.16.19s-.17.27-.87.27h-.43c-.42,0-.49-.11-.49-.41v-1.57h-.64c-.08.88-.29,1.6-1.95,2.08l-.07-.09c1.35-.55,1.48-1.22,1.52-2h-1l0-.18h.77v-.93h-.8l0-.17h.85v-.88l.63.07c0,.07-.06.12-.19.15v.66H130v-.88l.63.07c0,.07,0,.12-.19.15v.66h.3l.26-.36s.29.26.46.44c0,.06-.07.09-.15.09h-.87v.93h.26l.25-.36s.31.26.49.44a.14.14,0,0,1-.15.1h-1.18v1.47c0,.08,0,.1.16.1H131a.08.08,0,0,0,.09-.06,3.52,3.52,0,0,0,.18-.69h.08Zm-3.68-4.2h1.51V176l.69.07c0,.08-.07.14-.22.16v.51h1l.28-.36s.32.25.52.44a.15.15,0,0,1-.16.1h-1.59v.69c0,.05-.2.14-.38.14h-.09v-.83h-1.46Zm1.08,2.5H130v-.93h-1.3Z"/><path class="cls-5" d="M137.54,177.07a.53.53,0,0,1-.26.11v3.66c0,.37-.08.59-.75.66a.48.48,0,0,0-.16-.35,1.22,1.22,0,0,0-.58-.19v-.08l.86,0c.12,0,.15,0,.15-.13V177.1H135a3,3,0,0,1-.11.32c1.75.42,1.61,1.45,1.1,1.21a3.82,3.82,0,0,0-1.16-1.09,2.82,2.82,0,0,1-1.51,1.22l-.07-.09a2.46,2.46,0,0,0,1.26-1.57H133v4.22c0,.06-.19.18-.39.18h-.09v-4.81l.52.23h1.54a5.72,5.72,0,0,0,.08-.92l.69.07c0,.07-.06.13-.19.15a4.48,4.48,0,0,1-.09.7h1.67l.24-.29Zm-2.18,1.41c0,.06-.07.1-.21.1a3.38,3.38,0,0,1-.22.52c1.83.57,1.64,1.62,1.12,1.35a4.4,4.4,0,0,0-1.18-1.23,3,3,0,0,1-1.63,1.38l0-.09a3.16,3.16,0,0,0,1.47-2.22Z"/><path class="cls-5" d="M143.25,179.27a7.05,7.05,0,0,1,.57.48c0,.06-.07.09-.16.09h-1.34v1c0,.38-.08.59-.74.65a.47.47,0,0,0-.15-.33,1.23,1.23,0,0,0-.59-.18v-.09l.86.05c.12,0,.15,0,.15-.12v-1h-3.37l0-.17h3.42v-.48l.65.07V179h-2.76v.17s-.2.16-.39.16h-.08v-2.28l.51.21h1.07v-.51h-2.24l0-.18h2.28V176l.69.08c0,.08-.07.14-.22.16v.38h1.53l.3-.39s.35.28.56.47c0,.07-.08.1-.17.1h-2.22v.51h1.13l.23-.25.53.39a.41.41,0,0,1-.24.12v1.55s-.24.15-.39.15h-.05c0,.08-.08.12-.21.15v.26H143Zm-3.68.75c1.59.22,1.29,1.32.76,1a2.08,2.08,0,0,0-.81-1Zm.17-2.54v.6h1.11v-.6Zm0,1.38h1.11v-.61h-1.11Zm1.58-1.38v.6h1.18v-.6Zm1.18,1.38v-.61h-1.18v.61Z"/><path class="cls-5" d="M146.68,176.13l.5.39a.35.35,0,0,1-.22.1v1.89a.71.71,0,0,1-.39.13h-.07v-.33h-1.12v3c0,.07-.17.19-.39.19h-.09v-5.35l.5.23h1Zm-1.3.43v.69h1.12v-.69Zm1.12,1.58v-.72h-1.12v.72Zm3.52-1.61a.48.48,0,0,1-.25.12v4.19c0,.37-.09.6-.8.67a.49.49,0,0,0-.17-.35,1.53,1.53,0,0,0-.64-.2v-.08l1,.05c.13,0,.17,0,.17-.14v-2.48h-1.18v.16s-.2.14-.39.14h-.08v-2.43l.5.21h1.09l.23-.29Zm-1.91,0v.69h1.18v-.69Zm1.18,1.58v-.72h-1.18v.72Z"/><path class="cls-5" d="M155.72,176.43s.38.3.6.51c0,.07-.07.1-.16.1H151.9v1.29a4.05,4.05,0,0,1-1.05,3.17l-.08-.06a5.6,5.6,0,0,0,.66-3.1v-1.7l.55.23h1.5V176l.69.07c0,.08-.06.14-.22.16v.67h1.44Zm-.06,1.35s.36.29.58.49a.15.15,0,0,1-.16.09h-1.92v1.06h1l.22-.27.49.37a.29.29,0,0,1-.23.1v1.73s-.15.13-.39.13h-.08v-.4h-2.44v.3s-.14.13-.38.13h-.07V179.2l.52.22h.84v-2.2l.7.07c0,.09-.07.14-.22.17v.73h1.19Zm-2.89,1.81v1.32h2.44v-1.32Z"/><path class="cls-5" d="M156.92,118.09a9.44,9.44,0,0,0-4.63-2.33,12,12,0,0,0-2-.07,32.63,32.63,0,0,1,3.58,6.31c.75,1.79,1.63,2.76,2.62,2.9a2.18,2.18,0,0,0,1.83-.57,2.82,2.82,0,0,0,1-1.78Q159.57,120.35,156.92,118.09Z"/></svg>