<?xml version="1.0" encoding="utf-8"?>
<!-- Generator: Adobe Illustrator 23.1.0, SVG Export Plug-In . SVG Version: 6.00 Build 0)  -->
<svg version="1.1" id="Layer_1" xmlns="http://www.w3.org/2000/svg" xmlns:xlink="http://www.w3.org/1999/xlink" x="0px" y="0px"
	 viewBox="0 0 580 289" style="enable-background:new 0 0 580 289;" xml:space="preserve">
<style type="text/css">
	.st0{fill:#007BFF;}
	.st1{fill:#C73D13;}
	.st2{fill:#FFFFFF;}
</style>
<path class="st0" d="M0,0h580v289H0V0z"/>
<g>
	<g>
		<g>
			<path class="st1" d="M48.3,100.7h190c6.1,0,11,4.9,11,11v100.7c0,6.1-4.9,11-11,11h-190c-6.1,0-11-4.9-11-11V111.7
				C37.3,105.7,42.3,100.7,48.3,100.7z"/>
			<path class="st2" d="M122.6,163.7c8.8-2,16.7-5.5,22.9-12.3c0.3,0.4,0.6,0.6,0.8,0.9c1.4,1.5,2.9,3.1,4.4,4.6
				c0.6,0.7,1.7,0.8,2.5,0.4c0.8-0.4,1.4-1.2,1.3-2.1c0-0.8-0.2-1.6-0.5-2.3c-1-2.2-2.4-4.2-4.3-5.8c-0.3-0.2-0.4-0.6-0.2-1
				c0,0,0,0,0,0c1.4-2.5,2.8-5,4.3-7.5c0.6-1.1,1.3-2.1,2-3.1c0.2-0.3,0.5-0.5,0.8-0.7c0.8-0.5,0.9-1,0.3-1.7
				c-0.6-0.6-1.2-1.2-1.9-1.7c-1.1-0.7-2.2-1.3-3.3-1.9c-0.4-0.3-1-0.2-1.3,0.1c-1.5,1.4-3.5,1.6-5.4,1.8c-1.3,0.2-2.7,0.2-4,0.3
				c-0.2,0-0.5,0-0.7-0.1c0.4-0.6,0.8-1.2,1.2-1.7c0.6-1,1.5-1.8,2.5-2.3c0.5-0.2,0.5-0.9,0.1-1.4c-0.4-0.5-0.8-0.9-1.3-1.3
				c-1.1-0.7-2.2-1.4-3.4-2c-1.4-0.8-2.8-0.2-4.2,0.6c0.3,0.2,0.5,0.3,0.6,0.4c1,0.3,1.6,1.3,1.3,2.3c0,0.1-0.1,0.3-0.2,0.4
				c-0.9,2.6-2.2,5.1-3.7,7.5c-1.8,2.9-4,5.6-6.5,8c-1,1-2.2,1.9-3.2,2.8c-0.2,0.2-0.4,0.5-0.6,0.8l0.1,0.2c0.4-0.2,0.8-0.3,1.2-0.5
				c2.9-1.4,5.6-3.2,8-5.3c1.3-1.1,2.5-2.2,3.8-3.4c0.7-0.7,1.3-1.5,2-2.2c0.2-0.2,0.4-0.3,0.6-0.4c1.8-0.2,3.5-0.3,5.3-0.4
				c1.3-0.1,2.7-0.2,4-0.4c1.1-0.1,1.4,0.2,1.1,1.3c-0.8,3.1-2.1,6-3.8,8.7c-0.1,0.1-0.2,0.3-0.2,0.4c-0.2,0.4-0.5,0.5-1,0.3
				c-2.7-1.2-5.4-2-8.3-2.5c-0.3-0.1-0.6,0-0.9,0.1l0.7,0.5c2.3,1.4,4.5,3,6.4,4.9c0.3,0.2,0.4,0.7,0.2,1c0,0-0.1,0.1-0.1,0.1
				c-4.2,5.7-9.7,10.3-16.2,13.3c-1.1,0.5-2.2,0.9-3.3,1.4c-0.3,0.2-0.7,0.1-0.9-0.2c0,0-0.1-0.1-0.1-0.2c-1.2-2-1.9-4.2-2.1-6.5
				c-0.3-3.3,0.6-6.6,2.5-9.4c0.6-0.9,0.8-1.9,0.8-3c-0.1-1.4-0.1-2.9,0.1-4.3c0.2-2.7,0.6-5.5,1.1-8.1c0.5-3.4,1.8-6.6,3.8-9.3
				c3.2-4,7.8-6.5,12.9-7.2c4.1-0.5,8.3,0.4,11.9,2.5c2.8,1.5,5.1,3.8,6.7,6.6c1.3,2.4,2.2,5,2.6,7.7c0.6,2.8,1,5.6,1.3,8.4
				c0.1,1.8,0.1,2.6,0,3.9c0,0.5,0.2,1.1,0.6,1.4c2,2.3,3.1,5.2,3.4,8.2c0.2,2.1,0,4.2-0.8,6.1c-0.6,1.9-1.7,3.6-3.1,5.1
				c-1.1,1.1-2.4,2-3.8,2.8c-3.2,1.7-6.8,2.8-10.4,3.3c-2.9,0.5-5.9,0.6-8.8,0.4c-3.7-0.2-7.4-1-10.9-2.3c-2.5-0.9-4.7-2.5-6.5-4.5
				L122.6,163.7z M150.8,121c0,0.1,0.1,0.2,0.1,0.3c1.2,2.1,2.3,4.2,3.1,6.5c0.4,0.8,0.9,1.6,1.5,2.3c0.8,0.8,2,0.9,2.9,0.3
				c1.2-0.8,1.6-2.4,1-3.7c-0.6-1.3-1.6-2.5-2.8-3.3C155.1,121.9,153,121.1,150.8,121L150.8,121z"/>
			<path class="st2" d="M151.8,189h2.6v1.1c0.7-0.9,1.8-1.4,2.9-1.4c1.2-0.1,2.3,0.6,2.8,1.7c0.6-1,1.8-1.7,3-1.6
				c1.6-0.2,3.1,0.9,3.3,2.6c0,0.1,0,0.2,0,0.3c0.1,2.4,0,4.9,0,7.4h-2.8v-1c0-1.8,0-3.6,0-5.4c0-1.1-0.5-1.6-1.3-1.7
				c-0.8-0.2-1.6,0.4-1.8,1.3c0,0.1,0,0.1,0,0.2c-0.1,0.9-0.1,1.9-0.1,2.8c0,1.2,0,2.5,0,3.8h-2.7v-2.7c0-1.3,0-2.6,0-3.8
				c0.1-0.7-0.4-1.4-1.2-1.5c-0.1,0-0.2,0-0.2,0c-1,0-1.7,0.5-1.7,1.4c-0.1,1.4,0,2.7,0,4.1v2.5h-2.7L151.8,189z"/>
			<path class="st2" d="M122.8,192.3h-2.4c-0.1-1.4,0.8-2.8,2.2-3.2c1.6-0.5,3.4-0.4,5,0.3c1,0.4,1.6,1.4,1.5,2.5c0,1.8,0,3.6,0,5.3
				c0,0.6-0.1,1.2,0.5,1.6c0,0,0,0.2,0,0.4c-0.9,0-1.8,0-2.7,0c-0.2,0-0.3-0.5-0.6-0.9l-0.5,0.4c-1,0.8-2.3,1.1-3.5,0.8
				c-1.3-0.2-2.2-1.3-2.3-2.5c-0.3-1.4,0.5-2.8,1.8-3.3c0.9-0.3,1.9-0.5,2.9-0.6c0.4,0,0.7-0.1,1.1-0.3c0.4-0.2,0.6-0.7,0.5-1.1
				c-0.1-0.2-0.3-0.4-0.5-0.5c-1-0.5-2.2-0.2-2.7,0.8C122.9,192,122.8,192.1,122.8,192.3z M126.2,194.4l-2.2,0.5
				c-0.3,0.1-0.5,0.2-0.8,0.3c-0.5,0.3-0.8,0.8-0.6,1.4c0.1,0.6,0.5,1,1.1,1c1.1,0.2,2.2-0.6,2.4-1.7
				C126.2,195.3,126.2,194.8,126.2,194.4L126.2,194.4z"/>
			<path class="st2" d="M168.9,192.3c-0.1-1.5,0.9-2.9,2.4-3.2c1.6-0.5,3.2-0.4,4.8,0.2c0.9,0.3,1.6,1.2,1.5,2.2c0,1.9,0,3.9,0,5.8
				c0,0.5-0.1,1.1,0.4,1.5c0,0-0.1,0.4-0.2,0.4c-0.8,0.1-1.6,0.1-2.5,0c-0.2,0-0.4-0.5-0.6-0.9l-0.4,0.4c-1,0.8-2.3,1.1-3.5,0.8
				c-1.3-0.2-2.3-1.3-2.3-2.7c-0.2-1.3,0.5-2.6,1.7-3.1c1-0.3,2-0.5,3-0.7c0.3,0,0.7-0.1,1-0.2c0.3-0.2,0.6-0.5,0.6-0.8
				c-0.1-0.4-0.3-0.7-0.6-0.9c-1-0.5-2.2,0-2.7,1c0,0,0,0,0,0c-0.1,0.1-0.2,0.2-0.4,0.2C170.4,192.3,169.7,192.3,168.9,192.3z
				 M174.9,194.4l-1.6,0.4c-0.4,0.1-0.8,0.2-1.2,0.4c-0.6,0.2-0.9,0.9-0.7,1.6c0.1,0.5,0.6,0.9,1.1,0.9c1.2,0.2,2.2-0.7,2.4-1.8
				c0-0.1,0-0.1,0-0.2C174.9,195.1,174.9,194.7,174.9,194.4L174.9,194.4z"/>
			<path class="st2" d="M108.6,199.3v-10.5c0.2,0,0.3-0.1,0.5-0.1c1.6,0,3.1,0,4.7,0c2.1-0.1,3.9,1.4,4.2,3.5
				c0.3,1.4,0.2,2.9-0.3,4.3c-0.5,1.5-1.9,2.6-3.5,2.7c-1.7,0.1-3.3,0.1-5,0.1C109,199.3,108.8,199.3,108.6,199.3z M111.2,197.2h1.9
				c1,0,1.8-0.6,2.1-1.5c0.4-1.2,0.4-2.4,0-3.6c-0.1-0.5-0.6-1-1.1-1.1c-0.9-0.1-1.9-0.1-2.9-0.2L111.2,197.2z"/>
			<path class="st2" d="M148.9,199.1h-2.6l-0.1-1.1c-0.1,0-0.2,0.1-0.2,0.1c-1.1,1.2-2.9,1.6-4.5,0.9c-1.1-0.4-1.8-1.4-1.8-2.6
				c-0.1-2-0.1-4-0.1-6c0-1.5,0-1.5,1.5-1.5h1.3v0.7c0,1.9,0,3.8,0,5.7c-0.1,0.6,0.2,1.3,0.8,1.6c0.7,0.3,1.4,0.2,2-0.2
				c0.4-0.4,0.6-0.9,0.8-1.4c0.1-0.5,0.1-1,0.1-1.6c0-1.6,0-3.1,0-4.8h2.7L148.9,199.1z"/>
			<path class="st2" d="M137.6,191.4c-0.5,0-1,0.1-1.4,0.1c-1,0.1-1.7,0.9-1.7,1.9c-0.1,1.7-0.1,3.4-0.1,5.2c0,0.1,0,0.3,0,0.4h-2.6
				V189h2.5l0.1,1.6c0.8-1.3,1.8-2.1,3.3-1.8L137.6,191.4z"/>
			<path class="st2" d="M95.2,205.1h1.9v0.5h-1.4v0.9h1.2v0.5h-1.2v1h1.4v0.5h-1.9V205.1z"/>
			<path class="st2" d="M100.2,205.1h0.6l-1.3,3.4h-0.5l-1.4-3.4h0.6l1,2.4l0.1,0.2l0.1-0.2L100.2,205.1z"/>
			<path class="st2" d="M101.4,205.1h1.9v0.5h-1.4v0.9h1.2v0.5h-1.2v1h1.4v0.5h-1.9V205.1z"/>
			<path class="st2" d="M104.1,205.1h1c0.3,0,0.6,0.1,0.8,0.3c0.2,0.2,0.3,0.5,0.3,0.8c0,0.2,0,0.4-0.2,0.6
				c-0.1,0.2-0.3,0.3-0.5,0.4l0.8,1.4h-0.6l-0.7-1.3h-0.4v1.3h-0.6V205.1z M105.1,205.6h-0.4v1.1h0.4c0.2,0,0.3,0,0.4-0.1
				c0.1-0.1,0.2-0.2,0.2-0.4c0-0.1-0.1-0.3-0.2-0.4C105.4,205.7,105.2,205.6,105.1,205.6L105.1,205.6z"/>
			<path class="st2" d="M107,205.1h0.6v2.9h1.5v0.5h-2L107,205.1z"/>
			<path class="st2" d="M110.7,205.1h0.6l1.3,3.4h-0.6l-0.3-0.8h-1.4l-0.3,0.8h-0.7L110.7,205.1z M111.1,206l-0.1-0.2l-0.1,0.2
				l-0.5,1.2h1.1L111.1,206z"/>
			<path class="st2" d="M114.2,205.1c0.3,0,0.5,0.1,0.7,0.3c0.2,0.2,0.3,0.5,0.3,0.7h-0.6c0-0.1,0-0.3-0.1-0.4
				c-0.1-0.1-0.2-0.1-0.3-0.1c-0.2,0-0.4,0.2-0.5,0.4c0,0,0,0,0,0.1c0,0.1,0,0.2,0.1,0.3c0.2,0.1,0.3,0.2,0.5,0.2
				c0.3,0.1,0.5,0.2,0.8,0.4c0.2,0.2,0.2,0.4,0.2,0.6c0,0.3-0.1,0.6-0.3,0.7c-0.2,0.2-0.5,0.3-0.8,0.3c-0.3,0-0.6-0.1-0.8-0.3
				c-0.2-0.2-0.3-0.5-0.3-0.8h0.6c0,0.2,0,0.3,0.2,0.4c0.1,0.1,0.3,0.2,0.4,0.1c0.1,0,0.3,0,0.4-0.1c0.1-0.1,0.1-0.2,0.1-0.4
				c0-0.1-0.1-0.2-0.2-0.3c-0.2-0.1-0.3-0.2-0.5-0.2c-0.3-0.1-0.5-0.2-0.7-0.4c-0.2-0.2-0.2-0.4-0.2-0.6c0-0.3,0.1-0.5,0.3-0.7
				C113.7,205.1,113.9,205,114.2,205.1z"/>
			<path class="st2" d="M115.7,205.1h2.9v0.5h-1.2v2.9h-0.6v-2.9h-1.2L115.7,205.1z"/>
			<path class="st2" d="M119.2,205.1h0.6v3.4h-0.6V205.1z"/>
			<path class="st2" d="M122.9,205.1h0.6v3.4h-0.5l-1.6-2.3l-0.1-0.2v2.5h-0.5v-3.4h0.5l1.6,2.3l0.1,0.2L122.9,205.1z"/>
			<path class="st2" d="M125.8,205.1c0.4,0,0.7,0.1,1,0.3c0.3,0.2,0.5,0.5,0.5,0.8h-0.6c-0.1-0.4-0.5-0.6-0.9-0.6
				c-0.3,0-0.6,0.1-0.8,0.4c-0.2,0.2-0.3,0.6-0.3,0.9c0,0.3,0.1,0.6,0.3,0.9c0.2,0.2,0.5,0.4,0.8,0.4c0.3,0,0.5-0.1,0.7-0.2
				c0.2-0.2,0.3-0.4,0.3-0.6h-0.9v-0.5h1.5v0.3c0,0.4-0.1,0.9-0.4,1.2c-0.3,0.3-0.7,0.5-1.1,0.4c-0.5,0-0.9-0.2-1.2-0.5
				c-0.3-0.3-0.5-0.8-0.5-1.3c0-0.5,0.2-0.9,0.5-1.3C124.9,205.2,125.4,205,125.8,205.1z"/>
			<path class="st2" d="M130.9,205.1c0.4,0,0.7,0.1,1,0.3c0.3,0.2,0.5,0.5,0.5,0.8h-0.6c-0.1-0.4-0.5-0.6-0.9-0.6
				c-0.3,0-0.6,0.1-0.8,0.4c-0.2,0.2-0.3,0.6-0.3,0.9c0,0.3,0.1,0.6,0.3,0.9c0.2,0.2,0.5,0.4,0.8,0.4c0.3,0,0.5-0.1,0.7-0.2
				c0.2-0.2,0.3-0.4,0.3-0.6h-0.9v-0.5h1.5v0.3c0,0.4-0.1,0.9-0.4,1.2c-0.3,0.3-0.7,0.5-1.1,0.4c-0.5,0-0.9-0.2-1.2-0.5
				c-0.3-0.3-0.5-0.8-0.5-1.3c0-0.5,0.2-0.9,0.5-1.3C130,205.2,130.4,205,130.9,205.1z"/>
			<path class="st2" d="M134.8,205.1c0.5,0,0.9,0.2,1.2,0.5c0.7,0.7,0.7,1.8,0,2.5c-0.3,0.3-0.8,0.5-1.2,0.5c-0.5,0-0.9-0.2-1.3-0.5
				c-0.7-0.7-0.7-1.8,0-2.5C133.9,205.3,134.3,205.1,134.8,205.1L134.8,205.1z M133.6,206.8c0,0.3,0.1,0.7,0.3,0.9
				c0.5,0.5,1.2,0.5,1.7,0c0.2-0.2,0.3-0.6,0.3-0.9c0-0.3-0.1-0.6-0.3-0.9c-0.5-0.5-1.2-0.5-1.7,0c0,0,0,0,0,0
				C133.7,206.2,133.6,206.5,133.6,206.8L133.6,206.8z"/>
			<path class="st2" d="M138.9,205.1c0.5,0,0.9,0.2,1.2,0.5c0.7,0.7,0.7,1.8,0,2.5c-0.3,0.3-0.8,0.5-1.2,0.5c-0.5,0-0.9-0.2-1.3-0.5
				c-0.7-0.7-0.7-1.8,0-2.5C138,205.3,138.4,205.1,138.9,205.1L138.9,205.1z M137.7,206.8c0,0.3,0.1,0.7,0.3,0.9
				c0.5,0.5,1.2,0.5,1.7,0c0.2-0.2,0.3-0.6,0.3-0.9c0-0.3-0.1-0.6-0.3-0.9c-0.5-0.5-1.2-0.5-1.7,0c0,0,0,0,0,0
				C137.8,206.2,137.7,206.5,137.7,206.8L137.7,206.8z"/>
			<path class="st2" d="M141.3,205.1h1.2c0.5,0,0.9,0.2,1.3,0.5c0.3,0.3,0.5,0.8,0.5,1.2c0,0.5-0.2,0.9-0.5,1.2
				c-0.3,0.3-0.8,0.5-1.3,0.5h-1.2V205.1z M142.6,205.6h-0.7v2.4h0.7c0.7,0.1,1.2-0.4,1.3-1.1c0.1-0.7-0.4-1.2-1.1-1.3
				C142.7,205.6,142.7,205.6,142.6,205.6z"/>
			<path class="st2" d="M145.9,205.1h2.9v0.5h-1.2v2.9h-0.5v-2.9h-1.2V205.1z"/>
			<path class="st2" d="M149.9,205.1h0.6l1.4,3.4h-0.6l-0.3-0.8h-1.4l-0.3,0.8h-0.6L149.9,205.1z M150.3,206l-0.1-0.2l-0.1,0.2
				l-0.5,1.2h1.1L150.3,206z"/>
			<path class="st2" d="M153.4,205.1c0.3,0,0.5,0.1,0.7,0.3c0.2,0.2,0.3,0.5,0.3,0.7h-0.6c0-0.1,0-0.3-0.1-0.4
				c-0.1-0.1-0.2-0.1-0.4-0.1c-0.2,0-0.4,0.2-0.5,0.4c0,0,0,0,0,0.1c0,0.1,0,0.2,0.1,0.3c0.2,0.1,0.3,0.2,0.5,0.2
				c0.3,0.1,0.5,0.2,0.8,0.4c0.2,0.2,0.2,0.4,0.2,0.6c0,0.3-0.1,0.6-0.3,0.7c-0.2,0.2-0.5,0.3-0.8,0.3c-0.3,0-0.6-0.1-0.9-0.3
				c-0.2-0.2-0.3-0.5-0.3-0.8h0.6c0,0.2,0,0.3,0.2,0.4c0.1,0.1,0.3,0.2,0.4,0.1c0.1,0,0.3,0,0.4-0.1c0.1-0.1,0.1-0.2,0.1-0.4
				c0-0.1-0.1-0.2-0.1-0.3c-0.2-0.1-0.3-0.2-0.5-0.2c-0.3-0.1-0.5-0.2-0.7-0.4c-0.2-0.2-0.2-0.4-0.2-0.6c0-0.3,0.1-0.5,0.3-0.7
				C152.8,205.1,153.1,205,153.4,205.1z"/>
			<path class="st2" d="M154.9,205.1h2.9v0.5h-1.2v2.9h-0.6v-2.9h-1.2V205.1z"/>
			<path class="st2" d="M158.4,205.1h1.9v0.5H159v0.9h1.2v0.5H159v1h1.4v0.5h-1.9L158.4,205.1z"/>
			<path class="st2" d="M160.8,207h1.5v0.5h-1.5L160.8,207z"/>
			<path class="st2" d="M163,205.1h0.6v3.4H163V205.1z"/>
			<path class="st2" d="M166.7,205.1h0.5v3.4h-0.5l-1.6-2.3L165,206v2.5h-0.6v-3.4h0.5l1.6,2.3l0.1,0.2L166.7,205.1z"/>
			<path class="st2" d="M170.3,205.1h0.6l1.4,3.4h-0.6l-0.3-0.8h-1.4l-0.3,0.8H169L170.3,205.1z M170.7,206l-0.1-0.2l-0.1,0.2
				l-0.5,1.2h1.1L170.7,206z"/>
			<path class="st2" d="M172.9,205.1h0.5v2.9h1.5v0.5h-2L172.9,205.1z"/>
			<path class="st2" d="M175.6,205.1h0.6v2.9h1.5v0.5h-2L175.6,205.1z"/>
			<path class="st2" d="M180.5,205.1h0.6l1.3,3.4h-0.6l-0.3-0.8H180l-0.3,0.8h-0.6L180.5,205.1z M180.8,206l-0.1-0.2l-0.1,0.2
				l-0.5,1.2h1.1L180.8,206z"/>
			<path class="st2" d="M184.3,205.1c0.4,0,0.7,0.1,1,0.3c0.3,0.2,0.5,0.5,0.5,0.8h-0.5c-0.1-0.4-0.5-0.6-0.9-0.6
				c-0.3,0-0.6,0.1-0.8,0.4c-0.2,0.2-0.3,0.6-0.3,0.9c0,0.3,0.1,0.6,0.3,0.9c0.2,0.2,0.5,0.4,0.8,0.4c0.3,0,0.5-0.1,0.7-0.2
				c0.2-0.2,0.2-0.4,0.2-0.6h-0.9v-0.5h1.5v0.3c0,0.4-0.1,0.9-0.4,1.2c-0.3,0.3-0.7,0.5-1.1,0.4c-0.5,0-0.9-0.2-1.2-0.5
				c-0.3-0.3-0.5-0.8-0.5-1.3c0-0.5,0.2-0.9,0.5-1.3C183.4,205.2,183.9,205,184.3,205.1z"/>
			<path class="st2" d="M186.7,205.1h1.9v0.5h-1.4v0.9h1.2v0.5h-1.2v1h1.4v0.5h-1.9V205.1z"/>
			<path class="st2" d="M190.3,205.1c0.3,0,0.5,0.1,0.7,0.3c0.2,0.2,0.3,0.5,0.3,0.7h-0.6c0-0.1,0-0.3-0.1-0.4
				c-0.1-0.1-0.2-0.1-0.4-0.1c-0.1,0-0.2,0-0.3,0.1c-0.1,0.1-0.1,0.2-0.1,0.3c0,0.1,0,0.2,0.1,0.3c0.2,0.1,0.3,0.2,0.5,0.2
				c0.3,0.1,0.5,0.2,0.8,0.4c0.2,0.2,0.2,0.4,0.2,0.6c0,0.3-0.1,0.6-0.3,0.7c-0.2,0.2-0.5,0.3-0.8,0.3c-0.3,0-0.6-0.1-0.8-0.3
				c-0.2-0.2-0.3-0.5-0.3-0.8h0.6c0,0.2,0,0.3,0.2,0.4c0.1,0.1,0.3,0.2,0.4,0.1c0.1,0,0.3,0,0.4-0.1c0.1-0.1,0.1-0.2,0.1-0.4
				c0-0.1-0.1-0.2-0.1-0.3c-0.2-0.1-0.3-0.2-0.5-0.2c-0.3-0.1-0.5-0.2-0.7-0.4c-0.2-0.2-0.2-0.4-0.2-0.6c0-0.3,0.1-0.5,0.3-0.7
				C189.8,205.1,190.1,205,190.3,205.1z"/>
			<path class="st2" d="M127.2,182.1c0.2,0.1,0.2,0.1,0.2,0.2s-0.2,0.3-1.2,0.3h-0.6c-0.5,0-0.6-0.1-0.6-0.5v-2.7H124
				c-0.1,1.7-0.5,2.7-2.2,3.4v-0.1c1.4-0.8,1.7-1.8,1.7-3.3h-1.6v-0.2h4.5l0.3-0.4c0,0,0.4,0.3,0.6,0.5c0,0.1-0.1,0.1-0.2,0.1h-1.7
				v2.6c0,0.1,0,0.1,0.2,0.1h0.6c0.2,0,0.3,0,0.5,0c0.1,0,0.1,0,0.1-0.1c0,0,0,0,0,0c0.1-0.3,0.2-0.7,0.2-1h0.1L127.2,182.1z
				 M122.5,177.9v-0.2h3.3l0.3-0.4c0,0,0.4,0.3,0.6,0.5c0,0.1-0.1,0.1-0.2,0.1H122.5z"/>
			<path class="st2" d="M130.3,178.6c0,0-0.1,0.1-0.3,0.1c-0.2,0.3-0.4,0.7-0.6,0.9c1.2,0.4,0.8,1.2,0.4,0.9
				c-0.1-0.3-0.3-0.5-0.5-0.8v2.9c-0.1,0.1-0.2,0.2-0.4,0.2h-0.1v-2.6c-0.3,0.3-0.6,0.5-1,0.8l-0.1-0.1c0.7-0.6,1.3-1.4,1.7-2.3
				h-1.5v-0.2h0.9v-1.1l0.7,0.1c0,0.1-0.1,0.1-0.2,0.2v0.9h0.2l0.3-0.3L130.3,178.6z M133.2,182.1c0,0,0.3,0.3,0.4,0.4
				s-0.1,0.1-0.1,0.1h-3.6v-0.2h0.8v-5l0.5,0.2h1.3l0.2-0.3l0.6,0.4c-0.1,0.1-0.2,0.1-0.3,0.1v4.5h0.1L133.2,182.1z M131,177.9v1.4
				h1.4v-1.3L131,177.9z M132.4,179.4H131v1.4h1.4L132.4,179.4z M131,182.4h1.4v-1.5H131L131,182.4z"/>
			<path class="st2" d="M134.7,178.6c0.2,0.6,0.2,1.2,0,1.4c-0.2,0.3-0.6,0-0.3-0.4C134.5,179.3,134.6,178.9,134.7,178.6
				L134.7,178.6z M136.5,178.7c-0.1,0.1-0.2,0.1-0.2,0c-0.2,0.2-0.5,0.5-0.8,0.6c0,0.4,0,0.8-0.1,1.2c1.4,0.6,1,1.6,0.5,1.2
				c-0.1-0.4-0.3-0.7-0.5-1c-0.1,0.8-0.5,1.5-1.1,1.9l-0.1-0.1c1-1.1,0.9-2.7,0.9-5.3l0.7,0.1c0,0.1-0.1,0.2-0.2,0.2
				c0,0.6,0,1.2,0,1.7c0.1-0.3,0.3-0.7,0.4-0.9L136.5,178.7z M139.7,182.2c0.1,0,0.2,0.1,0.2,0.2s-0.2,0.3-0.9,0.3h-0.4
				c-0.4,0-0.5-0.1-0.5-0.4v-1.6h-0.6c-0.1,0.9-0.3,1.6-1.9,2.1l-0.1-0.1c1.4-0.6,1.5-1.2,1.5-2h-1v-0.2h0.8v-0.9h-0.8v-0.2h0.9
				v-0.9l0.6,0.1c0,0.1-0.1,0.1-0.2,0.1v0.7h1.2v-0.9l0.6,0.1c0,0.1,0,0.1-0.2,0.1v0.7h0.3l0.3-0.4c0,0,0.3,0.3,0.5,0.4
				c0,0.1-0.1,0.1-0.1,0.1h-0.9v0.9h0.3l0.2-0.4c0,0,0.3,0.3,0.5,0.4c0,0.1-0.1,0.1-0.1,0.1h-1.2v1.5c0,0.1,0,0.1,0.2,0.1h0.7
				c0,0,0.1,0,0.1-0.1c0.1-0.2,0.1-0.5,0.2-0.7h0.1L139.7,182.2z M136,178h1.5v-0.8l0.7,0.1c0,0.1-0.1,0.1-0.2,0.2v0.5h1l0.3-0.4
				c0,0,0.3,0.2,0.5,0.4c0,0.1-0.1,0.1-0.2,0.1H138v0.7c0,0.1-0.2,0.1-0.4,0.1h-0.1v-0.8h-1.5L136,178z M137.1,180.5h1.3v-0.9H137
				L137.1,180.5z"/>
			<path class="st2" d="M145.9,178.3c-0.1,0.1-0.2,0.1-0.3,0.1v3.7c0,0.4-0.1,0.6-0.8,0.7c0-0.1-0.1-0.3-0.2-0.4
				c-0.2-0.1-0.4-0.2-0.6-0.2v-0.1h0.9c0.1,0,0.1,0,0.1-0.1v-3.6h-1.8c0,0.1-0.1,0.2-0.1,0.3c1.8,0.4,1.6,1.4,1.1,1.2
				c-0.3-0.4-0.7-0.8-1.2-1.1c-0.3,0.6-0.9,1-1.5,1.2l-0.1-0.1c0.6-0.3,1.1-0.9,1.3-1.6h-1.5v4.2c0,0.1-0.2,0.2-0.4,0.2h-0.1v-4.8
				l0.5,0.2h1.5c0.1-0.3,0.1-0.6,0.1-0.9l0.7,0.1c0,0.1-0.1,0.1-0.2,0.1c0,0.2,0,0.5-0.1,0.7h1.7l0.2-0.3L145.9,178.3z M143.7,179.7
				c0,0.1-0.1,0.1-0.2,0.1c-0.1,0.2-0.1,0.4-0.2,0.5c1.8,0.6,1.6,1.6,1.1,1.4c-0.3-0.5-0.7-0.9-1.2-1.2c-0.4,0.6-0.9,1.1-1.6,1.4
				v-0.1c0.8-0.5,1.3-1.3,1.5-2.2L143.7,179.7z"/>
			<path class="st2" d="M151.6,180.5c0.2,0.1,0.4,0.3,0.6,0.5c0,0.1-0.1,0.1-0.2,0.1h-1.3v1c0,0.4-0.1,0.6-0.7,0.6
				c0-0.1-0.1-0.2-0.1-0.3c-0.2-0.1-0.4-0.2-0.6-0.2v-0.1l0.9,0.1c0.1,0,0.1,0,0.1-0.1v-1h-3.4v-0.2h3.4v-0.5l0.6,0.1v-0.2h-2.8v0.2
				c0,0-0.2,0.2-0.4,0.2h-0.1v-2.3l0.5,0.2h1.1V178H147v-0.2h2.3v-0.6l0.7,0.1c0,0.1-0.1,0.1-0.2,0.2v0.4h1.5l0.3-0.4
				c0,0,0.4,0.3,0.6,0.5c0,0.1-0.1,0.1-0.2,0.1h-2.2v0.5h1.1l0.2-0.2l0.5,0.4c-0.1,0.1-0.1,0.1-0.2,0.1v1.6c0,0-0.2,0.1-0.4,0.1H151
				c0,0.1-0.1,0.1-0.2,0.1v0.3h0.6L151.6,180.5z M147.9,181.3c1.6,0.2,1.3,1.3,0.8,1C148.5,181.9,148.2,181.5,147.9,181.3
				L147.9,181.3z M148.1,178.7v0.6h1.1v-0.6H148.1z M148.1,180.1h1.1v-0.6h-1.1V180.1z M149.7,178.7v0.6h1.2v-0.6H149.7z
				 M150.8,180.1v-0.6h-1.2v0.6H150.8z"/>
			<path class="st2" d="M155,177.4l0.5,0.4c-0.1,0.1-0.1,0.1-0.2,0.1v1.9c-0.1,0.1-0.3,0.1-0.4,0.1h-0.1v-0.3h-1.1v3
				c0,0.1-0.2,0.2-0.4,0.2h-0.1v-5.4l0.5,0.2h1L155,177.4z M153.7,177.8v0.7h1.1v-0.7H153.7z M154.8,179.4v-0.7h-1.1v0.7H154.8z
				 M158.4,177.8c-0.1,0.1-0.2,0.1-0.2,0.1v4.2c0,0.4-0.1,0.6-0.8,0.7c0-0.1-0.1-0.3-0.2-0.4c-0.2-0.1-0.4-0.2-0.6-0.2v-0.1l1,0.1
				c0.1,0,0.2,0,0.2-0.1v-2.5h-1.2v0.2c0,0-0.2,0.1-0.4,0.1H156v-2.4l0.5,0.2h1.1l0.2-0.3L158.4,177.8z M156.4,177.8v0.7h1.2v-0.7
				H156.4z M157.6,179.4v-0.7h-1.2v0.7H157.6z"/>
			<path class="st2" d="M164.1,177.7c0,0,0.4,0.3,0.6,0.5c0,0.1-0.1,0.1-0.2,0.1h-4.3v1.3c0.1,1.2-0.3,2.3-1.1,3.2l-0.1-0.1
				c0.5-0.9,0.7-2,0.7-3.1v-1.7l0.6,0.2h1.5v-0.9l0.7,0.1c0,0.1-0.1,0.1-0.2,0.2v0.7h1.4L164.1,177.7z M164,179c0,0,0.4,0.3,0.6,0.5
				c0,0.1-0.1,0.1-0.2,0.1h-1.9v1.1h1l0.2-0.3l0.5,0.4c-0.1,0.1-0.1,0.1-0.2,0.1v1.7c0,0-0.1,0.1-0.4,0.1h-0.1v-0.4h-2.4v0.3
				c0,0-0.1,0.1-0.4,0.1h-0.1v-2.3l0.5,0.2h0.8v-2.2l0.7,0.1c0,0.1-0.1,0.1-0.2,0.2v0.7h1.2L164,179z M161.1,180.8v1.3h2.4v-1.3
				H161.1z"/>
			<path class="st2" d="M165.3,119.3c-1.3-1.2-2.9-2-4.6-2.3c-0.7-0.1-1.3-0.1-2-0.1c1.4,2,2.6,4.1,3.6,6.3c0.8,1.8,1.6,2.8,2.6,2.9
				c0.7,0.1,1.3-0.1,1.8-0.6c0.5-0.4,0.9-1.1,1-1.8C167.8,122.3,167,120.8,165.3,119.3z"/>
		</g>
		<g>
			<path class="st2" d="M293.3,102.6l-3.6,3.6l3.6,3.6l-0.3,0.3l-3.6-3.6l-3.6,3.6l-0.3-0.3l3.6-3.6l-3.6-3.6l0.3-0.3l3.6,3.6
				l3.6-3.6L293.3,102.6z M286.2,107.1c-0.5,0-0.8-0.4-0.8-0.8s0.4-0.8,0.8-0.8s0.8,0.4,0.8,0.8S286.6,107.1,286.2,107.1z
				 M288.5,103.1c0-0.5,0.4-0.8,0.8-0.8s0.8,0.4,0.8,0.8s-0.4,0.8-0.8,0.8S288.5,103.6,288.5,103.1z M290.2,109.4
				c0,0.5-0.4,0.8-0.8,0.8s-0.8-0.4-0.8-0.8s0.4-0.8,0.8-0.8S290.2,108.9,290.2,109.4z M292.5,105.4c0.5,0,0.8,0.4,0.8,0.8
				s-0.4,0.8-0.8,0.8c-0.5,0-0.8-0.4-0.8-0.8S292,105.4,292.5,105.4z"/>
			<path class="st2" d="M301.7,108.4c0,0.8,0.8,1.3,2.5,1.3c1.5,0,2.9-0.2,3.8-0.4l0,1.2c-0.9,0.2-2.2,0.4-3.8,0.4
				c-2.4,0-3.6-0.8-3.6-2.2c0-0.6,0.1-1.1,0.2-1.6l1.1,0.1C301.8,107.6,301.7,108,301.7,108.4z M304.2,102.8c1.1,0,2.2-0.1,3.1-0.2
				v1.1c-0.8,0.1-2,0.1-3.1,0.1c-1.1,0-2.1,0-2.9-0.1v-1.1C302,102.8,303,102.8,304.2,102.8z M308.4,103l-0.7,0.3
				c-0.2-0.5-0.6-1.1-0.9-1.5l0.7-0.3C307.8,101.9,308.2,102.6,308.4,103z M309.7,102.5l-0.7,0.3c-0.2-0.5-0.6-1.1-0.9-1.5l0.7-0.3
				C309.1,101.5,309.5,102.1,309.7,102.5z"/>
			<path class="st2" d="M318.5,105.4c0,0.9,0.4,3.7,2.4,5.1c-0.2,0.2-0.5,0.6-0.6,0.9c-1.6-1.1-2.2-3.1-2.3-4
				c-0.1,0.9-0.8,2.9-2.5,4c-0.1-0.2-0.4-0.7-0.6-0.8c2.2-1.4,2.6-4.1,2.6-5.1v-1.3h-0.6c-0.3,0.8-0.6,1.5-1,2
				c-0.1-0.1-0.5-0.3-0.7-0.5v2.1h-2.7v1.8c0.5-0.1,1-0.3,1.5-0.4c-0.1-0.3-0.3-0.6-0.4-0.9l0.8-0.3c0.4,0.7,0.8,1.6,1,2.2l-0.9,0.4
				c0-0.2-0.1-0.4-0.2-0.6c-1.1,0.4-2.3,0.8-3.2,1l-0.4-0.9c0.2-0.1,0.5-0.1,0.8-0.2v-5.5c-0.1,0.1-0.3,0.2-0.4,0.3
				c-0.1-0.2-0.4-0.5-0.6-0.7c1.1-0.8,1.8-1.8,2.2-2.7h1c0.6,0.6,1.5,1.4,1.9,1.9l-0.7,0.7c-0.3-0.5-1-1.2-1.5-1.8
				c-0.4,0.6-0.9,1.4-1.7,2h1.2v-0.9h0.9v0.9h1.3v1.2c0.7-1,1.2-2.5,1.5-4.1l1,0.2c-0.1,0.6-0.3,1.2-0.4,1.8h2.8l0.2,0l0.7,0.2
				c-0.2,1-0.5,2.2-0.8,2.9l-0.8-0.3c0.2-0.5,0.4-1.2,0.5-1.8h-1.1V105.4z M312.4,104.8v0.7h1.8v-0.7H312.4z M314.2,107v-0.7h-1.8
				v0.7H314.2z"/>
			<path class="st2" d="M332.3,108.2c-0.7,0.5-1.6,1-2.3,1.4c0.8,0.4,1.8,0.7,2.9,0.8c-0.2,0.2-0.5,0.6-0.6,0.9
				c-2.4-0.4-4-1.4-5-3.1h-1.5v1.9c0.8-0.1,1.7-0.2,2.6-0.2l0,0.9c-1.7,0.2-3.4,0.3-4.7,0.5l-0.1-0.9c0.4,0,0.7-0.1,1.2-0.1v-5.6
				c-0.4,0.3-0.9,0.5-1.4,0.7c-0.1-0.2-0.4-0.6-0.6-0.8c1.8-0.8,3.6-2.1,4.5-3.3h1c1.2,1.4,3,2.5,4.7,3.1c-0.2,0.3-0.5,0.6-0.6,0.9
				c-0.4-0.2-0.9-0.4-1.3-0.7v3.4c0.2-0.1,0.3-0.2,0.5-0.4L332.3,108.2z M330.5,104.2c-1-0.6-2-1.4-2.6-2.1
				c-0.6,0.7-1.5,1.5-2.5,2.1h2v-1h1v1H330.5z M325.7,105.8h4.3V105h-4.3V105.8z M325.7,107.3h4.3v-0.8h-4.3V107.3z M328.3,108.1
				c0.3,0.4,0.6,0.7,0.9,0.9c0.5-0.3,1.1-0.6,1.6-0.9H328.3z"/>
			<path class="st2" d="M337,108.5h-2v-0.7h2v-0.8h-2v-0.7h1.7l-2-3.9h1.3l0.9,2c0.2,0.5,0.5,1.1,0.7,1.7h0c0.3-0.6,0.5-1.1,0.7-1.7
				l0.9-2h1.3l-2,3.9h1.7v0.7h-2v0.8h2v0.7h-2v1.9H337V108.5z"/>
			<path class="st2" d="M342.8,109.4h1.8V104h-1.5v-0.8c0.8-0.1,1.3-0.3,1.8-0.6h1v6.8h1.6v1h-4.6V109.4z"/>
			<path class="st2" d="M349.8,111.9c0.8-0.3,1.2-0.9,1.2-1.5c0,0-0.1,0-0.1,0c-0.5,0-0.8-0.3-0.8-0.8c0-0.5,0.4-0.8,0.9-0.8
				c0.6,0,1,0.5,1,1.4c0,1.2-0.7,2-1.8,2.5L349.8,111.9z"/>
			<path class="st2" d="M354.1,106.4c0-2.7,1-4.1,2.6-4.1c1.6,0,2.6,1.4,2.6,4.1c0,2.7-1,4.1-2.6,4.1
				C355.1,110.6,354.1,109.1,354.1,106.4z M358.2,106.4c0-2.3-0.6-3.1-1.4-3.1s-1.4,0.8-1.4,3.1s0.6,3.1,1.4,3.1
				S358.2,108.7,358.2,106.4z"/>
			<path class="st2" d="M361.5,106.4c0-2.7,1-4.1,2.6-4.1c1.6,0,2.6,1.4,2.6,4.1c0,2.7-1,4.1-2.6,4.1
				C362.5,110.6,361.5,109.1,361.5,106.4z M365.5,106.4c0-2.3-0.6-3.1-1.4-3.1s-1.4,0.8-1.4,3.1s0.6,3.1,1.4,3.1
				S365.5,108.7,365.5,106.4z"/>
			<path class="st2" d="M368.9,106.4c0-2.7,1-4.1,2.6-4.1c1.6,0,2.6,1.4,2.6,4.1c0,2.7-1,4.1-2.6,4.1
				C369.9,110.6,368.9,109.1,368.9,106.4z M372.9,106.4c0-2.3-0.6-3.1-1.4-3.1s-1.4,0.8-1.4,3.1s0.6,3.1,1.4,3.1
				S372.9,108.7,372.9,106.4z"/>
			<path class="st2" d="M384.7,107.4c0,0.6-0.1,1.1-0.1,1.6h1.4v0.9h-1.6c-0.1,0.5-0.2,0.8-0.4,1c-0.2,0.3-0.5,0.4-0.9,0.5
				c-0.3,0-0.9,0-1.5,0c0-0.2-0.1-0.6-0.2-0.8c0.6,0.1,1.1,0.1,1.3,0.1c0.2,0,0.3,0,0.4-0.2c0.1-0.1,0.2-0.3,0.2-0.6h-4.9
				c0,0.2-0.1,0.5-0.1,0.6l-1-0.1c0.2-0.8,0.4-1.9,0.5-3h-1.7v-0.9h1.8c0.1-0.8,0.2-1.7,0.3-2.4h6.6c0,0,0,0.3,0,0.5
				c0,0.7-0.1,1.3-0.1,1.9h1.5v0.9H384.7z M378.9,103.2c-0.4,0.7-1,1.3-1.6,1.9c-0.2-0.2-0.6-0.5-0.8-0.6c1.2-0.9,1.9-2.2,2.4-3.2
				l1.1,0.2c-0.1,0.3-0.3,0.6-0.4,0.9h6.3v0.9H378.9z M378.9,107.4c-0.1,0.5-0.2,1.1-0.3,1.6h1.9c0.1-0.5,0.1-1,0.2-1.6H378.9z
				 M379.2,105c-0.1,0.5-0.1,1-0.2,1.5h1.8c0.1-0.5,0.1-1,0.1-1.5H379.2z M383.5,108.9c0.1-0.4,0.1-0.9,0.2-1.6h-2
				c-0.1,0.6-0.1,1.1-0.2,1.6H383.5z M383.8,106.4c0-0.4,0.1-0.9,0.1-1.5H382c0,0.5-0.1,1-0.2,1.5H383.8z"/>
			<path class="st2" d="M390.5,102.9c-0.2,0.9-0.5,3-0.5,4.1c0,0.4,0,0.8,0.1,1.2c0.2-0.5,0.4-1,0.6-1.4l0.5,0.4
				c-0.3,0.8-0.7,2-0.8,2.6c0,0.2-0.1,0.4-0.1,0.5c0,0.1,0,0.3,0,0.4l-1,0.1c-0.2-0.8-0.4-2.1-0.4-3.6c0-1.6,0.4-3.5,0.5-4.4
				c0-0.3,0.1-0.6,0.1-0.9l1.2,0.1C390.7,102.3,390.6,102.7,390.5,102.9z M393.2,108.4c0,0.5,0.4,0.9,1.7,0.9c1,0,1.8-0.1,2.7-0.3
				l0,1.2c-0.7,0.1-1.6,0.2-2.8,0.2c-1.9,0-2.7-0.6-2.7-1.7c0-0.4,0.1-0.8,0.2-1.4l1,0.1C393.2,107.8,393.2,108.1,393.2,108.4z
				 M397.3,102.9v1.1c-1.3,0.1-3.3,0.1-4.6,0l0-1.1C394,103.1,396.2,103,397.3,102.9z"/>
			<path class="st2" d="M407.6,103.6c-0.4,0.9-1,2.1-1.8,3.1c1.1,1,2.5,2.4,3.1,3.2l-1,0.9c-0.7-1-1.8-2.2-2.9-3.2
				c-1.2,1.3-2.7,2.4-4.2,3.2l-0.9-0.9c1.8-0.7,3.4-2,4.5-3.2c0.7-0.8,1.5-2,1.7-2.9h-4c-0.4,0-1,0.1-1.2,0.1v-1.2
				c0.2,0,0.9,0.1,1.2,0.1h4.1c0.4,0,0.8,0,1-0.1l0.7,0.5C407.9,103.1,407.7,103.4,407.6,103.6z"/>
			<path class="st2" d="M415.5,102.7c0,0.1-0.1,0.1-0.1,0.2h2.7c0.3,0,0.6,0,0.8-0.1l0.9,0.5c-0.1,0.2-0.2,0.5-0.3,0.7
				c-0.3,1-0.9,2.2-1.7,3.3c0.5,0.3,0.9,0.7,1.2,0.9l-0.8,1c-0.3-0.3-0.7-0.6-1.2-1c-1,1.1-2.3,2-4.1,2.7l-1-0.9
				c1.9-0.6,3.2-1.5,4.2-2.5c-0.8-0.5-1.6-1.1-2.2-1.5l0.8-0.8c0.7,0.4,1.4,0.9,2.2,1.4c0.6-0.9,1.2-2,1.4-2.8h-3.5
				c-0.7,1-1.7,2.1-2.9,2.9l-0.9-0.7c1.9-1.2,3-2.8,3.5-3.8c0.1-0.2,0.3-0.7,0.4-1l1.3,0.4C415.8,102.1,415.6,102.5,415.5,102.7z"/>
			<path class="st2" d="M426.4,108c1.8-1.1,3.1-2.7,3.8-4.1l0.7,1.2c-0.8,1.4-2.1,2.9-3.9,4c-1.1,0.7-2.5,1.3-4.2,1.6l-0.7-1.1
				C423.9,109.3,425.3,108.7,426.4,108z M426,104.5l-0.9,0.9c-0.6-0.6-1.9-1.8-2.8-2.3l0.8-0.9C423.9,102.7,425.4,103.9,426,104.5z"
				/>
			<path class="st2" d="M440.6,101.2c0.7,0,1.3,0.6,1.3,1.3c0,0.7-0.6,1.3-1.3,1.3c-0.1,0-0.2,0-0.3,0c0,0.1,0,0.1,0,0.2
				c-0.3,1.1-0.8,2.9-1.7,4c-1,1.3-2.4,2.4-4.4,3l-0.9-1c2.1-0.5,3.4-1.5,4.3-2.6c0.7-1,1.2-2.4,1.4-3.4h-5.4c-0.5,0-0.9,0-1.2,0
				v-1.2c0.3,0,0.8,0.1,1.2,0.1h5.3c0.1,0,0.3,0,0.5,0c0-0.1,0-0.2,0-0.3C439.4,101.8,439.9,101.2,440.6,101.2z M440.6,103.1
				c0.4,0,0.7-0.3,0.7-0.7s-0.3-0.7-0.7-0.7s-0.7,0.3-0.7,0.7S440.3,103.1,440.6,103.1z"/>
			<path class="st2" d="M443.9,109.4h1.8V104h-1.5v-0.8c0.8-0.1,1.3-0.3,1.8-0.6h1v6.8h1.6v1h-4.6V109.4z"/>
			<path class="st2" d="M453.8,101.5c-0.2,0.7-0.5,1.4-0.9,2.1v7.7h-1v-5.9c-0.3,0.4-0.6,0.9-0.9,1.2c-0.1-0.3-0.4-0.8-0.5-1.1
				c0.9-1,1.8-2.6,2.3-4.3L453.8,101.5z M460.5,101.8v9.4h-1v-0.5H455v0.6h-0.9v-9.5H460.5z M459.6,109.7v-7H455v7H459.6z
				 M457.7,104.9v1.1h1.2v2.9h-3.1V106h1.1v-1.1h-1.5v-0.8h1.5V103h0.8v1.2h1.5v0.8H457.7z M458.1,106.8h-1.5v1.5h1.5V106.8z"/>
			<path class="st2" d="M293.3,120.8l-3.6,3.6l3.6,3.6l-0.3,0.3l-3.6-3.6l-3.6,3.6l-0.3-0.3l3.6-3.6l-3.6-3.6l0.3-0.3l3.6,3.6
				l3.6-3.6L293.3,120.8z M286.2,125.3c-0.5,0-0.8-0.4-0.8-0.8s0.4-0.8,0.8-0.8s0.8,0.4,0.8,0.8S286.6,125.3,286.2,125.3z
				 M288.5,121.3c0-0.5,0.4-0.8,0.8-0.8s0.8,0.4,0.8,0.8s-0.4,0.8-0.8,0.8S288.5,121.8,288.5,121.3z M290.2,127.6
				c0,0.5-0.4,0.8-0.8,0.8s-0.8-0.4-0.8-0.8s0.4-0.8,0.8-0.8S290.2,127.1,290.2,127.6z M292.5,123.6c0.5,0,0.8,0.4,0.8,0.8
				s-0.4,0.8-0.8,0.8c-0.5,0-0.8-0.4-0.8-0.8S292,123.6,292.5,123.6z"/>
			<path class="st2" d="M307.6,121.8c-0.4,0.9-1,2.1-1.8,3.1c1.1,1,2.5,2.4,3.1,3.2l-1,0.9c-0.7-1-1.8-2.2-2.9-3.2
				c-1.2,1.3-2.7,2.4-4.2,3.2l-0.9-0.9c1.8-0.7,3.4-2,4.5-3.2c0.7-0.8,1.5-2,1.7-2.9h-4c-0.4,0-1,0.1-1.2,0.1v-1.2
				c0.2,0,0.9,0.1,1.2,0.1h4.1c0.4,0,0.8,0,1-0.1l0.7,0.5C307.8,121.3,307.7,121.6,307.6,121.8z"/>
			<path class="st2" d="M315.5,120.9c0,0.1-0.1,0.1-0.1,0.2h2.7c0.3,0,0.6,0,0.8-0.1l0.9,0.5c-0.1,0.2-0.2,0.5-0.3,0.7
				c-0.3,1-0.9,2.2-1.7,3.3c0.5,0.3,0.9,0.7,1.2,0.9l-0.8,1c-0.3-0.3-0.7-0.6-1.2-1c-1,1.1-2.3,2-4.1,2.7l-1-0.9
				c1.9-0.6,3.2-1.5,4.2-2.5c-0.8-0.5-1.6-1.1-2.2-1.5l0.8-0.8c0.7,0.4,1.4,0.9,2.2,1.4c0.6-0.9,1.2-2,1.4-2.8h-3.5
				c-0.7,1-1.7,2.1-2.9,2.9l-0.9-0.7c1.9-1.2,3-2.8,3.5-3.8c0.1-0.2,0.3-0.7,0.4-1l1.3,0.4C315.8,120.3,315.6,120.7,315.5,120.9z"/>
			<path class="st2" d="M326.3,126.2c1.8-1.1,3.1-2.7,3.8-4.1l0.7,1.2c-0.8,1.4-2.1,2.9-3.9,4c-1.1,0.7-2.5,1.3-4.2,1.6l-0.7-1.1
				C323.9,127.5,325.3,126.9,326.3,126.2z M326,122.7l-0.9,0.9c-0.6-0.6-1.9-1.8-2.8-2.3l0.8-0.9C323.9,120.9,325.4,122.1,326,122.7
				z"/>
			<path class="st2" d="M340.6,119.4c0.7,0,1.3,0.6,1.3,1.3c0,0.7-0.6,1.3-1.3,1.3c-0.1,0-0.2,0-0.3,0c0,0.1,0,0.1,0,0.2
				c-0.3,1.1-0.8,2.9-1.7,4c-1,1.3-2.4,2.4-4.4,3l-0.9-1c2.1-0.5,3.4-1.5,4.3-2.6c0.7-1,1.2-2.4,1.4-3.4h-5.4c-0.5,0-0.9,0-1.2,0
				v-1.2c0.3,0,0.8,0.1,1.2,0.1h5.3c0.1,0,0.3,0,0.5,0c0-0.1,0-0.2,0-0.3C339.4,120,339.9,119.4,340.6,119.4z M340.6,121.3
				c0.4,0,0.7-0.3,0.7-0.7s-0.3-0.7-0.7-0.7s-0.7,0.3-0.7,0.7S340.3,121.3,340.6,121.3z"/>
			<path class="st2" d="M343.3,127.7l0.6-0.8c0.5,0.5,1.1,0.9,1.9,0.9c0.9,0,1.5-0.5,1.5-1.3c0-0.9-0.6-1.4-2.4-1.4v-0.9
				c1.6,0,2.1-0.6,2.1-1.3c0-0.7-0.5-1.1-1.2-1.1c-0.6,0-1.2,0.3-1.6,0.8l-0.7-0.8c0.6-0.6,1.4-1,2.3-1c1.5,0,2.5,0.7,2.5,2
				c0,0.9-0.5,1.5-1.4,1.8v0.1c0.9,0.2,1.7,0.9,1.7,2c0,1.4-1.2,2.3-2.7,2.3C344.6,128.8,343.8,128.3,343.3,127.7z"/>
			<path class="st2" d="M350.9,124.9c0-3.1,1.5-4.4,3.1-4.4c0.9,0,1.6,0.4,2,0.9l-0.7,0.8c-0.3-0.4-0.8-0.6-1.3-0.6
				c-1,0-1.9,0.8-1.9,3.1c0.5-0.6,1.2-0.9,1.8-0.9c1.4,0,2.3,0.8,2.3,2.4c0,1.6-1.1,2.6-2.4,2.6
				C352.2,128.8,350.9,127.5,350.9,124.9z M352.1,125.7c0.1,1.5,0.7,2.1,1.6,2.1c0.7,0,1.3-0.6,1.3-1.6c0-1-0.5-1.5-1.3-1.5
				C353.2,124.7,352.6,124.9,352.1,125.7z"/>
			<path class="st2" d="M361.2,119.7c-0.2,0.7-0.5,1.4-0.9,2.1v7.7h-1v-5.9c-0.3,0.4-0.6,0.9-0.9,1.2c-0.1-0.3-0.4-0.8-0.5-1.1
				c0.9-1,1.8-2.6,2.3-4.3L361.2,119.7z M367.9,120v9.4h-1v-0.5h-4.5v0.6h-0.9V120H367.9z M366.9,127.9v-7h-4.5v7H366.9z
				 M365.1,123.1v1.1h1.2v2.9h-3.1v-2.9h1.1v-1.1h-1.5v-0.8h1.5v-1.2h0.8v1.2h1.5v0.8H365.1z M365.5,125h-1.5v1.5h1.5V125z"/>
			<path class="st2" d="M371.3,121.2c0.8-0.1,2.8-0.3,4.8-0.4c1.2-0.1,2.3-0.2,3-0.2v1.1c-0.6,0-1.6,0-2.1,0.2
				c-1.5,0.4-2.4,2-2.4,3.3c0,2,1.9,2.7,3.7,2.8l-0.4,1.2c-2.2-0.1-4.4-1.3-4.4-3.7c0-1.7,1-3,1.9-3.6c-1.1,0.1-3.7,0.4-4.9,0.6
				l-0.1-1.2C370.7,121.2,371.1,121.2,371.3,121.2z M378.4,124.4l-0.7,0.3c-0.3-0.6-0.6-1.1-0.9-1.5l0.7-0.3
				C377.8,123.3,378.2,124,378.4,124.4z M379.7,123.9l-0.7,0.3c-0.3-0.6-0.6-1-0.9-1.5l0.7-0.3C379,122.8,379.4,123.5,379.7,123.9z"
				/>
			<path class="st2" d="M381.1,126.9l0.9-0.8c0.8,0.6,1.8,1.7,2.4,2.4l-0.9,0.8C382.8,128.4,381.8,127.5,381.1,126.9z"/>
			<path class="st2" d="M390.8,125.4c-0.8,0.9-1.7,1.8-2.4,2.6l-0.7-0.9c0.6-0.6,1.6-1.6,2.5-2.6L390.8,125.4z M389.9,122.5
				c-0.4-0.5-1.2-1.2-1.9-1.7l0.7-0.7c0.7,0.4,1.6,1.1,2,1.6L389.9,122.5z M394.5,123.6c0,1.1,0.6,3.7,3.4,5
				c-0.2,0.2-0.5,0.7-0.6,0.9c-2.2-1-3.1-3.1-3.3-4.1c-0.2,1-1.3,3.1-3.7,4.1c-0.1-0.2-0.5-0.7-0.6-0.8c3.2-1.3,3.8-3.9,3.8-5v-1.3
				h-1.1c-0.3,0.8-0.7,1.6-1.2,2.1c-0.2-0.2-0.7-0.4-1-0.6c0.9-1,1.6-2.7,1.9-4.5l1.1,0.2c-0.1,0.6-0.3,1.2-0.5,1.7h4.1l0.2-0.1
				l0.8,0.4c-0.3,1.1-0.8,2.2-1.2,2.9c-0.2-0.1-0.6-0.3-0.9-0.4c0.3-0.5,0.6-1.2,0.8-1.9h-2V123.6z"/>
			<path class="st2" d="M409.4,119.8v9.7h-1.1v-0.6h-7v0.6h-1.1v-9.7H409.4z M408.3,127.9v-7.1h-7v7.1H408.3z M407,122.4v4h-4.3v-4
				H407z M405.9,123.3h-2.3v2.2h2.3V123.3z"/>
			<path class="st2" d="M413.9,126.7h-2V126h2v-0.8h-2v-0.7h1.7l-2-3.9h1.3l0.9,2c0.2,0.5,0.5,1.1,0.7,1.7h0
				c0.3-0.6,0.5-1.1,0.7-1.7l0.9-2h1.3l-2,3.9h1.7v0.7h-2v0.8h2v0.7h-2v1.9h-1.3V126.7z"/>
			<path class="st2" d="M419.7,127.6h1.8v-5.4h-1.5v-0.8c0.8-0.1,1.3-0.3,1.8-0.6h1v6.8h1.6v1h-4.6V127.6z"/>
			<path class="st2" d="M426.8,130.1c0.8-0.3,1.2-0.9,1.2-1.5c0,0-0.1,0-0.1,0c-0.5,0-0.8-0.3-0.8-0.8c0-0.5,0.4-0.8,0.9-0.8
				c0.6,0,1,0.5,1,1.4c0,1.2-0.7,2-1.8,2.5L426.8,130.1z"/>
			<path class="st2" d="M431.1,124.7c0-2.7,1-4.1,2.6-4.1c1.6,0,2.6,1.4,2.6,4.1c0,2.7-1,4.1-2.6,4.1
				C432.1,128.8,431.1,127.3,431.1,124.7z M435.1,124.7c0-2.3-0.6-3.1-1.4-3.1s-1.4,0.8-1.4,3.1s0.6,3.1,1.4,3.1
				S435.1,126.9,435.1,124.7z"/>
			<path class="st2" d="M438.4,124.7c0-2.7,1-4.1,2.6-4.1c1.6,0,2.6,1.4,2.6,4.1c0,2.7-1,4.1-2.6,4.1
				C439.4,128.8,438.4,127.3,438.4,124.7z M442.5,124.7c0-2.3-0.6-3.1-1.4-3.1s-1.4,0.8-1.4,3.1s0.6,3.1,1.4,3.1
				S442.5,126.9,442.5,124.7z"/>
			<path class="st2" d="M445.8,124.7c0-2.7,1-4.1,2.6-4.1c1.6,0,2.6,1.4,2.6,4.1c0,2.7-1,4.1-2.6,4.1
				C446.8,128.8,445.8,127.3,445.8,124.7z M449.8,124.7c0-2.3-0.6-3.1-1.4-3.1s-1.4,0.8-1.4,3.1s0.6,3.1,1.4,3.1
				S449.8,126.9,449.8,124.7z"/>
			<path class="st2" d="M456.6,120.4h2.4v1.8h-0.6v0.7h-1.8v0.6h1.7v0.7h-1.7v0.6h2.3v0.8h-5.6v-0.8h2.4v-0.6h-1.7v-0.7h1.7v-0.6
				h-1.8v-0.7h-0.6v-1.8h2.3v-0.9h1V120.4z M453.9,126.1h4.5v3.2h-1v-0.4h-2.6v0.5h-0.9V126.1z M458.1,121.2h-3.9v0.9h1.5v-0.7h1
				v0.7h1.5V121.2z M454.8,126.9v1.3h2.6v-1.3H454.8z M460.5,126.6h-1v-6.1h1V126.6z M462.8,119.6v8.6c0,0.6-0.1,0.9-0.5,1.1
				c-0.4,0.2-1,0.2-1.9,0.2c0-0.3-0.2-0.8-0.4-1.1c0.7,0,1.3,0,1.5,0c0.2,0,0.2-0.1,0.2-0.2v-8.6H462.8z"/>
			<path class="st2" d="M470.4,124.6c0,0,0,0.3,0,0.5c-0.2,2.5-0.4,3.6-0.8,3.9c-0.3,0.3-0.5,0.4-1,0.4c-0.4,0-1,0-1.7,0
				c0-0.3-0.2-0.8-0.4-1.1c0.7,0.1,1.4,0.1,1.7,0.1c0.2,0,0.4,0,0.5-0.1c0.2-0.2,0.4-1,0.6-2.7h-2.6l-0.1,0.5l-1-0.2
				c0.2-1,0.5-2.5,0.6-3.6h3.1v-1.5h-3.5v-0.9h4.5v3.4h-3.2c-0.1,0.5-0.2,0.9-0.2,1.4H470.4z M474.1,119.5v10h-1v-10H474.1z"/>
			<path class="st2" d="M293.3,139l-3.6,3.6l3.6,3.6l-0.3,0.3l-3.6-3.6l-3.6,3.6l-0.3-0.3l3.6-3.6l-3.6-3.6l0.3-0.3l3.6,3.6l3.6-3.6
				L293.3,139z M286.2,143.5c-0.5,0-0.8-0.4-0.8-0.8s0.4-0.8,0.8-0.8s0.8,0.4,0.8,0.8S286.6,143.5,286.2,143.5z M288.5,139.5
				c0-0.5,0.4-0.8,0.8-0.8s0.8,0.4,0.8,0.8s-0.4,0.8-0.8,0.8S288.5,140,288.5,139.5z M290.2,145.8c0,0.5-0.4,0.8-0.8,0.8
				s-0.8-0.4-0.8-0.8s0.4-0.8,0.8-0.8S290.2,145.3,290.2,145.8z M292.5,141.8c0.5,0,0.8,0.4,0.8,0.8s-0.4,0.8-0.8,0.8
				c-0.5,0-0.8-0.4-0.8-0.8S292,141.8,292.5,141.8z"/>
			<path class="st2" d="M304,144.9c-1.4,0.4-2.8,0.8-3.9,1.2l-0.3-1c0.5-0.1,1-0.3,1.7-0.4v-2.5h-1.3v-0.9h1.3v-2.1h-1.4v-0.9h3.8
				v0.9h-1.4v2.1h1.2v0.9h-1.2v2.2l1.4-0.4L304,144.9z M309,146.7c0.2,0,0.3-0.2,0.3-1.3c0.2,0.2,0.6,0.3,0.9,0.4
				c-0.1,1.4-0.3,1.8-1,1.8h-1c-0.9,0-1.1-0.3-1.1-1.2v-2.3h-0.9c-0.2,1.8-0.7,3-3,3.7c-0.1-0.2-0.4-0.6-0.6-0.8
				c2-0.5,2.4-1.5,2.6-2.8h-0.9V138h5.2v6.1h-1.4v2.3c0,0.3,0,0.3,0.3,0.3H309z M305.3,139.8h3.3v-0.9h-3.3V139.8z M305.3,141.5h3.3
				v-0.9h-3.3V141.5z M305.3,143.2h3.3v-0.9h-3.3V143.2z"/>
			<path class="st2" d="M317.6,146.5h4.2v0.9h-9.3v-0.9h4V144H313v-0.9h3.5v-1.3h-2.2v-0.6c-0.5,0.4-1.1,0.8-1.7,1.1
				c-0.1-0.2-0.4-0.6-0.6-0.8c1.9-0.9,3.7-2.5,4.5-3.9h1c1.2,1.6,3,3,4.7,3.8c-0.2,0.3-0.5,0.6-0.7,0.9c-0.6-0.3-1.2-0.7-1.8-1.1
				v0.6h-2.2v1.3h3.6v0.9h-3.6V146.5z M314.6,144.1c0.4,0.6,0.9,1.4,1,1.9l-0.9,0.4c-0.1-0.5-0.6-1.4-1-2L314.6,144.1z M319.5,140.9
				c-1-0.7-1.8-1.5-2.4-2.3c-0.5,0.7-1.3,1.6-2.3,2.3H319.5z M318.3,146.1c0.4-0.5,0.8-1.4,1.1-2l1,0.4c-0.4,0.7-0.9,1.4-1.3,1.9
				L318.3,146.1z"/>
			<path class="st2" d="M328.3,141.3c1-0.6,2.1-1.1,2.6-1.4c0.4-0.2,0.6-0.4,0.9-0.6l0.6,1c-0.3,0.2-0.6,0.3-0.9,0.5
				c-0.7,0.4-2.2,1.1-3.2,1.7c-1,0.6-1.6,1.3-1.6,2.1c0,0.9,0.8,1.4,2.5,1.4c1.2,0,2.7-0.2,3.6-0.4l0,1.3c-0.9,0.2-2.1,0.3-3.5,0.3
				c-2.1,0-3.7-0.6-3.7-2.4c0-1.2,0.7-2.1,1.9-2.9c-0.5-0.9-1.1-2.2-1.6-3.3l1.1-0.5C327.3,139.4,327.9,140.5,328.3,141.3z"/>
			<path class="st2" d="M340.1,147.2l-0.6-1c0.4,0,0.7-0.1,1-0.2c1.4-0.3,2.7-1.4,2.7-3.1c0-1.6-1-2.9-2.7-3.1
				c-0.2,1-0.3,2.1-0.7,3.1c-0.7,2.2-1.6,3.5-2.7,3.5s-2.1-1.2-2.1-3c0-2.5,2.2-4.6,4.9-4.6c2.6,0,4.3,1.8,4.3,4.1
				C344.3,145.3,342.8,146.9,340.1,147.2z M337.2,145.1c0.5,0,1-0.7,1.5-2.4c0.3-0.9,0.5-1.9,0.6-2.8c-2,0.3-3.1,2-3.1,3.4
				C336.2,144.5,336.7,145.1,337.2,145.1z"/>
			<path class="st2" d="M354.1,142.4c-0.4,1.1-1,1.9-1.7,2.7c1.1,0.8,2.5,1.4,4.3,1.7c-0.2,0.2-0.5,0.7-0.7,1
				c-1.8-0.4-3.3-1-4.4-1.9c-1.2,0.9-2.7,1.5-4.4,2c-0.1-0.3-0.4-0.7-0.6-1c1.7-0.4,3.2-0.9,4.3-1.7c-0.7-0.7-1.2-1.6-1.6-2.6l1-0.3
				c0.3,0.9,0.8,1.6,1.4,2.2c0.6-0.6,1.1-1.4,1.4-2.3L354.1,142.4z M350.6,140.6c-0.8,1-2,2.1-3,2.7c-0.2-0.2-0.6-0.6-0.8-0.8
				c1-0.5,2.2-1.4,2.8-2.3L350.6,140.6z M356.4,139.9h-9.6v-1h4.2v-1.4h1.1v1.4h4.3V139.9z M353.6,140.1c1,0.7,2.3,1.7,2.9,2.4
				l-0.9,0.7c-0.6-0.7-1.8-1.7-2.8-2.5L353.6,140.1z"/>
			<path class="st2" d="M362,143.1c-0.4,0.1-0.8,0.2-1.1,0.4v3.1c0,0.5-0.1,0.8-0.4,0.9c-0.3,0.2-0.7,0.2-1.4,0.2
				c0-0.2-0.1-0.7-0.3-0.9c0.4,0,0.8,0,1,0c0.1,0,0.2,0,0.2-0.2v-2.8c-0.4,0.1-0.8,0.3-1.2,0.4l-0.2-1c0.4-0.1,0.9-0.2,1.4-0.4v-2.1
				h-1.3v-0.9h1.3v-2.1h0.9v2.1h1.1v0.3c0.9-0.7,1.5-1.7,1.8-2.5l1,0.2c-0.1,0.2-0.2,0.5-0.3,0.7h1.6l0.1,0l0.6,0.4
				c-0.2,0.4-0.5,0.9-0.8,1.4h2.1v3.6h-0.9v-1h-0.1h-0.8c-0.7,0-0.9-0.2-0.9-0.9V141H365c-0.1,1-0.4,1.6-1.3,2
				c-0.1-0.2-0.2-0.3-0.4-0.5v1.2h-0.9v-2.9l-0.1,0.1c-0.1-0.1-0.2-0.3-0.4-0.4v0.2h-1.1v1.8l1-0.3L362,143.1z M366,145
				c0.5,1,1.4,1.6,2.8,1.8c-0.2,0.2-0.5,0.6-0.6,0.8c-1.5-0.3-2.4-1-2.9-2.2c-0.5,1.1-1.4,1.8-3.3,2.2c-0.1-0.2-0.3-0.6-0.5-0.8
				c1.8-0.4,2.6-1,3-1.9h-2.6v-0.8h2.8c0.1-0.3,0.1-0.6,0.1-0.9h0.9c0,0.3-0.1,0.6-0.1,0.9h3v0.8H366z M364,139.2
				c-0.2,0.3-0.5,0.6-0.7,0.9h1.9c0.2-0.3,0.4-0.6,0.5-0.9H364z M363.3,142.4c0.6-0.3,0.8-0.7,0.9-1.4h-0.9V142.4z M367.3,141h-1
				v0.9c0,0.2,0,0.2,0.2,0.2h0.6c0.1,0,0.2,0,0.2-0.1V141z"/>
			<path class="st2" d="M380.3,141c-0.5,1.9-1.3,3.3-2.4,4.4c0.8,0.6,1.8,1,3,1.3c-0.2,0.2-0.5,0.7-0.7,1c-1.3-0.3-2.3-0.8-3.2-1.5
				c-0.9,0.7-2,1.2-3.1,1.5c-0.1-0.3-0.4-0.7-0.6-0.9c1.1-0.3,2-0.7,2.9-1.3c-0.9-0.9-1.6-2-2.2-3.3c-0.2,1.8-0.9,3.7-2.6,5.3
				c-0.2-0.3-0.5-0.7-0.7-0.9c2.3-2,2.5-4.8,2.5-6.6v-0.8h-1.8v-1h5.9l0.2,0l0.8,0.1c-0.2,0.7-0.4,1.7-0.6,2.5h1.8l0.2,0L380.3,141z
				 M374.2,139.5c0.5,2.2,1.4,4,2.9,5.2c0.9-0.8,1.5-1.8,1.9-3.1h-1.7l-0.1,0.5l-1.1-0.2c0.3-0.9,0.5-2.1,0.7-3h-2.7V139.5z"/>
			<path class="st2" d="M392.6,143.4l-0.7,1c-0.5-0.6-1-1.2-1.4-2c0.2,2.7-0.6,5.2-3.7,5.2c-1.8,0-3.1-1-3.1-2.9
				c0-1.9,0.9-3.4,1.9-4.6c-0.5,0.1-1.3,0.2-1.7,0.2c-0.2,0-0.4,0.1-0.6,0.1l-0.1-1.1c0.2,0,0.4,0,0.6,0c1,0,2.8-0.3,3.5-0.6l0.3,1
				c-0.2,0.1-0.4,0.1-0.6,0.2c-0.7,0.5-2.3,2.4-2.3,4.6c0,1.4,0.9,2,2,2c2.5,0,3.4-2.6,2.6-6.7c-0.1-0.2-0.1-0.5-0.2-0.7l1.1-0.3
				C390.5,140.1,391,141.9,392.6,143.4z M392,139.7l-0.7,0.2c-0.2-0.5-0.4-1.1-0.7-1.6l0.7-0.2C391.5,138.5,391.8,139.2,392,139.7z
				 M393.2,139.3l-0.7,0.2c-0.2-0.5-0.5-1.1-0.7-1.6l0.7-0.2C392.7,138.1,393,138.8,393.2,139.3z"/>
			<path class="st2" d="M397.9,137.9c-0.3,0.8-0.7,1.5-1.1,2.3v7.5h-1v-5.9c-0.3,0.4-0.6,0.8-0.9,1.1c-0.1-0.2-0.4-0.8-0.6-1
				c1-1,2-2.6,2.6-4.2L397.9,137.9z M402.9,146.6c0.6,0,0.8-0.3,0.9-1.6c0.2,0.2,0.6,0.4,0.9,0.4c-0.2,1.6-0.5,2.1-1.7,2.1h-2.7
				c-1.4,0-1.8-0.4-1.8-1.7v-3.3l-1,0.4l-0.4-0.9l1.4-0.5v-2.8h1v2.4l1.4-0.5v-2.9h1v2.6l1.4-0.5l0.2-0.1l0.2-0.1l0.7,0.3l0,0.2
				c0,2,0,3.4-0.1,3.9c-0.1,0.5-0.3,0.8-0.6,0.9c-0.3,0.1-0.8,0.1-1.2,0.1c0-0.3-0.1-0.7-0.2-0.9c0.3,0,0.6,0,0.8,0
				c0.2,0,0.3,0,0.3-0.3c0.1-0.3,0.1-1.2,0.1-2.8l-1.5,0.6v4h-1v-3.6l-1.4,0.5v3.7c0,0.6,0.1,0.8,0.9,0.8H402.9z"/>
			<path class="st2" d="M414.6,142.5c0.6,0.7,1.4,1.3,2.2,1.6c-0.2,0.2-0.5,0.6-0.7,0.8c-0.5-0.3-1-0.6-1.5-1v0
				c-0.1,2.1-0.3,3-0.6,3.4c-0.2,0.2-0.5,0.3-0.8,0.4c-0.3,0-0.9,0-1.4,0c0-0.3-0.1-0.7-0.3-1c0.5,0,1.1,0,1.3,0
				c0.2,0,0.3,0,0.4-0.1c0.2-0.2,0.3-0.8,0.4-2.2h-2c-0.3,1.6-1.1,2.6-3.4,3.3c-0.1-0.3-0.4-0.7-0.6-0.9c2-0.5,2.6-1.3,2.9-2.4h-1.8
				V144c-0.4,0.4-0.9,0.7-1.5,1c-0.1-0.2-0.4-0.6-0.6-0.8c0.9-0.4,1.6-1,2.2-1.7h-2v-0.9h2.7c0.2-0.3,0.4-0.7,0.6-1.1h-2.6v-0.9h1.4
				c-0.2-0.4-0.5-1-0.8-1.4l0.8-0.3c0.4,0.5,0.8,1.2,0.9,1.6l-0.4,0.2h1c0.2-0.6,0.4-1.3,0.5-1.9l1.1,0.2c-0.1,0.6-0.3,1.2-0.5,1.8
				h1.8l-0.3-0.1c0.3-0.5,0.7-1.2,0.9-1.7l1,0.3c-0.3,0.5-0.6,1.1-0.9,1.5h1.7v0.9h-2.7c0.2,0.4,0.4,0.7,0.6,1.1h2.7v0.9H414.6z
				 M414.2,143.5c-0.3-0.3-0.6-0.7-0.9-1.1h-3.2c-0.3,0.4-0.6,0.7-0.9,1.1H414.2z M411.3,140.4c-0.2,0.4-0.3,0.7-0.5,1.1h2
				c-0.2-0.3-0.4-0.7-0.5-1.1H411.3z"/>
			<path class="st2" d="M422.9,141.3c1-0.6,2.1-1.1,2.6-1.4c0.4-0.2,0.6-0.4,0.9-0.6l0.6,1c-0.3,0.2-0.6,0.3-0.9,0.5
				c-0.7,0.4-2.2,1.1-3.2,1.7c-1,0.6-1.6,1.3-1.6,2.1c0,0.9,0.8,1.4,2.5,1.4c1.2,0,2.7-0.2,3.6-0.4l0,1.3c-0.9,0.2-2.1,0.3-3.5,0.3
				c-2.1,0-3.7-0.6-3.7-2.4c0-1.2,0.7-2.1,1.9-2.9c-0.5-0.9-1.1-2.2-1.6-3.3l1.1-0.5C421.9,139.4,422.5,140.5,422.9,141.3z"/>
			<path class="st2" d="M434.7,147.2l-0.6-1c0.4,0,0.7-0.1,1-0.2c1.4-0.3,2.7-1.4,2.7-3.1c0-1.6-1-2.9-2.7-3.1
				c-0.2,1-0.3,2.1-0.7,3.1c-0.7,2.2-1.6,3.5-2.7,3.5s-2.1-1.2-2.1-3c0-2.5,2.2-4.6,4.9-4.6c2.6,0,4.3,1.8,4.3,4.1
				C438.9,145.3,437.4,146.9,434.7,147.2z M431.8,145.1c0.5,0,1-0.7,1.5-2.4c0.3-0.9,0.5-1.9,0.6-2.8c-2,0.3-3.1,2-3.1,3.4
				C430.8,144.5,431.3,145.1,431.8,145.1z"/>
			<path class="st2" d="M444.6,137.9c-0.3,0.7-0.7,1.5-1.1,2.2v7.5h-1v-6.1c-0.4,0.5-0.7,0.9-1.1,1.3c-0.1-0.2-0.4-0.8-0.6-1
				c1.1-1,2.1-2.6,2.7-4.2L444.6,137.9z M451.3,143.8h-1.7v3.9h-1v-3.9h-1.8c-0.1,1.4-0.6,2.9-2.1,4c-0.1-0.2-0.5-0.6-0.7-0.7
				c1.3-0.8,1.7-2.1,1.8-3.2h-1.7v-1h1.7v0v-1.9h-1.5v-1h1.7c-0.1-0.5-0.5-1.3-0.9-1.9l0.9-0.4c0.4,0.6,0.8,1.4,1,1.9l-0.9,0.4h3
				l-0.8-0.3c0.3-0.5,0.8-1.4,1-2l1.1,0.4c-0.4,0.7-0.8,1.4-1.2,1.9h1.8v1h-1.5v2h1.7V143.8z M448.6,142.8v-2h-1.7v1.9v0H448.6z"/>
			<path class="st2" d="M462.6,146.4c0,0.6-0.1,0.9-0.5,1.1c-0.4,0.2-1,0.2-2.1,0.2c0-0.3-0.2-0.7-0.3-1c0.7,0,1.4,0,1.6,0
				c0.2,0,0.3-0.1,0.3-0.3v-2h-2.7v3.1h-1v-3.1h-2.5c-0.2,1.2-0.6,2.4-1.4,3.3c-0.2-0.2-0.6-0.6-0.8-0.7c1.2-1.3,1.3-3.3,1.3-4.8
				v-3.9h8.1V146.4z M457.9,143.5v-1.6h-2.4v0.4c0,0.4,0,0.8,0,1.2H457.9z M455.5,139.3v1.6h2.4v-1.6H455.5z M461.6,139.3h-2.7v1.6
				h2.7V139.3z M461.6,143.5v-1.6h-2.7v1.6H461.6z"/>
			<path class="st2" d="M467.6,139.2c-0.2,0.9-0.5,3.2-0.5,4.4c0,0.4,0,0.8,0.1,1.2c0.2-0.5,0.4-1,0.6-1.4l0.5,0.4
				c-0.3,0.8-0.7,2-0.8,2.5c0,0.2-0.1,0.4-0.1,0.5c0,0.1,0,0.3,0,0.4l-1,0.1c-0.2-0.8-0.4-2-0.4-3.5c0-1.6,0.4-3.7,0.5-4.6
				c0-0.3,0.1-0.6,0.1-0.9l1.2,0.1C467.8,138.6,467.7,139,467.6,139.2z M473.2,139c0,0.3,0,0.7,0,1.3c0.6-0.1,1.3-0.1,1.8-0.3v1.1
				c-0.6,0.1-1.2,0.2-1.8,0.2c0,1.1,0.1,2.1,0.1,2.9c0.9,0.4,1.6,0.9,2.2,1.4l-0.6,0.9c-0.5-0.5-1-0.9-1.5-1.2c0,0,0,0,0,0.1
				c0,1-0.5,1.9-2,1.9c-1.5,0-2.4-0.6-2.4-1.7c0-1,0.9-1.8,2.3-1.8c0.3,0,0.6,0,0.9,0.1c0-0.8-0.1-1.7-0.1-2.6c-0.3,0-0.6,0-0.9,0
				c-0.6,0-1.2,0-1.9-0.1l0-1c0.6,0.1,1.2,0.1,1.9,0.1c0.3,0,0.6,0,0.9,0V139c0-0.2,0-0.5-0.1-0.7h1.2
				C473.2,138.5,473.2,138.7,473.2,139z M471.1,146.2c0.8,0,1.1-0.4,1.1-1.1c0-0.1,0-0.2,0-0.3c-0.3-0.1-0.7-0.2-1-0.2
				c-0.7,0-1.3,0.3-1.3,0.8C469.9,146,470.4,146.2,471.1,146.2z"/>
			<path class="st2" d="M478.5,139.4c0.8-0.1,2.8-0.3,4.8-0.4c1.2-0.1,2.3-0.2,3-0.2v1.1c-0.6,0-1.6,0-2.1,0.2
				c-1.5,0.4-2.4,2-2.4,3.3c0,2,1.9,2.7,3.7,2.8l-0.4,1.2c-2.2-0.1-4.4-1.3-4.4-3.7c0-1.7,1-3,1.9-3.6c-1.1,0.1-3.7,0.4-4.9,0.6
				l-0.1-1.2C477.9,139.4,478.2,139.4,478.5,139.4z M485.6,142.6l-0.7,0.3c-0.3-0.6-0.6-1.1-0.9-1.5l0.7-0.3
				C485,141.5,485.4,142.2,485.6,142.6z M486.9,142.1l-0.7,0.3c-0.3-0.6-0.6-1-0.9-1.5l0.7-0.3C486.2,141,486.6,141.7,486.9,142.1z"
				/>
			<path class="st2" d="M492.8,138.1l1.2-0.1c0,0.4,0.1,0.8,0.2,1.2c0.8-0.1,1.5-0.3,2.2-0.5l0.1,1c-0.6,0.2-1.4,0.3-2.1,0.4
				c0.1,0.2,0.1,0.5,0.2,0.6c0.1,0.2,0.1,0.4,0.2,0.6c0.9-0.1,1.6-0.3,2.2-0.5l0.2,1c-0.5,0.1-1.2,0.3-1.9,0.4
				c0.2,0.4,0.4,0.8,0.7,1.2c0.1,0.2,0.3,0.4,0.5,0.5l-0.5,0.8c-0.6-0.1-1.7-0.3-2.5-0.3l0.1-0.8c0.5,0.1,1.2,0.1,1.5,0.2
				c-0.3-0.5-0.5-0.9-0.7-1.4c-1.3,0.1-3.1,0.1-4.8,0l-0.1-1c1.7,0.2,3.2,0.2,4.5,0.1c-0.1-0.2-0.1-0.3-0.2-0.5
				c-0.1-0.3-0.2-0.5-0.3-0.8c-1.1,0.1-2.4,0-3.8-0.1l-0.1-1c1.3,0.1,2.5,0.2,3.5,0.1c0,0,0-0.1,0-0.1
				C493.1,138.8,492.9,138.4,492.8,138.1z M490.8,145.1c0,0.9,0.8,1.3,2.4,1.3c1,0,1.9-0.1,2.7-0.2l-0.1,1.1
				c-0.8,0.1-1.7,0.2-2.6,0.2c-2.2,0-3.5-0.6-3.5-2.1c0-0.7,0.2-1.2,0.5-1.7l1.1,0.2C491,144.2,490.8,144.6,490.8,145.1z"/>
			<path class="st2" d="M505,138.8c0,0.1,0,0.3,0,0.6c0.9,0,1.9-0.1,2.9-0.3v1c-0.8,0.1-1.8,0.2-2.9,0.2c0,0.5,0,1,0,1.4
				c1.1,0,2.1-0.1,3-0.3l0,1c-1,0.1-1.9,0.2-3,0.2c0,0.5,0.1,1,0.1,1.5c1.4,0.4,2.5,1.2,3.2,1.7l-0.6,1c-0.6-0.6-1.5-1.2-2.5-1.6
				c0,0.2,0,0.4,0,0.6c0,0.8-0.6,1.6-2,1.6c-1.7,0-2.5-0.6-2.5-1.7c0-1.1,1-1.8,2.6-1.8c0.3,0,0.6,0,0.8,0c0-0.4,0-0.9,0-1.3
				c-0.2,0-0.4,0-0.6,0c-0.7,0-1.9-0.1-2.7-0.1l0-1c0.7,0.1,2,0.2,2.7,0.2c0.2,0,0.4,0,0.6,0c0-0.5,0-0.9,0-1.4c-0.1,0-0.3,0-0.5,0
				c-0.7,0-2-0.1-2.8-0.2l0-1c0.7,0.1,2.1,0.2,2.8,0.2c0.2,0,0.3,0,0.5,0c0-0.3,0-0.5,0-0.7c0-0.2,0-0.5-0.1-0.7h1.2
				C505.1,138.2,505,138.5,505,138.8z M503,146.4c0.6,0,1.1-0.2,1.1-0.9c0-0.2,0-0.4,0-0.6c-0.3-0.1-0.7-0.1-1-0.1
				c-0.9,0-1.4,0.4-1.4,0.8C501.6,146.1,502,146.4,503,146.4z"/>
			<path class="st2" d="M518.1,139.1c0,0.5,0,0.9,0,1.4c0.4,0,0.7-0.1,1-0.1c0.3,0,0.7,0,0.9-0.1v1.1c-0.2,0-0.7,0-1,0
				c-0.3,0-0.6,0-1.1,0c0,0.8-0.1,1.8-0.2,2.3c-0.1,0.5-0.4,0.7-0.9,0.7c-0.4,0-1.2-0.1-1.5-0.2l0-1c0.4,0.1,0.8,0.1,1.1,0.1
				c0.3,0,0.4,0,0.4-0.3c0.1-0.3,0.1-1,0.1-1.6c-1.1,0.1-2.3,0.2-3.3,0.3c0,1.1,0,2.2,0,2.6c0,1.1,0.1,1.5,1.9,1.5
				c1.1,0,2.5-0.1,3.3-0.3l0,1.2c-0.7,0.1-2.1,0.2-3.2,0.2c-2.7,0-3-0.6-3-2.4c0-0.5,0-1.6,0-2.7c-0.4,0-0.7,0.1-1,0.1
				c-0.3,0-0.9,0.1-1.2,0.2l-0.1-1.1c0.3,0,0.8,0,1.2-0.1c0.2,0,0.6-0.1,1.1-0.1c0-0.6,0-1.2,0-1.3c0-0.4,0-0.7-0.1-1.1h1.2
				c0,0.3-0.1,0.6-0.1,1c0,0.3,0,0.8,0,1.3c1-0.1,2.2-0.2,3.3-0.3c0-0.5,0-1,0-1.4c0-0.3,0-0.7-0.1-0.9h1.2
				C518.1,138.4,518.1,138.9,518.1,139.1z"/>
			<path class="st2" d="M527.1,139.2c-0.5,0.8-1.4,2.4-2,3.4c0.5-0.4,1-0.5,1.5-0.5c0.8,0,1.3,0.5,1.3,1.4c0,0.6,0,1.4,0,1.9
				c0,0.5,0.4,0.7,0.8,0.7c1.1,0,1.8-1.4,2.1-2.7l0.9,0.8c-0.6,1.8-1.5,3.1-3.2,3.1c-1.2,0-1.7-0.7-1.7-1.5c0-0.6,0-1.5-0.1-2
				c0-0.4-0.3-0.7-0.7-0.7c-0.8,0-1.6,0.8-2,1.7c-0.3,0.6-0.7,1.9-0.9,2.5l-1.2-0.4c0.8-2.2,3.2-6.7,3.7-7.8c0.1-0.3,0.3-0.6,0.5-1
				l1.2,0.5C527.3,138.8,527.2,139,527.1,139.2z"/>
			<path class="st2" d="M293.3,157.2l-3.6,3.6l3.6,3.6l-0.3,0.3l-3.6-3.6l-3.6,3.6l-0.3-0.3l3.6-3.6l-3.6-3.6l0.3-0.3l3.6,3.6
				l3.6-3.6L293.3,157.2z M286.2,161.7c-0.5,0-0.8-0.4-0.8-0.8s0.4-0.8,0.8-0.8s0.8,0.4,0.8,0.8S286.6,161.7,286.2,161.7z
				 M288.5,157.7c0-0.5,0.4-0.8,0.8-0.8s0.8,0.4,0.8,0.8s-0.4,0.8-0.8,0.8S288.5,158.2,288.5,157.7z M290.2,164
				c0,0.5-0.4,0.8-0.8,0.8s-0.8-0.4-0.8-0.8s0.4-0.8,0.8-0.8S290.2,163.5,290.2,164z M292.5,160c0.5,0,0.8,0.4,0.8,0.8
				s-0.4,0.8-0.8,0.8c-0.5,0-0.8-0.4-0.8-0.8S292,160,292.5,160z"/>
			<path class="st2" d="M301.3,162.2c-0.1,1-0.4,2.1-0.7,2.8c-0.2-0.1-0.6-0.3-0.8-0.4c0.3-0.7,0.5-1.6,0.6-2.6L301.3,162.2z
				 M302.6,161.4v4.5h-0.9v-4.5c-0.6,0-1.2,0.1-1.7,0.1l-0.1-0.9l0.8,0c0.2-0.3,0.4-0.5,0.6-0.9c-0.3-0.5-0.9-1.1-1.4-1.5l0.5-0.7
				c0.1,0.1,0.2,0.2,0.3,0.3c0.3-0.6,0.7-1.4,0.9-2l0.9,0.3c-0.4,0.7-0.9,1.6-1.3,2.2c0.2,0.2,0.4,0.4,0.5,0.6
				c0.4-0.7,0.8-1.3,1.1-1.9l0.9,0.4c-0.6,1-1.5,2.2-2.2,3.1l1.5-0.1c-0.1-0.3-0.3-0.6-0.5-0.9l0.7-0.3c0.5,0.7,0.9,1.7,1.1,2.3
				l-0.8,0.4c0-0.2-0.1-0.4-0.2-0.6L302.6,161.4z M303.6,162c0.3,0.7,0.6,1.5,0.7,2.1l-0.8,0.3c-0.1-0.6-0.4-1.4-0.7-2.1L303.6,162z
				 M308.4,155.8c0.4,1.5,1.1,3,1.9,3.9c-0.3,0.2-0.6,0.6-0.8,0.8l0-0.1v0c-0.1,3.3-0.3,4.5-0.6,4.9c-0.2,0.3-0.4,0.4-0.8,0.4
				c-0.3,0-0.7,0-1.2,0c0-0.3-0.1-0.7-0.3-0.9c0.5,0,0.9,0,1.1,0c0.2,0,0.3,0,0.4-0.1c0.2-0.2,0.3-1.2,0.5-3.8h-1.6
				c-0.2,2.3-0.6,4-2.7,4.9c-0.1-0.2-0.4-0.6-0.6-0.7c1.8-0.8,2.1-2.3,2.3-4.2h-1.2v-0.8c-0.1,0.1-0.1,0.1-0.2,0.2
				c-0.2-0.2-0.6-0.5-0.8-0.7c0.9-0.9,1.5-2.3,1.8-3.9l1,0.2c-0.3,1.6-0.9,3-1.7,4h4.3c-0.7-1-1.3-2.5-1.7-4L308.4,155.8z"/>
			<path class="st2" d="M318,161.7c0.8,1.7,2.2,2.8,4.3,3.3c-0.2,0.2-0.5,0.7-0.7,1c-2.2-0.6-3.6-1.8-4.5-3.7
				c-0.6,1.5-1.8,2.8-4.4,3.7c-0.1-0.2-0.4-0.7-0.6-0.9c2.5-0.8,3.6-2,4.1-3.3h-3.9v-1h4.2c0.1-0.5,0.1-1,0.1-1.4v-0.5h-2.3
				c-0.3,0.6-0.6,1.2-1,1.6c-0.2-0.2-0.7-0.4-1-0.5c0.8-0.9,1.5-2.3,1.9-3.8l1.1,0.2c-0.1,0.5-0.3,1-0.5,1.5h1.9v-1.8h1.1v1.8h3.5v1
				h-3.5v0.6c0,0.5,0,0.9-0.1,1.4h4.5v1H318z"/>
			<path class="st2" d="M328.4,157.8c0.6-0.1,1.1-0.2,1.6-0.4l0,1c-0.5,0.2-1.2,0.3-2,0.4c-0.5,1.6-1.5,3.5-2.4,4.7l-1.1-0.5
				c0.9-1.1,1.8-2.8,2.3-4c-0.3,0-0.5,0-0.8,0c-0.4,0-0.9,0-1.3,0l-0.1-1c0.4,0,1,0.1,1.4,0.1c0.4,0,0.7,0,1.1,0
				c0.2-0.6,0.3-1.3,0.3-1.9l1.2,0.1C328.7,156.6,328.5,157.2,328.4,157.8z M331.4,160.9c0,0.4,0,1,0.1,1.6c0.9,0.3,1.7,0.9,2.3,1.4
				l-0.6,0.9c-0.4-0.4-1-0.9-1.6-1.2c0,0.1,0,0.2,0,0.3c0,0.9-0.6,1.7-2,1.7c-1.3,0-2.3-0.5-2.3-1.7c0-1,0.9-1.8,2.3-1.8
				c0.3,0,0.6,0,0.9,0.1c0-0.9-0.1-1.9-0.1-2.6h1.1C331.4,160.1,331.4,160.5,331.4,160.9z M329.3,164.6c0.8,0,1.1-0.5,1.1-1.1
				c0-0.1,0-0.2,0-0.4c-0.3-0.1-0.7-0.1-1-0.1c-0.7,0-1.2,0.3-1.2,0.8C328.2,164.3,328.6,164.6,329.3,164.6z M330.9,158.5l0.6-0.8
				c0.8,0.4,2.1,1.1,2.6,1.5l-0.6,0.9C332.8,159.6,331.6,158.9,330.9,158.5z"/>
			<path class="st2" d="M340.1,159.7c0.9-0.5,1.8-1,2.4-1.3c0.4-0.2,0.6-0.4,0.9-0.6l0.5,1c-0.3,0.2-0.6,0.3-0.9,0.5
				c-0.7,0.4-1.9,0.9-2.9,1.6c-1,0.6-1.6,1.3-1.6,2.1c0,0.9,0.8,1.4,2.5,1.4c1.2,0,2.6-0.2,3.6-0.4l0,1.2c-0.9,0.2-2.1,0.3-3.5,0.3
				c-2.1,0-3.7-0.6-3.7-2.4c0-1.2,0.7-2.1,1.9-2.9c-0.5-0.9-1.1-2.2-1.6-3.3l1.1-0.5C339.1,157.7,339.6,158.8,340.1,159.7z
				 M345,157.9l-0.7,0.3c-0.2-0.5-0.6-1.1-0.9-1.5l0.7-0.3C344.3,156.8,344.7,157.5,345,157.9z M346.2,157.4l-0.7,0.3
				c-0.2-0.5-0.6-1.1-0.9-1.5l0.7-0.3C345.6,156.3,346,157,346.2,157.4z"/>
			<path class="st2" d="M349.6,157.5c-0.2,0.9-0.5,3-0.5,4.1c0,0.4,0,0.8,0.1,1.2c0.2-0.5,0.4-1,0.6-1.4l0.5,0.4
				c-0.3,0.8-0.7,2-0.8,2.6c0,0.2-0.1,0.4-0.1,0.5c0,0.1,0,0.3,0,0.4l-1,0.1c-0.2-0.8-0.4-2.1-0.4-3.6c0-1.6,0.4-3.5,0.5-4.4
				c0-0.3,0.1-0.6,0.1-0.9l1.2,0.1C349.8,156.9,349.7,157.3,349.6,157.5z M352.3,163c0,0.5,0.4,0.9,1.7,0.9c1,0,1.8-0.1,2.7-0.3
				l0,1.2c-0.7,0.1-1.6,0.2-2.8,0.2c-1.9,0-2.7-0.6-2.7-1.7c0-0.4,0.1-0.8,0.2-1.4l1,0.1C352.3,162.4,352.3,162.7,352.3,163z
				 M356.4,157.5v1.1c-1.3,0.1-3.3,0.1-4.6,0l0-1.1C353,157.7,355.2,157.6,356.4,157.5z"/>
			<path class="st2" d="M364,157.5c0,0.3,0,0.6,0,1c0.9,0,2.2-0.1,3.2-0.2l0,1c-1,0.1-2.3,0.2-3.2,0.2c0,0.7,0.1,1.7,0.1,2.6
				c1.4,0.4,2.6,1.2,3.4,1.9l-0.7,1c-0.7-0.7-1.6-1.4-2.7-1.8c0,0.2,0,0.4,0,0.6c0,0.9-0.5,1.8-2.2,1.8c-1.5,0-2.7-0.5-2.7-1.8
				c0-1.1,0.9-1.9,2.9-1.9c0.3,0,0.6,0,0.8,0c0-0.9-0.1-1.8-0.1-2.5c0-0.6,0-1.4,0-1.9c0-0.5,0-0.9-0.1-1.2h1.3
				C364,156.6,364,157.1,364,157.5z M361.9,164.5c0.8,0,1.1-0.4,1.1-1.1c0-0.1,0-0.3,0-0.5c-0.3-0.1-0.7-0.1-1-0.1
				c-1,0-1.6,0.3-1.6,0.9C360.4,164.3,361,164.5,361.9,164.5z"/>
			<path class="st2" d="M371.9,156.8c0.6,0,3.1-0.1,3.7-0.1c0.4,0,0.6-0.1,0.7-0.1l0.6,0.8c-0.2,0.1-0.5,0.3-0.7,0.5
				c-0.6,0.4-1.9,1.6-2.7,2.2c0.4-0.1,0.9-0.2,1.3-0.2c1.8,0,3.2,1.1,3.2,2.7c0,1.7-1.4,3-3.9,3c-1.5,0-2.5-0.7-2.5-1.7
				c0-0.8,0.7-1.6,1.8-1.6c1.4,0,2.1,0.9,2.3,1.9c0.8-0.3,1.2-0.9,1.2-1.7c0-1-1-1.8-2.4-1.8c-1.8,0-2.8,0.8-4.1,2.2l-0.8-0.8
				c0.9-0.7,2.2-1.9,2.9-2.4c0.6-0.5,1.9-1.6,2.4-2c-0.6,0-2.5,0.1-3.1,0.1c-0.3,0-0.6,0-0.8,0.1l0-1.1
				C371.3,156.8,371.6,156.8,371.9,156.8z M373.9,164.6c0.3,0,0.5,0,0.8,0c-0.1-0.8-0.6-1.4-1.3-1.4c-0.5,0-0.8,0.3-0.8,0.6
				C372.6,164.3,373.1,164.6,373.9,164.6z"/>
			<path class="st2" d="M390.5,163.3h-1.3v1.4c0,0.6-0.1,0.9-0.5,1c-0.4,0.2-1,0.2-1.9,0.2c-0.1-0.3-0.2-0.7-0.4-1
				c0.7,0,1.4,0,1.6,0c0.2,0,0.3-0.1,0.3-0.2v-1.4h-5.5v2.6h-1v-2.6h-1.3v-0.9h1.3v-4.1h3.2v-0.9h-4.1v-0.9h9.3v0.9h-4.2v0.9h3.3
				v4.1h1.3V163.3z M382.7,159.2v1.1h2.2v-1.1H382.7z M382.7,162.4h2.2v-1.2h-2.2V162.4z M385.9,159.2v1.1h2.3v-1.1H385.9z
				 M388.2,162.4v-1.2h-2.3v1.2H388.2z"/>
			<path class="st2" d="M399.4,160.6v1.5h2.5v0.9h-2.5v1.5c0,0.4,0.1,0.4,0.4,0.4h1.1c0.3,0,0.4-0.2,0.4-1.3
				c0.2,0.2,0.6,0.3,0.9,0.4c-0.1,1.4-0.4,1.8-1.2,1.8h-1.3c-1,0-1.3-0.3-1.3-1.3V163h-1.8c-0.2,1.2-0.9,2.3-3,3
				c-0.1-0.2-0.4-0.6-0.6-0.8c1.7-0.6,2.3-1.4,2.6-2.2h-2.3V162h2.5v-0.1v-1.4h-1.1v-0.4c-0.5,0.4-1,0.7-1.6,0.9
				c-0.1-0.2-0.4-0.6-0.6-0.8c0.7-0.3,1.4-0.7,2-1.3c-0.3-0.3-0.8-0.7-1.2-1.1l0.6-0.5c0.4,0.3,0.9,0.6,1.2,1
				c0.3-0.4,0.6-0.8,0.9-1.3h-2.5v-0.9h3l0.2,0l0.7,0.3c-0.4,1.2-1.2,2.3-2,3.1h4.6c-1-0.9-1.7-2.2-2.2-3.5l0.9-0.3
				c0.2,0.5,0.4,0.9,0.6,1.3c0.4-0.4,0.9-0.8,1.2-1.2l0.8,0.5c-0.5,0.5-1,0.9-1.5,1.3c0.2,0.3,0.4,0.5,0.6,0.7
				c0.5-0.4,1.1-0.9,1.4-1.3l0.8,0.5c-0.5,0.5-1.1,0.9-1.6,1.3c0.6,0.5,1.2,0.9,1.9,1.2c-0.2,0.2-0.5,0.6-0.7,0.9
				c-0.5-0.2-1-0.5-1.5-0.9v0.4H399.4z M398.3,160.6h-1.7v1.4v0.1h1.7V160.6z"/>
			<path class="st2" d="M408.4,158.5c-0.3,0.6-0.7,1.1-1.2,1.7v5.7h-1v-4.6c-0.4,0.4-0.7,0.7-1.1,1c-0.1-0.2-0.5-0.7-0.7-0.9
				c1.1-0.8,2.3-2.1,3-3.3L408.4,158.5z M408,156.2c-0.7,1-1.9,2.1-2.9,2.8c-0.1-0.2-0.4-0.6-0.6-0.8c0.9-0.6,2-1.6,2.5-2.4
				L408,156.2z M414.6,160.4H413v4.2c0,0.6-0.1,0.9-0.5,1c-0.4,0.2-1.1,0.2-2.1,0.2c0-0.3-0.2-0.7-0.3-1c0.7,0,1.4,0,1.6,0
				c0.2,0,0.3-0.1,0.3-0.2v-4.2h-3.5v-1h6.1V160.4z M414.3,157.4H409v-1h5.3V157.4z"/>
			<path class="st2" d="M418.9,157.4c-0.2,0.9-0.5,3.2-0.5,4.4c0,0.4,0,0.8,0.1,1.2c0.2-0.5,0.4-1,0.6-1.4l0.5,0.4
				c-0.3,0.8-0.7,2-0.8,2.5c0,0.2-0.1,0.4-0.1,0.5c0,0.1,0,0.3,0,0.4l-1,0.1c-0.2-0.8-0.4-2-0.4-3.5c0-1.6,0.4-3.7,0.5-4.6
				c0-0.3,0.1-0.6,0.1-0.9l1.2,0.1C419.1,156.8,419,157.2,418.9,157.4z M424.5,157.2c0,0.3,0,0.7,0,1.3c0.6-0.1,1.3-0.1,1.8-0.3v1.1
				c-0.6,0.1-1.2,0.2-1.8,0.2c0,1.1,0.1,2.1,0.1,2.9c0.9,0.4,1.6,0.9,2.2,1.4l-0.6,0.9c-0.5-0.5-1-0.9-1.5-1.2c0,0,0,0,0,0.1
				c0,1-0.5,1.9-2,1.9c-1.5,0-2.4-0.6-2.4-1.7c0-1,0.9-1.8,2.3-1.8c0.3,0,0.6,0,0.9,0.1c0-0.8-0.1-1.7-0.1-2.6c-0.3,0-0.6,0-0.9,0
				c-0.6,0-1.2,0-1.9-0.1l0-1c0.6,0.1,1.2,0.1,1.9,0.1c0.3,0,0.6,0,0.9,0v-1.3c0-0.2,0-0.5-0.1-0.7h1.2
				C424.5,156.7,424.5,156.9,424.5,157.2z M422.5,164.4c0.8,0,1.1-0.4,1.1-1.1c0-0.1,0-0.2,0-0.3c-0.3-0.1-0.7-0.2-1-0.2
				c-0.7,0-1.3,0.3-1.3,0.8C421.3,164.2,421.8,164.4,422.5,164.4z"/>
			<path class="st2" d="M438.2,158.8c-0.3,1.7-0.7,3.1-1.4,4.3c0.6,0.9,1.3,1.5,2.2,2c-0.2,0.2-0.6,0.6-0.7,0.9
				c-0.9-0.5-1.6-1.1-2.2-1.9c-0.7,0.8-1.5,1.5-2.6,2c-0.1-0.2-0.4-0.7-0.6-0.9c0.3-0.1,0.6-0.3,0.9-0.5c-1.8,0.3-3.6,0.6-5,0.8
				l-0.2-1c0.6-0.1,1.3-0.2,2-0.3v-1.5h-1.7v-0.9h1.7v-1.2h1v1.2h1.8v0.9h-1.8v1.4c0.7-0.1,1.4-0.2,2.1-0.3l0,1
				c0.7-0.4,1.2-0.9,1.7-1.5c-0.4-0.8-0.7-1.7-1-2.7c-0.2,0.3-0.4,0.6-0.6,0.9c-0.2-0.2-0.6-0.5-0.9-0.7c0.1-0.1,0.1-0.2,0.2-0.3
				l-0.3,0.2c0-0.1-0.1-0.3-0.2-0.4c-1.4,0.1-2.9,0.2-4,0.3l-0.1-1l0.8,0c0.3-0.6,0.5-1.3,0.7-1.9h-1.4v-0.9h4.9v0.9h-2.4
				c-0.3,0.6-0.6,1.3-0.8,1.9c0.6,0,1.2-0.1,1.9-0.1c-0.2-0.3-0.4-0.6-0.6-0.9l0.8-0.4c0.4,0.5,0.8,1.2,1.1,1.8
				c0.6-1.1,1-2.4,1.2-3.8l1.1,0.2c-0.1,0.6-0.3,1.3-0.4,1.8h3.3v0.9H438.2z M435.2,158.8c0.2,1.1,0.5,2.2,1,3.2
				c0.4-0.9,0.7-2,0.9-3.2L435.2,158.8L435.2,158.8z"/>
			<path class="st2" d="M443.3,157.7c-0.1,1.2-0.1,3.8-0.1,5.3c0,1.2,0.7,1.6,1.7,1.6c1.9,0,3.1-1.1,3.9-2.3l0.8,1
				c-0.7,1-2.2,2.5-4.7,2.5c-1.7,0-2.8-0.7-2.8-2.5c0-1.6,0.1-4.4,0.1-5.5c0-0.5,0-0.9-0.1-1.3l1.4,0
				C443.4,156.8,443.4,157.3,443.3,157.7z"/>
			<path class="st2" d="M456.9,157c0,0.1,0,0.3,0,0.6c0.9,0,1.9-0.1,2.9-0.3v1c-0.8,0.1-1.8,0.2-2.9,0.2c0,0.5,0,1,0,1.4
				c1.1,0,2.1-0.1,3-0.3l0,1c-1,0.1-1.9,0.2-3,0.2c0,0.5,0.1,1,0.1,1.5c1.4,0.4,2.5,1.2,3.2,1.7l-0.6,1c-0.6-0.6-1.5-1.2-2.5-1.6
				c0,0.2,0,0.4,0,0.6c0,0.8-0.6,1.6-2,1.6c-1.7,0-2.5-0.6-2.5-1.7c0-1.1,1-1.8,2.6-1.8c0.3,0,0.6,0,0.8,0c0-0.4,0-0.9,0-1.3
				c-0.2,0-0.4,0-0.6,0c-0.7,0-1.9-0.1-2.7-0.1l0-1c0.7,0.1,2,0.2,2.7,0.2c0.2,0,0.4,0,0.6,0c0-0.5,0-0.9,0-1.4c-0.1,0-0.3,0-0.5,0
				c-0.7,0-2-0.1-2.8-0.2l0-1c0.7,0.1,2.1,0.2,2.8,0.2c0.2,0,0.3,0,0.5,0c0-0.3,0-0.5,0-0.7c0-0.2,0-0.5-0.1-0.7h1.2
				C456.9,156.4,456.9,156.7,456.9,157z M454.8,164.6c0.6,0,1.1-0.2,1.1-0.9c0-0.2,0-0.4,0-0.6c-0.3-0.1-0.7-0.1-1-0.1
				c-0.9,0-1.4,0.4-1.4,0.8C453.5,164.3,453.9,164.6,454.8,164.6z"/>
			<path class="st2" d="M469.9,157.3c0,0.5,0,0.9,0,1.4c0.4,0,0.7-0.1,1-0.1c0.3,0,0.7,0,0.9-0.1v1.1c-0.2,0-0.7,0-1,0
				c-0.3,0-0.6,0-1.1,0c0,0.8-0.1,1.8-0.2,2.3c-0.1,0.5-0.4,0.7-0.9,0.7c-0.4,0-1.2-0.1-1.5-0.2l0-1c0.4,0.1,0.8,0.1,1.1,0.1
				c0.3,0,0.4,0,0.4-0.3c0.1-0.3,0.1-1,0.1-1.6c-1.1,0.1-2.3,0.2-3.3,0.3c0,1.1,0,2.2,0,2.6c0,1.1,0.1,1.5,1.9,1.5
				c1.1,0,2.5-0.1,3.3-0.3l0,1.2c-0.7,0.1-2.1,0.2-3.2,0.2c-2.7,0-3-0.6-3-2.4c0-0.5,0-1.6,0-2.7c-0.4,0-0.7,0.1-1,0.1
				c-0.3,0-0.9,0.1-1.2,0.2l-0.1-1.1c0.3,0,0.8,0,1.2-0.1c0.2,0,0.6-0.1,1.1-0.1c0-0.6,0-1.2,0-1.3c0-0.4,0-0.7-0.1-1.1h1.2
				c0,0.3-0.1,0.6-0.1,1c0,0.3,0,0.8,0,1.3c1-0.1,2.2-0.2,3.3-0.3c0-0.5,0-1,0-1.4c0-0.3,0-0.7-0.1-0.9h1.2
				C469.9,156.6,469.9,157.1,469.9,157.3z"/>
			<path class="st2" d="M478.9,157.4c-0.5,0.8-1.4,2.4-2,3.4c0.5-0.4,1-0.5,1.5-0.5c0.8,0,1.3,0.5,1.3,1.4c0,0.6,0,1.4,0,1.9
				c0,0.5,0.4,0.7,0.8,0.7c1.1,0,1.8-1.4,2.1-2.7l0.9,0.8c-0.6,1.8-1.5,3.1-3.2,3.1c-1.2,0-1.7-0.7-1.7-1.5c0-0.6,0-1.5-0.1-2
				c0-0.4-0.3-0.7-0.7-0.7c-0.8,0-1.6,0.8-2,1.7c-0.3,0.6-0.7,1.9-0.9,2.5l-1.2-0.4c0.8-2.2,3.2-6.7,3.7-7.8c0.1-0.3,0.3-0.6,0.5-1
				l1.2,0.5C479.2,157,479,157.2,478.9,157.4z"/>
			<path class="st2" d="M293.3,175.4l-3.6,3.6l3.6,3.6L293,183l-3.6-3.6l-3.6,3.6l-0.3-0.3l3.6-3.6l-3.6-3.6l0.3-0.3l3.6,3.6
				l3.6-3.6L293.3,175.4z M286.2,179.9c-0.5,0-0.8-0.4-0.8-0.8s0.4-0.8,0.8-0.8s0.8,0.4,0.8,0.8S286.6,179.9,286.2,179.9z
				 M288.5,175.9c0-0.5,0.4-0.8,0.8-0.8s0.8,0.4,0.8,0.8s-0.4,0.8-0.8,0.8S288.5,176.4,288.5,175.9z M290.2,182.2
				c0,0.5-0.4,0.8-0.8,0.8s-0.8-0.4-0.8-0.8s0.4-0.8,0.8-0.8S290.2,181.7,290.2,182.2z M292.5,178.2c0.5,0,0.8,0.4,0.8,0.8
				s-0.4,0.8-0.8,0.8c-0.5,0-0.8-0.4-0.8-0.8S292,178.2,292.5,178.2z"/>
			<path class="st2" d="M306.8,178.8v1.5h2.5v0.9h-2.5v1.5c0,0.4,0.1,0.4,0.4,0.4h1.1c0.3,0,0.4-0.2,0.4-1.3
				c0.2,0.2,0.6,0.3,0.9,0.4c-0.1,1.4-0.4,1.8-1.2,1.8h-1.3c-1,0-1.3-0.3-1.3-1.3v-1.5H304c-0.2,1.2-0.9,2.3-3,3
				c-0.1-0.2-0.4-0.6-0.6-0.8c1.7-0.6,2.3-1.4,2.6-2.2h-2.3v-0.9h2.5v-0.1v-1.4H302v-0.4c-0.5,0.4-1,0.7-1.6,0.9
				c-0.1-0.2-0.4-0.6-0.6-0.8c0.7-0.3,1.4-0.7,2-1.3c-0.3-0.3-0.8-0.7-1.2-1.1l0.6-0.5c0.4,0.3,0.9,0.6,1.2,1
				c0.3-0.4,0.6-0.8,0.9-1.3h-2.5v-0.9h3l0.2,0l0.7,0.3c-0.4,1.2-1.2,2.3-2,3.1h4.6c-1-0.9-1.7-2.2-2.2-3.5l0.9-0.3
				c0.2,0.5,0.4,0.9,0.6,1.3c0.4-0.4,0.9-0.8,1.2-1.2l0.8,0.5c-0.5,0.5-1,0.9-1.5,1.3c0.2,0.3,0.4,0.5,0.6,0.7
				c0.5-0.4,1.1-0.9,1.4-1.3l0.8,0.5c-0.5,0.5-1.1,0.9-1.6,1.3c0.6,0.5,1.2,0.9,1.9,1.2c-0.2,0.2-0.5,0.6-0.7,0.9
				c-0.5-0.2-1-0.5-1.5-0.9v0.4H306.8z M305.8,178.8h-1.7v1.4v0.1h1.7V178.8z"/>
			<path class="st2" d="M315.9,176.7c-0.3,0.6-0.7,1.1-1.2,1.7v5.7h-1v-4.6c-0.4,0.4-0.7,0.7-1.1,1c-0.1-0.2-0.5-0.7-0.7-0.9
				c1.1-0.8,2.3-2.1,3-3.3L315.9,176.7z M315.5,174.4c-0.7,1-1.9,2.1-2.9,2.8c-0.1-0.2-0.4-0.6-0.6-0.8c0.9-0.6,2-1.6,2.5-2.4
				L315.5,174.4z M322.1,178.6h-1.6v4.2c0,0.6-0.1,0.9-0.5,1c-0.4,0.2-1.1,0.2-2.1,0.2c0-0.3-0.2-0.7-0.3-1c0.7,0,1.4,0,1.6,0
				c0.2,0,0.3-0.1,0.3-0.2v-4.2H316v-1h6.1V178.6z M321.8,175.6h-5.3v-1h5.3V175.6z"/>
			<path class="st2" d="M334.2,175.3v1h-8.1v1.8c0,1.7-0.2,4.3-1.1,6c-0.2-0.2-0.6-0.5-0.9-0.6c0.9-1.6,1-3.8,1-5.4v-2.8h4V174h1.1
				v1.3H334.2z M330.5,177.7h3.6v0.9h-3.6v1.4h2.9v4.1h-1v-0.4h-4.4v0.4h-1V180h2.5v-3.5h1V177.7z M332.3,180.9h-4.4v1.8h4.4V180.9z
				"/>
			<path class="st2" d="M341.6,183.6l-0.6-1c0.4,0,0.7-0.1,1-0.2c1.4-0.3,2.7-1.4,2.7-3.1c0-1.6-1-2.9-2.7-3.1
				c-0.2,1-0.3,2.1-0.7,3.1c-0.7,2.2-1.6,3.5-2.7,3.5s-2.1-1.2-2.1-3c0-2.5,2.2-4.6,4.9-4.6c2.6,0,4.3,1.8,4.3,4.1
				C345.7,181.7,344.2,183.3,341.6,183.6z M338.6,181.5c0.5,0,1-0.7,1.5-2.4c0.3-0.9,0.5-1.9,0.6-2.8c-2,0.3-3.1,2-3.1,3.4
				C337.6,180.9,338.1,181.5,338.6,181.5z"/>
			<path class="st2" d="M350.7,175.1c0.6,0,1.9-0.1,2.4-0.1c0.2,0,0.5-0.1,0.6-0.1l0.7,0.5c-0.1,0.1-0.2,0.3-0.3,0.4
				c-0.3,0.5-0.7,1.5-1.2,2.5c1,0.1,1.9,0.4,2.8,0.8c0-0.2,0.1-0.4,0.1-0.6c0-0.4,0-0.8,0-1.1l1.1,0.1c0,0.8-0.1,1.5-0.2,2.1
				c0.5,0.3,0.9,0.6,1.3,0.8l-0.5,1.2c-0.3-0.3-0.7-0.5-1.1-0.8c-0.5,1.4-1.3,2.4-2.8,3.1l-0.9-0.8c1.7-0.7,2.5-1.8,2.8-3
				c-0.9-0.5-1.8-0.8-2.9-1c-0.4,1-0.9,2.2-1.3,2.8c-0.4,0.6-0.9,0.8-1.5,0.8c-0.9,0-1.5-0.6-1.5-1.6c0-1.7,1.5-2.9,3.7-3
				c0.4-0.8,0.7-1.7,1-2.3c-0.4,0-1.6,0.1-2.1,0.1c-0.2,0-0.6,0-0.9,0.1l0-1.1C350.2,175.1,350.5,175.1,350.7,175.1z M349.7,181.8
				c0.2,0,0.4-0.1,0.6-0.4c0.4-0.5,0.7-1.3,1.1-2.1c-1.4,0.2-2.3,1-2.3,1.9C349.2,181.5,349.4,181.8,349.7,181.8z"/>
			<path class="st2" d="M361.5,181.2c0,0.8,0.8,1.3,2.5,1.3c1.5,0,2.9-0.2,3.8-0.4l0,1.2c-0.9,0.2-2.2,0.4-3.8,0.4
				c-2.4,0-3.6-0.8-3.6-2.2c0-0.6,0.1-1.1,0.2-1.6l1.1,0.1C361.6,180.4,361.5,180.8,361.5,181.2z M364,175.6c1.1,0,2.2-0.1,3.1-0.2
				v1.1c-0.8,0.1-2,0.1-3.1,0.1c-1.1,0-2.1,0-2.9-0.1v-1.1C361.9,175.6,362.9,175.6,364,175.6z M368.3,175.8l-0.7,0.3
				c-0.2-0.5-0.6-1.1-0.9-1.5l0.7-0.3C367.7,174.7,368.1,175.4,368.3,175.8z M369.6,175.3l-0.7,0.3c-0.2-0.5-0.6-1.1-0.9-1.5
				l0.7-0.3C368.9,174.3,369.3,174.9,369.6,175.3z"/>
			<path class="st2" d="M373.9,177.2h2v0.9h-2v0.7c0.5,0.4,1.7,1.4,2,1.7l-0.6,0.9c-0.3-0.4-0.9-1-1.4-1.5v4.1h-1v-4.4
				c-0.5,1.1-1.2,2.2-1.9,2.9c-0.1-0.3-0.4-0.7-0.5-1c0.8-0.8,1.7-2.2,2.2-3.5h-2v-0.9h2.2v-1.6c-0.7,0.1-1.4,0.2-2,0.3
				c0-0.2-0.2-0.6-0.3-0.8c1.6-0.2,3.4-0.6,4.5-1.1l0.7,0.8c-0.5,0.2-1.2,0.4-1.9,0.6V177.2z M377.6,181.4h-1v-6.1h1V181.4z
				 M380.2,174.2v8.6c0,0.6-0.2,0.9-0.5,1.1c-0.4,0.2-1.1,0.2-2.1,0.2c-0.1-0.3-0.2-0.8-0.4-1.1c0.7,0,1.4,0,1.7,0
				c0.2,0,0.3-0.1,0.3-0.3v-8.6H380.2z"/>
			<path class="st2" d="M392,182.8c0,0.6-0.1,0.9-0.5,1.1c-0.4,0.2-1,0.2-2.1,0.2c0-0.3-0.2-0.7-0.3-1c0.7,0,1.4,0,1.6,0
				c0.2,0,0.3-0.1,0.3-0.3v-2h-2.7v3.1h-1v-3.1h-2.5c-0.2,1.2-0.6,2.4-1.4,3.3c-0.2-0.2-0.6-0.6-0.8-0.7c1.2-1.3,1.3-3.3,1.3-4.8
				v-3.9h8.1V182.8z M387.3,179.9v-1.6h-2.4v0.4c0,0.4,0,0.8,0,1.2H387.3z M384.9,175.7v1.6h2.4v-1.6H384.9z M391,175.7h-2.7v1.6
				h2.7V175.7z M391,179.9v-1.6h-2.7v1.6H391z"/>
			<path class="st2" d="M397.4,175.6v6.9c0,0.6-0.1,0.9-0.5,1c-0.4,0.2-0.9,0.2-1.8,0.2c0-0.3-0.2-0.7-0.3-1c0.6,0,1.1,0,1.3,0
				c0.2,0,0.2-0.1,0.2-0.2v-6.9h-1.6v-1h3.9v1H397.4z M401.3,182.6c-0.7,0.5-1.8,1.1-2.8,1.4c-0.1-0.2-0.4-0.5-0.6-0.7
				c0.9-0.3,2-0.8,2.6-1.3L401.3,182.6z M401,176.3c0.1-0.3,0.2-0.6,0.2-0.9h-2.3v-0.9h6v0.9h-2.5c-0.1,0.3-0.2,0.6-0.3,0.9h2.5v5.7
				h-5.2v-5.7H401z M403.5,177h-3.3v0.9h3.3V177z M403.5,178.7h-3.3v0.9h3.3V178.7z M403.5,180.3h-3.3v0.9h3.3V180.3z M402.9,182.1
				c0.7,0.4,1.7,1,2.2,1.4l-0.8,0.6c-0.5-0.4-1.4-1-2.1-1.4L402.9,182.1z"/>
			<path class="st2" d="M409.1,175.5c-0.3,1.4-0.7,3.8-0.3,5.4c0.1-0.4,0.4-1,0.6-1.5l0.6,0.4c-0.3,0.8-0.6,2-0.7,2.5
				c0,0.2-0.1,0.4-0.1,0.5c0,0.1,0,0.3,0,0.4l-1,0.1c-0.2-0.7-0.6-2.2-0.6-3.5c0-1.8,0.3-3.5,0.4-4.4c0-0.3,0.1-0.6,0.1-0.8l1.3,0.1
				C409.3,175,409.2,175.3,409.1,175.5z M414.8,175.3c0,0.2,0,0.9,0,1.6c0.6-0.1,1.2-0.1,1.7-0.2l0,1.1c-0.5,0.1-1.1,0.1-1.7,0.2
				c0,0.2,0,0.3,0,0.4c0,2.6-0.1,4.3-2.4,5.6l-1-0.8c0.4-0.2,0.9-0.5,1.2-0.8c1-1,1.1-2.1,1.1-4.1c0-0.1,0-0.2,0-0.4
				c-0.5,0-0.9,0-1.3,0c-0.5,0-1.2,0-1.7-0.1v-1.1c0.5,0.1,1.1,0.1,1.7,0.1c0.4,0,0.9,0,1.3,0c0-0.7,0-1.3-0.1-1.6
				c0-0.3-0.1-0.5-0.1-0.7h1.3C414.8,174.8,414.8,175,414.8,175.3z"/>
			<path class="st2" d="M424.3,175.2c0,0.1,0,0.3,0,0.6c0.9,0,1.9-0.1,2.9-0.3v1c-0.8,0.1-1.8,0.2-2.9,0.2c0,0.5,0,1,0,1.4
				c1.1,0,2.1-0.1,3-0.3l0,1c-1,0.1-1.9,0.2-3,0.2c0,0.5,0.1,1,0.1,1.5c1.4,0.4,2.5,1.2,3.2,1.7l-0.6,1c-0.6-0.6-1.5-1.2-2.5-1.6
				c0,0.2,0,0.4,0,0.6c0,0.8-0.6,1.6-2,1.6c-1.7,0-2.5-0.6-2.5-1.7c0-1.1,1-1.8,2.6-1.8c0.3,0,0.6,0,0.8,0c0-0.4,0-0.9,0-1.3
				c-0.2,0-0.4,0-0.6,0c-0.7,0-1.9-0.1-2.7-0.1l0-1c0.7,0.1,2,0.2,2.7,0.2c0.2,0,0.4,0,0.6,0c0-0.5,0-0.9,0-1.4c-0.1,0-0.3,0-0.5,0
				c-0.7,0-2-0.1-2.8-0.2l0-1c0.7,0.1,2.1,0.2,2.8,0.2c0.2,0,0.3,0,0.5,0c0-0.3,0-0.5,0-0.7c0-0.2,0-0.5-0.1-0.7h1.2
				C424.4,174.6,424.4,174.9,424.3,175.2z M422.3,182.8c0.6,0,1.1-0.2,1.1-0.9c0-0.2,0-0.4,0-0.6c-0.3-0.1-0.7-0.1-1-0.1
				c-0.9,0-1.4,0.4-1.4,0.8C420.9,182.5,421.4,182.8,422.3,182.8z"/>
			<path class="st2" d="M435.9,175.2c0,0.1,0,0.3,0,0.6h3.3l0,1c-0.6,0-1.7-0.1-3.3-0.1c0,0.6,0,1.2,0,1.7c0.3,0.4,0.4,0.9,0.4,1.5
				c0,1.5-0.8,3.2-3.4,4L432,183c1.3-0.3,2.3-0.8,2.8-1.6c-0.2,0.1-0.5,0.2-0.8,0.2c-0.9,0-1.8-0.7-1.8-1.9c0-1.2,0.9-2,2-2
				c0.2,0,0.4,0,0.6,0.1c0-0.3,0-0.6,0-0.9c-1.7,0-3.5,0.1-4.8,0.2l0-1.1c1.2,0,3.3-0.1,4.9-0.1c0-0.2,0-0.4,0-0.6
				c0-0.4-0.1-0.7-0.1-0.8h1.3C435.9,174.6,435.9,175.1,435.9,175.2z M434.2,180.6c0.6,0,1-0.5,0.9-1.5c-0.2-0.4-0.5-0.5-0.9-0.5
				c-0.5,0-1,0.4-1,1C433.2,180.2,433.7,180.6,434.2,180.6z"/>
			<path class="st2" d="M293.3,193.6l-3.6,3.6l3.6,3.6l-0.3,0.3l-3.6-3.6l-3.6,3.6l-0.3-0.3l3.6-3.6l-3.6-3.6l0.3-0.3l3.6,3.6
				l3.6-3.6L293.3,193.6z M286.2,198.1c-0.5,0-0.8-0.4-0.8-0.8s0.4-0.8,0.8-0.8s0.8,0.4,0.8,0.8S286.6,198.1,286.2,198.1z
				 M288.5,194.1c0-0.5,0.4-0.8,0.8-0.8s0.8,0.4,0.8,0.8s-0.4,0.8-0.8,0.8S288.5,194.6,288.5,194.1z M290.2,200.4
				c0,0.5-0.4,0.8-0.8,0.8s-0.8-0.4-0.8-0.8s0.4-0.8,0.8-0.8S290.2,199.9,290.2,200.4z M292.5,196.4c0.5,0,0.8,0.4,0.8,0.8
				s-0.4,0.8-0.8,0.8c-0.5,0-0.8-0.4-0.8-0.8S292,196.4,292.5,196.4z"/>
			<path class="st2" d="M307.6,194.6c-0.4,0.9-1,2.1-1.8,3.1c1.1,1,2.5,2.4,3.1,3.2l-1,0.9c-0.7-1-1.8-2.2-2.9-3.2
				c-1.2,1.3-2.7,2.4-4.2,3.2l-0.9-0.9c1.8-0.7,3.4-2,4.5-3.2c0.7-0.8,1.5-2,1.7-2.9h-4c-0.4,0-1,0.1-1.2,0.1v-1.2
				c0.2,0,0.9,0.1,1.2,0.1h4.1c0.4,0,0.8,0,1-0.1l0.7,0.5C307.8,194.1,307.7,194.4,307.6,194.6z"/>
			<path class="st2" d="M315.5,193.7c0,0.1-0.1,0.1-0.1,0.2h2.7c0.3,0,0.6,0,0.8-0.1l0.9,0.5c-0.1,0.2-0.2,0.5-0.3,0.7
				c-0.3,1-0.9,2.2-1.7,3.3c0.5,0.3,0.9,0.7,1.2,0.9l-0.8,1c-0.3-0.3-0.7-0.6-1.2-1c-1,1.1-2.3,2-4.1,2.7l-1-0.9
				c1.9-0.6,3.2-1.5,4.2-2.5c-0.8-0.5-1.6-1.1-2.2-1.5l0.8-0.8c0.7,0.4,1.4,0.9,2.2,1.4c0.6-0.9,1.2-2,1.4-2.8h-3.5
				c-0.7,1-1.7,2.1-2.9,2.9l-0.9-0.7c1.9-1.2,3-2.8,3.5-3.8c0.1-0.2,0.3-0.7,0.4-1l1.3,0.4C315.8,193.1,315.6,193.5,315.5,193.7z"/>
			<path class="st2" d="M326.3,199c1.8-1.1,3.1-2.7,3.8-4.1l0.7,1.2c-0.8,1.4-2.1,2.9-3.9,4c-1.1,0.7-2.5,1.3-4.2,1.6l-0.7-1.1
				C323.9,200.3,325.3,199.7,326.3,199z M326,195.5l-0.9,0.9c-0.6-0.6-1.9-1.8-2.8-2.3l0.8-0.9C323.9,193.7,325.4,194.9,326,195.5z"
				/>
			<path class="st2" d="M340.6,192.2c0.7,0,1.3,0.6,1.3,1.3c0,0.7-0.6,1.3-1.3,1.3c-0.1,0-0.2,0-0.3,0c0,0.1,0,0.1,0,0.2
				c-0.3,1.1-0.8,2.9-1.7,4c-1,1.3-2.4,2.4-4.4,3l-0.9-1c2.1-0.5,3.4-1.5,4.3-2.6c0.7-1,1.2-2.4,1.4-3.4h-5.4c-0.5,0-0.9,0-1.2,0
				v-1.2c0.3,0,0.8,0.1,1.2,0.1h5.3c0.1,0,0.3,0,0.5,0c0-0.1,0-0.2,0-0.3C339.4,192.8,339.9,192.2,340.6,192.2z M340.6,194.1
				c0.4,0,0.7-0.3,0.7-0.7s-0.3-0.7-0.7-0.7s-0.7,0.3-0.7,0.7S340.3,194.1,340.6,194.1z"/>
			<path class="st2" d="M348.3,193.6c0,0.4,0,0.7-0.1,1.1h2.4c0.3,0,0.5,0,0.8-0.1l0.8,0.4c0,0.2-0.1,0.4-0.1,0.6
				c0,1.1-0.2,4.3-0.7,5.3c-0.2,0.5-0.6,0.7-1.3,0.7c-0.6,0-1.2,0-1.8-0.1l-0.1-1.2c0.6,0.1,1.1,0.1,1.6,0.1c0.3,0,0.5-0.1,0.6-0.4
				c0.4-0.8,0.5-3.3,0.5-4.4h-2.8c-0.4,3.1-1.5,4.7-3.4,6.1l-1-0.8c0.4-0.2,0.9-0.5,1.3-0.9c1.1-1,1.7-2.3,2-4.3h-1.7
				c-0.4,0-0.9,0-1.3,0v-1.1c0.4,0,0.9,0.1,1.3,0.1h1.8c0-0.3,0-0.7,0-1.1c0-0.2,0-0.7-0.1-0.9h1.3
				C348.4,192.9,348.4,193.4,348.3,193.6z"/>
			<path class="st2" d="M356.9,196.6h6c0.5,0,1,0,1.2-0.1v1.4c-0.2,0-0.7-0.1-1.2-0.1h-6c-0.6,0-1.3,0-1.6,0.1v-1.4
				C355.6,196.5,356.3,196.6,356.9,196.6z"/>
			<path class="st2" d="M368.2,194.2c0-0.4,0-0.9-0.1-1.2h1.4c0,0.4-0.1,0.8-0.1,1.2c0,0.4,0,1,0,1.7c1.5,0.4,3.6,1.2,4.7,1.8
				l-0.5,1.2c-1.2-0.6-3-1.3-4.2-1.7c0,1.5,0,3,0,3.4c0,0.3,0,1,0.1,1.4h-1.3c0.1-0.4,0.1-1,0.1-1.4V194.2z M373.2,195.1l-0.8,0.3
				c-0.3-0.6-0.6-1.2-1-1.7l0.7-0.3C372.5,193.8,373,194.5,373.2,195.1z M374.7,194.4l-0.8,0.4c-0.3-0.6-0.6-1.1-1-1.6l0.7-0.3
				C373.9,193.2,374.4,193.9,374.7,194.4z"/>
			<path class="st2" d="M381.8,201.8l-0.6-1c0.4,0,0.7-0.1,1-0.2c1.4-0.3,2.7-1.4,2.7-3.1c0-1.6-1-2.9-2.7-3.1
				c-0.2,1-0.3,2.1-0.7,3.1c-0.7,2.2-1.6,3.5-2.7,3.5s-2.1-1.2-2.1-3c0-2.5,2.2-4.6,4.9-4.6c2.6,0,4.3,1.8,4.3,4.1
				C385.9,199.9,384.4,201.5,381.8,201.8z M378.8,199.7c0.5,0,1-0.7,1.5-2.4c0.3-0.9,0.5-1.9,0.6-2.8c-2,0.3-3.1,2-3.1,3.4
				C377.8,199.1,378.3,199.7,378.8,199.7z"/>
			<path class="st2" d="M389.9,199.4c0,0.8,0.8,1.3,2.5,1.3c1.5,0,2.9-0.2,3.8-0.4l0,1.2c-0.9,0.2-2.2,0.4-3.8,0.4
				c-2.4,0-3.6-0.8-3.6-2.2c0-0.6,0.1-1.1,0.2-1.6l1.1,0.1C390,198.6,389.9,199,389.9,199.4z M392.4,193.8c1.1,0,2.2-0.1,3.1-0.2
				v1.1c-0.8,0.1-2,0.1-3.1,0.1c-1.1,0-2.1,0-2.9-0.1v-1.1C390.2,193.8,391.2,193.8,392.4,193.8z M396.6,194l-0.7,0.3
				c-0.2-0.5-0.6-1.1-0.9-1.5l0.7-0.3C396,192.9,396.4,193.6,396.6,194z M397.9,193.5l-0.7,0.3c-0.2-0.5-0.6-1.1-0.9-1.5l0.7-0.3
				C397.3,192.5,397.7,193.1,397.9,193.5z"/>
			<path class="st2" d="M402.3,195.4h2v0.9h-2v0.7c0.5,0.4,1.7,1.4,2,1.7l-0.6,0.9c-0.3-0.4-0.9-1-1.4-1.5v4.1h-1v-4.4
				c-0.5,1.1-1.2,2.2-1.9,2.9c-0.1-0.3-0.4-0.7-0.5-1c0.8-0.8,1.7-2.2,2.2-3.5h-2v-0.9h2.2v-1.6c-0.7,0.1-1.4,0.2-2,0.3
				c0-0.2-0.2-0.6-0.3-0.8c1.6-0.2,3.4-0.6,4.5-1.1l0.7,0.8c-0.5,0.2-1.2,0.4-1.9,0.6V195.4z M405.9,199.6h-1v-6.1h1V199.6z
				 M408.6,192.4v8.6c0,0.6-0.2,0.9-0.5,1.1c-0.4,0.2-1.1,0.2-2.1,0.2c-0.1-0.3-0.2-0.8-0.4-1.1c0.7,0,1.4,0,1.7,0
				c0.2,0,0.3-0.1,0.3-0.3v-8.6H408.6z"/>
			<path class="st2" d="M420.4,201c0,0.6-0.1,0.9-0.5,1.1c-0.4,0.2-1,0.2-2.1,0.2c0-0.3-0.2-0.7-0.3-1c0.7,0,1.4,0,1.6,0
				c0.2,0,0.3-0.1,0.3-0.3v-2h-2.7v3.1h-1V199h-2.5c-0.2,1.2-0.6,2.4-1.4,3.3c-0.2-0.2-0.6-0.6-0.8-0.7c1.2-1.3,1.3-3.3,1.3-4.8
				v-3.9h8.1V201z M415.7,198.1v-1.6h-2.4v0.4c0,0.4,0,0.8,0,1.2H415.7z M413.3,193.9v1.6h2.4v-1.6H413.3z M419.4,193.9h-2.7v1.6
				h2.7V193.9z M419.4,198.1v-1.6h-2.7v1.6H419.4z"/>
			<path class="st2" d="M425.4,193.8c-0.2,0.9-0.5,3.2-0.5,4.4c0,0.4,0,0.8,0.1,1.2c0.2-0.5,0.4-1,0.6-1.4l0.5,0.4
				c-0.3,0.8-0.7,2-0.8,2.5c0,0.2-0.1,0.4-0.1,0.5c0,0.1,0,0.3,0,0.4l-1,0.1c-0.2-0.8-0.4-2-0.4-3.5c0-1.6,0.4-3.7,0.5-4.6
				c0-0.3,0.1-0.6,0.1-0.9l1.2,0.1C425.6,193.2,425.5,193.6,425.4,193.8z M431,193.6c0,0.3,0,0.7,0,1.3c0.6-0.1,1.3-0.1,1.8-0.3v1.1
				c-0.6,0.1-1.2,0.2-1.8,0.2c0,1.1,0.1,2.1,0.1,2.9c0.9,0.4,1.6,0.9,2.2,1.4l-0.6,0.9c-0.5-0.5-1-0.9-1.5-1.2c0,0,0,0,0,0.1
				c0,1-0.5,1.9-2,1.9c-1.5,0-2.4-0.6-2.4-1.7c0-1,0.9-1.8,2.3-1.8c0.3,0,0.6,0,0.9,0.1c0-0.8-0.1-1.7-0.1-2.6c-0.3,0-0.6,0-0.9,0
				c-0.6,0-1.2,0-1.9-0.1l0-1c0.6,0.1,1.2,0.1,1.9,0.1c0.3,0,0.6,0,0.9,0v-1.3c0-0.2,0-0.5-0.1-0.7h1.2
				C431,193.1,431,193.3,431,193.6z M428.9,200.8c0.8,0,1.1-0.4,1.1-1.1c0-0.1,0-0.2,0-0.3c-0.3-0.1-0.7-0.2-1-0.2
				c-0.7,0-1.3,0.3-1.3,0.8C427.7,200.6,428.2,200.8,428.9,200.8z"/>
			<path class="st2" d="M435.2,199.7l0.9-0.8c0.8,0.6,1.8,1.7,2.4,2.4l-0.9,0.8C436.9,201.2,436,200.3,435.2,199.7z"/>
			<path class="st2" d="M442.3,200.4h1.8V195h-1.5v-0.8c0.8-0.1,1.3-0.3,1.8-0.6h1v6.8h1.6v1h-4.6V200.4z"/>
			<path class="st2" d="M458.9,192.6v9.7h-1.1v-0.6h-7v0.6h-1.1v-9.7H458.9z M457.8,200.7v-7.1h-7v7.1H457.8z M456.4,195.2v4h-4.3
				v-4H456.4z M455.4,196.1H453v2.2h2.3V196.1z"/>
			<path class="st2" d="M463.6,193.9c-0.2,0.9-0.5,3-0.5,4.1c0,0.4,0,0.8,0.1,1.2c0.2-0.5,0.4-1,0.6-1.4l0.5,0.4
				c-0.3,0.8-0.7,2-0.8,2.6c0,0.2-0.1,0.4-0.1,0.5c0,0.1,0,0.3,0,0.4l-1,0.1c-0.2-0.8-0.4-2.1-0.4-3.6c0-1.6,0.4-3.5,0.5-4.4
				c0-0.3,0.1-0.6,0.1-0.9l1.2,0.1C463.7,193.3,463.6,193.7,463.6,193.9z M466.2,199.4c0,0.5,0.4,0.9,1.7,0.9c1,0,1.8-0.1,2.7-0.3
				l0,1.2c-0.7,0.1-1.6,0.2-2.8,0.2c-1.9,0-2.7-0.6-2.7-1.7c0-0.4,0.1-0.8,0.2-1.4l1,0.1C466.3,198.8,466.2,199.1,466.2,199.4z
				 M470.4,193.9v1.1c-1.3,0.1-3.3,0.1-4.6,0l0-1.1C467,194.1,469.2,194,470.4,193.9z"/>
			<path class="st2" d="M474.2,195.2c0.9-0.3,3.1-1.1,4.7-1.1c1.9,0,3.4,1.1,3.4,3c0,2.6-2.5,4-6.1,4.2l-0.5-1.1
				c2.9-0.1,5.4-0.9,5.4-3c0-1.1-0.8-2-2.2-2c-1.7,0-4.4,1.2-5.4,1.6l-0.5-1.2C473.3,195.5,473.8,195.3,474.2,195.2z"/>
			<path class="st2" d="M488.5,192.7l1.2-0.1c0,0.4,0.1,0.8,0.2,1.2c0.8-0.1,1.5-0.3,2.2-0.5l0.1,1c-0.6,0.2-1.4,0.3-2.1,0.4
				c0.1,0.2,0.1,0.5,0.2,0.6c0.1,0.2,0.1,0.4,0.2,0.6c0.9-0.1,1.6-0.3,2.2-0.5l0.2,1c-0.5,0.1-1.2,0.3-1.9,0.4
				c0.2,0.4,0.4,0.8,0.7,1.2c0.1,0.2,0.3,0.4,0.5,0.5l-0.5,0.8c-0.6-0.1-1.7-0.3-2.5-0.3l0.1-0.8c0.5,0.1,1.2,0.1,1.5,0.2
				c-0.3-0.5-0.5-0.9-0.7-1.4c-1.3,0.1-3.1,0.1-4.8,0l-0.1-1c1.7,0.2,3.2,0.2,4.5,0.1c-0.1-0.2-0.1-0.3-0.2-0.5
				c-0.1-0.3-0.2-0.5-0.3-0.8c-1.1,0.1-2.4,0-3.8-0.1l-0.1-1c1.3,0.1,2.5,0.2,3.5,0.1c0,0,0-0.1,0-0.1
				C488.8,193.4,488.7,193,488.5,192.7z M486.5,199.7c0,0.9,0.8,1.3,2.4,1.3c1,0,1.9-0.1,2.7-0.2l-0.1,1.1c-0.8,0.1-1.7,0.2-2.6,0.2
				c-2.2,0-3.5-0.6-3.5-2.1c0-0.7,0.2-1.2,0.5-1.7l1.1,0.2C486.7,198.8,486.5,199.2,486.5,199.7z"/>
			<path class="st2" d="M495.6,200.4h1.8V195H496v-0.8c0.8-0.1,1.3-0.3,1.8-0.6h1v6.8h1.6v1h-4.6V200.4z"/>
			<path class="st2" d="M512.6,197.8h-1v3.4c0,0.5-0.1,0.8-0.4,1c-0.3,0.2-0.7,0.2-1.4,0.2c0-0.3-0.2-0.7-0.3-1c0.4,0,0.8,0,0.9,0
				c0.1,0,0.2-0.1,0.2-0.2v-3.3h-1.4v4.4h-1v-4.4h-1.4v4.4h-0.9v-4.4h-1.3v4.5h-1v-4.5h-1.1v-1h1.1v-3.9h8.1v3.9h1V197.8z
				 M505.9,196.8v-2.9h-1.3v2.9H505.9z M508.3,196.8v-2.9h-1.4v2.9H508.3z M510.7,196.8v-2.9h-1.4v2.9H510.7z"/>
			<path class="st2" d="M518.6,193c-0.3,0.9-0.7,2.1-1.1,2.9c0.8,0.9,1,1.6,1,2.3c0,0.6-0.1,1.1-0.5,1.3c-0.2,0.1-0.4,0.2-0.6,0.2
				c-0.2,0-0.5,0-0.8,0c0-0.3-0.1-0.7-0.2-0.9c0.2,0,0.5,0,0.6,0c0.1,0,0.3,0,0.4-0.1c0.2-0.1,0.2-0.4,0.2-0.7c0-0.6-0.2-1.3-1-2.1
				c0.3-0.7,0.6-1.7,0.8-2.5h-1.3v8.7h-1v-9.6h2.7l0.1,0L518.6,193z M524.5,198.4c-0.5,0.5-1.1,1-1.7,1.4c0.5,0.7,1.1,1.3,1.9,1.7
				c-0.2,0.2-0.5,0.6-0.7,0.8c-1.6-0.8-2.5-2.5-3-4.6h-1v3.1l1.9-0.4l0.1,0.9c-1.3,0.3-2.7,0.6-3.8,0.8l-0.3-1
				c0.3-0.1,0.7-0.1,1.2-0.2v-8.3h5v4.9h-2.1c0.1,0.5,0.3,1,0.5,1.4c0.5-0.4,0.9-0.8,1.3-1.2L524.5,198.4z M520,193.6v1.1h3v-1.1
				H520z M520,196.7h3v-1.2h-3V196.7z"/>
			<path class="st2" d="M529,195.4c0.5-1,1.5-2.2,2.9-2.2c1.5,0,2.6,1.5,2.6,3.8c0,3.1-1.9,4.5-4.7,5l-0.7-1c2.4-0.4,4.2-1.3,4.2-4
				c0-1.7-0.6-2.8-1.6-2.8c-1.3,0-2.6,2-2.7,3.4c0,0.4,0,0.7,0,1.3l-1.1,0.1c-0.1-0.4-0.1-1.1-0.1-1.8c0-1,0.2-2.5,0.3-3.5
				c0.1-0.4,0.1-0.7,0.1-1l1.2,0.1C529.2,193.4,529,194.7,529,195.4z"/>
			<path class="st2" d="M302.7,208.1c1-0.6,2.1-1.1,2.6-1.4c0.4-0.2,0.6-0.4,0.9-0.6l0.6,1c-0.3,0.2-0.6,0.3-0.9,0.5
				c-0.7,0.4-2.2,1.1-3.2,1.7c-1,0.6-1.6,1.3-1.6,2.1c0,0.9,0.8,1.4,2.5,1.4c1.2,0,2.7-0.2,3.6-0.4l0,1.3c-0.9,0.2-2.1,0.3-3.5,0.3
				c-2.1,0-3.7-0.6-3.7-2.4c0-1.2,0.7-2.1,1.9-2.9c-0.5-0.9-1.1-2.2-1.6-3.3l1.1-0.5C301.7,206.2,302.3,207.3,302.7,208.1z"/>
			<path class="st2" d="M313.9,204.9l1.2-0.1c0.1,0.6,0.3,1.2,0.5,1.8c0.8-0.1,1.7-0.3,2.4-0.5l0.1,1.1c-0.6,0.2-1.4,0.3-2.1,0.4
				c0.3,0.8,0.8,1.6,1.1,2c0.2,0.2,0.3,0.5,0.5,0.6L317,211c-0.6-0.1-1.9-0.3-2.8-0.3l0.1-0.9c0.6,0,1.4,0.1,1.7,0.2
				c-0.4-0.6-0.8-1.4-1.2-2.3c-1.3,0.1-2.9,0.1-4.7,0l0-1.1c1.6,0.2,3.1,0.2,4.3,0.1c-0.1-0.3-0.2-0.6-0.3-0.8
				C314.1,205.6,314,205.2,313.9,204.9z M311.6,211.7c0,1,0.9,1.4,2.5,1.4c1.2,0,2.1-0.1,2.9-0.3l-0.1,1.1c-0.7,0.1-1.6,0.3-2.9,0.2
				c-2.2,0-3.5-0.8-3.5-2.3c0-0.6,0.2-1.2,0.5-1.9l1.1,0.2C311.8,210.7,311.6,211.1,311.6,211.7z"/>
			<path class="st2" d="M328,205.9c0,0.5,0,0.9,0,1.4c0.4,0,0.7-0.1,1-0.1c0.3,0,0.7,0,0.9-0.1v1.1c-0.2,0-0.7,0-1,0
				c-0.3,0-0.6,0-1.1,0c0,0.8-0.1,1.8-0.2,2.3c-0.1,0.5-0.4,0.7-0.9,0.7c-0.4,0-1.2-0.1-1.5-0.2l0-1c0.4,0.1,0.8,0.1,1.1,0.1
				c0.3,0,0.4,0,0.4-0.3c0.1-0.3,0.1-1,0.1-1.6c-1.1,0.1-2.3,0.2-3.3,0.3c0,1.1,0,2.2,0,2.6c0,1.1,0.1,1.5,1.9,1.5
				c1.1,0,2.5-0.1,3.3-0.3l0,1.2c-0.7,0.1-2.1,0.2-3.2,0.2c-2.7,0-3-0.6-3-2.4c0-0.5,0-1.6,0-2.7c-0.4,0-0.7,0.1-1,0.1
				c-0.3,0-0.9,0.1-1.2,0.2l-0.1-1.1c0.3,0,0.8,0,1.2-0.1c0.2,0,0.6-0.1,1.1-0.1c0-0.6,0-1.2,0-1.3c0-0.4,0-0.7-0.1-1.1h1.2
				c0,0.3-0.1,0.6-0.1,1c0,0.3,0,0.8,0,1.3c1-0.1,2.2-0.2,3.3-0.3c0-0.5,0-1,0-1.4c0-0.3,0-0.7-0.1-0.9h1.2
				C328,205.2,328,205.7,328,205.9z"/>
			<path class="st2" d="M333,206.1c0.8-0.1,2.8-0.3,4.8-0.4c1.2-0.1,2.3-0.2,3-0.2v1.1c-0.6,0-1.6,0-2.1,0.2c-1.5,0.4-2.4,2-2.4,3.3
				c0,2,1.9,2.7,3.7,2.8l-0.4,1.2c-2.2-0.1-4.4-1.3-4.4-3.7c0-1.7,1-3,1.9-3.6c-1.1,0.1-3.7,0.4-4.9,0.6l-0.1-1.2
				C332.4,206.2,332.8,206.2,333,206.1z"/>
			<path class="st2" d="M345.8,206v6.9c0,0.6-0.1,0.9-0.5,1c-0.4,0.2-0.9,0.2-1.8,0.2c0-0.3-0.2-0.7-0.3-1c0.6,0,1.1,0,1.3,0
				c0.2,0,0.2-0.1,0.2-0.2V206h-1.6v-1h3.9v1H345.8z M349.7,213c-0.7,0.5-1.8,1.1-2.8,1.4c-0.1-0.2-0.4-0.5-0.6-0.7
				c0.9-0.3,2-0.8,2.6-1.3L349.7,213z M349.4,206.7c0.1-0.3,0.2-0.6,0.2-0.9h-2.3v-0.9h6v0.9h-2.5c-0.1,0.3-0.2,0.6-0.3,0.9h2.5v5.7
				h-5.2v-5.7H349.4z M351.9,207.4h-3.3v0.9h3.3V207.4z M351.9,209.1h-3.3v0.9h3.3V209.1z M351.9,210.7h-3.3v0.9h3.3V210.7z
				 M351.3,212.5c0.7,0.4,1.7,1,2.2,1.4l-0.8,0.6c-0.5-0.4-1.4-1-2.1-1.4L351.3,212.5z"/>
			<path class="st2" d="M359.4,204.9l1.2-0.1c0,0.4,0.1,0.8,0.2,1.2c0.8-0.1,1.5-0.3,2.2-0.5l0.1,1c-0.6,0.2-1.4,0.3-2.1,0.4
				c0.1,0.2,0.1,0.5,0.2,0.6c0.1,0.2,0.1,0.4,0.2,0.6c0.9-0.1,1.6-0.3,2.2-0.5l0.2,1c-0.5,0.1-1.2,0.3-1.9,0.4
				c0.2,0.4,0.4,0.8,0.7,1.2c0.1,0.2,0.3,0.4,0.5,0.5l-0.5,0.8c-0.6-0.1-1.7-0.3-2.5-0.3l0.1-0.8c0.5,0.1,1.2,0.1,1.5,0.2
				c-0.3-0.5-0.5-0.9-0.7-1.4c-1.3,0.1-3.1,0.1-4.8,0l-0.1-1c1.7,0.2,3.2,0.2,4.5,0.1c-0.1-0.2-0.1-0.3-0.2-0.5
				c-0.1-0.3-0.2-0.5-0.3-0.8c-1.1,0.1-2.4,0-3.8-0.1l-0.1-1c1.3,0.1,2.5,0.2,3.5,0.1c0,0,0-0.1,0-0.1
				C359.6,205.6,359.5,205.2,359.4,204.9z M357.4,211.9c0,0.9,0.8,1.3,2.4,1.3c1,0,1.9-0.1,2.7-0.2l-0.1,1.1
				c-0.8,0.1-1.7,0.2-2.6,0.2c-2.2,0-3.5-0.6-3.5-2.1c0-0.7,0.2-1.2,0.5-1.7l1.1,0.2C357.6,211,357.4,211.4,357.4,211.9z"/>
			<path class="st2" d="M371.6,205.6c0,0.1,0,0.3,0,0.6c0.9,0,1.9-0.1,2.9-0.3v1c-0.8,0.1-1.8,0.2-2.9,0.2c0,0.5,0,1,0,1.4
				c1.1,0,2.1-0.1,3-0.3l0,1c-1,0.1-1.9,0.2-3,0.2c0,0.5,0.1,1,0.1,1.5c1.4,0.4,2.5,1.2,3.2,1.7l-0.6,1c-0.6-0.6-1.5-1.2-2.5-1.6
				c0,0.2,0,0.4,0,0.6c0,0.8-0.6,1.6-2,1.6c-1.7,0-2.5-0.6-2.5-1.7c0-1.1,1-1.8,2.6-1.8c0.3,0,0.6,0,0.8,0c0-0.4,0-0.9,0-1.3
				c-0.2,0-0.4,0-0.6,0c-0.7,0-1.9-0.1-2.7-0.1l0-1c0.7,0.1,2,0.2,2.7,0.2c0.2,0,0.4,0,0.6,0c0-0.5,0-0.9,0-1.4c-0.1,0-0.3,0-0.5,0
				c-0.7,0-2-0.1-2.8-0.2l0-1c0.7,0.1,2.1,0.2,2.8,0.2c0.2,0,0.3,0,0.5,0c0-0.3,0-0.5,0-0.7c0-0.2,0-0.5-0.1-0.7h1.2
				C371.6,205,371.6,205.3,371.6,205.6z M369.6,213.2c0.6,0,1.1-0.2,1.1-0.9c0-0.2,0-0.4,0-0.6c-0.3-0.1-0.7-0.1-1-0.1
				c-0.9,0-1.4,0.4-1.4,0.8C368.2,212.9,368.6,213.2,369.6,213.2z"/>
			<path class="st2" d="M383.2,205.6c0,0.1,0,0.3,0,0.6h3.3l0,1c-0.6,0-1.7-0.1-3.3-0.1c0,0.6,0,1.2,0,1.7c0.3,0.4,0.4,0.9,0.4,1.5
				c0,1.5-0.8,3.2-3.4,4l-0.9-0.9c1.3-0.3,2.3-0.8,2.8-1.6c-0.2,0.1-0.5,0.2-0.8,0.2c-0.9,0-1.8-0.7-1.8-1.9c0-1.2,0.9-2,2-2
				c0.2,0,0.4,0,0.6,0.1c0-0.3,0-0.6,0-0.9c-1.7,0-3.5,0.1-4.8,0.2l0-1.1c1.2,0,3.3-0.1,4.9-0.1c0-0.2,0-0.4,0-0.6
				c0-0.4-0.1-0.7-0.1-0.8h1.3C383.2,205,383.2,205.5,383.2,205.6z M381.5,211c0.6,0,1-0.5,0.9-1.5c-0.2-0.4-0.5-0.5-0.9-0.5
				c-0.5,0-1,0.4-1,1C380.5,210.6,380.9,211,381.5,211z"/>
		</g>
	</g>
	<g>
		<path class="st2" d="M385.7,241.2c-0.5,1.1-1.3,2.6-2.3,4c1.5,1.3,3.3,3.2,4.1,4.2l-2.1,1.8c-1-1.4-2.2-2.8-3.6-4.1
			c-1.6,1.6-3.5,3.1-5.5,4.1l-1.9-2c2.4-0.9,4.8-2.7,6.1-4.2c1-1.1,1.8-2.4,2.1-3.4H378c-0.7,0-1.5,0.1-1.9,0.1v-2.6
			c0.5,0.1,1.5,0.1,1.9,0.1h5c0.8,0,1.5-0.1,1.8-0.2l1.5,1.1C386.1,240.3,385.8,240.9,385.7,241.2z"/>
		<path class="st2" d="M397.2,239.9h2.5c0.5,0,1.1-0.1,1.5-0.2l1.8,1.1c-0.2,0.3-0.4,0.8-0.6,1.2c-0.4,1.1-1.1,2.6-2.1,4.1
			c0.6,0.5,1.2,0.9,1.7,1.2l-1.7,2.1c-0.4-0.4-0.9-0.8-1.5-1.3c-1.3,1.3-2.9,2.6-5.2,3.4l-2.1-1.8c2.6-0.8,4.2-1.9,5.3-3.1
			c-0.9-0.7-1.8-1.3-2.5-1.7l1.6-1.7c0.7,0.4,1.6,0.9,2.4,1.5c0.7-1,1.2-2.1,1.4-2.8h-3.9c-1.1,1.4-2.5,2.9-3.9,3.8l-2-1.5
			c2.7-1.6,4-3.6,4.8-4.8c0.3-0.4,0.6-1.2,0.8-1.8l2.6,0.8C397.8,238.9,397.5,239.5,397.2,239.9z"/>
		<path class="st2" d="M411.4,246.9c2.7-1.6,4.7-3.9,5.7-6l1.4,2.6c-1.2,2.1-3.3,4.2-5.8,5.7c-1.5,0.9-3.5,1.7-5.4,2l-1.5-2.4
			C408,248.4,409.9,247.7,411.4,246.9z M411.9,242l-1.9,1.9c-0.8-0.9-2.7-2.5-3.8-3.3l1.7-1.8C409,239.4,411,241,411.9,242z"/>
		<path class="st2" d="M432.1,237.4c1,0,1.9,0.8,1.9,1.9c0,1-0.8,1.9-1.8,1.9c-0.1,0.2-0.1,0.5-0.2,0.6c-0.4,1.4-1,3.7-2.3,5.4
			c-1.3,1.8-3.5,3.4-6.1,4.2l-2-2.2c3-0.7,4.7-2,5.9-3.5c1-1.2,1.5-2.7,1.6-3.9h-6.6c-0.7,0-1.6,0-2,0.1v-2.6c0.5,0.1,1.5,0.1,2,0.1
			h6.6c0.3,0,0.7,0,1.1-0.1c0-0.1,0-0.1,0-0.2C430.2,238.2,431.1,237.4,432.1,237.4z M432.1,240c0.4,0,0.8-0.4,0.8-0.8
			c0-0.4-0.4-0.8-0.8-0.8c-0.4,0-0.8,0.4-0.8,0.8C431.3,239.7,431.7,240,432.1,240z"/>
		<path class="st2" d="M442.6,239.6c0,0.4,0,0.8-0.1,1.2h2.4c0.4,0,0.8,0,1.2-0.1l1.5,0.8c0,0.2-0.1,0.7-0.1,0.8
			c-0.1,1.7-0.3,5.8-0.9,7.4c-0.3,0.8-1,1.3-2.1,1.3c-0.9,0-1.8-0.1-2.5-0.1l-0.3-2.4c0.7,0.1,1.5,0.2,2,0.2c0.5,0,0.7-0.2,0.8-0.6
			c0.4-0.8,0.6-3.4,0.6-5.1h-2.9c-0.5,3.8-1.9,6.2-4.7,8.2l-2.1-1.7c0.7-0.4,1.5-0.9,2.2-1.7c1.3-1.3,1.9-2.9,2.2-4.8h-1.7
			c-0.5,0-1.4,0-2.1,0.1v-2.4c0.7,0.1,1.5,0.1,2.1,0.1h1.9c0-0.4,0-0.8,0-1.2c0-0.3-0.1-1.1-0.1-1.5h2.7
			C442.6,238.6,442.6,239.3,442.6,239.6z"/>
		<path class="st2" d="M454.1,243.3h8c0.7,0,1.4-0.1,1.8-0.1v2.9c-0.4,0-1.2-0.1-1.8-0.1h-8c-0.9,0-2,0-2.6,0.1v-2.9
			C452.1,243.2,453.3,243.3,454.1,243.3z"/>
		<path class="st2" d="M469.3,240.5c0-0.6-0.1-1.4-0.2-1.9h2.8c-0.1,0.6-0.2,1.2-0.2,1.9v2.1c2,0.6,4.9,1.7,6.2,2.3l-1,2.5
			c-1.5-0.8-3.6-1.6-5.2-2.1v3.9c0,0.4,0.1,1.6,0.2,2.3h-2.8c0.1-0.6,0.2-1.7,0.2-2.3V240.5z M477.1,241.3l-1.5,0.7
			c-0.5-1-0.7-1.5-1.3-2.3l1.5-0.6C476.2,239.7,476.7,240.6,477.1,241.3z M479.2,240.4l-1.5,0.7c-0.5-1-0.8-1.5-1.4-2.2l1.5-0.7
			C478.2,238.8,478.8,239.7,479.2,240.4z"/>
		<path class="st2" d="M491.6,244.6v1.4h3v2h-3v1.2c0,0.6,0,0.7,0.4,0.7h0.8c0.3,0,0.4-0.3,0.5-1.6c0.5,0.3,1.3,0.7,2,0.8
			c-0.2,2-0.8,2.7-2.2,2.7h-1.5c-1.8,0-2.3-0.6-2.3-2.6v-1.2h-1.6c-0.4,1.6-1.4,3-4.1,3.9c-0.3-0.5-0.9-1.4-1.4-1.7
			c1.8-0.5,2.7-1.3,3.1-2.2h-2.7v-2h3.1v-1.4h-1.1v-0.5c-0.6,0.4-1.2,0.8-1.9,1.1c-0.3-0.5-0.9-1.2-1.3-1.6c0.8-0.3,1.5-0.8,2.2-1.3
			c-0.4-0.3-0.9-0.8-1.3-1.1l1.4-1.1c0.4,0.3,0.8,0.6,1.2,0.9c0.3-0.3,0.5-0.6,0.7-1h-2.7v-1.9h3.7l0.4-0.1l1.5,0.7
			c-0.5,1.5-1.2,2.8-2.1,3.8h4.7c-1-1.2-1.8-2.7-2.4-4.4l2-0.6c0.2,0.5,0.4,1,0.6,1.4c0.4-0.4,0.8-0.8,1-1.1l1.6,1.1
			c-0.6,0.5-1.2,1-1.8,1.4c0.2,0.2,0.3,0.4,0.5,0.6c0.5-0.5,1-1,1.4-1.4l1.6,1.1c-0.6,0.5-1.2,1-1.8,1.4c0.6,0.5,1.3,0.9,2.1,1.2
			c-0.5,0.4-1.2,1.3-1.5,1.9c-0.6-0.3-1.2-0.6-1.7-1v0.4H491.6z M489.3,244.6h-1.4v1.4h1.4V244.6z"/>
		<path class="st2" d="M504,241.6c-0.4,0.8-1,1.5-1.6,2.3v7.9h-2.2v-5.4c-0.3,0.3-0.6,0.6-1,0.9c-0.3-0.5-1-1.5-1.5-1.9
			c1.5-1,3.1-2.8,4.1-4.5L504,241.6z M503.5,238.4c-1.1,1.5-2.8,3.1-4.3,4.1c-0.3-0.5-0.8-1.4-1.2-1.8c1.2-0.8,2.7-2.1,3.4-3.2
			L503.5,238.4z M512.1,244.6h-2v4.7c0,1.1-0.2,1.7-0.9,2c-0.7,0.3-1.7,0.4-3,0.4c-0.1-0.6-0.4-1.6-0.6-2.2c0.7,0,1.7,0,2,0
			c0.3,0,0.4-0.1,0.4-0.3v-4.7h-4.1v-2.1h8.3V244.6z M511.7,240.4h-7.3v-2.1h7.3V240.4z"/>
		<path class="st2" d="M528,240.1v7.8h-2.3v-0.7h-2.9v4.6h-2.3v-4.6h-2.9v0.8h-2.2v-7.9h5.1v-2.6h2.3v2.6H528z M520.5,245.1v-2.8
			h-2.9v2.8H520.5z M525.7,245.1v-2.8h-2.9v2.8H525.7z"/>
		<path class="st2" d="M532,248.9c0-0.9,0.7-1.6,1.6-1.6c0.9,0,1.6,0.7,1.6,1.6s-0.7,1.7-1.6,1.7C532.7,250.6,532,249.9,532,248.9z
			 M532.4,241.3l-0.1-2.4h2.7l-0.1,2.4l-0.4,5.1h-1.7L532.4,241.3z"/>
		<path class="st2" d="M539.5,248.9c0-0.9,0.7-1.6,1.6-1.6c0.9,0,1.6,0.7,1.6,1.6s-0.7,1.7-1.6,1.7
			C540.2,250.6,539.5,249.9,539.5,248.9z M539.8,241.3l-0.1-2.4h2.7l-0.1,2.4l-0.4,5.1h-1.7L539.8,241.3z"/>
	</g>
	<g>
		<path class="st2" d="M49.2,53.1c1.9-1.1,3.8-2.1,5-2.8c1.3-0.7,2.3-1.3,3.1-2l2.3,4.3c-1.1,0.6-2.2,1.2-3.4,1.8
			c-1.8,0.9-4.3,2-7,3.7c-2.3,1.5-4,3.1-4,5.1s1.9,2.9,5.8,2.9c3,0,7.1-0.5,9.9-1.1l-0.1,5.2c-2.7,0.5-5.7,0.8-9.7,0.8
			c-6.2,0-11-1.7-11-7.2c0-3.4,2.1-5.9,4.9-8c-1.4-2.6-2.8-5.7-4.1-8.8l4.6-1.9C46.7,48.2,48,50.9,49.2,53.1z M62.3,48.7l-2.9,1.2
			c-0.6-1.2-1.5-3-2.3-4.2l2.8-1.1C60.7,45.7,61.7,47.7,62.3,48.7z M66,47.3l-2.8,1.2c-0.6-1.2-1.6-3-2.4-4.1l2.8-1.1
			C64.4,44.3,65.5,46.2,66,47.3z"/>
		<path class="st2" d="M83.3,48c-1.6,2.2-3.3,5.4-4.7,7.9c0.9-0.3,1.9-0.4,2.9-0.4c2.4,0,3.7,1.5,3.8,4.1c0.1,1.1,0,3.5,0.1,4.7
			c0.1,1,0.8,1.4,1.7,1.4c2.2,0,3.6-2.9,4.5-7l4,3.2c-1.6,5.4-4.5,8.8-9.3,8.8c-3.4,0-5.2-2-5.4-4.4c-0.1-1.5-0.1-4.1-0.2-5.1
			c-0.1-0.9-0.6-1.4-1.5-1.4c-1.8,0-3.2,1.9-4.2,4.4c-0.7,1.7-1.6,5-2.1,6.6l-5.2-1.7c2.2-6,8.1-18.2,9.7-21.1
			c0.4-0.8,1.1-2,1.7-3.5l5.2,2.1C83.9,47,83.6,47.6,83.3,48z"/>
		<path class="st2" d="M109.5,53.1c1.9-1.1,3.8-2.1,5-2.8c1.3-0.7,2.3-1.3,3.1-2l2.3,4.3c-1.1,0.6-2.2,1.2-3.4,1.8
			c-1.8,0.9-4.3,2-7,3.7c-2.3,1.5-4,3.1-4,5.1s1.9,2.9,5.8,2.9c3,0,7.1-0.5,9.9-1.1l-0.1,5.2c-2.7,0.5-5.7,0.8-9.7,0.8
			c-6.2,0-11-1.7-11-7.2c0-3.4,2.1-5.9,4.9-8c-1.4-2.6-2.8-5.7-4.1-8.8l4.6-1.9C106.9,48.2,108.3,50.9,109.5,53.1z M122.5,48.7
			l-2.9,1.2c-0.6-1.2-1.5-3-2.3-4.2l2.8-1.1C120.9,45.7,122,47.7,122.5,48.7z M126.2,47.3l-2.8,1.2c-0.6-1.2-1.6-3-2.4-4.1l2.8-1.1
			C124.7,44.3,125.7,46.2,126.2,47.3z"/>
		<path class="st2" d="M143.5,48c-1.6,2.2-3.3,5.4-4.7,7.9c0.9-0.3,1.9-0.4,2.9-0.4c2.4,0,3.7,1.5,3.8,4.1c0.1,1.1,0,3.5,0.1,4.7
			c0.1,1,0.8,1.4,1.7,1.4c2.2,0,3.6-2.9,4.5-7l4,3.2c-1.6,5.4-4.5,8.8-9.3,8.8c-3.4,0-5.2-2-5.4-4.4c-0.1-1.5-0.1-4.1-0.2-5.1
			c-0.1-0.9-0.6-1.4-1.5-1.4c-1.8,0-3.2,1.9-4.2,4.4c-0.7,1.7-1.6,5-2.1,6.6l-5.2-1.7c2.2-6,8.1-18.2,9.7-21.1
			c0.4-0.8,1.1-2,1.7-3.5l5.2,2.1C144.2,47,143.9,47.6,143.5,48z"/>
		<path class="st2" d="M186.5,64.1c-1.5,1-3.2,1.9-4.7,2.7c1.7,0.6,3.8,1,6,1.2c-0.9,0.9-2.1,2.6-2.6,3.8c-4.6-0.8-8-2.3-10.6-4.7
			l0.1,3.2c-4.3,0.5-9,0.8-12.4,1.1l-0.6-4c0.9-0.1,1.9-0.1,3-0.2V53.5c-0.9,0.5-1.9,0.9-2.8,1.3c-0.5-1-1.7-2.7-2.5-3.6
			c4.9-1.8,9.7-5.2,12-8.1h4.4c3.4,3.8,8,6.5,12.7,7.8c-1,1.1-2,2.6-2.8,3.9c-0.9-0.4-1.8-0.8-2.8-1.3v8.3l0.5-0.4L186.5,64.1z
			 M179.4,51.5c-2.2-1.4-4.3-3-5.7-4.6c-1.4,1.5-3.3,3.1-5.6,4.6h3.4v-1.9h4.5v1.9H179.4z M168.9,55.9h9.5v-1h-9.5V55.9z M178.4,60
			V59h-9.5V60H178.4z M168.9,67c1.7-0.1,3.4-0.3,5.1-0.4c-0.9-1-1.7-2-2.3-3.2h-2.7V67z M176.1,63.4c0.5,0.6,1.1,1.1,1.8,1.6
			c0.9-0.5,1.8-1,2.7-1.6H176.1z"/>
		<path class="st2" d="M195.4,57.6c1.3-1.3,3.5-4.2,5.4-6.4c2.3-2.6,4.4-2.7,6.8-0.5c2.2,2.1,4.6,5.3,6.3,7.1c2,2.2,4.3,4.6,7.3,7.3
			l-3.8,4.3c-2.1-2-4.4-4.9-6.3-7.1c-1.8-2.2-4-5-5.5-6.6c-0.9-1.1-1.5-0.9-2.3,0.1c-1.1,1.4-3.1,4.1-4.2,5.7
			c-0.7,1.1-1.4,2.4-2,3.3l-4.4-4.6C193.6,59.3,194.4,58.6,195.4,57.6z M216.5,52.8l-3.2,1.4c-1-2.1-1.6-3.3-2.7-4.9l3.1-1.3
			C214.5,49.4,215.8,51.5,216.5,52.8z M220.7,51l-3.1,1.5c-1.1-2.1-1.7-3.2-2.9-4.8l3.1-1.4C218.7,47.6,220,49.7,220.7,51z"/>
		<path class="st2" d="M226.9,47.7c2.8-0.2,7.4-0.6,12.9-1.1c3-0.2,6.6-0.5,8.7-0.5l0,4.7c-1.6,0-4.1,0-5.8,0.4
			c-3.2,0.7-6,4.2-6,7.8c0,4.4,4.1,6.2,9.3,6.5l-1.7,5.1c-6.7-0.5-12.4-4.1-12.4-10.6c0-4.1,2.2-7.3,3.8-8.8
			c-2.6,0.3-7.9,0.9-11.5,1.7l-0.5-5C225,47.9,226.3,47.8,226.9,47.7z"/>
		<path class="st2" d="M251.9,64.7l3.8-3.3c2.1,1.7,5.1,4.8,6.4,6.5l-3.9,3.3C256.5,69.1,253.9,66.5,251.9,64.7z"/>
		<path class="st2" d="M280.9,53.1c1.9-1.1,3.8-2.1,5-2.8c1.3-0.7,2.3-1.3,3.1-2l2.3,4.3c-1.1,0.6-2.2,1.2-3.4,1.8
			c-1.8,0.9-4.3,2-7,3.7c-2.3,1.5-4,3.1-4,5.1s1.9,2.9,5.8,2.9c3,0,7.1-0.5,9.9-1.1l-0.1,5.2c-2.7,0.5-5.7,0.8-9.7,0.8
			c-6.2,0-11-1.7-11-7.2c0-3.4,2.1-5.9,4.9-8c-1.4-2.6-2.8-5.7-4.1-8.8l4.6-1.9C278.4,48.2,279.7,50.9,280.9,53.1z M293.9,48.7
			l-2.9,1.2c-0.6-1.2-1.5-3-2.3-4.2l2.8-1.1C292.3,45.7,293.4,47.7,293.9,48.7z M297.7,47.3l-2.8,1.2c-0.6-1.2-1.6-3-2.4-4.1
			l2.8-1.1C296.1,44.3,297.1,46.2,297.7,47.3z"/>
		<path class="st2" d="M314.9,48c-1.6,2.2-3.3,5.4-4.7,7.9c0.9-0.3,1.9-0.4,2.9-0.4c2.4,0,3.7,1.5,3.8,4.1c0.1,1.1,0,3.5,0.2,4.7
			c0.1,1,0.8,1.4,1.7,1.4c2.2,0,3.6-2.9,4.5-7l4,3.2c-1.6,5.4-4.5,8.8-9.3,8.8c-3.4,0-5.2-2-5.4-4.4c-0.1-1.5-0.1-4.1-0.2-5.1
			c-0.1-0.9-0.6-1.4-1.5-1.4c-1.8,0-3.2,1.9-4.2,4.4c-0.7,1.7-1.6,5-2.1,6.6l-5.2-1.7c2.2-6,8.1-18.2,9.7-21.1
			c0.4-0.8,1.1-2,1.7-3.5l5.2,2.1C315.6,47,315.3,47.6,314.9,48z"/>
		<path class="st2" d="M341.1,53.1c1.9-1.1,3.8-2.1,5-2.8c1.3-0.7,2.3-1.3,3.1-2l2.3,4.3c-1.1,0.6-2.2,1.2-3.4,1.8
			c-1.8,0.9-4.3,2-7,3.7c-2.3,1.5-4,3.1-4,5.1s1.9,2.9,5.8,2.9c3,0,7.1-0.5,9.9-1.1l-0.1,5.2c-2.7,0.5-5.7,0.8-9.7,0.8
			c-6.2,0-11-1.7-11-7.2c0-3.4,2.1-5.9,4.9-8c-1.4-2.6-2.8-5.7-4.1-8.8l4.6-1.9C338.6,48.2,339.9,50.9,341.1,53.1z M354.2,48.7
			l-2.9,1.2c-0.6-1.2-1.5-3-2.3-4.2l2.8-1.1C352.6,45.7,353.6,47.7,354.2,48.7z M357.9,47.3l-2.8,1.2c-0.6-1.2-1.6-3-2.4-4.1
			l2.8-1.1C356.3,44.3,357.4,46.2,357.9,47.3z"/>
		<path class="st2" d="M375.2,48c-1.6,2.2-3.3,5.4-4.7,7.9c0.9-0.3,1.9-0.4,2.9-0.4c2.4,0,3.7,1.5,3.8,4.1c0.1,1.1,0,3.5,0.2,4.7
			c0.1,1,0.8,1.4,1.7,1.4c2.2,0,3.6-2.9,4.5-7l4,3.2c-1.6,5.4-4.5,8.8-9.3,8.8c-3.4,0-5.2-2-5.4-4.4c-0.1-1.5-0.1-4.1-0.2-5.1
			c-0.1-0.9-0.6-1.4-1.5-1.4c-1.8,0-3.2,1.9-4.2,4.4c-0.7,1.7-1.6,5-2.1,6.6l-5.2-1.7c2.2-6,8.1-18.2,9.7-21.1
			c0.4-0.8,1.1-2,1.7-3.5l5.2,2.1C375.8,47,375.5,47.6,375.2,48z"/>
		<path class="st2" d="M398.4,65.1c-0.9,2.6-2.6,5.2-4.2,6.8c-0.8-0.7-2.5-1.8-3.5-2.4c1.6-1.3,2.9-3.4,3.6-5.4L398.4,65.1z
			 M401.8,64.1c1.3,1.5,2.5,3.5,3,4.9l-3.6,1.7c-0.5-1.4-1.7-3.7-2.9-5.3l3.2-1.4h-8.7V44.4h10.7v19.7H401.8z M399.4,47.9h-2.6V50
			h2.6V47.9z M399.4,53.2h-2.6v2.2h2.6V53.2z M399.4,58.5h-2.6v2.2h2.6V58.5z M419.7,58.3h-5.8v9.2c0,1.9-0.3,3-1.6,3.6
			c-1.2,0.6-2.8,0.7-4.9,0.7c-0.2-1.2-0.8-2.9-1.3-4c1.1,0.1,2.5,0.1,2.9,0.1c0.4,0,0.5-0.1,0.5-0.5v-9h-5.5v-4h15.6V58.3z
			 M408.1,52.8h-3.8v-6.2h5.3v-3.4h4.3v3.4h5.5v6.2h-4v-2.6h-7.3V52.8z"/>
		<path class="st2" d="M444.3,48.6c-0.1,0.2-0.1,0.5-0.2,0.7c4.6,1.2,7.7,5.1,7.7,10.4c0,6.6-4.7,10.3-10.9,11.2l-2.8-4.2
			c6.8-0.6,8.9-4,8.9-7.2c0-3-1.5-5.2-4.1-6.1c-1,3.3-2.2,6.5-3.9,9.1c0.5,0.6,1,1.1,1.5,1.6L437,67c-0.3-0.3-0.5-0.6-0.8-0.9
			c-2.1,2.2-3.7,2.9-5.9,2.9c-2.6,0-5.1-2.2-5.1-6.3c0-3.5,1.6-7.1,4.3-9.6c-0.2-0.8-0.5-1.5-0.7-2.3c-0.4-1.1-0.7-2.1-1.4-3.3
			l4.8-1.5c0.2,1.1,0.4,2.1,0.7,3c0.2,0.5,0.3,1.1,0.5,1.6c2.1-1,4.2-1.5,6.3-1.7c0.1-0.4,0.1-0.7,0.2-1c0.2-1,0.3-2.5,0.2-3.2
			l5,0.5C444.8,46.1,444.5,47.8,444.3,48.6z M430.8,64.3c0.9,0,1.7-0.7,2.7-1.7c-0.9-1.4-1.7-3.2-2.4-5.1c-1.1,1.5-1.7,3.2-1.7,4.8
			C429.4,63.5,429.9,64.3,430.8,64.3z M436.3,58.5c0.9-1.7,1.6-3.5,2.2-5.4c-1.5,0.2-2.8,0.8-3.9,1.4
			C435.2,56,435.7,57.4,436.3,58.5z"/>
		<path class="st2" d="M472.8,48.4c0,0.6,0,1.1,0,1.7c2.4-0.1,5.7-0.2,8.1-0.4l0.2,4.3c-2.4,0.2-5.8,0.3-8.2,0.4
			c0.1,1.7,0.2,3.7,0.3,5.7c3.8,1.2,7,3.2,9,5.1l-2.8,4.3c-1.6-1.6-3.6-3.2-6-4.5c0,0.2,0,0.3,0,0.4c0,2.8-1.3,5.6-6.9,5.6
			c-4.4,0-8.2-1.5-8.2-5.9c0-3.4,2.9-6,8.6-6c0.5,0,0.9,0,1.4,0.1c-0.1-2.3-0.2-4.8-0.2-6.3c0-1.9,0-3.2-0.1-4.5
			c-0.1-1.7-0.2-3-0.4-3.8h5.5C473,45.6,472.9,47.1,472.8,48.4z M466.2,66.6c1.8,0,2.3-0.8,2.3-2.7c0-0.2,0-0.3,0-0.5
			c-0.7-0.1-1.5-0.2-2.2-0.2c-1.9,0-3.1,0.6-3.1,1.7C463.1,66.3,464.5,66.6,466.2,66.6z"/>
		<path class="st2" d="M500.1,56c-3.2,0-6.2,1-7.6,1.4c-0.8,0.2-2.2,0.8-3.1,1.1l-1.4-5.2c1.1-0.1,2.6-0.3,3.6-0.5
			c2.3-0.5,5.6-1.3,9.2-1.3c5,0,8.4,2.9,8.4,7.8c0,6.4-6,10.6-14.7,11.7l-2.6-4.6c7.5-0.8,12.1-3,12.1-7.3
			C504.1,57.5,502.8,56,500.1,56z M506.6,45.6l-0.7,4.5c-3.6-0.2-10.4-0.8-13.9-1.4l0.7-4.4C496.3,45,503.3,45.6,506.6,45.6z"/>
		<path class="st2" d="M517,66c0-1.9,1.3-3.3,3.2-3.3c1.9,0,3.2,1.4,3.2,3.3c0,1.9-1.3,3.3-3.2,3.3C518.3,69.4,517,67.9,517,66z
			 M517.6,50.7l-0.2-4.8h5.4l-0.2,4.8l-0.8,10.2h-3.5L517.6,50.7z"/>
		<path class="st2" d="M531.9,66c0-1.9,1.3-3.3,3.2-3.3c1.9,0,3.2,1.4,3.2,3.3c0,1.9-1.3,3.3-3.2,3.3
			C533.2,69.4,531.9,67.9,531.9,66z M532.6,50.7l-0.2-4.8h5.4l-0.2,4.8l-0.8,10.2h-3.5L532.6,50.7z"/>
	</g>
</g>
</svg>
