<svg xmlns="http://www.w3.org/2000/svg" xmlns:xlink="http://www.w3.org/1999/xlink" width="580" height="289" viewBox="0 0 580 289"><defs><style>.a{fill:#007bff;stroke:#707070;}.b{fill:#c73d13;}.c,.d,.g,.h,.i{fill:#fff;}.d{font-size:4px;font-family:HelveticaNeue-Thin, Helvetica Neue;font-weight:200;letter-spacing:0.15em;}.e{letter-spacing:0.13em;}.f{letter-spacing:0.07em;}.g{font-size:15px;}.g,.h,.i{font-family:NotoSansJP-Regular, Noto Sans JP;}.h{font-size:24px;letter-spacing:0.1em;}.i{font-size:12px;}.j{stroke:none;}.k{fill:none;}.l{filter:url(#c);}.m{filter:url(#a);}</style><filter id="a" x="27.5" y="97.995" width="220.979" height="131.696" filterUnits="userSpaceOnUse"><feOffset dx="3" dy="3" input="SourceAlpha"/><feGaussianBlur stdDeviation="1.5" result="b"/><feFlood flood-opacity="0.161"/><feComposite operator="in" in2="b"/><feComposite in="SourceGraphic"/></filter><filter id="c" x="76.5" y="32.5" width="452" height="44" filterUnits="userSpaceOnUse"><feOffset dx="3" dy="3" input="SourceAlpha"/><feGaussianBlur stdDeviation="1.5" result="d"/><feFlood flood-opacity="0.161"/><feComposite operator="in" in2="d"/><feComposite in="SourceGraphic"/></filter></defs><g transform="translate(-216 -5185)"><g transform="translate(216 5184.827)"><g class="a" transform="translate(0 0.173)"><rect class="j" width="580" height="289"/><rect class="k" x="0.5" y="0.5" width="579" height="288"/></g><g transform="translate(29.129 99.668)"><g class="m" transform="matrix(1, 0, 0, 1, -29.13, -99.49)"><rect class="b" width="211.979" height="122.696" rx="11" transform="translate(29 99.49)"/></g><g transform="translate(59.938 14.51)"><g transform="translate(9.177 69.193)"><path class="c" d="M208.045,244.524a4.013,4.013,0,0,0-2.1-1.482,6.978,6.978,0,0,0-1.862-.241h-5.033a.224.224,0,0,0-.207.207v11.066a.224.224,0,0,0,.207.207h5.02a4.507,4.507,0,0,0,4.1-2.172,7.091,7.091,0,0,0,.965-3.827,7.267,7.267,0,0,0-.241-1.862A4.544,4.544,0,0,0,208.045,244.524Zm-2.137,5.93a2.2,2.2,0,0,1-2.206,1.482h-2.069v-6.861H203.7c1.034,0,1.724.276,2.034.827a5.28,5.28,0,0,1,.517,2.517A5.358,5.358,0,0,1,205.907,250.453Z" transform="translate(-198.84 -242.798)"/><path class="c" d="M244.06,253.245a1.62,1.62,0,0,1-.172-.758l-.034-1.276v-5.033a2.7,2.7,0,0,0-1.413-2.689,7.463,7.463,0,0,0-3.241-.689q-2.792,0-3.93,1.448a4.258,4.258,0,0,0-.827,2.344h.172l2.655.034a2.248,2.248,0,0,1,.448-1,1.838,1.838,0,0,1,1.413-.483,3,3,0,0,1,1.379.241.907.907,0,0,1,.448.9.869.869,0,0,1-.586.793,4.827,4.827,0,0,1-1.138.241l-.965.1a6.849,6.849,0,0,0-2.551.724,3.237,3.237,0,0,0-1.586,2.965,3.144,3.144,0,0,0,.986,2.448,3.572,3.572,0,0,0,2.482.862,3.913,3.913,0,0,0,2.1-.552,5.564,5.564,0,0,0,1.31-1.069c0,.1.069.586.069.586l.172.621,3.172.035.034-.448A2.391,2.391,0,0,1,244.06,253.245Zm-3.137-4.516v1a2.291,2.291,0,0,1-.793,1.965,2.993,2.993,0,0,1-1.689.552,1.475,1.475,0,0,1-.965-.31,1.21,1.21,0,0,1-.414-1.034,1.293,1.293,0,0,1,.655-1.207,4.681,4.681,0,0,1,1.31-.379l.655-.138.758-.207S240.819,248.8,240.922,248.728Zm-6.412-2.206a.262.262,0,0,1,.034-.138.262.262,0,0,0-.034.138Z" transform="translate(-221.961 -242.797)"/><path class="c" d="M277.211,242.8h-.138a3.313,3.313,0,0,0-2.137.689,5.389,5.389,0,0,0-1.1,1.414v-1.793l-2.758-.034-.034,10.963,2.9.034.034-5.24a4.02,4.02,0,0,1,.345-1.931,2.39,2.39,0,0,1,2.31-1.1h.345l.483.034V245.8h0v-.172l.069-2.758A1.277,1.277,0,0,0,277.211,242.8Z" transform="translate(-246.149 -242.795)"/><path class="c" d="M302.76,249.63a4.54,4.54,0,0,1-.276,1.689,2.027,2.027,0,0,1-2,1.172,1.552,1.552,0,0,1-1.517-.793,3.505,3.505,0,0,1-.207-1.379v-6.585a.035.035,0,0,0-.035-.034h-2.965l-.034,6.619a6.9,6.9,0,0,0,.483,2.861,3.341,3.341,0,0,0,3.31,1.793,4.66,4.66,0,0,0,1.482-.207,3.74,3.74,0,0,0,1.31-.827l.379-.448.138-.207V254.7l2.861.034.034-10.963-2.965-.034Z" transform="translate(-262.321 -243.388)"/><path class="c" d="M348.94,244.166a3.258,3.258,0,0,0-1.31-1,4.343,4.343,0,0,0-3.447.172,3.527,3.527,0,0,0-1.379,1.379,3.144,3.144,0,0,0-.931-1.276,3.379,3.379,0,0,0-2.034-.552,3.33,3.33,0,0,0-2.172.655,4.108,4.108,0,0,0-.931,1.138V243.2l-2.861-.034-.034,10.929,2.965.034.034-6.619a2.6,2.6,0,0,1,.241-1.31,1.666,1.666,0,0,1,1.62-.758,1.407,1.407,0,0,1,1.379.758,3.393,3.393,0,0,1,.207,1.379v6.481l2.9.034.034-6.516a2.759,2.759,0,0,1,.241-1.241,1.665,1.665,0,0,1,1.62-.965,1.384,1.384,0,0,1,1.379.724,2.151,2.151,0,0,1,.207,1v6.929l2.965.034c.034-.034.069-6.895.069-6.895a9.731,9.731,0,0,0-.1-1.62,3.42,3.42,0,0,0-.655-1.379Z" transform="translate(-287.299 -242.854)"/><path class="c" d="M395.994,253.245a1.62,1.62,0,0,1-.172-.758l-.035-1.276v-5.033a2.7,2.7,0,0,0-1.413-2.689,7.463,7.463,0,0,0-3.241-.689q-2.793,0-3.93,1.448a4.161,4.161,0,0,0-.827,2.344h.172l2.655.034a2.248,2.248,0,0,1,.448-1,1.837,1.837,0,0,1,1.413-.483,2.758,2.758,0,0,1,1.345.241.907.907,0,0,1,.448.9.869.869,0,0,1-.586.793,4.825,4.825,0,0,1-1.138.241l-.965.1a6.85,6.85,0,0,0-2.551.724,3.237,3.237,0,0,0-1.586,2.965,3.144,3.144,0,0,0,1,2.448,3.572,3.572,0,0,0,2.482.862,3.913,3.913,0,0,0,2.1-.552,5.722,5.722,0,0,0,1.31-1.069c0,.1.069.586.069.586l.172.621,3.172.034.034-.448C396.235,253.451,396.1,253.348,395.994,253.245Zm-3.1-4.516v1a2.336,2.336,0,0,1-.793,1.965,2.992,2.992,0,0,1-1.689.552,1.475,1.475,0,0,1-.965-.31,1.21,1.21,0,0,1-.414-1.034,1.293,1.293,0,0,1,.655-1.207,4.333,4.333,0,0,1,1.31-.379l.655-.138.758-.207C392.374,248.97,392.753,248.8,392.891,248.728Zm-6.447-2.206a.263.263,0,0,1,.034-.138.263.263,0,0,0-.034.138Z" transform="translate(-321.494 -242.797)"/></g><g transform="translate(20.857)"><path class="c" d="M253.554,116.238a30.612,30.612,0,0,0-8-6.205c-.552-.345-.483-.483.241-.414a36.81,36.81,0,0,1,10.17,2.965,35.988,35.988,0,0,0,4.792-10.722c.069-.586-.138-.862-.655-.862q-.31,0-4.964.414c-3.447.31-5.447.448-5.964.448a43.393,43.393,0,0,1-6.447,6.343,39.329,39.329,0,0,1-9.481,6.068,5.074,5.074,0,0,1-1.069.379l-.034.034a15.672,15.672,0,0,0-2.255,3.9c-2.172,4.654-.9,10.2,1.586,14.2a44.733,44.733,0,0,0,9.825-4.758A46.128,46.128,0,0,0,253.554,116.238Z" transform="translate(-228.78 -80.69)"/><path class="c" d="M285.336,91.461a15.111,15.111,0,0,0-2.9-16.858,25.394,25.394,0,0,0,0-4.758c-.9-5.1-1.172-10.756-3.241-15.514a19.756,19.756,0,0,0-6.378-8.136,18.27,18.27,0,0,0-11.342-4.1c-8.826.172-11.79,2.93-14.342,5.309-4.068,3.758-6.068,9.308-7.171,14.548-.724,5.171-1.448,8.033-.9,13.2a1.592,1.592,0,0,0,.241-.241,45.507,45.507,0,0,0,9.949-10.584,43.035,43.035,0,0,0,4.861-9.55c.517-1.241-.034-2.206-1.586-2.792q-.672-.1-.1-.517a6.66,6.66,0,0,1,2.689-.862,8.9,8.9,0,0,1,4.344,1.827c1.827,1.207,2.758,2.275,2.758,3.034a.879.879,0,0,1-.517.862,4.482,4.482,0,0,0-1.069.621A25.752,25.752,0,0,0,257.88,60.5a41.27,41.27,0,0,0,8.308-.862,4.281,4.281,0,0,0,1.827-.965,2.7,2.7,0,0,1,1.413-.758c.483,0,1.862.689,4.206,2.1q2.586,1.758,2.586,2.792a1.265,1.265,0,0,1-.724,1.138,5.257,5.257,0,0,0-1.758,1.827c-.276.448-.724,1.241-1.345,2.413-.9,1.62-1.448,2.655-1.689,3.068-1.517,2.758-2.586,4.516-3.172,5.378,2.723,2.137,5.24,6.171,5.585,8,.448,2.689-1.034,4.309-3.344,3.758-.862-.207-4-3.482-6.343-6.447-5.9,6.55-14.1,10.929-24.546,13.2a19.379,19.379,0,0,0,9.653,5.93c9.446,2.724,21.03,2.172,28.1-1.345A21.088,21.088,0,0,0,285.336,91.461ZM278.82,57.469a3.1,3.1,0,0,1-1.241,1.862,2.575,2.575,0,0,1-2.172.448c-1.207-.276-2.206-1.413-3-3.447a33.2,33.2,0,0,0-3.585-7.171,9.309,9.309,0,0,1,2.172.241,11.539,11.539,0,0,1,5.344,3q3,2.689,2.482,5.068Z" transform="translate(-235.395 -42.089)"/><path class="c" d="M357.111,53.8a9.912,9.912,0,0,0-4.964-2.482,11.129,11.129,0,0,0-2.206-.069,33.051,33.051,0,0,1,3.813,6.757c.793,1.931,1.758,2.965,2.792,3.1a2.355,2.355,0,0,0,1.965-.621,2.986,2.986,0,0,0,1.034-1.9C359.8,57.008,358.972,55.422,357.111,53.8Z" transform="translate(-308.17 -48.075)"/></g><text class="d" transform="translate(0 90.76)"><tspan x="0" y="0">EVERLA</tspan><tspan class="e" y="0">S</tspan><tspan y="0">TING GOOD </tspan><tspan class="f" y="0">T</tspan><tspan y="0">A</tspan><tspan class="e" y="0">S</tspan><tspan y="0">TE-IN ALL </tspan><tspan class="e" y="0">A</tspan><tspan y="0">GE</tspan></text></g></g><text class="g" transform="translate(401 255.173)"><tspan x="0" y="0">スタンプカード</tspan><tspan y="0">発行中!!</tspan></text><g class="l" transform="matrix(1, 0, 0, 1, 0, 0.17)"><text class="h" transform="translate(78 62)"><tspan x="0" y="0">どんどん</tspan><tspan y="0">食</tspan><tspan y="0">べて、どんどん</tspan><tspan y="0">貯</tspan><tspan y="0">めよう！</tspan></text></g><text class="i" transform="translate(267 113.173)"><tspan x="0" y="0">※ ご</tspan><tspan y="0">飲食１,０００円毎</tspan><tspan y="0">にスタンプ１</tspan><tspan y="0">個捺印</tspan><tspan y="0">します</tspan><tspan x="0" y="17">※ スタンプ３６</tspan><tspan y="17">個</tspan><tspan y="17">で、</tspan><tspan y="17">次回１,０００円値引</tspan><tspan y="17">いたします</tspan><tspan x="0" y="34">※ </tspan><tspan y="34">現金</tspan><tspan y="34">との</tspan><tspan y="34">交換及</tspan><tspan y="34">び</tspan><tspan y="34">他券</tspan><tspan y="34">との</tspan><tspan y="34">併用</tspan><tspan y="34">はできません</tspan><tspan x="0" y="51">※ </tspan><tspan y="51">紛失</tspan><tspan y="51">などによる</tspan><tspan y="51">再発行</tspan><tspan y="51">はいたしません</tspan><tspan x="0" y="68">※ </tspan><tspan y="68">発行店</tspan><tspan y="68">のみご</tspan><tspan y="68">利用頂</tspan><tspan y="68">けます</tspan><tspan x="0" y="85">※ スタンプカードのご</tspan><tspan y="85">利用</tspan><tspan y="85">は、１</tspan><tspan y="85">回</tspan><tspan y="85">につき１</tspan><tspan y="85">冊限</tspan><tspan y="85">りと</tspan><tspan x="0" y="102" xml:space="preserve">      させて</tspan><tspan y="102">頂</tspan><tspan y="102">きます</tspan></text></g></g></svg>