<svg xmlns="http://www.w3.org/2000/svg" width="580" height="289"><defs><filter id="a" x="27.5" y="97.995" width="220.979" height="131.696" filterUnits="userSpaceOnUse"><feOffset dx="3" dy="3"/><feGaussianBlur stdDeviation="1.5" result="b"/><feFlood flood-opacity=".161"/><feComposite operator="in" in2="b"/><feComposite in="SourceGraphic"/></filter><filter id="c" x="76.5" y="32.5" width="452" height="44" filterUnits="userSpaceOnUse"><feOffset dx="3" dy="3"/><feGaussianBlur stdDeviation="1.5" result="d"/><feFlood flood-opacity=".161"/><feComposite operator="in" in2="d"/><feComposite in="SourceGraphic"/></filter><style>.c{fill:#fff}.e{letter-spacing:.13em}</style></defs><g fill="#007bff" stroke="#707070"><path stroke="none" d="M0 0h580v289H0z"/><path fill="none" d="M.5.5h579v288H.5z"/></g><g transform="translate(-.001 .005)" filter="url(#a)"><rect width="211.979" height="122.696" rx="11" transform="translate(29 99.49)" fill="#c73d13"/></g><path class="c" d="M107.449 184.924a4.013 4.013 0 00-2.1-1.482 6.978 6.978 0 00-1.862-.241h-5.033a.224.224 0 00-.207.207v11.066a.224.224 0 00.207.207h5.02a4.507 4.507 0 004.1-2.172 7.091 7.091 0 00.965-3.827 7.267 7.267 0 00-.241-1.862 4.544 4.544 0 00-.849-1.896zm-2.137 5.93a2.2 2.2 0 01-2.206 1.482h-2.069v-6.861h2.067c1.034 0 1.724.276 2.034.827a5.28 5.28 0 01.517 2.517 5.358 5.358 0 01-.344 2.034zM120.343 193.646a1.62 1.62 0 01-.172-.758l-.034-1.276v-5.033a2.7 2.7 0 00-1.413-2.689 7.463 7.463 0 00-3.241-.689q-2.792 0-3.93 1.448a4.258 4.258 0 00-.827 2.344h.172l2.655.034a2.248 2.248 0 01.448-1 1.838 1.838 0 011.413-.483 3 3 0 011.379.241.907.907 0 01.448.9.869.869 0 01-.586.793 4.827 4.827 0 01-1.138.241l-.965.1a6.849 6.849 0 00-2.551.724 3.237 3.237 0 00-1.586 2.965 3.144 3.144 0 00.986 2.448 3.572 3.572 0 002.482.862 3.913 3.913 0 002.1-.552 5.564 5.564 0 001.31-1.069c0 .1.069.586.069.586l.172.621 3.172.035.034-.448a2.391 2.391 0 01-.397-.345zm-3.137-4.516v1a2.291 2.291 0 01-.793 1.965 2.993 2.993 0 01-1.689.552 1.475 1.475 0 01-.965-.31 1.21 1.21 0 01-.414-1.034 1.293 1.293 0 01.655-1.207 4.681 4.681 0 011.31-.379l.655-.138.758-.207s.379-.171.482-.243zm-6.412-2.206a.262.262 0 01.034-.138.262.262 0 00-.034.138zM129.306 183.203h-.138a3.313 3.313 0 00-2.137.689 5.389 5.389 0 00-1.1 1.414v-1.793l-2.758-.034-.034 10.963 2.9.034.034-5.24a4.02 4.02 0 01.345-1.931 2.39 2.39 0 012.31-1.1h.345l.483.034v-.208l.069-2.758a1.277 1.277 0 00-.319-.07zM138.683 189.44a4.54 4.54 0 01-.276 1.689 2.027 2.027 0 01-2 1.172 1.552 1.552 0 01-1.517-.793 3.505 3.505 0 01-.207-1.379v-6.585a.035.035 0 00-.035-.034h-2.965l-.034 6.619a6.9 6.9 0 00.483 2.861 3.341 3.341 0 003.31 1.793 4.66 4.66 0 001.482-.207 3.74 3.74 0 001.31-.827l.379-.448.138-.207v1.416l2.861.034.034-10.963-2.965-.034zM159.885 184.51a3.258 3.258 0 00-1.31-1 4.343 4.343 0 00-3.447.172 3.527 3.527 0 00-1.379 1.379 3.144 3.144 0 00-.931-1.276 3.379 3.379 0 00-2.034-.552 3.33 3.33 0 00-2.172.655 4.108 4.108 0 00-.931 1.138v-1.482l-2.861-.034-.034 10.929 2.965.034.034-6.619a2.6 2.6 0 01.241-1.31 1.666 1.666 0 011.62-.758 1.407 1.407 0 011.379.758 3.393 3.393 0 01.207 1.379v6.481l2.9.034.034-6.516a2.759 2.759 0 01.241-1.241 1.665 1.665 0 011.62-.965 1.384 1.384 0 011.379.724 2.151 2.151 0 01.207 1v6.929l2.965.034c.034-.034.069-6.895.069-6.895a9.731 9.731 0 00-.1-1.62 3.42 3.42 0 00-.655-1.379zM172.744 193.646a1.62 1.62 0 01-.172-.758l-.035-1.276v-5.033a2.7 2.7 0 00-1.413-2.689 7.463 7.463 0 00-3.241-.689q-2.793 0-3.93 1.448a4.161 4.161 0 00-.827 2.344h.172l2.655.034a2.248 2.248 0 01.448-1 1.837 1.837 0 011.413-.483 2.758 2.758 0 011.345.241.907.907 0 01.448.9.869.869 0 01-.586.793 4.825 4.825 0 01-1.138.241l-.965.1a6.85 6.85 0 00-2.551.724 3.237 3.237 0 00-1.586 2.965 3.144 3.144 0 001 2.448 3.572 3.572 0 002.482.862 3.913 3.913 0 002.1-.552 5.722 5.722 0 001.31-1.069c0 .1.069.586.069.586l.172.621 3.172.034.034-.448c-.135-.138-.27-.241-.376-.344zm-3.1-4.516v1a2.336 2.336 0 01-.793 1.965 2.992 2.992 0 01-1.689.552 1.475 1.475 0 01-.965-.31 1.21 1.21 0 01-.414-1.034 1.293 1.293 0 01.655-1.207 4.333 4.333 0 011.31-.379l.655-.138.758-.207c-.037-.001.342-.171.48-.243zm-6.447-2.206a.263.263 0 01.034-.138.263.263 0 00-.034.138z"/><g><path class="c" d="M134.698 149.553a30.612 30.612 0 00-8-6.205c-.552-.345-.483-.483.241-.414a36.81 36.81 0 0110.17 2.965 35.988 35.988 0 004.792-10.722c.069-.586-.138-.862-.655-.862q-.31 0-4.964.414c-3.447.31-5.447.448-5.964.448a43.393 43.393 0 01-6.447 6.343 39.329 39.329 0 01-9.481 6.068 5.074 5.074 0 01-1.069.379l-.034.034a15.672 15.672 0 00-2.255 3.9c-2.172 4.654-.9 10.2 1.586 14.2a44.733 44.733 0 009.825-4.758 46.128 46.128 0 0012.255-11.79z"/><path class="c" d="M159.865 163.377a15.111 15.111 0 00-2.9-16.858 25.394 25.394 0 000-4.758c-.9-5.1-1.172-10.756-3.241-15.514a19.756 19.756 0 00-6.378-8.136 18.27 18.27 0 00-11.342-4.1c-8.826.172-11.79 2.93-14.342 5.309-4.068 3.758-6.068 9.308-7.171 14.548-.724 5.171-1.448 8.033-.9 13.2a1.592 1.592 0 00.241-.241 45.507 45.507 0 009.949-10.584 43.035 43.035 0 004.861-9.55c.517-1.241-.034-2.206-1.586-2.792q-.672-.1-.1-.517a6.66 6.66 0 012.689-.862 8.9 8.9 0 014.344 1.827c1.827 1.207 2.758 2.275 2.758 3.034a.879.879 0 01-.517.862 4.482 4.482 0 00-1.069.621 25.752 25.752 0 00-2.752 3.55 41.27 41.27 0 008.308-.862 4.281 4.281 0 001.827-.965 2.7 2.7 0 011.413-.758c.483 0 1.862.689 4.206 2.1q2.586 1.758 2.586 2.792a1.265 1.265 0 01-.724 1.138 5.257 5.257 0 00-1.758 1.827c-.276.448-.724 1.241-1.345 2.413-.9 1.62-1.448 2.655-1.689 3.068-1.517 2.758-2.586 4.516-3.172 5.378 2.723 2.137 5.24 6.171 5.585 8 .448 2.689-1.034 4.309-3.344 3.758-.862-.207-4-3.482-6.343-6.447-5.9 6.55-14.1 10.929-24.546 13.2a19.379 19.379 0 009.653 5.93c9.446 2.724 21.03 2.172 28.1-1.345a21.088 21.088 0 008.699-8.266zm-6.516-33.992a3.1 3.1 0 01-1.241 1.862 2.575 2.575 0 01-2.172.448c-1.207-.276-2.206-1.413-3-3.447a33.2 33.2 0 00-3.585-7.171 9.309 9.309 0 012.172.241 11.539 11.539 0 015.344 3q3 2.689 2.482 5.068zM158.865 119.73a9.912 9.912 0 00-4.964-2.482 11.129 11.129 0 00-2.206-.069 33.051 33.051 0 013.813 6.757c.793 1.931 1.758 2.965 2.792 3.1a2.355 2.355 0 001.965-.621 2.986 2.986 0 001.034-1.9c.255-1.577-.573-3.163-2.434-4.785z"/></g><text transform="translate(89.067 204.765)" font-size="4" font-family="HelveticaNeue-Thin,Helvetica Neue" font-weight="200" letter-spacing=".15em" fill="#fff"><tspan x="0" y="0">EVERLA</tspan><tspan class="e" y="0">S</tspan><tspan y="0">TING GOOD </tspan><tspan y="0" letter-spacing=".07em">T</tspan><tspan y="0">A</tspan><tspan class="e" y="0">S</tspan><tspan y="0">TE-IN ALL </tspan><tspan class="e" y="0">A</tspan><tspan y="0">GE</tspan></text><text transform="translate(401 255)" font-family="NotoSansJP-Regular,Noto Sans JP" font-size="15" fill="#fff"><tspan x="0" y="0">スタンプカード</tspan><tspan y="0">発行中!!</tspan></text><g transform="translate(0 -.003)" filter="url(#c)"><text transform="translate(78 62)" font-size="24" letter-spacing=".1em" font-family="NotoSansJP-Regular,Noto Sans JP" fill="#fff"><tspan x="0" y="0">どんどん</tspan><tspan y="0">食</tspan><tspan y="0">べて、どんどん</tspan><tspan y="0">貯</tspan><tspan y="0">めよう！</tspan></text></g><text transform="translate(267 113)" font-size="12" font-family="NotoSansJP-Regular,Noto Sans JP" fill="#fff"><tspan x="0" y="0">※ ご</tspan><tspan y="0">飲食１,０００円毎</tspan><tspan y="0">にスタンプ１</tspan><tspan y="0">個捺印</tspan><tspan y="0">します</tspan><tspan x="0" y="17">※ スタンプ３６</tspan><tspan y="17">個</tspan><tspan y="17">で、</tspan><tspan y="17">次回１,０００円値引</tspan><tspan y="17">いたします</tspan><tspan x="0" y="34">※ </tspan><tspan y="34">現金</tspan><tspan y="34">との</tspan><tspan y="34">交換及</tspan><tspan y="34">び</tspan><tspan y="34">他券</tspan><tspan y="34">との</tspan><tspan y="34">併用</tspan><tspan y="34">はできません</tspan><tspan x="0" y="51">※ </tspan><tspan y="51">紛失</tspan><tspan y="51">などによる</tspan><tspan y="51">再発行</tspan><tspan y="51">はいたしません</tspan><tspan x="0" y="68">※ </tspan><tspan y="68">発行店</tspan><tspan y="68">のみご</tspan><tspan y="68">利用頂</tspan><tspan y="68">けます</tspan><tspan x="0" y="85">※ スタンプカードのご</tspan><tspan y="85">利用</tspan><tspan y="85">は、１</tspan><tspan y="85">回</tspan><tspan y="85">につき１</tspan><tspan y="85">冊限</tspan><tspan y="85">りと</tspan><tspan x="0" y="102"> させて</tspan><tspan y="102">頂</tspan><tspan y="102">きます</tspan></text></svg>