<svg width="212" height="123" viewBox="0 0 212 123" fill="none" xmlns="http://www.w3.org/2000/svg">
<path d="M11 0H201C207.1 0 212 4.9 212 11V111.7C212 117.8 207.1 122.7 201 122.7H11C4.9 122.7 0 117.8 0 111.7V11C0 5 5 0 11 0Z" fill="#C73D13"/>
<path d="M85.2996 63C94.0996 61 102 57.5 108.2 50.7C108.5 51.1 108.8 51.3 109 51.6C110.4 53.1 111.9 54.7 113.4 56.2C114 56.9 115.1 57 115.9 56.6C116.7 56.2 117.3 55.4 117.2 54.5C117.2 53.7 117 52.9 116.7 52.2C115.7 50 114.3 48 112.4 46.4C112.1 46.2 112 45.8 112.2 45.4C113.6 42.9 115 40.4 116.5 37.9C117.1 36.8 117.8 35.8 118.5 34.8C118.7 34.5 119 34.3 119.3 34.1C120.1 33.6 120.2 33.1 119.6 32.4C119 31.8 118.4 31.2 117.7 30.7C116.6 30 115.5 29.4 114.4 28.8C114 28.5 113.4 28.6 113.1 28.9C111.6 30.3 109.6 30.5 107.7 30.7C106.4 30.9 105 30.9 103.7 31C103.5 31 103.2 31 103 30.9C103.4 30.3 103.8 29.7 104.2 29.2C104.8 28.2 105.7 27.4 106.7 26.9C107.2 26.7 107.2 26 106.8 25.5C106.4 25 106 24.6 105.5 24.2C104.4 23.5 103.3 22.8 102.1 22.2C100.7 21.4 99.2996 22 97.8996 22.8C98.1996 23 98.3996 23.1 98.4996 23.2C99.4996 23.5 100.1 24.5 99.7996 25.5C99.7996 25.6 99.6996 25.8 99.5996 25.9C98.6996 28.5 97.3996 31 95.8996 33.4C94.0996 36.3 91.8996 39 89.3996 41.4C88.3996 42.4 87.1996 43.3 86.1996 44.2C85.9996 44.4 85.7996 44.7 85.5996 45L85.6996 45.2C86.0996 45 86.4996 44.9 86.8996 44.7C89.7996 43.3 92.4996 41.5 94.8996 39.4C96.1996 38.3 97.3996 37.2 98.6996 36C99.3996 35.3 99.9996 34.5 100.7 33.8C100.9 33.6 101.1 33.5 101.3 33.4C103.1 33.2 104.8 33.1 106.6 33C107.9 32.9 109.3 32.8 110.6 32.6C111.7 32.5 112 32.8 111.7 33.9C110.9 37 109.6 39.9 107.9 42.6C107.8 42.7 107.7 42.9 107.7 43C107.5 43.4 107.2 43.5 106.7 43.3C104 42.1 101.3 41.3 98.3996 40.8C98.0996 40.7 97.7996 40.8 97.4996 40.9L98.1996 41.4C100.5 42.8 102.7 44.4 104.6 46.3C104.9 46.5 105 47 104.8 47.3L104.7 47.4C100.5 53.1 94.9996 57.7 88.4996 60.7C87.3996 61.2 86.2996 61.6 85.1996 62.1C84.8996 62.3 84.4996 62.2 84.2996 61.9C84.2996 61.9 84.1996 61.8 84.1996 61.7C82.9996 59.7 82.2996 57.5 82.0996 55.2C81.7996 51.9 82.6996 48.6 84.5996 45.8C85.1996 44.9 85.3996 43.9 85.3996 42.8C85.2996 41.4 85.2996 39.9 85.4996 38.5C85.6996 35.8 86.0996 33 86.5996 30.4C87.0996 27 88.3996 23.8 90.3996 21.1C93.5996 17.1 98.1996 14.6 103.3 13.9C107.4 13.4 111.6 14.3 115.2 16.4C118 17.9 120.3 20.2 121.9 23C123.2 25.4 124.1 28 124.5 30.7C125.1 33.5 125.5 36.3 125.8 39.1C125.9 40.9 125.9 41.7 125.8 43C125.8 43.5 126 44.1 126.4 44.4C128.4 46.7 129.5 49.6 129.8 52.6C130 54.7 129.8 56.8 129 58.7C128.4 60.6 127.3 62.3 125.9 63.8C124.8 64.9 123.5 65.8 122.1 66.6C118.9 68.3 115.3 69.4 111.7 69.9C108.8 70.4 105.8 70.5 102.9 70.3C99.1996 70.1 95.4996 69.3 91.9996 68C89.4996 67.1 87.2996 65.5 85.4996 63.5L85.2996 63ZM113.5 20.3C113.5 20.4 113.6 20.5 113.6 20.6C114.8 22.7 115.9 24.8 116.7 27.1C117.1 27.9 117.6 28.7 118.2 29.4C119 30.2 120.2 30.3 121.1 29.7C122.3 28.9 122.7 27.3 122.1 26C121.5 24.7 120.5 23.5 119.3 22.7C117.8 21.2 115.7 20.4 113.5 20.3Z" fill="white"/>
<path d="M114.5 88.3H117.1V89.4C117.8 88.5 118.9 88 120 88C121.2 87.9 122.3 88.6 122.8 89.7C123.4 88.7 124.6 88 125.8 88.1C127.4 87.9 128.9 89 129.1 90.7C129.1 90.8 129.1 90.9 129.1 91C129.2 93.4 129.1 95.9 129.1 98.4H126.3V97.4C126.3 95.6 126.3 93.8 126.3 92C126.3 90.9 125.8 90.4 125 90.3C124.2 90.1 123.4 90.7 123.2 91.6C123.2 91.7 123.2 91.7 123.2 91.8C123.1 92.7 123.1 93.7 123.1 94.6C123.1 95.8 123.1 97.1 123.1 98.4H120.4V95.7C120.4 94.4 120.4 93.1 120.4 91.9C120.5 91.2 120 90.5 119.2 90.4C119.1 90.4 119 90.4 119 90.4C118 90.4 117.3 90.9 117.3 91.8C117.2 93.2 117.3 94.5 117.3 95.9V98.4H114.6L114.5 88.3Z" fill="white"/>
<path d="M85.4997 91.6H83.0997C82.9997 90.2 83.8997 88.8 85.2997 88.4C86.8997 87.9 88.6997 88 90.2997 88.7C91.2997 89.1 91.8997 90.1 91.7997 91.2C91.7997 93 91.7997 94.8 91.7997 96.5C91.7997 97.1 91.6997 97.7 92.2997 98.1C92.2997 98.1 92.2997 98.3 92.2997 98.5C91.3997 98.5 90.4997 98.5 89.5997 98.5C89.3997 98.5 89.2997 98 88.9997 97.6L88.4997 98C87.4997 98.8 86.1997 99.1 84.9997 98.8C83.6997 98.6 82.7997 97.5 82.6997 96.3C82.3997 94.9 83.1997 93.5 84.4997 93C85.3997 92.7 86.3997 92.5 87.3997 92.4C87.7997 92.4 88.0997 92.3 88.4997 92.1C88.8997 91.9 89.0997 91.4 88.9997 91C88.8997 90.8 88.6997 90.6 88.4997 90.5C87.4997 90 86.2997 90.3 85.7997 91.3C85.5997 91.3 85.4997 91.4 85.4997 91.6ZM88.8997 93.7L86.6997 94.2C86.3997 94.3 86.1997 94.4 85.8997 94.5C85.3997 94.8 85.0997 95.3 85.2997 95.9C85.3997 96.5 85.7997 96.9 86.3997 96.9C87.4997 97.1 88.5997 96.3 88.7997 95.2C88.8997 94.6 88.8997 94.1 88.8997 93.7Z" fill="white"/>
<path d="M131.6 91.6C131.5 90.1 132.5 88.7 134 88.4C135.6 87.9 137.2 88 138.8 88.6C139.7 88.9 140.4 89.8 140.3 90.8C140.3 92.7 140.3 94.7 140.3 96.6C140.3 97.1 140.2 97.7 140.7 98.1C140.7 98.1 140.6 98.5 140.5 98.5C139.7 98.6 138.9 98.6 138 98.5C137.8 98.5 137.6 98 137.4 97.6L137 98C136 98.8 134.7 99.1 133.5 98.8C132.2 98.6 131.2 97.5 131.2 96.1C131 94.8 131.7 93.5 132.9 93C133.9 92.7 134.9 92.5 135.9 92.3C136.2 92.3 136.6 92.2 136.9 92.1C137.2 91.9 137.5 91.6 137.5 91.3C137.4 90.9 137.2 90.6 136.9 90.4C135.9 89.9 134.7 90.4 134.2 91.4C134.1 91.5 134 91.6 133.8 91.6C133.1 91.6 132.4 91.6 131.6 91.6ZM137.6 93.7L136 94.1C135.6 94.2 135.2 94.3 134.8 94.5C134.2 94.7 133.9 95.4 134.1 96.1C134.2 96.6 134.7 97 135.2 97C136.4 97.2 137.4 96.3 137.6 95.2C137.6 95.1 137.6 95.1 137.6 95C137.6 94.4 137.6 94 137.6 93.7Z" fill="white"/>
<path d="M71.3008 98.6V88.1C71.5008 88.1 71.6008 88 71.8008 88C73.4008 88 74.9008 88 76.5008 88C78.6008 87.9 80.4008 89.4 80.7008 91.5C81.0008 92.9 80.9008 94.4 80.4008 95.8C79.9008 97.3 78.5008 98.4 76.9008 98.5C75.2008 98.6 73.6008 98.6 71.9008 98.6C71.7008 98.6 71.5008 98.6 71.3008 98.6ZM73.9008 96.5H75.8008C76.8008 96.5 77.6008 95.9 77.9008 95C78.3008 93.8 78.3008 92.6 77.9008 91.4C77.8008 90.9 77.3008 90.4 76.8008 90.3C75.9008 90.2 74.9008 90.2 73.9008 90.1V96.5Z" fill="white"/>
<path d="M111.601 98.4H109.001L108.901 97.3C108.801 97.3 108.701 97.4 108.701 97.4C107.601 98.6 105.801 99 104.201 98.3C103.101 97.9 102.401 96.9 102.401 95.7C102.301 93.7 102.301 91.7 102.301 89.7C102.301 88.2 102.301 88.2 103.801 88.2H105.101V88.9C105.101 90.8 105.101 92.7 105.101 94.6C105.001 95.2 105.301 95.9 105.901 96.2C106.601 96.5 107.301 96.4 107.901 96C108.301 95.6 108.501 95.1 108.701 94.6C108.801 94.1 108.801 93.6 108.801 93C108.801 91.4 108.801 89.9 108.801 88.2H111.501L111.601 98.4Z" fill="white"/>
<path d="M100.3 90.7C99.8 90.7 99.3 90.8 98.9 90.8C97.9 90.9 97.2 91.7 97.2 92.7C97.1 94.4 97.1 96.1 97.1 97.9C97.1 98 97.1 98.2 97.1 98.3H94.5V88.3H97L97.1 89.9C97.9 88.6 98.9 87.8 100.4 88.1L100.3 90.7Z" fill="white"/>
<path d="M57.9004 104.4H59.8004V104.9H58.4004V105.8H59.6004V106.3H58.4004V107.3H59.8004V107.8H57.9004V104.4Z" fill="white"/>
<path d="M62.9008 104.4H63.5008L62.2008 107.8H61.7008L60.3008 104.4H60.9008L61.9008 106.8L62.0008 107L62.1008 106.8L62.9008 104.4Z" fill="white"/>
<path d="M64.0996 104.4H65.9996V104.9H64.5996V105.8H65.7996V106.3H64.5996V107.3H65.9996V107.8H64.0996V104.4Z" fill="white"/>
<path d="M66.7992 104.4H67.7992C68.0992 104.4 68.3992 104.5 68.5992 104.7C68.7992 104.9 68.8992 105.2 68.8992 105.5C68.8992 105.7 68.8992 105.9 68.6992 106.1C68.5992 106.3 68.3992 106.4 68.1992 106.5L68.9992 107.9H68.3992L67.6992 106.6H67.2992V107.9H66.6992V104.4H66.7992ZM67.7992 104.9H67.3992V106H67.7992C67.9992 106 68.0992 106 68.1992 105.9C68.2992 105.8 68.3992 105.7 68.3992 105.5C68.3992 105.4 68.2992 105.2 68.1992 105.1C68.0992 105 67.8992 104.9 67.7992 104.9Z" fill="white"/>
<path d="M69.6992 104.4H70.2992V107.3H71.7992V107.8H69.7992L69.6992 104.4Z" fill="white"/>
<path d="M73.4 104.4H74L75.3 107.8H74.7L74.4 107H73L72.7 107.8H72L73.4 104.4ZM73.8 105.3L73.7 105.1L73.6 105.3L73.1 106.5H74.2L73.8 105.3Z" fill="white"/>
<path d="M76.9008 104.4C77.2008 104.4 77.4008 104.5 77.6008 104.7C77.8008 104.9 77.9008 105.2 77.9008 105.4H77.3008C77.3008 105.3 77.3008 105.1 77.2008 105C77.1008 104.9 77.0008 104.9 76.9008 104.9C76.7008 104.9 76.5008 105.1 76.4008 105.3C76.4008 105.3 76.4008 105.3 76.4008 105.4C76.4008 105.5 76.4008 105.6 76.5008 105.7C76.7008 105.8 76.8008 105.9 77.0008 105.9C77.3008 106 77.5008 106.1 77.8008 106.3C78.0008 106.5 78.0008 106.7 78.0008 106.9C78.0008 107.2 77.9008 107.5 77.7008 107.6C77.5008 107.8 77.2008 107.9 76.9008 107.9C76.6008 107.9 76.3008 107.8 76.1008 107.6C75.9008 107.4 75.8008 107.1 75.8008 106.8H76.4008C76.4008 107 76.4008 107.1 76.6008 107.2C76.7008 107.3 76.9008 107.4 77.0008 107.3C77.1008 107.3 77.3008 107.3 77.4008 107.2C77.5008 107.1 77.5008 107 77.5008 106.8C77.5008 106.7 77.4008 106.6 77.3008 106.5C77.1008 106.4 77.0008 106.3 76.8008 106.3C76.5008 106.2 76.3008 106.1 76.1008 105.9C75.9008 105.7 75.9008 105.5 75.9008 105.3C75.9008 105 76.0008 104.8 76.2008 104.6C76.4008 104.4 76.6008 104.3 76.9008 104.4Z" fill="white"/>
<path d="M78.4008 104.4H81.3008V104.9H80.1008V107.8H79.5008V104.9H78.3008L78.4008 104.4Z" fill="white"/>
<path d="M81.9004 104.4H82.5004V107.8H81.9004V104.4Z" fill="white"/>
<path d="M85.6 104.4H86.2V107.8H85.7L84.1 105.5L84 105.3V107.8H83.5V104.4H84L85.6 106.7L85.7 106.9L85.6 104.4Z" fill="white"/>
<path d="M88.5004 104.4C88.9004 104.4 89.2004 104.5 89.5004 104.7C89.8004 104.9 90.0004 105.2 90.0004 105.5H89.4004C89.3004 105.1 88.9004 104.9 88.5004 104.9C88.2004 104.9 87.9004 105 87.7004 105.3C87.5004 105.5 87.4004 105.9 87.4004 106.2C87.4004 106.5 87.5004 106.8 87.7004 107.1C87.9004 107.3 88.2004 107.5 88.5004 107.5C88.8004 107.5 89.0004 107.4 89.2004 107.3C89.4004 107.1 89.5004 106.9 89.5004 106.7H88.6004V106.2H90.1004V106.5C90.1004 106.9 90.0004 107.4 89.7004 107.7C89.4004 108 89.0004 108.2 88.6004 108.1C88.1004 108.1 87.7004 107.9 87.4004 107.6C87.1004 107.3 86.9004 106.8 86.9004 106.3C86.9004 105.8 87.1004 105.4 87.4004 105C87.6004 104.5 88.1004 104.3 88.5004 104.4Z" fill="white"/>
<path d="M93.6 104.4C94 104.4 94.3 104.5 94.6 104.7C94.9 104.9 95.1 105.2 95.1 105.5H94.5C94.4 105.1 94 104.9 93.6 104.9C93.3 104.9 93 105 92.8 105.3C92.6 105.5 92.5 105.9 92.5 106.2C92.5 106.5 92.6 106.8 92.8 107.1C93 107.3 93.3 107.5 93.6 107.5C93.9 107.5 94.1 107.4 94.3 107.3C94.5 107.1 94.6 106.9 94.6 106.7H93.7V106.2H95.2V106.5C95.2 106.9 95.1 107.4 94.8 107.7C94.5 108 94.1 108.2 93.7 108.1C93.2 108.1 92.8 107.9 92.5 107.6C92.2 107.3 92 106.8 92 106.3C92 105.8 92.2 105.4 92.5 105C92.7 104.5 93.1 104.3 93.6 104.4Z" fill="white"/>
<path d="M97.5008 104.4C98.0008 104.4 98.4008 104.6 98.7008 104.9C99.4008 105.6 99.4008 106.7 98.7008 107.4C98.4008 107.7 97.9008 107.9 97.5008 107.9C97.0008 107.9 96.6008 107.7 96.2008 107.4C95.5008 106.7 95.5008 105.6 96.2008 104.9C96.6008 104.6 97.0008 104.4 97.5008 104.4ZM96.3008 106.1C96.3008 106.4 96.4008 106.8 96.6008 107C97.1008 107.5 97.8008 107.5 98.3008 107C98.5008 106.8 98.6008 106.4 98.6008 106.1C98.6008 105.8 98.5008 105.5 98.3008 105.2C97.8008 104.7 97.1008 104.7 96.6008 105.2C96.4008 105.5 96.3008 105.8 96.3008 106.1Z" fill="white"/>
<path d="M101.6 104.4C102.1 104.4 102.5 104.6 102.8 104.9C103.5 105.6 103.5 106.7 102.8 107.4C102.5 107.7 102 107.9 101.6 107.9C101.1 107.9 100.7 107.7 100.3 107.4C99.6004 106.7 99.6004 105.6 100.3 104.9C100.7 104.6 101.1 104.4 101.6 104.4ZM100.4 106.1C100.4 106.4 100.5 106.8 100.7 107C101.2 107.5 101.9 107.5 102.4 107C102.6 106.8 102.7 106.4 102.7 106.1C102.7 105.8 102.6 105.5 102.4 105.2C101.9 104.7 101.2 104.7 100.7 105.2C100.5 105.5 100.4 105.8 100.4 106.1Z" fill="white"/>
<path d="M104 104.4H105.2C105.7 104.4 106.1 104.6 106.5 104.9C106.8 105.2 107 105.7 107 106.1C107 106.6 106.8 107 106.5 107.3C106.2 107.6 105.7 107.8 105.2 107.8H104V104.4ZM105.3 104.9H104.6V107.3H105.3C106 107.4 106.5 106.9 106.6 106.2C106.7 105.5 106.2 105 105.5 104.9C105.4 104.9 105.4 104.9 105.3 104.9Z" fill="white"/>
<path d="M108.6 104.4H111.5V104.9H110.3V107.8H109.8V104.9H108.6V104.4Z" fill="white"/>
<path d="M112.6 104.4H113.2L114.6 107.8H114L113.7 107H112.3L112 107.8H111.4L112.6 104.4ZM113 105.3L112.9 105.1L112.8 105.3L112.3 106.5H113.4L113 105.3Z" fill="white"/>
<path d="M116.101 104.4C116.401 104.4 116.601 104.5 116.801 104.7C117.001 104.9 117.101 105.2 117.101 105.4H116.501C116.501 105.3 116.501 105.1 116.401 105C116.301 104.9 116.201 104.9 116.001 104.9C115.801 104.9 115.601 105.1 115.501 105.3C115.501 105.3 115.501 105.3 115.501 105.4C115.501 105.5 115.501 105.6 115.601 105.7C115.801 105.8 115.901 105.9 116.101 105.9C116.401 106 116.601 106.1 116.901 106.3C117.101 106.5 117.101 106.7 117.101 106.9C117.101 107.2 117.001 107.5 116.801 107.6C116.601 107.8 116.301 107.9 116.001 107.9C115.701 107.9 115.401 107.8 115.101 107.6C114.901 107.4 114.801 107.1 114.801 106.8H115.401C115.401 107 115.401 107.1 115.601 107.2C115.701 107.3 115.901 107.4 116.001 107.3C116.101 107.3 116.301 107.3 116.401 107.2C116.501 107.1 116.501 107 116.501 106.8C116.501 106.7 116.401 106.6 116.401 106.5C116.201 106.4 116.101 106.3 115.901 106.3C115.601 106.2 115.401 106.1 115.201 105.9C115.001 105.7 115.001 105.5 115.001 105.3C115.001 105 115.101 104.8 115.301 104.6C115.501 104.4 115.801 104.3 116.101 104.4Z" fill="white"/>
<path d="M117.6 104.4H120.5V104.9H119.3V107.8H118.7V104.9H117.5V104.4H117.6Z" fill="white"/>
<path d="M121.1 104.4H123V104.9H121.7V105.8H122.9V106.3H121.7V107.3H123.1V107.8H121.2L121.1 104.4Z" fill="white"/>
<path d="M123.5 106.3H125V106.8H123.5V106.3Z" fill="white"/>
<path d="M125.699 104.4H126.299V107.8H125.699V104.4Z" fill="white"/>
<path d="M129.4 104.4H129.9V107.8H129.4L127.8 105.5L127.7 105.3V107.8H127.1V104.4H127.6L129.2 106.7L129.3 106.9L129.4 104.4Z" fill="white"/>
<path d="M132.999 104.4H133.599L134.999 107.8H134.399L134.099 107H132.699L132.399 107.8H131.699L132.999 104.4ZM133.399 105.3L133.299 105.1L133.199 105.3L132.699 106.5H133.799L133.399 105.3Z" fill="white"/>
<path d="M135.6 104.4H136.1V107.3H137.6V107.8H135.6V104.4Z" fill="white"/>
<path d="M138.301 104.4H138.901V107.3H140.401V107.8H138.401L138.301 104.4Z" fill="white"/>
<path d="M143.201 104.4H143.801L145.101 107.8H144.501L144.201 107H142.701L142.401 107.8H141.801L143.201 104.4ZM143.501 105.3L143.401 105.1L143.301 105.3L142.801 106.5H143.901L143.501 105.3Z" fill="white"/>
<path d="M147 104.4C147.4 104.4 147.7 104.5 148 104.7C148.3 104.9 148.5 105.2 148.5 105.5H148C147.9 105.1 147.5 104.9 147.1 104.9C146.8 104.9 146.5 105 146.3 105.3C146.1 105.5 146 105.9 146 106.2C146 106.5 146.1 106.8 146.3 107.1C146.5 107.3 146.8 107.5 147.1 107.5C147.4 107.5 147.6 107.4 147.8 107.3C148 107.1 148 106.9 148 106.7H147.1V106.2H148.6V106.5C148.6 106.9 148.5 107.4 148.2 107.7C147.9 108 147.5 108.2 147.1 108.1C146.6 108.1 146.2 107.9 145.9 107.6C145.6 107.3 145.4 106.8 145.4 106.3C145.4 105.8 145.6 105.4 145.9 105C146.1 104.5 146.6 104.3 147 104.4Z" fill="white"/>
<path d="M149.4 104.4H151.3V104.9H149.9V105.8H151.1V106.3H149.9V107.3H151.3V107.8H149.4V104.4Z" fill="white"/>
<path d="M153 104.4C153.3 104.4 153.5 104.5 153.7 104.7C153.9 104.9 154 105.2 154 105.4H153.4C153.4 105.3 153.4 105.1 153.3 105C153.2 104.9 153.1 104.9 152.9 104.9C152.8 104.9 152.7 104.9 152.6 105C152.5 105.1 152.5 105.2 152.5 105.3C152.5 105.4 152.5 105.5 152.6 105.6C152.8 105.7 152.9 105.8 153.1 105.8C153.4 105.9 153.6 106 153.9 106.2C154.1 106.4 154.1 106.6 154.1 106.8C154.1 107.1 154 107.4 153.8 107.5C153.6 107.7 153.3 107.8 153 107.8C152.7 107.8 152.4 107.7 152.2 107.5C152 107.3 151.9 107 151.9 106.7H152.5C152.5 106.9 152.5 107 152.7 107.1C152.8 107.2 153 107.3 153.1 107.2C153.2 107.2 153.4 107.2 153.5 107.1C153.6 107 153.6 106.9 153.6 106.7C153.6 106.6 153.5 106.5 153.5 106.4C153.3 106.3 153.2 106.2 153 106.2C152.7 106.1 152.5 106 152.3 105.8C152.1 105.6 152.1 105.4 152.1 105.2C152.1 104.9 152.2 104.7 152.4 104.5C152.5 104.4 152.8 104.3 153 104.4Z" fill="white"/>
<path d="M89.9 81.4C90.1 81.5 90.1 81.5 90.1 81.6C90.1 81.7 89.9 81.9 88.9 81.9H88.3C87.8 81.9 87.7 81.8 87.7 81.4V78.7H86.7C86.6 80.4 86.2 81.4 84.5 82.1V82C85.9 81.2 86.2 80.2 86.2 78.7H84.6V78.5H89.1L89.4 78.1C89.4 78.1 89.8 78.4 90 78.6C90 78.7 89.9 78.7 89.8 78.7H88.1V81.3C88.1 81.4 88.1 81.4 88.3 81.4H88.9C89.1 81.4 89.2 81.4 89.4 81.4C89.5 81.4 89.5 81.4 89.5 81.3C89.6 81 89.7 80.6 89.7 80.3H89.8L89.9 81.4ZM85.2 77.2V77H88.5L88.8 76.6C88.8 76.6 89.2 76.9 89.4 77.1C89.4 77.2 89.3 77.2 89.2 77.2H85.2Z" fill="white"/>
<path d="M93.0004 77.9C93.0004 77.9 92.9004 78 92.7004 78C92.5004 78.3 92.3004 78.7 92.1004 78.9C93.3004 79.3 92.9004 80.1 92.5004 79.8C92.4004 79.5 92.2004 79.3 92.0004 79V81.9C91.9004 82 91.8004 82.1 91.6004 82.1H91.5004V79.5C91.2004 79.8 90.9004 80 90.5004 80.3L90.4004 80.2C91.1004 79.6 91.7004 78.8 92.1004 77.9H90.6004V77.7H91.5004V76.6L92.2004 76.7C92.2004 76.8 92.1004 76.8 92.0004 76.9V77.8H92.2004L92.5004 77.5L93.0004 77.9ZM95.9004 81.4C95.9004 81.4 96.2004 81.7 96.3004 81.8C96.4004 81.9 96.2004 81.9 96.2004 81.9H92.6004V81.7H93.4004V76.7L93.9004 76.9H95.2004L95.4004 76.6L96.0004 77C95.9004 77.1 95.8004 77.1 95.7004 77.1V81.6H95.8004L95.9004 81.4ZM93.7004 77.2V78.6H95.1004V77.3L93.7004 77.2ZM95.1004 78.7H93.7004V80.1H95.1004V78.7ZM93.7004 81.7H95.1004V80.2H93.7004V81.7Z" fill="white"/>
<path d="M97.4004 77.9C97.6004 78.5 97.6004 79.1 97.4004 79.3C97.2004 79.6 96.8004 79.3 97.1004 78.9C97.2004 78.6 97.3004 78.2 97.4004 77.9ZM99.2004 78C99.1004 78.1 99.0004 78.1 99.0004 78C98.8004 78.2 98.5004 78.5 98.2004 78.6C98.2004 79 98.2004 79.4 98.1004 79.8C99.5004 80.4 99.1004 81.4 98.6004 81C98.5004 80.6 98.3004 80.3 98.1004 80C98.0004 80.8 97.6004 81.5 97.0004 81.9L96.9004 81.8C97.9004 80.7 97.8004 79.1 97.8004 76.5L98.5004 76.6C98.5004 76.7 98.4004 76.8 98.3004 76.8C98.3004 77.4 98.3004 78 98.3004 78.5C98.4004 78.2 98.6004 77.8 98.7004 77.6L99.2004 78ZM102.4 81.5C102.5 81.5 102.6 81.6 102.6 81.7C102.6 81.8 102.4 82 101.7 82H101.3C100.9 82 100.8 81.9 100.8 81.6V80H100.2C100.1 80.9 99.9004 81.6 98.3004 82.1L98.2004 82C99.6004 81.4 99.7004 80.8 99.7004 80H98.7004V79.8H99.5004V78.9H98.7004V78.7H99.6004V77.8L100.2 77.9C100.2 78 100.1 78 100 78V78.7H101.2V77.8L101.8 77.9C101.8 78 101.8 78 101.6 78V78.7H101.9L102.2 78.3C102.2 78.3 102.5 78.6 102.7 78.7C102.7 78.8 102.6 78.8 102.6 78.8H101.7V79.7H102L102.2 79.3C102.2 79.3 102.5 79.6 102.7 79.7C102.7 79.8 102.6 79.8 102.6 79.8H101.4V81.3C101.4 81.4 101.4 81.4 101.6 81.4H102.3C102.3 81.4 102.4 81.4 102.4 81.3C102.5 81.1 102.5 80.8 102.6 80.6H102.7L102.4 81.5ZM98.7004 77.3H100.2V76.5L100.9 76.6C100.9 76.7 100.8 76.7 100.7 76.8V77.3H101.7L102 76.9C102 76.9 102.3 77.1 102.5 77.3C102.5 77.4 102.4 77.4 102.3 77.4H100.7V78.1C100.7 78.2 100.5 78.2 100.3 78.2H100.2V77.4H98.7004V77.3ZM99.8004 79.8H101.1V78.9H99.7004L99.8004 79.8Z" fill="white"/>
<path d="M108.6 77.6C108.5 77.7 108.4 77.7 108.3 77.7V81.4C108.3 81.8 108.2 82 107.5 82.1C107.5 82 107.4 81.8 107.3 81.7C107.1 81.6 106.9 81.5 106.7 81.5V81.4H107.6C107.7 81.4 107.7 81.4 107.7 81.3V77.7H105.9C105.9 77.8 105.8 77.9 105.8 78C107.6 78.4 107.4 79.4 106.9 79.2C106.6 78.8 106.2 78.4 105.7 78.1C105.4 78.7 104.8 79.1 104.2 79.3L104.1 79.2C104.7 78.9 105.2 78.3 105.4 77.6H103.9V81.8C103.9 81.9 103.7 82 103.5 82H103.4V77.2L103.9 77.4H105.4C105.5 77.1 105.5 76.8 105.5 76.5L106.2 76.6C106.2 76.7 106.1 76.7 106 76.7C106 76.9 106 77.2 105.9 77.4H107.6L107.8 77.1L108.6 77.6ZM106.4 79C106.4 79.1 106.3 79.1 106.2 79.1C106.1 79.3 106.1 79.5 106 79.6C107.8 80.2 107.6 81.2 107.1 81C106.8 80.5 106.4 80.1 105.9 79.8C105.5 80.4 105 80.9 104.3 81.2V81.1C105.1 80.6 105.6 79.8 105.8 78.9L106.4 79Z" fill="white"/>
<path d="M114.3 79.8C114.5 79.9 114.7 80.1 114.9 80.3C114.9 80.4 114.8 80.4 114.7 80.4H113.4V81.4C113.4 81.8 113.3 82 112.7 82C112.7 81.9 112.6 81.8 112.6 81.7C112.4 81.6 112.2 81.5 112 81.5V81.4L112.9 81.5C113 81.5 113 81.5 113 81.4V80.4H109.6V80.2H113V79.7L113.6 79.8V79.6H110.8V79.8C110.8 79.8 110.6 80 110.4 80H110.3V77.7L110.8 77.9H111.9V77.3H109.7V77.1H112V76.5L112.7 76.6C112.7 76.7 112.6 76.7 112.5 76.8V77.2H114L114.3 76.8C114.3 76.8 114.7 77.1 114.9 77.3C114.9 77.4 114.8 77.4 114.7 77.4H112.5V77.9H113.6L113.8 77.7L114.3 78.1C114.2 78.2 114.2 78.2 114.1 78.2V79.8C114.1 79.8 113.9 79.9 113.7 79.9C113.7 80 113.6 80 113.5 80V80.3H114.1L114.3 79.8ZM110.6 80.6C112.2 80.8 111.9 81.9 111.4 81.6C111.2 81.2 110.9 80.8 110.6 80.6ZM110.8 78V78.6H111.9V78H110.8ZM110.8 79.4H111.9V78.8H110.8V79.4ZM112.4 78V78.6H113.6V78H112.4ZM113.5 79.4V78.8H112.3V79.4H113.5Z" fill="white"/>
<path d="M117.7 76.7L118.2 77.1C118.1 77.2 118.1 77.2 118 77.2V79.1C117.9 79.2 117.7 79.2 117.6 79.2H117.5V78.9H116.4V81.9C116.4 82 116.2 82.1 116 82.1H115.9V76.7L116.4 76.9H117.4L117.7 76.7ZM116.4 77.1V77.8H117.5V77.1H116.4ZM117.5 78.7V78H116.4V78.7H117.5ZM121.1 77.1C121 77.2 120.9 77.2 120.9 77.2V81.4C120.9 81.8 120.8 82 120.1 82.1C120.1 82 120 81.8 119.9 81.7C119.7 81.6 119.5 81.5 119.3 81.5V81.4L120.3 81.5C120.4 81.5 120.5 81.5 120.5 81.4V78.9H119.3V79.1C119.3 79.1 119.1 79.2 118.9 79.2H118.7V76.8L119.2 77H120.3L120.5 76.7L121.1 77.1ZM119.1 77.1V77.8H120.3V77.1H119.1ZM120.3 78.7V78H119.1V78.7H120.3Z" fill="white"/>
<path d="M126.799 77C126.799 77 127.199 77.3 127.399 77.5C127.399 77.6 127.299 77.6 127.199 77.6H122.899V78.9C122.999 80.1 122.599 81.2 121.799 82.1L121.699 82C122.199 81.1 122.399 80 122.399 78.9V77.2L122.999 77.4H124.499V76.5L125.199 76.6C125.199 76.7 125.099 76.7 124.999 76.8V77.5H126.399L126.799 77ZM126.699 78.3C126.699 78.3 127.099 78.6 127.299 78.8C127.299 78.9 127.199 78.9 127.099 78.9H125.199V80H126.199L126.399 79.7L126.899 80.1C126.799 80.2 126.799 80.2 126.699 80.2V81.9C126.699 81.9 126.599 82 126.299 82H126.199V81.6H123.799V81.9C123.799 81.9 123.699 82 123.399 82H123.299V79.7L123.799 79.9H124.599V77.7L125.299 77.8C125.299 77.9 125.199 77.9 125.099 78V78.7H126.299L126.699 78.3ZM123.799 80.1V81.4H126.199V80.1H123.799Z" fill="white"/>
<path d="M128 18.6C126.7 17.4 125.1 16.6 123.4 16.3C122.7 16.2 122.1 16.2 121.4 16.2C122.8 18.2 124 20.3 125 22.5C125.8 24.3 126.6 25.3 127.6 25.4C128.3 25.5 128.9 25.3 129.4 24.8C129.9 24.4 130.3 23.7 130.4 23C130.5 21.6 129.7 20.1 128 18.6Z" fill="white"/>
</svg>
