<svg xmlns="http://www.w3.org/2000/svg" width="499.17" height="490.697" viewBox="0 0 499.17 490.697">
  <g id="TitleMainDeco-dice" transform="translate(192.846 153.774)">
    <path id="Path_59" data-name="Path 59" d="M103.086,154.767a87.814,87.814,0,0,0-25.223-19.191c-1.647-1.1-1.1-1.647,1.1-1.647a125.341,125.341,0,0,1,31.8,9.318,126.9,126.9,0,0,0,15.349-33.992c0-1.647-.549-2.2-2.2-2.2-.543,0-6.031.549-15.9,1.1-10.416,1.1-17,1.647-18.643,1.647a138.574,138.574,0,0,1-20.283,19.74A119.466,119.466,0,0,1,39.481,148.73a8.853,8.853,0,0,1-3.287,1.116,53.8,53.8,0,0,0-7.129,12.062A48.3,48.3,0,0,0,34,207.42,158.429,158.429,0,0,0,64.7,192.613a148.151,148.151,0,0,0,38.383-37.846Z" transform="translate(-53.092 -196.686)" fill="#fff"/>
    <path id="Path_60" data-name="Path 60" d="M189.646,156.414a47.822,47.822,0,0,0-9.324-53.183,66.785,66.785,0,0,0,0-14.807c-2.738-15.9-3.836-33.992-10.416-48.793A62.628,62.628,0,0,0,149.617,13.86C139.478,5.706,129.792.7,113.948.7c-27.961.549-37.285,9.318-44.927,17a85.07,85.07,0,0,0-22.484,46.06C44.348,80.2,42.152,88.973,43.8,105.426a6.728,6.728,0,0,1,.549-.549,156.342,156.342,0,0,0,31.8-34A120.407,120.407,0,0,0,91.5,40.723c1.647-3.836,0-7.123-4.934-8.769-1.646,0-1.646-.549-.549-1.647a24.174,24.174,0,0,1,8.227-2.738,25.868,25.868,0,0,1,13.7,6.031c6,3.836,8.721,7.123,8.721,9.318a3.016,3.016,0,0,1-1.646,2.744,11.351,11.351,0,0,0-3.287,2.189,85.265,85.265,0,0,0-8.775,10.965,142.877,142.877,0,0,0,26.375-2.738,11.49,11.49,0,0,0,6.031-2.2,6.755,6.755,0,0,1,4.385-2.189,49.348,49.348,0,0,1,13.106,6.574c5.482,3.842,8.221,6.58,8.221,8.775a5.518,5.518,0,0,1-2.189,3.836,14.614,14.614,0,0,0-5.482,6.031c-1.1,1.647-2.2,3.842-4.391,7.678-2.738,4.385-4.385,7.678-5.482,9.324-4.934,8.769-8.221,14.252-9.867,17a42.876,42.876,0,0,1,17.545,24.125c1.647,8.221-3.287,13.709-10.416,12.062-2.744-.549-12.611-10.965-19.74-20.289-19.167,20.289-44.933,34-77.833,41.139a56.465,56.465,0,0,0,30.156,18.643c29.607,8.775,66.343,6.58,88.822-4.385A65.577,65.577,0,0,0,189.646,156.414ZM169.327,50.048a14.192,14.192,0,0,1-3.836,6.031,7.237,7.237,0,0,1-6.6,1.647,14.614,14.614,0,0,1-9.324-10.971,87.176,87.176,0,0,0-11.514-22.478,26.773,26.773,0,0,1,6.58.549,39.806,39.806,0,0,1,17,9.318C167.68,39.632,170.425,44.565,169.327,50.048Zm16.359-31.571c-5.662-3.975-9.6-5.662-15.5-6.739a15.639,15.639,0,0,0-7.129,0,102.163,102.163,0,0,1,12.062,21.387c2.744,6.031,5.482,9.318,8.775,9.867a6.538,6.538,0,0,0,6.031-2.2,13.064,13.064,0,0,0,3.287-6.031c1.479-6.155-2.518-12.392-7.53-16.288Z" transform="translate(-60.119 -154.474)" fill="#fff"/>
    <path id="Path_65" data-name="Path 65" d="M10.208-8.256v-2.72h4.016c.128,0,.336,0,.336-.176,0-.08-.048-.144-.144-.224L13.328-12.3c-.128-.1-.176-.128-.256-.128-.1,0-.144.08-.208.16l-.56.848H10.256v-1.312c.3-.1.512-.176.512-.352,0-.128-.128-.192-.336-.224l-1.376-.176c.064.88.08,1.616.08,2.064H7.424c-.64,0-1.136-.032-1.6-.064l.224.576A10.551,10.551,0,0,1,7.3-10.976H9.184v2.72H7.76V-9.568c.48-.16.48-.256.48-.352,0-.144-.176-.192-.336-.208L6.656-10.3c.048.56.08,1.216.08,2.048-.688,0-1.024-.016-1.744-.064l.224.576a12.04,12.04,0,0,1,1.264-.08h.256v2.608c-.512,0-1.312-.048-1.5-.064l.24.576A10.551,10.551,0,0,1,6.72-4.768h3.728V-.736c0,1.52.288,1.52,2.048,1.52,1.584,0,2.864,0,2.864-.88a.461.461,0,0,0-.1-.3c-.224-.256-.256-.3-.3-.48-.032-.128-.112-1.456-.144-1.824l-.192-.016c-.08.336-.448,1.792-.512,1.968-.176.416-.48.416-1.28.416-1.168,0-1.3,0-1.3-.64V-4.768H14.7c.112,0,.3,0,.3-.176a.327.327,0,0,0-.128-.208L13.9-6.016a.494.494,0,0,0-.224-.112c-.112,0-.144.064-.208.16l-.528.752h-.272V-7.824h2.384c.112,0,.32,0,.32-.16,0-.08-.064-.144-.144-.208l-.976-.864c-.064-.048-.144-.128-.224-.128-.112,0-.16.1-.208.16l-.528.768h-.624v-1.3c.4-.144.5-.224.5-.352,0-.16-.16-.208-.32-.224l-1.28-.176c.032.368.08,1.008.08,2.048Zm1.376.432v2.608H7.824V-7.824ZM5.2-10.752A7.019,7.019,0,0,1,3.952-8.544v-4.08c.432-.16.576-.24.576-.416,0-.144-.176-.192-.4-.224L2.816-13.44c.064.656.08,1.472.08,1.824v3.072C2.9-4.528,2.864-2.016.64.944l.128.128a7,7,0,0,0,2.9-4.9A7.223,7.223,0,0,1,4.672-1.936c.288.768.352.928.656.928.16,0,.56-.128.56-.816,0-1.12-1.328-2-2.16-2.448a26.255,26.255,0,0,0,.224-3.712A14.816,14.816,0,0,0,5.92-9.52a2.29,2.29,0,0,0,.368.048c.032,0,.224,0,.224-.192,0-.08-.032-.176-.24-.32Zm-3.616.64A10.33,10.33,0,0,1,1.04-7.536,9.185,9.185,0,0,0,.5-6.1a.416.416,0,0,0,.448.416c.88,0,1.1-1.328,1.1-2.4a6.8,6.8,0,0,0-.272-2.048ZM7.664-4.7a2.962,2.962,0,0,1-.016.512A7.125,7.125,0,0,1,4.192,1.1l.1.16a6.01,6.01,0,0,0,4.48-5.136c.256-.064.512-.128.512-.32,0-.16-.288-.256-.48-.288ZM23.7-7.248C23.12-5.1,22.08-3.472,19.312-1.136l.1.144A9.976,9.976,0,0,0,23.92-4.976a11.291,11.291,0,0,1,2.992,2.72c.64.816.72.912.944.912.24,0,.48-.208.48-.656,0-1.76-3.76-3.12-4.256-3.264a8.823,8.823,0,0,0,.5-1.04c.32,0,.608,0,.608-.24,0-.176-.224-.288-.336-.32Zm-.208-6.24a10.074,10.074,0,0,1-.256,2.384h-4l-1.424-.64c.032.384.064.848.064,1.936v8.48c0,.32-.048,1.84-.048,2.192,0,.144.016.352.368.352.576,0,.864-.144.864-.48,0-.3-.032-1.744-.032-2.08v-9.312H23.1a9.17,9.17,0,0,1-3.84,5.008l.08.16a7.784,7.784,0,0,0,4.448-4.08A12.278,12.278,0,0,1,27.04-6.64c.56.736.624.816.848.816.368,0,.464-.368.464-.64,0-1.888-4.4-3.392-4.416-3.408a6.826,6.826,0,0,0,.288-.784h4.784V-.9c0,.368-.016.56-.56.544l-1.92-.064V-.24c.192.1,1.216.432,1.424.544a.925.925,0,0,1,.5.88C30,1.04,30.208.528,30.208-.32c0-.224-.048-1.328-.048-1.584v-8.4c.512-.272.56-.352.56-.464,0-.1-.048-.128-.16-.224l-.848-.688a.478.478,0,0,0-.224-.1c-.08,0-.128.064-.176.144l-.4.528h-4.56a8.834,8.834,0,0,0,.288-1.632c.336-.08.544-.128.544-.352,0-.192-.176-.224-.464-.256ZM34.624.752c4.64-1.12,7.1-3.968,9.312-8.288.672-1.312.736-1.456,1.024-1.648.288-.176.4-.256.4-.416,0-.288-.96-1.12-1.264-1.12-.144,0-.832.352-.992.384a21.42,21.42,0,0,1-3.456.368A4.279,4.279,0,0,1,39.072-10a5.637,5.637,0,0,1,.432-.592c.208-.224.3-.336.3-.544,0-.416-.864-1.152-1.664-1.152a1.485,1.485,0,0,0-.528.112l-.064.16c.224.112.752.4.752.832,0,.4-1.36,3.28-4.32,6.192l.1.128a8.672,8.672,0,0,0,2.784-2.08A7.5,7.5,0,0,1,39.408-4.9c.544.688.592.768.848.768a.626.626,0,0,0,.512-.688c0-1.44-2.9-2.192-3.7-2.368A15.479,15.479,0,0,0,38.7-9.424a2.108,2.108,0,0,0,1.04.288c.56,0,3.328-.384,3.5-.384.08,0,.16.032.16.112A13.081,13.081,0,0,1,42.16-6.64,15.9,15.9,0,0,1,34.56.592Zm9.152-13.136a7.067,7.067,0,0,1,1.936,1.808c.352.5.432.608.672.608a.507.507,0,0,0,.432-.544c0-.816-1.328-1.776-2.928-2.048Zm1.152-1.088A6.975,6.975,0,0,1,46.9-12.016c.576.624.64.7.816.7a.461.461,0,0,0,.416-.512c0-.784-1.392-1.712-3.1-1.84Zm6.944,2.912c.832.192.928.544.928,1.36a17.1,17.1,0,0,1-.656,4.576,9.057,9.057,0,0,1-2.7,4.272l.1.144c3.9-1.92,4.192-5.392,4.416-8.928.016-.144.112-.816.112-.976,0-.48-1.072-.9-1.472-.9a1.241,1.241,0,0,0-.72.272Zm3.168-.96c.832.368.944.592.944,1.888,0,1.216-.048,5.936-.1,6.864-.016.144-.1.848-.1,1.008A1.66,1.66,0,0,0,56.816-.592.842.842,0,0,0,57.248-.8c.16-.128.608-.464.752-.56,2.4-1.616,4.24-2.848,5.28-5.712l-.144-.1a15.039,15.039,0,0,1-6.048,4.912c-.16,0-.16-.272-.16-.352,0-.3.064-6.112.192-7.248.016-.144.24-.816.24-.976,0-.48-1.152-1.04-1.712-1.04a1.067,1.067,0,0,0-.576.176ZM68.816-5.5A13.483,13.483,0,0,1,72.56-1.456c.336.624.448.864.784.864.32,0,.608-.3.608-.848,0-.56-.256-1.168-1.376-2.112,1.936-1.728,2.208-2,4.576-4.416.5-.512.592-.544.848-.624.144-.064.4-.16.4-.384,0-.3-.768-1.392-1.3-1.392a10,10,0,0,0-.96.384c-.384.1-9.1.688-9.152.688a1.458,1.458,0,0,1-1.36-.688l-.176.048a4.109,4.109,0,0,0-.048.432,1.8,1.8,0,0,0,1.328,1.568,13.333,13.333,0,0,0,1.376-.352,65.551,65.551,0,0,1,7.952-.9c.128,0,.272,0,.272.144a33.578,33.578,0,0,1-4.208,5.12A10.61,10.61,0,0,0,68.9-5.664Zm14.416-5.92L81.84-12.08c.048.752.064,1.6.064,1.76v1.072a10.778,10.778,0,0,1-1.28,6l.144.128c1.568-1.248,2.24-2.96,2.24-6.16v-1.7h6.416a11.474,11.474,0,0,0,1.36,4.736,13.629,13.629,0,0,1-2.448,2.448l.128.144a8.763,8.763,0,0,0,2.768-1.9,4.924,4.924,0,0,0,3.3,2.128c.1,0,.592,0,.592-.448a.811.811,0,0,0-.144-.416,1.125,1.125,0,0,1-.192-.624c0-.208.24-1.648.3-1.968L94.9-6.944c-.432.992-.528,1.2-.768,1.648-.128.256-.24.416-.416.416A3.546,3.546,0,0,1,91.92-6.32a17.292,17.292,0,0,0,1.872-2.992c.544-.032.608-.032.608-.224,0-.144-.112-.224-.416-.368l-1.04-.48a10.114,10.114,0,0,1-1.52,3.264,10.394,10.394,0,0,1-.976-3.856h4.528c.112,0,.3,0,.3-.176,0-.1-.064-.128-.128-.192l-.928-.816a.419.419,0,0,0-.224-.1c-.112,0-.144.048-.208.128l-.512.7H90.416c-.032-.4-.048-.64-.064-1.344.272-.16.416-.224.416-.368,0-.176-.144-.192-.448-.224l-1.152-.128c.1.576.16,1.488.208,2.064ZM85.408-7.84,84.16-8.5c.048.64.064,1.312.064,1.616v.816c0,.208-.048,1.136-.048,1.36,0,.208.016.4.432.4.112,0,.608,0,.608-.464v-.32h2.32c0,.464,0,.544.336.544.7,0,.7-.368.7-.64,0-.192-.032-1.12-.032-1.216v-.736c.48-.224.48-.336.48-.4A.255.255,0,0,0,88.9-7.76l-.8-.592a.424.424,0,0,0-.224-.112c-.048,0-.1.032-.176.144l-.32.48Zm2.128.448v1.856h-2.32V-7.392Zm4.448,4.144a8.764,8.764,0,0,1,1.392,2.224c.432,1.024.48,1.136.768,1.136.32,0,.576-.32.576-.8,0-1.488-1.888-2.368-2.64-2.72ZM82.992-3.28A5.72,5.72,0,0,1,81.7-.9c-.4.416-.528.56-.528.8,0,.128,0,.512.608.512.816,0,1.456-1.152,1.456-2.992a6.012,6.012,0,0,0-.048-.7Zm1.552-.272c.064.864.064,1.584.064,1.728v1.3C84.608.224,84.72.8,86.128.8h3.44c.816,0,2.352,0,2.352-.864a.292.292,0,0,0-.064-.192,4.45,4.45,0,0,1-.336-.432,12.6,12.6,0,0,1-.224-1.76L91.1-2.464c-.24.944-.352,1.376-.464,1.68-.176.464-.416.48-.864.48H86.5c-.784,0-.784-.192-.784-.608V-2.736c.416-.176.576-.24.576-.416s-.24-.208-.416-.224Zm6.432-9.712a6.206,6.206,0,0,1,.992.816c.512.512.576.576.784.576.336,0,.432-.368.432-.56,0-.848-1.184-.944-2.144-1.008Zm-5.888,3.68c-.64,0-1.152-.032-1.616-.064l.24.576a10.551,10.551,0,0,1,1.248-.064h3.968c.112,0,.32,0,.32-.192,0-.064-.048-.128-.128-.208l-.928-.8c-.128-.112-.176-.128-.24-.128-.112,0-.16.064-.224.16l-.5.72Zm2,5.68a7.646,7.646,0,0,1,1.12,1.872c.336.816.4.912.672.912s.608-.256.608-.784a1.651,1.651,0,0,0-.624-1.2c-.352-.336-.416-.368-1.664-.944Zm17.776-7.3h-1.328a10.914,10.914,0,0,0,1.152-1.376c.384-.032.624-.048.624-.272,0-.112-.064-.224-.368-.32l-1.184-.368a13.343,13.343,0,0,1-.608,2.336H103.1l-1.152-.592c.064.848.08,1.584.08,1.84V-4.72c-.192,0-.64.032-.72.032l.352,1.2c.1.3.144.352.256.352.176,0,.192-.112.272-.464,1.1-.384,1.76-.608,2.368-.848A23.971,23.971,0,0,1,101.1-.176l.128.16a13.754,13.754,0,0,0,3.76-3.536V-.736c0,.32-.016.528-.544.512l-1.6-.064-.016.192c1.632.544,1.648.816,1.68,1.344,1.232-.144,1.5-.5,1.5-1.6,0-.208-.032-1.3-.032-1.536v-3.1l.1-.16c.432,0,.56,0,.56-.208,0-.1-.032-.16-.256-.3l-.4-.256V-10.4c.528-.3.528-.352.528-.448s-.064-.144-.144-.208l-.832-.624a.317.317,0,0,0-.208-.1c-.08,0-.128.064-.176.128Zm.128,1.984h-1.968v-1.536h1.968Zm0,4.016c-.048.08-.048.1-.08.144-.512.064-.816.112-1.888.24v-1.84h1.968Zm0-1.9h-1.968V-8.768h1.968Zm-5.136,2.96H98.7L97.456-4.8c.048.624.064,1.5.064,1.856v1.712c0,.352-.064,2.048-.064,2.192,0,.288.16.352.4.352.656,0,.656-.256.656-.512V.16h1.5V.736c0,.192,0,.336.336.336.56,0,.7-.224.7-.5,0-.208-.064-1.92-.064-2.112V-3.408c.4-.224.448-.256.448-.384a.416.416,0,0,0-.16-.272l-.7-.576a.291.291,0,0,0-.208-.112c-.064,0-.112.048-.192.144Zm.16,3.856h-1.5V-3.7h1.5Zm8.832-8.976h-1.136a15.722,15.722,0,0,1-1.584-.064l.24.576c.464-.032.816-.064,1.248-.064h1.232V-.608c0,.144,0,.352-.352.336L106.528-.32v.192c1.584.528,1.792.592,1.856,1.392,1.536-.128,1.536-.752,1.536-1.392,0-.32-.032-1.9-.032-2.256V-8.816h1.424c.128,0,.32,0,.32-.176a.3.3,0,0,0-.112-.208l-.7-.736a.3.3,0,0,0-.208-.112c-.1,0-.128.048-.192.144l-.384.64h-.144v-3.312c.528-.192.592-.288.592-.416,0-.176-.24-.224-.4-.24l-1.312-.176c.048.5.08.992.08,1.488Zm-2.32,2.272a8.615,8.615,0,0,1,1.008,3.12c.1.5.24.576.416.576.352,0,.608-.336.608-.9,0-1.36-1.344-2.464-1.872-2.912Zm-7.6-5.36c-.656,0-1.168-.032-1.616-.064l.224.576a12.656,12.656,0,0,1,1.28-.064h2.176c.112,0,.32,0,.32-.176a.272.272,0,0,0-.128-.208l-.832-.688a.356.356,0,0,0-.208-.128c-.112,0-.16.08-.208.16l-.432.592Zm-.72,2.016c-.64,0-1.12-.032-1.616-.064l.224.576a11.622,11.622,0,0,1,1.28-.064h3.184c.112,0,.3,0,.3-.192a.247.247,0,0,0-.112-.192l-.864-.7c-.1-.08-.144-.128-.224-.128-.064,0-.128.032-.208.16l-.432.608Zm.7,2.016c-.624,0-1.1-.032-1.6-.064l.224.576a11.818,11.818,0,0,1,1.28-.064h2.208c.112,0,.32,0,.32-.176a.272.272,0,0,0-.128-.208l-.848-.688c-.128-.1-.16-.112-.24-.112a.282.282,0,0,0-.208.144L99.5-8.32Zm.016,2.032c-.656,0-1.168-.032-1.616-.064l.224.576c.656-.048.912-.064,1.28-.064h2.192c.112,0,.3,0,.3-.176a.3.3,0,0,0-.112-.208l-.864-.672c-.112-.1-.144-.128-.224-.128-.064,0-.128.032-.208.144l-.416.592Zm28.64-2.192a11.893,11.893,0,0,1-7.328-4.112c.08-.016.464-.048.464-.256,0-.176-.3-.272-.336-.288l-1.248-.448c-.832,1.92-3.408,4.64-6.672,6.688l.08.176a15.965,15.965,0,0,0,7.44-5.648,13.248,13.248,0,0,0,6.32,5.232,2.1,2.1,0,0,1,1.28-1.152ZM120.72-5.04V-8.224c.544-.208.608-.224.608-.416,0-.176-.24-.224-.4-.24l-1.44-.176c.08.928.08,1.776.08,1.824V-.08h-3.04V-5.888c.464-.176.608-.256.608-.416,0-.192-.24-.224-.416-.24L115.3-6.72c.064.88.08,1.584.08,1.808V-.08h-1.168c-.656,0-1.152-.032-1.616-.064l.224.576A10.881,10.881,0,0,1,114.1.368h12.976c.112,0,.3,0,.3-.176a.272.272,0,0,0-.128-.208L126.08-1.04a.336.336,0,0,0-.224-.112c-.112,0-.16.08-.208.144l-.624.928h-4.3V-4.592h4.768c.112,0,.32,0,.32-.176,0-.064-.048-.128-.128-.208l-1.168-.992a.373.373,0,0,0-.224-.112c-.112,0-.16.08-.208.144l-.608.9Zm14.688-4.448h-1.776l-1.344-.624c.032.464.064,1.3.064,1.824v4.5c0,.08-.048,1.632-.048,1.792,0,.272,0,.544.4.544.672,0,.672-.24.672-.576v-.416h5.2v.464c0,.224.016.336.32.336.624,0,.768-.208.768-.48,0-.3-.048-1.808-.048-2.144v-4.5c.512-.288.512-.336.512-.432,0-.112-.064-.16-.144-.224l-.848-.64a.344.344,0,0,0-.208-.1c-.08,0-.128.064-.176.128l-.368.544H136.5V-11.84h6.5c.112,0,.3,0,.3-.176,0-.1-.08-.16-.144-.224l-1.168-.976c-.08-.064-.128-.112-.208-.112-.112,0-.16.08-.208.144l-.624.9H130.336c-.64,0-1.12-.032-1.616-.064l.24.576a10.693,10.693,0,0,1,1.248-.064h5.2Zm.032,3.248h-2.064v-2.8h2.064Zm1.04-2.8h2.1v2.8h-2.1ZM135.44-2.9h-2.064v-2.9h2.064Zm1.04-2.9h2.1v2.9h-2.1ZM130.768-.4V-8.608c.416-.16.592-.224.592-.4,0-.192-.256-.224-.4-.24l-1.392-.176a12.78,12.78,0,0,1,.08,1.824v6.048c0,.336-.064,2.016-.064,2.4,0,.16.016.368.4.368.784,0,.784-.32.784-.544V.048h10.464V.864c0,.272.048.4.352.4.832,0,.832-.368.832-.56,0-.144-.064-1.936-.064-2.3V-8.592c.4-.16.592-.24.592-.416,0-.192-.24-.224-.4-.24l-1.392-.176a13.29,13.29,0,0,1,.08,1.824V-.4Z" transform="translate(-13.484 161.331)" fill="#fff"/>
    <path id="Path_64" data-name="Path 64" d="M9.66-9.786H7.434c-1.722,0-2.73-.084-4.242-.168l.63,1.512A27.578,27.578,0,0,1,7.1-8.61H38.43c.252,0,.84,0,.84-.462,0-.168-.084-.294-.336-.546l-2.772-2.436a.864.864,0,0,0-.63-.336c-.252,0-.378.21-.5.42L33.6-9.786H32.466v-9.24h7.1c.21,0,.84,0,.84-.462,0-.252-.168-.378-.336-.546l-2.814-2.394c-.21-.21-.378-.378-.63-.378-.168,0-.294.084-.5.42L34.692-20.2H32.466v-9.24H36.96c.21,0,.84,0,.84-.462a.823.823,0,0,0-.336-.588l-3.108-2.646a.978.978,0,0,0-.63-.294.74.74,0,0,0-.546.378l-1.638,2.436H11.088c.8-1.218,1.008-1.554,1.47-2.31.714-.042,1.6-.084,1.6-.714,0-.462-.8-.714-1.092-.84L9.828-35.616c-.462,1.764-2.184,7.1-7.6,13.608l.378.378C5.88-23.562,8.064-26.5,9.66-28.6v8.4H5.88c-1.722,0-2.73-.084-4.242-.168l.588,1.512a28.3,28.3,0,0,1,3.318-.168H9.66Zm2.688-9.24H16.38v9.24H12.348Zm0-10.416H16.38v9.24H12.348Zm10.668,0v9.24H18.984v-9.24Zm0,10.416v9.24H18.984v-9.24Zm6.72-10.416v9.24H25.62v-9.24Zm0,10.416v9.24H25.62v-9.24ZM8.358-6.972A18.975,18.975,0,0,1,4.452-.63C3.276.63,2.94,1.008,2.94,1.722s.546,1.3,1.6,1.3c3.4,0,4.452-5.544,4.326-9.912Zm4.578.168A21.934,21.934,0,0,1,15.5.168c.42,2.016.5,2.478,1.428,2.478.882,0,1.806-.84,1.806-2.394,0-2.436-2.52-5.418-5.418-7.392Zm9.408,0a23.494,23.494,0,0,1,2.73,6.132c.84,2.814.924,3.15,1.764,3.15.588,0,1.722-.756,1.722-2.478,0-3.318-4.746-6.51-5.88-7.14ZM31-6.8A23.767,23.767,0,0,1,35.658.756c.84,2.016.924,2.226,1.722,2.226.84,0,1.6-.882,1.6-2.352,0-3.57-5.208-6.846-7.686-7.854ZM55.944-19.95h7.77c.294,0,.84,0,.84-.5A.858.858,0,0,0,64.218-21l-2.184-1.932a.718.718,0,0,0-.546-.294.74.74,0,0,0-.546.378l-1.134,1.68H55.944V-33.222c1.092-.42,1.512-.63,1.512-1.092,0-.5-.63-.588-.966-.63L53-35.406c.168,2.52.168,4.326.168,4.788v9.45h-3.99c-1.68,0-3.024-.042-4.2-.126l.588,1.47a32.306,32.306,0,0,1,3.318-.126h3.78c-.8,2.688-2.226,7.56-8.316,15.876l.42.294a30.528,30.528,0,0,0,8.4-10.71V-3.822c0,.672-.084,5.754-.084,6.132,0,.8.21,1.092.924,1.092,2.058,0,2.058-.966,2.058-1.344,0-.882-.126-5.166-.126-6.132V-16.8a22.811,22.811,0,0,1,3.444,5.418C60.354-9.156,60.48-8.9,61.11-8.9c.672,0,1.386-.588,1.386-1.848,0-2.982-3.822-5.838-6.552-7.056ZM78.5-12.642V-33.18c1.092-.42,1.554-.588,1.554-1.092S79.38-34.86,79-34.9l-3.7-.462c.21,2.6.21,4.7.21,5.04v18.438L66.948-9.744a36.653,36.653,0,0,1-4.284.8L63.63-7.56a28.265,28.265,0,0,1,3.4-1.008l8.484-2.016v6.762c0,.42-.126,5.586-.126,6.09,0,.714.126,1.008,1.05,1.008,1.47,0,2.184-.378,2.184-1.3,0-.8-.126-5.376-.126-6.174v-7.1l5.124-1.218c.336-.084.714-.21.714-.546,0-.252-.126-.378-.42-.588L81.27-15.2a1.778,1.778,0,0,0-.5-.168c-.336,0-.462.336-.546.5l-.8,2.016ZM65.6-32.3a23.516,23.516,0,0,1,3.318,4.326c1.6,2.688,1.764,2.982,2.394,2.982A1.671,1.671,0,0,0,72.744-26.8c0-3.444-5.334-5.46-6.846-5.922Zm-.63,10.92a27.32,27.32,0,0,1,3.7,5.208c1.092,1.932,1.218,2.142,1.932,2.142a1.652,1.652,0,0,0,1.512-1.764c0-3.528-5.418-5.544-6.846-6.006ZM45.864-31.836a24.483,24.483,0,0,1,2.562,6.3c.378,1.428.546,2.142,1.386,2.142.672,0,1.512-.63,1.512-1.974,0-3.024-3.57-5.754-5.082-6.762Zm14.448-.126a27.429,27.429,0,0,1-3.066,8.694l.42.294a31.275,31.275,0,0,0,4.956-6.258c1.05-.126,1.512-.21,1.512-.756,0-.378-.126-.462-1.176-.882ZM97.566-26.88c2.016,1.05,2.226,1.848,2.226,2.646,0,1.008-2.184,11.3-11.592,20.916l.252.378C95-6.3,98.616-11.046,102.984-21.714a13.433,13.433,0,0,0,1.134-2.352c0-1.344-2.73-3.612-4.872-3.612a3.3,3.3,0,0,0-1.512.378Zm13.02-.294c3.528,4.41,7.854,11,9.7,18.984.462,2.1.714,3.024,1.764,3.024,1.218,0,1.764-1.68,1.764-3.276,0-2.436-3.108-12.18-12.936-19.068Zm29.526-3.234a3.615,3.615,0,0,0,3.318,3.7c.462,0,2.73-.378,3.234-.462,3.234-.42,9.072-.756,9.45-.8,5.334-.294,5.46-.294,5.46-1.176,0-1.176-2.814-2.1-3.57-2.1-.378,0-2.226.756-2.646.84-3.066.546-10.92,1.008-11.55,1.008a4.282,4.282,0,0,1-3.318-1.218ZM135.66-22.3a4.559,4.559,0,0,0-.168,1.05c0,1.764,2.142,4.074,3.57,4.074.462,0,2.688-.756,3.192-.84,4.7-.966,16.17-2.184,17.6-2.184.294,0,.546.084.546.378a32.972,32.972,0,0,1-2.226,5.67C156.03-9.87,152.082-3.78,141.708.882l.126.42c11.424-2.226,16.674-8.442,20.58-17.094,1.3-2.814,1.428-3.15,2.184-3.7,1.092-.756,1.218-.84,1.218-1.26,0-.882-2.73-2.73-3.486-2.73-.336,0-1.764.882-2.142.966-2.31.5-16.968,1.974-19.992,1.974a4.772,4.772,0,0,1-4.116-1.932Zm49.392-8.82c5.46,1.3,11.3,3.276,14.91,6.258.756.63,1.134.882,1.638.882.588,0,1.008-.672,1.008-1.344,0-3.738-6.51-6.384-17.514-6.258Zm1.008,11.466a45.318,45.318,0,0,1,12.6,5.46c1.176.84,1.512,1.092,2.016,1.092.588,0,1.05-.63,1.05-1.428,0-2.688-3.066-3.654-4.494-4.074a41.141,41.141,0,0,0-11.13-1.47ZM184-8.106c5.964,1.722,11.8,3.99,16.59,7.98,1.932,1.638,2.142,1.806,2.73,1.806A1.319,1.319,0,0,0,204.54.21c0-5.376-13.524-8.694-20.5-8.778Zm33.936.672a26.466,26.466,0,0,0,7.854-4.914l.546,1.386a28.562,28.562,0,0,1,3.36-.168h3.822C231.63-3.948,227.178-.336,220.794,2.9l.126.5c10.584-2.394,14.028-7.98,15.708-14.532h7.854a45.5,45.5,0,0,1-.714,5.8C242.886-.882,242-.5,240.24-.5,239.4-.5,235.326-.8,234.4-.8l-.042.5c4.368,1.3,4.83,1.638,4.83,3.444C240.954,3.066,243.81,2.9,245.2.5c1.344-2.352,2.058-8.19,2.184-10.29,1.3-.462,1.512-.588,1.512-.966,0-.294-.21-.462-.42-.672L246.12-13.44a1.145,1.145,0,0,0-.5-.252.576.576,0,0,0-.42.21l-1.008,1.176h-14.2c-1.848,0-3.4-.126-4.032-.168a36.58,36.58,0,0,0,5.082-5.67H242.8a29.152,29.152,0,0,0,11.172,9.618,3.837,3.837,0,0,1,3.15-2.73l.042-.5a27.88,27.88,0,0,1-11.634-6.384H255.7c.294,0,.8,0,.8-.462a.694.694,0,0,0-.336-.546L253.47-21.5a.856.856,0,0,0-.63-.336.693.693,0,0,0-.546.378l-1.512,2.142h-6.468a26.3,26.3,0,0,1-4.158-5.8h12.978c.336,0,.84,0,.84-.462a.694.694,0,0,0-.336-.546l-2.688-2.31a.864.864,0,0,0-.63-.336.74.74,0,0,0-.546.378l-1.47,2.1h-6.846a34.425,34.425,0,0,0,5.67-5.376,5.146,5.146,0,0,0,.8.084c.21,0,.966,0,.966-.63,0-.462-.756-.756-1.008-.882l-3.318-1.428a26.3,26.3,0,0,1-4.284,8.232h-4.7A51.6,51.6,0,0,0,237.8-32.97c.84-.126,1.638-.252,1.638-.882,0-.336-.21-.546-1.26-.8l-3.36-.8a32.727,32.727,0,0,1-2.394,9.156h-7.686c-1.638,0-2.9-.084-4.242-.168l.63,1.512a30,30,0,0,1,3.36-.168h7.434a40.621,40.621,0,0,1-3.108,5.8H222.1c-1.722,0-3.066-.084-4.242-.168l.588,1.512a31.023,31.023,0,0,1,3.36-.168h6.216c-2.9,4.074-5.292,6.426-10.374,10.29Zm21.294-17.682a28.673,28.673,0,0,0,2.814,5.8H231.84a33.756,33.756,0,0,0,3.192-5.8ZM223.4-34.188a21.905,21.905,0,0,1,3.612,5.208c1.05,2.058,1.176,2.268,1.932,2.268a1.638,1.638,0,0,0,1.47-1.764c0-2.646-3.276-4.914-6.762-6.132Zm41.538,5.46a2.6,2.6,0,0,0-.294,1.218c0,1.428,1.68,4.116,3.36,4.116,1.134-.252,3.654-.882,5.04-1.134a131.73,131.73,0,0,1,14.868-1.68c.546,0,1.05,0,1.05.546a35.592,35.592,0,0,1-3.066,8.442A39.293,39.293,0,0,1,268.212.924l.21.378c4.284-1.134,16.3-4.368,23.436-24.486a2.663,2.663,0,0,1,.882-1.47c.8-.546.924-.63.924-.924,0-.84-2.268-3.318-3.57-3.318-.294,0-1.6.546-1.89.588-.084,0-18.564,1.512-19.194,1.512a3.989,3.989,0,0,1-3.654-2.016Zm31.752-8.4a5.207,5.207,0,0,0-5.208,5.208,5.207,5.207,0,0,0,5.208,5.208A5.207,5.207,0,0,0,301.9-31.92,5.18,5.18,0,0,0,296.688-37.128Zm0,1.89a3.324,3.324,0,0,1,3.318,3.318,3.325,3.325,0,0,1-3.318,3.318,3.3,3.3,0,0,1-3.318-3.318A3.3,3.3,0,0,1,296.688-35.238Zm15.162,5.88c3.108.714,3.108.882,3.108,7.56,0,2.562,0,13.776-.168,15.54-.042.336-.462,1.932-.462,2.31,0,1.05,1.764,3.36,2.9,3.36.378,0,.5-.084,1.68-.966.336-.294,2.31-1.218,2.73-1.47,14.532-7.854,17.892-14.784,19.236-18.06l-.378-.294A57.641,57.641,0,0,1,326.55-9.2c-1.386.84-7.224,4.2-8.316,4.2-.63,0-.63-.294-.63-2.9,0-2.562.252-16.674.5-18.4a17.1,17.1,0,0,0,.546-2.1c0-1.092-2.646-2.352-4.368-2.352a3.121,3.121,0,0,0-2.394.924Zm60.06,16.422a24.455,24.455,0,0,0,6.72-5.586c2.142-2.268,2.352-2.562,3.108-2.772.5-.168,1.008-.294,1.008-.966,0-1.008-2.94-3.066-3.822-3.066a22.459,22.459,0,0,0-2.646,1.344c-.5.168-2.9.714-12.936,2.856a53.27,53.27,0,0,1,.336-6.006,24.318,24.318,0,0,0,.756-2.646c0-1.218-2.6-2.52-4.494-2.52a3.406,3.406,0,0,0-2.1.714l-.084.462c.924.294,2.31.714,2.688,2.142.168.714.126,7.308.126,8.484-1.512.336-7.392,1.68-8.106,1.68a3.642,3.642,0,0,1-2.9-1.89l-.42.126a2.45,2.45,0,0,0-.252,1.092c0,1.554,2.016,3.99,3.654,3.99a4.615,4.615,0,0,0,1.722-.63,31.673,31.673,0,0,1,6.258-1.974c0,8.946,0,9.954.126,11.214.714,6.132,5.166,6.174,9.072,6.174,1.722,0,8.61-.126,10.122-.5a1.3,1.3,0,0,0,1.092-1.176c0-1.47-3.444-2.058-3.486-2.058-.378,0-2.184.462-2.562.546a33.27,33.27,0,0,1-6.468.63c-4.62,0-5.25-1.344-5.25-6.174,0-2.352.084-6.258.126-9.408,7.434-1.89,13.566-3.15,13.818-3.15.042,0,.294,0,.294.21,0,1.05-4.536,6.93-5.838,8.526ZM375.27-32.3a17.464,17.464,0,0,1,5.208,4.662c.924,1.26,1.092,1.512,1.722,1.512a1.274,1.274,0,0,0,1.134-1.428c0-2.1-3.57-4.62-7.77-5.25Zm3.57-2.688a17.054,17.054,0,0,1,5.46,4.368c1.05,1.26,1.176,1.386,1.764,1.386a1.173,1.173,0,0,0,1.092-1.3c0-2.058-3.486-4.452-8.064-4.956Zm17.892,5.124a27.411,27.411,0,0,1,7.938,6.846c.924,1.26,1.344,1.848,2.1,1.848.882,0,1.386-1.092,1.386-2.142,0-4.662-9.66-6.678-11.172-6.972ZM397.4-6.636a5.013,5.013,0,0,0-.168,1.218c0,2.52,2.9,5,4.158,5,.42,0,.8-.168,1.554-.882a12.95,12.95,0,0,1,1.722-1.26c6.468-4.032,17.766-11.3,22.344-22.344l-.378-.21C417.606-12.852,403.032-4.7,400.764-4.7c-1.344,0-2.478-1.512-2.94-2.058Zm48.888-25.242c1.6.546,2.73.924,2.9,2.814.084.8.042,14.406.042,20.412,0,1.848,0,2.562-.084,3.906-.042.378-.294,2.184-.294,2.6,0,.882.672,3.78,2.184,3.78,1.218,0,1.218-1.47,1.218-2.1,0-2.688-.294-15.918-.336-18.9a29.954,29.954,0,0,1,9.408,5.46c2.688,2.352,2.856,2.478,3.612,2.478.84,0,1.092-.8,1.092-1.47a4.178,4.178,0,0,0-2.436-3.7,47.9,47.9,0,0,0-11.676-4.2,58.662,58.662,0,0,1,.378-6.972c.084-.42.588-2.226.588-2.688,0-1.344-2.52-2.6-4.41-2.6a3.489,3.489,0,0,0-2.142.714ZM483.546-8.694a117.031,117.031,0,0,1,.882-13.692c.126-1.05.924-6.132.924-7.308a2.632,2.632,0,0,0-2.52-2.9c-1.344,0-2.52,1.05-2.52,2.94,0,.546,1.008,7.9,1.176,9.366.5,4.746.588,9.618.63,11.592Zm-.714,3.906a2.75,2.75,0,0,0-2.73,2.73,2.724,2.724,0,0,0,2.73,2.73,2.752,2.752,0,0,0,2.73-2.73A2.751,2.751,0,0,0,482.832-4.788Zm15.96-3.906a117.031,117.031,0,0,1,.882-13.692c.126-1.05.924-6.132.924-7.308a2.632,2.632,0,0,0-2.52-2.9c-1.344,0-2.52,1.05-2.52,2.94,0,.546,1.008,7.9,1.176,9.366.5,4.746.588,9.618.63,11.592Zm-.714,3.906a2.75,2.75,0,0,0-2.73,2.73,2.724,2.724,0,0,0,2.73,2.73,2.752,2.752,0,0,0,2.73-2.73A2.751,2.751,0,0,0,498.078-4.788Z" transform="translate(-194.484 209.331)" fill="#fff"/>
    <path id="Path_63" data-name="Path 63" d="M3.528-2.1c.728-.644,4.452-3.808,5.264-4.536,4.144-3.612,5.908-5.992,5.908-9.212a5.555,5.555,0,0,0-5.936-5.88,7.021,7.021,0,0,0-6.664,4.7l.672.42a5.955,5.955,0,0,1,5.46-3.78c3.108,0,4.06,2.576,4.06,4.536,0,3.808-2.212,6.552-10.528,14.224V0H14.42l1.008-4.368-.784-.168C14.336-3.388,13.972-2.1,11.76-2.1Zm14.9-8.54C18.424-3.36,21.532.448,25.7.448s7.28-3.808,7.28-11.088c0-7.056-3-11.088-7.28-11.088C21.644-21.728,18.424-18.032,18.424-10.64Zm2.436,0c0-3.3.336-10.276,4.844-10.276,4.452,0,4.844,6.776,4.844,10.276,0,3.528-.392,10.276-4.844,10.276C21.224-.364,20.86-7.224,20.86-10.64ZM37.8-2.1c.728-.644,4.452-3.808,5.264-4.536,4.144-3.612,5.908-5.992,5.908-9.212a5.555,5.555,0,0,0-5.936-5.88,7.021,7.021,0,0,0-6.664,4.7l.672.42a5.955,5.955,0,0,1,5.46-3.78c3.108,0,4.06,2.576,4.06,4.536,0,3.808-2.212,6.552-10.528,14.224V0H48.692L49.7-4.368l-.784-.168C48.608-3.388,48.244-2.1,46.032-2.1Zm17.136,0c.728-.644,4.452-3.808,5.264-4.536,4.144-3.612,5.908-5.992,5.908-9.212a5.555,5.555,0,0,0-5.936-5.88,7.021,7.021,0,0,0-6.664,4.7l.672.42a5.955,5.955,0,0,1,5.46-3.78c3.108,0,4.06,2.576,4.06,4.536,0,3.808-2.212,6.552-10.528,14.224V0H65.828l1.008-4.368-.784-.168C65.744-3.388,65.38-2.1,63.168-2.1ZM72.352-3.556a2,2,0,0,0-2.016,1.988A2.026,2.026,0,0,0,72.352.448a2.008,2.008,0,0,0,2.016-2.016A2.02,2.02,0,0,0,72.352-3.556Zm13.58-18.172-5.348.98.14.812,2.856-.5V-2.8c0,1.344-.2,1.988-1.9,1.988H80.388V0h8.736V-.812H87.836c-1.68,0-1.9-.616-1.9-1.988ZM96.852-2.1c.728-.644,4.452-3.808,5.264-4.536,4.144-3.612,5.908-5.992,5.908-9.212a5.555,5.555,0,0,0-5.936-5.88,7.021,7.021,0,0,0-6.664,4.7l.672.42a5.955,5.955,0,0,1,5.46-3.78c3.108,0,4.06,2.576,4.06,4.536,0,3.808-2.212,6.552-10.528,14.224V0h12.656l1.008-4.368-.784-.168C107.66-3.388,107.3-2.1,105.084-2.1Zm17.416-1.456a2,2,0,0,0-2.016,1.988A2.026,2.026,0,0,0,114.268.448a2.008,2.008,0,0,0,2.016-2.016A2.02,2.02,0,0,0,114.268-3.556ZM121.632-2.1c.728-.644,4.452-3.808,5.264-4.536,4.144-3.612,5.908-5.992,5.908-9.212a5.555,5.555,0,0,0-5.936-5.88,7.021,7.021,0,0,0-6.664,4.7l.672.42a5.955,5.955,0,0,1,5.46-3.78c3.108,0,4.06,2.576,4.06,4.536,0,3.808-2.212,6.552-10.528,14.224V0h12.656l1.008-4.368-.784-.168c-.308,1.148-.672,2.436-2.884,2.436Zm14.9-8.54c0,7.28,3.108,11.088,7.28,11.088s7.28-3.808,7.28-11.088c0-7.056-3-11.088-7.28-11.088C139.748-21.728,136.528-18.032,136.528-10.64Zm2.436,0c0-3.3.336-10.276,4.844-10.276,4.452,0,4.844,6.776,4.844,10.276,0,3.528-.392,10.276-4.844,10.276C139.328-.364,138.964-7.224,138.964-10.64Zm22.568-11.088a18.091,18.091,0,0,0-5.768,13.356,18.058,18.058,0,0,0,5.768,13.356h.812A21.242,21.242,0,0,1,157.78-8.372a21.312,21.312,0,0,1,4.564-13.356ZM189.756-.392c-8.96-3.08-11.564-12.572-12.236-16.38.056-1.6.056-1.932.056-4.928,1.036-.392,1.148-.448,1.148-.756,0-.224-.168-.364-.812-.448l-2.548-.308a26.383,26.383,0,0,1,.2,3.78c0,11.284-3.892,17.052-11.116,21.2l.14.308c11-3.248,12.236-12.6,12.768-16.8a32.847,32.847,0,0,0,2.94,8.932,20.157,20.157,0,0,0,6.888,7.5A3.314,3.314,0,0,1,189.7-.056Zm-20.58-17.164a13.554,13.554,0,0,1-2.6,6.16c-.644.812-.868,1.148-.868,1.54a.986.986,0,0,0,1.064.9c1.792,0,2.968-3.136,2.968-6.328a9.8,9.8,0,0,0-.224-2.24Zm17.024-.392c-.476,1.176-2.128,3.976-5.8,7.7l.2.308a27.7,27.7,0,0,0,7.112-5.544c.784.084,1.2.084,1.2-.336,0-.252-.2-.392-.728-.756Zm6.244,22.932a18.048,18.048,0,0,0,5.768-13.356,17.948,17.948,0,0,0-5.768-13.356h-.812a21.253,21.253,0,0,1,4.592,13.356,21.331,21.331,0,0,1-4.592,13.356Zm12.1-5.32c4.284-1.12,8.512-3.192,12.628-8.9a22.413,22.413,0,0,1,6.384,7c.784,1.428.868,1.6,1.4,1.6.588,0,1.036-.7,1.036-1.344,0-2.912-5.572-6.3-8.316-7.98a51.6,51.6,0,0,0,3.024-5.18c.9-1.708,1.008-1.9,1.512-2.212s.7-.42.7-.7c0-.784-1.848-2.212-2.464-2.212a15.343,15.343,0,0,0-1.484.784,76.837,76.837,0,0,1-9.1,1.092c-1.036,0-1.456-.5-1.96-1.372l-.308.14a2.846,2.846,0,0,0-.2.952c0,1.036,1.064,2.716,1.96,2.716a10.565,10.565,0,0,0,1.456-.588,78.685,78.685,0,0,1,8.456-1.6c.112,0,.308.028.308.2a11.682,11.682,0,0,1-.9,2.268c-4.452,9.408-10.3,13.02-14.252,15.064ZM234.612.9c7.98-1.932,12.348-6.776,16.324-14.56,1.148-2.268,1.316-2.52,1.848-2.884.588-.364.7-.42.7-.728a4.286,4.286,0,0,0-2.212-1.988,15.389,15.389,0,0,0-1.764.7,37.479,37.479,0,0,1-6.076.644,7.488,7.488,0,0,1-1.008-.056,6.63,6.63,0,0,1,.756-1.036c.364-.364.532-.588.532-.952,0-.728-1.512-2.044-2.94-2.044a2.815,2.815,0,0,0-.9.2l-.112.28c.392.224,1.288.7,1.288,1.484,0,.672-2.324,5.712-7.56,10.836l.168.252a15.433,15.433,0,0,0,4.872-3.668c2.464,1.512,3.3,2.044,4.48,3.584.952,1.2,1.036,1.372,1.456,1.372.448,0,.9-.448.9-1.2,0-2.548-5.068-3.864-6.44-4.172a27.627,27.627,0,0,0,2.856-3.92,3.933,3.933,0,0,0,1.876.5c.98,0,5.74-.672,6.076-.672.168,0,.28.084.28.2a22.547,22.547,0,0,1-2.184,4.844C243.208-3.78,237.664-.868,234.5.616ZM260.68-12.516a2.362,2.362,0,0,0-.224.924c0,.812,1.036,2.6,2.128,2.6.336,0,1.82-.42,2.156-.476a113.037,113.037,0,0,1,11.928-.588c1.4,0,2.52.056,3.192.112.308.028,1.792.168,2.128.168.448,0,.9-.168.9-.7,0-.924-2.24-1.6-2.912-1.6-.308,0-1.652.252-1.988.28-2.016.2-14.392.56-14.5.56a2.435,2.435,0,0,1-2.492-1.316Zm33.992-8.736c1.064.364,1.82.616,1.932,1.876.056.532.028,9.6.028,13.608,0,1.232,0,1.708-.056,2.6-.028.252-.2,1.456-.2,1.736,0,.588.448,2.52,1.456,2.52.812,0,.812-.98.812-1.4,0-1.792-.2-10.612-.224-12.6a19.97,19.97,0,0,1,6.272,3.64c1.792,1.568,1.9,1.652,2.408,1.652.56,0,.728-.532.728-.98a2.785,2.785,0,0,0-1.624-2.464,31.933,31.933,0,0,0-7.784-2.8,39.106,39.106,0,0,1,.252-4.648c.056-.28.392-1.484.392-1.792,0-.9-1.68-1.736-2.94-1.736a2.326,2.326,0,0,0-1.428.476Zm24,15.456a78.02,78.02,0,0,1,.588-9.128c.084-.7.616-4.088.616-4.872a1.755,1.755,0,0,0-1.68-1.932,1.75,1.75,0,0,0-1.68,1.96c0,.364.672,5.264.784,6.244.336,3.164.392,6.412.42,7.728Zm-.476,2.6a1.834,1.834,0,0,0-1.82,1.82,1.816,1.816,0,0,0,1.82,1.82,1.834,1.834,0,0,0,1.82-1.82A1.834,1.834,0,0,0,318.192-3.192Z" transform="translate(-103.484 263.331)" fill="#fff"/>
    <path id="Path_62" data-name="Path 62" d="M6.138-16.984c1.342.44,1.342.484,1.276,4.378a20.5,20.5,0,0,1-3.08.418,2.5,2.5,0,0,1-1.5-.462l-.22.176a1.8,1.8,0,0,0,1.8,1.54A17.8,17.8,0,0,0,7.414-11.4c-.022,1.32-.022,2.046-.066,4.6-.374.264-2.222,1.518-2.662,1.782A2.272,2.272,0,0,1,3.564-4.6C2.53-4.444,2.112-2.948,2.112-2.64c0,.242.154.66.55.66.352,0,.484-.132,1.694-1.21C6.6-1.408,6.776-.88,6.93-.4c.22.638.308.946.66.946C8.272.55,8.8-.726,8.8-1.694c0-.286-.132-1.716-.154-2.046-.022-.4-.066-2.552-.066-2.816C11.594-8.58,13.332-8.6,14.124-8.6c1.892,0,3.388.99,3.388,3.19A3.8,3.8,0,0,1,13.64-1.474a4.151,4.151,0,0,1-2.992-1.32l-.2.176a4.142,4.142,0,0,0,3.872,2.31A4.755,4.755,0,0,0,19.14-5.192c0-2.97-2.244-4.29-4.576-4.29A12.536,12.536,0,0,0,8.58-7.524v-.44c0-.616.044-2.926.088-3.718a29.649,29.649,0,0,0,3.212-.858c.462-.176.814-.33.814-.7,0-.484-.682-.7-1.078-.7-.286,0-.4.044-1.342.484a9.236,9.236,0,0,1-1.54.528,16.249,16.249,0,0,1,.242-1.98,11.26,11.26,0,0,0,.33-1.232c0-.616-1.122-1.342-2.134-1.342a2.3,2.3,0,0,0-.99.264ZM7.348-5.676c-.022,1.144-.022,3.124-.088,3.432-.022.11-.066.22-.22.22-.11,0-1.936-1.3-2.266-1.518A30.041,30.041,0,0,1,7.348-5.676Zm6.886-8.932c2.64.4,3.366,1.606,3.366,1.98,0,.352-1.166,1.078-1.672,1.408l.154.22a10.627,10.627,0,0,1,1.936-.44,1.262,1.262,0,0,1,.638.176,1.3,1.3,0,0,0,.572.176.681.681,0,0,0,.594-.748c0-1.3-1.848-3.146-4.422-3.146a6.668,6.668,0,0,0-1.144.11ZM33.748-11.99v-1.452c.7-.242.858-.352.858-.55,0-.264-.33-.308-.572-.33l-1.958-.242c.066.836.11,1.694.11,2.574H29.172l-1.254-.55a25.868,25.868,0,0,0,5.214-4.576,21.7,21.7,0,0,0,8.514,6.666A2.938,2.938,0,0,1,43.538-11.9v-.264a21.437,21.437,0,0,1-9.988-5.192c.352-.044.528-.11.528-.33,0-.242-.55-.418-.616-.44l-1.694-.506C30.58-15.994,26-12.1,22.506-10.076l.11.22a20.368,20.368,0,0,0,4.708-2.31c.044.836.066,1.254.066,1.914v9.79c-1.606.154-2.112.176-3.476.22l.66,1.782c.066.2.176.44.4.44s.286-.2.374-.528a61.675,61.675,0,0,0,8.954-2.6l-.066-.264c-2.024.374-2.772.462-5.236.77v-4.62h3.212C33-3.344,35.64-.088,41.1,1.518A2.7,2.7,0,0,1,42.922,0V-.264a19.339,19.339,0,0,1-6.49-1.87A19.231,19.231,0,0,0,40.3-4.488c.22.022.44.044.594.044.11,0,.352,0,.352-.242,0-.176-.154-.33-.33-.462l-1.5-1.144A15.555,15.555,0,0,1,35.97-2.4a9.963,9.963,0,0,1-3.234-2.86h4.048c0,.572,0,.726.506.726,1.144,0,1.144-.418,1.144-.66,0-.462-.066-2.552-.066-2.97V-10.89c.682-.374.682-.462.682-.594s-.11-.22-.22-.308l-1.166-.814c-.132-.088-.2-.132-.286-.132-.11,0-.176.088-.242.176l-.418.572Zm3.036.616v2.4H29v-2.4Zm0,3.014v2.486H29V-8.36Zm17.424-5.5h-4.84l-1.628-.814c.066,1.056.088,2.09.088,2.266v.484c0,.308-.088,1.98-.088,2.024,0,.286.154.484.638.484,1.012,0,1.012-.33,1.012-.77h4.818v1.76h-5.5a19.672,19.672,0,0,1-2.2-.088l.308.792a14.943,14.943,0,0,1,1.716-.088h5.676v1.936H47.1c-.9,0-1.342-.022-2.2-.088l.308.792a14.691,14.691,0,0,1,1.716-.088h7.282V-3.19h-5.5c-.99,0-1.628-.044-2.2-.088l.308.792a14.943,14.943,0,0,1,1.716-.088h5.676V-.9c0,.462-.11.55-.66.528l-3.08-.088V-.2c2.838.836,2.86,1.144,2.926,1.958,2.244-.242,2.486-.924,2.486-2,0-.33-.066-1.958-.066-2.332h4.994v.814c0,.286,0,.484.484.484.462,0,1.166-.088,1.166-.726,0-.264-.088-1.65-.088-1.98V-5.258h2.354c.11,0,.44,0,.44-.242a.452.452,0,0,0-.176-.308L63.8-6.82A.492.492,0,0,0,63.47-7c-.132,0-.2.11-.264.2l-.638.924h-.2V-7.282c.682-.4.748-.44.748-.616,0-.154-.066-.2-.22-.33l-1.21-.946a.808.808,0,0,0-.308-.132c-.088,0-.154.044-.264.176l-.484.7H55.814v-1.76h4.928c0,.638,0,.748.484.748.7,0,1.166-.176,1.166-.682,0-.242-.088-1.452-.088-1.716v-.814c.77-.418.77-.506.77-.638,0-.154-.066-.2-.22-.33l-1.21-.946a.583.583,0,0,0-.308-.154c-.132,0-.2.088-.286.2l-.484.66H55.814V-15.6H64.68c.11,0,.44,0,.44-.264a.362.362,0,0,0-.176-.264l-1.54-1.32a.539.539,0,0,0-.352-.176q-.132,0-.264.2l-.814,1.188h-6.16V-17.38c.308-.11.858-.286.858-.572,0-.264-.352-.33-.572-.352l-2-.242c.088,1.342.088,2.156.11,2.31H47.124c-.88,0-1.43-.022-2.222-.066l.33.792a14.691,14.691,0,0,1,1.716-.088h7.26Zm0,3.058H49.39v-2.442h4.818Zm1.606-2.442h4.928V-10.8H55.814Zm0,7.986h4.994V-3.19H55.814Zm0-2.552h4.994v1.936H55.814Zm12.32-.814a20.277,20.277,0,0,1,2.9-.22c1.958,0,5.434.22,5.434,3.938a4.745,4.745,0,0,1-4.994,4.62c-1.562,0-1.914-.77-2.112-1.276-.374-.88-.55-1.32-1.254-1.32a1.041,1.041,0,0,0-1.056,1.056C67.056-.264,69.41.352,71.28.352,75,.352,78.3-1.826,78.3-5.368a4.706,4.706,0,0,0-1.65-3.652c-.726-.572-2.134-1.408-5.346-1.408a21.179,21.179,0,0,0-2.288.132l.352-4.8h7.3l.308-1.628H68.75ZM81.642,3.168a4.582,4.582,0,0,0,2.4-4c0-1.474-.9-1.958-1.628-1.958a1.517,1.517,0,0,0-1.54,1.54,1.448,1.448,0,0,0,1.474,1.5,1.687,1.687,0,0,0,.9-.264,3.951,3.951,0,0,1-2.024,2.728ZM86.482-8.36c0,5.72,2.442,8.712,5.72,8.712s5.72-2.992,5.72-8.712c0-5.544-2.354-8.712-5.72-8.712C89.012-17.072,86.482-14.168,86.482-8.36Zm1.914,0c0-2.6.264-8.074,3.806-8.074,3.5,0,3.806,5.324,3.806,8.074,0,2.772-.308,8.074-3.806,8.074C88.682-.286,88.4-5.676,88.4-8.36Zm11.55,0c0,5.72,2.442,8.712,5.72,8.712s5.72-2.992,5.72-8.712c0-5.544-2.354-8.712-5.72-8.712C102.476-17.072,99.946-14.168,99.946-8.36Zm1.914,0c0-2.6.264-8.074,3.806-8.074,3.5,0,3.806,5.324,3.806,8.074,0,2.772-.308,8.074-3.806,8.074C102.146-.286,101.86-5.676,101.86-8.36Zm11.55,0c0,5.72,2.442,8.712,5.72,8.712s5.72-2.992,5.72-8.712c0-5.544-2.354-8.712-5.72-8.712C115.94-17.072,113.41-14.168,113.41-8.36Zm1.914,0c0-2.6.264-8.074,3.806-8.074,3.5,0,3.806,5.324,3.806,8.074,0,2.772-.308,8.074-3.806,8.074C115.61-.286,115.324-5.676,115.324-8.36Zm14.96-8.558-1.936-.9a26.03,26.03,0,0,1,.088,2.684v13.31c0,.418-.066,2.508-.066,2.97,0,.352.066.528.55.528,1.166,0,1.166-.418,1.166-.726,0-.4-.044-2.31-.044-2.728V-7.568h13.64v6.336c0,.484-.022.748-.77.726L140.25-.594V-.33c2.2.66,2.64.836,2.728,1.958,2.2-.2,2.354-.924,2.354-2.376,0-.242-.044-1.5-.044-1.782V-15.818c.682-.33.792-.44.792-.638,0-.132-.066-.176-.22-.308l-1.21-.946a.675.675,0,0,0-.308-.132c-.11,0-.176.088-.264.2l-.528.726Zm5.808.616v8.118h-6.05V-16.3ZM137.7-8.184V-16.3h5.984v8.118Zm12.408-6.556a2.51,2.51,0,0,0-.154.77A2.277,2.277,0,0,0,151.69-11.9a16.147,16.147,0,0,0,1.8-.638A55.251,55.251,0,0,1,162.14-14.5c-3.806,2.31-6.4,5.368-6.4,8.932,0,4.114,4.158,5.9,7.062,5.9.4,0,.99-.088.99-.682a1.277,1.277,0,0,0-.748-1.034,2.757,2.757,0,0,0-1.672-.308,3.961,3.961,0,0,1-4.136-4.2c0-4.268,4.356-8.426,7.59-8.426.2,0,1.144.044,1.364.044.242,0,.924-.044.924-.572,0-.748-1.254-1.166-1.76-1.166a3.735,3.735,0,0,0-.88.176,13.354,13.354,0,0,1-1.584.308c-1.76.242-10.516,1.65-11.132,1.65a1.432,1.432,0,0,1-1.386-.924Zm12.628,3.366a8.736,8.736,0,0,1,2.288,2.464c.66,1.056.726,1.144,1.034,1.144a.714.714,0,0,0,.616-.792c0-1.034-1.628-2.508-3.762-3.058Zm1.826-1.364a8.766,8.766,0,0,1,2.464,2.266c.726.946.792,1.056,1.1,1.056.264,0,.572-.264.572-.748,0-1.012-1.584-2.354-3.982-2.838Zm17.468-3.784c.814.242,1.32.4,1.452,1.122a21.252,21.252,0,0,1,.088,3.278c-2.376.154-2.684.2-5.61.484,0-1.43,0-1.628.044-2.332,0-.176.154-1.012.154-1.21,0-.594-1.1-1.144-1.958-1.144a1.81,1.81,0,0,0-1.056.352v.242c.594.176,1.122.352,1.276,1.034.11.418.132,2.574.154,3.212-.2.022-3.146.352-3.256.352a1.526,1.526,0,0,1-1.43-.814l-.242.066a1.7,1.7,0,0,0-.132.616,2.225,2.225,0,0,0,1.65,1.87,13.758,13.758,0,0,0,1.694-.55,15.31,15.31,0,0,1,1.738-.4c.022.9,0,1.826,0,2.024-.022.264-.11,1.5-.11,1.76,0,.506.264,1.518.88,1.518.264,0,.7-.286.7-1.364,0-.594-.088-3.5-.11-4.158,2.86-.4,4.4-.462,5.61-.528,0,5.346-.66,8.778-6.094,11.638l.11.2c7.282-2.068,7.37-6.688,7.48-11.858.418,0,1.122,0,1.914.044.352.022,2.156.2,2.574.2.176,0,.594-.066.594-.462,0-.7-1.8-1.276-2.134-1.276a9.13,9.13,0,0,0-1.056.242,11.037,11.037,0,0,1-1.87.154,21.2,21.2,0,0,1,.11-2.684c.022-.154.242-.836.242-1.012,0-.682-1.43-1.232-2.2-1.232a2.279,2.279,0,0,0-1.188.374Zm11.858,10.78a26.268,26.268,0,0,0,8.558-4.246,1.141,1.141,0,0,1,.264.616,27.571,27.571,0,0,1,.088,2.926c0,1.144,0,2.486-.066,3.63-.022.264-.2,1.562-.2,1.848,0,.572.418,2.046,1.166,2.046.638,0,.638-1.1.638-1.32,0-.264-.066-1.562-.066-1.848-.044-1.034-.044-3.234-.044-4.422,0-1.452.044-2.222.066-2.486,0-.11.132-.616.132-.748,0-.4-.308-.682-.946-1.034.374-.286.814-.616,1.8-1.452a43.624,43.624,0,0,1,3.41-2.882c.462-.264.682-.418.682-.726,0-.682-1.65-1.848-2.794-1.848a2.287,2.287,0,0,0-.638.11l-.066.22c.4.22.968.506.968,1.012,0,.528-2.046,2.464-2.9,3.256a50.332,50.332,0,0,1-10.186,7.128ZM217.47-4.356a1.272,1.272,0,0,0-.154.616,2.322,2.322,0,0,0,1.8,1.936,19.291,19.291,0,0,0,1.892-.4,46.9,46.9,0,0,1,6.644-.616c.682,0,1.672.044,2.266.088.132.022.748.088.88.088a.648.648,0,0,0,.7-.616c0-.638-1.056-.9-1.254-.946.2-1.1,1.1-6.336,1.232-7,.176-.814.308-1.012.506-1.188.528-.462.55-.484.55-.616,0-.44-1.21-1.716-1.716-1.716-.2,0-1.078.506-1.3.55-.7.154-9.042.726-9.46.726a2.195,2.195,0,0,1-1.892-1.012l-.242.066a1.58,1.58,0,0,0-.154.616,2.321,2.321,0,0,0,1.826,2c.2,0,1.21-.308,1.43-.352a67.455,67.455,0,0,1,8.69-.858c.11,0,.264,0,.264.308,0,1.3-.88,6.82-1.144,8.47-2.728.286-9.064.77-9.328.77a2.151,2.151,0,0,1-1.8-.99Zm21.406-9.438a2.006,2.006,0,0,1,1.32,1.716,78.1,78.1,0,0,1,.682,8.1c0,.176-.022.99,0,1.144.022.176.44,1.848,1.232,1.848.682,0,.616-1.122.594-1.386,2.464-.242,5.346-.286,6.27-.286a25.185,25.185,0,0,1,2.948.132c.2.022.506.044.7.044.44,0,.616-.264.616-.506,0-.594-1.056-.99-1.188-1.012.528-2.706.946-4.906,1.386-7.392a2.227,2.227,0,0,1,.44-1.166c.352-.374.44-.462.44-.66,0-.528-1.408-1.584-1.8-1.584a11.315,11.315,0,0,0-1.21.44c-.2.044-8.6.946-9.218.946-.264,0-.33-.044-.968-.4a2.348,2.348,0,0,0-1.3-.44,1.783,1.783,0,0,0-.9.242Zm3.7,10.3c-.2-1.848-.7-8.272-.748-8.932a3.752,3.752,0,0,0,.968.176c.264,0,7-.9,8.25-.9.726,0,.77.22.77.44,0,.946-1.012,7.348-1.232,8.712C249.436-3.916,243.848-3.586,242.572-3.5ZM262.9.836c6.468-2.046,6.886-7.392,7.084-9.988.858-.088,2.31-.176,3.432-.176,1.034,0,1.738.066,2.354.11.2.022,1.1.132,1.32.132a.574.574,0,0,0,.616-.528c0-.726-1.716-1.21-2-1.21-.176,0-1.056.22-1.254.264l-4.4.4.088-1.386c.022-.22.176-1.254.176-1.474,0-.308-.22-.506-.9-.924.506-.132,2.948-.814,3.5-.946,1.166-.264,1.21-.264,1.21-.594a2.946,2.946,0,0,0-2.838-1.738l-.11.2a.9.9,0,0,1,.33.55c0,.506-.748.748-1.826,1.1a74.564,74.564,0,0,1-7.832,2.068l.044.242c.088,0,.594.044.7.044a28.408,28.408,0,0,0,5.588-.66,2.586,2.586,0,0,1,.418,1.65c0,.682-.022,1.21-.066,2.024-.9.088-5.368.77-6.38.77a2.384,2.384,0,0,1-1.914-.968l-.22.088a1.8,1.8,0,0,0-.066.462,2.5,2.5,0,0,0,2.024,2.09,18.62,18.62,0,0,0,2-.594c1.782-.44,4.092-.77,4.466-.836A11.446,11.446,0,0,1,262.79.638Zm20.79-9.7a1.563,1.563,0,0,0-.066.462,2.146,2.146,0,0,0,1.628,1.716,1.653,1.653,0,0,0,.638-.286,14.82,14.82,0,0,1,3.344-1.012A55.409,55.409,0,0,1,290.488-1.3C290.51.286,291.28.924,291.72.924c.528,0,.528-.528.528-.66a8.556,8.556,0,0,0-.374-1.98c-.506-2.178-.968-4.378-1.43-6.578,2.112-.528,4.818-1.122,4.906-1.122.066,0,.088.022.088.066a30.874,30.874,0,0,1-2.4,4.114l.22.176a16.45,16.45,0,0,0,2.9-2.9,8.6,8.6,0,0,1,.836-.88c.726-.374.792-.418.792-.638,0-.462-1.188-1.408-1.562-1.408a8.649,8.649,0,0,0-1.144.506c-.462.154-4.136.9-4.84,1.056a12.526,12.526,0,0,1-.352-2.838c0-.748-.946-.99-1.584-.99a1.97,1.97,0,0,0-1.144.374v.286c1.144.176,1.21.484,1.848,3.432-.594.11-3.63.748-3.982.748a1.522,1.522,0,0,1-1.1-.616Zm22.044-6.776a14.358,14.358,0,0,1,4.158,3.586c.484.66.7.968,1.1.968.462,0,.726-.572.726-1.122,0-2.442-5.06-3.5-5.852-3.652Zm.352,12.166a2.625,2.625,0,0,0-.088.638A3.073,3.073,0,0,0,308.176-.22c.22,0,.418-.088.814-.462a6.785,6.785,0,0,1,.9-.66c3.388-2.112,9.306-5.918,11.7-11.7l-.2-.11c-4.73,6.424-12.364,10.692-13.552,10.692-.7,0-1.3-.792-1.54-1.078Zm20.13,3.212a16.585,16.585,0,0,0,9.922-7,17.61,17.61,0,0,1,5.016,5.5c.616,1.122.682,1.254,1.1,1.254.462,0,.814-.55.814-1.056,0-2.288-4.378-4.95-6.534-6.27a40.542,40.542,0,0,0,2.376-4.07c.7-1.342.792-1.5,1.188-1.738s.55-.33.55-.55c0-.616-1.452-1.738-1.936-1.738a12.056,12.056,0,0,0-1.166.616,60.371,60.371,0,0,1-7.15.858c-.814,0-1.144-.4-1.54-1.078l-.242.11a2.236,2.236,0,0,0-.154.748c0,.814.836,2.134,1.54,2.134A8.3,8.3,0,0,0,331.144-13a61.823,61.823,0,0,1,6.644-1.254c.088,0,.242.022.242.154a9.178,9.178,0,0,1-.7,1.782c-3.5,7.392-8.1,10.23-11.2,11.836Zm23.672-4.29a61.3,61.3,0,0,1,.462-7.172c.066-.55.484-3.212.484-3.828a1.379,1.379,0,0,0-1.32-1.518,1.375,1.375,0,0,0-1.32,1.54c0,.286.528,4.136.616,4.906.264,2.486.308,5.038.33,6.072Zm-.374,2.046a1.441,1.441,0,0,0-1.43,1.43,1.427,1.427,0,0,0,1.43,1.43,1.441,1.441,0,0,0,1.43-1.43A1.441,1.441,0,0,0,349.514-2.508Z" transform="translate(-118.484 120.331)" fill="#fff"/>
    <path id="Path_61" data-name="Path 61" d="M-143.046-13.518c.666.2,1.08.324,1.188.918a17.386,17.386,0,0,1,.072,2.682c-1.944.126-2.2.162-4.59.4,0-1.17,0-1.332.036-1.908,0-.144.126-.828.126-.99,0-.486-.9-.936-1.6-.936a1.481,1.481,0,0,0-.864.288v.2c.486.144.918.288,1.044.846.09.342.108,2.106.126,2.628-.162.018-2.574.288-2.664.288a1.249,1.249,0,0,1-1.17-.666l-.2.054a1.389,1.389,0,0,0-.108.5,1.821,1.821,0,0,0,1.35,1.53,11.256,11.256,0,0,0,1.386-.45,12.527,12.527,0,0,1,1.422-.324c.018.738,0,1.494,0,1.656-.018.216-.09,1.224-.09,1.44,0,.414.216,1.242.72,1.242.216,0,.576-.234.576-1.116,0-.486-.072-2.862-.09-3.4,2.34-.324,3.6-.378,4.59-.432,0,4.374-.54,7.182-4.986,9.522l.09.162c5.958-1.692,6.03-5.472,6.12-9.7.342,0,.918,0,1.566.036.288.018,1.764.162,2.106.162.144,0,.486-.054.486-.378,0-.576-1.476-1.044-1.746-1.044a7.47,7.47,0,0,0-.864.2,9.03,9.03,0,0,1-1.53.126,17.348,17.348,0,0,1,.09-2.2c.018-.126.2-.684.2-.828,0-.558-1.17-1.008-1.8-1.008a1.865,1.865,0,0,0-.972.306Zm9.7,8.82a21.492,21.492,0,0,0,7-3.474.934.934,0,0,1,.216.5,22.559,22.559,0,0,1,.072,2.394c0,.936,0,2.034-.054,2.97-.018.216-.162,1.278-.162,1.512,0,.468.342,1.674.954,1.674.522,0,.522-.9.522-1.08,0-.216-.054-1.278-.054-1.512-.036-.846-.036-2.646-.036-3.618,0-1.188.036-1.818.054-2.034,0-.09.108-.5.108-.612,0-.324-.252-.558-.774-.846.306-.234.666-.5,1.476-1.188a35.69,35.69,0,0,1,2.79-2.358c.378-.216.558-.342.558-.594,0-.558-1.35-1.512-2.286-1.512a1.872,1.872,0,0,0-.522.09l-.054.18c.324.18.792.414.792.828,0,.432-1.674,2.016-2.376,2.664a41.18,41.18,0,0,1-8.334,5.832Zm19.3,1.134a1.041,1.041,0,0,0-.126.5A1.9,1.9,0,0,0-112.7-1.476,15.784,15.784,0,0,0-111.15-1.8a38.369,38.369,0,0,1,5.436-.5c.558,0,1.368.036,1.854.072.108.018.612.072.72.072a.53.53,0,0,0,.576-.5c0-.522-.864-.738-1.026-.774.162-.9.9-5.184,1.008-5.724.144-.666.252-.828.414-.972.432-.378.45-.4.45-.5,0-.36-.99-1.4-1.4-1.4-.162,0-.882.414-1.062.45-.576.126-7.4.594-7.74.594a1.8,1.8,0,0,1-1.548-.828l-.2.054a1.293,1.293,0,0,0-.126.5A1.9,1.9,0,0,0-112.3-9.63c.162,0,.99-.252,1.17-.288a55.19,55.19,0,0,1,7.11-.7c.09,0,.216,0,.216.252,0,1.062-.72,5.58-.936,6.93-2.232.234-7.416.63-7.632.63a1.76,1.76,0,0,1-1.476-.81Zm17.514-7.722a1.641,1.641,0,0,1,1.08,1.4A63.9,63.9,0,0,1-94.9-3.258c0,.144-.018.81,0,.936.018.144.36,1.512,1.008,1.512.558,0,.5-.918.486-1.134,2.016-.2,4.374-.234,5.13-.234a20.606,20.606,0,0,1,2.412.108c.162.018.414.036.576.036.36,0,.5-.216.5-.414,0-.486-.864-.81-.972-.828.432-2.214.774-4.014,1.134-6.048a1.822,1.822,0,0,1,.36-.954c.288-.306.36-.378.36-.54,0-.432-1.152-1.3-1.476-1.3a9.259,9.259,0,0,0-.99.36c-.162.036-7.038.774-7.542.774-.216,0-.27-.036-.792-.324a1.921,1.921,0,0,0-1.062-.36,1.459,1.459,0,0,0-.738.2Zm3.024,8.424c-.162-1.512-.576-6.768-.612-7.308a3.07,3.07,0,0,0,.792.144c.216,0,5.724-.738,6.75-.738.594,0,.63.18.63.36,0,.774-.828,6.012-1.008,7.128C-87.894-3.2-92.466-2.934-93.51-2.862ZM-72.054.09c4.3-.54,7.272-3.312,7.272-7.056,0-3.852-3.1-5.868-6.516-5.868-4.734,0-8.046,3.528-8.046,7.272,0,2.34,1.35,4.194,2.826,4.194,1.17,0,1.962-1.548,2.988-3.888a35.46,35.46,0,0,0,2.052-5.49c0-.666-.7-1.26-.882-1.422a7.106,7.106,0,0,1,.972-.072c3.294,0,5.22,2.124,5.22,5.04,0,4.914-4.842,6.678-5.94,7.074Zm-.954-12.132A2.091,2.091,0,0,1-72.684-11c0,1.188-1.854,5.346-1.98,5.6-.9,1.944-1.332,2.88-2.016,2.88-.7,0-1.548-1.368-1.548-3.078A6.758,6.758,0,0,1-73.008-12.042ZM-59.094-8.37v-4.068c.468-.18.684-.27.684-.486,0-.2-.27-.234-.45-.252l-1.62-.2a17.712,17.712,0,0,1,.09,2.052v1.494c0,.36-.072,2.106-.072,2.5,0,.18,0,.414.45.414.918,0,.918-.288.918-.576v-.378h4.446v7.38h-5.238v-4.5c.558-.18.684-.288.684-.468s-.252-.234-.45-.252l-1.62-.2a16.665,16.665,0,0,1,.09,2.052V-1.6c0,.36-.072,2.106-.072,2.5,0,.216.018.432.5.432.864,0,.864-.342.864-.612v-.7h11.7V.864c0,.288,0,.468.432.468.936,0,.936-.4.936-.576,0-.342-.072-2.034-.072-2.43V-4.986c.612-.234.684-.252.684-.468,0-.2-.27-.234-.45-.252l-1.62-.2a15.4,15.4,0,0,1,.09,2.034V-.486h-5.166v-7.38h4.374v.486c0,.342,0,.486.432.486.936,0,.936-.36.936-.7,0-.306-.054-1.944-.054-2.3v-2.538c.612-.234.684-.27.684-.468s-.234-.216-.468-.252l-1.6-.216a19.116,19.116,0,0,1,.072,2.052V-8.37h-4.374v-5.85c.5-.18.7-.27.7-.468s-.234-.234-.468-.27l-1.62-.2a14.192,14.192,0,0,1,.09,2.052V-8.37Zm18.936-5.256-1.71-.756A20.945,20.945,0,0,1-41.8-12.2V-1.692c0,.342-.072,2.07-.072,2.466,0,.18.018.4.45.4.936,0,.936-.234.936-.756V-.378h8.946V.666c0,.252,0,.414.4.414.594,0,.99-.126.99-.558,0-.342-.072-2.034-.072-2.43V-12.762c.594-.306.648-.4.648-.558,0-.108-.054-.162-.216-.27l-1.062-.756a.452.452,0,0,0-.252-.108c-.072,0-.126.054-.2.162l-.45.666Zm8.622.522v3.582h-8.946V-13.1Zm0,4.086v3.834h-8.946V-9.018Zm0,4.338v3.8h-8.946v-3.8ZM-18.054.09c4.3-.54,7.272-3.312,7.272-7.056,0-3.852-3.1-5.868-6.516-5.868-4.734,0-8.046,3.528-8.046,7.272,0,2.34,1.35,4.194,2.826,4.194,1.17,0,1.962-1.548,2.988-3.888a35.46,35.46,0,0,0,2.052-5.49c0-.666-.7-1.26-.882-1.422a7.106,7.106,0,0,1,.972-.072c3.294,0,5.22,2.124,5.22,5.04,0,4.914-4.842,6.678-5.94,7.074Zm-.954-12.132A2.092,2.092,0,0,1-18.684-11c0,1.188-1.854,5.346-1.98,5.6-.9,1.944-1.332,2.88-2.016,2.88-.7,0-1.548-1.368-1.548-3.078A6.758,6.758,0,0,1-19.008-12.042ZM-.846,1.494A10.116,10.116,0,0,0,4.032-1.8a18.228,18.228,0,0,0,2.9,3.132A1.89,1.89,0,0,1,8.478.5L8.514.288A11.973,11.973,0,0,1,4.752-2.826C5.76-4.482,6.228-5.814,6.822-9.252c.432-.09.612-.108.612-.324,0-.2-.216-.288-.36-.324l-1.548-.45A16.855,16.855,0,0,1,4.068-3.8,14.77,14.77,0,0,1,2.016-9.5c.234-.432.324-.612.45-.882H8.01c.144,0,.342-.018.342-.2a.306.306,0,0,0-.144-.234l-1.3-1.116a.383.383,0,0,0-.27-.126.276.276,0,0,0-.216.162l-.7,1.008H2.7a28.516,28.516,0,0,0,1.206-3.168c.54-.072.7-.072.7-.324,0-.108-.054-.234-.468-.36L2.646-15.21A21.26,21.26,0,0,1-.5-6.534l.18.144a10.912,10.912,0,0,0,2-2.52A13.922,13.922,0,0,0,3.456-2.7a13.143,13.143,0,0,1-4.41,4Zm-7.11-8.442A10.356,10.356,0,0,0-4-10.1c0,.378-.054,2.2-.054,2.61,0,.2,0,.432.414.432.306,0,.81-.09.81-.558,0-.342-.036-2.016-.036-2.394a9.9,9.9,0,0,1,1.44,1.62c.414.63.486.7.72.7.4,0,.5-.4.5-.648,0-.936-1.512-1.728-2.664-2.052v-.666H.594c.126,0,.36,0,.36-.2,0-.108-.054-.162-.144-.252l-.99-.846a.378.378,0,0,0-.252-.126c-.108,0-.144.072-.216.162l-.522.756H-2.862V-14.22c.4-.162.612-.252.612-.45,0-.216-.252-.234-.468-.27l-1.368-.2A14.319,14.319,0,0,1-4-13.176v1.62H-6.318c-.738,0-1.3-.036-1.818-.072l.27.648c.612-.054,1.008-.072,1.4-.072H-4.59A14.188,14.188,0,0,1-8.1-7.092Zm6.75,2.52H.81c.144,0,.342,0,.342-.2a.25.25,0,0,0-.144-.234l-1.1-.954A.34.34,0,0,0-.342-5.94c-.108,0-.162.09-.216.162l-.576.846H-4.1c.2-.378.234-.45.576-1.152.288,0,.63,0,.63-.27,0-.162-.2-.252-.324-.306l-1.242-.468a14.027,14.027,0,0,1-.9,2.2H-6.426c-.738,0-1.314-.036-1.818-.072l.252.648A10.944,10.944,0,0,1-6.57-4.428h.954c-.666,1.242-.81,1.494-1.242,2.178C-6.966-2.07-7-2-7-1.926c0,.252.36.432.756.432.324,0,.378-.09.774-.81A12.12,12.12,0,0,1-3.366-1.3,9.064,9.064,0,0,1-7.632,1.188L-7.6,1.4A8,8,0,0,0-2.538-.7c.2.162.54.45.828.738.378.378.522.486.756.486.27,0,.432-.27.432-.558,0-.684-.63-1.152-1.332-1.53A10.777,10.777,0,0,0-.81-3.636c.216,0,.522,0,.522-.252,0-.126-.108-.234-.486-.378Zm-.684,0A8.852,8.852,0,0,1-2.844-2a13.485,13.485,0,0,0-2.466-.63l.954-1.8Zm-5.292-9.918a6.012,6.012,0,0,1,1.008,1.674c.324.774.36.882.612.882.342,0,.576-.342.576-.81,0-.99-1.3-1.62-2.07-1.926Zm6.084-.27a13.531,13.531,0,0,1-1.044,2.7l.162.144A13.56,13.56,0,0,0-.2-13.428c.414.018.7.036.7-.18,0-.144-.108-.252-.432-.414Zm16.092.468a1.106,1.106,0,0,1,.792,1.026,9.148,9.148,0,0,1-.666,2.5,15.733,15.733,0,0,1-2.25.2,3.063,3.063,0,0,1-1.728-.342l-.162.144c.144.4.45,1.206,1.98,1.206a11.493,11.493,0,0,0,1.836-.18,46.735,46.735,0,0,1-3.15,7.866c-.4.594-.45.666-.45.99,0,.486.27.882.63.882.432,0,.63-.432.954-1.152,1.08-2.484,1.836-4.716,3.2-8.8.99-.18,1.962-.432,2.394-.54,1.08-.288,1.53-.45,1.53-.828,0-.216-.252-.594-.882-.594-.252,0-.324.054-.954.342a9.416,9.416,0,0,1-1.728.558,8.528,8.528,0,0,1,.7-1.728c.252-.378.27-.414.27-.576a1.772,1.772,0,0,0-1.674-1.314,1.273,1.273,0,0,0-.558.144ZM18.648-8.37a12.321,12.321,0,0,1,2.286-.252c.306,0,1.368,0,1.368.252,0,.18-1.062,1.134-1.314,1.368l.126.162C23-7.848,23.22-7.956,23.94-7.956c.2,0,.684,0,.684-.45,0-.54-1.026-1.062-2.592-1.062a6.617,6.617,0,0,0-3.456.9ZM18.2-4.536a2.7,2.7,0,0,0-1.314,2.214c0,2.5,3.834,2.5,4.842,2.5A17.305,17.305,0,0,0,23.832.072c.648-.054.99-.2.99-.522,0-.45-.612-.792-1.062-.792-.09,0-.144.018-.63.09a10.55,10.55,0,0,1-1.692.108c-1.17,0-3.726,0-3.726-1.692a2.7,2.7,0,0,1,.666-1.674Zm2.7-8.838a7.318,7.318,0,0,1,2.2,2.052c.4.558.45.666.738.666a.539.539,0,0,0,.468-.594c0-.9-1.422-2-3.276-2.322Zm1.476-1.35a7.1,7.1,0,0,1,2.178,1.674c.648.7.7.792.918.792a.52.52,0,0,0,.468-.576c0-.9-1.584-1.944-3.456-2.106ZM35.28.972c5.04-1.332,5.04-5,5.04-7.2,0-.684-.036-1.6-.072-2.808.18-.018,1.368-.18,1.782-.252,1.044-.162,1.458-.252,1.458-.684,0-.36-.54-.648-.972-.648-.09,0-.864.216-.954.234a11.753,11.753,0,0,1-1.35.288c-.018-.234-.036-1.242-.036-1.512a7.178,7.178,0,0,1,.072-.972c.018-.072.09-.594.09-.648,0-.666-1.188-1.062-1.728-1.062a1.284,1.284,0,0,0-.7.234v.216c.972.216.99.342,1.116,3.924a24.8,24.8,0,0,1-3.042.216,4.729,4.729,0,0,1-1.836-.216l-.126.18c.4.594.7,1.062,2.25,1.062.846,0,2.16-.144,2.79-.216.018.54.036,1.386.036,1.926,0,3.294-.144,5.634-3.87,7.722Zm-5.6-14.22A1.733,1.733,0,0,1,30.2-11.97a14.6,14.6,0,0,1-.252,2.07,29.292,29.292,0,0,0-.414,4.464c0,2.718.72,4.734,1.746,4.734a.566.566,0,0,0,.594-.54c0-.18-.144-1.026-.144-1.206,0-.522.63-3.042.738-3.618l-.2-.072c-.18.36-.99,2.142-1.188,2.556-.09.18-.126.252-.2.252-.2,0-.378-.936-.378-2.142a15.56,15.56,0,0,1,.9-5.418,2.361,2.361,0,0,0,.306-1.008,1.816,1.816,0,0,0-1.944-1.512Zm17.622.936a1.114,1.114,0,0,0-.126.522c0,.612.72,1.764,1.44,1.764.486-.108,1.566-.378,2.16-.486a56.456,56.456,0,0,1,6.372-.72c.234,0,.45,0,.45.234A15.254,15.254,0,0,1,56.286-7.38,16.84,16.84,0,0,1,48.708.4l.09.162C50.634.072,55.782-1.314,58.842-9.936a1.141,1.141,0,0,1,.378-.63c.342-.234.4-.27.4-.4,0-.36-.972-1.422-1.53-1.422-.126,0-.684.234-.81.252-.036,0-7.956.648-8.226.648a1.71,1.71,0,0,1-1.566-.864Zm13.608-3.6A2.232,2.232,0,0,0,58.68-13.68a2.232,2.232,0,0,0,2.232,2.232,2.232,2.232,0,0,0,2.232-2.232A2.22,2.22,0,0,0,60.912-15.912Zm0,.81a1.425,1.425,0,0,1,1.422,1.422,1.425,1.425,0,0,1-1.422,1.422A1.413,1.413,0,0,1,59.49-13.68,1.413,1.413,0,0,1,60.912-15.1Zm5.958,2.52c1.332.306,1.332.378,1.332,3.24,0,1.1,0,5.9-.072,6.66-.018.144-.2.828-.2.99,0,.45.756,1.44,1.242,1.44.162,0,.216-.036.72-.414.144-.126.99-.522,1.17-.63,6.228-3.366,7.668-6.336,8.244-7.74l-.162-.126a24.7,24.7,0,0,1-5.976,5.22,20.084,20.084,0,0,1-3.564,1.8c-.27,0-.27-.126-.27-1.242,0-1.1.108-7.146.216-7.884a7.329,7.329,0,0,0,.234-.9c0-.468-1.134-1.008-1.872-1.008a1.338,1.338,0,0,0-1.026.4Zm25.2,7.038a10.481,10.481,0,0,0,2.88-2.394c.918-.972,1.008-1.1,1.332-1.188.216-.072.432-.126.432-.414,0-.432-1.26-1.314-1.638-1.314a9.624,9.624,0,0,0-1.134.576c-.216.072-1.242.306-5.544,1.224a22.827,22.827,0,0,1,.144-2.574,10.423,10.423,0,0,0,.324-1.134c0-.522-1.116-1.08-1.926-1.08a1.46,1.46,0,0,0-.9.306l-.036.2c.4.126.99.306,1.152.918.072.306.054,3.132.054,3.636-.648.144-3.168.72-3.474.72a1.561,1.561,0,0,1-1.242-.81l-.18.054a1.05,1.05,0,0,0-.108.468,2.034,2.034,0,0,0,1.566,1.71,1.978,1.978,0,0,0,.738-.27,13.575,13.575,0,0,1,2.682-.846c0,3.834,0,4.266.054,4.806C87.552-.324,89.46-.306,91.134-.306a37.842,37.842,0,0,0,4.338-.216.556.556,0,0,0,.468-.5c0-.63-1.476-.882-1.494-.882-.162,0-.936.2-1.1.234a14.258,14.258,0,0,1-2.772.27c-1.98,0-2.25-.576-2.25-2.646,0-1.008.036-2.682.054-4.032,3.186-.81,5.814-1.35,5.922-1.35.018,0,.126,0,.126.09,0,.45-1.944,2.97-2.5,3.654Zm1.44-8.3a7.484,7.484,0,0,1,2.232,2c.4.54.468.648.738.648a.546.546,0,0,0,.486-.612c0-.9-1.53-1.98-3.33-2.25Zm1.53-1.152a7.309,7.309,0,0,1,2.34,1.872c.45.54.5.594.756.594a.5.5,0,0,0,.468-.558c0-.882-1.494-1.908-3.456-2.124Zm7.128,2.2a11.748,11.748,0,0,1,3.4,2.934c.4.54.576.792.9.792.378,0,.594-.468.594-.918,0-2-4.14-2.862-4.788-2.988Zm.288,9.954a2.148,2.148,0,0,0-.072.522A2.514,2.514,0,0,0,104.166-.18c.18,0,.342-.072.666-.378a5.55,5.55,0,0,1,.738-.54c2.772-1.728,7.614-4.842,9.576-9.576l-.162-.09c-3.87,5.256-10.116,8.748-11.088,8.748-.576,0-1.062-.648-1.26-.882Zm20.412-10.818c.684.234,1.17.4,1.242,1.206.036.342.018,6.174.018,8.748,0,.792,0,1.1-.036,1.674-.018.162-.126.936-.126,1.116,0,.378.288,1.62.936,1.62.522,0,.522-.63.522-.9,0-1.152-.126-6.822-.144-8.1a12.838,12.838,0,0,1,4.032,2.34C130.464-4.95,130.536-4.9,130.86-4.9c.36,0,.468-.342.468-.63a1.791,1.791,0,0,0-1.044-1.584,20.528,20.528,0,0,0-5-1.8,25.139,25.139,0,0,1,.162-2.988c.036-.18.252-.954.252-1.152,0-.576-1.08-1.116-1.89-1.116a1.5,1.5,0,0,0-.918.306Zm16.164,9.234a2.477,2.477,0,0,0-2.484,2.484A2.474,2.474,0,0,0,139.032.522,2.481,2.481,0,0,0,141.5-1.944,2.485,2.485,0,0,0,139.032-4.428Zm0,.756a1.713,1.713,0,0,1,1.71,1.728,1.709,1.709,0,0,1-1.71,1.71,1.713,1.713,0,0,1-1.728-1.71A1.728,1.728,0,0,1,139.032-3.672ZM-164.349,21.806h-.954c-.738,0-1.17-.036-1.818-.072l.27.648a11.819,11.819,0,0,1,1.4-.072h13.428c.108,0,.36,0,.36-.2,0-.072-.036-.126-.144-.234l-1.188-1.044a.37.37,0,0,0-.27-.144c-.108,0-.162.09-.216.18l-.612.936h-.486v-3.96h3.042c.09,0,.36,0,.36-.2,0-.108-.072-.162-.144-.234l-1.206-1.026c-.09-.09-.162-.162-.27-.162-.072,0-.126.036-.216.18l-.612.936h-.954v-3.96h1.926c.09,0,.36,0,.36-.2a.353.353,0,0,0-.144-.252l-1.332-1.134a.419.419,0,0,0-.27-.126.317.317,0,0,0-.234.162l-.7,1.044h-8.766c.342-.522.432-.666.63-.99.306-.018.684-.036.684-.306,0-.2-.342-.306-.468-.36l-1.386-.486a15.73,15.73,0,0,1-3.258,5.832l.162.162a10.844,10.844,0,0,0,3.024-2.988v3.6h-1.62c-.738,0-1.17-.036-1.818-.072l.252.648a12.128,12.128,0,0,1,1.422-.072h1.764Zm1.152-3.96h1.728v3.96H-163.2Zm0-4.464h1.728v3.96H-163.2Zm4.572,0v3.96h-1.728v-3.96Zm0,4.464v3.96h-1.728v-3.96Zm2.88-4.464v3.96h-1.764v-3.96Zm0,4.464v3.96h-1.764v-3.96Zm-9.162,5.166a8.132,8.132,0,0,1-1.674,2.718c-.5.54-.648.7-.648,1.008s.234.558.684.558c1.458,0,1.908-2.376,1.854-4.248Zm1.962.072a9.4,9.4,0,0,1,1.1,2.988c.18.864.216,1.062.612,1.062.378,0,.774-.36.774-1.026,0-1.044-1.08-2.322-2.322-3.168Zm4.032,0a10.069,10.069,0,0,1,1.17,2.628c.36,1.206.4,1.35.756,1.35.252,0,.738-.324.738-1.062,0-1.422-2.034-2.79-2.52-3.06Zm3.708,0a10.186,10.186,0,0,1,2,3.24c.36.864.4.954.738.954.36,0,.684-.378.684-1.008,0-1.53-2.232-2.934-3.294-3.366Zm10.152-5.634h3.33c.126,0,.36,0,.36-.216a.368.368,0,0,0-.144-.234l-.936-.828a.308.308,0,0,0-.234-.126.317.317,0,0,0-.234.162l-.486.72h-1.656V11.762c.468-.18.648-.27.648-.468,0-.216-.27-.252-.414-.27l-1.494-.2c.072,1.08.072,1.854.072,2.052v4.05h-1.71c-.72,0-1.3-.018-1.8-.054l.252.63a13.845,13.845,0,0,1,1.422-.054h1.62a20.158,20.158,0,0,1-3.564,6.8l.18.126a13.083,13.083,0,0,0,3.6-4.59v4.572c0,.288-.036,2.466-.036,2.628,0,.342.09.468.4.468.882,0,.882-.414.882-.576,0-.378-.054-2.214-.054-2.628V18.8a9.776,9.776,0,0,1,1.476,2.322c.414.954.468,1.062.738,1.062.288,0,.594-.252.594-.792,0-1.278-1.638-2.5-2.808-3.024Zm9.666,3.132v-8.8c.468-.18.666-.252.666-.468s-.288-.252-.45-.27l-1.584-.2c.09,1.116.09,2.016.09,2.16v7.9l-3.672.918a15.708,15.708,0,0,1-1.836.342l.414.594a12.114,12.114,0,0,1,1.458-.432l3.636-.864v2.9c0,.18-.054,2.394-.054,2.61,0,.306.054.432.45.432.63,0,.936-.162.936-.558,0-.342-.054-2.3-.054-2.646V21.158l2.2-.522c.144-.036.306-.09.306-.234,0-.108-.054-.162-.18-.252l-1.134-.666a.762.762,0,0,0-.216-.072c-.144,0-.2.144-.234.216l-.342.864Zm-5.526-8.424a10.079,10.079,0,0,1,1.422,1.854c.684,1.152.756,1.278,1.026,1.278a.716.716,0,0,0,.612-.774c0-1.476-2.286-2.34-2.934-2.538Zm-.27,4.68A11.709,11.709,0,0,1-139.6,19.07c.468.828.522.918.828.918a.708.708,0,0,0,.648-.756c0-1.512-2.322-2.376-2.934-2.574Zm-8.19-4.482a10.493,10.493,0,0,1,1.1,2.7c.162.612.234.918.594.918.288,0,.648-.27.648-.846,0-1.3-1.53-2.466-2.178-2.9Zm6.192-.054a11.755,11.755,0,0,1-1.314,3.726l.18.126a13.4,13.4,0,0,0,2.124-2.682c.45-.054.648-.09.648-.324,0-.162-.054-.2-.5-.378Zm11.394,10.512a11.342,11.342,0,0,0,3.366-2.106l.234.594a12.241,12.241,0,0,1,1.44-.072h1.638c-.81,3.078-2.718,4.626-5.454,6.012l.054.216c4.536-1.026,6.012-3.42,6.732-6.228h3.366a19.5,19.5,0,0,1-.306,2.484c-.378,1.908-.756,2.07-1.512,2.07-.36,0-2.106-.126-2.5-.126l-.018.216c1.872.558,2.07.7,2.07,1.476a2.887,2.887,0,0,0,2.574-1.134,13.951,13.951,0,0,0,.936-4.41c.558-.2.648-.252.648-.414,0-.126-.09-.2-.18-.288l-1.008-.864a.491.491,0,0,0-.216-.108.247.247,0,0,0-.18.09l-.432.5h-6.084c-.792,0-1.458-.054-1.728-.072a15.676,15.676,0,0,0,2.178-2.43h5.04a12.494,12.494,0,0,0,4.788,4.122,1.644,1.644,0,0,1,1.35-1.17l.018-.216a11.949,11.949,0,0,1-4.986-2.736h4.356c.126,0,.342,0,.342-.2a.3.3,0,0,0-.144-.234l-1.152-1.008a.367.367,0,0,0-.27-.144.3.3,0,0,0-.234.162l-.648.918h-2.772a11.271,11.271,0,0,1-1.782-2.484h5.562c.144,0,.36,0,.36-.2a.3.3,0,0,0-.144-.234l-1.152-.99a.37.37,0,0,0-.27-.144.317.317,0,0,0-.234.162l-.63.9h-2.934a14.753,14.753,0,0,0,2.43-2.3,2.206,2.206,0,0,0,.342.036c.09,0,.414,0,.414-.27,0-.2-.324-.324-.432-.378l-1.422-.612a11.273,11.273,0,0,1-1.836,3.528h-2.016a22.113,22.113,0,0,0,.954-2.862c.36-.054.7-.108.7-.378,0-.144-.09-.234-.54-.342l-1.44-.342a14.026,14.026,0,0,1-1.026,3.924h-3.294c-.7,0-1.242-.036-1.818-.072l.27.648a12.858,12.858,0,0,1,1.44-.072h3.186a17.407,17.407,0,0,1-1.332,2.484h-2.88c-.738,0-1.314-.036-1.818-.072l.252.648a13.3,13.3,0,0,1,1.44-.072h2.664a18.122,18.122,0,0,1-4.446,4.41Zm9.126-7.578a12.288,12.288,0,0,0,1.206,2.484h-4.374a14.467,14.467,0,0,0,1.368-2.484Zm-6.786-3.888A9.388,9.388,0,0,1-127.9,13.58c.45.882.5.972.828.972a.7.7,0,0,0,.63-.756c0-1.134-1.4-2.106-2.9-2.628Zm21.222.684-3.438.63.09.522,1.836-.324V24.2c0,.864-.126,1.278-1.224,1.278h-.828V26h5.616v-.522H-107c-1.08,0-1.224-.4-1.224-1.278Zm6.534,16.56a3.749,3.749,0,0,0,1.962-3.276c0-1.206-.738-1.6-1.332-1.6a1.241,1.241,0,0,0-1.26,1.26,1.185,1.185,0,0,0,1.206,1.224,1.38,1.38,0,0,0,.738-.216,3.232,3.232,0,0,1-1.656,2.232Zm3.96-9.432c0,4.68,2,7.128,4.68,7.128s4.68-2.448,4.68-7.128c0-4.536-1.926-7.128-4.68-7.128C-95.661,12.032-97.731,14.408-97.731,19.16Zm1.566,0c0-2.124.216-6.606,3.114-6.606,2.862,0,3.114,4.356,3.114,6.606,0,2.268-.252,6.606-3.114,6.606C-95.931,25.766-96.165,21.356-96.165,19.16Zm9.45,0c0,4.68,2,7.128,4.68,7.128s4.68-2.448,4.68-7.128c0-4.536-1.926-7.128-4.68-7.128C-84.645,12.032-86.715,14.408-86.715,19.16Zm1.566,0c0-2.124.216-6.606,3.114-6.606,2.862,0,3.114,4.356,3.114,6.606,0,2.268-.252,6.606-3.114,6.606C-84.915,25.766-85.149,21.356-85.149,19.16Zm9.45,0c0,4.68,2,7.128,4.68,7.128s4.68-2.448,4.68-7.128c0-4.536-1.926-7.128-4.68-7.128C-73.629,12.032-75.7,14.408-75.7,19.16Zm1.566,0c0-2.124.216-6.606,3.114-6.606,2.862,0,3.114,4.356,3.114,6.606,0,2.268-.252,6.606-3.114,6.606C-73.9,25.766-74.133,21.356-74.133,19.16Zm22.158-3.51a14.761,14.761,0,0,1-1.764,6.138,14.171,14.171,0,0,1-2.52-5.418c.144-.306.216-.432.36-.738h7.236c.072,0,.342,0,.342-.216a.3.3,0,0,0-.144-.234L-49.8,14.048a.419.419,0,0,0-.27-.126c-.09,0-.126.036-.216.162l-.7,1.026h-4.7c.468-1.062.738-1.746,1.224-3.114.414-.072.666-.144.666-.36,0-.144-.072-.252-.486-.36l-1.458-.4a26.264,26.264,0,0,1-2.574,7.974,6.139,6.139,0,0,0-2.2-1.728V15.614h2.646c.126,0,.36,0,.36-.2a.364.364,0,0,0-.144-.252l-1.044-.918c-.126-.108-.18-.144-.27-.144a.3.3,0,0,0-.234.18l-.558.828h-.756V11.78c.468-.2.612-.288.612-.468,0-.216-.27-.252-.414-.27l-1.476-.2c.09.972.09,1.836.09,2.052V15.11h-1.332c-.72,0-1.3-.036-1.8-.072l.252.648a12.03,12.03,0,0,1,1.4-.072h1.458a23.774,23.774,0,0,1-3.438,7.794l.162.126a13.855,13.855,0,0,0,3.294-4.644v5.526c0,.378-.036,2.2-.036,2.61,0,.234,0,.432.4.432.864,0,.864-.4.864-.576,0-.378-.036-2.232-.036-2.646V17.594a9.966,9.966,0,0,1,1.26,2.286c.216.594.306.828.648.828.2,0,.594-.126.594-.846a1.666,1.666,0,0,0-.144-.666,10.83,10.83,0,0,0,1.566-2.214,14.048,14.048,0,0,0,2.25,5.76A18.149,18.149,0,0,1-59.067,27.3l.108.18a12.378,12.378,0,0,0,5.31-3.816A14.969,14.969,0,0,0-49.455,27.1a1.976,1.976,0,0,1,1.476-1.062V25.82a11.4,11.4,0,0,1-4.968-3.114,16.708,16.708,0,0,0,2.25-6.03c.4-.126.558-.18.558-.378,0-.216-.252-.27-.468-.324Zm8.6,6.156h-.954c-.738,0-1.17-.036-1.818-.072l.27.648a11.819,11.819,0,0,1,1.4-.072h13.428c.108,0,.36,0,.36-.2,0-.072-.036-.126-.144-.234l-1.188-1.044a.37.37,0,0,0-.27-.144c-.108,0-.162.09-.216.18l-.612.936H-33.6v-3.96h3.042c.09,0,.36,0,.36-.2,0-.108-.072-.162-.144-.234l-1.206-1.026c-.09-.09-.162-.162-.27-.162-.072,0-.126.036-.216.18l-.612.936H-33.6v-3.96h1.926c.09,0,.36,0,.36-.2a.353.353,0,0,0-.144-.252L-32.787,11.8a.419.419,0,0,0-.27-.126.317.317,0,0,0-.234.162l-.7,1.044h-8.766c.342-.522.432-.666.63-.99.306-.018.684-.036.684-.306,0-.2-.342-.306-.468-.36l-1.386-.486a15.729,15.729,0,0,1-3.258,5.832l.162.162a10.844,10.844,0,0,0,3.024-2.988v3.6h-1.62c-.738,0-1.17-.036-1.818-.072l.252.648a12.128,12.128,0,0,1,1.422-.072h1.764Zm1.152-3.96h1.728v3.96h-1.728Zm0-4.464h1.728v3.96h-1.728Zm4.572,0v3.96h-1.728v-3.96Zm0,4.464v3.96h-1.728v-3.96Zm2.88-4.464v3.96h-1.764v-3.96Zm0,4.464v3.96h-1.764v-3.96Zm-9.162,5.166A8.132,8.132,0,0,1-45.6,25.73c-.5.54-.648.7-.648,1.008s.234.558.684.558c1.458,0,1.908-2.376,1.854-4.248Zm1.962.072a9.4,9.4,0,0,1,1.1,2.988c.18.864.216,1.062.612,1.062.378,0,.774-.36.774-1.026,0-1.044-1.08-2.322-2.322-3.168Zm4.032,0a10.069,10.069,0,0,1,1.17,2.628c.36,1.206.4,1.35.756,1.35.252,0,.738-.324.738-1.062,0-1.422-2.034-2.79-2.52-3.06Zm3.708,0a10.186,10.186,0,0,1,2,3.24c.36.864.4.954.738.954.36,0,.684-.378.684-1.008,0-1.53-2.232-2.934-3.294-3.366Zm14.508-11.466c.27.126.81.378.81.882,0,.324-.288.72-.99,1.35-.378.342-2.016,1.674-3.618,2.88-1.818,1.368-2.376,1.8-2.376,2.538a1.684,1.684,0,0,0,.81,1.206c.2.162,1.314.882,1.548,1.044a22.709,22.709,0,0,1,5.256,4.752c.234.342.468.648.828.648.342,0,.684-.36.684-.954,0-.36-.09-.756-.882-1.458a43.061,43.061,0,0,0-5.562-3.888c-.954-.594-1.53-.954-1.53-1.4,0-.378.684-.9.954-1.1,1.08-.81,1.98-1.422,5.31-3.69,1.17-.792,1.3-.882,1.3-1.3a1.93,1.93,0,0,0-1.908-1.782c-.054,0-.5.054-.576.072Zm19.242,4.14c1.53.288,2.88.864,2.88,1.188,0,.126-.162.18-.252.2-2.52.54-2.79,1.44-2.79,3.258,0,.288,0,.486.054,2.124a6.294,6.294,0,0,0-1.836-.252c-1.782,0-3.114.684-3.114,2.088s1.35,2.124,3.024,2.088C.387,26.4.549,24.794.6,24.164a7.34,7.34,0,0,1,1.458,1.044c.7.612.774.666,1.026.666a.537.537,0,0,0,.468-.594c0-.864-1.242-1.656-2.97-2.376C.549,22.454.351,19.9.351,19.61c0-.72,0-1.962,2.034-1.962a1.62,1.62,0,0,1,.774.162c.522.252.576.288.738.288a.575.575,0,0,0,.54-.594c0-.972-1.908-2.07-3.8-2.07a4.448,4.448,0,0,0-1.1.126Zm-.09,7.848c0,.558-.036,1.854-2.268,1.836-1.35,0-2-.54-2-1.152,0-.432.414-1.1,1.89-1.1A7.1,7.1,0,0,1-.567,23.606Zm-4.7-11.844c.2.108.72.378.72.864a9.528,9.528,0,0,1-.684,2.016,15.629,15.629,0,0,1-2.25.234,2.173,2.173,0,0,1-1.53-.45l-.18.126A1.58,1.58,0,0,0-7.407,15.83a10.847,10.847,0,0,0,1.746-.18,46.679,46.679,0,0,1-2.718,5.13c-.828,1.242-.936,1.386-.936,1.818,0,.288.108.828.558.828.27,0,.486-.144,1.152-1.458.468-.918,2.574-5.508,3.078-6.516.792-.162,1.8-.36,2.988-.594.432-.09.828-.2.828-.522s-.576-.63-1.008-.63a5.34,5.34,0,0,0-.81.27,10.908,10.908,0,0,1-1.494.432,4.678,4.678,0,0,1,.558-.9c.432-.54.486-.612.486-.81,0-.432-.864-1.224-1.692-1.224a2.694,2.694,0,0,0-.558.09ZM10.809,11.6a1.638,1.638,0,0,1,.648,1.422,5.484,5.484,0,0,1-.108.972,24.709,24.709,0,0,0-.594,4.788c0,1.476.378,3.726,1.494,3.726.612,0,.666-.684.684-.828.018-.126-.018-.828-.018-.99,0-2.574,1.566-7.362,3.888-7.362,2.088,0,2.088,4.032,2.088,4.806,0,3.15-.846,6.84-6.03,8.91l.072.2c3.582-.774,7.308-2.718,7.308-9.162,0-3.834-1.386-5.58-3.168-5.58-3.06,0-4.446,5.544-4.9,7.308-.09.4-.108.432-.18.432-.2,0-.288-1.044-.288-1.638a11.49,11.49,0,0,1,.558-3.492A16,16,0,0,0,12.951,13a1.665,1.665,0,0,0-.918-1.278,2.141,2.141,0,0,0-1.116-.306ZM41.967,25.856a9.172,9.172,0,0,1-4.482-3.618,11.656,11.656,0,0,1-1.8-5.472c0-.2.054-1.152.054-1.368h3.618a23.792,23.792,0,0,1-1.476,3.258l.18.126a31.564,31.564,0,0,0,2.628-2.916c.864-.036.954-.036.954-.252a.327.327,0,0,0-.144-.27l-1.224-1.152a.463.463,0,0,0-.306-.18c-.09,0-.144.072-.234.162l-.612.72H33.111a23.048,23.048,0,0,0,1.332-2.862c.414-.036.63-.054.63-.27,0-.2-.2-.288-.486-.378l-1.44-.45c-.018.162-.072.414-.18.918a22.951,22.951,0,0,1-3.1,6.912l.18.126a12.685,12.685,0,0,0,2.79-3.492h1.638c-.018,4.1-.378,8.226-5.94,11.88l.108.2c5.922-2.142,6.588-6.786,6.876-8.874a11.046,11.046,0,0,0,4.932,8.6,2.064,2.064,0,0,1,1.512-1.08ZM25.6,12.338a8.265,8.265,0,0,1,1.944,2.214c.342.558.486.792.846.792.486,0,.63-.576.63-.864,0-1.08-1.62-1.908-3.312-2.322ZM30.591,13.4c-2.142,4.95-3.24,7.218-3.492,7.632-.288.432-.7.468-1.548.5l-.018.216c1.206.342,1.458.414,1.458,2.7,0,.2-.072,1.188-.072,1.4,0,.648.45.7.594.7a1.13,1.13,0,0,0,.99-1.26,5.424,5.424,0,0,0-.27-1.3,5.141,5.141,0,0,1-.414-1.638,6.19,6.19,0,0,1,.54-1.8c.54-1.494,2.124-5.94,2.43-7.074Zm16.524.072a5.487,5.487,0,0,1,.774,1.386c.27.648.324.774.648.774a.681.681,0,0,0,.648-.738c0-.684-.774-1.116-1.332-1.422h3.186c.072,0,.342,0,.342-.2a.364.364,0,0,0-.144-.252l-1.116-.972a.37.37,0,0,0-.27-.144.317.317,0,0,0-.234.162l-.612.9H46.341c.234-.342.378-.54.7-1.062.5-.036.72-.108.72-.324,0-.2-.27-.288-.5-.36l-1.44-.45a15.054,15.054,0,0,1-2.9,5.508l.162.162a13.416,13.416,0,0,0,2.9-2.97Zm6.552,0a7.471,7.471,0,0,1,.756,1.314c.324.684.36.756.63.756a.656.656,0,0,0,.63-.7c0-.7-.828-1.152-1.26-1.368h4.95c.09,0,.342,0,.342-.2a.331.331,0,0,0-.144-.252L58.347,11.96a.473.473,0,0,0-.27-.126q-.108,0-.216.162l-.666.972H53.037c.288-.342.486-.594.81-1.044.2.018.738.036.738-.252,0-.18-.252-.306-.342-.342l-1.476-.576A15.272,15.272,0,0,1,50.1,15.362l.144.18a11.5,11.5,0,0,0,2.34-2.07Zm-9.972,13.7A16.788,16.788,0,0,0,50.949,22.8v1.638c0,.414-.036,2.286-.036,2.664,0,.27,0,.432.432.432.936,0,.936-.36.936-.612,0-.4-.036-2.394-.036-2.556V21.968h5.13c-.252,3.186-.81,3.186-1.512,3.186-.108,0-1.764-.126-2.016-.144l-.036.216c1.71.522,1.71.936,1.692,1.368,1.89-.036,2.808-.45,3.15-4.32.36-.09.666-.162.666-.36,0-.072-.018-.126-.162-.234l-.99-.756a.549.549,0,0,0-.288-.144c-.108,0-.18.09-.234.144l-.486.54H52.245v-2.2h4.428c0,.4,0,.5.4.5.972,0,.972-.36.972-.54,0-.234-.072-1.494-.072-1.782v-.7c.342-.162.63-.306.63-.468,0-.126-.072-.162-.18-.234l-1.044-.72a.512.512,0,0,0-.252-.108c-.072,0-.108.036-.2.144l-.522.7H46.7c-.522,0-.882,0-1.818-.072l.252.648c.288-.018.666-.072,1.44-.072h4.374v2.178h-4l-1.584-.81a30.3,30.3,0,0,1-.648,3.474c-.054.2-.36,1.224-.36,1.3,0,.36.63.36.756.36.594,0,.648-.2.7-.468l.126-.63h4.086A24.515,24.515,0,0,1,43.6,26.954Zm8.55-8.424v-2.16h4.428v2.16Zm-1.3.522v2.2h-4.9l.468-2.2Zm24.408-6.3a.54.54,0,0,0-.306-.144.3.3,0,0,0-.234.144l-.522.576h-3.2a13.417,13.417,0,0,0,.864-1.62c.5-.072.684-.108.684-.342,0-.144-.126-.2-.378-.288l-1.4-.5a18.1,18.1,0,0,1-3.438,6.57l.144.162a14.129,14.129,0,0,0,2.808-2.916,9.991,9.991,0,0,0,1.566,3.222A20.439,20.439,0,0,1,67.4,21.59l.072.2a13.359,13.359,0,0,0,5.094-3.15,13.356,13.356,0,0,0,4.284,3.168,1.938,1.938,0,0,1,1.17-1.3l.018-.216a11.056,11.056,0,0,1-4.824-2.322,14.63,14.63,0,0,0,2.358-3.492c.594-.09.9-.162.9-.36a.364.364,0,0,0-.144-.252Zm-.99,1.08a12.7,12.7,0,0,1-1.908,3.15,10.251,10.251,0,0,1-1.8-2.988c.054-.09.072-.108.108-.162Zm-7.776-.72a21.51,21.51,0,0,1-3.42,5.472,19.26,19.26,0,0,1-1.944-.036l.468,1.368c.09.27.18.432.342.432.18,0,.216-.252.27-.5.936-.216,1.278-.288,2.124-.468v5.076c0,.342-.036,2.052-.036,2.43,0,.18.036.36.45.36.216,0,.792-.036.792-.558,0-.306-.036-1.89-.036-2.25V19.3c.756-.18.936-.234,1.3-.342a8.528,8.528,0,0,1,.378,1.044c.09.324.144.576.432.576.27,0,.612-.252.612-.828,0-1.026-.99-1.89-2.124-2.556l-.162.144a8.189,8.189,0,0,1,.72,1.26c-.99.054-1.962.108-2.934.18a19.2,19.2,0,0,0,3.618-4.122c.5.036.72.036.72-.2,0-.108,0-.162-.45-.45ZM61.6,13.85a8.683,8.683,0,0,1,1.656,2.16c.4.756.45.846.756.846.378,0,.576-.486.576-.81a1.829,1.829,0,0,0-.954-1.44,15.73,15.73,0,0,0,2.07-2.52c.45,0,.7,0,.7-.252,0-.09,0-.2-.468-.432l-1.314-.63a14.183,14.183,0,0,1-1.368,3.582,6.515,6.515,0,0,0-1.548-.684Zm.9,7.182a18.981,18.981,0,0,1-1.1,5.112l.2.108A13.573,13.573,0,0,0,63.621,22c.414-.072.5-.18.5-.288,0-.144-.09-.2-.414-.306Zm3.708.126a11.894,11.894,0,0,1,.9,2.79c.162.828.2,1.062.594,1.062.36,0,.63-.342.63-.864a4.616,4.616,0,0,0-1.962-3.132Zm4.086-.09c.108.09.234.162,1.332.828a8.265,8.265,0,0,1,1.44,1.17c.468.486.612.63.864.63a.6.6,0,0,0,.54-.648c0-1.6-3.924-2.142-4.122-2.178Zm-1.116,3.474a16.777,16.777,0,0,1,4.608,2.106c1.008.666,1.116.738,1.386.738a.612.612,0,0,0,.576-.684c0-1.638-4.284-2.322-6.534-2.376ZM92.439,12.554H81.495c-.72,0-1.3-.036-1.818-.072l.27.648c.72-.054,1.044-.072,1.4-.072h11.07a28.828,28.828,0,0,1-4.608,3.492l-1.1-.144c.09.972.09,1.674.09,1.89v6.858c0,.324-.018.468-.486.45l-2.664-.072v.216c2.466.648,2.484.972,2.5,1.692,1.8-.126,2-.81,2-1.764,0-.324-.036-1.944-.036-2.3v-6.03c.63-.234.7-.252.7-.468,0-.18-.216-.216-.36-.252a43.48,43.48,0,0,0,5.562-2.988c.972-.09,1.062-.09,1.062-.342a.377.377,0,0,0-.126-.252l-1.332-1.152a.367.367,0,0,0-.27-.144.328.328,0,0,0-.234.126Zm21.438,13.41a13,13,0,0,1-5.112-1.746,13.5,13.5,0,0,0,2.61-2.826c.756-.144.846-.162.846-.378a.331.331,0,0,0-.144-.252l-1.044-.846c-.09-.072-.18-.162-.288-.162-.09,0-.162.09-.216.162l-.4.468h-4.158c.2-.27.27-.414.45-.7.414-.018.684-.054.684-.288,0-.2-.216-.27-.486-.378l-.378-.144c1.764-.27,3.438-.54,4.878-.9.054.072.414.792.612,1.206.126.27.252.45.558.45.36,0,.684-.27.684-.81,0-1.386-2.016-2.538-3.168-2.952l-.108.2a11.569,11.569,0,0,1,1.17,1.512c-2.52.216-2.808.252-4.446.342a29.745,29.745,0,0,0,4.068-4.068c.5,0,.774.018.774-.27,0-.126-.054-.216-.486-.45l-1.188-.648a22.717,22.717,0,0,1-3.834,5.472c-.45.018-2.484.09-3.42.036l.414,1.368c.126.432.252.468.36.468.2,0,.27-.27.324-.5.684-.108.954-.144,1.818-.288a18.182,18.182,0,0,1-4.05,5.4l.126.18a13.184,13.184,0,0,0,3.8-3.114,8.519,8.519,0,0,0,1.926,2.628,23.976,23.976,0,0,1-5.652,3.15l.054.2a17.006,17.006,0,0,0,6.444-2.628,18.121,18.121,0,0,0,4.77,2.52,1.741,1.741,0,0,1,1.224-1.17Zm-3.744-5.076a11.627,11.627,0,0,1-2.376,2.682,8.524,8.524,0,0,1-2.34-2.412c.036-.054.18-.234.2-.27ZM101.1,14.84a4.7,4.7,0,0,1-.288.7,23.443,23.443,0,0,1-3.852,5.832l.126.18a10.315,10.315,0,0,0,2.5-2.088v5.2c0,.378-.036,2.3-.036,2.394,0,.234.054.4.432.4.108,0,.882,0,.882-.558,0-.36-.036-1.944-.036-2.25V19.16c.18-.09.54-.234.54-.414s-.2-.216-.306-.216l-.576-.09a20.834,20.834,0,0,0,1.62-2.3c.414-.036.63-.054.63-.288,0-.162-.054-.2-.324-.342Zm1.512-1.314a9.659,9.659,0,0,1,2.358,2.286c.522.7.576.792.864.792.4,0,.594-.4.594-.774,0-.684-.648-1.188-1.188-1.494a24.348,24.348,0,0,0,2.16-2.2c.558.018.828-.018.828-.288,0-.18-.126-.234-.468-.4l-1.368-.612a16.075,16.075,0,0,1-1.548,3.276,8.352,8.352,0,0,0-2.124-.774Zm-2.016-2.718a20.934,20.934,0,0,1-3.348,5.418l.144.162a14.229,14.229,0,0,0,4.23-4.158c.486-.036.7-.036.7-.306,0-.054-.018-.2-.36-.378Zm15.732,3.132a2.054,2.054,0,0,0-.126.63,1.863,1.863,0,0,0,1.422,1.692,13.21,13.21,0,0,0,1.476-.522,45.205,45.205,0,0,1,7.074-1.6c-3.114,1.89-5.238,4.392-5.238,7.308,0,3.366,3.4,4.824,5.778,4.824.324,0,.81-.072.81-.558a1.045,1.045,0,0,0-.612-.846,2.256,2.256,0,0,0-1.368-.252,3.241,3.241,0,0,1-3.384-3.438c0-3.492,3.564-6.894,6.21-6.894.162,0,.936.036,1.116.036.2,0,.756-.036.756-.468,0-.612-1.026-.954-1.44-.954a3.056,3.056,0,0,0-.72.144,10.926,10.926,0,0,1-1.3.252c-1.44.2-8.6,1.35-9.108,1.35a1.171,1.171,0,0,1-1.134-.756Zm10.332,2.754a7.147,7.147,0,0,1,1.872,2.016c.54.864.594.936.846.936a.584.584,0,0,0,.5-.648c0-.846-1.332-2.052-3.078-2.5Zm1.494-1.116a7.172,7.172,0,0,1,2.016,1.854c.594.774.648.864.9.864.216,0,.468-.216.468-.612,0-.828-1.3-1.926-3.258-2.322Zm9.684,11.628c3.1-.648,5.742-2.592,5.742-6.12a5.126,5.126,0,0,0-.468-2.25c-.054-1.116-.054-2.556-.054-3.744.4,0,.864-.036,1.638-.036.414,0,1.512,0,2.808.126a7.08,7.08,0,0,0,.9.072c.18,0,.684,0,.684-.486s-.792-.882-1.35-.882c-.162,0-.954.108-1.134.126-.036,0-3.168.216-3.528.234a5.731,5.731,0,0,1,.072-1.062c.018-.126.162-.666.162-.81,0-.576-1.206-1.062-1.782-1.062a1.731,1.731,0,0,0-.864.306l-.018.216c1.17.288,1.17.558,1.278,2.5-.918.09-5.346.612-6.372.612a1.288,1.288,0,0,1-1.35-.7l-.216.072a1.414,1.414,0,0,0-.09.45,1.687,1.687,0,0,0,1.476,1.62,14.056,14.056,0,0,0,1.584-.45,33.68,33.68,0,0,1,4.986-.756c0,.738.018,1.8.018,2.376a2.629,2.629,0,0,0-1.494-.414,2.833,2.833,0,0,0-2.88,2.988,2.63,2.63,0,0,0,2.556,2.862,2.309,2.309,0,0,0,2.214-1.566c-.09.918-.342,3.69-4.59,5.562Zm.9-7.056c0-.918.432-2.3,1.638-2.3,1.26,0,1.4,1.314,1.4,1.944,0,1.044-.576,2.376-1.674,2.376C139.113,22.166,138.735,21.032,138.735,20.15Zm15.786,1.422a2.475,2.475,0,1,0,2.466,2.484A2.477,2.477,0,0,0,154.521,21.572Zm0,.756a1.719,1.719,0,1,1-1.728,1.728A1.713,1.713,0,0,1,154.521,22.328Z" transform="translate(58.516 308.331)" fill="#fff"/>
  </g>
</svg>
