<svg id="Layer_1" data-name="Layer 1" xmlns="http://www.w3.org/2000/svg" width="279.87" height="173.82"><defs><style>.cls-1{fill:#fff}</style></defs><path class="cls-1" d="M205.28 124.42a7.43 7.43 0 01.47-1.52c9-17.29 23.47-27.78 41.8-33.17 9-2.64 16 .16 21.29 8 2.53 3.76 4.27 8 6.37 12.1.23.43.42.88.67 1.3.06.09.3.08.85.19a83.64 83.64 0 00-10.55-35.41l.74-.38c1.39 2.33 2.93 4.59 4.14 7 7.34 14.69 9.9 30.25 8.4 46.56-.7 7.58-1.85 15-5.22 22a23.59 23.59 0 01-7.95 9.45c-3.9 2.62-8.06 3.17-12.32 1.15a122.05 122.05 0 01-12.36-6.48c-2.56-1.6-4.6-4-7-6-4.05-3.28-8.19-6.45-12.29-9.67-.3-.23-.65-.41-1.29-.82 8-1.19 15.35-1.41 22.18 3 3.76 2.44 7.65 4.7 11.55 6.93a5.76 5.76 0 003.35.47c-5.55-6.16-13-9.69-19.56-14.3l.42-.65c3.64 2.19 7.33 4.3 10.92 6.58 3.36 2.15 6.59 4.51 10 6.67.54.35 1.43.16 2.16.22-.3-.66-.43-1.61-.95-1.93-5-3.22-10.15-6.33-15.24-9.47-.2-.12-.37-.28-.39-.85 1.11.48 2.25.89 3.3 1.45 4.48 2.39 8.91 4.85 13.39 7.23 1 .52 2.22 1.62 2.9 0 .24-.56-.7-2.11-1.47-2.53-4.86-2.66-9.83-5.12-14.76-7.66l.27-.7 17.45 6.82c1.45-2 1.34-2.7-1-3.6-4.16-1.6-8.38-3-12.57-4.57l.13-.7c2.74.55 5.51 1 8.23 1.67 1.62.38 3.15 1.09 4.77 1.46a5.93 5.93 0 002.13-.36c-.29-.93-.33-2.45-.91-2.7a35.1 35.1 0 00-6.43-1.88 67 67 0 01-7.43-1.66 8.38 8.38 0 011.92-.32c3.4.23 6.79.55 10.19.79 1 .07 2.48 1.06 2.67-1 .16-1.76-.44-2.86-2.53-2.76-3 .15-6 .15-9 .2a6.58 6.58 0 01-2.88-.45 11.57 11.57 0 012.22-.74c3.05-.41 6.13-.67 9.17-1.13.71-.11 1.34-.8 2-1.22-.74-.33-1.5-1-2.22-1-3.49.19-7 .56-10.45.86a6.07 6.07 0 01-3.07-.36c3-.75 6.05-1.52 9.09-2.25 1.37-.33 2.78-.53 4.13-.93.52-.16.92-.71 1.37-1.09-.55-.38-1.14-1.14-1.64-1.08q-5.56.67-11.1 1.64c-1.84.31-3.65.87-5.47 1.31l-.25-.8c3.76-1.32 7.52-2.65 11.29-3.93 1.13-.28 2.25-.61 3.35-1a8.17 8.17 0 001.76-1.56c-.85-.58-1.83-1.78-2.53-1.63a49.89 49.89 0 00-7.36 2.32q-5.35 2.18-10.89 3.82c1.84-1 3.63-2.17 5.53-3.08 3.29-1.59 6.67-3 10-4.6.74-.36 1.87-1.4 1.75-1.79-.47-1.55-1.78-1.53-3-.86-4.84 2.57-9.69 5.12-14.5 7.76-1.85 1-3.6 2.21-5.39 3.33l-.49-.72 18.63-12.72a2.2 2.2 0 00-2.62-1.68 2.09 2.09 0 00-.71.29 94.23 94.23 0 00-23.54 17.94c2.86.22 5.22.25 7.52.61a26.48 26.48 0 016.25 1.61c3.72 1.58 4.24 5.83.93 8.17a13.89 13.89 0 01-9.94 2.73 56.43 56.43 0 00-7.24.07h-5.21l-.09-.64c2.74-.5 5.49-1 8.22-1.53a30 30 0 004.57-1.17c.65-.25 1.08-1.08 1.61-1.65-.65-.4-1.35-1.19-2-1.13a111.75 111.75 0 00-11.83 1.47c-4.23.85-8.36 2.19-12.54 3.3a1.64 1.64 0 01-1.41-.35c1.13-.69 2.23-1.45 3.39-2.09 5.17-2.84 10.36-5.65 15.53-8.5A8.94 8.94 0 00228 119c6.33-5.76 12.64-11.54 19-17.27.52-.47 1.39-.55 1.9-1-2.5-2-4.14-1.32-5.61-.09q-8.64 7.17-17.21 14.45c-1.51 1.28-3 2.61-4.48 3.92l-.54-.49c5.2-5.93 10.41-11.85 15.82-18a5 5 0 00-5.32 1.53c-3.69 3.84-7.4 7.67-11.07 11.54a11.52 11.52 0 00-1.23 1.86l-.82-.72 7.91-9.79-.64-.6C218 110 212 117.48 205.28 124.42zM13.71 74.79a95 95 0 00-10.59 35.06 12 12 0 00.28 2.31c1.76-3.72 3.15-7.06 4.87-10.21 3.05-5.56 6.65-10.73 13.31-12.36 5.43-1.34 10.75-.34 15.89 1.71 15.65 6.2 28.35 15.7 36.29 30.87q.57 1.11 1.08 2.25a3.72 3.72 0 01-.2.91c-6.52-7.64-12.77-15.2-20.52-21.19l-.66.59 8.62 10.66-.11.08c-3-2.84-5.81-5.79-8.88-8.49s-4.65-7.07-10.32-6.84l16.14 18.41-.47.45c-4.3-3.74-8.57-7.53-12.92-11.21-3-2.58-6.23-5-9.34-7.51-1.46-1.16-3.06-1.28-5.06-.28l1.88 1.76c6.26 5.7 12.51 11.42 18.81 17.08a19.51 19.51 0 003.11 1.94c4.86 3 9.73 5.9 14.44 9.35-2.91-.67-5.94-1-8.71-2.07-4.65-1.77-9.44-1.82-14.25-1.81-.71 0-1.42.82-2.13 1.26.57.54 1.06 1.39 1.73 1.56 3.27.83 6.59 1.5 9.89 2.17 1 .2 1.94.23 2.91.34v.61h-5.09c-3 .07-5.94 0-8.88.33-2.55.27-8.7-2.32-10-4.57a4.32 4.32 0 011.26-6 4.64 4.64 0 011.18-.53 78.94 78.94 0 0110.45-2 21.45 21.45 0 013 0 9 9 0 00-.93-1.55 100 100 0 00-21.22-16.1c-1.64-.91-3.1-1-4.53.77l19.85 13.68-.41.61c-3.77-2.33-7.49-4.77-11.35-7a97.34 97.34 0 00-9.81-4.83c-.76-.32-2 .42-3 .67.57.65 1 1.55 1.72 1.9 4.61 2.3 9.28 4.47 13.93 6.7a2.54 2.54 0 011.28 1.32c-3.31-1.28-6.6-2.59-9.92-3.82-2.41-.9-4.86-1.72-7.3-2.54-1.38-.46-2.51-.18-3 1.36-.5 1.71.94 1.62 1.9 1.93l14.35 4.65-.24.9c-1.76-.41-3.5-.89-5.28-1.22-3.35-.62-6.7-1.25-10.09-1.67-.86-.1-1.83.61-2.75.94a8.31 8.31 0 002.2 1.4 109.82 109.82 0 0112.3 3.52l-3.66-.29c-3.41-.27-6.8-.6-10.21-.75-.65 0-1.33.65-2 1a6.81 6.81 0 002.06 1.18c3.12.46 6.28.75 9.41 1.15a3.15 3.15 0 012.08 1.12c-.65 0-1.31.11-2 .1-3.33-.06-6.67-.08-10-.25-2-.09-2.5 1-2.45 2.62 0 2 1.47 1.25 2.55 1.16 3.23-.29 6.46-.6 9.69-.84a3.89 3.89 0 012.52.71c-2.36.41-4.72.75-7.06 1.23-2.11.44-4.19 1-6.27 1.58-1.5.41-2.13 1.58-1.45 2.84.26.49 1.81.62 2.66.42 3.23-.74 6.41-1.73 9.64-2.53a5 5 0 013 .23l-12 4.37c-.47.17-1.11.25-1.35.6a13.93 13.93 0 00-1.09 2.39c.78.13 1.67.56 2.31.32 4.9-1.83 9.75-3.8 14.63-5.7a2.05 2.05 0 011.76.11c-3.6 1.78-7.21 3.52-10.79 5.34a40.73 40.73 0 00-5 2.88c-.49.34-.57 1.29-.83 2 .78.13 1.74.63 2.3.34 5.47-2.8 10.88-5.73 16.31-8.61a1.65 1.65 0 011.47 0l-17.33 10.77c.94 2.37 2 1.4 3 .72 5.86-3.78 11.72-7.57 17.6-11.32a6.42 6.42 0 012.93-1.07L21.21 148.3l.48 1.13a12.11 12.11 0 003.31-.73c3.83-2.17 7.45-4.75 11.38-6.72 5.72-2.86 11.64-5.32 18.34-3.78a24.4 24.4 0 003.41.3 1.75 1.75 0 01-.05.6c-6.56 3.77-11.54 9.44-17.27 14.19a44.5 44.5 0 01-18.32 9.31c-4.29 1-8-1-11.13-3.84-5.08-4.64-7.58-10.68-9-17.18a92.82 92.82 0 01-.89-37.23 73.88 73.88 0 0110.65-27.49 22.73 22.73 0 011.59-2.07zM71.12 10.81l10.13 4.75-.18.39-17.76-4.69-.31 1.1 10.29 3.18-.08.65-2.5-.19c-3.86-.41-7.75-.94-11.63-1.19a9.93 9.93 0 00-3.13.78l.09.78 17.2 1.56V19c-.56 0-1.12.1-1.67.09l-17-.36a4.2 4.2 0 00-4.32 2.48l16.58-.85.06.9c-2.59.33-5.19.58-7.77 1-3.76.63-7.55 1.25-11.24 2.18-1.25.32-2.26 1.55-3.38 2.36l.42.74L64.26 24l.21 1c-3.29.8-6.61 1.46-9.85 2.42-4.06 1.21-8.07 2.58-12.06 4-2.39.86-2.91 3.08-3.82 5.93 6.71-3.72 12.8-7 19.91-7.55-3.11 1.43-6.34 2.64-9.31 4.33-4.11 2.33-8.09 4.93-12 7.63-.89.62-1.16 2.11-1.72 3.19l.55.35 18.55-11.23.49.78c-1.32.83-2.69 1.6-4 2.5-5 3.47-9.92 7-14.82 10.51-1.19.85-2 2-1 3.85l18.83-13.58.57.7c-.65.49-1.3 1-1.93 1.49q-7.44 6-14.87 12.1a3.68 3.68 0 00-1.2 1.25 10.54 10.54 0 00-.4 2.44 7.19 7.19 0 002.06-.76c4.19-3.54 8.28-7.2 12.48-10.73 1.43-1.2 3.07-2.14 4.62-3.2l.42.51c-3.12 2.76-6.29 5.46-9.34 8.29-2.36 2.21-4.59 4.57-6.82 6.92-.3.32-.24 1-.35 1.5.54.08 1.26.43 1.58.21a40.84 40.84 0 004-3.09c5.51-4.93 11-9.94 16.51-14.82a16.51 16.51 0 015.39-3.11c-.82.68-1.71 1.3-2.47 2-7 6.71-13.89 13.4-20.72 20.17C39.25 64.45 35 69 29 71.42a7.76 7.76 0 01-10.18-4.1 7.47 7.47 0 01-.63-2.32c-.62-4.83 1-9.25 2.62-13.6 2.19-6 4.78-11.87 7.19-17.81a2.41 2.41 0 00-.12-1.59c-8 7.67-12.66 17.42-17.53 27.19a20.05 20.05 0 011.08-3.72c4.24-8.54 8.45-17.11 12.91-25.55a68.86 68.86 0 0116.18-20.2C48.12 3.14 56.74-1.45 67.17.55a46.25 46.25 0 0113.4 5.11 177.55 177.55 0 0129.5 20 52.4 52.4 0 009.93 6.16c2.1 1.1 3.06.65 5.35-1.11-.87-.78-1.62-1.57-2.5-2.22-3.85-2.82-7.75-5.49-11.46-8.43a8.32 8.32 0 01-2.65-9.89c1.84-4.17 6.66-5.87 11.42-3.62C126 9.33 130 13.82 130 20.66c-.06 6.5-.2 12.86 5.41 17.79l-.92.49-7.27-6.79c-4.39 3.43-5.85 3.48-10.93.46-9.93-5.92-19.77-12-29.82-17.7-3.35-1.91-7.19-3-10.88-4.26a20.07 20.07 0 00-4.37-.51zM206.75 18.38c5.48-1.92 11.33-1.34 17-1.87l.22-.76a9.76 9.76 0 00-2.88-1c-3.9.24-7.78.69-11.67 1.08-1 .1-1.93.29-2.89.44l-.18-.68L217 12.33l-.32-1.09L199 15.93l-.19-.38 10.07-4.74v-.58c-1.53.13-3.19-.07-4.57.45-4.72 1.8-9.58 3.45-14 5.9-8.5 4.74-16.71 10-25 15-.92.56-1.82 1.17-2.78 1.67-4.52 2.38-5.83 2.23-9.7-1.14l-7.07 6.54-.49-.46a19.86 19.86 0 002.44-3.89 56.75 56.75 0 002.29-8.51c.35-1.94 0-4 .15-6A15.4 15.4 0 01161.46 6a8 8 0 019.19 3.18c1.82 3 1.5 7.53-1.17 9.94-2.83 2.55-6 4.73-9 7-1.39 1.05-2.89 2-4.25 3.07-.51.41-1.22 1.45-1.08 1.66.44.6 1.32 1.38 1.91 1.3 1.94-.28 4.07-.51 5.67-1.5a89.62 89.62 0 009.44-6.88A172.34 172.34 0 01204 3.22c9.89-5 19.64-4 29 1.8 9.13 5.67 16 13.6 21.37 22.71 4.48 7.56 8.36 15.49 12.36 23.33A23.75 23.75 0 01269 58.6c-2.39-4.72-4.66-9.51-7.21-14.15a49.57 49.57 0 00-9.56-12.63l-.7.41c.73 1.7 1.57 3.36 2.17 5.1 2.73 7.85 5.66 15.63 8 23.6a8.73 8.73 0 01-5.33 10.83 7.22 7.22 0 01-6.89-1 62.65 62.65 0 01-9.72-7.35C231 54.75 223.12 45.24 213 38l.38-.52a48.45 48.45 0 014.94 3.38c5.62 4.94 11.14 10 16.71 15a28 28 0 003.25 2.7c.5.32 1.35.09 2 .11-.19-.64-.19-1.47-.61-1.87-4.36-4.21-8.79-8.36-13.21-12.51-.83-.78-1.68-1.53-2.51-2.3l.51-.65c3.23 2.49 6.53 4.9 9.67 7.5 2.5 2.06 4.79 4.38 7.24 6.5a6.08 6.08 0 002.06.71c-.15-.85 0-2-.49-2.49C239 50.07 235 46.68 231 43.35c-1.89-1.57-3.93-3-5.9-4.44l.52-.72 18.85 13.58c1.23-1.68.26-2.81-.84-3.65-4-3-8-6-12-8.86-2.23-1.56-4.63-2.88-6.82-4.53 6.84 2.49 12.7 6.75 18.7 10.77l.82-.72c-.72-1.1-1.23-2.47-2.21-3.26A68.7 68.7 0 00222 30.23a1 1 0 01-.65-.69c7.14.7 13.25 4.1 19.57 7.3-.78-2.31-1.23-4.84-4-5.67-6.77-2-13.55-4-20.33-5.94a1.86 1.86 0 01-1.07-.58c6.68-.37 13 2 19.49 3l.46-.85c-1.18-.83-2.26-2.13-3.56-2.4-5.45-1.12-11-1.94-16.46-2.86-.81-.14-1.62-.24-2.44-.35v-.85l16.4.81c-.87-2.11-2.43-2.48-4.15-2.45-5.66.1-11.32.24-17 .37h-1.45z"/><path class="cls-1" d="M191.8 147.09c.28-.32.4-.61.59-.66 6.87-1.75 13.59-5.11 20.89-3.15 6.21 1.67 12.17 3.72 17.2 8.39a227 227 0 0021.28 17.24c6.32 4.58 10.26 3.89 16-1.41A13.82 13.82 0 01271 165a10.82 10.82 0 01-.55 1.32c-4.23 6.62-10.67 8.88-19.45 6.66a106.8 106.8 0 01-31.19-13 119.46 119.46 0 00-15.71-7.88c-3.53-1.56-7.2-2.8-10.8-4.21-.51-.24-1.01-.51-1.5-.8zM88.58 146.79a16.87 16.87 0 01-1.45.92c-5.5 2.25-11.08 4.33-16.5 6.77-3.52 1.58-6.76 3.77-10.21 5.53-11.42 5.81-22.69 11.81-35.62 13.6a14.31 14.31 0 01-15.83-9c.84.79 1.69 1.56 2.52 2.36 6.38 6.06 10.07 6.44 17.4 1.5a96.12 96.12 0 007.72-5.91c3.86-3.25 7.47-6.81 11.45-9.91 3.38-2.65 6.84-5.72 10.78-7 7.44-2.45 15.21-4.4 23-.8a52.41 52.41 0 006.74 1.94zM158 45.33c3.79-2.65 7.51-5.41 11.38-7.94a104.07 104.07 0 0125.15-12.47c1.47-.47 3.24 0 4.87 0-.93 1.26-1.61 3-2.86 3.68a118.59 118.59 0 01-11.13 5.51c-8 3.56-16.12 7-24.18 10.5-1 .42-1.88.93-2.82 1.4zM121.54 46c-4.5-2.25-8.92-4.7-13.54-6.68-6.63-2.84-13.45-5.22-20-8.07a34.66 34.66 0 01-6.62-4.34c-.52-.39-.57-1.39-.84-2.12.69-.17 1.47-.66 2-.48a118.6 118.6 0 0111.46 4 128.59 128.59 0 0126.12 15.83c.58.44 1.11 1 1.66 1.44zM53 88.91a7.15 7.15 0 011.23.38l1 .48v1.14H46v-1.14a8.43 8.43 0 011.26-.56 10.59 10.59 0 011.2-.31v-17a9 9 0 01-2.46-.85v-1.14h4.54l1.61-.07 1.71-.09h1.68a11.66 11.66 0 013 .38A7 7 0 0161 71.18a5.17 5.17 0 011.56 1.88 5.93 5.93 0 01.56 2.64 5.74 5.74 0 01-1 3.56 6.33 6.33 0 01-2.88 2.08q1.2 1.88 2.55 3.83c.9 1.3 1.85 2.55 2.85 3.77l1.44 1v1H61l-1.29-1a18.94 18.94 0 01-2.45-3.8Q56.21 84 55.4 81.88H53zm1.51-17.29a5.14 5.14 0 00-1.51.18v8.37h1.78a3.55 3.55 0 002.62-1.09 4.43 4.43 0 001.09-3.26 5.37 5.37 0 00-.3-1.9 3.58 3.58 0 00-.85-1.31 3.32 3.32 0 00-1.34-.75 4.9 4.9 0 00-1.52-.24zM76.88 90.91h-9.36v-1.14A7.73 7.73 0 0170 88.9v-17a6.54 6.54 0 01-1.26-.33 7.08 7.08 0 01-1.17-.54v-1.12h9.36v1.14a6.21 6.21 0 01-1.19.56 6.81 6.81 0 01-1.24.31v17a10.92 10.92 0 011.24.33 5.61 5.61 0 011.19.54zM94.28 84.61h1.23c.08.32.15.71.22 1.16s.13.93.18 1.44.09 1 .11 1.51 0 1 0 1.35a7.21 7.21 0 01-2.63.93 19 19 0 01-3.22.27 15.89 15.89 0 01-4.52-.61 8.63 8.63 0 01-3.45-2 8.86 8.86 0 01-2.2-3.34 14 14 0 01-.78-4.94 12.71 12.71 0 01.85-4.9 9.42 9.42 0 012.3-3.38 8.93 8.93 0 013.34-1.93 13 13 0 014-.62 21.59 21.59 0 013.58.28 11.08 11.08 0 012.71.77v1.23c0 .5-.08 1-.15 1.58s-.15 1.09-.24 1.62-.17 1-.25 1.33H94l-1.65-4.53a2.74 2.74 0 00-.87-.24 8.28 8.28 0 00-1.23-.09A5.48 5.48 0 0088 72a5.15 5.15 0 00-2 1.57 8.11 8.11 0 00-1.32 2.77 15.15 15.15 0 00-.48 4.07A11 11 0 0085.94 87a5.48 5.48 0 004.65 2.31 6.42 6.42 0 001.41-.12 1.6 1.6 0 00.8-.38zM114.32 69.91q-.06 1.35-.21 2.79t-.39 2.7h-1.23l-1.38-3.54h-5.61v7.35h3.66l1.32-2.31h1a32.42 32.42 0 01.15 3.27q0 1.8-.15 3.36h-1l-1.32-2.37h-3.66V89h5.85l1.59-3.81h1.23q.12.57.24 1.29c.08.48.14 1 .19 1.48s.09 1 .12 1.55 0 1 0 1.44H98.54v-1.18a10.2 10.2 0 011.14-.51 7.13 7.13 0 011.32-.36v-17a12.94 12.94 0 01-1.28-.34 6.15 6.15 0 01-1.18-.53v-1.12zM125.36 90.91v-1.14a6.66 6.66 0 011.14-.52 7.11 7.11 0 011.32-.35v-17a9.82 9.82 0 01-1.34-.38 7 7 0 01-1.12-.49v-1.12h4.74l1.56-.07 1.57-.09h1.31a14.59 14.59 0 014.66.69 9.48 9.48 0 013.48 2 8.72 8.72 0 012.19 3.27 12.26 12.26 0 01.77 4.5 13.54 13.54 0 01-.72 4.53 9.15 9.15 0 01-2.16 3.48 9.62 9.62 0 01-3.65 2.23 15 15 0 01-5.17.8c-.26 0-.61 0-1.05-.05l-1.41-.2h-2.8zm8.79-19.29h-1.08q-.54 0-.93.09v17.4a2.37 2.37 0 00.42 0h1.23a4.23 4.23 0 00.45 0 5.68 5.68 0 002.95-.72 5.92 5.92 0 002-2 8.86 8.86 0 001.14-2.88 16.44 16.44 0 00.36-3.51 13.31 13.31 0 00-.38-3.18 8.81 8.81 0 00-1.15-2.73 5.93 5.93 0 00-2-1.92 5.85 5.85 0 00-3.01-.55zM157.4 90.91H148v-1.14a7.73 7.73 0 012.43-.87v-17a6.54 6.54 0 01-1.26-.33 7.08 7.08 0 01-1.17-.54v-1.12h9.36v1.14a6.21 6.21 0 01-1.19.56 6.81 6.81 0 01-1.24.31v17a10.92 10.92 0 011.24.33 5.61 5.61 0 011.19.54zM163.31 88.42a3.33 3.33 0 00.93.62 3.75 3.75 0 001.59.28 4.26 4.26 0 002.74-.86 2.84 2.84 0 001.1-2.38 2.62 2.62 0 00-.71-1.86 7.84 7.84 0 00-1.78-1.38c-.72-.42-1.49-.84-2.31-1.25a13.18 13.18 0 01-2.31-1.45 7.38 7.38 0 01-1.79-2 5.43 5.43 0 01-.7-2.87 5.64 5.64 0 01.54-2.55 4.93 4.93 0 011.48-1.72 6.53 6.53 0 012.24-1 10.77 10.77 0 012.79-.35 21.25 21.25 0 013.4.26 12.13 12.13 0 012.84.79c0 .4-.06.86-.11 1.38s-.11 1-.19 1.55-.17 1-.26 1.43-.17.83-.25 1.13h-1.23L169.93 72a4.73 4.73 0 00-1.07-.33 7 7 0 00-1.46-.15 3.45 3.45 0 00-2.14.66 2.26 2.26 0 00-.87 1.92 2.79 2.79 0 00.72 1.94 8.39 8.39 0 001.8 1.45c.73.44 1.51.88 2.37 1.31a14.47 14.47 0 012.36 1.48 7.83 7.83 0 011.8 2 5 5 0 01.73 2.77 5.61 5.61 0 01-2 4.63c-1.35 1.1-3.33 1.64-5.95 1.64a15.91 15.91 0 01-1.94-.12 16.32 16.32 0 01-1.84-.33 15.62 15.62 0 01-1.55-.45 3.4 3.4 0 01-1-.51 14 14 0 01.15-1.48c.08-.53.16-1.06.25-1.59s.19-1 .29-1.52.2-.9.3-1.26h1.23zM185.33 90.91h-9.09v-1.14a9.78 9.78 0 012.46-.87v-17a7.55 7.55 0 01-1.38-.36 5.48 5.48 0 01-1.08-.51v-1.12h9.09v1.14a6.41 6.41 0 01-1 .54 4.62 4.62 0 01-1.12.33v7.26h8v-7.26a5 5 0 01-1.19-.36 6.84 6.84 0 01-.94-.51v-1.14h9.09v1.14a4.85 4.85 0 01-1.17.54 11.12 11.12 0 01-1.29.33v17a7.46 7.46 0 011.33.36 8.06 8.06 0 011.13.51v1.14H189v-1.16a9.13 9.13 0 011-.51 5.41 5.41 0 011.14-.36v-7.77h-8v7.77a5.85 5.85 0 012.13.87zM215.39 69.91q-.06 1.35-.21 2.79t-.39 2.7h-1.23l-1.38-3.54h-5.61v7.35h3.66l1.32-2.31h1a32.42 32.42 0 01.15 3.27q0 1.8-.15 3.36h-1l-1.32-2.37h-3.66V89h5.85l1.58-3.85h1.23q.12.57.24 1.29c.08.48.14 1 .19 1.48s.09 1 .12 1.55.05 1 .05 1.44h-16.22v-1.14a10.2 10.2 0 011.14-.51 7.13 7.13 0 011.32-.36v-17a12.94 12.94 0 01-1.28-.34 6.15 6.15 0 01-1.18-.53v-1.12zM222.13 88.42a3.4 3.4 0 00.94.62 3.72 3.72 0 001.59.28 4.27 4.27 0 002.74-.86 2.84 2.84 0 001.1-2.38 2.62 2.62 0 00-.71-1.86 7.9 7.9 0 00-1.79-1.38c-.71-.42-1.49-.84-2.3-1.25a13.64 13.64 0 01-2.32-1.45 7.51 7.51 0 01-1.78-2 5.43 5.43 0 01-.7-2.87 5.77 5.77 0 01.53-2.55 5 5 0 011.49-1.72 6.44 6.44 0 012.24-1 10.66 10.66 0 012.79-.35 21.25 21.25 0 013.4.26 12 12 0 012.83.79c0 .4-.05.86-.1 1.38s-.12 1-.2 1.55-.16 1-.25 1.43-.17.83-.25 1.13h-1.23L228.76 72a4.73 4.73 0 00-1.07-.33 7 7 0 00-1.46-.15 3.43 3.43 0 00-2.14.66 2.27 2.27 0 00-.88 1.92 2.8 2.8 0 00.73 1.94 8.39 8.39 0 001.8 1.45c.72.44 1.51.88 2.37 1.31a14.47 14.47 0 012.36 1.48 7.83 7.83 0 011.8 2A5 5 0 01233 85a5.61 5.61 0 01-2 4.63c-1.35 1.1-3.34 1.64-6 1.64a16.49 16.49 0 01-3.77-.45 14.87 14.87 0 01-1.55-.45 3.61 3.61 0 01-1-.51c0-.46.07-1 .15-1.48s.17-1.06.26-1.59.18-1 .29-1.52.2-.9.29-1.26h1.24zM132.77 124.39a3.64 3.64 0 01-.77 1 5.37 5.37 0 01-1.29.94 8.49 8.49 0 01-1.77.66 9.29 9.29 0 01-2.17.25 9.13 9.13 0 01-3.3-.56 6.09 6.09 0 01-2.4-1.59 6.78 6.78 0 01-1.46-2.47 9.93 9.93 0 01-.49-3.24 7.92 7.92 0 012-5.85 7.54 7.54 0 015.58-2 9.46 9.46 0 012.86.42 5 5 0 012.22 1.38 5.33 5.33 0 011.23 2.52 10 10 0 010 3.81h-9.21a5.8 5.8 0 001.21 3.78 4.32 4.32 0 003.5 1.41 7.53 7.53 0 002.05-.3 4.72 4.72 0 001.67-.78zm-6.2-11.13a2.54 2.54 0 00-1.06.21 1.89 1.89 0 00-.8.77 4.63 4.63 0 00-.55 1.5 15.77 15.77 0 00-.3 2.38h4.8a8.4 8.4 0 00-.27-3.6 1.8 1.8 0 00-1.82-1.26zM134.84 112.66a8 8 0 012.4-1v-2.43a5.78 5.78 0 011.18-.52 12.79 12.79 0 012.12-.56h1v3.81h4v2h-4v7.73a5 5 0 00.46 2.56 1.71 1.71 0 001.55.72 9.07 9.07 0 001.21-.08 4.86 4.86 0 001.25-.28l.21 1a3.87 3.87 0 01-.8.57 9.64 9.64 0 01-1.2.57 9.76 9.76 0 01-1.47.45 7.47 7.47 0 01-1.66.18 3.81 3.81 0 01-2.91-1 4.66 4.66 0 01-1-3.28v-9.11h-2.4zM160.55 124.48a3 3 0 01-.69 1.1 5.28 5.28 0 01-1.16.88 5.81 5.81 0 01-1.53.6 7.42 7.42 0 01-1.78.21 9.4 9.4 0 01-3.41-.56 5.84 5.84 0 01-2.35-1.59 6.43 6.43 0 01-1.38-2.49 10.8 10.8 0 01-.45-3.22 7.74 7.74 0 012.08-5.83 8.17 8.17 0 015.93-2 10.87 10.87 0 012.7.32 9.73 9.73 0 012 .73c0 .34-.1.72-.17 1.13s-.15.82-.24 1.23-.19.81-.31 1.2a8.5 8.5 0 01-.36 1H158l-1.26-3.57a1.91 1.91 0 00-.45-.23 3.08 3.08 0 00-.72-.07 3.13 3.13 0 00-1.35.28 2.49 2.49 0 00-1 1 5.45 5.45 0 00-.6 1.83 17.18 17.18 0 00-.19 2.82 9 9 0 00.27 2.27 5.4 5.4 0 00.82 1.8 4 4 0 001.4 1.2 4.25 4.25 0 002 .43 5.09 5.09 0 001.83-.3 5.15 5.15 0 001.32-.72z"/></svg>