<?xml version="1.0" encoding="utf-8"?>
<!-- Generator: Adobe Illustrator 23.1.0, SVG Export Plug-In . SVG Version: 6.00 Build 0)  -->
<svg version="1.1" id="Layer_1" xmlns="http://www.w3.org/2000/svg" xmlns:xlink="http://www.w3.org/1999/xlink" x="0px" y="0px"
	 viewBox="0 0 580 289" style="enable-background:new 0 0 580 289;" xml:space="preserve">
<style type="text/css">
	.st0{fill:#007BFF;}
	.st1{fill:#C73D13;}
	.st2{fill:#FFFFFF;}
</style>
<title>Artboard 1</title>
<path class="st0" d="M0,0h580v289H0V0z"/>
<g>
	<g id="fax">
		<path class="st1" d="M194,158.2h12.7c9.4,0,15.1,5.8,15.1,15.2c0,16.7,0,33.5,0,50.2c0,8.9-5.9,14.8-14.8,14.8h-96.8
			c-9,0-14.9-5.9-14.9-14.9c0-16.8,0-33.7,0-50.5c0-8.8,5.8-14.7,14.7-14.8c3.2,0,6.5,0,10,0V93.5h2c14.2,0,28.4,0,42.7,0
			c1.1-0.1,2.1,0.4,2.9,1.2c8.4,8.5,16.9,16.9,25.4,25.3c0.9,0.8,1.3,1.9,1.3,3c-0.1,11,0,22,0,33L194,158.2z M187.8,124.2h-24.7
			V99.8h-36.8v64.5h61.5V124.2z M113.8,195.2c3.4,0,6.2-2.8,6.2-6.2s-2.8-6.2-6.2-6.2l0,0c-3.4,0-6.2,2.8-6.2,6.2
			S110.4,195.2,113.8,195.2z M113.8,201.4c-3.4,0-6.2,2.8-6.2,6.2c0,3.4,2.8,6.2,6.2,6.2c3.4,0,6.1-2.7,6.2-6.1
			C120,204.2,117.3,201.5,113.8,201.4C113.9,201.4,113.9,201.4,113.8,201.4L113.8,201.4z"/>
		<path class="st1" d="M92.3,200.1c0,7.2,0,14.4,0,21.6c0,4.7-2.8,7.5-7.6,7.6c-2.3,0-4.7,0-7,0c-3.7,0.1-6.9-2.8-7-6.5
			c0-0.1,0-0.2,0-0.4c0-15,0-29.9,0-44.8c0-3.7,3-6.8,6.7-6.9c0.1,0,0.1,0,0.2,0c2.5,0,5,0,7.5,0c3.8-0.2,7,2.7,7.2,6.5
			c0,0.2,0,0.5,0,0.7C92.3,185.3,92.3,192.7,92.3,200.1L92.3,200.1z"/>
		<path class="st1" d="M163.2,128.3c2.4,0,3.3,1,3.3,2.4c0,1.4-0.9,2.4-3.3,2.4h-29.6c-2,0-3.1-1.1-3.1-2.4c0-1.3,1.1-2.4,3.1-2.4
			L163.2,128.3z"/>
		<path class="st1" d="M163.2,136.5c2.4,0,3.3,1,3.3,2.4s-0.9,2.4-3.3,2.4h-29.6c-2,0-3.1-1.1-3.1-2.4s1.1-2.4,3.1-2.4L163.2,136.5z
			"/>
		<path class="st1" d="M163.2,144.6c2.4,0,3.3,1,3.3,2.4s-0.9,2.4-3.3,2.4h-29.6c-2,0-3.1-1.1-3.1-2.4s1.1-2.4,3.1-2.4L163.2,144.6z
			"/>
		<path class="st1" d="M163.2,152.8c2.4,0,3.3,1,3.3,2.4s-0.9,2.4-3.3,2.4h-29.6c-2,0-3.1-1.1-3.1-2.4s1.1-2.4,3.1-2.4L163.2,152.8z
			"/>
	</g>
	<g>
		<path class="st2" d="M67,54.8h-6.4V51h17.5v3.8h-6.5v19.1H67V54.8z"/>
		<path class="st2" d="M87.9,51h5.4l7.4,23h-4.8l-1.6-5.9h-7.4l-1.6,5.9h-4.7L87.9,51z M87.8,64.5h5.5L92.6,62c-0.7-2.4-1.3-5-2-7.5
			h-0.2c-0.6,2.5-1.3,5.1-2,7.5L87.8,64.5z"/>
		<path class="st2" d="M106.5,51h4.6v10h0.1l7.6-10h5.1l-7,9.1l8.2,13.9h-5l-6-10.3l-3,3.9v6.4h-4.6V51z"/>
		<path class="st2" d="M130.8,51h14.1v3.8h-9.5v5.3h8.1V64h-8.1v6.1h9.8v3.8h-14.4V51z"/>
		<path class="st2" d="M162,62.4c0-7.5,4.2-11.8,10.3-11.8s10.3,4.4,10.3,11.8s-4.2,12-10.3,12S162,69.8,162,62.4z M177.8,62.4
			c0-4.9-2.2-7.9-5.6-7.9c-3.4,0-5.6,2.9-5.6,7.9c0,4.9,2.2,8,5.6,8C175.6,70.4,177.8,67.3,177.8,62.4z"/>
		<path class="st2" d="M190,63.6V51h4.6V64c0,4.8,1.7,6.4,4.3,6.4c2.7,0,4.5-1.6,4.5-6.4V51h4.4v12.7c0,7.6-3.3,10.8-8.9,10.8
			C193.3,74.4,190,71.3,190,63.6z"/>
		<path class="st2" d="M220.9,54.8h-6.4V51H232v3.8h-6.5v19.1h-4.6V54.8z"/>
	</g>
	<g>
		<path class="st2" d="M258.2,103.3h2.1v-6.4h-1.7V96c0.9-0.2,1.5-0.4,2.1-0.7h1.1v8.1h1.9v1.2h-5.5V103.3z"/>
		<path class="st2" d="M268,103.7c0-0.6,0.4-1.1,1-1.1s1,0.4,1,1.1c0,0.6-0.4,1-1,1S268,104.3,268,103.7z"/>
		<path class="st2" d="M284.2,95.1c0,0.3,0,0.7-0.1,1.2c0.9-0.1,1.8-0.3,2.6-0.5l0,1.3c-0.8,0.2-1.7,0.3-2.6,0.4c0,0.5,0,1,0,1.5
			c0,0.1,0,0.3,0,0.5c0.9-0.3,1.9-0.4,2.7-0.4c1.9,0,3.4,1,3.4,2.7c0,1.5-0.9,2.6-2.8,3.1c-0.6,0.1-1.2,0.2-1.7,0.2l-0.5-1.3
			c0.5,0,1.1,0,1.6-0.1c1.1-0.2,2-0.8,2-1.9c0-1-0.9-1.6-2.1-1.6c-0.9,0-1.8,0.2-2.7,0.4c0,1.1,0.1,2.2,0.1,2.7
			c0,1.4-0.5,1.8-1.3,1.8c-1.1,0-2.9-1-2.9-2.3c0-1.1,1.3-2.3,2.9-2.9c0-0.3,0-0.5,0-0.8c0-0.5,0-0.9,0-1.4c-0.3,0-0.6,0-0.9,0
			c-0.8,0-1.3,0-1.7-0.1l0-1.2c0.7,0.1,1.2,0.1,1.7,0.1c0.3,0,0.6,0,0.9,0c0-0.6,0-1.1,0-1.3c0-0.3,0-0.8-0.1-1h1.4
			C284.3,94.3,284.2,94.8,284.2,95.1z M282.5,103.7c0.3,0,0.4-0.2,0.4-0.6c0-0.4,0-1.2,0-2c-0.9,0.5-1.6,1.1-1.6,1.7
			C281.3,103.2,282.1,103.7,282.5,103.7z M291.3,97.4l-0.6,1c-0.6-0.6-2.2-1.5-3-1.9l0.6-1C289.2,96,290.6,96.9,291.3,97.4z"/>
		<path class="st2" d="M298.7,100.3l-1.3,0.4v3.5c0,0.6-0.1,0.9-0.5,1.1c-0.4,0.2-0.9,0.2-1.7,0.2c0-0.3-0.2-0.8-0.3-1.1
			c0.5,0,1,0,1.1,0c0.2,0,0.2-0.1,0.2-0.2v-3.1l-1.5,0.5l-0.3-1.2c0.5-0.1,1.1-0.3,1.8-0.5v-2.6h-1.6v-1.1h1.6v-2.5h1.1v2.5h1.2v1.1
			h-1.2v2.2l1.2-0.4L298.7,100.3z M305,98.9v1.3h1.5v1.1H305v3c0,0.7-0.1,1-0.6,1.2c-0.4,0.2-1.1,0.2-2,0.2
			c-0.1-0.3-0.2-0.8-0.4-1.2c0.7,0,1.3,0,1.5,0c0.2,0,0.3-0.1,0.3-0.2v-3H299v-1.1h4.8v-1.3h-5v-1.1h3.3v-1.4h-2.7v-1.1h2.7v-1.5
			h1.2v1.5h2.7v1.1h-2.7v1.4h3.3v1.1H305z M300.8,101.5c0.5,0.7,1.2,1.6,1.5,2.2l-1,0.6c-0.2-0.6-0.8-1.6-1.4-2.3L300.8,101.5z"/>
		<path class="st2" d="M314.6,95.5c0,0.2-0.1,0.4-0.1,0.6c1.5-0.1,3.4-0.3,5-0.6l0,1.2c-1.5,0.2-3.5,0.5-5.2,0.5
			c-0.2,1-0.5,2-0.7,2.7c1.1-0.7,2.2-1,3.5-1c2.1,0,3.4,1.1,3.4,2.7c0,2.8-2.8,3.8-6.9,3.4l-0.4-1.3c3,0.4,5.8,0,5.8-2.1
			c0-0.9-0.7-1.6-2.2-1.6c-1.5,0-2.9,0.5-3.7,1.5c-0.1,0.2-0.3,0.4-0.4,0.6l-1.2-0.4c0.7-1.3,1.2-3.1,1.5-4.5
			c-0.9,0-1.7-0.1-2.4-0.1v-1.3c0.7,0.1,1.8,0.2,2.6,0.2c0,0,0,0,0.1,0c0-0.3,0.1-0.5,0.1-0.7c0.1-0.5,0.1-0.8,0.1-1.2l1.5,0.1
			C314.8,94.7,314.7,95.1,314.6,95.5z"/>
		<path class="st2" d="M326.8,93.7h1.1v5.2c0,2.6-0.2,5-2.2,6.7c-0.2-0.2-0.6-0.6-0.9-0.8c1.8-1.6,2-3.7,2-6V93.7z M325.8,101.3h-1
			v-6.1h1V101.3z M336,100.8h-0.9v2.8c0,0.5-0.1,0.8-0.4,0.9c-0.3,0.2-0.8,0.2-1.4,0.2c0-0.3-0.1-0.7-0.3-1c0.4,0,0.7,0,0.8,0
			c0.1,0,0.2-0.1,0.2-0.2v-1.9h-1.5v4h-1.1v-4h-1.3v3.1H329v-4h-0.8v-2.2h7.8V100.8z M335.1,98h-6.2v-0.9h5v-0.7h-4.6v-0.8h4.6v-0.7
			h-4.9V94h6V98z M331.4,100.6v-1.1h-2.1v1.1H331.4z M334.9,99.6h-2.4v1.1h2.4V99.6z"/>
		<path class="st2" d="M342.6,97.4c0.6-1.2,1.8-2.6,3.4-2.6c1.8,0,3.1,1.7,3.1,4.5c0,3.6-2.3,5.3-5.6,5.9l-0.8-1.2
			c2.8-0.4,5-1.5,5-4.7c0-2-0.7-3.4-1.9-3.4c-1.6,0-3,2.3-3.1,4.1c0,0.4,0,0.9,0.1,1.5l-1.3,0.1c-0.1-0.5-0.1-1.2-0.1-2.1
			c0-1.2,0.2-3,0.4-4.2c0.1-0.4,0.1-0.9,0.1-1.2l1.4,0.1C342.9,95,342.7,96.6,342.6,97.4z"/>
		<path class="st2" d="M358.5,95.6c1.3-0.1,2.6-0.2,3.8-0.4v1.2c-1.3,0.2-2.9,0.3-4.3,0.3c-0.3,0.6-0.6,1.2-1,1.7
			c0.4-0.2,1.2-0.4,1.7-0.4c0.8,0,1.5,0.4,1.7,1.1c0.8-0.4,1.5-0.7,2.1-0.9c0.4-0.2,0.8-0.4,1.2-0.6l0.5,1.2
			c-0.4,0.1-0.9,0.3-1.3,0.5c-0.7,0.3-1.5,0.6-2.4,1c0,0.7,0,1.8,0,2.4h-1.2c0-0.5,0-1.2,0.1-1.8c-1.1,0.6-1.8,1.2-1.8,2
			c0,0.9,0.8,1.1,2.2,1.1c1.1,0,2.5-0.1,3.6-0.3l0,1.3c-0.9,0.1-2.4,0.2-3.6,0.2c-1.9,0-3.4-0.5-3.4-2.1c0-1.6,1.6-2.6,3.1-3.4
			c-0.2-0.5-0.6-0.7-1.1-0.7c-0.8,0-1.6,0.4-2.2,0.9c-0.4,0.4-0.8,0.8-1.2,1.4l-1.1-0.8c1.5-1.4,2.4-2.7,2.9-3.8c-0.1,0-0.3,0-0.4,0
			c-0.5,0-1.4,0-2.2-0.1v-1.2c0.7,0.1,1.6,0.1,2.2,0.1c0.2,0,0.5,0,0.8,0c0.2-0.5,0.3-1.1,0.3-1.5l1.4,0.1
			C358.7,94.6,358.6,95.1,358.5,95.6z"/>
		<path class="st2" d="M370,102.2c0,0.9,0.9,1.6,2.9,1.6c1.8,0,3.4-0.2,4.5-0.5l0,1.4c-1,0.3-2.6,0.5-4.5,0.5
			c-2.8,0-4.3-0.9-4.3-2.6c0-0.7,0.1-1.3,0.3-1.8l1.3,0.1C370.1,101.3,370,101.7,370,102.2z M372.9,95.6c1.3,0,2.7-0.1,3.6-0.2v1.4
			c-0.9,0.1-2.4,0.2-3.6,0.2c-1.3,0-2.4-0.1-3.5-0.1v-1.3C370.4,95.5,371.6,95.6,372.9,95.6z M378,95.8l-0.9,0.4
			c-0.3-0.5-0.7-1.3-1-1.8l0.8-0.4C377.2,94.5,377.7,95.3,378,95.8z M379.5,95.3l-0.8,0.4c-0.3-0.6-0.7-1.3-1.1-1.8l0.8-0.4
			C378.7,94,379.2,94.8,379.5,95.3z"/>
		<path class="st2" d="M386.8,98.9c-0.3,0.5-0.7,1-1.1,1.5h2.1v-1.2h1.2v1.2h3.7v3.2c0,0.6-0.1,0.9-0.5,1c-0.4,0.2-1.1,0.2-2,0.2
			c-0.1-0.3-0.2-0.8-0.4-1c0.6,0,1.3,0,1.5,0c0.2,0,0.2-0.1,0.2-0.2v-2.1H389v4.1h-1.2v-4.1h-2.2v3.4h-1.2v-3.2
			c-0.5,0.4-1.1,0.8-1.7,1.2c-0.2-0.3-0.6-0.7-0.8-0.9c1.4-0.7,2.5-1.8,3.4-3h-3v-1.1h3.7c0.2-0.4,0.4-0.7,0.5-1.1
			c-1,0.3-2,0.5-3,0.7c-0.2-0.3-0.6-0.8-0.8-1c1.4-0.2,2.8-0.5,4.2-0.9c-1.1-0.4-2.3-0.7-3.3-1l0.8-0.7c1.2,0.3,2.7,0.7,4.1,1.2
			c1.1-0.4,2.1-0.9,2.9-1.4l1,0.7c-0.7,0.5-1.5,0.9-2.4,1.3c1.1,0.4,2,0.8,2.8,1.1l-0.9,0.9c-0.8-0.4-2-0.9-3.4-1.4
			c-0.4,0.1-0.8,0.3-1.2,0.4l0.6,0.2c-0.2,0.4-0.4,0.8-0.5,1.2h6.3v1.1H386.8z"/>
		<path class="st2" d="M398.6,96h-0.9v-1h2.5v-1.3h1.1V95h2.5v1h-4.1v2c0,0.4,0.1,0.5,0.4,0.5h2c0.3,0,0.8,0,1-0.1
			c0,0.2,0.1,0.6,0.1,0.8c1.2-1.1,1.3-2.8,1.4-5.1h4.6v0.5c-0.1,3.4-0.2,4.6-0.6,5c-0.2,0.3-0.5,0.4-0.8,0.4c-0.3,0-0.8,0-1.3,0
			c0-0.3-0.1-0.7-0.3-0.9c0.5,0,0.9,0,1.1,0s0.3,0,0.4-0.2c0.1-0.1,0.1-0.3,0.2-0.8h-2.7c-0.3,0.9-0.8,1.6-1.5,2.1
			c-0.1-0.2-0.4-0.6-0.6-0.8c-0.2,0-0.6,0-0.9,0h-2c-1.2,0-1.5-0.4-1.5-1.6V96z M409.3,104.3v1h-11.4v-1h5.1v-0.9h-3.7v-1h3.7v-0.9
			h-4.3v-1h9.9v1h-4.4v0.9h3.8v1h-3.8v0.9H409.3z M407.9,97.3c0-0.2,0-0.5,0.1-0.8h-2.5c0,0.3-0.1,0.5-0.1,0.8H407.9z M405.6,95
			c0,0.3,0,0.5,0,0.8h2.4l0-0.8H405.6z"/>
		<path class="st2" d="M419.5,105.1l-0.8-1.2c0.4,0,0.8-0.1,1.2-0.2c1.7-0.4,3.1-1.6,3.1-3.7c0-1.9-1.1-3.4-3.1-3.6
			c-0.2,1.2-0.4,2.4-0.8,3.7c-0.8,2.7-1.9,4.1-3.1,4.1s-2.5-1.4-2.5-3.6c0-2.9,2.5-5.4,5.8-5.4c3.1,0,5.1,2.2,5.1,4.9
			C424.4,102.7,422.6,104.6,419.5,105.1z M416,102.6c0.6,0,1.2-0.8,1.8-2.8c0.3-1,0.6-2.2,0.7-3.4c-2.3,0.4-3.7,2.4-3.7,4
			C414.8,101.9,415.4,102.6,416,102.6z"/>
		<path class="st2" d="M432.9,95.1c0,0.3,0,0.7-0.1,1.2c0.9-0.1,1.8-0.3,2.6-0.5l0,1.3c-0.8,0.2-1.7,0.3-2.6,0.4c0,0.5,0,1,0,1.5
			c0,0.1,0,0.3,0,0.5c0.9-0.3,1.9-0.4,2.7-0.4c1.9,0,3.4,1,3.4,2.7c0,1.5-0.9,2.6-2.8,3.1c-0.6,0.1-1.2,0.2-1.7,0.2l-0.5-1.3
			c0.5,0,1.1,0,1.6-0.1c1.1-0.2,2-0.8,2-1.9c0-1-0.9-1.6-2.1-1.6c-0.9,0-1.8,0.2-2.7,0.4c0,1.1,0.1,2.2,0.1,2.7
			c0,1.4-0.5,1.8-1.3,1.8c-1.1,0-2.9-1-2.9-2.3c0-1.1,1.3-2.3,2.9-2.9c0-0.3,0-0.5,0-0.8c0-0.5,0-0.9,0-1.4c-0.3,0-0.6,0-0.9,0
			c-0.8,0-1.3,0-1.7-0.1l0-1.2c0.7,0.1,1.2,0.1,1.7,0.1c0.3,0,0.6,0,0.9,0c0-0.6,0-1.1,0-1.3c0-0.3,0-0.8-0.1-1h1.4
			C433,94.3,433,94.8,432.9,95.1z M431.3,103.7c0.3,0,0.4-0.2,0.4-0.6c0-0.4,0-1.2,0-2c-0.9,0.5-1.6,1.1-1.6,1.7
			C430,103.2,430.8,103.7,431.3,103.7z M440,97.4l-0.6,1c-0.6-0.6-2.2-1.5-3-1.9l0.6-1C437.9,96,439.3,96.9,440,97.4z"/>
		<path class="st2" d="M453,97.3c-0.6,0.9-1.4,1.8-2.4,2.5c1.4,0.6,3.1,1,4.8,1.2c-0.3,0.3-0.6,0.8-0.8,1.2
			c-0.5-0.1-1.1-0.2-1.6-0.3v3.7h-1.2v-0.4H447v0.4h-1.2V102c-0.6,0.2-1.2,0.3-1.8,0.5c-0.1-0.3-0.4-0.8-0.6-1.1
			c1.7-0.3,3.4-0.8,4.9-1.5c-0.5-0.4-1.1-0.8-1.5-1.3c-0.5,0.4-1.1,0.8-1.8,1.1c-0.2-0.3-0.5-0.7-0.8-0.9c1.8-0.7,3-1.8,3.7-2.8
			l1.3,0.3c-0.2,0.2-0.3,0.4-0.5,0.7h3.4l0.2-0.1L453,97.3z M445.1,97.4h-1.2v-2.6h4.8v-1.1h1.2v1.1h4.9v2.6h-1.2v-1.5h-8.5V97.4z
			 M452.1,101.6c-1-0.3-1.9-0.6-2.7-1.1c-0.8,0.4-1.6,0.8-2.4,1.1H452.1z M451.8,104.1v-1.5H447v1.5H451.8z M447.6,97.9
			c0.5,0.5,1.1,1,1.8,1.4c0.7-0.4,1.3-0.9,1.8-1.4L447.6,97.9L447.6,97.9z"/>
		<path class="st2" d="M462.9,101.4c-0.2-0.4-0.5-1.1-0.9-1.7v5.9h-1.1v-5.5c-0.4,1.2-0.9,2.4-1.4,3.1c-0.1-0.3-0.4-0.8-0.6-1
			c0.8-1.1,1.5-3,1.9-4.6h-1.6v-1.1h1.7v-2.7h1.1v2.7h1.4v1.1H462v0.7c0.4,0.5,1.3,1.9,1.5,2.3L462.9,101.4z M466.3,103.2
			c-1,0.6-2,1.2-2.9,1.6l-0.5-1c0.8-0.4,2-1,3.1-1.6L466.3,103.2z M468.8,102.2c0.6,0.8,1.4,1.4,2.3,1.8c-0.2,0.2-0.6,0.7-0.8,1
			c-1.1-0.6-2-1.5-2.6-2.7v2c0,0.6-0.1,0.9-0.5,1.1c-0.4,0.2-1,0.2-1.8,0.2c0-0.3-0.2-0.8-0.3-1.1c0.5,0,1,0,1.2,0
			c0.2,0,0.2-0.1,0.2-0.2v-4.7h-3.2v-1h3.2v-0.8H464v-0.9h2.5v-0.7h-2.9v-1h1.5c-0.1-0.4-0.4-0.8-0.6-1.2l0.9-0.3
			c0.3,0.5,0.6,1.1,0.8,1.5l-0.1,0.1h1.9c0.2-0.4,0.5-1.1,0.7-1.6l1.2,0.3c-0.3,0.4-0.5,0.9-0.8,1.2h1.5v1h-3v0.7h2.7v0.9h-2.7v0.8
			h3.1v1h-3.1v0.5c0.2,0.5,0.4,1,0.7,1.4c0.5-0.5,1.1-1.1,1.4-1.6l0.9,0.6c-0.5,0.6-1.2,1.3-1.8,1.7L468.8,102.2z M464.6,100.1
			c0.5,0.5,1.1,1.2,1.3,1.6l-0.9,0.6c-0.2-0.5-0.8-1.2-1.3-1.7L464.6,100.1z"/>
		<path class="st2" d="M477.3,95.6c-0.2,1.1-0.6,3.8-0.6,5.1c0,0.5,0,0.9,0.1,1.4c0.2-0.5,0.5-1.2,0.7-1.7l0.6,0.5
			c-0.4,1-0.8,2.3-0.9,3c0,0.2-0.1,0.4-0.1,0.6c0,0.1,0,0.3,0,0.5l-1.2,0.1c-0.3-0.9-0.5-2.4-0.5-4.1c0-1.9,0.4-4.4,0.6-5.4
			c0-0.3,0.1-0.7,0.1-1.1l1.4,0.1C477.5,94.8,477.4,95.4,477.3,95.6z M483.9,95.3c0,0.3,0,0.9,0,1.5c0.8-0.1,1.5-0.2,2.2-0.3v1.3
			c-0.7,0.1-1.4,0.2-2.2,0.2c0,1.3,0.1,2.5,0.1,3.5c1.1,0.4,1.9,1.1,2.6,1.7l-0.7,1.1c-0.6-0.6-1.2-1.1-1.8-1.4c0,0,0,0,0,0.1
			c0,1.2-0.6,2.2-2.4,2.2c-1.8,0-2.8-0.7-2.8-2c0-1.2,1-2.1,2.8-2.1c0.4,0,0.7,0,1.1,0.1c-0.1-0.9-0.1-2-0.1-3c-0.4,0-0.7,0-1.1,0
			c-0.8,0-1.5,0-2.2-0.1l0-1.2c0.7,0.1,1.5,0.1,2.2,0.1c0.4,0,0.7,0,1.1,0v-1.5c0-0.2,0-0.6-0.1-0.8h1.5
			C483.9,94.7,483.9,95,483.9,95.3z M481.5,103.8c1,0,1.3-0.5,1.3-1.3c0-0.1,0-0.2,0-0.4c-0.4-0.1-0.8-0.2-1.2-0.2
			c-0.9,0-1.5,0.4-1.5,0.9C480,103.5,480.6,103.8,481.5,103.8z"/>
		<path class="st2" d="M495.2,97.2c-0.3,0.8-0.7,1.6-1.1,2.3h6.9v6.1h-1.3v-0.7h-5.3v0.7h-1.2v-4.7c-0.6,0.8-1.4,1.6-2.2,2.2
			c-0.2-0.3-0.5-0.7-0.8-1c1.8-1.2,3-3,3.8-5h-3.3V96h3.8c0.2-0.8,0.4-1.5,0.6-2.3l1.3,0.2c-0.2,0.7-0.3,1.4-0.6,2.1h6.3v1.2H495.2z
			 M494.4,100.6v3.1h5.3v-3.1H494.4z"/>
		<path class="st2" d="M512.1,105.1l-0.8-1.2c0.4,0,0.8-0.1,1.2-0.2c1.7-0.4,3.1-1.6,3.1-3.7c0-1.9-1.1-3.4-3.1-3.6
			c-0.2,1.2-0.4,2.4-0.8,3.7c-0.8,2.7-1.9,4.1-3.1,4.1s-2.5-1.4-2.5-3.6c0-2.9,2.5-5.4,5.8-5.4c3.1,0,5.1,2.2,5.1,4.9
			C517,102.7,515.2,104.6,512.1,105.1z M508.6,102.6c0.6,0,1.2-0.8,1.8-2.8c0.3-1,0.6-2.2,0.7-3.4c-2.3,0.4-3.7,2.4-3.7,4
			C507.4,101.9,508,102.6,508.6,102.6z"/>
		<path class="st2" d="M290.5,111.9c-0.6,0.9-1.8,2.6-3.2,3.6l-1.1-0.9c1.1-0.7,2.3-2,2.7-2.7h-7.1c-0.5,0-1,0-1.5,0.1v-1.4
			c0.5,0.1,1,0.1,1.5,0.1h7.3c0.3,0,0.9,0,1.1-0.1l0.8,0.8C290.8,111.5,290.6,111.8,290.5,111.9z M282.1,120.7l-1.2-1
			c0.4-0.1,0.8-0.3,1.2-0.6c1.9-1.2,2.2-2.8,2.2-5c0-0.4,0-0.7-0.1-1h1.5C285.7,116.5,285.5,119,282.1,120.7z"/>
		<path class="st2" d="M298.7,112.9c1.4-0.8,2.7-2,3.6-3.1l1.1,1c-1,1-2.2,2-3.5,2.8v5.4c0,0.5,0,1.2,0.1,1.5h-1.6
			c0-0.3,0.1-1,0.1-1.5v-4.5c-1.4,0.7-3.1,1.5-4.8,2l-0.6-1.3C295.3,114.7,297.3,113.8,298.7,112.9z"/>
		<path class="st2" d="M308.9,111.2h6.5c0.4,0,0.8,0,1,0c0,0.3,0,0.8,0,1.1v6.7c0,0.5,0,1.1,0.1,1.4h-1.5c0-0.2,0-0.4,0-0.7h-6.2
			c-0.5,0-1.2,0-1.6,0.1v-1.5c0.4,0,0.9,0.1,1.5,0.1h6.2v-5.8h-6.1c-0.5,0-1.2,0-1.5,0.1v-1.4C307.8,111.2,308.5,111.2,308.9,111.2z
			"/>
		<path class="st2" d="M326.2,117.4c2.1-1.3,3.7-3.2,4.5-4.9l0.8,1.4c-0.9,1.7-2.5,3.5-4.6,4.7c-1.3,0.8-3,1.6-5,1.9l-0.9-1.3
			C323.3,118.8,325,118.1,326.2,117.4z M325.8,113.2l-1,1.1c-0.7-0.7-2.3-2.1-3.2-2.8l0.9-1C323.4,111.1,325.1,112.4,325.8,113.2z"
			/>
		<path class="st2" d="M339.3,111.2c1.3-0.1,2.6-0.2,3.8-0.4v1.2c-1.3,0.2-2.9,0.3-4.3,0.3c-0.3,0.6-0.6,1.2-1,1.7
			c0.4-0.2,1.2-0.4,1.7-0.4c0.8,0,1.5,0.4,1.7,1.1c0.8-0.4,1.5-0.7,2.1-0.9c0.4-0.2,0.8-0.4,1.2-0.6l0.5,1.2
			c-0.4,0.1-0.9,0.3-1.3,0.5c-0.7,0.3-1.5,0.6-2.4,1c0,0.7,0,1.8,0,2.4h-1.2c0-0.5,0-1.2,0.1-1.8c-1.1,0.6-1.8,1.2-1.8,2
			c0,0.9,0.8,1.1,2.2,1.1c1.1,0,2.5-0.1,3.6-0.3l0,1.3c-0.9,0.1-2.4,0.2-3.6,0.2c-1.9,0-3.4-0.5-3.4-2.1c0-1.6,1.6-2.6,3.1-3.4
			c-0.2-0.5-0.6-0.7-1.1-0.7c-0.8,0-1.6,0.4-2.2,0.9c-0.4,0.4-0.8,0.8-1.2,1.4l-1.1-0.8c1.5-1.4,2.4-2.7,2.9-3.8c-0.1,0-0.3,0-0.4,0
			c-0.5,0-1.4,0-2.2-0.1v-1.2c0.7,0.1,1.6,0.1,2.2,0.1c0.2,0,0.5,0,0.8,0c0.2-0.5,0.3-1.1,0.3-1.5l1.4,0.1
			C339.5,110.2,339.4,110.7,339.3,111.2z"/>
		<path class="st2" d="M353.7,111.2c-0.1,0.1-0.1,0.2-0.2,0.3h3.1c0.4,0,0.7,0,1-0.1l1.1,0.7c-0.1,0.2-0.3,0.5-0.4,0.8
			c-0.4,1.2-1.1,3-2.3,4.4c-1.2,1.5-2.8,2.7-5.2,3.6l-1.2-1.1c2.5-0.8,4.1-1.9,5.2-3.2c1-1.1,1.7-2.7,2-3.8h-4.1
			c-0.8,1.1-1.9,2.3-3.3,3.2l-1.1-0.9c2.3-1.4,3.5-3.2,4.1-4.3c0.2-0.3,0.4-0.8,0.5-1.2l1.5,0.5
			C354.1,110.4,353.8,110.9,353.7,111.2z"/>
		<path class="st2" d="M364.3,111.3v4.4c0,0.3,0,0.8,0.1,1.1h-1.5c0-0.2,0.1-0.7,0.1-1.1v-4.4c0-0.2,0-0.7-0.1-1h1.5
			C364.4,110.6,364.3,110.9,364.3,111.3z M370.4,111.4v2.3c0,3-0.5,4.1-1.4,5.2c-0.8,1-2.2,1.6-3.1,1.9l-1.1-1.1
			c1.2-0.3,2.3-0.8,3.1-1.7c0.9-1,1.1-2.1,1.1-4.3v-2.2c0-0.5,0-0.9-0.1-1.2h1.5C370.4,110.5,370.4,110.9,370.4,111.4z"/>
		<path class="st2" d="M376.8,116.2l-1.2,0.5c-0.2-0.7-0.9-2.5-1.2-3l1.2-0.4C375.9,113.8,376.6,115.5,376.8,116.2z M383.2,114.2
			c-0.4,1.4-0.9,2.8-1.8,3.9c-1.2,1.5-2.8,2.6-4.3,3.1l-1.1-1.1c1.5-0.4,3.2-1.4,4.3-2.7c0.9-1.1,1.5-2.8,1.7-4.4l1.4,0.5
			C383.3,113.7,383.2,114,383.2,114.2z M379.7,115.4l-1.2,0.4c-0.2-0.6-0.7-2.2-1-2.9l1.2-0.4C378.9,113.1,379.5,114.8,379.7,115.4z
			"/>
		<path class="st2" d="M392,111.2c-0.1,0.1-0.1,0.2-0.2,0.3h3.1c0.4,0,0.7,0,1-0.1l1.1,0.7c-0.1,0.2-0.3,0.5-0.4,0.8
			c-0.4,1.2-1.1,3-2.3,4.4c-1.2,1.5-2.8,2.7-5.2,3.6l-1.2-1.1c2.5-0.8,4.1-1.9,5.2-3.2c1-1.1,1.7-2.7,2-3.8H391
			c-0.8,1.1-1.9,2.3-3.3,3.2l-1.1-0.9c2.3-1.4,3.5-3.2,4.1-4.3c0.2-0.3,0.4-0.8,0.5-1.2l1.5,0.5C392.4,110.4,392.1,110.9,392,111.2z
			"/>
		<path class="st2" d="M402.9,111.5c-0.1,1.4-0.2,4.4-0.2,6.2c0,1.4,0.8,1.8,2,1.8c2.3,0,3.6-1.3,4.6-2.7l0.9,1.1
			c-0.9,1.2-2.6,2.9-5.5,2.9c-2,0-3.3-0.8-3.3-3c0-1.8,0.1-5.2,0.1-6.4c0-0.5-0.1-1.1-0.1-1.5l1.7,0
			C402.9,110.4,402.9,111,402.9,111.5z"/>
		<path class="st2" d="M413.6,111.3c0.9-0.1,3.3-0.3,5.7-0.5c1.4-0.1,2.7-0.2,3.6-0.2v1.3c-0.7,0-1.8,0-2.5,0.2
			c-1.7,0.5-2.9,2.4-2.9,3.9c0,2.4,2.2,3.2,4.4,3.2l-0.5,1.4c-2.5-0.1-5.2-1.5-5.2-4.4c0-2,1.2-3.5,2.2-4.2
			c-1.3,0.1-4.3,0.5-5.8,0.8l-0.1-1.4C412.9,111.4,413.4,111.3,413.6,111.3z"/>
		<path class="st2" d="M429.4,111.2v8.2c0,0.7-0.1,1-0.5,1.2c-0.4,0.2-1.1,0.2-2.1,0.2c-0.1-0.3-0.2-0.8-0.4-1.2c0.7,0,1.4,0,1.6,0
			c0.2,0,0.3-0.1,0.3-0.3v-8.2h-1.9V110h4.6v1.1H429.4z M434,119.5c-0.8,0.7-2.2,1.3-3.3,1.7c-0.2-0.2-0.5-0.6-0.7-0.8
			c1.1-0.4,2.4-1,3-1.5L434,119.5z M433.6,111.9c0.1-0.4,0.2-0.7,0.2-1.1h-2.8v-1h7.1v1h-3c-0.1,0.4-0.3,0.8-0.4,1.1h2.9v6.7h-6.2
			v-6.7H433.6z M436.6,112.8h-3.9v1.1h3.9V112.8z M436.6,114.8h-3.9v1.1h3.9V114.8z M436.6,116.7h-3.9v1.1h3.9V116.7z M435.9,118.8
			c0.8,0.4,2,1.1,2.6,1.6l-1,0.7c-0.5-0.5-1.7-1.2-2.5-1.7L435.9,118.8z"/>
		<path class="st2" d="M446.1,109.8l1.4-0.2c0.1,0.5,0.2,1,0.3,1.5c0.9-0.1,1.8-0.3,2.6-0.6l0.2,1.2c-0.7,0.2-1.6,0.4-2.5,0.5
			c0.1,0.3,0.2,0.5,0.3,0.8c0.1,0.2,0.2,0.5,0.3,0.7c1.1-0.1,1.9-0.4,2.5-0.5l0.2,1.2c-0.6,0.2-1.4,0.3-2.2,0.4
			c0.2,0.5,0.5,1,0.8,1.4c0.2,0.2,0.3,0.4,0.5,0.6l-0.7,1c-0.7-0.2-2-0.3-2.9-0.4l0.1-1c0.6,0.1,1.4,0.1,1.8,0.2
			c-0.3-0.5-0.6-1.1-0.9-1.6c-1.6,0.1-3.7,0.1-5.7,0l-0.1-1.2c2,0.2,3.8,0.2,5.3,0.1c-0.1-0.2-0.2-0.4-0.2-0.6
			c-0.1-0.3-0.2-0.6-0.3-0.9c-1.2,0.1-2.8,0.1-4.4-0.1l-0.1-1.2c1.5,0.2,3,0.2,4.2,0.2c0,0,0-0.1,0-0.1
			C446.4,110.7,446.2,110.3,446.1,109.8z M443.7,118.1c0,1,0.9,1.5,2.8,1.5c1.2,0,2.2-0.1,3.2-0.3l-0.1,1.3c-0.9,0.1-2,0.2-3.1,0.2
			c-2.6,0-4.1-0.8-4.1-2.5c0-0.8,0.2-1.4,0.5-2l1.3,0.2C443.9,117.1,443.7,117.5,443.7,118.1z"/>
		<path class="st2" d="M453.6,118.1l1.1-0.9c0.9,0.8,2.1,2,2.9,2.9l-1.1,0.9C455.6,120,454.5,118.8,453.6,118.1z"/>
		<path class="st2" d="M462.7,110.6h5.7v1.3h-4.2v2.9h3.5v1.3h-3.5v4.1h-1.5V110.6z"/>
		<path class="st2" d="M473.3,110.6h1.7l3.2,9.6h-1.6l-0.8-2.7h-3.3l-0.8,2.7h-1.5L473.3,110.6z M472.9,116.2h2.6l-0.4-1.3
			c-0.3-1-0.6-2.1-0.9-3.2h-0.1c-0.3,1.1-0.6,2.1-0.9,3.2L472.9,116.2z"/>
		<path class="st2" d="M483.1,115.2l-2.6-4.6h1.7l1.2,2.2c0.2,0.4,0.4,0.9,0.7,1.4h0.1c0.2-0.6,0.4-1,0.7-1.4l1.1-2.2h1.6l-2.6,4.7
			l2.8,4.9h-1.7l-1.3-2.4c-0.2-0.5-0.5-1-0.8-1.6h-0.1c-0.3,0.6-0.5,1.1-0.7,1.6l-1.2,2.4h-1.6L483.1,115.2z"/>
		<path class="st2" d="M501.4,119.7c0,0.7-0.2,1.1-0.6,1.2c-0.5,0.2-1.2,0.2-2.4,0.2c-0.1-0.3-0.2-0.9-0.4-1.2c0.8,0,1.7,0,1.9,0
			c0.2,0,0.3-0.1,0.3-0.3v-2.3H497v3.7h-1.2v-3.7h-3c-0.2,1.4-0.7,2.9-1.6,3.9c-0.2-0.2-0.7-0.7-0.9-0.8c1.4-1.6,1.5-3.9,1.5-5.7
			v-4.6h9.6V119.7z M495.8,116.2v-1.9H493v0.5c0,0.4,0,0.9-0.1,1.4H495.8z M493,111.3v1.8h2.8v-1.8H493z M500.2,111.3H497v1.8h3.1
			V111.3z M500.2,116.2v-1.9H497v1.9H500.2z"/>
		<path class="st2" d="M506.9,116.9c-0.2,1.2-0.4,2.5-0.8,3.3c-0.2-0.1-0.7-0.4-0.9-0.4c0.4-0.8,0.6-1.9,0.7-3L506.9,116.9z
			 M508.4,115.8v5.4h-1.1v-5.3c-0.7,0.1-1.4,0.1-2,0.2l-0.2-1.1c0.3,0,0.7,0,1-0.1c0.2-0.3,0.5-0.6,0.7-0.9
			c-0.4-0.6-1.1-1.3-1.7-1.8l0.6-0.8c0.1,0.1,0.2,0.2,0.4,0.3c0.4-0.7,0.8-1.7,1.1-2.4l1.1,0.4c-0.5,0.9-1,1.9-1.5,2.6
			c0.2,0.3,0.5,0.5,0.6,0.8c0.5-0.8,1-1.6,1.3-2.3l1,0.5c-0.7,1.1-1.7,2.5-2.5,3.6l1.7-0.1c-0.2-0.3-0.4-0.7-0.6-1l0.9-0.4
			c0.6,0.8,1.1,1.9,1.4,2.6l-0.9,0.5c-0.1-0.2-0.2-0.5-0.3-0.8L508.4,115.8z M509.7,116.6c0.4,0.7,0.7,1.7,0.8,2.3l-1,0.3
			c-0.1-0.6-0.5-1.6-0.8-2.4L509.7,116.6z M515,115.2c0.2,2.6,0.5,4.5,1.2,4.7c0.2,0.1,0.3-0.7,0.4-1.8c0.2,0.2,0.6,0.5,0.9,0.7
			c-0.2,2.1-1,2.7-1.8,2.2c-1.1-0.4-1.5-2.7-1.7-5.8H512v4.2c0.7-0.1,1.5-0.3,2.2-0.5l0.2,1c-1.4,0.4-2.9,0.7-4,1l-0.4-1.1
			c0.3-0.1,0.6-0.1,1-0.2v-9.4l0.6,0.2c1.6-0.3,3.3-0.8,4.4-1.2l0.9,0.9c-0.6,0.2-1.2,0.4-1.9,0.6c0,1.1,0,2.2,0.1,3.3h2.3v1.2H515z
			 M513.8,114.1c0-0.9-0.1-2-0.1-3c-0.6,0.1-1.2,0.2-1.7,0.3v2.7H513.8z"/>
		<path class="st2" d="M284.8,126.8c1.3-0.1,2.6-0.2,3.8-0.4v1.2c-1.3,0.2-2.9,0.3-4.3,0.3c-0.3,0.6-0.6,1.2-1,1.7
			c0.4-0.2,1.2-0.4,1.7-0.4c0.8,0,1.5,0.4,1.7,1.1c0.8-0.4,1.5-0.7,2.1-0.9c0.4-0.2,0.8-0.4,1.2-0.6l0.5,1.2
			c-0.4,0.1-0.9,0.3-1.3,0.5c-0.7,0.3-1.5,0.6-2.4,1c0,0.7,0,1.8,0,2.4h-1.2c0-0.5,0-1.2,0.1-1.8c-1.1,0.6-1.8,1.2-1.8,2
			c0,0.9,0.8,1.1,2.2,1.1c1.1,0,2.5-0.1,3.6-0.3l0,1.3c-0.9,0.1-2.4,0.2-3.6,0.2c-1.9,0-3.4-0.5-3.4-2.1c0-1.6,1.6-2.6,3.1-3.4
			c-0.2-0.5-0.6-0.7-1.1-0.7c-0.8,0-1.6,0.4-2.2,0.9c-0.4,0.4-0.8,0.8-1.2,1.4l-1.1-0.8c1.5-1.4,2.4-2.7,2.9-3.8c-0.1,0-0.3,0-0.4,0
			c-0.5,0-1.4,0-2.2-0.1v-1.2c0.7,0.1,1.6,0.1,2.2,0.1c0.2,0,0.5,0,0.8,0c0.2-0.5,0.3-1.1,0.3-1.5l1.4,0.1
			C285.1,125.8,285,126.3,284.8,126.8z"/>
		<path class="st2" d="M304.7,127l-0.7,0.3l0.8,0.5c-0.1,0.2-0.3,0.5-0.4,0.8c-0.4,1.1-1,2.6-2,3.9c0.6,0.4,1.1,0.8,1.5,1.1l-1,1.2
			c-0.4-0.3-0.9-0.7-1.4-1.2c-1.2,1.2-2.7,2.4-4.8,3.2l-1.2-1c2.2-0.7,3.8-1.8,4.9-3c-0.9-0.7-1.8-1.3-2.6-1.8l0.9-0.9
			c0.8,0.5,1.7,1,2.6,1.6c0.8-1.1,1.4-2.3,1.6-3.3h-4.1c-0.9,1.2-2,2.4-3.4,3.4l-1.1-0.8c2.2-1.4,3.5-3.3,4.1-4.4
			c0.2-0.3,0.4-0.8,0.5-1.2l1.5,0.5c-0.3,0.4-0.5,0.9-0.7,1.2c-0.1,0.1-0.1,0.2-0.1,0.3h3.1c0.4,0,0.7,0,1-0.1l0.1,0
			c-0.3-0.5-0.6-1.2-0.9-1.6l0.8-0.4C303.9,125.7,304.4,126.5,304.7,127z M306.2,126.4l-0.8,0.4c-0.3-0.5-0.7-1.3-1.1-1.8l0.8-0.4
			C305.4,125.1,305.9,125.9,306.2,126.4z"/>
		<path class="st2" d="M314.9,126.3v1.1h2.6c0.5,0,0.8-0.1,1-0.1l0.9,0.6c-0.1,0.2-0.2,0.6-0.2,0.9c-0.2,1.1-0.6,2.6-1.2,3.8
			c-1,1.8-2.9,3.1-5.2,3.8l-1.1-1.2c0.5-0.1,1.1-0.2,1.6-0.4c1.2-0.4,2.5-1.3,3.3-2.4c0.7-1,1.1-2.5,1.2-3.6h-6.9v2.1
			c0,0.3,0,0.6,0.1,0.9h-1.4c0-0.3,0.1-0.6,0.1-0.9v-2.3c0-0.3,0-0.8-0.1-1.1c0.4,0,0.8,0.1,1.3,0.1h2.8v-1.1c0-0.3,0-0.6-0.1-1.1
			h1.6C315,125.7,314.9,126,314.9,126.3z"/>
		<path class="st2" d="M328.6,133c2.1-1.3,3.7-3.2,4.5-4.9l0.8,1.4c-0.9,1.7-2.5,3.5-4.6,4.7c-1.3,0.8-3,1.6-5,1.9l-0.9-1.3
			C325.7,134.4,327.4,133.7,328.6,133z M328.2,128.8l-1,1.1c-0.7-0.7-2.3-2.1-3.2-2.8l0.9-1C325.8,126.7,327.5,128,328.2,128.8z"/>
		<path class="st2" d="M339.6,126.7h7.1c0.3,0,0.8,0,1.2,0c0,0.4,0,0.8,0,1.1v6.4c0,0.5,0,1.6,0,1.7h-1.4c0-0.1,0-0.4,0-0.7h-6.7
			c0,0.4,0,0.7,0,0.7h-1.4c0-0.1,0-1.2,0-1.7v-6.4c0-0.3,0-0.8,0-1.1C338.8,126.7,339.2,126.7,339.6,126.7z M339.7,133.9h6.7V128
			h-6.7V133.9z"/>
		<path class="st2" d="M355.1,130h7.1c0.6,0,1.1-0.1,1.5-0.1v1.6c-0.3,0-0.9-0.1-1.5-0.1h-7.1c-0.7,0-1.5,0-1.9,0.1V130
			C353.6,130,354.4,130,355.1,130z"/>
		<path class="st2" d="M369.7,127.2c0-0.4,0-1-0.1-1.5h1.6c0,0.4-0.1,1-0.1,1.5c0,0.5,0,1.2,0,2c1.7,0.5,4.2,1.4,5.5,2.1l-0.6,1.4
			c-1.4-0.7-3.5-1.5-4.9-2c0,1.8,0,3.6,0,4c0,0.4,0,1.2,0.1,1.7h-1.6c0.1-0.5,0.1-1.2,0.1-1.7V127.2z M375.7,128.2l-0.9,0.4
			c-0.3-0.7-0.7-1.4-1.1-2l0.9-0.4C374.9,126.8,375.4,127.6,375.7,128.2z M377.4,127.5l-0.9,0.4c-0.4-0.7-0.7-1.3-1.2-2l0.9-0.4
			C376.5,126.1,377.1,126.9,377.4,127.5z"/>
		<path class="st2" d="M257.7,166.1c2.7-2.6,4.3-4.3,4.3-5.7c0-1-0.5-1.7-1.6-1.7c-0.8,0-1.4,0.5-1.9,1.1l-0.8-0.8
			c0.8-0.9,1.7-1.4,2.9-1.4c1.8,0,2.9,1.1,2.9,2.8c0,1.7-1.5,3.4-3.5,5.5c0.5-0.1,1.1-0.1,1.6-0.1h2.4v1.3h-6.2V166.1z"/>
		<path class="st2" d="M268,166.1c0-0.6,0.4-1.1,1-1.1s1,0.4,1,1.1c0,0.6-0.4,1-1,1S268,166.7,268,166.1z"/>
		<path class="st2" d="M282.1,160.1c-0.3,1.5-0.7,3.3-1.4,4.4l-1.2-0.5c0.7-1.1,1.2-2.8,1.4-4.3L282.1,160.1z M287.4,166.7
			c0.7,0,0.8-0.4,0.9-2.4c0.3,0.2,0.8,0.4,1.2,0.5c-0.2,2.3-0.5,3-2,3H285c-1.5,0-2-0.4-2-2v-0.2c-0.8,0.6-1.7,1.1-2.7,1.6
			c-0.2-0.3-0.5-0.7-0.8-0.9c1.2-0.6,2.4-1.3,3.5-2.1v-5.2h1.3v4.1c2.1-1.9,3.8-4.2,4.9-6.4l1.2,0.5c-1.4,2.7-3.5,5.4-6.1,7.5v1.1
			c0,0.6,0.1,0.7,0.8,0.7H287.4z M286.3,159.4c-0.7-0.6-2.1-1.7-3.2-2.4l0.8-0.9c1.1,0.7,2.4,1.7,3.2,2.3L286.3,159.4z M289.6,160.4
			c0.8,1.2,1.7,2.9,2,4l-1.2,0.6c-0.3-1.1-1.1-2.8-2-4.1L289.6,160.4z"/>
		<path class="st2" d="M304.9,164c-0.4,0.8-0.8,1.4-1.4,1.9c1.4,0.4,2.6,0.8,3.5,1.1l-0.7,1c-1.1-0.4-2.4-0.9-4-1.3
			c-1.5,0.7-3.4,1.1-5.9,1.3c-0.1-0.4-0.3-0.8-0.5-1.1c1.9-0.1,3.4-0.3,4.7-0.7c-0.6-0.2-1.2-0.3-1.9-0.4l-0.2,0.3l-1.2-0.4
			c0.4-0.5,0.8-1.1,1.2-1.7h-2.9v-1h3.5c0.2-0.4,0.5-0.7,0.7-1h-3.3v-3.5h2.8v-0.9h-3.5v-1.1h11.1v1.1h-3.6v0.9h3.1v3.5H301l0.2,0.1
			c-0.2,0.3-0.4,0.6-0.6,1h6.8v1H304.9z M297.7,161h1.7v-1.5h-1.7V161z M299.9,164c-0.2,0.3-0.4,0.6-0.6,0.9
			c0.9,0.2,1.9,0.4,2.8,0.6c0.6-0.4,1.1-0.9,1.5-1.5H299.9z M300.5,158.6h1.8v-0.9h-1.8V158.6z M302.3,161v-1.5h-1.8v1.5H302.3z
			 M303.5,159.5v1.5h1.9v-1.5H303.5z"/>
		<path class="st2" d="M323.3,164.3H322v2.3h-1.2v-0.6H318v0.7c0,0.7-0.2,0.9-0.6,1.1c-0.4,0.2-1.1,0.2-2.2,0.2
			c-0.1-0.3-0.2-0.7-0.4-1c0.7,0,1.5,0,1.7,0c0.2,0,0.3-0.1,0.3-0.3v-0.7h-4.1v-0.9h4.1v-0.8h-5.2v-0.9h5.2v-0.7h-3.9v-0.9h3.9V161
			h-3.6v-2.4h3.6V158h-4.9v-1h4.9v-0.9h1.2v0.9h5.1v1H318v0.7h3.8v2.4H318v0.8h4v1.6h1.4V164.3z M316.8,160.2v-0.8h-2.4v0.8H316.8z
			 M318,159.4v0.8h2.6v-0.8H318z M318,163.4h2.8v-0.7H318V163.4z M320.8,164.3H318v0.8h2.8V164.3z"/>
		<path class="st2" d="M332.3,164c-1.6,0.6-3.3,1.2-4.6,1.6l-0.5-1.2c0.5-0.2,1.2-0.4,1.9-0.6v-5.2h-1.6v-1.1h4.4v1.1h-1.6v4.8
			l1.7-0.6L332.3,164z M335,166.3c-0.8,0.7-2.2,1.3-3.3,1.7c-0.2-0.2-0.5-0.6-0.8-0.8c1.1-0.4,2.4-1,3.1-1.5L335,166.3z
			 M334.8,158.8c0.1-0.4,0.2-0.8,0.2-1.1h-2.9v-1h7.3v1h-3c-0.1,0.4-0.3,0.8-0.4,1.1h2.9v6.7h-6.2v-6.7H334.8z M337.7,159.7h-3.9
			v1.1h3.9V159.7z M337.7,161.6h-3.9v1.1h3.9V161.6z M337.7,163.5h-3.9v1.1h3.9V163.5z M337,165.7c0.8,0.4,2,1.1,2.6,1.6l-1,0.7
			c-0.5-0.5-1.7-1.2-2.5-1.7L337,165.7z"/>
		<path class="st2" d="M348.4,158c1.3-0.1,2.6-0.2,3.8-0.4v1.2c-1.3,0.2-2.9,0.3-4.3,0.3c-0.3,0.6-0.6,1.2-1,1.7
			c0.4-0.2,1.2-0.4,1.7-0.4c0.8,0,1.5,0.4,1.7,1.1c0.8-0.4,1.5-0.7,2.1-0.9c0.4-0.2,0.8-0.4,1.2-0.6l0.5,1.2
			c-0.4,0.1-0.9,0.3-1.3,0.5c-0.7,0.3-1.5,0.6-2.4,1c0,0.7,0,1.8,0,2.4h-1.2c0-0.5,0-1.2,0.1-1.8c-1.1,0.6-1.8,1.2-1.8,2
			c0,0.9,0.8,1.1,2.2,1.1c1.1,0,2.5-0.1,3.6-0.3l0,1.3c-0.9,0.1-2.4,0.2-3.6,0.2c-1.9,0-3.4-0.5-3.4-2.1c0-1.6,1.6-2.6,3.1-3.4
			c-0.2-0.5-0.6-0.7-1.1-0.7c-0.8,0-1.6,0.4-2.2,0.9c-0.4,0.4-0.8,0.8-1.2,1.4l-1.1-0.8c1.5-1.4,2.4-2.7,2.9-3.8c-0.1,0-0.3,0-0.4,0
			c-0.5,0-1.4,0-2.2-0.1v-1.2c0.7,0.1,1.6,0.1,2.2,0.1c0.2,0,0.5,0,0.8,0c0.2-0.5,0.3-1.1,0.3-1.5l1.4,0.1
			C348.7,157,348.6,157.5,348.4,158z"/>
		<path class="st2" d="M358.2,158.2h5.2v1h-5.2V158.2z M362.9,167.3h-3v0.5h-1.1v-4.4h4.1V167.3z M358.8,160h4.1v0.9h-4.1V160z
			 M358.8,161.7h4.1v0.9h-4.1V161.7z M363,157.4h-4v-0.9h4V157.4z M359.9,164.4v1.9h1.9v-1.9H359.9z M368.3,166.7
			c0.6,0,0.7-0.3,0.8-2c0.3,0.2,0.8,0.4,1.1,0.5c-0.2,2.1-0.5,2.7-1.9,2.7H366c-1.4,0-1.9-0.4-1.9-1.8v-5.2h4.3v-3H364v-1.2h5.6v6
			h-1.2v-0.7h-3v4c0,0.5,0.1,0.6,0.8,0.6H368.3z"/>
		<path class="st2" d="M380.9,156.8c0,2.4,0.3,7.2,5.3,10.1c-0.3,0.2-0.8,0.7-1,1c-3-1.8-4.3-4.4-5-6.8c-1,3.1-2.6,5.4-5,6.9
			c-0.2-0.2-0.8-0.8-1.1-1c2.8-1.4,4.4-4,5.1-7.5l0.7,0.1c-0.1-0.5-0.1-1.1-0.2-1.5h-3.1v-1.2H380.9z"/>
		<path class="st2" d="M394,159.1c-0.3,0.5-0.7,1.1-1.1,1.6v7.3h-1.1v-5.9c-0.4,0.5-0.8,0.9-1.3,1.2c-0.1-0.2-0.5-0.8-0.7-1.1
			c1.1-0.8,2.3-2.1,3.1-3.5L394,159.1z M393.7,156.5c-0.8,1.1-2,2.3-3.1,3.1c-0.1-0.2-0.5-0.7-0.6-0.9c1-0.7,2.1-1.8,2.6-2.7
			L393.7,156.5z M400.9,163c-0.5,1.1-1.2,2.1-2.1,2.8c1,0.5,2.2,0.9,3.4,1.1c-0.2,0.2-0.6,0.7-0.7,1c-1.4-0.3-2.6-0.8-3.7-1.5
			c-1.1,0.7-2.5,1.2-3.9,1.5c-0.1-0.3-0.4-0.8-0.6-1c1.2-0.2,2.5-0.6,3.5-1.2c-0.5-0.4-0.9-0.9-1.3-1.4c-0.4,0.4-0.9,0.7-1.4,1
			c-0.2-0.2-0.5-0.7-0.8-0.9c1.2-0.6,2.3-1.5,3.1-2.6c-1,0-2,0.1-2.8,0.1l-0.1-1.1c0.6,0,1.2,0,2,0c0.2-0.2,0.5-0.4,0.7-0.6
			c-0.6-0.6-1.6-1.4-2.4-1.9l0.7-0.8c0.2,0.2,0.5,0.3,0.8,0.5c0.5-0.6,1.1-1.4,1.5-1.9l1.1,0.5c-0.6,0.7-1.2,1.4-1.8,2
			c0.4,0.3,0.7,0.6,1,0.8c0.8-0.8,1.6-1.7,2.2-2.4l1.1,0.6c-1,1-2.2,2.2-3.4,3.2c0.9,0,2,0,3-0.1c-0.3-0.4-0.6-0.7-0.8-1l0.9-0.5
			c0.8,0.8,1.7,2,2.1,2.8l-1,0.6c-0.1-0.3-0.3-0.6-0.5-0.9c-1,0-2,0.1-2.9,0.1c-0.2,0.3-0.4,0.6-0.6,0.9h2.8l0.2,0L400.9,163z
			 M396.3,163.7c0.4,0.6,0.9,1.1,1.5,1.5c0.6-0.4,1.1-1,1.5-1.5L396.3,163.7L396.3,163.7z"/>
		<path class="st2" d="M406,164.9l1.1-0.9c0.9,0.8,2.1,2,2.9,2.9l-1.1,0.9C408,166.8,406.9,165.6,406,164.9z"/>
		<path class="st2" d="M422.1,160.6h4.2v7.4H425v-0.5h-8.5v-1.2h8.5v-1.7h-7.8v-1.2h7.8v-1.6h-8.3v-1.2h4.1v-4.5h1.3V160.6z
			 M418,160c-0.2-0.8-0.9-2.1-1.6-3l1.1-0.4c0.7,0.9,1.4,2.1,1.7,2.9L418,160z M426.4,156.9c-0.5,1.1-1.2,2.4-1.8,3.2l-1.1-0.4
			c0.5-0.9,1.2-2.2,1.6-3.2L426.4,156.9z"/>
		<path class="st2" d="M443.2,157.6v1.2h-9.6v2.1c0,2-0.2,5-1.3,7c-0.2-0.2-0.8-0.6-1-0.7c1.1-1.8,1.1-4.5,1.1-6.3v-3.3h4.7v-1.6
			h1.3v1.6H443.2z M438.8,160.4h4.2v1.1h-4.2v1.7h3.4v4.8H441v-0.5h-5.2v0.5h-1.2v-4.8h3V159h1.2V160.4z M441,164.2h-5.2v2.2h5.2
			V164.2z"/>
		<path class="st2" d="M453.9,157.4c0,0.2,0,0.4,0,0.7c1.1-0.1,2.3-0.2,3.4-0.4v1.2c-1,0.1-2.2,0.2-3.4,0.3c0,0.6,0,1.2,0,1.6
			c1.3-0.1,2.4-0.2,3.6-0.3l0,1.2c-1.2,0.1-2.3,0.2-3.5,0.3c0,0.6,0.1,1.2,0.1,1.8c1.7,0.5,3,1.4,3.7,2L457,167
			c-0.7-0.7-1.7-1.4-2.9-1.9c0,0.3,0,0.5,0,0.7c0,1-0.7,1.9-2.4,1.9c-2,0-3-0.7-3-2c0-1.2,1.2-2.1,3.1-2.1c0.3,0,0.6,0,1,0.1
			c0-0.5,0-1-0.1-1.5c-0.2,0-0.5,0-0.7,0c-0.8,0-2.3-0.1-3.2-0.2l0-1.2c0.9,0.1,2.4,0.2,3.2,0.2c0.2,0,0.4,0,0.7,0
			c0-0.5,0-1.1,0-1.6c-0.2,0-0.4,0-0.5,0c-0.9,0-2.4-0.1-3.3-0.2l0-1.2c0.9,0.2,2.4,0.3,3.3,0.3c0.2,0,0.4,0,0.6,0
			c0-0.3,0-0.6,0-0.8c0-0.2,0-0.6-0.1-0.8h1.4C454,156.8,453.9,157.1,453.9,157.4z M451.5,166.5c0.7,0,1.3-0.2,1.3-1.1
			c0-0.2,0-0.4,0-0.7c-0.4-0.1-0.8-0.1-1.2-0.1c-1.1,0-1.7,0.4-1.7,0.9C449.9,166.1,450.4,166.5,451.5,166.5z"/>
		<path class="st2" d="M463.4,158.2c0.9-0.1,3.3-0.3,5.7-0.5c1.4-0.1,2.7-0.2,3.6-0.2v1.3c-0.7,0-1.9,0-2.5,0.2
			c-1.7,0.5-2.9,2.4-2.9,3.9c0,2.4,2.2,3.2,4.4,3.2l-0.5,1.4c-2.5-0.1-5.2-1.5-5.2-4.4c0-2,1.2-3.5,2.2-4.2
			c-1.3,0.1-4.3,0.4-5.8,0.8l-0.1-1.4C462.7,158.2,463.1,158.2,463.4,158.2z M471.8,162l-0.8,0.4c-0.3-0.7-0.7-1.3-1-1.8l0.8-0.3
			C471.1,160.7,471.6,161.4,471.8,162z M473.3,161.4l-0.8,0.4c-0.3-0.7-0.7-1.2-1.1-1.8l0.8-0.4C472.5,160.1,473,160.9,473.3,161.4z
			"/>
		<path class="st2" d="M480.1,165.2c0.6,0.9,1.6,1.3,3.1,1.4c1.4,0.1,4.3,0,6-0.1c-0.1,0.3-0.3,0.9-0.4,1.2c-1.5,0.1-4.1,0.1-5.6,0
			c-1.7-0.1-2.8-0.5-3.6-1.5c-0.6,0.5-1.2,1.1-1.9,1.6l-0.6-1.2c0.6-0.4,1.3-0.8,1.9-1.3v-3.1h-1.7v-1.1h2.8V165.2z M479.5,159.1
			c-0.4-0.6-1.4-1.5-2.2-2.1l0.9-0.7c0.8,0.6,1.8,1.4,2.2,2L479.5,159.1z M485.7,162.1c0.5,1.4,1.6,2.5,3.3,2.9
			c-0.3,0.2-0.6,0.7-0.8,1c-1.6-0.5-2.6-1.5-3.3-3c-0.5,1.1-1.4,2.1-3.3,3c-0.1-0.2-0.5-0.7-0.8-0.9c2.1-0.8,2.9-2,3.1-3h-3.2v-1.1
			h3.3v-0.2v-1.4h-2.9v-1.1h1.5c-0.2-0.6-0.6-1.3-1.1-1.9l1-0.4c0.5,0.6,1,1.5,1.2,2l-0.7,0.3h3.2l-0.7-0.3c0.4-0.6,0.9-1.5,1.1-2.1
			l1.2,0.4c-0.4,0.7-0.9,1.5-1.3,2h1.9v1.1h-3.2v1.4v0.1h3.6v1.1H485.7z"/>
		<path class="st2" d="M497.4,156.5c-0.4,0.9-0.8,1.9-1.3,2.7v8.7h-1.2v-6.8c-0.4,0.5-0.8,0.9-1.1,1.3c-0.1-0.3-0.5-0.9-0.7-1.2
			c1.3-1.2,2.5-3.1,3.2-5.1L497.4,156.5z M505,160.1h-1.5v6.3c0,0.8-0.2,1.2-0.8,1.4c-0.5,0.2-1.5,0.2-2.9,0.2
			c-0.1-0.3-0.3-0.9-0.5-1.2c1.1,0.1,2.1,0,2.4,0c0.3,0,0.4-0.1,0.4-0.4v-6.3h-5.1v-1.2h5.1v-2.7h1.2v2.7h1.5V160.1z M499.6,165
			c-0.4-0.8-1.2-2.2-1.8-3.2l1.1-0.5c0.6,1,1.5,2.3,1.9,3.1L499.6,165z"/>
		<path class="st2" d="M511.9,158.3c-0.1,1.4-0.2,4.4-0.2,6.2c0,1.4,0.8,1.8,2,1.8c2.3,0,3.6-1.3,4.6-2.7l0.9,1.1
			c-0.9,1.2-2.6,2.9-5.5,2.9c-2,0-3.3-0.8-3.3-3c0-1.8,0.1-5.2,0.1-6.4c0-0.5-0.1-1.1-0.1-1.5l1.7,0
			C512,157.2,511.9,157.8,511.9,158.3z"/>
		<path class="st2" d="M282.2,173.7c0.9-0.1,3.3-0.3,5.7-0.5c1.4-0.1,2.7-0.2,3.6-0.2v1.3c-0.7,0-1.8,0-2.5,0.2
			c-1.7,0.5-2.9,2.4-2.9,3.9c0,2.4,2.2,3.2,4.4,3.2l-0.5,1.4c-2.5-0.1-5.2-1.5-5.2-4.4c0-2,1.2-3.5,2.2-4.2
			c-1.3,0.1-4.3,0.5-5.8,0.8l-0.1-1.4C281.5,173.8,281.9,173.7,282.2,173.7z"/>
		<path class="st2" d="M299,173.6v8.2c0,0.7-0.1,1-0.5,1.2c-0.4,0.2-1.1,0.2-2.1,0.2c-0.1-0.3-0.2-0.8-0.4-1.2c0.7,0,1.4,0,1.6,0
			c0.2,0,0.3-0.1,0.3-0.3v-8.2h-2v-1.1h4.6v1.1H299z M303.6,181.9c-0.8,0.7-2.2,1.3-3.3,1.7c-0.2-0.2-0.5-0.6-0.7-0.8
			c1.1-0.4,2.4-1,3-1.5L303.6,181.9z M303.2,174.3c0.1-0.4,0.2-0.7,0.2-1.1h-2.8v-1h7.1v1h-3c-0.1,0.4-0.3,0.8-0.4,1.1h2.9v6.7h-6.2
			v-6.7H303.2z M306.2,175.2h-3.9v1.1h3.9V175.2z M306.2,177.2h-3.9v1.1h3.9V177.2z M306.2,179.1h-3.9v1.1h3.9V179.1z M305.5,181.2
			c0.8,0.4,2,1.1,2.6,1.6l-1,0.7c-0.5-0.5-1.7-1.2-2.5-1.7L305.5,181.2z"/>
		<path class="st2" d="M316.7,172.2l1.4-0.2c0.1,0.5,0.2,1,0.3,1.5c0.9-0.1,1.8-0.3,2.6-0.6l0.2,1.2c-0.7,0.2-1.6,0.4-2.5,0.5
			c0.1,0.3,0.2,0.5,0.3,0.8c0.1,0.2,0.2,0.5,0.3,0.7c1.1-0.1,1.9-0.4,2.5-0.5l0.2,1.2c-0.6,0.2-1.4,0.3-2.2,0.4
			c0.2,0.5,0.5,1,0.8,1.4c0.2,0.2,0.3,0.4,0.5,0.6l-0.6,1c-0.7-0.2-2-0.3-2.9-0.4l0.1-1c0.6,0.1,1.4,0.1,1.8,0.2
			c-0.3-0.5-0.6-1.1-0.9-1.6c-1.6,0.1-3.7,0.1-5.7,0l-0.1-1.2c2,0.2,3.8,0.2,5.3,0.1c-0.1-0.2-0.2-0.4-0.2-0.6
			c-0.1-0.3-0.2-0.6-0.3-0.9c-1.2,0.1-2.8,0.1-4.4-0.1l-0.1-1.2c1.5,0.2,3,0.2,4.2,0.2c0,0,0-0.1,0-0.1
			C317,173.1,316.8,172.7,316.7,172.2z M314.3,180.5c0,1,0.9,1.5,2.8,1.5c1.2,0,2.2-0.1,3.2-0.3l-0.1,1.3c-0.9,0.1-2,0.2-3.1,0.2
			c-2.6,0-4.1-0.8-4.1-2.5c0-0.8,0.2-1.4,0.5-2l1.3,0.2C314.5,179.5,314.3,179.9,314.3,180.5z"/>
		<path class="st2" d="M332.7,173c0,0.2,0,0.4,0,0.7c1.1-0.1,2.3-0.2,3.4-0.4v1.2c-1,0.1-2.2,0.2-3.4,0.3c0,0.6,0,1.2,0,1.6
			c1.3-0.1,2.4-0.2,3.6-0.3l0,1.2c-1.2,0.1-2.3,0.2-3.5,0.3c0,0.6,0.1,1.2,0.1,1.8c1.7,0.5,3,1.4,3.7,2l-0.8,1.2
			c-0.7-0.7-1.7-1.4-2.9-1.9c0,0.3,0,0.5,0,0.7c0,1-0.7,1.9-2.4,1.9c-2,0-3-0.7-3-2c0-1.2,1.2-2.1,3.1-2.1c0.3,0,0.6,0,1,0.1
			c0-0.5,0-1-0.1-1.5c-0.2,0-0.5,0-0.7,0c-0.8,0-2.3-0.1-3.2-0.2l0-1.2c0.9,0.1,2.4,0.2,3.2,0.2c0.2,0,0.4,0,0.7,0
			c0-0.5,0-1.1,0-1.6c-0.2,0-0.4,0-0.5,0c-0.9,0-2.4-0.1-3.3-0.2l0-1.2c0.9,0.2,2.4,0.3,3.3,0.3c0.2,0,0.4,0,0.6,0
			c0-0.3,0-0.6,0-0.8c0-0.2,0-0.6-0.1-0.8h1.4C332.8,172.4,332.7,172.7,332.7,173z M330.3,182.1c0.7,0,1.3-0.2,1.3-1.1
			c0-0.2,0-0.4,0-0.7c-0.4-0.1-0.8-0.1-1.2-0.1c-1.1,0-1.7,0.4-1.7,0.9C328.7,181.7,329.2,182.1,330.3,182.1z"/>
		<path class="st2" d="M348,173.1c0,0.2,0,0.4,0,0.7h3.9l0,1.2c-0.8,0-2-0.1-3.9-0.1c0,0.7,0,1.5,0,2c0.3,0.5,0.5,1.1,0.5,1.7
			c0,1.7-0.9,3.8-4,4.7l-1.1-1.1c1.5-0.3,2.7-0.9,3.4-1.9c-0.3,0.1-0.6,0.2-0.9,0.2c-1.1,0-2.2-0.8-2.2-2.3c0-1.4,1.1-2.3,2.4-2.3
			c0.3,0,0.5,0,0.7,0.1c0-0.3,0-0.7,0-1.1c-2,0-4.1,0.1-5.7,0.2l0-1.2c1.5,0,3.9-0.1,5.7-0.1c0-0.3,0-0.5,0-0.7
			c0-0.4-0.1-0.8-0.1-0.9h1.5C348.1,172.4,348,173,348,173.1z M346,179.4c0.7,0,1.2-0.5,1-1.8c-0.2-0.4-0.6-0.6-1-0.6
			c-0.6,0-1.2,0.4-1.2,1.2C344.8,179,345.4,179.4,346,179.4z"/>
		<path class="st2" d="M257.4,212.6l0.7-1c0.6,0.6,1.3,1.1,2.3,1.1c1.1,0,1.8-0.6,1.8-1.5c0-1-0.7-1.7-2.8-1.7v-1.1
			c1.9,0,2.5-0.7,2.5-1.6c0-0.8-0.6-1.3-1.5-1.3c-0.7,0-1.4,0.4-1.9,0.9l-0.8-0.9c0.8-0.7,1.6-1.2,2.7-1.2c1.7,0,2.9,0.9,2.9,2.4
			c0,1.1-0.6,1.8-1.7,2.2v0.1c1.1,0.3,2,1.1,2,2.3c0,1.7-1.4,2.7-3.2,2.7C259.1,213.9,258.1,213.3,257.4,212.6z"/>
		<path class="st2" d="M268,212.9c0-0.6,0.4-1.1,1-1.1s1,0.4,1,1.1c0,0.6-0.4,1-1,1S268,213.5,268,212.9z"/>
		<path class="st2" d="M289.6,209.3c-0.6,1.3-1.6,2.4-2.8,3.2c1.3,0.5,2.9,0.9,4.6,1.1c-0.3,0.3-0.6,0.8-0.7,1.1
			c-1.9-0.3-3.6-0.8-5.1-1.5c-1.5,0.8-3.3,1.2-5.1,1.5c-0.1-0.3-0.4-0.8-0.7-1.1c1.7-0.2,3.3-0.6,4.7-1.1c-0.9-0.6-1.7-1.5-2.4-2.4
			l0.2-0.1h-0.6v-1.1h6.8l0.2,0L289.6,209.3z M281.2,209.3H280v-2.7h2c-0.2-0.5-0.5-1.1-0.7-1.5l1.1-0.3c0.4,0.5,0.7,1.2,0.8,1.6
			l-0.7,0.2h2.8c-0.1-0.5-0.3-1.2-0.6-1.8l1.1-0.2c0.3,0.6,0.6,1.3,0.6,1.8l-1.1,0.3h2.6c0.4-0.6,0.8-1.5,1-2.1l1.3,0.3
			c-0.3,0.6-0.7,1.2-1.1,1.8h2v2.7H290v-1.6h-8.8V209.3z M290.5,203.8c-2.7,0.5-6.7,0.9-10.1,1c0-0.3-0.1-0.8-0.3-1
			c3.3-0.1,7.3-0.5,9.5-0.9L290.5,203.8z M283.3,210c0.6,0.8,1.3,1.4,2.3,1.9c0.9-0.5,1.6-1.1,2.2-1.9H283.3z"/>
		<path class="st2" d="M299.9,203.3c-0.4,0.9-0.8,1.9-1.3,2.7v8.7h-1.2v-6.8c-0.4,0.5-0.8,0.9-1.1,1.3c-0.1-0.3-0.5-0.9-0.7-1.2
			c1.3-1.2,2.5-3.1,3.2-5.1L299.9,203.3z M307.4,206.9h-1.5v6.3c0,0.8-0.2,1.2-0.8,1.4c-0.5,0.2-1.5,0.2-2.9,0.2
			c-0.1-0.3-0.3-0.9-0.5-1.2c1.1,0.1,2.1,0,2.4,0c0.3,0,0.4-0.1,0.4-0.4v-6.3h-5.1v-1.2h5.1V203h1.2v2.7h1.5V206.9z M302,211.8
			c-0.4-0.8-1.2-2.2-1.8-3.2l1.1-0.5c0.6,1,1.5,2.3,1.9,3.1L302,211.8z"/>
		<path class="st2" d="M321.6,213.5c0.5,0,0.5-0.2,0.6-1.6c0.3,0.2,0.8,0.4,1.1,0.5c-0.1,1.8-0.5,2.3-1.6,2.3h-1.8
			c-1.3,0-1.7-0.4-1.7-1.5v-3h-2c-0.3,2.3-1,3.9-4.1,4.8c-0.1-0.3-0.4-0.8-0.7-1.1c2.8-0.7,3.3-1.9,3.5-3.7h-3.2v-1.2h11.5v1.2h-3.7
			v3c0,0.4,0.1,0.4,0.6,0.4H321.6z M313.1,207h-1.2v-2.9h4.8v-1.3h1.3v1.3h4.8v2.9h-1.3v-1.7h-8.4V207z M313.9,207.6v-1.1h6.9v1.1
			H313.9z"/>
		<path class="st2" d="M338.4,204.4c-1.1,1.4-2.9,2.9-4.4,3.8v5c0,0.7-0.2,1.1-0.8,1.3c-0.5,0.2-1.4,0.2-2.7,0.2
			c-0.1-0.4-0.3-0.9-0.5-1.2c1,0,2,0,2.3,0c0.3,0,0.4-0.1,0.4-0.3v-6.1h0.8c0.9-0.6,1.9-1.5,2.6-2.2h-8v-1.2h9l0.3-0.1L338.4,204.4z
			"/>
		<path class="st2" d="M347.1,205.9c-0.3,0.5-0.7,1.1-1.1,1.6v7.3h-1.1v-5.9c-0.4,0.5-0.8,0.9-1.3,1.2c-0.1-0.2-0.5-0.8-0.7-1.1
			c1.1-0.8,2.3-2.1,3.1-3.5L347.1,205.9z M346.8,203.3c-0.8,1.1-2,2.3-3.1,3.1c-0.1-0.2-0.5-0.7-0.6-0.9c1-0.7,2.1-1.8,2.6-2.7
			L346.8,203.3z M354,209.8c-0.5,1.1-1.2,2.1-2.1,2.8c1,0.5,2.2,0.9,3.4,1.1c-0.2,0.2-0.6,0.7-0.7,1c-1.4-0.3-2.6-0.8-3.7-1.5
			c-1.1,0.7-2.5,1.2-3.9,1.5c-0.1-0.3-0.4-0.8-0.6-1c1.2-0.2,2.5-0.6,3.5-1.2c-0.5-0.4-0.9-0.9-1.3-1.4c-0.4,0.4-0.9,0.7-1.4,1
			c-0.2-0.2-0.5-0.7-0.8-0.9c1.2-0.6,2.3-1.5,3.1-2.6c-1,0-2,0.1-2.8,0.1l-0.1-1.1c0.6,0,1.2,0,2,0c0.2-0.2,0.5-0.4,0.7-0.6
			c-0.6-0.6-1.6-1.4-2.4-1.9l0.7-0.8c0.2,0.2,0.5,0.3,0.8,0.5c0.5-0.6,1.1-1.4,1.5-1.9l1.1,0.5c-0.6,0.7-1.2,1.4-1.8,2
			c0.4,0.3,0.7,0.6,1,0.8c0.8-0.8,1.6-1.7,2.2-2.4l1.1,0.6c-1,1-2.2,2.2-3.4,3.2c0.9,0,2,0,3-0.1c-0.3-0.4-0.6-0.7-0.8-1l0.9-0.5
			c0.8,0.8,1.7,2,2.1,2.8l-1,0.6c-0.1-0.3-0.3-0.6-0.5-0.9c-1,0-2,0.1-2.9,0.1c-0.2,0.3-0.4,0.6-0.6,0.9h2.8l0.2,0L354,209.8z
			 M349.4,210.5c0.4,0.6,0.9,1.1,1.5,1.5c0.6-0.4,1.1-1,1.5-1.5L349.4,210.5L349.4,210.5z"/>
		<path class="st2" d="M359,211.7l1.1-0.9c0.9,0.8,2.1,2,2.9,2.9l-1.1,0.9C361,213.6,359.9,212.4,359,211.7z"/>
		<path class="st2" d="M373,209.5l-1.6,0.5v3.5c0,0.6-0.1,0.9-0.5,1.1c-0.4,0.2-0.9,0.2-1.8,0.2c0-0.3-0.2-0.8-0.4-1.1
			c0.5,0,1.1,0,1.2,0c0.2,0,0.2-0.1,0.2-0.2v-3.1c-0.6,0.2-1.1,0.3-1.6,0.4l-0.3-1.2c0.5-0.1,1.2-0.3,1.9-0.5v-2.6h-1.7v-1.1h1.7
			v-2.5h1.2v2.5h1.4v1.1h-1.4v2.2c0.5-0.1,1-0.3,1.5-0.4L373,209.5z M373.6,209h6.2v5.7h-1.2v-0.5h-3.8v0.6h-1.1V209z M378.4,207
			c0.7,0,0.8-0.2,0.9-1.6c0.3,0.2,0.8,0.4,1.1,0.4c-0.2,1.8-0.5,2.2-1.9,2.2h-2.8c-1.6,0-2.1-0.4-2.1-1.6v-3.6h1.2v1.8
			c1.4-0.3,2.9-0.8,3.9-1.2l0.9,0.9c-1.3,0.5-3.1,1-4.8,1.3v0.8c0,0.5,0.2,0.5,0.9,0.5H378.4z M374.7,210v1.1h3.8V210H374.7z
			 M378.6,213.2v-1.1h-3.8v1.1H378.6z"/>
		<path class="st2" d="M390.9,213.3c0.6,0.1,1.2,0.1,1.8,0.1c0.6,0,2.7,0,3.5,0c-0.2,0.3-0.4,0.9-0.5,1.2h-3.1
			c-2.5,0-4.4-0.4-5.6-2.5c-0.4,1.1-1,2-1.8,2.7c-0.2-0.2-0.7-0.6-1-0.8c1.4-1.1,2.1-2.9,2.4-5.2l1.2,0.1c-0.1,0.6-0.2,1.2-0.3,1.7
			c0.5,1.2,1.2,1.9,2.1,2.3v-5h-3v-1.2h7.3v1.2h-3.1v1.9h3.7v1.1h-3.7V213.3z M386.1,207.2h-1.2v-3h4.8v-1.4h1.3v1.4h4.8v3h-1.2
			v-1.8h-8.4V207.2z"/>
		<path class="st2" d="M410.5,203.7v10.9h-1.3v-0.8h-6.1v0.8h-1.2v-11H410.5z M403.1,204.9v3.2h6.1v-3.2H403.1z M409.3,212.6v-3.3
			h-6.1v3.3H409.3z"/>
		<path class="st2" d="M418.8,204.9c-0.2,1.1-0.6,3.5-0.6,4.9c0,0.5,0,0.9,0.1,1.4c0.2-0.5,0.5-1.2,0.7-1.7l0.7,0.5
			c-0.3,1-0.8,2.4-0.9,3c0,0.2-0.1,0.5-0.1,0.6c0,0.1,0,0.3,0,0.5l-1.2,0.1c-0.3-0.9-0.5-2.4-0.5-4.2c0-1.9,0.4-4.1,0.6-5.2
			c0.1-0.3,0.1-0.7,0.1-1.1l1.4,0.1C419,204.1,418.8,204.7,418.8,204.9z M421.9,211.4c0,0.6,0.5,1.1,2,1.1c1.2,0,2.1-0.1,3.2-0.4
			l0,1.4c-0.8,0.2-1.9,0.3-3.3,0.3c-2.2,0-3.2-0.8-3.2-2c0-0.5,0.1-1,0.2-1.6l1.2,0.1C421.9,210.7,421.9,211.1,421.9,211.4z
			 M426.8,204.8v1.3c-1.5,0.1-3.9,0.2-5.4,0l0-1.3C422.8,205.1,425.4,205,426.8,204.8z"/>
		<path class="st2" d="M440.7,205.1c-0.2,0.5-0.5,0.9-0.7,1.2h2.7v7.1c0,0.6-0.1,1-0.6,1.2c-0.5,0.2-1.2,0.2-2.2,0.2
			c-0.1-0.3-0.2-0.8-0.4-1.2c0.8,0,1.5,0,1.8,0c0.2,0,0.3-0.1,0.3-0.3v-4.8c-0.1,0.8-0.4,1.1-1.1,1.1h-1.2c-1,0-1.2-0.3-1.2-1.2
			v-1.1h-1.3c-0.2,1.5-0.7,2.3-2.6,2.8c-0.1-0.2-0.3-0.6-0.5-0.8v5.5h-1.2v-8.5h2.4c-0.1-0.4-0.3-0.9-0.5-1.2h-2.4V204h4.9v-1.1h1.2
			v1.1h5v1.1H440.7z M433.5,209.3c1.6-0.3,2-0.8,2.1-1.9h-2.1V209.3z M436.1,213.4v0.8H435v-4h5v3.2H436.1z M438.7,206.3
			c0.2-0.4,0.4-0.8,0.6-1.2h-3.7c0.2,0.4,0.4,0.9,0.5,1.2H438.7z M436.1,211.1v1.4h2.8v-1.4H436.1z M441.5,207.3h-2.5v1.1
			c0,0.3,0,0.3,0.3,0.3h0.9c0.2,0,0.3-0.1,0.3-0.8c0.2,0.1,0.6,0.3,0.9,0.3V207.3z"/>
		<path class="st2" d="M447.9,209.1h4.7v5.6h-1.2v-0.6h-2.4v0.7h-1.1V209.1z M449.1,210.3v2.7h2.4v-2.7H449.1z M457,207.8h-7.3v-4.4
			h7.3V207.8z M455.8,204.6h-4.9v2.1h4.9V204.6z M458.9,209.1v5.6h-1.2v-0.6h-2.6v0.7h-1.2v-5.7H458.9z M457.6,213v-2.7h-2.6v2.7
			H457.6z"/>
		<path class="st2" d="M468.4,204.8c1.3-0.1,2.6-0.2,3.8-0.4v1.2c-1.3,0.2-2.9,0.3-4.3,0.3c-0.3,0.6-0.6,1.2-1,1.7
			c0.4-0.2,1.2-0.4,1.7-0.4c0.8,0,1.5,0.4,1.7,1.1c0.8-0.4,1.5-0.7,2.1-0.9c0.4-0.2,0.8-0.4,1.2-0.6l0.5,1.2
			c-0.4,0.1-0.9,0.3-1.3,0.5c-0.7,0.3-1.5,0.6-2.4,1c0,0.7,0,1.8,0,2.4h-1.2c0-0.5,0-1.2,0.1-1.8c-1.1,0.6-1.8,1.2-1.8,2
			c0,0.9,0.8,1.1,2.2,1.1c1.1,0,2.5-0.1,3.6-0.3l0,1.3c-0.9,0.1-2.4,0.2-3.6,0.2c-1.9,0-3.4-0.5-3.4-2.1c0-1.6,1.6-2.6,3.1-3.4
			c-0.2-0.5-0.6-0.7-1.1-0.7c-0.8,0-1.6,0.4-2.2,0.9c-0.4,0.4-0.8,0.8-1.2,1.4l-1.1-0.8c1.5-1.4,2.4-2.7,2.9-3.8c-0.1,0-0.3,0-0.4,0
			c-0.5,0-1.4,0-2.2-0.1v-1.2c0.7,0.1,1.6,0.1,2.2,0.1c0.2,0,0.5,0,0.8,0c0.2-0.5,0.3-1.1,0.3-1.5l1.4,0.1
			C468.6,203.8,468.5,204.3,468.4,204.8z"/>
		<path class="st2" d="M482.7,204.3c0,0.3,0,0.7-0.1,1.2c0.9-0.1,1.8-0.3,2.6-0.5l0,1.3c-0.8,0.2-1.7,0.3-2.6,0.4c0,0.5,0,1,0,1.5
			c0,0.1,0,0.3,0,0.5c0.9-0.3,1.9-0.4,2.7-0.4c1.9,0,3.4,1,3.4,2.7c0,1.5-0.9,2.6-2.8,3.1c-0.6,0.1-1.2,0.2-1.7,0.2l-0.5-1.3
			c0.5,0,1.1,0,1.6-0.1c1.1-0.2,2-0.8,2-1.9c0-1-0.9-1.6-2.1-1.6c-0.9,0-1.8,0.2-2.7,0.4c0,1.1,0.1,2.2,0.1,2.7
			c0,1.4-0.5,1.8-1.3,1.8c-1.1,0-2.9-1-2.9-2.3c0-1.1,1.3-2.3,2.9-2.9c0-0.3,0-0.5,0-0.8c0-0.5,0-0.9,0-1.4c-0.3,0-0.6,0-0.9,0
			c-0.8,0-1.3,0-1.7-0.1l0-1.2c0.7,0.1,1.2,0.1,1.7,0.1c0.3,0,0.6,0,0.9,0c0-0.6,0-1.1,0-1.3c0-0.3,0-0.8-0.1-1h1.4
			C482.8,203.5,482.8,204,482.7,204.3z M481.1,212.9c0.3,0,0.4-0.2,0.4-0.6c0-0.4,0-1.2,0-2c-0.9,0.5-1.6,1.1-1.6,1.7
			C479.8,212.4,480.6,212.9,481.1,212.9z M489.8,206.6l-0.6,1c-0.6-0.6-2.2-1.5-3-1.9l0.6-1C487.7,205.2,489.1,206.1,489.8,206.6z"
			/>
		<path class="st2" d="M499.6,209.1c0,0,0,0.4-0.1,0.5c-0.2,3-0.4,4.2-0.9,4.7c-0.3,0.3-0.6,0.4-1.1,0.5c-0.4,0.1-1.2,0-2,0
			c0-0.4-0.2-0.9-0.4-1.3c0.8,0.1,1.7,0.1,2,0.1c0.3,0,0.4,0,0.6-0.1c0.3-0.2,0.5-1.2,0.7-3.2h-3.1l-0.1,0.6l-1.2-0.2
			c0.3-1.1,0.6-2.9,0.8-4.3h3.7v-1.8h-4.1v-1.1h5.3v4.1h-3.8c-0.1,0.5-0.2,1.1-0.3,1.6H499.6z M504,203v11.8h-1.2V203H504z"/>
		<path class="st2" d="M514.2,203.4l1.4-0.2c0.1,0.5,0.2,1,0.3,1.5c0.9-0.1,1.8-0.3,2.6-0.6l0.2,1.2c-0.7,0.2-1.6,0.4-2.5,0.5
			c0.1,0.3,0.2,0.5,0.3,0.8c0.1,0.2,0.2,0.5,0.3,0.7c1.1-0.1,1.9-0.4,2.5-0.5l0.2,1.2c-0.6,0.2-1.4,0.3-2.2,0.4
			c0.2,0.5,0.5,1,0.8,1.4c0.2,0.2,0.3,0.4,0.5,0.6l-0.6,1c-0.7-0.2-2-0.3-2.9-0.4l0.1-1c0.6,0.1,1.4,0.1,1.8,0.2
			c-0.3-0.5-0.6-1.1-0.9-1.6c-1.6,0.1-3.7,0.1-5.7,0l-0.1-1.2c2,0.2,3.8,0.2,5.3,0.1c-0.1-0.2-0.2-0.4-0.2-0.6
			c-0.1-0.3-0.2-0.6-0.3-0.9c-1.2,0.1-2.8,0.1-4.4-0.1l-0.1-1.2c1.5,0.2,3,0.2,4.2,0.2c0,0,0-0.1,0-0.1
			C514.5,204.3,514.4,203.9,514.2,203.4z M511.9,211.7c0,1,0.9,1.5,2.8,1.5c1.2,0,2.2-0.1,3.2-0.3l-0.1,1.3c-0.9,0.1-2,0.2-3.1,0.2
			c-2.6,0-4.1-0.8-4.1-2.5c0-0.8,0.2-1.4,0.5-2l1.3,0.2C512.1,210.7,511.9,211.1,511.9,211.7z"/>
		<path class="st2" d="M292.5,220.3c-0.3,2.8-1,5-2,6.7c0.7,1,1.5,1.7,2.5,2.3c-0.3,0.2-0.7,0.7-0.8,1c-1-0.6-1.8-1.3-2.4-2.2
			c-0.7,0.9-1.5,1.6-2.5,2.2c-0.2-0.3-0.5-0.7-0.8-0.9v1.1h-1.2v-2.2c-1.6,0.3-3.2,0.5-4.4,0.7l-0.2-1.2c0.4,0,0.8-0.1,1.2-0.2v-7.1
			H281v-1.1h6.4v0.9h4.1l0.2,0L292.5,220.3z M283.1,220.4v1.5h2.2v-1.5H283.1z M283.1,224.5h2.2v-1.6h-2.2V224.5z M285.3,227v-1.4
			h-2.2v1.7L285.3,227z M286.5,229.2c1-0.5,1.8-1.3,2.5-2.3c-0.8-1.5-1.4-3.3-1.8-5.3l1.2-0.2c0.3,1.6,0.8,3.1,1.4,4.4
			c0.6-1.2,1.1-2.7,1.4-4.4H287v-1h-0.5V229.2z"/>
		<path class="st2" d="M299.4,222.2c0.6-1.2,1.8-2.6,3.4-2.6c1.8,0,3.1,1.7,3.1,4.5c0,3.6-2.3,5.3-5.6,5.9l-0.8-1.2
			c2.8-0.4,5-1.5,5-4.7c0-2-0.7-3.4-1.9-3.4c-1.6,0-3,2.3-3.1,4.1c0,0.4,0,0.9,0.1,1.5l-1.3,0.1c-0.1-0.5-0.1-1.2-0.1-2.1
			c0-1.2,0.2-3,0.4-4.2c0.1-0.4,0.1-0.9,0.1-1.2l1.4,0.1C299.7,219.8,299.5,221.4,299.4,222.2z"/>
		<path class="st2" d="M316.8,220.6v2.2l0.2-0.3c1.5,0.7,3.5,1.9,4.5,2.7l-0.9,1.1c-0.8-0.7-2.5-1.7-3.9-2.5v6.5h-1.3v-9.7h-4.8
			v-1.2h11.5v1.2H316.8z"/>
		<path class="st2" d="M331.7,219l1.4-0.2c0.1,0.7,0.3,1.4,0.6,2.1c0.9-0.1,2-0.3,2.8-0.6l0.2,1.3c-0.7,0.2-1.7,0.4-2.5,0.5
			c0.4,0.9,0.9,1.8,1.3,2.4c0.2,0.3,0.4,0.5,0.6,0.8l-0.7,0.9c-0.7-0.2-2.3-0.3-3.3-0.4l0.1-1.1c0.7,0.1,1.6,0.1,2.1,0.2
			c-0.5-0.7-1-1.7-1.4-2.7c-1.6,0.1-3.4,0.1-5.5,0l0-1.3c1.9,0.2,3.7,0.3,5.1,0.2c-0.1-0.4-0.2-0.7-0.3-1
			C331.9,219.9,331.8,219.4,331.7,219z M328.9,227c0,1.2,1.1,1.7,2.9,1.7c1.4,0,2.5-0.1,3.4-0.3l-0.1,1.3c-0.8,0.1-1.9,0.3-3.4,0.3
			c-2.5,0-4.2-1-4.2-2.8c0-0.8,0.2-1.5,0.6-2.3l1.3,0.3C329.2,225.9,328.9,226.4,328.9,227z"/>
		<path class="st2" d="M343,221.6c0,0.8,0,1.9,0.1,2.9c0.2,2,0.7,3.4,1.6,3.4c0.7,0,1.2-1.4,1.5-2.6l1,1.2c-0.8,2.2-1.6,3-2.6,3
			c-1.3,0-2.5-1.2-2.9-4.7c-0.1-1.1-0.1-2.7-0.1-3.5c0-0.3,0-0.9-0.1-1.2l1.6,0C343.1,220.6,343,221.2,343,221.6z M352.1,227.1
			l-1.3,0.5c-0.2-2.2-1-5.1-2.3-6.7l1.3-0.4C351,222,352,225,352.1,227.1z"/>
	</g>
</g>
</svg>
