<svg id="Layer_1" data-name="Layer 1" xmlns="http://www.w3.org/2000/svg" width="162.75" height="189" viewBox="0 0 162.75 189"><defs><style>.cls-1{fill:#fff;}</style></defs><title>Artboard 1</title><path class="cls-1" d="M127.87,59.63V48a46.5,46.5,0,0,0-93,0V59.63H0v98.81A29.06,29.06,0,0,0,29.06,187.5H133.69a29.06,29.06,0,0,0,29.06-29.06V59.63ZM58.13,48a23.25,23.25,0,1,1,46.49,0V59.63H58.13Zm58.12,43.59A8.72,8.72,0,1,1,125,82.88,8.71,8.71,0,0,1,116.25,91.59Zm-69.75,0a8.72,8.72,0,1,1,8.72-8.71A8.71,8.71,0,0,1,46.5,91.59Z"/></svg>