<svg id="Layer_1" data-name="Layer 1" xmlns="http://www.w3.org/2000/svg" width="580" height="289" viewBox="0 0 580 289"><defs><style>.cls-1{fill:#007bff;}.cls-2{fill:none;stroke:#707070;}.cls-3{isolation:isolate;}.cls-4{fill:#fff;}.cls-5{fill:#c73d13;}</style></defs><title>Artboard 1</title><path class="cls-1" d="M0,0H580V289H0Z"/><path class="cls-2" d="M.5.5h579v288H.5Z"/><g class="cls-3"><g class="cls-3"><path class="cls-4" d="M94.08,43.27H88.75V41.38h12.89v1.89H96.31V59H94.08Z"/><path class="cls-4" d="M104.23,55.61c0-2.83,2.47-4.25,8-4.87,0-1.68-.55-3.29-2.68-3.29a7.25,7.25,0,0,0-3.92,1.39l-.86-1.51a9.79,9.79,0,0,1,5.14-1.7c3.16,0,4.51,2.13,4.51,5.35v8h-1.8l-.19-1.56h-.08A7,7,0,0,1,108,59.31,3.53,3.53,0,0,1,104.23,55.61Zm8,.22V52.18c-4.39.53-5.88,1.61-5.88,3.29,0,1.49,1,2.09,2.31,2.09A5.31,5.31,0,0,0,112.24,55.83Z"/><path class="cls-4" d="M121,39.89h2.16v13h.07L128.76,46h2.44l-4.34,5.26L131.78,59H129.4l-3.81-6.29-2.45,2.85V59H121Z"/><path class="cls-4" d="M135.16,52.49c0-4.22,2.86-6.86,5.88-6.86,3.32,0,5.19,2.4,5.19,6.12a8.31,8.31,0,0,1-.1,1.25h-8.78c.14,2.78,1.85,4.56,4.32,4.56a5.6,5.6,0,0,0,3.26-1l.79,1.44a7.7,7.7,0,0,1-4.32,1.35C138,59.31,135.16,56.79,135.16,52.49Zm9.15-1.08c0-2.62-1.2-4-3.24-4-1.85,0-3.48,1.49-3.75,4Z"/><path class="cls-4" d="M150.86,52.49c0-4.34,2.86-6.86,6-6.86S163,48.15,163,52.49s-2.86,6.82-6.05,6.82S150.86,56.81,150.86,52.49Zm9.84,0c0-3-1.54-5-3.79-5s-3.77,2-3.77,5,1.51,5,3.77,5S160.7,55.49,160.7,52.49Z"/><path class="cls-4" d="M168.62,54.22V46h2.18v8c0,2.42.72,3.45,2.45,3.45,1.34,0,2.28-.65,3.53-2.21V46H179V59h-1.82L177,57h-.07a5.62,5.62,0,0,1-4.32,2.35C169.84,59.31,168.62,57.53,168.62,54.22Z"/><path class="cls-4" d="M186.14,55V47.74h-1.95V46.08l2-.12.27-3.67h1.82V46h3.53v1.78h-3.53V55c0,1.61.51,2.52,2,2.52a4.93,4.93,0,0,0,1.49-.33l.43,1.63a8.26,8.26,0,0,1-2.4.48C187.07,59.31,186.14,57.56,186.14,55Z"/></g></g><g class="cls-3"><g class="cls-3"><path class="cls-4" d="M253.14,92h2.12V85.17h-1.69v-.76a5.65,5.65,0,0,0,2-.68h.91V92h1.91v1h-5.23Z"/><path class="cls-4" d="M259.9,94.77A2,2,0,0,0,261.2,93h-.14a.81.81,0,0,1-.87-.83.84.84,0,0,1,.9-.83c.62,0,1,.53,1,1.4a2.89,2.89,0,0,1-1.9,2.72Z"/><path class="cls-4" d="M270.72,83.51c0,.31,0,.82-.05,1.4a17,17,0,0,0,2.68-.52l0,1a23.56,23.56,0,0,1-2.73.45c0,.61,0,1.24,0,1.76v.45a9.84,9.84,0,0,1,2.86-.48c1.89,0,3.26,1,3.26,2.59s-1,2.57-2.77,3a9.2,9.2,0,0,1-1.61.18l-.37-1a7.15,7.15,0,0,0,1.53-.09c1.14-.22,2.18-.83,2.18-2s-1-1.7-2.24-1.7a8.37,8.37,0,0,0-2.83.51c0,1.1.05,2.26.05,2.82,0,1.21-.44,1.6-1.14,1.6-1,0-2.71-1-2.71-2.16s1.36-2.21,2.85-2.85v-.74c0-.52,0-1.13,0-1.7l-1,0a14.86,14.86,0,0,1-1.66-.06l0-1a12.38,12.38,0,0,0,1.67.11c.29,0,.63,0,1,0,0-.68,0-1.25,0-1.49a6.61,6.61,0,0,0-.07-.92h1.16A7.6,7.6,0,0,0,270.72,83.51Zm-1.46,8.8c.3,0,.49-.21.49-.64s0-1.35,0-2.3c-1.07.5-1.86,1.25-1.86,1.84S268.76,92.31,269.26,92.31ZM277.82,86l-.53.84a16.36,16.36,0,0,0-2.92-2l.47-.78A24.85,24.85,0,0,1,277.82,86Z"/></g><g class="cls-3"><path class="cls-4" d="M283.3,88.66l-1.41.45v3.72c0,.53-.12.79-.45,1a3.84,3.84,0,0,1-1.61.18,3.78,3.78,0,0,0-.28-.91,9.8,9.8,0,0,0,1.21,0c.16,0,.23,0,.23-.23V89.41c-.57.2-1.12.36-1.6.51l-.25-.92,1.85-.56V85.63h-1.66v-.9H281v-2.6h.9v2.6h1.36v.9h-1.36v2.55l1.28-.41Zm6.21-1.43v1.43h1.59v.88h-1.59v3.28c0,.6-.13.85-.51,1a6.43,6.43,0,0,1-2,.17,3.55,3.55,0,0,0-.3-.94c.73,0,1.42,0,1.6,0s.26-.06.26-.24V89.54h-5v-.88h5V87.23h-5.13v-.9h3.42V84.68h-2.76v-.89h2.76V82.18h.92v1.61h2.77v.89h-2.77v1.65h3.39v.9Zm-4.2,2.68a10.75,10.75,0,0,1,1.48,2.23l-.81.48a9.45,9.45,0,0,0-1.42-2.27Z"/></g><g class="cls-3"><path class="cls-4" d="M296.49,83.91c0,.21-.08.46-.15.76a31.93,31.93,0,0,0,5.07-.63l0,1a45.49,45.49,0,0,1-5.28.55,24.16,24.16,0,0,1-.82,3.07A6,6,0,0,1,299,87.55c2.06,0,3.27,1,3.27,2.58,0,2.7-2.78,3.71-6.73,3.29l-.26-1c3,.41,5.93-.11,5.93-2.24,0-1-.81-1.73-2.33-1.73A4.92,4.92,0,0,0,295,90a2.67,2.67,0,0,0-.4.59l-1-.35a21.08,21.08,0,0,0,1.5-4.63h0a23.5,23.5,0,0,1-2.47-.13v-1a16.09,16.09,0,0,0,2.47.22h.22c.06-.34.12-.62.14-.86a5.73,5.73,0,0,0,.05-1.08l1.16.07C296.63,83.17,296.55,83.57,296.49,83.91Z"/></g><g class="cls-3"><path class="cls-4" d="M307.82,82.13h.87v5.19c0,2.56-.24,4.91-2.15,6.67a3.36,3.36,0,0,0-.71-.63c1.8-1.6,2-3.73,2-6Zm-1.18,7.61h-.81V83.63h.81Zm10.27-2.64v2.1H316V87.86h-2.66v1.19H316v3.07c0,.42-.07.66-.38.8a3.59,3.59,0,0,1-1.4.16,2.68,2.68,0,0,0-.25-.82h1c.13,0,.16,0,.16-.17V89.85h-1.73V94h-.91V89.85h-1.6v3.28H310V89.2h-.87V87.1Zm-1-.73h-6.12v-.74H315v-.86h-4.74v-.7H315v-.85h-5v-.74h6Zm-3.49,1.49H310v1.19h2.47Z"/></g><g class="cls-3"><path class="cls-4" d="M320.74,86.36c.54-1.33,1.89-3,3.54-3s3,1.73,3,4.46c0,3.62-2.26,5.2-5.48,5.79l-.61-.94c2.82-.41,5-1.57,5-4.83,0-2.06-.7-3.54-2.07-3.54-1.62,0-3.13,2.37-3.29,4.07a6.21,6.21,0,0,0,0,1.6l-1,.08A14.88,14.88,0,0,1,319.7,88a33.59,33.59,0,0,1,.41-4.2c.05-.39.08-.77.1-1.12l1.15,0A23.65,23.65,0,0,0,320.74,86.36Z"/><path class="cls-4" d="M334,84.22a31.2,31.2,0,0,0,4-.4v1a39,39,0,0,1-4.32.37,10.26,10.26,0,0,1-1.17,2,3.74,3.74,0,0,1,1.81-.48A1.69,1.69,0,0,1,336,87.85c.88-.43,1.68-.74,2.35-1,.39-.17.7-.31,1.07-.51l.43,1a11.52,11.52,0,0,0-1.16.41c-.73.28-1.65.65-2.64,1.12,0,.75,0,1.86,0,2.5h-1c0-.5,0-1.34,0-2-1.21.64-2.06,1.32-2.06,2.18,0,1,1,1.17,2.36,1.17a23.91,23.91,0,0,0,3.55-.31l0,1a30.58,30.58,0,0,1-3.56.23c-1.86,0-3.36-.4-3.36-2s1.55-2.49,3.07-3.28a1.09,1.09,0,0,0-1.18-.81,3.42,3.42,0,0,0-2.24,1c-.37.35-.74.83-1.18,1.35l-.88-.65a13.73,13.73,0,0,0,3-4h-.57c-.56,0-1.42,0-2.13-.08v-1a19,19,0,0,0,2.19.14H333a6.94,6.94,0,0,0,.33-1.63l1.06.1A12.65,12.65,0,0,1,334,84.22Z"/><path class="cls-4" d="M343,90.72c0,1,1,1.68,3.08,1.68a16.06,16.06,0,0,0,4.45-.51V93a18.22,18.22,0,0,1-4.43.46c-2.64,0-4.17-.87-4.17-2.51a7.34,7.34,0,0,1,.27-1.81l1.05.1A4.61,4.61,0,0,0,343,90.72Zm3.17-6.55c1.25,0,2.58-.08,3.51-.18v1.07c-.88.06-2.3.15-3.49.15s-2.42,0-3.45-.14V84A33.8,33.8,0,0,0,346.13,84.17Zm4.94.18-.7.33a13.9,13.9,0,0,0-1.06-1.82l.7-.3C350.33,83,350.8,83.83,351.07,84.35Zm1.47-.53-.71.31a12,12,0,0,0-1.08-1.79l.69-.3A19.07,19.07,0,0,1,352.54,83.82Z"/></g><g class="cls-3"><path class="cls-4" d="M361.94,87.24a12.94,12.94,0,0,1-1.17,1.61h2.47V87.56h.94v1.29h3.74V92.1c0,.51-.1.74-.48.9a6.9,6.9,0,0,1-2,.14,3.45,3.45,0,0,0-.31-.83h1.56c.2,0,.26,0,.26-.22V89.71h-2.79V94h-.94V89.71h-2.56v3.54h-.95V89.92a10.49,10.49,0,0,1-1.86,1.34,4.34,4.34,0,0,0-.63-.73,10.36,10.36,0,0,0,3.6-3.29h-3.32v-.86h3.84a10.34,10.34,0,0,0,.58-1.27c-1.09.32-2.21.61-3.25.83a5.45,5.45,0,0,0-.66-.81,32.57,32.57,0,0,0,4.44-1.06c-1.22-.43-2.49-.82-3.64-1.13l.67-.59c1.31.34,2.81.78,4.24,1.28a13.52,13.52,0,0,0,3-1.54l.79.53a13.92,13.92,0,0,1-2.6,1.43,28.27,28.27,0,0,1,3,1.25l-.71.7a32.73,32.73,0,0,0-3.48-1.48c-.42.16-.85.29-1.28.43l.56.16a12.09,12.09,0,0,1-.58,1.27h6.5v.86Z"/><path class="cls-4" d="M371.26,84.31h-1v-.83H373V82.13h.92v1.35h2.61v.83h-4.34V86.5c0,.39.09.53.44.53h2.21a5.23,5.23,0,0,0,1-.08c0,.25.06.63.09.84a5.06,5.06,0,0,1-1.07.07H372.6c-1.06,0-1.34-.36-1.34-1.37ZM382,92.87v.82H370.52v-.82h5.23V91.74H372V91h3.8V89.83h-4.36V89h9.79v.82h-4.47V91h3.85v.79h-3.85v1.13ZM377.7,86.5a4.12,4.12,0,0,1-1.54,2.17,1.94,1.94,0,0,0-.57-.64c1.47-1,1.66-2.94,1.73-5.46h4.46s0,.28,0,.41c-.12,3.43-.25,4.62-.58,5a1,1,0,0,1-.75.35c-.3,0-.81,0-1.35,0a2.07,2.07,0,0,0-.22-.77c.52,0,1,0,1.17,0a.36.36,0,0,0,.39-.15,2.14,2.14,0,0,0,.24-1Zm3-.7c0-.26,0-.58.06-.91H378c0,.31-.1.62-.16.91Zm-2.56-2.5c0,.31,0,.61-.07.91h2.72l0-.91Z"/></g><g class="cls-3"><path class="cls-4" d="M389.46,93.4l-.61-1a8.93,8.93,0,0,0,1.12-.17,3.93,3.93,0,0,0,3.3-3.86,3.62,3.62,0,0,0-3.47-3.77,26.19,26.19,0,0,1-.78,3.74c-.79,2.68-1.82,4.05-3,4.05s-2.31-1.33-2.31-3.47a5.53,5.53,0,0,1,5.68-5.29,4.71,4.71,0,0,1,5,4.78C394.34,91.18,392.54,93,389.46,93.4ZM386,91.23c.61,0,1.3-.87,2-3.07a20.39,20.39,0,0,0,.73-3.51,4.54,4.54,0,0,0-4,4.22C384.69,90.5,385.45,91.23,386,91.23Z"/><path class="cls-4" d="M400.25,83.51c0,.31,0,.82-.05,1.4a16.77,16.77,0,0,0,2.68-.52l0,1a23.2,23.2,0,0,1-2.73.45c0,.61,0,1.24,0,1.76v.45a9.9,9.9,0,0,1,2.86-.48c1.9,0,3.26,1,3.26,2.59s-1,2.57-2.77,3a9.1,9.1,0,0,1-1.61.18l-.36-1a7.06,7.06,0,0,0,1.52-.09c1.14-.22,2.18-.83,2.18-2s-1-1.7-2.23-1.7a8.42,8.42,0,0,0-2.84.51c0,1.1,0,2.26,0,2.82,0,1.21-.44,1.6-1.14,1.6-1,0-2.7-1-2.7-2.16s1.35-2.21,2.84-2.85v-.74c0-.52,0-1.13,0-1.7l-1,0a14.86,14.86,0,0,1-1.66-.06l0-1a12.47,12.47,0,0,0,1.67.11c.3,0,.63,0,1,0,0-.68,0-1.25,0-1.49a6.67,6.67,0,0,0-.06-.92h1.15C400.3,82.85,400.27,83.21,400.25,83.51Zm-1.45,8.8c.3,0,.48-.21.48-.64s0-1.35,0-2.3c-1.07.5-1.86,1.25-1.86,1.84S398.29,92.31,398.8,92.31ZM407.35,86l-.53.84a16.65,16.65,0,0,0-2.91-2l.46-.78A24.07,24.07,0,0,1,407.35,86Z"/></g><g class="cls-3"><path class="cls-4" d="M418.74,85.73a9.12,9.12,0,0,1-2.56,2.5,17.42,17.42,0,0,0,5,1.36,4,4,0,0,0-.61.93c-.6-.1-1.18-.21-1.75-.35V94h-1v-.42h-5.25V94h-.92V90.29c-.67.21-1.33.38-2,.53a3.26,3.26,0,0,0-.48-.85,18.76,18.76,0,0,0,5.13-1.7,8.58,8.58,0,0,1-1.75-1.52,11.72,11.72,0,0,1-2,1.27,3,3,0,0,0-.65-.69,8.57,8.57,0,0,0,3.69-2.92l1,.19a7,7,0,0,1-.6.77h3.84l.17,0Zm-8,0h-.93V83.29h4.93V82.13h1v1.16h5v2.43h-1V84.18h-9Zm7.6,4.3a14.28,14.28,0,0,1-3.05-1.22A18.14,18.14,0,0,1,412.54,90Zm-.44,2.69V90.83h-5.25v1.88Zm-4.58-6.52a7.55,7.55,0,0,0,2,1.57,8.54,8.54,0,0,0,2-1.63h-3.92Z"/><path class="cls-4" d="M426.19,89.66c-.19-.42-.64-1.22-1-1.87V94h-.88V87.9a13.59,13.59,0,0,1-1.59,3.63,5.32,5.32,0,0,0-.49-.83,14.31,14.31,0,0,0,2-4.88h-1.71v-.89h1.82V82.12h.88v2.81h1.48v.89h-1.48v.82c.36.48,1.34,2,1.56,2.3Zm3.42,1.87c-1,.61-2.15,1.25-3,1.74l-.46-.8c.82-.42,2-1.08,3.23-1.73Zm2.17-1a5.75,5.75,0,0,0,2.57,2.17,4,4,0,0,0-.62.78,6.82,6.82,0,0,1-2.89-3v2.51c0,.52-.1.78-.44.93a4.76,4.76,0,0,1-1.73.17,3.19,3.19,0,0,0-.27-.88c.57,0,1.13,0,1.3,0s.21,0,.21-.22V88.05h-3.28v-.82h3.28v-1h-2.63v-.76h2.63v-.92h-3v-.79h1.63a10.28,10.28,0,0,0-.65-1.34l.75-.25a6.75,6.75,0,0,1,.78,1.5l-.23.09h2.26l-.12,0a11.88,11.88,0,0,0,.76-1.62l.95.28c-.28.48-.56,1-.81,1.38h1.72v.79h-3.1v.92h2.81v.76h-2.81v1h3.28v.82h-3.28v.52a8.42,8.42,0,0,0,.78,1.69,13.11,13.11,0,0,0,1.6-1.75L434,89a16.41,16.41,0,0,1-1.77,1.77Zm-4.06-1.92a8.67,8.67,0,0,1,1.34,1.67l-.7.5a9.68,9.68,0,0,0-1.3-1.74Z"/></g><g class="cls-3"><path class="cls-4" d="M437.83,84a33.38,33.38,0,0,0-.64,5.24,11.18,11.18,0,0,0,.13,1.81c.2-.59.51-1.38.74-1.91l.53.41c-.31.91-.79,2.24-.92,2.88a2.38,2.38,0,0,0-.06.58c0,.13,0,.31,0,.46l-.91.06a15.7,15.7,0,0,1-.49-4.11,40.22,40.22,0,0,1,.59-5.47,7.63,7.63,0,0,0,.08-.92l1.15.09A6.7,6.7,0,0,0,437.83,84Zm6.57-.18c0,.35,0,1,0,1.57a20.79,20.79,0,0,0,2.25-.3v1a22.1,22.1,0,0,1-2.25.25c0,1.31.11,2.61.16,3.71a8.4,8.4,0,0,1,2.57,1.67l-.57.87a10.34,10.34,0,0,0-2-1.5v.27c0,1.07-.5,2.09-2.25,2.09s-2.71-.69-2.71-1.86,1-2,2.68-2a5.84,5.84,0,0,1,1.21.12c0-1-.12-2.28-.13-3.34l-1.25,0c-.74,0-1.41,0-2.18-.09v-1c.74.06,1.43.1,2.21.1.4,0,.82,0,1.22,0V83.78c0-.22,0-.57-.05-.79h1.17A6.87,6.87,0,0,0,444.4,83.77Zm-2.28,8.7c1.1,0,1.42-.56,1.42-1.42,0-.13,0-.29,0-.46a4.46,4.46,0,0,0-1.33-.2c-1,0-1.66.41-1.66,1S441.19,92.47,442.12,92.47Z"/></g><g class="cls-3"><path class="cls-4" d="M453.15,85.47A16.22,16.22,0,0,1,452,88h7v6h-1v-.68H452.2V94h-.95v-5a11.1,11.1,0,0,1-2.4,2.39,7.68,7.68,0,0,0-.64-.77,11,11,0,0,0,3.9-5.21h-3.49v-.93h3.84a24.83,24.83,0,0,0,.65-2.42l1,.18c-.18.75-.38,1.49-.62,2.24h6.41v.93Zm-.95,3.45v3.43H458V88.92Z"/></g><g class="cls-3"><path class="cls-4" d="M467.46,93.4l-.61-1a8.93,8.93,0,0,0,1.12-.17,3.93,3.93,0,0,0,3.3-3.86,3.62,3.62,0,0,0-3.47-3.77,26.19,26.19,0,0,1-.78,3.74c-.79,2.68-1.82,4.05-3,4.05s-2.31-1.33-2.31-3.47a5.53,5.53,0,0,1,5.68-5.29,4.71,4.71,0,0,1,5,4.78C472.34,91.18,470.54,93,467.46,93.4ZM464,91.23c.61,0,1.3-.87,2-3.07a20.39,20.39,0,0,0,.73-3.51,4.54,4.54,0,0,0-4,4.22C462.69,90.5,463.45,91.23,464,91.23Z"/></g><g class="cls-3"><path class="cls-4" d="M266.2,103.68a12.68,12.68,0,0,1-3.24,3.59l-.86-.69a8.87,8.87,0,0,0,2.85-2.91h-7.41c-.48,0-1,0-1.48.07v-1.18a10.19,10.19,0,0,0,1.48.12H265a6.16,6.16,0,0,0,.91-.08l.64.61C266.46,103.34,266.29,103.54,266.2,103.68Zm-8.47,8.8-1-.78a4.55,4.55,0,0,0,1.17-.58c2-1.24,2.3-3.09,2.3-5.26a7.44,7.44,0,0,0-.05-.93h1.17C261.36,108.45,261.05,110.83,257.73,112.48Z"/><path class="cls-4" d="M272.68,104.88a15.29,15.29,0,0,0,3.55-3.06l.87.81a20.89,20.89,0,0,1-3.51,2.89V111a10.09,10.09,0,0,0,.08,1.39H272.4a11.7,11.7,0,0,0,.08-1.39V106.2a25.87,25.87,0,0,1-5,2.12l-.52-1A21.72,21.72,0,0,0,272.68,104.88Z"/><path class="cls-4" d="M280.81,103.16h6.41c.31,0,.7,0,1,0,0,.3,0,.7,0,1v6.7c0,.47,0,1.06.05,1.27H287c0-.15,0-.42,0-.73h-6.36c-.53,0-1.12,0-1.47,0v-1.18a13.87,13.87,0,0,0,1.45.07h6.38V104.2h-6.23c-.48,0-1.13,0-1.43,0v-1.16A13.67,13.67,0,0,0,280.81,103.16Z"/><path class="cls-4" d="M296.47,109.28a12.23,12.23,0,0,0,4.35-4.78l.62,1.1a12.82,12.82,0,0,1-4.37,4.63,14.37,14.37,0,0,1-5.11,2l-.69-1.07A13.34,13.34,0,0,0,296.47,109.28Zm-.76-4.12-.82.82a26.84,26.84,0,0,0-3.24-2.72l.74-.79A28.63,28.63,0,0,1,295.71,105.16Z"/><path class="cls-4" d="M307.16,103.22a31,31,0,0,0,4-.4v1a38.86,38.86,0,0,1-4.31.37,10.26,10.26,0,0,1-1.17,2,3.7,3.7,0,0,1,1.8-.48,1.67,1.67,0,0,1,1.74,1.17c.89-.43,1.68-.74,2.36-1a11.53,11.53,0,0,0,1.06-.51l.43,1c-.33.09-.8.27-1.15.41-.73.28-1.66.65-2.64,1.12,0,.75,0,1.86,0,2.5h-1c0-.5,0-1.34,0-2-1.21.64-2.05,1.32-2.05,2.18,0,1,1,1.17,2.35,1.17a23.68,23.68,0,0,0,3.55-.31l0,1a30.61,30.61,0,0,1-3.57.23c-1.85,0-3.35-.4-3.35-2s1.55-2.49,3.07-3.28a1.09,1.09,0,0,0-1.19-.81,3.4,3.4,0,0,0-2.23,1,16,16,0,0,0-1.18,1.35l-.89-.65a13.55,13.55,0,0,0,3-4h-.57c-.56,0-1.41,0-2.13-.08v-1a19.26,19.26,0,0,0,2.2.14h.86a6.42,6.42,0,0,0,.32-1.63l1.07.1A12.65,12.65,0,0,1,307.16,103.22Z"/><path class="cls-4" d="M319.74,102.92a4.29,4.29,0,0,1-.31.55H323a2.18,2.18,0,0,0,.84-.13l.87.53a5.32,5.32,0,0,0-.3.69,12.71,12.71,0,0,1-2.31,4.48,11.41,11.41,0,0,1-5.18,3.53l-.93-.84a10.14,10.14,0,0,0,7.26-7.32h-4.39a12.93,12.93,0,0,1-3.3,3.19l-.9-.67a10.64,10.64,0,0,0,4.08-4.4,4.42,4.42,0,0,0,.41-1l1.21.39C320.1,102.24,319.86,102.68,319.74,102.92Z"/><path class="cls-4" d="M328.45,103.17v4.34a9.07,9.07,0,0,0,.06,1h-1.2a7.47,7.47,0,0,0,.07-1v-4.33c0-.23,0-.69-.06-.93h1.19A8.39,8.39,0,0,0,328.45,103.17Zm6.05.09v2.11c0,3.12-.43,4.15-1.37,5.26a6.81,6.81,0,0,1-3.09,1.9l-.84-.9a5.87,5.87,0,0,0,3.1-1.72c.93-1.08,1.08-2.14,1.08-4.59v-2.06a9.29,9.29,0,0,0-.06-1.13h1.22C334.51,102.46,334.5,102.82,334.5,103.26Z"/><path class="cls-4" d="M339.05,108.1l-1,.36a22.48,22.48,0,0,0-1.16-2.92l1-.38C338.13,105.72,338.8,107.42,339.05,108.1Zm6.34-2.21a10.24,10.24,0,0,1-1.84,4,9.86,9.86,0,0,1-4.24,3.09l-.86-.87a8.76,8.76,0,0,0,4.23-2.77,8.88,8.88,0,0,0,1.79-4.44l1.12.35C345.5,105.51,345.45,105.72,345.39,105.89Zm-3.48,1.43-1,.34a23.88,23.88,0,0,0-1-2.82l.95-.33C341.1,105,341.74,106.75,341.91,107.32Z"/><path class="cls-4" d="M352.3,102.92a4.37,4.37,0,0,1-.32.55h3.53a2.18,2.18,0,0,0,.84-.13l.87.53a5.32,5.32,0,0,0-.3.69,12.55,12.55,0,0,1-2.31,4.48,11.43,11.43,0,0,1-5.17,3.53l-.94-.84a10.6,10.6,0,0,0,5.19-3.27,10.8,10.8,0,0,0,2.08-4h-4.4a12.93,12.93,0,0,1-3.3,3.19l-.9-.67a10.68,10.68,0,0,0,4.09-4.4,4.43,4.43,0,0,0,.4-1l1.21.39A9.56,9.56,0,0,0,352.3,102.92Z"/><path class="cls-4" d="M361.23,103.18c-.07,1.47-.16,4.54-.16,6.48,0,1.43.9,1.94,2.13,1.94a5.43,5.43,0,0,0,4.66-2.69l.74.88a6.56,6.56,0,0,1-5.44,2.87c-1.87,0-3.15-.78-3.15-2.9,0-1.92.12-5.21.12-6.58a6.69,6.69,0,0,0-.1-1.32h1.31A11.77,11.77,0,0,0,361.23,103.18Z"/><path class="cls-4" d="M369.48,109.83l.85-.74a24.7,24.7,0,0,1,2.91,2.88l-.88.76A21.36,21.36,0,0,0,369.48,109.83Z"/></g><g class="cls-3"><path class="cls-4" d="M401.47,102.46H407v1h-4.29v3.23h3.64v1h-3.64V112h-1.21Z"/><path class="cls-4" d="M410.08,102.46h1.34l3.24,9.54h-1.28l-.91-2.91H409l-.92,2.91h-1.23Zm-.79,5.66h2.88l-.45-1.45c-.35-1.08-.65-2.12-1-3.23h-.06c-.29,1.12-.61,2.15-.95,3.23Z"/><path class="cls-4" d="M417.75,107.07l-2.6-4.61h1.33l1.3,2.44c.24.44.44.85.75,1.39h.05c.26-.54.44-1,.68-1.39l1.27-2.44h1.26l-2.6,4.68L422,112h-1.32l-1.4-2.58c-.25-.48-.51-1-.82-1.53h-.06c-.27.57-.52,1-.76,1.53L416.23,112H415Z"/></g><g class="cls-3"><path class="cls-4" d="M433.69,111.69c0,.62-.17.91-.59,1.08a8.85,8.85,0,0,1-2.41.15,3.84,3.84,0,0,0-.33-.93c.91,0,1.79,0,2,0s.35-.09.35-.34V109h-3.5v3.83h-1V109H425a7.58,7.58,0,0,1-1.62,4,3,3,0,0,0-.75-.64c1.43-1.61,1.56-3.9,1.56-5.71V102h9.47Zm-5.41-3.58V106h-3.11v.77c0,.43,0,.91-.05,1.39ZM425.17,103V105h3.11V103Zm7.57,0h-3.5V105h3.5Zm0,5.15V106h-3.5v2.16Z"/><path class="cls-4" d="M438.8,107.51V113h-.87V107.6l-2.18.19-.14-.87,1-.06c.26-.32.53-.7.82-1.09a12.28,12.28,0,0,0-1.72-1.87l.49-.64.38.33a17.49,17.49,0,0,0,1.2-2.47l.87.34a26.6,26.6,0,0,1-1.54,2.66,7,7,0,0,1,.81.92,27.46,27.46,0,0,0,1.46-2.44l.8.39a41.17,41.17,0,0,1-2.65,3.81l2.13-.14a11,11,0,0,0-.69-1.11l.7-.32a10.65,10.65,0,0,1,1.46,2.6l-.75.36c-.08-.23-.2-.49-.33-.79Zm-1.52,1.12a12,12,0,0,1-.89,3.3,3.26,3.26,0,0,0-.75-.36,10,10,0,0,0,.8-3.08Zm2.74-.19a11.64,11.64,0,0,1,.84,2.39l-.78.26a11.91,11.91,0,0,0-.8-2.41Zm5.29-1.5c.18,2.81.59,4.88,1.38,5.07.21.07.38-.74.44-2a3.67,3.67,0,0,0,.73.53c-.21,2-.79,2.67-1.56,2.27-1.2-.38-1.67-2.73-1.89-5.92h-2.1v4.54l2.45-.52.11.83c-1.43.37-2.94.72-4.12,1l-.35-.92,1-.19v-9.51l.54.18a21.92,21.92,0,0,0,4.51-1.22l.74.74a17.25,17.25,0,0,1-2,.65c0,1.21,0,2.4.1,3.51h2.4v.92Zm-.95-.92c-.05-1-.09-2.15-.12-3.29-.65.14-1.31.26-1.93.36V106Z"/></g><g class="cls-3"><path class="cls-4" d="M453.64,103.22a31.2,31.2,0,0,0,4-.4v1a39,39,0,0,1-4.32.37,10.26,10.26,0,0,1-1.17,2,3.74,3.74,0,0,1,1.81-.48,1.69,1.69,0,0,1,1.74,1.17c.88-.43,1.68-.74,2.35-1,.39-.17.7-.31,1.07-.51l.43,1a11.52,11.52,0,0,0-1.16.41c-.73.28-1.65.65-2.64,1.12,0,.75,0,1.86,0,2.5h-1c0-.5,0-1.34,0-2-1.21.64-2.06,1.32-2.06,2.18,0,1,1,1.17,2.36,1.17a23.91,23.91,0,0,0,3.55-.31l0,1a30.58,30.58,0,0,1-3.56.23c-1.86,0-3.36-.4-3.36-2s1.55-2.49,3.07-3.28a1.09,1.09,0,0,0-1.18-.81,3.42,3.42,0,0,0-2.24,1c-.37.35-.74.83-1.18,1.35l-.88-.65a13.92,13.92,0,0,0,3-4h-.57c-.56,0-1.42,0-2.14-.08v-1a19.26,19.26,0,0,0,2.2.14h.86a6.42,6.42,0,0,0,.32-1.63l1.07.1A12.65,12.65,0,0,1,453.64,103.22Z"/></g><g class="cls-3"><path class="cls-4" d="M265.74,122.3l-.69.31.61.37a4.79,4.79,0,0,0-.3.69,13.63,13.63,0,0,1-2,4c.56.41,1.07.8,1.49,1.13l-.77.9c-.39-.35-.87-.75-1.42-1.17a12.4,12.4,0,0,1-4.95,3.3l-.94-.82a11,11,0,0,0,5-3.12c-.92-.67-1.92-1.35-2.75-1.87l.7-.73c.86.5,1.83,1.13,2.74,1.77a10.81,10.81,0,0,0,1.77-3.6h-4.39a14.4,14.4,0,0,1-3.45,3.43l-.87-.66a11.74,11.74,0,0,0,4.17-4.54,4.81,4.81,0,0,0,.42-1l1.18.37c-.22.34-.45.78-.58,1l-.26.46H264a2.54,2.54,0,0,0,.86-.12l.22.13a14.37,14.37,0,0,0-1-1.77l.69-.3A19.43,19.43,0,0,1,265.74,122.3Zm1.46-.53-.7.31a14.4,14.4,0,0,0-1.08-1.79l.69-.29A19.64,19.64,0,0,1,267.2,121.77Z"/><path class="cls-4" d="M273.31,121.56v1.21h2.91a2.75,2.75,0,0,0,.9-.1l.7.44c-.07.19-.14.53-.2.78a12.08,12.08,0,0,1-1.27,3.91,8.29,8.29,0,0,1-5.15,3.68l-.84-1a6.41,6.41,0,0,0,1.35-.36,6.94,6.94,0,0,0,3.52-2.61,9.7,9.7,0,0,0,1.24-3.8H269.2v2.33a5,5,0,0,0,.05.78h-1.13a7.69,7.69,0,0,0,0-.83v-2.29a8.44,8.44,0,0,0,0-1,11.28,11.28,0,0,0,1.21,0h2.87v-1.21a7.45,7.45,0,0,0-.06-1h1.25A5.3,5.3,0,0,0,273.31,121.56Z"/><path class="cls-4" d="M284.81,128.28a12.2,12.2,0,0,0,4.34-4.78l.63,1.1a13,13,0,0,1-4.37,4.63,14.37,14.37,0,0,1-5.11,2l-.69-1.07A13.34,13.34,0,0,0,284.81,128.28Zm-.77-4.12-.81.82a26.84,26.84,0,0,0-3.24-2.72l.74-.79A27.69,27.69,0,0,1,284,124.16Z"/><path class="cls-4" d="M292.91,122.12h7c.29,0,.76,0,1.15,0,0,.33,0,.69,0,1v6.41c0,.41,0,1.43,0,1.57h-1.12c0-.09,0-.4,0-.75h-7.1c0,.33,0,.65,0,.75h-1.12c0-.17,0-1.13,0-1.59v-6.39c0-.3,0-.7,0-1Zm-.08,7.2h7.11v-6.17h-7.11Z"/><path class="cls-4" d="M305.77,125.43h7.12c.65,0,1.12,0,1.41-.06v1.27c-.26,0-.81-.06-1.39-.06h-7.14c-.72,0-1.41,0-1.81.06v-1.27C304.35,125.4,305,125.43,305.77,125.43Z"/><path class="cls-4" d="M318,122.46a7.92,7.92,0,0,0-.11-1.35h1.29a12.4,12.4,0,0,0-.09,1.35v2.12a44,44,0,0,1,5.55,2.14l-.46,1.11a32.42,32.42,0,0,0-5.09-2.08V130c0,.42,0,1.12.08,1.54H317.9A14.94,14.94,0,0,0,318,130Zm5.74,1.14-.74.34a12.53,12.53,0,0,0-1.16-2l.72-.32A20.72,20.72,0,0,1,323.72,123.6Zm1.61-.69-.72.37a13.4,13.4,0,0,0-1.21-2l.71-.34A16.31,16.31,0,0,1,325.33,122.91Z"/></g></g><g class="cls-3"><g class="cls-3"><path class="cls-4" d="M257.8,159a4.22,4.22,0,0,1-.26,1.41,8.83,8.83,0,0,1-.66,1.45,13.72,13.72,0,0,1-.92,1.42c-.33.46-.67.9-1,1.32l-.64.56v.05l.84-.14H258v1h-5.17v-.38c.19-.2.42-.44.69-.74s.54-.62.83-1,.58-.74.86-1.14.54-.82.77-1.23a7.85,7.85,0,0,0,.55-1.24,3.56,3.56,0,0,0,.21-1.16,1.51,1.51,0,0,0-.37-1,1.35,1.35,0,0,0-1.1-.43,2.46,2.46,0,0,0-1,.2,3.92,3.92,0,0,0-.81.47l-.43-.74a3.59,3.59,0,0,1,1.08-.62,4.18,4.18,0,0,1,1.34-.22,2.78,2.78,0,0,1,1,.17,1.9,1.9,0,0,1,.73.46,1.87,1.87,0,0,1,.45.71A2.35,2.35,0,0,1,257.8,159Z"/><path class="cls-4" d="M259.72,165.44a.66.66,0,0,1,.21-.51.75.75,0,0,1,.53-.19.84.84,0,0,1,.66.28,1.22,1.22,0,0,1,.25.84,2.22,2.22,0,0,1-.13.81,1.89,1.89,0,0,1-.34.61,2,2,0,0,1-.45.42,2.77,2.77,0,0,1-.49.24l-.33-.51a1.37,1.37,0,0,0,.7-.57,1.48,1.48,0,0,0,.22-.77.61.61,0,0,1-.65-.14A.66.66,0,0,1,259.72,165.44Z"/></g><g class="cls-3"><path class="cls-4" d="M267.44,159.62a22.6,22.6,0,0,1-1.63,5.34l-.81-.5a20.69,20.69,0,0,0,1.55-5Zm7.09-3.31a19,19,0,0,1-5.15,9v.17c0,.39.22.58.66.58h2.25a.87.87,0,0,0,.8-.38,7.36,7.36,0,0,0,.41-2.67l.89.29a7.11,7.11,0,0,1-.63,3.18,1.64,1.64,0,0,1-1.3.48h-2.71c-.73,0-1.16-.31-1.27-.91a13.39,13.39,0,0,1-2.27,1.34l-.55-.78a12.25,12.25,0,0,0,2.78-1.76v-6.62h.94V164a18,18,0,0,0,4.29-8ZM272.06,158l-.65.65a16.77,16.77,0,0,0-2.58-2.48l.64-.6A18.61,18.61,0,0,1,272.06,158Zm4.94,6.57-.85.37a34.55,34.55,0,0,0-2.15-5l.88-.28A34,34,0,0,1,277,164.56Z"/><path class="cls-4" d="M289.71,156v.84h-3.83V158h3v3.28H283.5c-.23.41-.46.79-.66,1.15h7v.86h-2.8a4.31,4.31,0,0,1-1.43,2c1.33.41,2.68.87,4.06,1.42l-.58.77c-1.43-.61-2.88-1.15-4.32-1.62a19,19,0,0,1-6.07,1.57l-.35-.84a22.39,22.39,0,0,0,5.24-1.09c-1.08-.32-2.16-.61-3.24-.86.31-.45.6-.91.88-1.35h-3.21v-.86h3.73c.24-.4.46-.79.67-1.15H279V158h3v-1.16h-3.84V156Zm-7.65,2.82h-2.14v1.65h2.14Zm4.06,4.47h-3.79c-.22.35-.43.68-.62,1,1,.21,1.93.46,2.93.74A3.39,3.39,0,0,0,286.12,163.32ZM285,156.87h-2V158h2Zm0,2h-2v1.65h2Zm3,0h-2.13v1.65H288Z"/><path class="cls-4" d="M296.5,157.86v-.81h-5.1v-.8h5.1v-.78h.94v.78h5.09v.8h-5.09v.81h3.84v2.54h-3.84v.8h4V163h1.41v.76h-1.41v1.71h-4v.86c0,.72-.4,1.09-1.16,1.09h-1.6l-.2-.89c.52,0,1,.07,1.49.07s.53-.17.53-.5v-.63h-4.28v-.76h4.28v-.95h-5.45V163h5.45v-1h-4.28v-.76h4.28v-.8h-3.85v-2.54Zm0,.72h-2.91v1.1h2.91Zm3.85,0h-2.91v1.1h2.91ZM297.44,163h3.13v-1h-3.13Zm0,.76v.95h3.13v-.95Z"/><path class="cls-4" d="M308.2,156.78v.91h-1.48V164a16.93,16.93,0,0,0,1.62-.72v.9a23,23,0,0,1-4,1.49l-.21-.88c.57-.13,1.12-.27,1.66-.45v-6.61H304.2v-.91Zm3.35,8.8a12,12,0,0,1-2.84,1.89l-.51-.67a10.53,10.53,0,0,0,2.73-1.76Zm-.15-7.67a6.77,6.77,0,0,0,.34-1.08h-3.06V156h7.06v.83h-3.09a7.14,7.14,0,0,1-.32,1.08h2.76v7h-5.8v-7Zm2.79,2v-1.26h-4V160Zm0,2.07v-1.33h-4V162Zm0,.73h-4v1.36h4Zm1.71,4.07-.6.61a15.54,15.54,0,0,0-2.54-1.85l.56-.53A17.5,17.5,0,0,1,315.9,166.82Z"/><path class="cls-4" d="M327.05,158.08c-1.31.14-3,.22-5.05.25a12.2,12.2,0,0,1-1.46,2.08,3.27,3.27,0,0,1,2.06-.81,1.72,1.72,0,0,1,1.51.74,2.89,2.89,0,0,1,.22.43c.91-.32,2-.63,3.16-.93l.27.88a26,26,0,0,0-3.22.94,4.09,4.09,0,0,1,0,.63v2.25h-.92v-2.1c0-.16,0-.3,0-.43a2.87,2.87,0,0,0-.4.18c-1.61.74-2.42,1.51-2.42,2.29,0,.48.29.83.89,1.05a6.65,6.65,0,0,0,2.12.26,19.07,19.07,0,0,0,3.35-.29l.09.92a21.77,21.77,0,0,1-3.44.27,6.83,6.83,0,0,1-2.85-.47,1.81,1.81,0,0,1-1.13-1.74c0-1.06.82-2,2.48-2.85a12.12,12.12,0,0,1,1.13-.52,1,1,0,0,0-1-.71c-1.12,0-2.38.81-3.79,2.45l-.67-.62a27.92,27.92,0,0,0,2.44-3c.18-.29.35-.58.53-.86l-2.74,0,0-.88h3.21c.26-.54.5-1.1.74-1.69l.87.34c-.2.47-.39.92-.59,1.35,1.88,0,3.37-.09,4.51-.22Z"/><path class="cls-4" d="M332.2,157.21a10.34,10.34,0,0,0-.74-1.49l.89-.25a11.27,11.27,0,0,1,.7,1.57l-.45.17h2.3v.87h-4.82v-.87Zm-.83,10.22h-.9v-4.59h4.08v4.38h-.9v-.61h-2.28Zm3.06-8.32v.83h-3.86v-.83Zm0,1.79v.85h-3.86v-.85Zm-.78,2.78h-2.28v2.07h2.28Zm7.67,2.76a1.52,1.52,0,0,1-1.43.61h-3.1a1,1,0,0,1-1.06-1.09V160.3H340V157h-4.64V156h5.56v5.17h-4.27v4.4a.47.47,0,0,0,.5.53h2.58a.88.88,0,0,0,.91-.54,8.48,8.48,0,0,0,.27-2.11l.94.31A7,7,0,0,1,341.32,166.44Z"/><path class="cls-4" d="M346.25,156l.78-.49a9.14,9.14,0,0,1,2.94,4.38,13.06,13.06,0,0,0,4.9,6.59l-.59.75c-2.1-1.27-3.82-3.64-5.16-7.07-.08-.21-.14-.39-.2-.54a12.49,12.49,0,0,1-5.39,7.63l-.56-.8a12.61,12.61,0,0,0,5.43-7.93A7.49,7.49,0,0,0,346.25,156Z"/><path class="cls-4" d="M359.72,155.88a10.26,10.26,0,0,1-3.39,3.8l-.28-.91a9,9,0,0,0,2.85-3.28Zm.21,3.29a10.15,10.15,0,0,1-1.19,1.89v6.29h-.91V162a12.44,12.44,0,0,1-1.47,1.23l-.27-.9a10,10,0,0,0,3-3.56Zm7.67,2.3-.67.47c-.18-.34-.39-.69-.6-1-1.09.18-2.4.35-3.93.48l.54.22c-.13.26-.24.52-.37.76h3.76v.77a5.28,5.28,0,0,1-1.75,2.32,12.91,12.91,0,0,0,3.32,1.17l-.52.78a11.94,11.94,0,0,1-3.57-1.43,13.67,13.67,0,0,1-3.83,1.47l-.43-.77a13.26,13.26,0,0,0,3.48-1.24,7.44,7.44,0,0,1-1.5-1.52,8.25,8.25,0,0,1-1.34,1.25l-.67-.59a7.32,7.32,0,0,0,2.59-3.17l-1.69.12-.25-.74a10,10,0,0,0,3.32-2.25c-.76.09-1.72.18-2.86.26l-.12-.77a1.8,1.8,0,0,0,1-.6,11.54,11.54,0,0,0,1.43-2l.84.32A13.74,13.74,0,0,1,362,158c.84-.08,1.64-.17,2.36-.26.34-.37.68-.73,1-1.12l.82.39a21.9,21.9,0,0,1-4.11,3.73c1.45-.16,2.73-.32,3.79-.53-.26-.39-.53-.77-.81-1.16l.66-.42A25,25,0,0,1,367.6,161.47Zm-2.21,1.73h-3.32s0,0,0,0a6.44,6.44,0,0,0,1.75,1.74A5.25,5.25,0,0,0,365.39,163.2Z"/><path class="cls-4" d="M372.21,165.61a11,11,0,0,1,1.12,1.34l-.65.54a11.78,11.78,0,0,0-1.11-1.32,11.51,11.51,0,0,0-1.44-1.32l.59-.54A10.18,10.18,0,0,1,372.21,165.61Z"/><path class="cls-4" d="M387.5,159.75v-4.11h1v4.11h4.38v7.59h-.95v-.51H383v-.91h8.93v-2.24h-8.24v-.89h8.24v-2.13h-8.85v-.91Zm-1.86-1.07-.79.55a18.37,18.37,0,0,0-1.65-2.42l.79-.5A20.15,20.15,0,0,1,385.64,158.68Zm7.27-2.09a12.41,12.41,0,0,1-1.64,2.62l-.85-.44a14,14,0,0,0,1.64-2.57Z"/><path class="cls-4" d="M402,156.78h4.78v.91h-9.58v2.85a15,15,0,0,1-1.42,6.82l-.7-.62a14,14,0,0,0,1.2-6.2v-3.76H401a10.08,10.08,0,0,0-.65-1.18l1-.16C401.55,155.83,401.76,156.29,402,156.78Zm.24,1.46v1.55h4.3v.88h-4.3v1.9h3.42v4.85h-.92v-.65h-5.48v.65h-.93v-4.85h3v-4.33Zm2.5,7.64v-2.44h-5.48v2.44Z"/><path class="cls-4" d="M418.83,158.32c-1.44.05-2.83.09-4.17.11,0,.68,0,1.29,0,1.85,1.27,0,2.56,0,3.86-.08v.9l-3.84.05c0,.9,0,1.61,0,2.14.28.11.55.21.84.34a14.55,14.55,0,0,1,3.23,2l-.6.74a15.93,15.93,0,0,0-2.93-1.84l-.58-.25a3.19,3.19,0,0,1-.58,1.63,2.69,2.69,0,0,1-2.22.88,3.25,3.25,0,0,1-1.81-.48,1.68,1.68,0,0,1-.79-1.48,1.7,1.7,0,0,1,.8-1.51,3,3,0,0,1,1.82-.5,7.56,7.56,0,0,1,1.84.24l0-1.85h-1.26c-.59,0-1.47,0-2.64,0h-.37v-.88l1.17,0c.7,0,1.31,0,1.82,0h1.26c0-.56,0-1.17-.05-1.84h-1l-2,0-1.36,0v-.88l1.37,0,2,0h1l-.06-1.71,1,0c0,.6,0,1.19.06,1.73,1.25,0,2.65-.08,4.2-.14Zm-6.88,5.3a2,2,0,0,0-1.17.3,1,1,0,0,0-.5.86.89.89,0,0,0,.49.82,2.16,2.16,0,0,0,1.16.27,1.8,1.8,0,0,0,1.47-.6,2.48,2.48,0,0,0,.4-1.38A6.9,6.9,0,0,0,412,163.62Z"/><path class="cls-4" d="M432.12,157.77l-2.34.1a2.72,2.72,0,0,0-1.5.71,6.42,6.42,0,0,0-1.62,1.75,4.28,4.28,0,0,0-.76,2.37,2.5,2.5,0,0,0,1.18,2.17,7.39,7.39,0,0,0,3.72.89l-.18.9a7.54,7.54,0,0,1-4.32-1.09,3.25,3.25,0,0,1-1.4-2.81,4.79,4.79,0,0,1,1-2.94,6.61,6.61,0,0,1,2.15-1.91c-1.92.16-4,.34-6.29.57l-.13-.92c4.16-.4,7.63-.62,10.43-.66Zm-.84,3.63-.56.39a9,9,0,0,0-1.36-1.75l.52-.41A8.08,8.08,0,0,1,431.28,161.4Zm1.25-.9-.56.4a9,9,0,0,0-1.35-1.74l.51-.4A8.84,8.84,0,0,1,432.53,160.5Z"/><path class="cls-4" d="M440.38,167.17a8,8,0,0,1-2.05-.24,3,3,0,0,1-1.39-.94.69.69,0,0,0-.51-.33c-.31,0-.83.59-1.55,1.78l-.7-.62a5.12,5.12,0,0,1,1.83-2v-4h-1.84V160h2.72v4.86a2.8,2.8,0,0,1,.32.3,2.87,2.87,0,0,0,1,.82,4.87,4.87,0,0,0,1.78.31c.69,0,1.54,0,2.57,0l1.86,0c.62,0,1.1,0,1.44-.05l-.22.94h-3Zm-3-9.44-.68.66a14.82,14.82,0,0,0-2.22-2.06l.64-.61A15.75,15.75,0,0,1,437.37,157.73Zm3.87,2.9c.08-.56.13-1.2.16-1.92h-2.86v-.86h3.92a14.58,14.58,0,0,0,1-2.42l.89.31a12.17,12.17,0,0,1-1,2.11h1.69v.86h-2.78c0,.72-.07,1.37-.14,1.92h3.36v.88H442a6.11,6.11,0,0,1-3.43,3.9l-.6-.75a5.37,5.37,0,0,0,3-3.15h-2.94v-.88Zm-.14-3.2-.79.39a11.67,11.67,0,0,0-1.28-1.88l.85-.41A18.26,18.26,0,0,1,441.1,157.43Zm4.43,7.31-.65.7a21.5,21.5,0,0,0-2.83-2.54l.56-.62A20.74,20.74,0,0,1,445.53,164.74Z"/><path class="cls-4" d="M450.78,155.81a16.19,16.19,0,0,1-1.06,2.56v9.09h-.94v-7.54a18.07,18.07,0,0,1-1.58,2l-.29-1a14.79,14.79,0,0,0,3-5.51Zm5.26,2.52v-2.8H457v2.8h1.87v.91H457V166c0,.88-.41,1.32-1.22,1.32h-1.89l-.2-.92c.61,0,1.19.06,1.76.06.41,0,.62-.23.62-.7v-6.55h-5v-.91Zm-1.5,5.39-.79.56a26.8,26.8,0,0,0-2.26-3.16l.76-.46A25.6,25.6,0,0,1,454.54,163.72Z"/><path class="cls-4" d="M463.52,156.14v7.27c0,1.59.85,2.38,2.55,2.38,1.9,0,3.36-1.4,4.4-4.2l1,.37a10.1,10.1,0,0,1-1.82,3.22,4.64,4.64,0,0,1-3.54,1.59c-2.39,0-3.57-1.08-3.57-3.23v-7.4Z"/></g><g class="cls-3"><path class="cls-4" d="M268,175.64l-2.34.1a2.72,2.72,0,0,0-1.5.71,6.58,6.58,0,0,0-1.62,1.75,4.28,4.28,0,0,0-.76,2.37,2.47,2.47,0,0,0,1.19,2.17,7.35,7.35,0,0,0,3.71.89l-.18.9a7.48,7.48,0,0,1-4.31-1.09,3.23,3.23,0,0,1-1.41-2.81,4.79,4.79,0,0,1,1-2.94,6.55,6.55,0,0,1,2.16-1.91c-1.93.16-4,.34-6.29.57l-.13-.92q6.24-.6,10.42-.66Z"/><path class="cls-4" d="M270.42,185.09l-.19-.88c.44,0,.85.06,1.24.06s.55-.21.55-.62V175h-2v-.86h4.55V175h-1.64v8.88c0,.8-.39,1.22-1.14,1.22Zm7.14-1.6a10.26,10.26,0,0,1-2.6,1.82l-.51-.65a9.69,9.69,0,0,0,2.48-1.71Zm-.12-7.53a6,6,0,0,0,.35-1.23H275v-.86h6.49v.86h-2.78a9.91,9.91,0,0,1-.36,1.23h2.73v6.86h-5.63V176Zm2.71,2v-1.22h-3.81V178Zm0,2v-1.24h-3.81V180Zm0,.77h-3.81V182h3.81Zm1.71,4-.6.6a13.85,13.85,0,0,0-2.44-1.86l.58-.56A17.09,17.09,0,0,1,281.86,184.73Z"/><path class="cls-4" d="M293,175.74c-1.27.17-2.51.3-3.74.41.26.49.52,1,.8,1.43,1.26-.13,2.51-.28,3.74-.46l.17.89c-1.1.16-2.24.31-3.38.42a18.21,18.21,0,0,0,1.94,2.49l-.59.66a9.37,9.37,0,0,0-1.91-.78,6.61,6.61,0,0,0-2-.32,3.65,3.65,0,0,0-2,.43,1.27,1.27,0,0,0-.68,1.15,1.29,1.29,0,0,0,.81,1.15,6.29,6.29,0,0,0,2.85.5,17.41,17.41,0,0,0,2.73-.21l.06.89a16.45,16.45,0,0,1-2.79.21,7.35,7.35,0,0,1-3.41-.64,2.06,2.06,0,0,1-1.23-1.9,2,2,0,0,1,.88-1.77,4.85,4.85,0,0,1,2.74-.63,6.88,6.88,0,0,1,2.93.72,9.61,9.61,0,0,1-1.46-1.85q-2.82.21-5.85.23v-.88c1.8,0,3.58-.08,5.34-.21-.26-.44-.5-.92-.76-1.45-1.38.1-2.72.15-4.05.16v-.88c1.16,0,2.37-.06,3.62-.13-.24-.47-.46-1-.68-1.46l.91-.38c.26.61.52,1.2.8,1.76,1.27-.11,2.61-.26,4-.44Z"/><path class="cls-4" d="M306.69,176.19c-1.44.05-2.83.09-4.17.11,0,.68,0,1.29.05,1.85,1.27,0,2.56,0,3.86-.08v.9l-3.83.05c0,.9,0,1.61,0,2.15.28.1.55.2.84.33a14.61,14.61,0,0,1,3.24,1.95l-.6.74a16,16,0,0,0-2.94-1.84l-.57-.25a3.29,3.29,0,0,1-.59,1.63,2.69,2.69,0,0,1-2.22.88,3.25,3.25,0,0,1-1.81-.48,1.68,1.68,0,0,1-.79-1.48,1.7,1.7,0,0,1,.8-1.51,3,3,0,0,1,1.82-.5,7.56,7.56,0,0,1,1.84.24l0-1.85h-1.26c-.59,0-1.47,0-2.64,0h-.37v-.88l1.17,0c.71,0,1.32,0,1.82,0h1.27c0-.56,0-1.17-.06-1.84h-1l-2,0-1.35,0,0-.88,1.37,0,2,0h1l-.06-1.71,1,0c0,.6,0,1.19.06,1.73,1.25,0,2.65-.08,4.2-.14Zm-6.88,5.3a2.08,2.08,0,0,0-1.17.3,1,1,0,0,0-.5.86.89.89,0,0,0,.49.82,2.19,2.19,0,0,0,1.16.27,1.79,1.79,0,0,0,1.47-.6,2.48,2.48,0,0,0,.4-1.38A6.9,6.9,0,0,0,299.81,181.49Z"/><path class="cls-4" d="M316.7,173.64l0,1.77,3.6-.06v.87l-3.59.06v.1c0,1.81.06,2.91.06,3.32a5.18,5.18,0,0,1-.9,3.32,7.25,7.25,0,0,1-3.11,1.85l-.45-.84a7.86,7.86,0,0,0,2.17-1,3.36,3.36,0,0,0,1.25-1.69,1.79,1.79,0,0,1-1.53.82,2.5,2.5,0,0,1-1.89-.73,2.36,2.36,0,0,1-.65-1.71,2.39,2.39,0,0,1,.63-1.68,2.45,2.45,0,0,1,1.91-.78,1.82,1.82,0,0,1,1.68.9,12.5,12.5,0,0,1-.09-1.51v-.34l-6.36.09v-.87l6.34-.09,0-1.78Zm-3.68,5a1.55,1.55,0,0,0-.41,1.1,1.48,1.48,0,0,0,.43,1.11,1.57,1.57,0,0,0,1.2.46,1.64,1.64,0,0,0,1.19-.47,1.59,1.59,0,0,0,.44-1.06,1.66,1.66,0,0,0-.46-1.18,1.56,1.56,0,0,0-1.17-.48A1.51,1.51,0,0,0,313,178.6Z"/></g></g><g class="cls-3"><g class="cls-3"><path class="cls-4" d="M255,217.25a2.66,2.66,0,0,0,.82-.13,1.84,1.84,0,0,0,1.08-1,2,2,0,0,0,.16-.77,1.63,1.63,0,0,0-.54-1.35,2.26,2.26,0,0,0-1.49-.44h-1v-.38L256,210.3l.6-.57-.85.13h-2.57v-1h4.64v.38l-2.07,3.1-.45.38v0l.44-.09a2.73,2.73,0,0,1,1,.18,2.35,2.35,0,0,1,.77.51,2.47,2.47,0,0,1,.5.79,2.69,2.69,0,0,1,.19,1,3.1,3.1,0,0,1-.25,1.25,2.69,2.69,0,0,1-.67.91,2.85,2.85,0,0,1-1,.57,3.79,3.79,0,0,1-1.21.2,5.62,5.62,0,0,1-1.06-.1,4.21,4.21,0,0,1-.82-.23l.28-.92a3.85,3.85,0,0,0,1.62.34Z"/><path class="cls-4" d="M259.72,217.44a.66.66,0,0,1,.21-.51.75.75,0,0,1,.53-.19.84.84,0,0,1,.66.28,1.22,1.22,0,0,1,.25.84,2.22,2.22,0,0,1-.13.81,1.89,1.89,0,0,1-.34.61,2,2,0,0,1-.45.42,2.77,2.77,0,0,1-.49.24l-.33-.51a1.37,1.37,0,0,0,.7-.57,1.48,1.48,0,0,0,.22-.77.61.61,0,0,1-.65-.14A.66.66,0,0,1,259.72,217.44Z"/></g><g class="cls-3"><path class="cls-4" d="M274.74,213.67v.81a7.39,7.39,0,0,1-2.69,2.7,21.88,21.88,0,0,0,4.72,1.44l-.55.84a20.94,20.94,0,0,1-5.11-1.75,21.93,21.93,0,0,1-5.4,1.76l-.49-.89a23.08,23.08,0,0,0,4.95-1.41,7,7,0,0,1-2.53-2.64h-.52v-.86Zm1.66.81h-.91V212.4h-9.05v2.08h-.91v-3h7.4a13.91,13.91,0,0,0,1.33-2.43l.93.35a12.53,12.53,0,0,1-1.26,2.08h2.47Zm-.34-6.08A68.27,68.27,0,0,1,266,209l-.27-.84a72.51,72.51,0,0,0,9.87-.55Zm-7.42,2.68-.81.41a12.75,12.75,0,0,0-1.28-1.75l.82-.41A14.54,14.54,0,0,1,268.64,211.08Zm2.46,5.63a7.62,7.62,0,0,0,2.6-2.18h-5.1A6.71,6.71,0,0,0,271.1,216.71Zm.58-5.76-.83.43a12.47,12.47,0,0,0-1.23-1.79l.84-.41A17.68,17.68,0,0,1,271.68,211Z"/><path class="cls-4" d="M281.78,207.81a16.19,16.19,0,0,1-1.06,2.56v9.09h-.94v-7.54a17,17,0,0,1-1.59,2l-.28-1a14.79,14.79,0,0,0,3-5.51Zm5.26,2.52v-2.8H288v2.8h1.87v.91H288V218c0,.88-.41,1.32-1.22,1.32h-1.89l-.2-.92c.61,0,1.19.06,1.76.06.41,0,.62-.23.62-.7v-6.55h-5v-.91Zm-1.5,5.39-.79.56a25.86,25.86,0,0,0-2.27-3.16l.77-.46A25.6,25.6,0,0,1,285.54,215.72Z"/><path class="cls-4" d="M302.64,213.76v.9H299v3.08c0,.39.18.6.56.6h1.72a.51.51,0,0,0,.49-.26,6.3,6.3,0,0,0,.23-1.77l.88.28a4.72,4.72,0,0,1-.46,2.28,1.24,1.24,0,0,1-1,.36h-2.19c-.81,0-1.2-.44-1.2-1.3v-3.27h-2.18v.09a4.92,4.92,0,0,1-1,3.08,6.69,6.69,0,0,1-3.16,1.66l-.54-.83a6.12,6.12,0,0,0,3-1.45,4,4,0,0,0,.83-2.46v-.09h-3.6v-.9Zm-.17-1.95h-1v-2h-9.13v2h-.95V208.9h5a9.82,9.82,0,0,0-.49-1.21l1.05-.18c.17.41.34.87.5,1.39h5Zm-1.89-.49v.91H293.3v-.91Z"/><path class="cls-4" d="M313.46,209.18h-8.55v-.91h9.83v.91a31.27,31.27,0,0,1-4.1,3.12v5.82a1.08,1.08,0,0,1-1.22,1.21c-.78,0-1.47,0-2.05-.06l-.26-.91c.63.06,1.32.08,2.05.08.35,0,.53-.17.53-.49v-6.11A24.26,24.26,0,0,0,313.46,209.18Z"/><path class="cls-4" d="M320.72,207.88a10.26,10.26,0,0,1-3.39,3.8l-.28-.91a9,9,0,0,0,2.85-3.28Zm.21,3.29a10.15,10.15,0,0,1-1.19,1.89v6.29h-.91V214a12.44,12.44,0,0,1-1.47,1.23l-.27-.9a10,10,0,0,0,3-3.56Zm7.67,2.3-.67.47c-.18-.34-.39-.69-.6-1-1.09.18-2.4.35-3.93.48l.54.22c-.13.26-.24.52-.37.76h3.76v.77a5.28,5.28,0,0,1-1.75,2.32,12.91,12.91,0,0,0,3.32,1.17l-.52.78a11.94,11.94,0,0,1-3.57-1.43,13.67,13.67,0,0,1-3.83,1.47l-.43-.77a13.26,13.26,0,0,0,3.48-1.24,7.44,7.44,0,0,1-1.5-1.52,8.25,8.25,0,0,1-1.34,1.25l-.67-.59a7.32,7.32,0,0,0,2.59-3.17l-1.69.12-.25-.74a10,10,0,0,0,3.32-2.25c-.76.09-1.72.18-2.86.26l-.12-.77a1.8,1.8,0,0,0,1-.6,11.54,11.54,0,0,0,1.43-2l.84.32A13.74,13.74,0,0,1,323,210c.84-.08,1.64-.17,2.36-.26.34-.37.68-.73,1-1.12l.82.39a21.9,21.9,0,0,1-4.11,3.73c1.45-.16,2.73-.32,3.79-.53-.26-.39-.53-.77-.81-1.16l.66-.42A25,25,0,0,1,328.6,213.47Zm-2.21,1.73h-3.32s0,0,0,0a6.44,6.44,0,0,0,1.75,1.74A5.25,5.25,0,0,0,326.39,215.2Z"/><path class="cls-4" d="M333.21,217.61a11,11,0,0,1,1.12,1.34l-.65.54a11.78,11.78,0,0,0-1.11-1.32,11.51,11.51,0,0,0-1.44-1.32l.59-.54A10.18,10.18,0,0,1,333.21,217.61Z"/></g><g class="cls-3"><path class="cls-4" d="M346.91,219.31l-.19-.89c.44,0,.86.06,1.25.06s.5-.19.5-.56v-3.11q-.86.3-1.74.54l-.22-.94a19.59,19.59,0,0,0,2-.53v-3h-1.75V210h1.75v-2.44h.9V210h1.44v.9h-1.44v2.67c.55-.23,1.07-.46,1.59-.71v.95c-.52.24-1.06.47-1.59.68v3.67c0,.76-.36,1.15-1.08,1.15Zm5.63-8.31c0,.32.17.47.51.47h3.29a.85.85,0,0,0,.62-.19,2.92,2.92,0,0,0,.33-1.5l.86.28a3.42,3.42,0,0,1-.54,2,1.62,1.62,0,0,1-1.1.31h-3.73a1,1,0,0,1-1.14-1.14v-3.61h.9v1.78a24.6,24.6,0,0,0,4.62-1.41l.52.74a33.15,33.15,0,0,1-5.14,1.5Zm5.14,8.43h-.94v-.66h-4.07v.66h-.92v-6.09h5.93Zm-.94-3.81v-1.46h-4.07v1.46Zm0,2.31v-1.48h-4.07v1.48Z"/><path class="cls-4" d="M369.27,211.37v.88H366v2.29h3.88v.88H366v2.7a26.69,26.69,0,0,0,3.3.22c.67,0,1.34,0,2-.08l-.16.94h-1.46a15.73,15.73,0,0,1-5.64-.73,5,5,0,0,1-2.1-1.88,9.44,9.44,0,0,1-1.87,2.81l-.6-.74a10.63,10.63,0,0,0,2.53-5.34l.91.15a17.53,17.53,0,0,1-.6,2.23,4.17,4.17,0,0,0,2.34,2.12l.38.1v-5.67h-3.41v-.88Zm1.49.23h-.91v-1.91H361v2h-.91v-2.84h5a11.76,11.76,0,0,0-.65-1.28l1-.16a14.24,14.24,0,0,1,.6,1.44h4.72Z"/><path class="cls-4" d="M382.59,219.36h-.95v-1h-6.15v1h-.94V208h8Zm-.95-6.72v-3.7h-6.15v3.7Zm0,4.83v-3.92h-6.15v3.92Z"/><path class="cls-4" d="M388.55,208.35a21.84,21.84,0,0,0-.73,5.59,12,12,0,0,0,.76,4.48l-.92.35a13,13,0,0,1-.82-4.83,23,23,0,0,1,.75-5.82Zm2.88,5.77a3.77,3.77,0,0,0-.71,1.84c0,.45.29.79.86,1a7.35,7.35,0,0,0,2.45.3,25.65,25.65,0,0,0,2.69-.17l0,1c-1.18.09-2.09.14-2.74.14a7.64,7.64,0,0,1-3.23-.51,1.77,1.77,0,0,1-1.09-1.71,4.83,4.83,0,0,1,.81-2.34Zm4.82-3.62c-2.22,0-4.29.06-6.22.21l-.15-.94c2.12-.16,4.25-.23,6.41-.23Z"/><path class="cls-4" d="M405,208.57h5.23v.91h-2.81a11.63,11.63,0,0,1-.76,1.58h2.89v7c0,.85-.39,1.28-1.14,1.28h-1.33l-.23-.85,1.26,0c.36,0,.54-.23.54-.67v-6h-8.39v7.45h-.9v-8.28h2.74a11.25,11.25,0,0,0-.69-1.58h-2.7v-.91H404c-.16-.37-.31-.71-.48-1l1-.17C404.67,207.74,404.83,208.13,405,208.57Zm-1.22,4.14a11.14,11.14,0,0,1-2.76,2.34l-.6-.78a10,10,0,0,0,2.7-2.15Zm3.09,1.93v3.2H402v-3.2Zm-1.22-3.58c.27-.52.52-1,.74-1.58h-3.94a16.24,16.24,0,0,1,.63,1.58Zm.33,4.43h-3V217h3Zm2.44-1.14-.7.69a16.32,16.32,0,0,0-2.63-2.33l.64-.6A18.76,18.76,0,0,1,408.39,214.35Z"/><path class="cls-4" d="M416.7,219.23h-.91v-.66H413v.66h-.92v-5.64h4.58Zm-.91-1.54v-3.2H413v3.2Zm5.22-9.64v4.25h-7.16v-4.25Zm-.93.89h-5.29v2.48h5.29Zm2.66,10.29h-.93v-.66H419v.66H418v-5.64h4.7Zm-.93-1.54v-3.2H419v3.2Z"/><path class="cls-4" d="M434.52,210.08c-1.31.14-3,.22-5,.25a12.8,12.8,0,0,1-1.47,2.08,3.27,3.27,0,0,1,2.06-.81,1.72,1.72,0,0,1,1.51.74,2.89,2.89,0,0,1,.22.43c.91-.32,2-.63,3.16-.93l.28.88a25.69,25.69,0,0,0-3.23.94,4.09,4.09,0,0,1,0,.63v2.25h-.92v-2.1c0-.16,0-.3,0-.43a2.87,2.87,0,0,0-.4.18c-1.61.74-2.42,1.51-2.42,2.29,0,.48.29.83.89,1.05a6.65,6.65,0,0,0,2.12.26,19.07,19.07,0,0,0,3.35-.29l.09.92a21.77,21.77,0,0,1-3.44.27,6.83,6.83,0,0,1-2.85-.47,1.82,1.82,0,0,1-1.13-1.74c0-1.06.82-2,2.48-2.85.34-.18.72-.35,1.13-.52a1,1,0,0,0-1-.71c-1.12,0-2.38.81-3.79,2.45l-.67-.62a27.92,27.92,0,0,0,2.44-3c.18-.29.35-.58.54-.86l-2.75,0,0-.88h3.21c.26-.54.5-1.1.74-1.69l.87.34c-.2.47-.39.92-.59,1.35,1.88,0,3.37-.09,4.52-.22Z"/><path class="cls-4" d="M445.75,210.61c-1.22.08-2.31.15-3.25.19v1.84a10.4,10.4,0,0,1,2.13-.21,4.23,4.23,0,0,1,2.72.84,2.78,2.78,0,0,1,1.13,2.36c0,2.16-1.44,3.25-4.31,3.25L444,218a4.75,4.75,0,0,0,2.74-.63,2,2,0,0,0,.79-1.71,2.06,2.06,0,0,0-.8-1.69,3.24,3.24,0,0,0-2.06-.61,8.63,8.63,0,0,0-2.13.25c0,1.13,0,2.34,0,3.63q0,1.62-1.56,1.62a3.28,3.28,0,0,1-2-.58,2,2,0,0,1-.83-1.69,3.46,3.46,0,0,1,2.08-3.06,6.59,6.59,0,0,1,1.35-.6c0-.73,0-1.43,0-2.08l-1.33,0c-.69,0-1.28,0-1.75,0v-.92l1.74,0,1.35,0c0-.8,0-1.54,0-2.23h1c0,.67,0,1.41,0,2.21,1-.06,2.11-.12,3.2-.2Zm-4.86,3.57a2.73,2.73,0,0,0-1.82,2.38,1.19,1.19,0,0,0,.53,1,2.07,2.07,0,0,0,1.24.35c.45,0,.69-.29.69-.84v-3.19A5.24,5.24,0,0,0,440.89,214.18Zm8.49-2.45-.76.59a15.64,15.64,0,0,0-2.58-2.84l.71-.65A19.37,19.37,0,0,1,449.38,211.73Z"/><path class="cls-4" d="M451.89,213.94H457a20.39,20.39,0,0,1-.28,4.24c-.18.73-1,1.12-2.4,1.17-.41,0-.81,0-1.23,0l-.23-.87c.42,0,.83,0,1.25,0,1,0,1.57-.23,1.73-.69a13.11,13.11,0,0,0,.22-3h-5.12l.67-3.88h4.33v-2h-4.73V208h5.66v3.76h-4.48Zm9-6.43v11.93H460V207.51Z"/><path class="cls-4" d="M473.62,209.87c-1.26.17-2.5.3-3.73.41.26.49.52,1,.8,1.43,1.26-.13,2.51-.28,3.74-.46l.17.89c-1.11.16-2.24.31-3.38.42a18.21,18.21,0,0,0,1.94,2.49l-.59.66a9.6,9.6,0,0,0-1.91-.78,6.66,6.66,0,0,0-2-.32,3.65,3.65,0,0,0-2,.43,1.27,1.27,0,0,0-.68,1.15,1.29,1.29,0,0,0,.81,1.15,6.29,6.29,0,0,0,2.85.5,17.41,17.41,0,0,0,2.73-.21l.06.89a16.45,16.45,0,0,1-2.79.21,7.35,7.35,0,0,1-3.41-.64,2.07,2.07,0,0,1-1.24-1.9,2,2,0,0,1,.89-1.77,4.85,4.85,0,0,1,2.74-.63,6.88,6.88,0,0,1,2.93.72,9.61,9.61,0,0,1-1.46-1.85c-1.88.14-3.84.22-5.85.23V212c1.79,0,3.58-.08,5.34-.21-.26-.44-.5-.92-.76-1.45-1.38.1-2.72.15-4.05.16v-.88c1.16,0,2.37-.06,3.62-.13-.24-.47-.46-.95-.68-1.46l.91-.38c.26.61.52,1.2.79,1.76,1.28-.11,2.62-.26,4-.44Z"/></g><g class="cls-3"><path class="cls-4" d="M263.44,234.66l-1.18.29v2.35h-.91v-2.15q-2,.43-4.2.75l-.22-.91,1.17-.17v-8h-1v-.89h6.19v.71h5v.85a17.71,17.71,0,0,1-1.78,6.17,13.82,13.82,0,0,0,2.33,2.95l-.63.71a15.88,15.88,0,0,1-2.2-2.81,11.23,11.23,0,0,1-2.5,2.8l-.64-.73a10.9,10.9,0,0,0,2.62-3,15.73,15.73,0,0,1-1.71-6h-.52v-.73h-1V234l1.18-.28Zm-2.09-5.88v-2H259v2Zm0,2.84v-2H259v2Zm0,.84H259v2.21c.79-.13,1.57-.28,2.34-.44Zm4.64.16a16.77,16.77,0,0,0,1.42-5.12h-2.77A14.45,14.45,0,0,0,266,232.62Z"/><path class="cls-4" d="M273.39,226.56a12.57,12.57,0,0,0-.42,1.9,13.18,13.18,0,0,0-.17,2,5.39,5.39,0,0,0,.26,1.93,4.94,4.94,0,0,1,.65-1.7l.79.37a8.65,8.65,0,0,0-1,2.46l-.81.14a3.41,3.41,0,0,1-.71-1.53,6.9,6.9,0,0,1-.18-1.67,13.79,13.79,0,0,1,.19-2.26,11.35,11.35,0,0,1,.43-1.88Zm6.44,3.72a7,7,0,0,1-1,4,7.93,7.93,0,0,1-3.44,2.55l-.56-.83a7.16,7.16,0,0,0,3.13-2.21,6.12,6.12,0,0,0,.9-3.54,13.83,13.83,0,0,0-.47-3.75l1-.23A14.38,14.38,0,0,1,279.83,230.28Z"/><path class="cls-4" d="M294.6,226.07V227H289v2a53.13,53.13,0,0,1,4.91,2.81l-.56.83c-1.72-1.14-3.18-2-4.35-2.65v7.39H288V227h-5v-.92Z"/><path class="cls-4" d="M307.24,228.58c-1.26.18-2.53.32-3.8.42a.63.63,0,0,1,.07.12,16.49,16.49,0,0,0,2.26,3.19l-.52.67a10.94,10.94,0,0,0-4.16-.89,3.23,3.23,0,0,0-2,.52,1.37,1.37,0,0,0-.63,1.18,1.57,1.57,0,0,0,.82,1.38,4.83,4.83,0,0,0,2.45.52,21.26,21.26,0,0,0,3.16-.22l.11.92a20.8,20.8,0,0,1-3.27.22,5.68,5.68,0,0,1-3.15-.75,2.36,2.36,0,0,1-1.1-2.07,2.17,2.17,0,0,1,1-1.89,4.47,4.47,0,0,1,2.64-.7,8.38,8.38,0,0,1,3.16.61,14.28,14.28,0,0,1-1.77-2.68l0-.06c-1.25.08-2.51.12-3.76.12-.7,0-1.35,0-1.92,0l0-.94c.95,0,1.59.07,1.93.07,1.08,0,2.18,0,3.33-.11-.34-.71-.67-1.47-1-2.25l.9-.33a24.25,24.25,0,0,0,1.09,2.52c1.36-.11,2.76-.26,4.19-.46Z"/><path class="cls-4" d="M310.93,227.22a23.06,23.06,0,0,0-.25,3.45,8.36,8.36,0,0,0,.6,3.44c.36.78.79,1.19,1.31,1.19.34,0,.65-.35.94-1.06a8.45,8.45,0,0,0,.43-1.49l1,.23a7.48,7.48,0,0,1-.86,2.32,1.78,1.78,0,0,1-1.48,1,2.45,2.45,0,0,1-2.2-1.6,9,9,0,0,1-.76-4,22.79,22.79,0,0,1,.26-3.56Zm9.7,7.15-1,.06a11,11,0,0,0-2.19-6.66l.82-.61A12,12,0,0,1,320.63,234.37Z"/></g></g><g id="fax"><path class="cls-5" d="M189.3,152.32H202c9.4,0,15.11,5.78,15.1,15.18q0,25.09,0,50.18c0,8.92-5.88,14.82-14.79,14.82H105.5c-9,0-14.9-5.88-14.89-14.89q0-25.26,0-50.52c0-8.84,5.82-14.71,14.65-14.76,3.25,0,6.5,0,10,0V87.56h2q21.33,0,42.65,0a3.66,3.66,0,0,1,2.85,1.15q12.63,12.69,25.35,25.28a3.77,3.77,0,0,1,1.26,3c-.05,11,0,22,0,33.05Zm-6.21-34H158.42V93.83H121.58v64.53h61.51Zm-74,71a6.16,6.16,0,1,0,0-12.32,6.16,6.16,0,0,0,0,12.32Zm0,6.18a6.16,6.16,0,1,0,6.16,6.2A6.15,6.15,0,0,0,109.12,195.51Z"/><path class="cls-5" d="M87.54,194.14q0,10.79,0,21.56c0,4.74-2.81,7.54-7.55,7.55-2.34,0-4.68,0-7,0a6.76,6.76,0,0,1-7-6.88q-.06-22.43,0-44.84a6.77,6.77,0,0,1,6.86-6.85c2.5,0,5,0,7.53,0a6.86,6.86,0,0,1,7.18,7.23c0,7.42,0,14.83,0,22.25Z"/><path class="cls-5" d="M158.44,122.35c2.37,0,3.27,1,3.27,2.42s-.92,2.41-3.29,2.41H128.84c-2,0-3.09-1.08-3.09-2.41s1.09-2.38,3.11-2.39Z"/><path class="cls-5" d="M158.44,130.53c2.37,0,3.27,1,3.27,2.42s-.92,2.41-3.29,2.41H128.84c-2,0-3.09-1.08-3.09-2.41s1.09-2.38,3.11-2.39Z"/><path class="cls-5" d="M158.44,138.71c2.37,0,3.27,1,3.27,2.42s-.92,2.41-3.29,2.41H128.84c-2,0-3.09-1.08-3.09-2.41s1.09-2.38,3.11-2.39Z"/><path class="cls-5" d="M158.44,146.89c2.37,0,3.27,1,3.27,2.42s-.92,2.41-3.29,2.41H128.84c-2,0-3.09-1.08-3.09-2.41s1.09-2.38,3.11-2.39Z"/></g></svg>