<svg xmlns="http://www.w3.org/2000/svg" width="580" height="289"><defs><filter id="a" x="86.5" y="29.5" width="114" height="44" filterUnits="userSpaceOnUse"><feOffset dx="3" dy="3"/><feGaussianBlur stdDeviation="1.5" result="b"/><feFlood flood-opacity=".161"/><feComposite operator="in" in2="b"/><feComposite in="SourceGraphic"/></filter><filter id="c" x="89.522" y="78.156" width="129.924" height="146.329" filterUnits="userSpaceOnUse"><feOffset dx="3" dy="3"/><feGaussianBlur stdDeviation="3" result="d"/><feFlood flood-opacity=".161"/><feComposite operator="in" in2="d"/><feComposite in="SourceGraphic"/></filter><filter id="e" x="67.668" y="146.406" width="37.146" height="69.895" filterUnits="userSpaceOnUse"><feOffset dx="3" dy="3"/><feGaussianBlur stdDeviation="3" result="f"/><feFlood flood-opacity=".161"/><feComposite operator="in" in2="f"/><feComposite in="SourceGraphic"/></filter><filter id="g" x="120.624" y="108.977" width="49.821" height="22.268" filterUnits="userSpaceOnUse"><feOffset dx="3" dy="3"/><feGaussianBlur stdDeviation="3" result="h"/><feFlood flood-opacity=".161"/><feComposite operator="in" in2="h"/><feComposite in="SourceGraphic"/></filter><filter id="i" x="120.624" y="116.217" width="49.821" height="22.268" filterUnits="userSpaceOnUse"><feOffset dx="3" dy="3"/><feGaussianBlur stdDeviation="3" result="j"/><feFlood flood-opacity=".161"/><feComposite operator="in" in2="j"/><feComposite in="SourceGraphic"/></filter><filter id="k" x="120.624" y="123.458" width="49.821" height="22.271" filterUnits="userSpaceOnUse"><feOffset dx="3" dy="3"/><feGaussianBlur stdDeviation="3" result="l"/><feFlood flood-opacity=".161"/><feComposite operator="in" in2="l"/><feComposite in="SourceGraphic"/></filter><filter id="m" x="120.624" y="130.698" width="49.821" height="22.271" filterUnits="userSpaceOnUse"><feOffset dx="3" dy="3"/><feGaussianBlur stdDeviation="3" result="n"/><feFlood flood-opacity=".161"/><feComposite operator="in" in2="n"/><feComposite in="SourceGraphic"/></filter><style>.d{fill:#fff;font-size:13px;font-family:PTSans-Regular,PT Sans}.e{font-family:PingFangSC-Regular,PingFang SC}.f{fill:#c73d13}</style></defs><g fill="#007bff" stroke="#707070"><path stroke="none" d="M0-.001h580v289H0z"/><path fill="none" d="M.5.499h579v288H.5z"/></g><g transform="translate(.003 -.004)" filter="url(#a)"><text transform="translate(88 59)" font-family="NotoSansJP-Regular,Noto Sans JP" font-size="24" letter-spacing=".1em" fill="#fff"><tspan x="0" y="0">Takeout</tspan></text></g><text transform="translate(252 92.999)" font-size="13" font-family="NotoSansJP-Regular,Noto Sans JP" fill="#fff"><tspan x="0" y="0">1, お</tspan><tspan y="0">持</tspan><tspan y="0">ち</tspan><tspan y="0">帰</tspan><tspan y="0">りをご</tspan><tspan y="0">希望</tspan><tspan y="0">のお</tspan><tspan y="0">客様</tspan><tspan y="0">は</tspan><tspan y="0">右</tspan><tspan y="0">の</tspan><tspan x="0" y="19"> アイコンをクリックし、 </tspan><tspan y="19">FAX</tspan><tspan y="19">用紙</tspan><tspan y="19">を</tspan><tspan x="0" y="38"> ダウンロード</tspan></text><text class="d" transform="translate(252 165.999)"><tspan x="0" y="0">2, </tspan><tspan class="e" y="0">必要事項を記入後、当店まで送付し</tspan><tspan class="e"><tspan x="0" y="18"> て頂きます</tspan></tspan></text><text class="d" transform="translate(252 217.999)"><tspan x="0" y="0">3, </tspan><tspan class="e" y="0">受付完了後、</tspan><tspan y="0"> </tspan><tspan class="e" y="0">指定日に商品をお引き</tspan><tspan class="e"><tspan x="0" y="18"> 取り下さい</tspan></tspan></text><g filter="url(#c)" transform="translate(-.002 -.005)"><path class="f" d="M182.869 141.51h11.2c8.326 0 13.379 5.114 13.37 13.437q-.027 22.209 0 44.421c0 7.886-5.2 13.112-13.091 13.115h-85.646c-8 0-13.185-5.2-13.182-13.179v-44.725c0-7.826 5.156-13.021 12.967-13.07 2.878-.015 5.763 0 8.8 0V84.177h1.78q18.878 0 37.751-.018a3.233 3.233 0 012.542 1.019q11.177 11.223 22.445 22.376a3.382 3.382 0 011.119 2.633c-.049 9.755-.03 19.509-.03 29.261zm-5.5-30.068h-21.838V89.733h-32.606v57.118h54.445zm-65.5 62.823a5.46 5.46 0 10-5.165-5.432 5.46 5.46 0 005.165 5.432zm.024 5.475a5.441 5.441 0 103.877 1.6 5.46 5.46 0 00-3.874-1.601z"/></g><g filter="url(#e)" transform="translate(-.002 -.005)"><path class="f" d="M92.786 178.531v19.091c0 4.195-2.493 6.673-6.691 6.673-2.072 0-4.143.021-6.212 0a5.991 5.991 0 01-6.188-6.094q-.055-19.846 0-39.7a6 6 0 016.066-6.066c2.22-.046 4.444-.027 6.673 0a6.076 6.076 0 016.37 6.4c.027 6.564 0 13.131 0 19.694z"/></g><g filter="url(#g)" transform="translate(-.002 -.005)"><path class="f" d="M155.55 114.98c2.1 0 2.9.871 2.891 2.144s-.81 2.123-2.909 2.123H129.35c-1.787-.03-2.73-.958-2.73-2.123s.968-2.1 2.757-2.123z"/></g><g filter="url(#i)" transform="translate(-.002 -.005)"><path class="f" d="M155.55 122.22c2.1 0 2.9.871 2.891 2.144s-.81 2.123-2.909 2.123H129.35c-1.787-.03-2.73-.955-2.73-2.123s.968-2.1 2.757-2.123z"/></g><g filter="url(#k)" transform="translate(-.002 -.005)"><path class="f" d="M155.55 129.46c2.1 0 2.9.871 2.891 2.147s-.81 2.123-2.909 2.123H129.35c-1.787-.03-2.73-.955-2.73-2.123s.968-2.1 2.757-2.123z"/></g><g filter="url(#m)" transform="translate(-.002 -.005)"><path class="f" d="M155.55 136.7c2.1 0 2.9.871 2.891 2.147s-.81 2.123-2.909 2.123H129.35c-1.787-.03-2.73-.955-2.73-2.123s.968-2.1 2.757-2.123z"/></g></svg>