<svg id="Layer_1" data-name="Layer 1" xmlns="http://www.w3.org/2000/svg" width="8.86in" height="10.94in" viewBox="0 0 637.72 787.53"><defs><style>.cls-1{fill:#fcbfb9;}.cls-2{fill:#fff;}.cls-3{fill:#f9e9e8;}</style></defs><title>Artboard 1</title><path class="cls-1" d="M499.46,117.42l-1.77-6.7,6.7-1.77c-.64-3.52-4.4-7.82-8.17-10-11.66-6.78-20.31-.89-20.31-.89s-.85,10.44,10.81,17.22C490.49,117.46,496.08,118.6,499.46,117.42Z"/><path class="cls-1" d="M458.08,129.37l5.83-3.75,3.75,5.82c3.15-1.69,6.08-6.59,7-10.86,2.85-13.18-5.43-19.59-5.43-19.59s-10.19,2.42-13,15.6C455.27,120.85,455.91,126.53,458.08,129.37Z"/><path class="cls-1" d="M433.92,93.72l5.37,4.38-4.37,5.37c2.58,2.47,8.15,3.74,12.49,3.3,13.42-1.37,16.95-11.22,16.95-11.22S458.91,86.61,445.5,88C441.16,88.41,436,90.77,433.92,93.72Z"/><path class="cls-1" d="M460.37,59.73l-2.51,6.45-6.46-2.5c-1.55,3.22-1,8.91.72,12.9C457.57,88.92,468,89.24,468,89.24s6.83-7.95,1.38-20.29C467.65,65,463.8,60.75,460.37,59.73Z"/><path class="cls-1" d="M500.87,74.37,494,74l.39-6.92c-3.55-.48-8.8,1.77-12,4.68-10.05,9-7.12,19-7.12,19s9.66,4,19.72-5C498.14,82.91,501,77.94,500.87,74.37Z"/><path class="cls-1" d="M19.4,203.87l.26,6.46-6.46.26c-.13,3.33,2.43,8,5.42,10.76,9.25,8.53,18.32,4.91,18.32,4.91s2.88-9.34-6.37-17.86C27.58,205.64,22.71,203.47,19.4,203.87Z"/><path class="cls-1" d="M59.49,201.32l-6.06,2.24-2.24-6.05c-3.21.9-6.87,4.78-8.57,8.47-5.25,11.44,1,18.94,1,18.94s9.77-.14,15-11.58C60.34,209.64,60.9,204.35,59.49,201.32Z"/><path class="cls-1" d="M74.31,238.66l-4-5.07,5.07-4c-1.86-2.78-6.67-5.06-10.71-5.53-12.5-1.46-17.7,6.8-17.7,6.8s3.15,9.24,15.65,10.7C66.65,242,71.86,240.94,74.31,238.66Z"/><path class="cls-1" d="M43.37,264.29,47,258.91l5.38,3.59c2.07-2.63,2.75-7.91,2-11.9-2.47-12.33-11.94-14.73-11.94-14.73s-7.82,5.86-5.35,18.19C37.79,258.05,40.45,262.67,43.37,264.29Z"/><path class="cls-1" d="M9.43,242.79l6.23,1.75-1.75,6.22c3.13,1.15,8.37.17,11.92-1.83,11-6.16,10.32-15.9,10.32-15.91s-8-5.62-19,.55C13.64,235.56,10.08,239.51,9.43,242.79Z"/><path class="cls-2" d="M197,530.75c50-11.21,94.55-31.39,129.74-69.74,1.82,2.06,3.24,3.65,4.71,5.21,8.24,8.71,16.34,17.51,24.72,26,3.92,4,8.95,4.32,14,2.06s7.47-7,7.41-12.16A34.66,34.66,0,0,0,374.94,469a96.46,96.46,0,0,0-24.18-32.95c-2.12-1.93-2.4-3.34-.92-5.89,8.19-14.07,16.07-28.31,24.26-42.38,3.57-6.1,7.52-12,11.53-17.81,1-1.55,2.88-2.61,4.45-3.76,4.25-3.09,5-5.9,1.48-9.82A53.43,53.43,0,0,0,380.9,347c-6-3.92-12.54-7.14-18.9-10.57-2.56-1.39-5.37-1.58-7.57.48-8.72,8.17-19.89,8.87-30.77,10.2-7.52.9-15.12,1.11-22.66,1.57a29.29,29.29,0,0,1-4-.36c2.45-3.55,4.32-6.65,6.59-9.44,4.06-5,7.51-10.56,13.95-13.21,2.81-1.15,3.09-5.15.71-8a37.81,37.81,0,0,0-7.52-7.43,206.44,206.44,0,0,0-19.15-11.54c-8.12-4.26-15.56-1.2-23.54,3.32,1.64.9,2.61,1.49,3.62,2,7.21,3.6,9,7.72,6.29,15.2a218.57,218.57,0,0,1-20.81,42.47,238.34,238.34,0,0,1-36.88,45.53c-5.82,5.57-12.24,10.52-18.3,15.85a32.8,32.8,0,0,0-3.5,4.22l.79,1c2.32-.9,4.7-1.68,6.93-2.76a213.15,213.15,0,0,0,45.61-30q10.89-9.27,21.26-19.14c4.12-3.87,7.58-8.32,11.46-12.35a6.41,6.41,0,0,1,3.61-2.06c10-.91,20-1.56,30-2.36,7.56-.62,15.1-1.26,22.65-2.06,6.1-.64,8,1.29,6.52,7.34-4.4,17.63-12.06,33.87-21.48,49.32-.44.73-.95,1.44-1.32,2.21-1.2,2.42-2.77,2.91-5.37,1.79-15.14-6.49-30.72-11.54-47.05-14a9.9,9.9,0,0,0-4.92.32c1.4.87,2.79,1.76,4.2,2.6,13.18,7.9,25.54,16.84,36.19,28,2.27,2.38,2.28,3.84.37,6.42-24.37,32.95-55,58.29-92.33,75.29-6.18,2.79-12.47,5.07-18.68,7.68-2.56,1-4.12.67-5.66-2a92.7,92.7,0,0,1-12-36.69c-2.06-19.56,3.78-36.86,14.25-53.07a26.92,26.92,0,0,0,4.29-16.79c-.54-8.13-.21-12.82.43-24.49.84-15.51,3.57-30.89,6.28-46.16,3.39-19.1,9.86-37.07,21.79-52.82,9.45-12.5,21.62-21.25,35.12-28.84,11.9-6.67,24.71-10.08,37.9-12,24.1-3.55,46.27,2.61,67.33,14.31a99.34,99.34,0,0,1,38,37.34c7.9,13.38,12.36,28.23,15,43.55,2.66,15.81,6.48,31.53,7.26,47.53.5,10.3.33,14.94.2,22.4a11.34,11.34,0,0,0,3.09,8.24c11.38,13.38,17.41,28.94,19.1,46.43A80,80,0,0,1,445,506.22C441.23,517,435.6,527,427.62,534.9c-6.23,6.18-13.89,11.33-21.63,15.72-18.14,10.46-38.33,15.13-58.8,18.68-16.53,2.86-33.23,2.93-49.81,2-21.2-1.22-42-5.24-61.92-13.08a95.11,95.11,0,0,1-36.89-25.31A13.32,13.32,0,0,1,197,530.75ZM356.84,289.13c.25.6.52,1.19.83,1.77,7.21,11.57,12.67,24,17.84,36.55a47,47,0,0,0,8.62,13c4.38,4.86,10.95,5,16.48,1.46,6.75-4.41,9.13-13.08,5.75-20.74-3.46-7.85-9.26-13.67-15.84-18.94C380.83,294.46,370.16,289.17,356.84,289.13Z"/><path class="cls-2" d="M362.51,674.43h14.76v6.18c4.52-5.2,9.81-7.87,16.61-7.83s12.36,2.47,15.65,9.37c4.29-6.28,9.91-9.27,17-9.32,10.76-.1,18.15,5.67,18.69,16.4.73,13.9.18,27.8.18,42.11H429.83v-36c0-5.93-2.63-9.08-7.53-9.43-5.65-.41-9.62,2.4-10.29,8.07a150.59,150.59,0,0,0-.64,15.75c-.1,7.09,0,14.19,0,21.62H396V716.16c0-7.21.11-14.41,0-21.67-.11-5.48-3-8.38-8-8.53-5.83-.16-9.49,2.66-9.71,8.15-.31,7.7-.19,15.44-.23,23.13V731.4H362.51Z"/><path class="cls-2" d="M197.76,692.58H183.7a17.05,17.05,0,0,1,12.19-18.09,40.23,40.23,0,0,1,28.35,1.45c6.25,2.68,8.24,8,8.33,14.27.1,10,0,20.08,0,30.12,0,3.29-.38,6.69,2.7,9.11.33.25.18,1.12.31,2-5.29,0-10.4.29-15.45-.21-1.13-.13-2-3.09-3.15-5-.76.59-1.88,1.44-3,2.31a22.29,22.29,0,0,1-19.65,4.49c-7.71-1.75-12.36-7-13-14.42-.76-9.11,2.66-16,10.3-18.73,5.24-1.84,10.93-2.39,16.41-3.55,2.06-.42,4.3-.47,6-1.49,1.43-.88,3-2.89,3-4.4a6.21,6.21,0,0,0-2.93-4.51C207.5,682.49,200.55,685.27,197.76,692.58Zm19.74,11.91c-4.67,1-8.68,1.88-12.68,2.85a18,18,0,0,0-4.44,1.61c-3,1.65-4.12,4.43-3.56,7.74s2.72,5.22,6.18,5.68a12.17,12.17,0,0,0,13.76-9.61c.47-2.6.47-5.28.72-8.23Z"/><path class="cls-2" d="M459.3,692.58c.12-9.36,4.85-15.87,13.28-18.29a40.57,40.57,0,0,1,27,1.38c5.62,2.27,8.57,6.53,8.69,12.42.25,10.9.15,21.8.25,32.7,0,3-.29,6.17,2.55,8.43.2.15-.62,2.34-1,2.34a89.74,89.74,0,0,1-13.91-.27c-1.21-.17-2.06-3.09-3.26-5l-2.58,2.06a22.46,22.46,0,0,1-19.94,4.74c-7.95-1.76-12.08-6.58-13.08-15.13-.91-7.68,2.67-15.13,9.62-17.7,5.43-2,11.32-2.63,17.07-3.87,1.91-.41,4.12-.36,5.64-1.34s3.36-3.09,3.26-4.5a6.79,6.79,0,0,0-3.5-4.76c-6.4-2.8-11.69-.65-15.18,5.39a3.21,3.21,0,0,1-2.24,1.33C467.85,692.64,463.7,692.58,459.3,692.58ZM493,704.51c-3.33.78-6.18,1.42-9,2.13a46.26,46.26,0,0,0-7,2c-3.59,1.49-4.93,4.63-4.12,8.78.7,3.46,3.28,4.68,6.38,5A12.12,12.12,0,0,0,492.86,712c0-.36.07-.73.09-1.1.18-2.06.09-4.12.09-6.38Z"/><path class="cls-2" d="M117.44,732.46V673.08a16.26,16.26,0,0,1,2.77-.42c8.81,0,17.63-.12,26.43.16,13.19.41,21.27,7.21,23.89,20A41.25,41.25,0,0,1,168.59,717c-3.65,9-10.1,14.85-20,15.44-9.39.56-18.83.29-28.25.36C119.5,732.76,118.69,732.58,117.44,732.46Zm14.65-11.69h10.76c6,0,9.91-3.21,11.83-8.7a31.8,31.8,0,0,0,0-20.53c-1-3.09-3-5.65-6.26-6.09-5.36-.73-10.81-.86-16.38-1.25Z"/><path class="cls-2" d="M345.58,731.55H331l-.4-6.18a4.76,4.76,0,0,0-1.35.81c-6.39,8-17.79,8.17-25.25,5.3-6.58-2.52-9.74-7.91-10.07-14.52-.57-11.33-.53-22.74-.63-34.11-.08-8.75,0-8.75,8.63-8.75h7.15v4.12c0,10.77,0,21.54.08,32.32,0,3.67.83,7.21,4.63,8.89,4,1.73,8.24,1.61,11.44-1.23,2.18-2,3.62-5.15,4.49-8s.6-5.81.62-8.74c.06-8.92,0-17.84,0-27.06h15.24Z"/><path class="cls-2" d="M281.89,687.9c-3.09.29-5.66.32-8.15.79-6.07,1.17-9.19,4.49-9.49,10.82-.45,9.76-.48,19.57-.7,29.32,0,.72-.08,1.45-.14,2.52H248.8v-57h14c.13,2.76.24,5.25.41,9.08,4.68-7.58,10.24-11.73,18.69-10.43Z"/><path class="cls-2" d="M41.58,765.67H52.43v3H44.67v5h6.77v2.87H44.67v5.61h7.76V785H41.58Z"/><path class="cls-2" d="M70,765.67H73.3L65.63,785H62.75l-7.7-19.33h3.32l5.41,13.75.38,1.29.42-1.29Z"/><path class="cls-2" d="M76.73,765.67H87.58v3H79.81v5h6.74v2.87H79.81v5.61h7.77V785H76.73Z"/><path class="cls-2" d="M91.87,765.67h5.58a6.72,6.72,0,0,1,4.75,1.66,5.55,5.55,0,0,1,1.79,4.3,5.88,5.88,0,0,1-.91,3.24,5.7,5.7,0,0,1-2.59,2.06l4.38,8.09h-3.58l-4-7.57H95V785H91.88Zm5.58,3H95v6.09h2.48a3.68,3.68,0,0,0,2.48-.78,3.24,3.24,0,0,0,0-4.52A3.53,3.53,0,0,0,97.45,768.62Z"/><path class="cls-2" d="M108.36,765.67h3.09v16.48h8.36v2.9H108.36Z"/><path class="cls-2" d="M129.5,765.67h3.31L140.46,785h-3.39l-1.86-4.73h-8.14L125.24,785h-3.38Zm2,4.91-.36-1-.35,1-2.67,6.91h6.18Z"/><path class="cls-2" d="M149.27,765.31a5.34,5.34,0,0,1,5.84,4.8,6.54,6.54,0,0,1,0,.77H152a2.88,2.88,0,0,0-.79-2.06,3,3,0,0,0-3.92-.08,2.43,2.43,0,0,0-.7,1.86,2.11,2.11,0,0,0,.77,1.79,11.8,11.8,0,0,0,2.83,1.44,10.32,10.32,0,0,1,4.26,2.37,4.69,4.69,0,0,1,1.26,3.45,5.31,5.31,0,0,1-1.74,4.19,6.56,6.56,0,0,1-4.47,1.53,6.7,6.7,0,0,1-4.8-1.65,6.17,6.17,0,0,1-1.77-4.51H146a3.18,3.18,0,0,0,3.47,3.42,3.37,3.37,0,0,0,2.26-.74,2.61,2.61,0,0,0,.81-2.06,2.21,2.21,0,0,0-.84-1.79,8.78,8.78,0,0,0-2.94-1.41,11.13,11.13,0,0,1-4.12-2.24,4.79,4.79,0,0,1-1.29-3.56,5.3,5.3,0,0,1,1.57-4A5.73,5.73,0,0,1,149.27,765.31Z"/><path class="cls-2" d="M158,765.67h16.26v3h-6.57V785h-3.09V768.62H158Z"/><path class="cls-2" d="M177.58,765.67h3.09V785h-3.09Z"/><path class="cls-2" d="M198.46,765.67h3.09V785h-3.09l-8.86-12.86-.75-1.22V785h-3.09V765.67h3l8.8,12.84.84,1.3Z"/><path class="cls-2" d="M215.26,765.31a9.24,9.24,0,0,1,5.65,1.66,8.31,8.31,0,0,1,3.09,4.66h-3.49c-.83-2.27-2.6-3.42-5.33-3.42a5.7,5.7,0,0,0-4.55,2.06,7.2,7.2,0,0,0-1.77,5.15,7.4,7.4,0,0,0,1.77,5.15,5.88,5.88,0,0,0,4.66,2.06,6.13,6.13,0,0,0,4-1.22,4.59,4.59,0,0,0,1.57-3.5h-5.25v-3.09h8.54v1.5a9,9,0,0,1-2.4,6.62,8.72,8.72,0,0,1-6.44,2.41,9.31,9.31,0,0,1-7-2.85,10.87,10.87,0,0,1,0-14.36A9,9,0,0,1,215.26,765.31Z"/><path class="cls-2" d="M243.64,765.31A9.2,9.2,0,0,1,249.3,767a8.31,8.31,0,0,1,3.09,4.66H249c-.84-2.27-2.61-3.42-5.34-3.42a5.7,5.7,0,0,0-4.55,2.06,7.35,7.35,0,0,0-1.77,5.15,7.44,7.44,0,0,0,1.77,5.15,5.88,5.88,0,0,0,4.66,2.06,6.11,6.11,0,0,0,4-1.22,4.59,4.59,0,0,0,1.57-3.5h-5.24v-3.09h8.53v1.5a9,9,0,0,1-2.4,6.62,8.72,8.72,0,0,1-6.44,2.41,9.31,9.31,0,0,1-7-2.85,10.87,10.87,0,0,1,0-14.36A9.05,9.05,0,0,1,243.64,765.31Z"/><path class="cls-2" d="M265.89,765.31a9.44,9.44,0,0,1,7.12,2.84,10.65,10.65,0,0,1,0,14.36,9.54,9.54,0,0,1-7.12,2.85,9.72,9.72,0,0,1-7.21-2.85,10.61,10.61,0,0,1,0-14.36A9.64,9.64,0,0,1,265.89,765.31Zm-6.71,10a7.24,7.24,0,0,0,1.85,5.15,6.83,6.83,0,0,0,9.65,0h0a7.38,7.38,0,0,0,1.84-5.15,7.1,7.1,0,0,0-1.84-5.08,6.81,6.81,0,0,0-9.65,0h0A7,7,0,0,0,259.18,775.31Z"/><path class="cls-2" d="M289.07,765.31a9.48,9.48,0,0,1,7.13,2.84,10.65,10.65,0,0,1,0,14.36,9.57,9.57,0,0,1-7.13,2.85,9.71,9.71,0,0,1-7.21-2.85,10.68,10.68,0,0,1,0-14.36A9.67,9.67,0,0,1,289.07,765.31Zm-6.7,10a7.19,7.19,0,0,0,1.85,5.15,6.83,6.83,0,0,0,9.65,0h0a7.38,7.38,0,0,0,1.84-5.15,7.1,7.1,0,0,0-1.84-5.08,6.83,6.83,0,0,0-9.66,0h0a7,7,0,0,0-1.84,5.08Z"/><path class="cls-2" d="M303.09,765.67h7.07a9.69,9.69,0,0,1,7.21,2.68,10.39,10.39,0,0,1,0,14,9.83,9.83,0,0,1-7.21,2.66h-7.07Zm7.07,2.9h-4v13.49h4a6.65,6.65,0,0,0,4.93-1.78,7.86,7.86,0,0,0,0-10,6.63,6.63,0,0,0-4.93-1.74Z"/><path class="cls-2" d="M329,765.67h16.26v3h-6.59V785h-3.09V768.62H329Z"/><path class="cls-2" d="M351.54,765.67h3.32L362.51,785h-3.4l-1.85-4.73h-8.14L347.3,785h-3.4Zm2,4.91-.36-1-.36,1-2.68,6.91h6.13Z"/><path class="cls-2" d="M371.3,765.31a5.84,5.84,0,0,1,4.21,1.45,5.76,5.76,0,0,1,1.65,4.12H374a3,3,0,0,0-.78-2.06,2.72,2.72,0,0,0-2.06-.76,2.6,2.6,0,0,0-1.92.68,2.43,2.43,0,0,0-.7,1.86,2.11,2.11,0,0,0,.77,1.79,11.49,11.49,0,0,0,2.88,1.41,10.38,10.38,0,0,1,4.24,2.38,4.62,4.62,0,0,1,1.28,3.45,5.35,5.35,0,0,1-1.74,4.19,6.58,6.58,0,0,1-4.47,1.53,6.71,6.71,0,0,1-4.81-1.65,6.12,6.12,0,0,1-1.76-4.51H368a3.2,3.2,0,0,0,3.48,3.42,3.32,3.32,0,0,0,2.25-.74,2.67,2.67,0,0,0,.82-2.06,2.28,2.28,0,0,0-.85-1.79,8.73,8.73,0,0,0-2.93-1.41,11,11,0,0,1-4.12-2.24,4.84,4.84,0,0,1-1.3-3.56,5.34,5.34,0,0,1,1.58-4A5.69,5.69,0,0,1,371.3,765.31Z"/><path class="cls-2" d="M380,765.67h16.26v3h-6.59V785h-3.09V768.62H380Z"/><path class="cls-2" d="M399.63,765.67h10.84v3h-7.75v5h6.76v2.87h-6.76v5.61h7.75V785H399.63Z"/><path class="cls-2" d="M413.4,776.52h8.7v2.62h-8.7Z"/><path class="cls-2" d="M425.82,765.67h3.09V785h-3.09Z"/><path class="cls-2" d="M446.73,765.67h3.09V785h-3.09l-8.87-12.86-.74-1.22V785H434V765.67h3L446,778.51l.82,1.3Z"/><path class="cls-2" d="M467.41,765.67h3.32L478.38,785H475l-1.85-4.73H465L463.2,785h-3.4Zm2,4.91-.36-1-.36,1L466,777.49h6.18Z"/><path class="cls-2" d="M481.83,765.67h3.09v16.48h8.36v2.9H481.83Z"/><path class="cls-2" d="M496.93,765.67H500v16.48h8.37v2.9H496.93Z"/><path class="cls-2" d="M524.61,765.67h3.32L535.57,785h-3.38l-1.85-4.73h-8.15L520.37,785H517Zm2,4.91-.36-1-.36,1-2.68,6.91h6.12Z"/><path class="cls-2" d="M546.75,765.31a9.29,9.29,0,0,1,5.66,1.66,8.34,8.34,0,0,1,3.08,4.66h-3.41c-.84-2.27-2.61-3.42-5.34-3.42a5.7,5.7,0,0,0-4.55,2.06,7.35,7.35,0,0,0-1.77,5.15,7.44,7.44,0,0,0,1.77,5.15,5.88,5.88,0,0,0,4.67,2.06,6.1,6.1,0,0,0,4-1.22,4.64,4.64,0,0,0,1.58-3.5h-5.26v-3.09h8.54v1.5a9,9,0,0,1-2.4,6.62,8.71,8.71,0,0,1-6.43,2.41,9.32,9.32,0,0,1-7-2.85,10.87,10.87,0,0,1,0-14.36A9,9,0,0,1,546.75,765.31Z"/><path class="cls-2" d="M560.06,765.67h10.85v3h-7.76v5h6.76v2.87h-6.76v5.61h7.76V785H560.06Z"/><path class="cls-2" d="M580.59,765.31a5.33,5.33,0,0,1,5.85,5.57h-3.09a2.93,2.93,0,0,0-.79-2.06,2.68,2.68,0,0,0-2-.76,2.56,2.56,0,0,0-1.92.68,2.44,2.44,0,0,0-.71,1.86,2.11,2.11,0,0,0,.77,1.79,11.49,11.49,0,0,0,2.88,1.41,10.48,10.48,0,0,1,4.25,2.38,4.74,4.74,0,0,1,1.27,3.45,5.41,5.41,0,0,1-1.73,4.19,6.6,6.6,0,0,1-4.48,1.53,6.68,6.68,0,0,1-4.8-1.65,6.17,6.17,0,0,1-1.77-4.51h3.09a3.52,3.52,0,0,0,1,2.53,3.42,3.42,0,0,0,2.53.89,3.26,3.26,0,0,0,2.24-.74,2.59,2.59,0,0,0,.82-2.06,2.24,2.24,0,0,0-.84-1.79,9.07,9.07,0,0,0-2.94-1.41,11,11,0,0,1-4.12-2.24,4.75,4.75,0,0,1-1.29-3.56,5.26,5.26,0,0,1,1.57-4A5.72,5.72,0,0,1,580.59,765.31Z"/><path class="cls-2" d="M222.83,635c.84.34,1,.68,1,1.26,0,1.22-1.16,1.71-6.61,1.71H213.7c-2.93,0-3.62-.62-3.62-2.76V620h-5.33c-.51,9.55-2.86,15.51-12.72,19l-.24-.48c7.88-4.29,9.62-10.06,9.86-18.53h-9.1l-.31-1H218l2-2.42s2.21,1.67,3.54,2.86c-.1.37-.44.55-.92.55h-9.68v14.52c0,.62.17.82,1.43.82h3.09c1,0,1.93,0,2.9-.07a.66.66,0,0,0,.72-.51,34.74,34.74,0,0,0,1.29-5.42h.45Zm-26.77-23.42-.24-1h19l1.87-2.39s2.16,1.64,3.44,2.8c-.09.37-.44.55-.91.55Z"/><path class="cls-2" d="M240.79,615.32a2.71,2.71,0,0,1-1.54.42,31.44,31.44,0,0,1-3.61,5.31c6.68,2.39,4.81,6.78,2.49,5.15a12,12,0,0,0-2.7-4.33V638c0,.25-.88.93-2.18.93h-.49V624.09a33,33,0,0,1-5.67,4.32l-.41-.34a37.28,37.28,0,0,0,9.64-12.88h-8.49l-.3-1h5.23v-6.59l3.81.38c0,.48-.37.81-1.23.92v5.29h1.16l1.67-1.58ZM257.09,635s1.46,1.5,2.28,2.52c-.07.35-.41.52-.85.52H237.8l-.28-1H242V609l2.91,1.23h7.39l1.33-1.74L256.9,611a2.39,2.39,0,0,1-1.56.65V637h.47Zm-12.48-23.76v7.61h8.08v-7.61Zm8.08,8.59h-8.08v7.84h8.08Zm-8.08,17.25h8.08v-8.43h-8.08Z"/><path class="cls-2" d="M265.15,615.09c1.15,3.64,1.19,6.64-.25,8.11s-3.57-.17-1.73-2.12a9.84,9.84,0,0,0,1.43-6Zm10.23,1.09a1,1,0,0,1-1.3.3,34.81,34.81,0,0,1-4.27,3.68,54,54,0,0,1-.54,6.72c7.64,3.48,5.38,8.86,2.86,6.78a13.41,13.41,0,0,0-3-6c-.82,4.63-2.53,8.24-6.18,11l-.49-.55c5.53-6.17,4.78-15.44,4.78-30.24l3.85.4c-.07.52-.44.83-1.19,1,0,3.51,0,6.71-.06,9.65.84-1.67,1.8-3.78,2.24-4.91Zm18.23,19.67c.72.27.9.57.9,1.09,0,1-1,1.5-4.91,1.5h-2.48c-2.34,0-2.76-.62-2.76-2.29v-8.93h-3.61c-.44,5-1.67,9.07-11.05,11.83l-.41-.55c7.67-3.09,8.39-6.92,8.6-11.32H272.3l-.28-1h4.33v-5.32h-4.5l-.27-1h4.77V615l3.58.37c0,.45-.34.73-1,.86V620h7.36v-5l3.58.37c0,.42-.31.73-1,.86V620h1.64l1.47-2.06s1.67,1.47,2.63,2.49c-.07.38-.41.52-.86.52h-4.91v5.31h1.43l1.47-2.06a35.76,35.76,0,0,1,2.72,2.48c-.06.38-.4.55-.84.55h-6.65v8.36c0,.44.1.54.88.54h3.78c.3,0,.41-.06.55-.37a23.71,23.71,0,0,0,1-3.89h.39Zm-20.9-23.75h8.59v-4.19l3.89.37c-.1.47-.41.78-1.27.89v2.93h5.39l1.6-2.06s1.85,1.46,2.94,2.52c-.11.38-.41.55-.89.55h-9v3.95c0,.28-1.12.76-2.11.76h-.51v-4.71H273Zm6.18,14.18h7.36V621h-7.36Z"/><path class="cls-2" d="M328.73,613.79a2.8,2.8,0,0,1-1.46.61v20.8c0,2.06-.47,3.34-4.26,3.71a2.9,2.9,0,0,0-.92-2,6.78,6.78,0,0,0-3.3-1v-.51s4,.27,4.87.27c.68,0,.88-.2.88-.78V614H314.48a11,11,0,0,1-.65,1.85c10,2.36,9.18,8.24,6.29,6.81-1.17-2.06-4.12-4.56-6.63-6.17-1.32,2.52-3.82,4.91-8.52,6.88l-.4-.5c4.53-2.67,6.37-5.77,7.15-8.91H303v24c0,.34-1,1-2.21,1h-.48v-27.3L303.2,613H312a34.32,34.32,0,0,0,.41-5.26l4,.39c-.08.41-.37.78-1.1.85a28.69,28.69,0,0,1-.51,4h9.47l1.33-1.67Zm-12.35,8c-.11.37-.4.61-1.19.61a25.47,25.47,0,0,1-1.23,2.9c10.29,3.28,9.27,9.21,6.31,7.7-1.12-2.28-4.12-5.15-6.68-7a17.19,17.19,0,0,1-9.21,7.84l-.28-.48c4.85-2.73,7.48-7.74,8.36-12.61Z"/><path class="cls-2" d="M361.1,626.27a40.7,40.7,0,0,1,3.2,2.69c-.1.38-.37.54-.89.54h-7.59v5.8c0,2.06-.45,3.35-4.24,3.69a2.59,2.59,0,0,0-.85-1.88,7,7,0,0,0-3.31-1v-.5s4.12.27,4.88.27.86-.21.86-.68V629.5H334l-.28-1h19.44v-2.68l3.67.37V624.9H341.15v1c0,.27-1.12.89-2.21.89h-.41V613.89l2.86,1.23h6.07v-3H334.78l-.28-1h13v-3.51l3.92.41c-.11.48-.4.82-1.23,1v2.14h8.63l1.74-2.24s2,1.59,3.09,2.69c-.1.38-.44.54-.92.54H350.15v2.94h6.38l1.33-1.47,3,2.25a2.27,2.27,0,0,1-1.34.65v8.79c0,.28-1.36.89-2.21.89H357c-.1.44-.44.69-1.15.82v1.46h3.6Zm-20.91,4.22c9,1.27,7.34,7.54,4.31,5.8a12,12,0,0,0-4.57-5.46Zm1-14.35v3.37h6.31v-3.37Zm0,7.81h6.31V620.5h-6.31Zm9-7.81v3.37h6.68v-3.37Zm6.68,7.81V620.5h-6.68V624Z"/><path class="cls-2" d="M380.5,608.47l2.83,2.21a2.48,2.48,0,0,1-1.23.59v10.66a3.86,3.86,0,0,1-2.21.79h-.41v-1.88H373.1v17.07c0,.37-1,1-2.21,1h-.48V608.61l2.83,1.33h5.93Zm-7.4,2.42v3.92h6.38v-3.92Zm6.38,9V615.8H373.1v4.05Zm19.94-9.13a2.56,2.56,0,0,1-1.43.68v23.8c0,2.06-.47,3.37-4.5,3.75a2.91,2.91,0,0,0-1-2,8.78,8.78,0,0,0-3.67-1.12v-.51s4.56.31,5.45.31.95-.25.95-.82v-14h-6.68v.89c0,.24-1.12.82-2.21.82H386V608.74l2.8,1.2H395l1.33-1.68Zm-10.84.17v3.92h6.66v-3.92Zm6.68,9V615.8h-6.68v4.05Z"/><path class="cls-2" d="M431.71,610.18s2.16,1.66,3.41,2.89c-.1.38-.4.54-.88.54H410V621c0,5.66-.4,13-5.93,18l-.48-.34c3.38-5.14,3.75-11.52,3.75-17.59v-9.65l3.14,1.3H419v-5.08l3.92.37c-.06.48-.37.82-1.25.93v3.78h8.17Zm-.34,7.64s2.06,1.62,3.31,2.79c-.1.34-.44.51-.92.51H422.89v6h5.86l1.3-1.56,2.76,2.12a2,2,0,0,1-1.3.58V638a2.82,2.82,0,0,1-2.22.72h-.44v-2.26H415v1.71c0,.21-.82.76-2.15.76h-.44V625.89l3,1.22h4.78V614.64l4,.38c-.07.51-.42.81-1.26,1v4.12h6.71ZM415,628.11v7.43h13.84v-7.43Z"/><path class="cls-2" d="M438.49,279.64q-13.62-11.4-26.23-13.16a64.71,64.71,0,0,0-11.64-.42A185,185,0,0,1,421,301.78q6.4,15.27,14.83,16.48A12.59,12.59,0,0,0,446.2,315a16,16,0,0,0,5.54-10.1Q453.45,292.42,438.49,279.64Z"/><path class="cls-2" d="M91.79,139.66l-.93-1,11.33-5.75-2.78-5.48,6.85-2.7c.24.6.11,1.22-.94,2l1.86,3.69,7.9-4-2.79-5.52,7-2.76c.24.6.08,1.24-.93,2l1.86,3.68,4.29-2.17.84-4.88s4.22.94,6.75,1.7c.17.53-.2,1-.86,1.32l-10.4,5.26,1.67,3.29c.22.44-1.45,2.17-3.72,3.32l-.84.42-2.24-4.42-7.86,4,1.78,3.5c.22.44-1.4,2.14-3.59,3.26l-.83.42-2.39-4.65ZM102.09,162c2.06-5.88,3.09-14.65,2.17-22.91l8.11-.74c0,.64-.35,1.27-1.47,1.68a53,53,0,0,1-1.15,7.08l3.73-.46c.07.46-.18,1-.94,1.52l9,17.87c.11.33-1.53,2.31-3.45,3.29l-.93.46-9-17.71a44.24,44.24,0,0,1-5.4,10.19Zm43.06-14.19c1.8-.14,2.48.23,3,1.19,1.14,2.24-.46,4.21-8.23,8.15l-4.74,2.4c-4.65,2.36-6.46,2.06-8.36-1.71l-12-23.68,6.86-2.65c.25.59,0,1.25-.86,1.87l5.41,10.7a63.81,63.81,0,0,0,3-14.2l8,1.11c-.13.73-.52,1.15-1.92,1.42a49.48,49.48,0,0,1-8.47,13l4.31,8.52c.46.91.9,1,2.48.22L137.9,152c1.58-.8,2.89-1.46,3.53-1.84a1.76,1.76,0,0,0,.94-1.3,46,46,0,0,0-1-7.21l.43-.21Z"/><path class="cls-2" d="M194,130.2c1.68,0,2.21.52,2.57,1.54.78,2.18-.81,3.89-8.59,6.65l-4.82,1.71c-4.63,1.64-6,1-7.21-2.49l-4-11.24-3.51,1.25c2.3,9.87-1.44,16.83-13.49,23.45l-.38-.49c8.46-6.76,10.06-12.8,7.89-20.84l-.88.31.33.92c.21.61-1.61,2.66-3.89,3.46l-.83.3L147.08,106l6.57.28,16.82-6,1.59-3.8,6.73,2.2a3.81,3.81,0,0,1-1.59,1.71l7.92,22.34c.08.39-2.16,2.44-4,3.09l-.93.32-.92-2.35-2.06.72.09.23,3.45,9.73c.22.65.48.77,1.91.26l4.12-1.48c1.48-.53,2.83-1,3.46-1.28a1.31,1.31,0,0,0,.92-1.11A58.85,58.85,0,0,0,191,124l.56-.19Zm-40.38-22.53,2.14,6.06,17.65-6.26-2.14-6.1Zm20.25,1L156.26,115l2.2,6.18L176.13,115Zm-12.79,20,17.65-6.27-2.19-6.18-17.66,6.26Z"/><path class="cls-2" d="M199.88,105.2l.11-.87a36.07,36.07,0,0,1,6.64-.47c3.59.06,7.32,1.26,8,4.18a2.49,2.49,0,0,1-1.63,3.09l-.33.08c-2.3.51-3.68-1.4-6.37-2.87A31.07,31.07,0,0,0,199.88,105.2Zm3.88-11.33.1-.92a34,34,0,0,1,7-.63c3.51.18,6.7,1.14,7.37,4.21a2.58,2.58,0,0,1-1.79,3.09c-2.3.5-3.58-1.17-6.64-2.91a34.16,34.16,0,0,0-6-2.89Zm33.73-.39,1,.38c-2.66,10.75-11.32,23-20.46,31.49-1.38,1.26-1.66,3-3.28,3.34-2.06.45-5.76-1-7.63-2.84a11.35,11.35,0,0,1-2.26-4.54l.55-.48c1.31.88,3.3,2.4,5.15,2,5.54-1.23,20.94-17.65,26.9-29.39Z"/><path class="cls-2" d="M250.89,97.25c1.65,1.82,2.6,3.09,5.2,2.82,5.24-.5,19.92-2.88,22.88-3.41,3.25-.6,5.42-1.2,6.6-1.31,2.93-.28,5.62,1,5.82,3.09.13,1.42-1,2.21-3,2.4s-3.69.21-7.12.53c-3.71.35-14.61,2.06-18.33,2.88-3.5.67-4.12,1.92-6,2.06s-5.24-2.71-6.35-5a7.83,7.83,0,0,1-.49-3.71Z"/><path class="cls-2" d="M308.75,83c1,1.45,2.38,2.91,4,3,3.4.09,12-1.31,14.42-1.84,1.24-.27,2.06-1.67,3.09-1.63,2.12,0,6.43,4,6.39,5.52s-2.31,2.06-2.92,2.92a88.86,88.86,0,0,1-7.69,10c8,2.72,15.09,7.58,14.95,13a3.09,3.09,0,0,1-3.09,3.09h0c-1.92,0-3.15-1.55-4.76-4.21-2.16-3.79-4-7.33-8.47-10.49a56.78,56.78,0,0,1-24.48,14.5l-.51-1c11.7-5.69,24.12-17.9,28.36-27.37.3-.73,0-.94-.52-1A81.39,81.39,0,0,0,316.77,90c-1.64.5-2.26,1.66-3.63,1.63-2.17-.06-4.4-3-4.94-4.81a10.35,10.35,0,0,1-.3-3.59Zm25.13-4.27c2.74.81,5,1.76,6.51,3.22a3.5,3.5,0,0,1,1.35,2.79,1.72,1.72,0,0,1-1.68,1.74h-.23c-.78,0-1.4-.72-2.16-1.93a23,23,0,0,0-4.28-5.14Zm4.62-3.17a17.11,17.11,0,0,1,6.32,2.53,3.74,3.74,0,0,1,1.64,3.09A1.58,1.58,0,0,1,345,82.84h-.23c-1,0-1.55-.79-2.45-2.06A20,20,0,0,0,338,76.14Z"/><path class="cls-2" d="M395.58,93.92l.8.71c-7.05,9.85-17.15,17.13-29.43,22.4-1.7.75-2.57,2.27-4,2.06-2.78-.4-5.76-3.77-6.45-5.86a11,11,0,0,1-.41-4.59l.76-.34c1,1.34,2.43,3.44,4.18,3.69C366.27,112.76,387.22,102.29,395.58,93.92Zm-35.45-10c6.6,1.75,14.17,5.77,13.44,10.79a3.19,3.19,0,0,1-3.51,2.81h-.13c-1.55-.23-2.45-1.25-3.42-3.09a31.65,31.65,0,0,0-6.93-9.75Z"/><path class="cls-2" d="M413.62,123.49c3.49.44,7.29.9,11.05,1.32l-.07.63c-5.26.82-13,1.72-24.31,2.52a2.2,2.2,0,0,1-1.7.81l-.88-7.46c2.15.37,5.81.91,10.3,1.47l2.21-8.16-8.8-2.39V110.8l9.15,2.49,1.82-6.77L419.2,109c-.26.59-.71.93-1.9.8l-1.34,5,2.13.58,3.87-3.18s2.44,3.57,3.75,5.86c-.23.49-.81.6-1.48.41l-8.63-2.35Zm15.45-33.1s2.55,3.55,3.94,5.91c-.28.49-.82.59-1.48.42l-10.67-2.91a80.17,80.17,0,0,1-7.9,7.3l9.87,2.06A19.83,19.83,0,0,0,421,97.94l.47-.23c12.36,7.07,5.15,15.86,1.49,10.8a12.52,12.52,0,0,0,0-4c-4,.34-9.47.58-16.76.79a2,2,0,0,1-1.71.66l-.39-7c1.42.39,3.63.89,6.32,1.47,1.34-2.49,2.84-5.75,4-8.44l-7.77-2.12V88.5l18.48,5Zm2.83,35.3c-.12.48-2.57.88-4.52.35l-.91-.25,8.24-30.21,6.6,2.52c-.33.62-.78,1-2.12.84Zm19.56-28.44c-.28.69-.88,1-2.06.92l-9.66,35.6c-1,3.75-2.4,5.67-8.66,4.54a7,7,0,0,0-.07-4.12c-.47-1-1.37-1.9-3.54-2.9l.19-.67s4.66,1.58,5.65,1.85c.81.22,1.11.05,1.28-.57l10.08-37.22Z"/><path class="cls-2" d="M477.83,132.26c1.47,7.36,7.13,14.77,13.39,19.37l-.32.5c-2.21-.43-4.51.63-6.18,3q-8.24-9.17-7.76-22.75l-7.44,17.94c-.24.59-3.15.93-5.14.08l-1-.43,6.23-15c-6.65,3.58-14.72,5.34-23.6,5.22l-.19-.71a47.83,47.83,0,0,0,22.78-11l-14.63-6.07.09-1.39,18.12,7.51,5-12.12-15.83-6.54.16-1.42L477.62,115l3.28-7.71,6.85,3.64c-.35.59-.91.89-2.2.57l-2.4,5.77,8.24,3.41,4.68-2.59s2.36,4.07,3.76,6.73c-.3.45-.94.46-1.58.19l-15.62-6.47-5,12.13,9.67,4,4.87-2.61s2.4,4.12,3.83,6.8c-.35.45-.9.49-1.58.2ZM466.1,112.58c10.74,9.27,1.59,16.42-1.3,10.3,1.16-3.19,1.13-7.21.81-10.3Zm14.16,17.8a86.09,86.09,0,0,0,8.18-8.69l5.71,5.5a1.82,1.82,0,0,1-2.21,0,41.08,41.08,0,0,1-11.33,3.73Z"/><path class="cls-2" d="M498.5,157.62a3.78,3.78,0,1,1,1.73,5.53A4.12,4.12,0,0,1,498.5,157.62Zm21-22.65c-1,2.06-3.52,5.32-8.24,11L507,152.08l-1.35-.71,2.51-7c2.06-7.15,3.32-11,4.39-13.06,1.23-2.35,3.18-2.89,5.35-1.75s2.85,3,1.63,5.38Z"/><path class="cls-2" d="M516.75,167.53a4.12,4.12,0,1,1,1.51,5.62h-.07A4.11,4.11,0,0,1,516.75,167.53Zm22.09-21.63c-1.17,2-3.76,5.15-8.81,10.6l-4.59,5.86-1.32-.77,2.86-6.88c2.38-7,3.87-10.83,5-12.83,1.35-2.29,3.31-2.72,5.43-1.47a3.65,3.65,0,0,1,1.8,4.83,4.89,4.89,0,0,1-.42.69Z"/><path class="cls-2" d="M32.84,258.07c.19.29,0,.63-.4,1.16,4.31.89,9.59-.23,14.27-2.14l.25.32a2.49,2.49,0,0,0-.06,2.53c-4.74,1.36-10.25,1.57-14.56-.11,1.22,4.76.88,11.91-.86,17.32l-.41-.1c1.09-5.2.63-13.2-1.32-17.08Zm5.77,4.06s2-.23,3.23-.28c.17.24.06.53-.2.8l-7.53,7.7-.7-.39L39,264.33Zm5.87,1.29,3.08-.27a2.11,2.11,0,0,1-.6,1.22c.92,2.32,2.55,6.69,3.56,9.75a3.32,3.32,0,0,1-1.78,1.41c-1-3.19-2.57-7.2-3.68-9.83l-9.85,10.07-.69-.38,10-10.3Z"/><path class="cls-2" d="M69.49,243.73s2.13-.2,3.46-.2c.15.26,0,.55-.24.77l-6.79,6L70,255c.11.12-.1,1-1,1.72l-.3.27-4.54-5.15-9.09,8-.67-.43,3.44-3-5.39-6,2.59-.9L59,246l-3.29-3.76L51.51,246a23.44,23.44,0,0,1-.71,8.86h-.45a31.41,31.41,0,0,0-2.25-12.71L51.32,241a1,1,0,0,1-.51,1,30.5,30.5,0,0,1,.58,3.09l9.2-8-.09-2.34s2.06-.19,3.48-.17c.13.27,0,.55-.28.81l-6.18,5.39,3.31,3.72,3.09-2.73-.12-2.21s1.94-.15,3.27-.15c.13.23,0,.53-.27.76L61.29,245l4.12,4.7L69.6,246Zm-5.81,7.53-4.12-4.64-4.12,3.63,4.12,4.61Z"/><path class="cls-2" d="M87.77,238.26c4.46-4.94,4.77-9.45,1.9-13.26a7.44,7.44,0,0,0-10.3-1.94,5.12,5.12,0,0,0-.52.4c-.25.19-.49.4-.75.63a5,5,0,0,1,2.84,1.56,13.6,13.6,0,0,1,2,4c1,3.24,1.67,9.11-.61,10.83-1.51,1.14-4.77-.08-6.78-2.75a10.29,10.29,0,0,1-1.63-8.23,11.48,11.48,0,0,1,4.53-7c4.5-3.4,10.15-2.95,13.46,1.45,2.74,3.63,3,9-3.62,14.62ZM77.33,224.87A10,10,0,0,0,75,230a8.41,8.41,0,0,0,1.51,6.31c1.44,1.93,3.47,2.81,4.34,2.16,1.33-1,.83-5.67.27-8.12a12.65,12.65,0,0,0-1.82-4,4.27,4.27,0,0,0-2.06-1.43Z"/><path class="cls-2" d="M105.34,216.19a15.83,15.83,0,0,1,5-5.47c2.68-1.71,5.61-1.31,7.27,1.29,1.47,2.28.94,5.35-1.93,7.21a6,6,0,0,1-5.82.24l.14-.57a6.19,6.19,0,0,0,4.34-.89,3.64,3.64,0,0,0,1.55-4.92c-.07-.12-.14-.26-.22-.37-1-1.63-2.9-2.29-5.27-.76-1.77,1.12-3.17,3.32-4.28,5.41,2.06,3,2.86,3.67,3.39,4.5.66,1,.71,2.58,0,3.08s-1-.35-2.21-.55a21.67,21.67,0,0,0-3.41-.27c-.25,1-.33,1.5-.69,1.73a1.36,1.36,0,0,1-1,.07,1.71,1.71,0,0,1-1.16-.79c-.4-.6-.38-.87.19-1.16a2.22,2.22,0,0,0,1.12-1.14c.48-.92,1.34-3.36,2.32-5.22l-.91-1.4L102,213.49a16.71,16.71,0,0,1-2.18,1.94c-1.18.75-2.36,1.09-4.57-.5l.18-.5c1.81.36,2.34.36,3.45-.41A14.11,14.11,0,0,0,101,212c-1-1.57-1.89-3-2.25-3.5s-.54-.56-1-.46a5.35,5.35,0,0,0-1.56.75l-.32-.36a3.81,3.81,0,0,1,1.38-1.62c.91-.59,2.9-.82,3.27-.24s.24,1.11.54,1.92a17.36,17.36,0,0,0,1,2.18c1.17-1.6,1.44-2.72,1.86-3s1.26-.75,1.71-.1a1.36,1.36,0,0,1-.17,1.4,32.83,32.83,0,0,1-2.48,3.37c.57,1,1.19,2.06,1.8,3Zm0,2.65a37.3,37.3,0,0,0-1.39,4.51c1-.11,2.31-.28,3.09-.41.61-.14.66-.39.37-.85Zm.77-13.65a8.11,8.11,0,0,1,2.88-2.14c2.06-.87,4.62-.39,5.61,1a1,1,0,0,1-.06,1.45h0c-.46.42-1.17,0-1.79.51a10.41,10.41,0,0,0-1.35,1.76l-.48-.21a22.3,22.3,0,0,0,1-2.35c.07-.46,0-.67-.5-.88-1.6-.67-3.45.21-4.91,1.27Z"/><path class="cls-2" d="M116.71,197.25l-.52-.62,6.4-3.45-1.49-2.77,2.79-1.18c.13.35.07.68-.5,1l1,1.89,4.84-2.63-1.52-2.68,2.82-1.2c.15.34.07.68-.48,1l1,1.88,3.17-1.7.35-2.15s1.94.33,3.08.68c.1.28-.07.53-.38.69l-5.89,3.18,1,1.82c.1.18-.44.86-1.28,1.35l-.3.16-1.26-2.33-4.85,2.62,1,1.94c.11.2-.52.91-1.25,1.3l-.3.17L123,193.86Zm6,12a29.25,29.25,0,0,0,1-12.54l3.23-.36c0,.32-.18.67-.74.9a25.84,25.84,0,0,1-.3,3.74l1.74-.24a1,1,0,0,1-.5.81l5.27,9.75a3,3,0,0,1-1.24,1.31l-.3.16-5.33-9.84a22.9,22.9,0,0,1-2.47,6.44Zm23-7.7c.76-.1,1,0,1.21.4.48.89-.24,1.67-4.38,3.9l-2.72,1.43c-2.14,1.17-2.93,1-3.77-.47L129.11,194l2.76-1.12c.14.31,0,.65-.46,1l3.17,5.86A34.93,34.93,0,0,0,137,191.5l3.19.47c-.07.34-.26.54-.92.65a28.51,28.51,0,0,1-4.34,7.72l2.7,5c.28.51.54.59,1.56,0l2.49-1.34c1.14-.62,2-1.11,2.33-1.32a.71.71,0,0,0,.39-.67,27.31,27.31,0,0,0-1-3.89l.28-.15Z"/><path class="cls-2" d="M171.35,190c.67,0,.92.11,1.1.49.37.84-.28,1.54-4.19,3.3L165.62,195c-2.06.92-2.66.72-3.29-.68l-2.67-5.95-2.48,1.11c1.49,5.15-.25,8.69-6.08,12.56l-.27-.32c4.51-3.86,5.55-6.93,4.19-11.32l-1.72.77.35.79c.11.22-.46,1-1.28,1.39l-.32.15-6.67-15h2.49l9.88-4.41.51-1.59,3,.73a2.14,2.14,0,0,1-.83.93l5.45,12.18a3.35,3.35,0,0,1-1.34,1.35l-.32.13-.55-1.22-2.06.9h0L164,193c.16.36.29.39,1.14,0l2.36-1a19.26,19.26,0,0,0,2.15-1c.31-.2.37-.27.36-.55a25.14,25.14,0,0,0-.59-3.66l.31-.14ZM148,179.31l1.4,3.15,10.3-4.6-1.4-3.09Zm12-.72-10.3,4.59,1.46,3.26,10.3-4.59ZM153,190.43l10.29-4.59-1.48-3.31-10.3,4.59Z"/><path class="cls-2" d="M180.25,177c0,1.53-.15,4.52-.07,5.55a7.25,7.25,0,0,0,.26,2c.27.77,1,1.41,1.28,2.06a.86.86,0,0,1-.34,1.17l-.19.08a1.9,1.9,0,0,1-1.67-.49,11.58,11.58,0,0,1-3.5-5.15,23.94,23.94,0,0,1-1.15-6.92,16.91,16.91,0,0,0-.5-3.25,4.28,4.28,0,0,0-2.33-2.21l.26-.45a5.24,5.24,0,0,1,1.72.26c.76.24,2.39,1,2.79,2.15.22.6,0,1.2-.09,2.81a15.92,15.92,0,0,0,.54,6.69,4.31,4.31,0,0,0,1,1.86c.29.26.49.25.59-.19.26-1,.59-4.48.74-5.94Zm.75-6.48a12.35,12.35,0,0,1,5.43-3.94,8.32,8.32,0,0,1,3.69-.67,1.25,1.25,0,0,1,1.19.72c.13.4,0,.73-.51,1a10.1,10.1,0,0,0-2.06,1.27,40.82,40.82,0,0,0-3.31,3.65l-.56-.3a43.12,43.12,0,0,0,2.32-3.64c.2-.41.16-.59-1.53,0a16.45,16.45,0,0,0-4.29,2.4Zm2.46,7.69A10.12,10.12,0,0,0,184.9,180c1.43,1.23,3,1.61,6.08.49a25.26,25.26,0,0,0,4-1.93c.77-.28,1.67-.27,1.9.38.42,1.17-1.84,2.32-4.63,3.31-4.12,1.48-6.74.72-8.3-1.7a9.38,9.38,0,0,1-1-2.05Z"/><path class="cls-2" d="M206.86,168.54c-.11,1.48-.36,4.57-.44,5.58a8.16,8.16,0,0,0,.14,1.91c.22.82.82,1.53,1,2.22a.9.9,0,0,1-.46,1.16l-.17.05c-.51.15-1-.17-1.65-.68a11.83,11.83,0,0,1-3.17-5.66,27.86,27.86,0,0,1-.73-7.39,14.31,14.31,0,0,0-.2-3.27A4.78,4.78,0,0,0,199,160l.3-.41A4.12,4.12,0,0,1,201,160a4.82,4.82,0,0,1,2.65,2.45c.16.59-.1,1.19-.31,2.78a17.69,17.69,0,0,0,.11,7.21,5.13,5.13,0,0,0,1,2.23c.25.29.48.26.62-.16.32-1,.82-4.61,1-6.09Zm9.27-5.87c.75,2.54,1.6,4.87,2.22,6.66a10.06,10.06,0,0,1,4.87,1.16,2.18,2.18,0,0,1,1.31,1.26c.16.62,0,1-.53,1.18s-.85-.11-1.59-.49a10.85,10.85,0,0,0-3.34-1.28,5.62,5.62,0,0,1,.19.58c.57,2.06-.36,3.8-3.58,4.68-2.27.62-4.47,0-5-1.92-.62-2.25,1.45-3.91,4.26-4.68a12.09,12.09,0,0,1,1.69-.36c-.57-1.76-1.42-4.27-2-6.33a21.25,21.25,0,0,1-2.71,1c-1.57.43-2.79.43-4.74-1.41l.27-.43a6.19,6.19,0,0,0,3.87.3,15.47,15.47,0,0,0,2.86-1c-.34-1.23-.7-2.56-.88-3.18s-.35-.8-.77-.82a8,8,0,0,0-1.89.19l-.19-.48a5.41,5.41,0,0,1,1.73-1.23c1.28-.35,2.9,0,3.09.64a17.25,17.25,0,0,1,.08,1.9,18,18,0,0,0,.33,2.06c.42-.28.77-.51,1-.72,1.18-.82,1.54-1.24,1.76-1.3.61-.17,1.6-.08,1.76.51s-.17.89-1,1.5a30,30,0,0,1-3.12,1.79Zm.87,8.24a10.57,10.57,0,0,0-2.74.42c-1.53.42-3,1.5-2.66,2.68s1.57,1.24,3,.85c2.74-.75,3-1.88,2.44-3.85Z"/><path class="cls-2" d="M246.9,151.75s1.84,1,2.94,1.67c0,.28-.26.45-.6.52l-16.69,3.24.43,2.21a26.39,26.39,0,0,1,.38,2.67l8.11-1.56.87-1.5,2.79,1.39a2.09,2.09,0,0,1-1.08.77l1.87,9.62a3.71,3.71,0,0,1-1.67.86l-.34.07-2.09-10.56-8.48,1.64c.32,4.25-.46,8.42-4.05,11.71l-.4-.23c3.09-4.24,3-9.33,2-14.5l-1.79-9.26,3-.27c0,.38-.14.68-.77.91l1,5.25,6.59-1.29L237.55,148l3.09-.29c0,.37-.14.64-.75.86l1.2,6.18,4.75-.92Z"/><path class="cls-2" d="M262.81,145.07c-.07.33-.36.61-.93.65a38.63,38.63,0,0,1-2.06,6.18l1.26.3c-.05.24-.26.46-.71.59l1.78,15.3a2.59,2.59,0,0,1-1.68.89h-.38l-1.58-14.34a23.92,23.92,0,0,1-2.87,4.12l-.41-.22a42.28,42.28,0,0,0,4.31-14.1Zm13.78,2.54a28.22,28.22,0,0,1,2.62,1.86c0,.3-.29.46-.64.49l-4,.48,1.57,13.5c.19,1.69-.09,2.79-3.36,3.52a2.16,2.16,0,0,0-1-1.52,7.76,7.76,0,0,0-3.23-.52V165s3.94-.19,4.7-.28.77-.28.71-.74l-1.53-13.32-10.3,1.15-.3-.74,10.44-1.21-.75-6.52h3.3c0,.41-.24.67-.89.83l.63,5.47,1-.12Zm-12.45,6.67c7.38,2.53,6.25,7.43,3.87,6a17.16,17.16,0,0,0-4.12-5.82Z"/><path class="cls-2" d="M291.53,153.82c-.53,1.8-1.28,4.38-1.49,5.39a6.35,6.35,0,0,0-.2,1.79c0,.84.46,1.31.5,2.22a.86.86,0,0,1-.76.95h-.18a1.9,1.9,0,0,1-1.5-1,12,12,0,0,1-1.84-6.44c-.14-3.47,1.39-7.43,1.31-9.55a4.58,4.58,0,0,0-1.66-2.87l.3-.38a5.55,5.55,0,0,1,1.65.73,4.63,4.63,0,0,1,2.06,3,6,6,0,0,1-.75,2.26,16.14,16.14,0,0,0-1.51,6.48,6.78,6.78,0,0,0,.62,2.76c.23.38.44.37.66,0,.47-.87,1.52-3.69,2.16-5.49Zm5.79-10a6,6,0,0,1,2.06-.66c1.09,0,2.86.64,2.9,1.42a11.08,11.08,0,0,0-.33,1.81c0,.61.06,1.53.14,2.48a13.8,13.8,0,0,0,1.34-.53,10.81,10.81,0,0,1,1.44-.73c.65,0,1.54.31,1.57.92,0,.45-.18.75-.8,1a19.13,19.13,0,0,1-3.37,1.23c.28,2.82.71,6.88-.28,9.26-1.09,2.89-3.45,4.28-6.42,5.36l-.31-.5c2.4-1.45,4.12-2.92,4.87-5.71.73-2.17.49-5.45.28-8a19.23,19.23,0,0,1-2.93.36,4.93,4.93,0,0,1-4.6-2.53l.3-.42a7,7,0,0,0,4.12,1.24,14,14,0,0,0,2.94-.5c-.13-1.48-.31-3.14-.42-3.9-.08-.57-.25-.76-.65-.87a8.93,8.93,0,0,0-1.79-.3Z"/><path class="cls-2" d="M314.93,149c0-1.45-.25-2.23-2-3.58l.23-.36a6.86,6.86,0,0,1,1.89.45c1,.52,2.46,1.84,2.42,3s-1.15,2.8-1.25,5.68c-.09,3.09,1.28,4.73,2.32,5.29a.69.69,0,0,0,.95-.16h0a42.64,42.64,0,0,0,2.76-4.71l.65.31a41.48,41.48,0,0,0-1.68,4.85c-.23,1.29.19,1.38.17,2.06,0,.86-.91,1.3-2.14.75-2.06-1-4.63-3.37-4.63-8.23C314.67,152.33,314.93,150.38,314.93,149Zm12.35-.39.21-.57a8.44,8.44,0,0,1,5.15,2.76,8.91,8.91,0,0,1,2.11,6c0,1.21-.49,1.79-1.33,1.76a1,1,0,0,1-1-1,16.84,16.84,0,0,0-1.17-5.15,7.67,7.67,0,0,0-4-3.74Z"/><path class="cls-2" d="M346.21,144.8l.18-.51a9.14,9.14,0,0,1,4.79,1.8,3.15,3.15,0,0,1,1.48,2.94c-.06.68-.42,1-1,1s-1-.34-2.18-.45a18.45,18.45,0,0,0-3.93.14c-.45,0-.58.21-.61.47s.22,1,.19,1.65a10.51,10.51,0,0,1-.62,2.19,18.22,18.22,0,0,0-.94,3.55c0,.29.12.33.35.2,2.84-1.85,6.18-3.09,9.17-2.81,4,.4,5.71,3.25,5.44,6-.48,4.85-7.9,6.11-14,5v-.61a27.77,27.77,0,0,0,5.15-.36c4.94-.94,6.55-2.94,6.74-4.92A3.75,3.75,0,0,0,353,156h-.21c-3-.3-6.35,2-8.47,4-.53.56-.93,1.4-1.54,1.34a1.48,1.48,0,0,1-1-.74,2.16,2.16,0,0,1-.45-1.4c0-.48.29-1,.47-1.79.33-1.46,1-3.78,1.36-5.05a16.78,16.78,0,0,0,.28-2.23,1.28,1.28,0,0,1,1.26-1.24c1.32-.18,3.94-.51,5-.8.38-.13.43-.36.13-.82A7.66,7.66,0,0,0,346.21,144.8Z"/><path class="cls-2" d="M374.65,148.74a4.15,4.15,0,0,1,2.06-.33c1.17.2,2.77,1.09,2.65,1.79s-.59,1-.74,1.68c-.07.31-.18.77-.27,1.35,4.54.27,5.88.23,6.41.31,1,.18,2.41,1,2.26,1.94-.11.58-.45.7-1,.61a32.81,32.81,0,0,0-7.9-1.55c-.24,1.26-.49,2.69-.67,4a5.13,5.13,0,0,1,.49,3.74c-.83,4.95-5.15,7.2-10.56,7.45l-.21-.65c3.38-.64,6.29-2.06,7.71-4.36-2.77.63-4.47-1.8-4-4.44a3.63,3.63,0,0,1,4-3.21h.11a3.49,3.49,0,0,1,1,.31c.1-.77.24-1.84.36-3a49.51,49.51,0,0,0-6.89.13,13.34,13.34,0,0,1-2.59.35,3.63,3.63,0,0,1-2.16-2.46,4.8,4.8,0,0,1,0-1.69l.51-.1c.52,1,.86,1.84,1.75,2s6.38.35,9.5.49c.1-.94.18-1.82.23-2.45s-.08-.69-.48-.88a6.78,6.78,0,0,0-1.7-.56ZM376,161.09c.26-1.59-.31-2.62-1.43-2.81a2.29,2.29,0,0,0-2.53,2v.06a2.21,2.21,0,0,0,1.55,2.72h.14c1.25.22,2-.33,2.24-2Zm5.74-12.78a9.16,9.16,0,0,1,2.53,2.06,2.07,2.07,0,0,1,.57,1.71.69.69,0,0,1-.73.63H384c-.42-.07-.61-.66-1-1.37a13.26,13.26,0,0,0-1.68-2.64Zm3.09-.46a9.14,9.14,0,0,1,2.61,1.92,2,2,0,0,1,.56,1.71.71.71,0,0,1-.79.61h-.06c-.39-.07-.62-.61-1-1.35a10.9,10.9,0,0,0-1.69-2.52Z"/><path class="cls-2" d="M393.23,154.38a5.12,5.12,0,0,1,2.06-.15c1.19.29,2.66,2,2.51,2.67-.13.49-.79.74-1,1.55-.49,1.35-2.24,8-2.8,10.38-.07.25,0,.35.23.36,4.79-.33,12-3,16.54-5.89l.35.57c-4.25,3.7-10.08,6.18-16.25,7.64-.95.24-1.13.88-1.75.72a3.58,3.58,0,0,1-1.65-2.78c.12-.44.66-.72.9-1.58.5-1.76,2.33-9.27,2.63-11.33.12-.56,0-.94-1.78-1.75Z"/><path class="cls-2" d="M434.92,167.7l.44.53c-4.68,4.51-10.65,7.21-17.35,9.08-.69.18-1.21.76-1.81.58a5.3,5.3,0,0,1-2.6-3.09,5.94,5.94,0,0,1,.06-2.06l.47-.14c.46,1,1,2.13,1.86,2.38C418.17,175.7,429.69,171.85,434.92,167.7Zm-16.81-7.78c2.85,1.63,6,4.4,5.36,6.55a1.16,1.16,0,0,1-1.38.84H422c-.52-.16-.83-.62-1.21-1.61a17.6,17.6,0,0,0-3.15-5.35Z"/><path class="cls-2" d="M448.62,172a39.94,39.94,0,0,0,5.15,1.28c.72.12,1.13-.3,1.61-.12s1.92,2.06,1.63,2.83c-.19.53-1.17.4-1.72.88a43.18,43.18,0,0,1-5.83,4.21c1,1.6,1.74,3.23,1.39,4.29a1,1,0,0,1-1.24.77h0l-.15-.05c-.83-.29-.84-1.45-1.84-4a31.75,31.75,0,0,1-14.27,3.23l-.12-.65a36.34,36.34,0,0,0,13.57-4.32,22.77,22.77,0,0,0-3.86-5.27,23.75,23.75,0,0,1-6.55,1.88l-.19-.64c4.92-1.44,11.18-5.55,11.74-7,.17-.46-.31-1.12-1-1.84l.29-.37a5.44,5.44,0,0,1,1.52.61c1.13.63,2.23,2,2.06,2.47s-.59.54-1.2,1c-.36.28-.71.55-1.1.83Zm5,2.58a29.38,29.38,0,0,0-4.05-.83,6.39,6.39,0,0,1-1.51-.21,2,2,0,0,1-.75-.79,37.22,37.22,0,0,1-3.65,2.06,35,35,0,0,1,4.67,4.68,23.48,23.48,0,0,0,5.4-4.37C453.94,174.77,453.94,174.61,453.62,174.54Z"/><path class="cls-2" d="M465.33,180.86l.23-.48a5.27,5.27,0,0,1,1.65.46c.89.48,2.25,2.33,1.88,3.09-.23.53-.8.56-1.2,1.1A17.47,17.47,0,0,1,455.37,192l-.18-.62c5.15-1.35,9.93-5.29,11.33-8.37C466.87,182.2,465.9,181.35,465.33,180.86Zm6.3-.87a4.56,4.56,0,0,1,1.82.41c1.08.49,2.29,2.22,2,2.87s-.79.36-1.24,1.09c-.67,1.15-3.68,7.21-4.5,9-.14.31,0,.49.3.49a32.2,32.2,0,0,0,11.84-2.19l.3.61a31.86,31.86,0,0,1-12.36,3.84c-.7.08-1.4.64-1.92.4a3.08,3.08,0,0,1-.87-2.67c.22-.49.59-.52,1.1-1.45.7-1.27,3.78-7.58,4.7-10,.27-.64-.26-1.21-1.39-1.93Z"/><path class="cls-2" d="M486.38,202.47c-1,3.24-3.29,4.23-4.76,4.2-1,0-1.87-.56-1.78-1.32s.74-1,1.45-1a5.14,5.14,0,0,0,4.78-2.06Zm16.82,1.13-2.65,4.77.83.46,1.92-.93a30.94,30.94,0,0,1,1,3,.66.66,0,0,1-.82,0L483,199.53l.21-.79,3.49,1.94,2.65-4.76L485.91,194l.16-.78,3.69,2.06,2.16-3.88a18.18,18.18,0,0,1-4.64.6l-.14-.41a25.89,25.89,0,0,0,8.7-4.59l2.06,2.64c-.27.18-.65.18-1.12-.17a22,22,0,0,1-2.35,1.12l.24.28,12,6.61,2.06-.87s.74,1.81,1.13,3a.66.66,0,0,1-.84,0l-2.8-1.52-2.64,4.77.88.49,2-.88a30.08,30.08,0,0,1,1,2.94.58.58,0,0,1-.78,0Zm-13.95.73c2.15,5.15-1.72,7.35-2.23,4.88a12,12,0,0,0,1.84-4.94Zm-.87-2.73,2.26,1.27,2.65-4.77L491,196.83Zm3-5.44,2.27,1.27,2.65-4.77-2.27-1.26ZM495,199l-2.65,4.76,2.45,1.36,2.65-4.76Zm-1.5,7.61c3.75,5.27.08,8.13-.81,5.73a11.35,11.35,0,0,0,.43-5.72Zm4.53-13-2.65,4.77,2.46,1.36,2.65-4.77Zm3.52,9.07-2.43-1.35-2.65,4.77,2.43,1.35Zm-3.41,6.18c5.76,6,2,9.9.67,7.39.47-2.06-.19-5.22-1-7.33Zm4-13-2.64,4.78,2.43,1.35,2.66-4.77Z"/><path class="cls-2" d="M515.93,213.37c4.44,4.86.84,7.62-.1,5.35a9.42,9.42,0,0,0-.14-5l-5.85,8.86c-.16.24-1.15.16-1.74-.24l-.33-.22,5.45-8.23a20.17,20.17,0,0,1-7.21,2.26l-.1-.47a25.11,25.11,0,0,0,8.62-5.28l-3.35-2.23.22-.73,4.25,2.8,5.53-8.39,2.28,1.87c-.27.27-.57.39-1.2.1l-5,7.51,1.35.89,1.92-.64s.57,1.72.87,2.86a.68.68,0,0,1-.83,0L516.9,212Zm.31-12.1c2.27,5.37-1.53,7.43-2,5.15a13.79,13.79,0,0,0,1.66-5.15Zm12.14,21.49s.7,1.63,1.09,2.72a.62.62,0,0,1-.77.15l-3.21-1.26-3.92,5.94c-.17.25-1.2.16-1.86-.27l-.33-.21,4.12-6.23-7.06-2.78,0-.76,7.46,2.88,8.87-13.39,2.34,1.93c-.27.26-.57.38-1.18.11l-8,12.17.48.19Zm-9.26-12.61c1.2-1,3-2.7,4.5-4.12l1.88,2.28a1,1,0,0,1-1.11-.09,37.76,37.76,0,0,1-5.06,2.3Zm3.44,2.94c4.79,4.46,1.37,7.41.28,5.15a9.36,9.36,0,0,0-.6-5.15Zm3.93-4.84c4.47,4.61,1,7.35,0,5.15a9.12,9.12,0,0,0-.3-5.07Z"/><path class="cls-2" d="M546.69,223.07c3.3,2.49,3.86,5.38,2.2,7.58-1.21,1.59-3.4,2.3-6.42.84,2.81,2.82,3,5.34,1.53,7.21-1.59,2.11-4.9,2.94-9.32-.41l-6.31-4.77.61-.8,2.33,1.39q2.38-3.09,4.72-6.18l.85-1.12c1.55-2.06,3.09-4.12,4.58-6.18l-2-1.81.61-.81Zm-11.74,14c2.89,2.19,5.24,2.15,6.84,0s1.13-4.38-2.06-6.81l-1.33-1c-1.81,2.41-3.42,4.52-4.95,6.64Zm8.79-14.78c-1.55,1.95-3.09,4-4.65,6l1.23.93c2.79,2.06,4.81,2.06,6.43-.07s1-3.83-1.39-5.68Z"/><path class="cls-2" d="M562.46,235.68c3.16,2.66,3.57,5.57,1.8,7.68-1.29,1.54-3.51,2.13-6.45.52,2.66,3,2.69,5.48,1.15,7.29-1.69,2.06-5,2.68-9.26-.88l-6.06-5.09.65-.77,2.26,1.51c1.69-1.93,3.35-3.91,5-5.9l.91-1c1.65-2,3.28-3.91,4.88-5.89l-1.89-2,.65-.77ZM550,249.07c2.78,2.34,5.14,2.41,6.83.38s1.35-4.31-1.73-6.91l-1.29-1.07c-2,2.31-3.65,4.34-5.3,6.37Zm9.54-14.31c-1.64,1.87-3.29,3.84-4.94,5.8l1.17,1c2.68,2.26,4.69,2.33,6.43.26s1.23-3.77-1.09-5.72Z"/><path class="cls-2" d="M567.2,273.2a7,7,0,0,1-3.23-1.73c-2.67-2.52-2.2-5.82-.06-8.17-2.46-3.22-2.58-8.09,1.46-12.36,4.35-4.62,10.09-4.42,13.39-1.3s4,8.67-.53,13.38c-4,4.27-9.12,4.48-12.51,2.06-1.93,2.12-1.9,4.37-.08,6.08a9,9,0,0,0,1.87,1.25Zm-1.47-9.71c2.93,2.76,7.21.83,10.3-2.51s4.78-7.68,1.85-10.44-7.21-.88-10.36,2.43-4.72,7.74-1.77,10.52Z"/><path class="cls-2" d="M576.47,273.12a1.8,1.8,0,0,1,2.53,0h0a1.81,1.81,0,0,1-2.54,2.54h0A1.82,1.82,0,0,1,576.47,273.12Zm14.29-9.19c-.83.81-2.9,2.38-6.09,4.86l-3.31,2.67-.62-.62,2.76-3.25c2.59-3.08,4.18-5.14,5-6a1.62,1.62,0,0,1,2.51,2.06,3,3,0,0,1-.26.24Z"/><path class="cls-2" d="M583.6,280.54a1.8,1.8,0,1,1-.11,2.54h0A1.8,1.8,0,0,1,583.6,280.54Zm14.49-8.8c-.86.8-3,2.3-6.17,4.7L588.54,279l-.6-.63,2.85-3.17c2.67-3.08,4.33-5,5.15-5.82a1.61,1.61,0,0,1,2.32,2.21l-.15.14Z"/><path class="cls-2" d="M151,241.52l.39.68a5.78,5.78,0,0,1-1.38,1c-1.23.71-2,.69-2.73-.1l-2.62-2.69c-1.32-1.37-2.18-1.35-3.81-.4l-1,.61c1,1.83,2,3.56,3.08,5.23l2-.86.39.69-5.54,3.22-.39-.69,1.72-1.26c-1-1.75-2-3.48-3-5.24l-.56-1c-1-1.76-2.06-3.51-3.09-5.22l-2,.87-.39-.68,5.52-3.21c3-1.73,5.49-1.47,6.76.7.89,1.55.56,3.6-1.46,5.3,1.4-.46,2.47-.14,3.8,1.11l2.71,2.56ZM141,239c2.06-1.22,2.45-3,1.5-4.66s-2.48-2.13-4.55-.93l-1.71,1c1,1.77,2,3.5,3.16,5.53Z"/><path class="cls-2" d="M162.53,231.87l1.75,3.66-10.42,5.4-.36-.7,1.77-1.19c-.87-1.79-1.79-3.56-2.73-5.37l-.51-1c-.94-1.82-1.87-3.61-2.82-5.36l-2,.77-.36-.7,10-5.14,2,3.5-1,.52-1.92-2.41-4.8,2.49c.87,1.77,1.79,3.55,2.73,5.38l3.09-1.58-.74-2.15.83-.43,2.46,4.77-.83.43-1.29-1.81-3.09,1.58c1,2,2,3.8,2.94,5.57l5.14-2.67-.86-3Z"/><path class="cls-2" d="M174.72,214.7l-1.62,1L179,228.79l-.75.33-13.75-7.75,4.82,10.46,2.34-.73.33.72-4.9,2.24-.33-.71,1.63-1-5.31-11.75-.33-.17-1.57.49-.33-.72,3.2-1.41,12.49,7.09-4.41-9.59-2.34.75-.33-.73,4.9-2.23Z"/><path class="cls-2" d="M185,210.8c.69,1.87,1.44,3.76,2.19,5.66l.42,1c.74,1.85,1.48,3.73,2.26,5.57l2.27-.63.29.73-6.37,2.54-.3-.75,2.06-1.09c-.69-1.85-1.42-3.7-2.17-5.6l-.41-1c-.76-1.89-1.51-3.79-2.29-5.62l-3.32,1.32.55,3.09-1,.42-1.33-3.86L189.45,208l1.63,3.71-1,.41-1.72-2.6Z"/><path class="cls-2" d="M205.87,202.28c3.09-1,5.21-.05,5.87,2,.48,1.5-.06,3.22-2.36,4.51,3.09-.53,4.78.5,5.35,2.28.63,2-.33,4.48-4.47,5.81l-5.93,1.93-.24-.75,1.95-.87c-.58-1.93-1.2-3.87-1.83-5.82l-.33-1c-.61-1.92-1.22-3.82-1.88-5.71l-2.06.43-.24-.75ZM204,203.81c.55,1.88,1.17,3.79,1.79,5.72l1.14-.37c2.62-.83,3.51-2.15,2.86-4.17s-2-2.4-4.27-1.67Zm5.53,12.36c2.72-.87,3.74-2.41,3.09-4.39s-2.32-2.7-5.33-1.74l-1.24.4c.72,2.26,1.36,4.24,2.06,6.17Z"/><path class="cls-2" d="M221.06,197.84c3.09-.84,5.15.2,5.76,2.28.42,1.53-.2,3.22-2.55,4.4,3.09-.39,4.74.72,5.23,2.53.55,2.06-.54,4.46-4.73,5.59l-6,1.63-.2-.77,2-.78c-.48-1.95-1-3.92-1.55-5.89l-.29-1c-.52-1.94-1-3.88-1.61-5.79l-2.11.33-.2-.76Zm-1.9,1.41c.48,1.9,1,3.84,1.54,5.79l1.16-.31c2.65-.72,3.6-2,3.09-4s-1.87-2.49-4.18-1.86Zm5,12.58c2.75-.75,3.85-2.23,3.31-4.24s-2.18-2.81-5.24-2l-1.27.34c.63,2.28,1.17,4.29,1.75,6.27Z"/><path class="cls-2" d="M247.41,211.55a5.57,5.57,0,0,1-2.57,1.33c-2.8.6-4.74-1.17-5.31-3.6-3.18.17-6.38-1.92-7.36-6.43-1-4.88,1.62-8.51,5.15-9.27s7.37,1.29,8.46,6.31c1,4.49-1.15,7.89-4.23,9,.51,2.19,2,3.17,3.9,2.75a7.47,7.47,0,0,0,1.64-.65Zm-6.95-3.36c3.09-.68,3.73-4.28,3-7.79s-2.84-6.51-5.93-5.84-3.79,4.29-3,7.78,2.88,6.49,6,5.81Z"/><path class="cls-2" d="M256.76,200.22c-.55-3.73,1.7-6.05,4.33-6.44s5.47,1.17,6,4.91-1.73,6-4.36,6.36S257.31,203.9,256.76,200.22ZM265,199c-.47-3.09-1.87-4.65-3.82-4.36s-2.87,2.15-2.4,5.27,1.83,4.57,3.81,4.28,2.91-2.06,2.45-5.22Z"/><path class="cls-2" d="M274,195.07c.54-1.93,1.72-3.17,3-3.31a1.79,1.79,0,0,1,1.72.67c.1.95-.21,1.59-1.11,1.69a2.05,2.05,0,0,1-1.47-.49l-.3-.22a5.53,5.53,0,0,0-1.64,3.22l.2,1.77c.11,1,.3,2.62.45,3.78l1.91.06.08.71-5.5.6-.08-.7,1.63-.44c-.1-1.14-.26-2.74-.38-3.81l-.12-1.17c-.15-1.29-.25-2.06-.39-3h-1.82l-.07-.69,3.09-1.59.34.17Z"/><path class="cls-2" d="M295.36,187.29c0,2,.16,4,.26,6.06v1.13c.1,2,.2,4,.34,6l2.36.13v.79l-6.86.33V201l2.34-.37c-.06-2-.16-4-.26-6l-.05-1.12c-.11-2.06-.21-4.12-.34-6.07l-3.58.18-.47,3.09H288V186.6l12.48-.62.35,4.05h-1.1l-.8-3Z"/><path class="cls-2" d="M313.83,200.22a2.19,2.19,0,0,1-1.93,1.2,2,2,0,0,1-2.06-1.75c-1.23,1.24-2,1.86-3.39,1.88a2.76,2.76,0,0,1-3.09-2.36h0a2.29,2.29,0,0,1,0-.37c0-1.4.75-2.41,3.72-3.51a20,20,0,0,1,2.6-.79v-.71c0-2.25-.69-2.82-2.23-2.79a5.1,5.1,0,0,0-1.29.2l-.41,1.57c-.17.71-.53,1-1.12,1a.93.93,0,0,1-1-.79V193c.36-1.75,2-2.84,4.37-2.88s3.55,1,3.59,3.86l.08,4.94c0,1,.33,1.45.85,1.44a1.2,1.2,0,0,0,.91-.56Zm-4.11-5a18.6,18.6,0,0,0-2.06.72c-2,.79-2.33,1.7-2.31,2.53a1.63,1.63,0,0,0,1.52,1.74h.35c.82,0,1.33-.35,2.59-1.37Z"/><path class="cls-2" d="M327.91,200.81v.71l-3.09-.09-3.35-5.91L319.91,197c0,1.08,0,2.24-.06,3.3l1.78.3v.7l-5.52-.16v-.71l1.79-.2c.06-1.24.13-2.59.17-3.82l.31-10.24-1.85-.22v-.69l3.54-.84.3.17-.19,3.23-.25,8,4.24-4.11-1.77-.44v-.75l5.23.17v.74l-2.13.22-2.7,2.57,3.66,6.31Z"/><path class="cls-2" d="M332.31,196.28c-.17,3,1.24,4.63,3.47,4.78a3.85,3.85,0,0,0,3.3-1.43l.44.35a4.64,4.64,0,0,1-4.47,2.3c-3.09-.21-5-2.41-4.75-5.95s2.81-5.61,5.61-5.42a4.13,4.13,0,0,1,4,4.25v.39a4.88,4.88,0,0,1-.26,1.25Zm4.46-.51c1,.06,1.25-.44,1.3-1.18a2.56,2.56,0,0,0-2.29-2.81h0c-1.39-.09-2.95,1-3.36,3.64Z"/><path class="cls-2" d="M364.57,197.6c-.68,5-4.4,7.43-7.94,7s-6.53-3.7-5.83-8.83c.68-4.95,4.44-7.43,8-6.95S365.22,192.5,364.57,197.6Zm-7.81,6c3.09.42,5-2.74,5.46-6.3s-.44-7.1-3.57-7.52-5,2.73-5.52,6.27.44,7.12,3.59,7.55Z"/><path class="cls-2" d="M378.42,207.18l-.13.67-3.14-.39.18-2.06a5.36,5.36,0,0,1-4.39,1.38c-1.82-.34-2.75-1.62-2.17-4.59l1.13-5.7-1.55-.62.12-.66,3.35.28.18.27-.69,3.15-.66,3.53c-.37,2,.14,2.81,1.36,3a4.5,4.5,0,0,0,3.4-.88l1.34-6.8-1.55-.61.13-.67,3.3.26.16.26-.65,3.16-1.22,6.46Z"/><path class="cls-2" d="M387.88,209.1a3.22,3.22,0,0,1-2.83.55A2.34,2.34,0,0,1,383,207.1a2.18,2.18,0,0,1,.15-.61c.13-.52.25-1,.44-1.83l1.2-5.41-1.88-.42.17-.78,2.06.19,1.26-2.87,1.27.29-.8,3.09,3,.67-.23,1-3-.67-1.6,7.2c-.26,1.18.11,1.78.9,2a2.61,2.61,0,0,0,1.67-.29Z"/><path class="cls-2" d="M406.79,203a3.69,3.69,0,0,1,1.51.95A2.66,2.66,0,0,1,409,206c-.11.44-.43.4-1.34.41a36.8,36.8,0,0,0-6.11.63c-.23,1.16-.58,2.51-.77,3.19s-.5.83-1,.7a.8.8,0,0,1-.62-.95h0a.29.29,0,0,1,0-.13c.13-.51.48-1.46.78-2.48-2.14.57-3.88,1.42-4.19,2.56s.72,1.86,2.64,2.38c3,.81,4.32.48,5.22.73s1.24.6,1.1,1.12-.31.6-1,.62a20.89,20.89,0,0,1-4.65-.68c-3.77-1-4.68-2.59-4.24-4.22s2.82-2.76,5.46-3.58c.39-1.68.23-2.39-.79-2.67s-2.73.55-3.79,1.23-1.78,1.49-2.34,1.35-.66-.59-.5-1.17,1-.88,2.11-1.53a20.36,20.36,0,0,0,3.75-2.91,15,15,0,0,1-1.51-.31c-1.63-.44-1.82-1.14-2.06-2.92l.44-.11a3.1,3.1,0,0,0,2.34,1.92,10.16,10.16,0,0,0,1.9.3,8.88,8.88,0,0,0,1-1.5.5.5,0,0,0,0-.7.31.31,0,0,0-.11-.09,4.71,4.71,0,0,0-1-.68l.11-.34a3.77,3.77,0,0,1,1.3.08c.68.18,2,.89,1.85,1.43-.08.28-.27.4-.59.77a8.35,8.35,0,0,1-1,1,20.31,20.31,0,0,0,2.58-.16c.9-.12,1.09-.28,1.4-.2.52.14,1,.43.83.92-.08.27-.31.43-.8.53a22.66,22.66,0,0,1-5.14.14,24.52,24.52,0,0,1-2.55,2.23c-.11.09-.08.22.08.16a4.77,4.77,0,0,1,2.4-.11c1.25.33,1.81,1.39,1.64,2.87,1.79-.41,3.94-.69,5.23-1,.39-.11.49-.29.29-.68a2.93,2.93,0,0,0-.79-1Z"/><path class="cls-2" d="M420.72,202.55A4.11,4.11,0,0,1,422,203c.89.45,1.83,1.49,1.69,1.89s-.43.44-.91.83l-1,.84.28.13a32.69,32.69,0,0,0,3.93.84c.57.06.89-.25,1.25-.13s1.68,1.53,1.48,2.15c-.16.43-.88.36-1.36.76a25.93,25.93,0,0,1-16.38,7l-.15-.51c5.95-.93,12.27-4.43,15.19-7.86.16-.22.11-.34-.08-.4a24.91,24.91,0,0,0-3.09-.52,4.84,4.84,0,0,1-1.2-.12c-.21-.07-.44-.37-.71-.76a19,19,0,0,1-7.75,3.09l-.15-.48c3.91-1.24,8-4.33,8.44-5.47.12-.38-.27-.91-.84-1.43Z"/><path class="cls-2" d="M430.63,224.51l-.07-.47c4.53-.54,7.4-2.37,9.27-6.18a44.07,44.07,0,0,0,1.95-4.84.85.85,0,0,0-.08-1,4.08,4.08,0,0,0-1-.77l.14-.37a3.5,3.5,0,0,1,1.64.07c.78.3,1.85,1.67,1.66,2.13s-.57.43-.85,1c-.5,1.14-1.42,3.21-1.95,4.36C439.22,222.87,435.74,224.73,430.63,224.51ZM434,209.43l.14-.36a3.8,3.8,0,0,1,1.34.21c.77.3,1.81,1.61,1.59,2.15s-.54.51-.89,1.22-1.94,4.84-2.31,5.79-.75,1-1.18.81-.61-1-.29-1.9c.2-.51.67-1.15,1.29-2.65.36-.91,1.11-2.84,1.31-3.63.13-.45.15-.62-.09-.9A5.36,5.36,0,0,0,434,209.43Z"/><path class="cls-2" d="M443.76,229.72l-.06-.41c6-.3,11.4-3.88,12.12-5.47.14-.32-.05-.71-.6-1.32l.2-.22a4.48,4.48,0,0,1,1,.39,2.55,2.55,0,0,1,1,2.36c-.16.34-.6.37-1,.7A16.92,16.92,0,0,1,443.76,229.72Zm2.89-10,.31-.1a6.52,6.52,0,0,1,1,1.48,3.15,3.15,0,0,1,.41,2.68.77.77,0,0,1-1,.46h-.06c-.68-.31-.34-1.11-.38-2.36a8.77,8.77,0,0,0-.28-2.16Zm3.78.5.3-.11a6.5,6.5,0,0,1,1,1.56,2.77,2.77,0,0,1,.28,2.47.8.8,0,0,1-1,.43h0c-.66-.31-.28-1.09-.29-2.28a9.43,9.43,0,0,0-.23-2.06Z"/><path class="cls-2" d="M468.92,222.63a4,4,0,0,1,1.15.62c.8.57,1.58,1.75,1.39,2.12s-.5.37-1,.68-.77.46-1.18.68l.26.15a29.83,29.83,0,0,0,3.75,1.43c.57.15.93-.1,1.26.06s1.43,1.77,1.13,2.35c-.2.4-.91.23-1.45.56a26,26,0,0,1-17.26,4.47l-.07-.54c6,0,12.8-2.53,16.2-5.48.2-.2.16-.31,0-.41a26,26,0,0,0-3-1,4.61,4.61,0,0,1-1.16-.3,2,2,0,0,1-.59-.85,18.94,18.94,0,0,1-8.13,1.87l-.07-.5c4-.66,8.6-3.09,9.17-4.12.17-.36-.14-.94-.62-1.53Z"/><path class="cls-2" d="M474.1,242.44a1.42,1.42,0,1,1,.55,1.93h0A1.41,1.41,0,0,1,474.1,242.44Zm8.76-10.07c-.45.79-1.67,2.43-3.53,5l-1.91,2.74-.59-.33,1.37-3.09c1.26-2.91,2.05-4.8,2.47-5.6a1.27,1.27,0,0,1,2.38.86.89.89,0,0,1-.08.17,2.12,2.12,0,0,1-.11.21Z"/><path class="cls-2" d="M481.09,246.41a1.41,1.41,0,0,1,2.42,1.46h0a1.44,1.44,0,0,1-1.94.48,1.41,1.41,0,0,1-.48-1.94Zm9-9.85c-.47.78-1.72,2.39-3.64,4.92l-2,2.69-.59-.35,1.43-3c1.34-2.88,2.14-4.75,2.62-5.53a1.25,1.25,0,0,1,1.68-.54,1.27,1.27,0,0,1,.55,1.7l-.08.13Z"/><path class="cls-1" d="M105.59,31.4l-8.84-.46.46-8.83c-4.53-.6-11.23,2.29-15.36,6-12.8,11.53-9,24.35-9,24.35S85.21,57.59,98,46.06C102.14,42.33,105.72,36,105.59,31.4Z"/><path class="cls-1" d="M104,86.38l-2.3-8.54,8.54-2.3c-.83-4.49-5.65-10-10.48-12.75-14.92-8.6-25.94-1-25.94-1S72.8,75.1,87.72,83.7C92.55,86.48,99.7,87.92,104,86.38Z"/><path class="cls-1" d="M51.23,101.87l7.42-4.82,4.82,7.41c4-2.18,7.73-8.45,8.88-13.9,3.57-16.86-7-25-7-25s-13,3.15-16.56,20C47.59,91,48.44,98.25,51.23,101.87Z"/><path class="cls-1" d="M20.19,56.46,27.07,62,21.5,68.91c3.32,3.14,10.44,4.73,16,4.15,17.13-1.82,21.59-14.42,21.59-14.42s-7-11.39-24.13-9.58C29.39,49.65,22.77,52.69,20.19,56.46Z"/><path class="cls-1" d="M53.78,12.91l-3.17,8.26L42.35,18c-2,4.13-1.28,11.39,1,16.48,7,15.73,20.38,16.08,20.39,16.08s8.66-10.18,1.65-25.91C63.11,19.56,58.17,14.2,53.78,12.91Z"/><path class="cls-1" d="M140.61,47.57l-2.24.72-1.49-1.82c-3.34.13-6.52,2.66-7.73,6.77C126.71,61.48,132.54,68,132.54,68S141,65.7,143.41,57.46C144.63,53.35,143.34,49.5,140.61,47.57Z"/><path class="cls-3" d="M626.23,65.28l-4.4-6.45,6.46-4.41c-2-3.51-7.62-6.67-12.46-7.58-15-2.83-21.94,6.7-21.94,6.7s3,11.43,18,14.25C616.71,68.71,623.09,67.82,626.23,65.28Z"/><path class="cls-3" d="M586.72,93.58l4.78-6.18,6.19,4.78c2.71-3,4-9.31,3.35-14.19-1.93-15.1-13.15-18.8-13.15-18.79s-9.93,6.4-8,21.5C580.52,85.58,583.34,91.38,586.72,93.58Z"/><path class="cls-3" d="M547.6,64.75,555,67.39l-2.64,7.36c3.68,1.66,10.08.91,14.53-1.19,13.76-6.51,13.81-18.32,13.81-18.32s-9.16-7.46-22.92-1C553.29,56.38,548.65,60.85,547.6,64.75Z"/><path class="cls-3" d="M562.92,18.63l-.23,7.82-7.81-.23c-.44,4,2.24,9.87,5.62,13.45,10.44,11.07,21.69,7.47,21.69,7.47s4.27-11-6.17-22.1C572.64,21.46,567,18.43,562.92,18.63Z"/><path class="cls-3" d="M611.52,19,604,21.15l-2.2-7.5c-4,.82-8.69,5.19-11.05,9.5-7.31,13.36-.4,22.94-.4,22.94s11.79.65,19.1-12.7C611.83,29.07,613,22.73,611.52,19Z"/><path class="cls-1" d="M530.34,21.11,529,22l-1.28-1a6,6,0,0,0-4.05,5.75c-.28,5.86,4.65,9.24,4.65,9.24s5.23-2.89,5.52-8.75A6,6,0,0,0,530.34,21.11Z"/><path class="cls-3" d="M244.62,20.7l-6.26-1.6,1.6-6.26c-3.16-1.09-8.37,0-11.87,2.1-10.82,6.42-10,16.15-10,16.15s8.12,5.43,18.94-1C240.58,28,244.05,24,244.62,20.7Z"/><path class="cls-3" d="M235.58,59.84l-.42-6.45,6.45-.42c0-3.33-2.61-7.94-5.67-10.63-9.45-8.31-18.43-4.47-18.43-4.47s-2.66,9.4,6.79,17.71C227.36,58.26,232.27,60.32,235.58,59.84Z"/><path class="cls-3" d="M195.56,63.34l6-2.39L204,67c3.19-1,6.75-4.94,8.36-8.68,5-11.55-1.44-18.9-1.45-18.9s-9.75.37-14.73,11.93C194.52,55,194.08,60.34,195.56,63.34Z"/><path class="cls-3" d="M179.86,26.36l4.13,5-5,4.13c1.92,2.73,6.79,4.89,10.84,5.27,12.53,1.16,17.54-7.22,17.54-7.22s-3.38-9.17-15.9-10.33C187.43,22.8,182.25,24,179.86,26.36Z"/><path class="cls-3" d="M210.18,0l-3.45,5.46L201.26,2c-2,2.67-2.55,8-1.66,11.94,2.76,12.27,12.29,14.44,12.29,14.44s7.67-6,4.91-18.31C215.9,6.1,213.13,1.56,210.18,0Z"/><path class="cls-3" d="M16.69,142.49l1.1,2.88-2.29,2.07c.41,4.37,3.94,8.36,9.41,9.67,11,2.62,19.09-5.47,19.09-5.47s-3.59-10.9-14.55-13.52C24,136.81,19,138.77,16.69,142.49Z"/><path class="cls-1" d="M435.25,35.61l-2.5-3.37,3.37-2.51c-1.15-1.84-4.23-3.41-6.85-3.8-8.09-1.2-11.64,4.06-11.64,4.06s1.87,6.07,10,7.27C430.21,37.65,433.62,37,435.25,35.61Z"/><path class="cls-1" d="M414.64,51.65l2.43-3.43,3.42,2.44c1.4-1.66,1.95-5.08,1.51-7.69-1.36-8.07-7.47-9.81-7.47-9.81s-5.19,3.65-3.83,11.71C411.14,47.48,412.77,50.53,414.64,51.65Z"/><path class="cls-1" d="M393,37l4,1.26-1.26,4c2,.82,5.44.28,7.78-.95,7.25-3.78,7-10.13,7-10.13s-5.08-3.81-12.33,0C395.89,32.38,393.5,34.88,393,37Z"/><path class="cls-1" d="M400.26,11.91l.05,4.2-4.2,0c-.16,2.16,1.41,5.25,3.3,7.1,5.84,5.73,11.81,3.55,11.81,3.55s2-6-3.79-11.73C405.54,13.22,402.43,11.71,400.26,11.91Z"/><path class="cls-1" d="M426.37,11.05l-4,1.33-1.34-4c-2.11.53-4.56,3-5.74,5.34-3.64,7.33.27,12.33.28,12.33s6.34.1,10-7.23C426.75,16.47,427.22,13,426.37,11.05Z"/><path class="cls-3" d="M599.65,176.81l-1.43-4.26,4.26-1.42c-.56-2.25-3.17-4.88-5.7-6.14-7.82-3.9-13.17.28-13.17.28s-.12,6.78,7.71,10.68C593.85,177.21,597.51,177.72,599.65,176.81Z"/><path class="cls-3" d="M573.39,186.27,577,183.6l2.67,3.61c2-1.22,3.65-4.52,4.07-7.31,1.29-8.65-4.33-12.45-4.33-12.45s-6.49,2-7.78,10.64C571.21,180.88,571.86,184.53,573.39,186.27Z"/><path class="cls-3" d="M556.27,164.22l3.66,2.61-2.61,3.66c1.77,1.49,5.43,2.08,8.22,1.61,8.62-1.44,10.49-8,10.49-8s-3.89-5.55-12.51-4.11C560.73,160.49,557.46,162.23,556.27,164.22Z"/><path class="cls-3" d="M572,141.13l-1.35,4.28-4.28-1.35c-.87,2.15-.3,5.81,1,8.32,4,7.75,10.82,7.52,10.82,7.52s4.08-5.43,0-13.18C576.88,144.21,574.21,141.65,572,141.13Z"/><path class="cls-3" d="M598.76,148.91l-4.49,0,0-4.49c-2.31-.17-5.61,1.51-7.6,3.52-6.12,6.24-3.8,12.62-3.8,12.62s6.41,2.2,12.54-4C597.35,154.55,599,151.22,598.76,148.91Z"/><path class="cls-1" d="M620,120.62l-1.51-1.23.6-1.85c-1.59-2.26-4.78-3.33-8.18-2.33-6.82,2-8.71,9-8.71,9s5.38,4.83,12.19,2.82C617.79,126,619.88,123.39,620,120.62Z"/></svg>