<svg xmlns="http://www.w3.org/2000/svg" width="267.583" height="317.188" viewBox="0 0 267.583 317.188">
  <g id="TitleMainDeco_White" data-name="TitleMainDeco/White" transform="translate(-25.516 -0.7)">
    <path id="Path_57" data-name="Path 57" d="M154.13,186.16a145.6,145.6,0,0,0-41.82-31.82c-2.73-1.82-1.82-2.73,1.82-2.73a207.82,207.82,0,0,1,52.73,15.45,210.41,210.41,0,0,0,25.45-56.36c0-2.73-.91-3.64-3.64-3.64-.9,0-10,.91-26.36,1.82-17.27,1.82-28.18,2.73-30.91,2.73a229.758,229.758,0,0,1-33.63,32.73,198.079,198.079,0,0,1-49.1,31.81A14.68,14.68,0,0,1,43.22,178,89.2,89.2,0,0,0,31.4,198a80.09,80.09,0,0,0,8.18,75.46,262.679,262.679,0,0,0,50.91-24.55,245.641,245.641,0,0,0,63.64-62.75Z" fill="#007bff"/>
    <path id="Path_58" data-name="Path 58" d="M286,258.88a79.29,79.29,0,0,0-15.46-88.18,110.731,110.731,0,0,0,0-24.55c-4.54-26.36-6.36-56.36-17.27-80.9a103.84,103.84,0,0,0-33.64-42.73C202.82,9,186.76.7,160.49.7,114.13,1.61,98.67,16.15,86,28.88a141.05,141.05,0,0,0-37.28,76.37c-3.63,27.27-7.27,41.81-4.54,69.09a11.162,11.162,0,0,1,.91-.91,259.22,259.22,0,0,0,52.73-56.37,199.64,199.64,0,0,0,25.45-50c2.73-6.36,0-11.81-8.18-14.54-2.73,0-2.73-.91-.91-2.73a40.08,40.08,0,0,1,13.64-4.54,42.89,42.89,0,0,1,22.72,10C160.49,61.61,165,67.06,165,70.7a5,5,0,0,1-2.73,4.55,18.82,18.82,0,0,0-5.45,3.63,141.373,141.373,0,0,0-14.55,18.18A236.9,236.9,0,0,0,186,92.52a19.05,19.05,0,0,0,10-3.64,11.2,11.2,0,0,1,7.27-3.63A81.82,81.82,0,0,1,225,96.15c9.09,6.37,13.63,10.91,13.63,14.55a9.15,9.15,0,0,1-3.63,6.36,24.23,24.23,0,0,0-9.09,10c-1.82,2.73-3.64,6.37-7.28,12.73-4.54,7.27-7.27,12.73-9.09,15.46-8.18,14.54-13.63,23.63-16.36,28.18a71.09,71.09,0,0,1,29.09,40c2.73,13.63-5.45,22.73-17.27,20-4.55-.91-20.91-18.18-32.73-33.64C140.49,243.43,97.77,266.16,43.22,278a93.62,93.62,0,0,0,50,30.91c49.09,14.55,110,10.91,147.27-7.27A108.73,108.73,0,0,0,286,258.88ZM252.31,82.52a23.53,23.53,0,0,1-6.36,10A12,12,0,0,1,235,95.25a24.23,24.23,0,0,1-15.46-18.19,144.54,144.54,0,0,0-19.09-37.27,44.39,44.39,0,0,1,10.91.91,66,66,0,0,1,28.18,15.45c10.04,9.1,14.59,17.28,12.77,26.37Zm28.724-52.131A71.813,71.813,0,0,0,253.74,19a25.93,25.93,0,0,0-11.82,0,169.39,169.39,0,0,1,20,35.46c4.55,10,9.09,15.45,14.55,16.36a10.84,10.84,0,0,0,10-3.64,21.66,21.66,0,0,0,5.45-10c2.452-10.2-2.538-20.681-10.886-26.791Z" fill="#007bff"/>
  </g>
</svg>
