<svg id="Layer_1" data-name="Layer 1" xmlns="http://www.w3.org/2000/svg" width="318.56" height="472.51"><defs><style>.cls-1{fill:#fff}</style></defs><path class="cls-1" d="M154.13 186.16a145.6 145.6 0 00-41.82-31.82c-2.73-1.82-1.82-2.73 1.82-2.73a207.82 207.82 0 0152.73 15.45 210.41 210.41 0 0025.45-56.36c0-2.73-.91-3.64-3.64-3.64-.9 0-10 .91-26.36 1.82-17.27 1.82-28.18 2.73-30.91 2.73a229.76 229.76 0 01-33.63 32.73 198.08 198.08 0 01-49.1 31.81 14.68 14.68 0 01-5.45 1.85 89.2 89.2 0 00-11.82 20 80.09 80.09 0 008.18 75.46 262.68 262.68 0 0050.91-24.55 245.64 245.64 0 0063.64-62.75z"/><path class="cls-1" d="M286 258.88a79.29 79.29 0 00-15.46-88.18 110.73 110.73 0 000-24.55c-4.54-26.36-6.36-56.36-17.27-80.9a103.84 103.84 0 00-33.64-42.73C202.82 9 186.76.7 160.49.7 114.13 1.61 98.67 16.15 86 28.88a141.05 141.05 0 00-37.28 76.37c-3.63 27.27-7.27 41.81-4.54 69.09a11.16 11.16 0 01.91-.91 259.22 259.22 0 0052.73-56.37 199.64 199.64 0 0025.45-50c2.73-6.36 0-11.81-8.18-14.54-2.73 0-2.73-.91-.91-2.73a40.08 40.08 0 0113.64-4.54 42.89 42.89 0 0122.72 10C160.49 61.61 165 67.06 165 70.7a5 5 0 01-2.73 4.55 18.82 18.82 0 00-5.45 3.63 141.37 141.37 0 00-14.55 18.18A236.9 236.9 0 00186 92.52a19.05 19.05 0 0010-3.64 11.2 11.2 0 017.27-3.63A81.82 81.82 0 01225 96.15c9.09 6.37 13.63 10.91 13.63 14.55a9.15 9.15 0 01-3.63 6.36 24.23 24.23 0 00-9.09 10c-1.82 2.73-3.64 6.37-7.28 12.73-4.54 7.27-7.27 12.73-9.09 15.46-8.18 14.54-13.63 23.63-16.36 28.18a71.09 71.09 0 0129.09 40c2.73 13.63-5.45 22.73-17.27 20-4.55-.91-20.91-18.18-32.73-33.64-31.78 33.64-74.5 56.37-129.05 68.21a93.62 93.62 0 0050 30.91c49.09 14.55 110 10.91 147.27-7.27A108.73 108.73 0 00286 258.88zM252.31 82.52a23.53 23.53 0 01-6.36 10A12 12 0 01235 95.25a24.23 24.23 0 01-15.46-18.19 144.54 144.54 0 00-19.09-37.27 44.39 44.39 0 0110.91.91 66 66 0 0128.18 15.45c10.04 9.1 14.59 17.28 12.77 26.37zM280.1 31.71A55.16 55.16 0 00253.74 19a25.93 25.93 0 00-11.82 0 169.39 169.39 0 0120 35.46c4.55 10 9.09 15.45 14.55 16.36a10.84 10.84 0 0010-3.64 21.66 21.66 0 005.45-10 22.6 22.6 0 00-11.82-25.47zM17.37 358.55c-2.2 0-3.94.05-6.84.19l-.94-1.69c5.06.28 6.56.33 11 .33h24.19l2.9-3.09 3.66 3c.32.28.42.42.42.66a.54.54 0 01-.61.56H36.34v17.9c0 .75.38.89 2.53.89 4.74 0 7.27-.14 8.34-.43s1.45-1 1.92-2.85c.19-.75.24-1.32.8-5.25l.8.09-.33 7.14c.05.42.09.51.89 1a1.94 1.94 0 011 1.31c0 1.36-2.06 1.74-9.09 1.74a74.29 74.29 0 01-7.59-.19c-1.5-.24-2-.89-2-2.86v-18.45H27a33.76 33.76 0 01-3.33 13.54c-1.82 3.75-7.4 7.68-14 9.88l-.33-.61c10.45-5 14-10.54 14.62-22.81zm25.06-16.87l3.57 2.77a1 1 0 01.37.65.53.53 0 01-.61.57H21.91c-2.24 0-4 0-6.88.18l-.94-1.68c5.06.28 6.56.32 11 .32h14.58zM70.83 347.4l2.48 2.39c.42.37.51.51.51.84a.7.7 0 01-.6.66l-1.18.23a69.56 69.56 0 01-5.66 8v1.31a17.47 17.47 0 013 1.08c2.72 1.26 4.22 2.95 4.22 4.82a1.52 1.52 0 01-1.36 1.69 1.23 1.23 0 01-1-.57 11.3 11.3 0 01-1-2.24 8.21 8.21 0 00-3.88-4v19.12a.77.77 0 01-.33.75 5.47 5.47 0 01-1.87.42c-.47 0-.52-.09-.52-1.17v-2.39c0-2.53 0-3.75.1-11.34v-4.7a41.81 41.81 0 01-7.36 6l-.37-.56A54.79 54.79 0 0069.28 351l.19-.38H63.8c-2.2 0-3.94.05-6.84.19l-.96-1.72c4.22.18 6 .28 7.54.32v-6.88c0-1.36 0-1.83-.09-2.72l3.56.51c.61.1.89.33.89.75s-.23.61-.75.8l-1 .42v7.12h3.28zm21.83.05v1.73l.23 28.44V379h.56l2.55-2.65 3.17 2.65c.33.28.42.42.42.65s-.23.56-.65.56H75.09c-2.2 0-3.33.05-5.81.14l-.94-1.54c4.31.19 5.72.23 7.87.23a9.16 9.16 0 00.05-1.17c.14-3.51.33-21.64.33-33.36 0-.89 0-1.45-.09-2.85l3 1.73h10.4l1.18-1.73L93.6 344c.37.37.46.51.46.84s-.18.56-.6.66l-.8.23zM90.22 368H79v11h11.32zm0-11.81H79v10.64h11.22zm-.05-11.62h-11L79 355h11.18zM114.4 376.45a5.6 5.6 0 11-5.58-5.53 5.56 5.56 0 015.58 5.53zm-9.56.14a4 4 0 003.94 3.84 4 4 0 004-4 4 4 0 00-3.94-3.94 4.06 4.06 0 00-4 4.1zM137.31 344.92c0 .28-.09 3.65-.24 10.11a31.29 31.29 0 004.32-5.8l2.52 2.1c.38.33.47.43.47.61 0 .43-.28.66-.75.66h-1c-3.65 2.67-3.84 2.81-5.62 3.93v.8a54.44 54.44 0 01-1 10.35c4.46 1.69 7 4.31 7 7.17 0 1-.56 1.69-1.4 1.69a1.18 1.18 0 01-.89-.33c-.38-.28-.38-.28-1.27-2.81a10.41 10.41 0 00-3.6-5 33.51 33.51 0 01-7.55 13.64l-.46-.61a37.48 37.48 0 005.16-10.56c1.45-5 1.69-8.25 1.69-24.64a41.06 41.06 0 00-.38-6.52l3.8.38c.7.05 1 .28 1 .7s-.24.7-.8.94l-1 .52zm-5.53 6.18a12.27 12.27 0 011.08 5.11c0 3.6-1.41 6.18-3.37 6.18a1.55 1.55 0 01-1.64-1.5c0-.75.18-1 1.54-2.43a6.46 6.46 0 001.88-4.6 21.09 21.09 0 00-.24-2.57zm31.44 13.54l2.43-2.67 3.24 2.62c.28.28.37.42.37.66s-.23.56-.61.56h-10v11.34c0 .89.66 1.08 4.27 1.08 2.76 0 3.7-.24 4.17-1 .61-.93 1.21-3.32 1.68-6.32l.75.09-.42 5.86c0 .65 0 .7.89 1.12a1 1 0 01.52.89c0 1.31-1.5 1.59-8 1.59-5.71 0-6.46-.28-6.46-2.67v-12h-3.89c-.66 9.14-4.27 13.82-12.51 16.35l-.24-.56c6.7-3.09 9.47-7.45 10-15.79h-2.11c-2.25 0-3.32.05-5.85.14l-.94-1.54c3.18.14 4.26.18 6 .18v-7h-.14c-2.25 0-3.37 0-5.85.14l-.94-1.55c3.51.14 4.78.19 6.93.23V353a22.85 22.85 0 00-.09-2.71l3.37.46c.52.1.75.29.75.66s-.19.56-.65.75l-.9.33v3.93h9.47v-3.6a22.56 22.56 0 00-.09-2.67l3.37.46c.51.1.75.29.75.66s-.19.56-.66.75l-.89.33v4.07H164l2.77-2.81 3.51 2.77a.81.81 0 01.38.65.54.54 0 01-.61.57h-9v7.07zM161.39 347l2.44-2.67L167 347c.33.28.42.42.42.65s-.23.56-.6.56h-11.43v5.49c0 .46 0 .61-.28.75a4.88 4.88 0 01-1.68.42c-.38 0-.52-.19-.52-.66v-6h-3.75c-2.2 0-3.32.05-5.85.15l-.94-1.55c4.4.19 5.95.23 10 .23h.56v-4.77a22.47 22.47 0 00-.09-2.67l3.37.46c.61.1.84.33.84.75s-.18.57-.7.75l-.94.38V347zm-2.81 10.55h-9.47v7.07h9.47zM196.81 348.71a24.08 24.08 0 01-.94 4c7.31 2.48 12.33 6.09 12.33 8.81a1.45 1.45 0 01-1.32 1.59c-.93 0-.93-.05-3-2.9a22.62 22.62 0 00-8.3-6.61c-1.68 4.73-5.2 7.78-12.32 10.73l-.28-.75c7-3.56 10.31-8 11.06-14.9h-12.7l-.19 32.05c0 .46 0 .6-.32.75a4.77 4.77 0 01-1.93.46c-.46 0-.6-.18-.6-.65v-1.78c.14-4.5.33-22 .33-30.31 0-1.18 0-1.83-.05-3.47l3.14 1.78h12.42c.18-1.78.33-4.31.33-5.53 0-.61-.05-1.17-.15-2.2l3.85.47c.56.09.84.37.84.79s-.19.57-.75.85l-.89.42c-.14 1.54-.28 3.28-.28 3.33l-.09 1.76v.14h13.59l1.26-1.83 2.63 2.48c.42.38.51.57.51.85s-.18.56-.65.7l-.75.24v12.32c0 9.6 0 11.52.19 15.41a6.58 6.58 0 010 .89 2.62 2.62 0 01-.89 2.06 4.38 4.38 0 01-2.86 1.36c-.7 0-.7 0-.8-1.73 0-.66 0-.71-4.26-1.83l.09-.66c1 .05 2 .1 2.3.14 1.08.05 2.34.1 2.67.1.66 0 .84-.19.84-.8v-28.53zm-1.22 17.66c-2.53 5-5.85 7.87-12.18 10.4l-.37-.65c7.26-3.61 11.29-9.84 11.94-18.41l3.28 1.07c.66.19.89.42.89.8s-.23.56-.79.84l-.89.38a29.27 29.27 0 01-1.55 4.82 27 27 0 017 2.81c3.51 2 5.15 3.85 5.15 5.72a1.45 1.45 0 01-1.31 1.59c-.84 0-.89 0-2.86-2.76a20.47 20.47 0 00-8.2-6.51zM231.2 363.89v1.73c0 .47 0 .61-.33.75a5 5 0 01-1.87.43c-.42 0-.56-.19-.56-.61v-1.69c.14-4.26.24-8.81.24-11.76 0-1.17 0-1.69-.05-3.33l3 1.74h10.07V347h-12c-2.34 0-4 0-6.84.18l-.94-1.68c5 .28 6.51.33 11 .33h8.81v-3.28a23.84 23.84 0 00-.09-2.72l3.56.56c.61.1.89.28.89.7s-.24.66-.75.85l-1 .37v3.52h13.11l2.77-2.82 3.51 2.77a.81.81 0 01.38.65.54.54 0 01-.61.57h-19.13v4.17h10l1.17-1.78 2.53 2.39c.38.42.47.56.47.84s-.19.51-.61.66l-.75.23c.05.75.05 1.22.05 1.73V357l.14 6.6.05 1.5v.19a.61.61 0 01-.43.65 7.32 7.32 0 01-1.78.38c-.37 0-.51-.19-.51-.66v-1.73h-2.48v1.41c-.05.74-.05 1.26-.05 1.4v1l.05.93h5.29l2.76-2.81 3.52 2.77a.8.8 0 01.37.65c0 .38-.23.56-.61.56h-11.31v1.41c0 2.86.09 4 .18 6.42a6.5 6.5 0 01.05.89 2.59 2.59 0 01-.89 2.06 4.41 4.41 0 01-2.86 1.36c-.7 0-.7-.05-.79-1.78 0-.61 0-.61-4.27-1.78l.05-.66c4.45.23 4.45.23 5 .23s.85-.18.85-.79v-7.36h-19.81c-2.2 0-3.94 0-6.84.19l-.94-1.69c5 .29 6.56.33 11 .33h16.64v-4.73zm10.54-5.9h-10.49l-.05 4.73h10.54zm-10.49-1.18h10.49v-4.49h-10.45zm.75 14a13.35 13.35 0 014.31 1.41 5.13 5.13 0 012.95 4.08 1.74 1.74 0 01-1.59 1.87 1.23 1.23 0 01-1-.56 21.5 21.5 0 01-1-2.3 8 8 0 00-3.89-4.07zm22.67-18.5h-10.3v4.49h10.3zm0 5.67h-10.3v4.73h10.35zM286.72 346.6c0 4.69 0 8.67.19 11.71v.19a.57.57 0 01-.28.56 5.83 5.83 0 01-1.88.47c-.37 0-.51-.18-.51-.61l-.05-2.2h-10.36l-.09 24c0 .47-.09.65-.33.8a4.45 4.45 0 01-1.87.42c-.42 0-.56-.19-.56-.61v-1.69c.1-2.76.38-29.61.38-35.7v-3.23l3.09 1.78h9.47l1.17-1.73 2.53 2.34c.37.37.47.51.47.84s-.19.56-.61.66l-.75.23zm-12.79-3l-.05 5.25h10.31l-.05-5.25zm10.26 6.42h-10.31v5.48h10.31zm20.8-7.59l1.22-1.73 2.48 2.34c.47.47.52.51.52.84s-.19.52-.66.66l-.65.23v5.95l.1 27v.89a2.25 2.25 0 01-.85 1.93 4.15 4.15 0 01-2.67 1.31c-.7 0-.7 0-.75-1.64 0-.42-.09-.52-.47-.66s-1.68-.51-3.6-1l.09-.66c1.08.05 2 .1 2.39.15.89 0 2 .09 2.34.09.61 0 .8-.19.8-.75v-20.7H295v1.54c0 .42-.09.61-.32.75a5 5 0 01-1.88.42c-.42 0-.56-.19-.56-.61s0-1 .05-1.68c.14-3.89.23-9.7.23-13 0-.94 0-1.69-.05-3.28l2.91 1.64zm.33 7.54H295v5.53h10.36zM295 348.85h10.31v-5.2H295zM74.52 409c-3.73-3.72-8.79-5.61-15-5.61H44.57v40.86h14.91c6.25 0 11.31-1.89 15-5.62s5.68-8.71 5.68-14.81-1.88-11.11-5.64-14.82zm-4.73 25.28c-2.5 2.52-6 3.8-10.31 3.8h-8.4v-28.55h8.4c4.37 0 7.86 1.27 10.34 3.78s3.75 6 3.75 10.49-1.27 7.94-3.78 10.46zM109.21 407.21q-3.66-3.61-10.22-3.62a14.45 14.45 0 00-10.33 3.78 13.16 13.16 0 00-4.16 9.48h6.55a6.53 6.53 0 012.2-5.21 8.49 8.49 0 015.75-1.89q7.17 0 7.17 8v1.93l-11.87 2.24Q83.42 424 83.42 433.19a10.58 10.58 0 003.08 8 11.4 11.4 0 008.25 3 14.74 14.74 0 007.1-1.66 11.56 11.56 0 004.7-4.51l.31 5.32h6v-25.8q.01-6.7-3.65-10.33zm-3 19.74a11.91 11.91 0 01-2.23 7.17 9.11 9.11 0 01-7.92 3.88 6.72 6.72 0 01-4.39-1.27 5 5 0 01-.19-7 9.75 9.75 0 014-1.88l10.64-2.32zM140.39 404.05v6.63a11.11 11.11 0 00-7.86 2.85q-3.39 3.09-3.55 9.18v20.58h-6.63v-38.85h5.94l.46 6.78a10.38 10.38 0 014.2-5.17 13.29 13.29 0 017.44-2zM168.53 404.44h6.63v38.85h-5.94l-.38-5.32q-2.93 6.16-10.72 6.17-6 0-9.25-3.9t-3.24-10.67v-25.13h6.64v24.05q0 4.54 1.92 6.9a6.67 6.67 0 005.47 2.35 7.72 7.72 0 006.4-3.16q2.48-3.16 2.47-8.56zM225.12 403.59q6 0 9.29 3.93t3.27 10.64v25.13h-6.63v-24.05q0-4.39-2-6.79a6.76 6.76 0 00-5.52-2.39 7.7 7.7 0 00-6.39 3.2q-2.48 3.21-2.55 8.68v21.35H208v-24.05q0-4.39-2-6.79a6.75 6.75 0 00-5.51-2.39 7.66 7.66 0 00-6.48 3.36q-2.48 3.34-2.47 9.06v20.81H185v-38.85h5.94l.38 5.31a11.47 11.47 0 014.28-4.47 12.4 12.4 0 016.52-1.69q8.33 0 11.33 7.4 3.73-7.41 11.67-7.4zM270.33 407.21q-3.66-3.61-10.21-3.62a14.43 14.43 0 00-10.33 3.78 13.17 13.17 0 00-4.17 9.48h6.56a6.52 6.52 0 012.19-5.21 8.51 8.51 0 015.75-1.89q7.17 0 7.17 8v1.93l-11.88 2.24q-10.86 2.07-10.87 11.25a10.55 10.55 0 003.09 8 11.37 11.37 0 008.25 3 14.7 14.7 0 007.09-1.66 11.56 11.56 0 004.7-4.51l.31 5.32h6v-25.78q.02-6.7-3.65-10.33zm-3 19.74a11.92 11.92 0 01-2.24 7.17 9.11 9.11 0 01-7.86 3.85 6.75 6.75 0 01-4.4-1.27 5 5 0 01-.19-7 9.8 9.8 0 014-1.88l10.64-2.32zM1.13 459.66h6.56v1.45h-5v3.61h4.4v1.45H2.68v4h5v1.45H1.13zM18.13 459.66h1.67L15 471.59h-1.42l-4.82-11.93h1.67l3.61 9 .24.77.24-.77zM21.4 459.66H28v1.45h-5v3.61h4.41v1.45H23v4h5v1.45h-6.6zM30.08 459.66h3.25a4 4 0 012.85 1 3.78 3.78 0 01.46 4.64 3.35 3.35 0 01-1.64 1.19l2.77 5.1H36l-2.6-4.84h-1.77v4.84h-1.55zm3.25 1.45h-1.7v4.24h1.7a2.45 2.45 0 001.71-.56 1.93 1.93 0 00.63-1.53 2 2 0 00-.63-1.58 2.45 2.45 0 00-1.71-.57zM39.4 459.66H41v10.48h5.31v1.45H39.4zM51.74 459.66h1.61l4.78 11.93h-1.7l-1.26-3.16H49.9l-1.24 3.16H47zm1 2.64l-.22-.64-.22.64-1.87 4.7h4.21zM62.92 459.44a3.53 3.53 0 012.53.88 3.44 3.44 0 011 2.5h-1.61a2 2 0 00-.54-1.45 1.91 1.91 0 00-1.42-.53 1.83 1.83 0 00-1.34.48 1.74 1.74 0 00-.5 1.32 1.6 1.6 0 00.5 1.25 7.62 7.62 0 001.87.95 7.59 7.59 0 012.59 1.45 2.79 2.79 0 01.76 2.06 3.27 3.27 0 01-1 2.52 3.78 3.78 0 01-2.68.94 4 4 0 01-2.87-1 3.69 3.69 0 01-1.08-2.72h1.57a2.33 2.33 0 00.65 1.73 2.4 2.4 0 001.75.62 2.14 2.14 0 001.56-.54 1.91 1.91 0 00.55-1.44 1.53 1.53 0 00-.56-1.23 5.85 5.85 0 00-1.94-1 7.32 7.32 0 01-2.45-1.37 2.85 2.85 0 01-.78-2.13 3.32 3.32 0 01.9-2.38 3.37 3.37 0 012.54-.91zM67.6 459.66h10v1.45h-4.23v10.48h-1.55v-10.48H67.6zM79.1 459.66h1.55v11.93H79.1zM91.22 459.66h1.55v11.93h-1.53L85.31 463l-.46-.74v9.29H83.3v-11.89h1.52l5.89 8.52.51.78zM100.66 459.44a5.66 5.66 0 013.41 1 5 5 0 011.88 2.78h-1.72a3.41 3.41 0 00-3.59-2.32 3.92 3.92 0 00-3.07 1.35 4.85 4.85 0 00-1.19 3.39 4.91 4.91 0 001.19 3.36 4.42 4.42 0 005.84.46 3.35 3.35 0 001.06-2.55h-3.58v-1.45h5.22v.8a5.55 5.55 0 01-1.45 4.07 5.36 5.36 0 01-4 1.47 5.59 5.59 0 01-4.26-1.76 6.71 6.71 0 010-8.85 5.56 5.56 0 014.26-1.75zM117 459.44a5.66 5.66 0 013.41 1 4.94 4.94 0 011.88 2.78h-1.72a3.41 3.41 0 00-3.59-2.32 3.88 3.88 0 00-3.06 1.35 4.81 4.81 0 00-1.2 3.39 4.87 4.87 0 001.2 3.38 3.94 3.94 0 003.11 1.35 4 4 0 002.73-.89 3.35 3.35 0 001-2.55h-3.57v-1.45h5.21v.8a5.5 5.5 0 01-1.45 4.07 5.36 5.36 0 01-4 1.47 5.6 5.6 0 01-4.26-1.76 6.74 6.74 0 010-8.85 5.56 5.56 0 014.31-1.77zM130 459.44a5.82 5.82 0 014.36 1.76 6.55 6.55 0 010 8.85 6.31 6.31 0 01-8.74 0 6.55 6.55 0 010-8.85 5.82 5.82 0 014.38-1.76zm0 1.45a4.2 4.2 0 00-3.24 1.35 4.67 4.67 0 00-1.24 3.37 4.8 4.8 0 001.24 3.4 4.52 4.52 0 006.44 0 4.8 4.8 0 001.26-3.4 4.73 4.73 0 00-1.26-3.37 4.16 4.16 0 00-3.2-1.35zM143.71 459.44a5.82 5.82 0 014.36 1.76 6.55 6.55 0 010 8.85 6.31 6.31 0 01-8.74 0 6.55 6.55 0 010-8.85 5.85 5.85 0 014.38-1.76zm0 1.45a4.2 4.2 0 00-3.24 1.35 4.67 4.67 0 00-1.24 3.37 4.8 4.8 0 001.24 3.4 4.52 4.52 0 006.44 0 4.8 4.8 0 001.26-3.4 4.73 4.73 0 00-1.26-3.37 4.16 4.16 0 00-3.2-1.35zM151.8 459.66h4.29a5.93 5.93 0 014.39 1.64 6.46 6.46 0 010 8.65 5.93 5.93 0 01-4.39 1.64h-4.29zm4.29 1.45h-2.74v9h2.74a4.42 4.42 0 003.26-1.21 5.18 5.18 0 000-6.62 4.4 4.4 0 00-3.26-1.17zM166.56 459.66h10v1.45h-4.22v10.48h-1.55v-10.48h-4.23zM179.85 459.66h1.6l4.78 11.93h-1.7l-1.26-3.16H178l-1.25 3.16h-1.7zm1 2.64l-.22-.64-.22.64-1.87 4.7h4.2zM191 459.44a3.51 3.51 0 012.53.88 3.36 3.36 0 011 2.5h-1.57a2 2 0 00-.54-1.45 1.88 1.88 0 00-1.42-.53 1.85 1.85 0 00-1.34.48 1.74 1.74 0 00-.49 1.32 1.59 1.59 0 00.49 1.25 7.82 7.82 0 001.87.95 7.59 7.59 0 012.61 1.45 2.79 2.79 0 01.77 2.06 3.24 3.24 0 01-1 2.52 3.76 3.76 0 01-2.68.94 4 4 0 01-2.87-1 3.69 3.69 0 01-1.08-2.72h1.56a2.37 2.37 0 00.65 1.73 2.42 2.42 0 001.76.62 2.14 2.14 0 001.56-.54 2 2 0 00.55-1.44 1.56 1.56 0 00-.56-1.23 6.06 6.06 0 00-1.94-1 7.38 7.38 0 01-2.46-1.37 2.85 2.85 0 01-.78-2.13 3.32 3.32 0 01.9-2.38 3.37 3.37 0 012.48-.91zM195.7 459.66h10v1.45h-4.22v10.48h-1.55v-10.48h-4.23zM207.2 459.66h6.56v1.45h-5v3.61h4.41v1.45h-4.41v4h5v1.45h-6.56zM215 466.51h5.37v1.31H215zM222.1 459.66h1.55v11.93h-1.55zM234.22 459.66h1.56v11.93h-1.54l-5.92-8.59-.46-.74v9.29h-1.55v-11.89h1.51l5.89 8.52.51.78zM245.69 459.66h1.6l4.78 11.93h-1.7l-1.26-3.16h-5.26l-1.25 3.16h-1.7zm1 2.64l-.22-.64-.22.64-1.87 4.7h4.2zM253.69 459.66h1.55v10.48h5.31v1.45h-6.86zM262.26 459.66h1.55v10.48h5.31v1.45h-6.86zM278.11 459.66h1.6l4.79 11.93h-1.7l-1.26-3.16h-5.27l-1.27 3.16h-1.7zm1 2.64l-.22-.64-.23.64-1.86 4.7h4.2zM290.82 459.44a5.66 5.66 0 013.41 1 4.94 4.94 0 011.88 2.78h-1.72a3.41 3.41 0 00-3.59-2.32 3.88 3.88 0 00-3.06 1.35 4.81 4.81 0 00-1.2 3.39 4.87 4.87 0 001.2 3.38 3.94 3.94 0 003.11 1.35 4 4 0 002.73-.89 3.35 3.35 0 001.05-2.55h-3.57v-1.45h5.21v.8a5.55 5.55 0 01-1.45 4.07 5.36 5.36 0 01-4 1.47 5.59 5.59 0 01-4.26-1.76 6.71 6.71 0 010-8.85 5.56 5.56 0 014.26-1.77zM298.4 459.66h6.6v1.45h-5v3.61h4.41v1.45H300v4h5v1.45h-6.6zM310.23 459.44a3.51 3.51 0 012.53.88 3.36 3.36 0 011 2.5h-1.56a2.05 2.05 0 00-.55-1.45 2.14 2.14 0 00-2.76-.05 1.74 1.74 0 00-.49 1.32 1.59 1.59 0 00.49 1.25 7.73 7.73 0 001.88.95 7.62 7.62 0 012.6 1.45 2.79 2.79 0 01.77 2.06 3.24 3.24 0 01-1 2.52 3.76 3.76 0 01-2.68.94 4 4 0 01-2.87-1 3.69 3.69 0 01-1.08-2.72H308a2.33 2.33 0 00.65 1.73 2.4 2.4 0 001.75.62 2.14 2.14 0 001.56-.54 1.91 1.91 0 00.55-1.44 1.56 1.56 0 00-.56-1.23 6 6 0 00-1.94-1 7.32 7.32 0 01-2.45-1.37 2.81 2.81 0 01-.79-2.13 3.32 3.32 0 01.9-2.38 3.39 3.39 0 012.56-.91zM317.44 470.72a1 1 0 01-.32.75 1.06 1.06 0 01-.76.3 1 1 0 01-.76-.3 1 1 0 01-.31-.75 1 1 0 01.31-.76 1.08 1.08 0 011.84.76z"/></svg>