<svg id="Layer_1" data-name="Layer 1" xmlns="http://www.w3.org/2000/svg" width="405.21" height="398.13" viewBox="0 0 405.21 398.13"><defs><style>.cls-1,.cls-2,.cls-7{fill:#fff;}.cls-2{font-size:20.37px;font-family:Larsseit-Medium, Larsseit;font-weight:500;letter-spacing:0.04em;}.cls-3{letter-spacing:0.04em;}.cls-4{letter-spacing:-0.08em;}.cls-5{letter-spacing:0em;}.cls-6{letter-spacing:0.04em;}.cls-7{font-size:25.16px;font-family:NotoSerifJP-Medium-83pv-RKSJ-H, Noto Serif JP;letter-spacing:0.03em;}</style></defs><title>Artboard 1</title><path class="cls-1" d="M116.12,208.62c36.87-8.27,69.76-23.16,95.7-51.46,1.35,1.5,2.4,2.7,3.49,3.85,6.07,6.43,12.05,12.93,18.26,19.22,2.9,2.93,6.61,3.18,10.31,1.51a9.22,9.22,0,0,0,5.48-9,25.4,25.4,0,0,0-2-9.68,70.89,70.89,0,0,0-17.83-24.29c-1.57-1.42-1.77-2.47-.68-4.34,6-10.39,11.86-20.9,17.9-31.28,2.63-4.5,5.55-8.84,8.5-13.14a13.3,13.3,0,0,1,3.29-2.77c3.13-2.28,3.66-4.36,1.08-7.25a39.29,39.29,0,0,0-7.86-6.94c-4.45-2.9-9.25-5.27-13.94-7.81-1.89-1-4-1.15-5.59.36-6.43,6-14.67,6.54-22.7,7.52-5.54.67-11.15.82-16.73,1.17a23.15,23.15,0,0,1-2.93-.27c1.82-2.62,3.2-4.91,4.87-7,3-3.68,5.54-7.79,10.29-9.74,2.08-.85,2.27-3.8.53-5.88A28.28,28.28,0,0,0,200,46a151.05,151.05,0,0,0-14.12-8.51c-6-3.15-11.48-.89-17.37,2.44,1.21.67,1.92,1.1,2.67,1.47,5.34,2.66,6.63,5.7,4.64,11.22a161,161,0,0,1-15.35,31.33,175.4,175.4,0,0,1-27.22,33.6c-4.29,4.11-9,7.76-13.5,11.7a24.44,24.44,0,0,0-2.58,3.12l.58.77c1.71-.67,3.47-1.24,5.12-2A156.67,156.67,0,0,0,156.55,109q8-6.84,15.7-14.12c3-2.85,5.58-6.13,8.45-9.13a4.79,4.79,0,0,1,2.66-1.54c7.37-.67,14.75-1.14,22.12-1.74,5.57-.45,11.14-.92,16.7-1.52,4.49-.47,5.92.95,4.8,5.42-3.24,13-8.89,25-15.85,36.39-.32.54-.69,1.06-1,1.62-.88,1.79-2,2.15-4,1.33a142.27,142.27,0,0,0-34.72-10.35,7.53,7.53,0,0,0-3.63.24c1,.64,2.06,1.29,3.1,1.92,9.73,5.83,18.84,12.42,26.71,20.67,1.67,1.75,1.68,2.83.27,4.74-18,24.33-40.56,43-68.13,55.55-4.51,2.06-9.2,3.74-13.78,5.67-1.89.79-3.07.49-4.17-1.44A68.39,68.39,0,0,1,103,175.57c-1.54-14.45,2.79-27.2,10.51-39.15a19.77,19.77,0,0,0,3.14-12.4A104.75,104.75,0,0,1,117,106c1.22-11.39,2.63-22.79,4.63-34.06,2.5-14.1,7.28-27.34,16.08-39,7-9.23,15.95-15.68,25.91-21.25,8.79-4.93,18.23-7.44,28-8.88,17.79-2.62,34.14,1.93,49.68,10.56a73.38,73.38,0,0,1,28.06,27.55c5.83,9.91,9.15,20.83,11.06,32.13,2,11.66,3.9,23.34,5.36,35.07.67,5.44.25,11,.15,16.53a8.37,8.37,0,0,0,2.28,6c8.4,9.85,12.85,21.35,14.09,34.25a58.79,58.79,0,0,1-3.13,25.57,55.79,55.79,0,0,1-12.85,21.17,76.85,76.85,0,0,1-15.92,11.59c-13.42,7.72-28.3,11.17-43.42,13.79-12.19,2.11-24.51,2.17-36.75,1.46a147.05,147.05,0,0,1-45.68-9.66,70.28,70.28,0,0,1-27.26-18.65A18.39,18.39,0,0,1,116.12,208.62ZM234,30.33c.32.68.43,1,.61,1.31,5.31,8.54,9.35,17.68,13.17,27a34.25,34.25,0,0,0,6.34,9.59c3.23,3.58,8.08,3.72,12.12,1.08A12.18,12.18,0,0,0,270.53,54c-2.55-5.79-6.86-10.09-11.69-14C251.71,34.27,243.87,30.36,234,30.33Z"/><path class="cls-1" d="M238.21,314.62h10.9v4.59a15.28,15.28,0,0,1,12.25-5.78c5.14,0,9.11,1.83,11.55,6.92a14.54,14.54,0,0,1,12.55-6.87c7.94-.09,13.39,4.17,13.8,12.09.53,10.25.13,20.55.13,31.07h-11.5v-4.09c0-7.5,0-15,0-22.5,0-4.37-1.93-6.7-5.55-7-4.17-.3-7.11,1.77-7.61,6a109.5,109.5,0,0,0-.47,11.61c-.07,5.24,0,10.47,0,16H263v-11.2c0-5.33.07-10.66,0-16-.08-4-2.21-6.18-5.93-6.29-4.3-.13-7,2-7.16,6-.23,5.68-.14,11.38-.17,17.07,0,3.41,0,6.82,0,10.45H238.21Z"/><path class="cls-1" d="M116.64,328H106.29a12.56,12.56,0,0,1,9-13.35,29.69,29.69,0,0,1,20.91,1.07c4.62,2,6.1,5.9,6.15,10.53.07,7.4,0,14.81,0,22.22,0,2.43-.28,4.93,2,6.72.24.19.13.82.22,1.52a112.9,112.9,0,0,1-11.38-.16c-.84-.09-1.46-2.24-2.32-3.68-.57.43-1.4,1.06-2.21,1.7a16.48,16.48,0,0,1-14.51,3.32c-5.68-1.3-9.13-5.18-9.58-10.64-.56-6.72,2-11.84,7.59-13.81,3.86-1.36,8.06-1.78,12.11-2.63,1.49-.31,3.17-.35,4.4-1.1a4.72,4.72,0,0,0,2.21-3.24,4.61,4.61,0,0,0-2.17-3.33C123.85,320.57,118.72,322.65,116.64,328Zm14.57,8.78c-3.44.76-6.41,1.38-9.35,2.1a13.48,13.48,0,0,0-3.27,1.19A5.11,5.11,0,0,0,116,345.8c.4,2.55,2,3.85,4.56,4.19a9,9,0,0,0,10.16-7.09A61,61,0,0,0,131.21,336.8Z"/><path class="cls-1" d="M309.66,328c.1-6.9,3.58-11.71,9.81-13.49a30,30,0,0,1,19.89,1,9.5,9.5,0,0,1,6.42,9.17c.18,8,.11,16.07.18,24.11,0,2.23-.22,4.56,1.88,6.23.15.11-.45,1.72-.73,1.72a65.13,65.13,0,0,1-10.27-.2c-.89-.12-1.51-2.25-2.41-3.71-.46.38-1.17,1-1.9,1.55a16.52,16.52,0,0,1-14.72,3.5c-5.85-1.3-8.9-4.86-9.64-11.16-.67-5.67,2-11.17,7.1-13.06,4-1.47,8.38-1.94,12.59-2.86,1.41-.3,3-.26,4.16-1s2.48-2.24,2.4-3.32a5,5,0,0,0-2.58-3.51c-4.71-2.06-8.62-.48-11.2,4a2.33,2.33,0,0,1-1.65,1C315.94,328.06,312.88,328,309.66,328Zm24.87,8.8c-2.46.58-4.55,1.05-6.63,1.57a36.38,36.38,0,0,0-5.17,1.47c-2.65,1.1-3.64,3.42-3,6.49.52,2.54,2.42,3.45,4.71,3.71a8.94,8.94,0,0,0,10.1-8.53C334.59,340,334.53,338.48,334.53,336.81Z"/><path class="cls-1" d="M57.42,357.44V313.62a13.44,13.44,0,0,1,2-.31c6.5,0,13-.08,19.5.12,9.73.31,15.69,5.32,17.63,14.75A30.33,30.33,0,0,1,95.16,346c-2.7,6.64-7.45,11-14.77,11.39-6.93.41-13.9.22-20.84.27C58.93,357.66,58.32,357.53,57.42,357.44Zm10.81-8.63c2.75,0,5.35,0,7.94,0,4.45,0,7.31-2.36,8.72-6.41a23.4,23.4,0,0,0,0-15.15c-.73-2.3-2.23-4.17-4.62-4.5-4-.54-8-.63-12.09-.92Z"/><path class="cls-1" d="M225.73,356.75H215l-.3-4.55c-.46.27-.81.37-1,.6-4.71,5.89-13.13,6-18.63,3.92-4.86-1.86-7.19-5.85-7.44-10.72-.41-8.38-.38-16.78-.46-25.17-.06-6.45,0-6.45,6.37-6.45h5.27v3.06c0,7.95,0,15.9.07,23.84,0,2.71.61,5.34,3.41,6.56s6.1,1.2,8.44-.9A13.29,13.29,0,0,0,214,341a23,23,0,0,0,.46-6.45c.05-6.58,0-13.16,0-20h11.24Z"/><path class="cls-1" d="M178.74,324.56c-2.27.21-4.18.23-6,.59-4.47.86-6.77,3.3-7,8-.34,7.2-.36,14.41-.52,21.62,0,.54-.06,1.08-.11,1.87H154.32v-42h10.32c.1,2,.18,3.88.31,6.7,3.45-5.59,7.55-8.65,13.79-7.69Z"/><text class="cls-2" transform="translate(-0.09 396.2)">EVERLASTING G<tspan class="cls-3" x="158.9" y="0">O</tspan><tspan x="176.01" y="0">OD </tspan><tspan class="cls-4" x="213.38" y="0">T</tspan><tspan x="224.25" y="0">ASTE-IN ALL </tspan><tspan class="cls-5" x="351.95" y="0">A</tspan><tspan class="cls-6" x="366.39" y="0">GES</tspan></text><text class="cls-7" transform="translate(111.46 286.43)">元祖焼肉専門店</text></svg>