<svg id="Layer_1" data-name="Layer 1" xmlns="http://www.w3.org/2000/svg" width="637.72" height="787.53" viewBox="0 0 637.72 787.53"><defs><style>.cls-1{fill:none;stroke:#fcbfb9;stroke-linecap:round;stroke-linejoin:round;stroke-width:3.72px;}.cls-2{fill:#fcbfb9;}.cls-3{fill:#fff;}</style></defs><title>Artboard 1</title><path class="cls-1" d="M292.2,49.4c13.9,4.41,11.82,11,25.73,15.37s16-2.13,29.89,2.28,11.83,11,25.73,15.37,16-2.13,29.89,2.29,11.83,11,25.73,15.37,16-2.13,29.89,2.28,11.83,11,25.74,15.37,16-2.12,29.89,2.29,11.83,11,25.74,15.37,16-2.12,29.9,2.29,11.83,11,25.74,15.37"/><circle class="cls-2" cx="59.36" cy="144.14" r="14.84"/><path class="cls-3" d="M170.49,529.94c48.54-10.89,91.83-30.49,126-67.73,1.77,2,3.15,3.54,4.58,5.06,8,8.46,15.87,17,24,25.29,3.81,3.87,8.7,4.19,13.58,2s7.26-6.76,7.2-11.81A33.6,33.6,0,0,0,343.28,470a93.54,93.54,0,0,0-23.48-32c-2.06-1.88-2.33-3.25-.89-5.72,7.95-13.67,15.6-27.5,23.56-41.16,3.46-5.93,7.3-11.64,11.19-17.3,1-1.5,2.8-2.53,4.33-3.65,4.12-3,4.82-5.73,1.43-9.54a51.76,51.76,0,0,0-10.35-9.14c-5.87-3.81-12.18-6.94-18.35-10.27-2.49-1.35-5.22-1.53-7.36.47-8.46,7.93-19.31,8.61-29.88,9.9-7.3.88-14.68,1.08-22,1.53a30.94,30.94,0,0,1-3.85-.35c2.38-3.45,4.2-6.46,6.4-9.17,3.94-4.85,7.29-10.26,13.55-12.83,2.73-1.12,3-5,.69-7.73a36.77,36.77,0,0,0-7.31-7.22,199.18,199.18,0,0,0-18.59-11.2c-7.89-4.14-15.11-1.17-22.86,3.22,1.59.88,2.53,1.45,3.51,1.93,7,3.5,8.73,7.5,6.11,14.77a212.77,212.77,0,0,1-20.21,41.24A231.65,231.65,0,0,1,193.1,410c-5.65,5.41-11.88,10.21-17.77,15.39a31.75,31.75,0,0,0-3.4,4.1l.77,1c2.25-.88,4.56-1.63,6.73-2.68a206.79,206.79,0,0,0,44.29-29.13q10.58-9,20.65-18.58c4-3.76,7.36-8.08,11.13-12a6.24,6.24,0,0,1,3.51-2c9.69-.88,19.4-1.51,29.1-2.29,7.34-.6,14.67-1.22,22-2,5.92-.62,7.8,1.25,6.33,7.13-4.27,17.12-11.71,32.89-20.86,47.89-.43.71-.92,1.4-1.28,2.15-1.17,2.35-2.69,2.83-5.22,1.74-14.7-6.3-29.83-11.21-45.69-13.62a9.68,9.68,0,0,0-4.78.31c1.36.85,2.71,1.71,4.08,2.53,12.8,7.67,24.8,16.35,35.15,27.21,2.2,2.31,2.21,3.73.36,6.24-23.67,32-53.39,56.6-89.67,73.11-6,2.71-12.11,4.93-18.14,7.46-2.49,1-4,.65-5.5-1.89a90.1,90.1,0,0,1-11.68-35.63c-2-19,3.67-35.8,13.84-51.54a26.13,26.13,0,0,0,4.16-16.31c-.52-7.89-.2-12.45.42-23.78.82-15.06,3.47-30,6.1-44.83,3.29-18.55,9.58-36,21.16-51.3,9.18-12.14,21-20.63,34.11-28,11.56-6.48,24-9.79,36.81-11.68,23.4-3.45,44.93,2.54,65.38,13.9a96.51,96.51,0,0,1,36.94,36.26c7.67,13,12,27.42,14.55,42.3,2.59,15.35,6.3,30.62,7.05,46.16.49,10,.33,14.5.2,21.75a11,11,0,0,0,3,8c11.05,13,16.91,28.11,18.55,45.09a77.62,77.62,0,0,1-4.13,33.65c-3.69,10.45-9.16,20.14-16.91,27.86-6.05,6-13.49,11-21,15.26-17.62,10.16-37.23,14.7-57.11,18.14-16.05,2.78-32.27,2.85-48.37,1.92-20.59-1.19-40.81-5.09-60.13-12.71A92.26,92.26,0,0,1,172,532C171.57,531.62,171.29,531.1,170.49,529.94ZM325.71,295.28a16.69,16.69,0,0,0,.8,1.72c7,11.24,12.31,23.27,17.33,35.5a45.35,45.35,0,0,0,8.37,12.62c4.25,4.72,10.63,4.89,16,1.42,6.56-4.28,8.87-12.7,5.59-20.14-3.36-7.62-9-13.28-15.39-18.39C349,300.46,338.64,295.32,325.71,295.28Z"/><path class="cls-3" d="M331.21,669.47h14.34v6c4.39-5.05,9.52-7.64,16.13-7.6s12,2.4,15.2,9.1c4.16-6.1,9.62-9,16.52-9.05,10.45-.1,17.63,5.5,18.16,15.92.7,13.5.17,27,.17,40.9H396.59v-35c0-5.76-2.55-8.82-7.31-9.16-5.49-.4-9.35,2.33-10,7.84a147.16,147.16,0,0,0-.62,15.29c-.09,6.89,0,13.78,0,21H363.75V710c0-7,.1-14,0-21.05-.11-5.32-2.92-8.14-7.8-8.28-5.66-.16-9.22,2.58-9.43,7.91-.3,7.48-.19,15-.23,22.47v13.75H331.21Z"/><path class="cls-3" d="M171.21,687.1H157.56a16.55,16.55,0,0,1,11.84-17.57,39.07,39.07,0,0,1,27.53,1.41c6.07,2.6,8,7.77,8.09,13.86.1,9.75,0,19.5,0,29.25,0,3.19-.37,6.49,2.62,8.84.32.25.18,1.09.3,2-5.13,0-10.1.28-15-.21-1.1-.12-1.92-3-3.06-4.85-.74.57-1.83,1.39-2.9,2.24a21.67,21.67,0,0,1-19.09,4.36c-7.49-1.7-12-6.81-12.62-14-.74-8.85,2.58-15.58,10-18.19,5.09-1.79,10.61-2.33,15.94-3.45,2-.41,4.17-.46,5.8-1.45,1.39-.85,2.9-2.81,2.9-4.27a6.05,6.05,0,0,0-2.85-4.38C180.67,677.3,173.92,680,171.21,687.1Zm19.17,11.56c-4.53,1-8.43,1.83-12.31,2.77a17.4,17.4,0,0,0-4.31,1.57c-2.95,1.6-4,4.3-3.46,7.51s2.64,5.07,6,5.52a11.83,11.83,0,0,0,13.37-9.33c.45-2.53.45-5.13.69-8Z"/><path class="cls-3" d="M425.21,687.1c.12-9.09,4.71-15.41,12.9-17.76a39.35,39.35,0,0,1,26.19,1.34c5.46,2.2,8.32,6.34,8.44,12.06.24,10.58.14,21.17.24,31.75,0,2.93-.28,6,2.48,8.19.19.15-.6,2.27-1,2.27a87,87,0,0,1-13.51-.26c-1.18-.16-2-3-3.17-4.88l-2.5,2a21.83,21.83,0,0,1-19.37,4.6c-7.72-1.71-11.73-6.39-12.7-14.69-.88-7.46,2.59-14.7,9.34-17.19,5.28-1.94,11-2.56,16.58-3.76,1.85-.4,4-.35,5.48-1.3s3.26-3,3.16-4.37a6.59,6.59,0,0,0-3.4-4.63c-6.21-2.71-11.35-.63-14.74,5.24a3.1,3.1,0,0,1-2.17,1.29C433.51,687.16,429.48,687.1,425.21,687.1Zm32.73,11.58c-3.24.76-6,1.38-8.72,2.07a46,46,0,0,0-6.81,1.93c-3.49,1.45-4.79,4.5-4,8.53.68,3.36,3.18,4.55,6.19,4.89A11.78,11.78,0,0,0,457.8,706c0-.35.07-.71.09-1.07.17-2,.09-4,.09-6.2Z"/><path class="cls-3" d="M93.21,725.83V668.16a15.2,15.2,0,0,1,2.69-.41c8.56,0,17.12-.11,25.67.16,12.81.4,20.65,7,23.2,19.41a40,40,0,0,1-1.89,23.46c-3.54,8.74-9.8,14.43-19.44,15-9.12.54-18.28.28-27.43.35C95.21,726.12,94.42,725.94,93.21,725.83Zm14.23-11.36h10.45c5.86,0,9.62-3.11,11.49-8.44a31,31,0,0,0,0-19.94c-1-3-2.93-5.49-6.08-5.92-5.21-.71-10.5-.83-15.91-1.21Z"/><path class="cls-3" d="M314.77,724.94H300.59l-.39-6a4.72,4.72,0,0,0-1.31.79c-6.2,7.74-17.28,7.93-24.52,5.15-6.39-2.45-9.46-7.69-9.78-14.11-.55-11-.51-22.08-.61-33.12-.08-8.5,0-8.5,8.38-8.5h6.94v4c0,10.46,0,20.92.08,31.39,0,3.56.81,7,4.5,8.63,3.85,1.68,8,1.57,11.11-1.19,2.11-1.9,3.51-5,4.36-7.78s.58-5.64.6-8.49c.06-8.66,0-17.32,0-26.28h14.8Z"/><path class="cls-3" d="M252.92,682.55c-3,.28-5.5.31-7.92.77-5.89,1.14-8.92,4.36-9.21,10.51-.44,9.48-.47,19-.68,28.47,0,.7-.08,1.41-.14,2.45H220.78V669.42h13.59c.12,2.68.23,5.1.4,8.82,4.54-7.36,9.94-11.39,18.15-10.13Z"/><path class="cls-3" d="M19.54,758.08H30.08v2.86H22.54v4.9h6.57v2.79H22.54v5.44h7.54v2.82H19.54Z"/><path class="cls-3" d="M47.13,758.08h3.21l-7.45,18.77H40.1l-7.48-18.77h3.22l5.26,13.35.37,1.26.4-1.26Z"/><path class="cls-3" d="M53.67,758.08H64.21v2.86H56.67v4.9h6.54v2.79H56.67v5.44h7.54v2.82H53.67Z"/><path class="cls-3" d="M68.38,758.08H73.8a6.51,6.51,0,0,1,4.61,1.61,5.4,5.4,0,0,1,1.74,4.18,5.64,5.64,0,0,1-.89,3.14,5.43,5.43,0,0,1-2.51,2L81,776.87H77.53l-3.92-7.35H71.39v7.35h-3Zm5.42,2.86H71.39v5.92H73.8a3.57,3.57,0,0,0,2.41-.76,2.76,2.76,0,0,0,.89-2.19,2.8,2.8,0,0,0-.89-2.2A3.51,3.51,0,0,0,73.8,760.94Z"/><path class="cls-3" d="M84.39,758.08h3v16h8.12v2.82H84.39Z"/><path class="cls-3" d="M104.92,758.08h3.22l7.43,18.77h-3.3l-1.8-4.59h-7.91l-1.77,4.59H97.5Zm1.93,4.77-.35-1-.34,1-2.6,6.71h6Z"/><path class="cls-3" d="M124.12,757.73a5.19,5.19,0,0,1,5.69,5.41h-3.06a2.78,2.78,0,0,0-.76-2,2.6,2.6,0,0,0-1.94-.74,2.57,2.57,0,0,0-1.87.66,2.38,2.38,0,0,0-.68,1.81,2.06,2.06,0,0,0,.75,1.74A11.48,11.48,0,0,0,125,766a10.07,10.07,0,0,1,4.13,2.31,4.55,4.55,0,0,1,1.23,3.35,5.19,5.19,0,0,1-1.69,4.07,6.4,6.4,0,0,1-4.34,1.48,6.52,6.52,0,0,1-4.67-1.6,6,6,0,0,1-1.71-4.38h3a3.45,3.45,0,0,0,.92,2.46,3.37,3.37,0,0,0,2.45.86,3.24,3.24,0,0,0,2.19-.72,2.52,2.52,0,0,0,.79-2,2.17,2.17,0,0,0-.82-1.74,8.73,8.73,0,0,0-2.85-1.37,10.68,10.68,0,0,1-4-2.17,4.68,4.68,0,0,1-1.26-3.46,5.15,5.15,0,0,1,1.53-3.86A5.56,5.56,0,0,1,124.12,757.73Z"/><path class="cls-3" d="M132.59,758.08h15.79v2.86H142v15.95h-3V760.94h-6.38Z"/><path class="cls-3" d="M151.62,758.08h3v18.77h-3Z"/><path class="cls-3" d="M171.89,758.08h3v18.77h-3l-8.6-12.49-.73-1.18v13.67h-3V758.08h2.95l8.55,12.47.81,1.26Z"/><path class="cls-3" d="M188.21,757.73a9,9,0,0,1,5.49,1.61,8.12,8.12,0,0,1,3,4.53h-3.39c-.81-2.21-2.53-3.32-5.18-3.32a5.54,5.54,0,0,0-4.42,2,7,7,0,0,0-1.72,5,7.2,7.2,0,0,0,1.72,5,5.72,5.72,0,0,0,4.53,2,6,6,0,0,0,3.86-1.18,4.48,4.48,0,0,0,1.53-3.4h-5.1v-3h8.29v1.45a8.73,8.73,0,0,1-2.33,6.43,8.43,8.43,0,0,1-6.25,2.34,9,9,0,0,1-6.78-2.77,10.54,10.54,0,0,1,0-13.94A8.75,8.75,0,0,1,188.21,757.73Z"/><path class="cls-3" d="M215.77,757.73a8.93,8.93,0,0,1,5.5,1.61,8.12,8.12,0,0,1,3,4.53H221c-.81-2.21-2.53-3.32-5.18-3.32a5.54,5.54,0,0,0-4.42,2,7.11,7.11,0,0,0-1.72,5,7.22,7.22,0,0,0,1.72,5,5.72,5.72,0,0,0,4.53,2,5.9,5.9,0,0,0,3.86-1.18,4.48,4.48,0,0,0,1.53-3.4h-5.09v-3h8.28v1.45a8.73,8.73,0,0,1-2.33,6.43,8.43,8.43,0,0,1-6.25,2.34,9,9,0,0,1-6.78-2.77,10.54,10.54,0,0,1,0-13.94A8.77,8.77,0,0,1,215.77,757.73Z"/><path class="cls-3" d="M237.38,757.73a9.14,9.14,0,0,1,6.91,2.76,10.33,10.33,0,0,1,0,13.94,9.23,9.23,0,0,1-6.91,2.77,9.39,9.39,0,0,1-7-2.77,10.3,10.3,0,0,1,0-13.94A9.34,9.34,0,0,1,237.38,757.73Zm-6.52,9.71a7,7,0,0,0,1.8,5,6.63,6.63,0,0,0,9.37,0l0,0a7.14,7.14,0,0,0,1.79-5,6.92,6.92,0,0,0-1.79-4.93,6.63,6.63,0,0,0-9.38,0l0,0A6.84,6.84,0,0,0,230.86,767.44Z"/><path class="cls-3" d="M259.89,757.73a9.18,9.18,0,0,1,6.92,2.76,10.33,10.33,0,0,1,0,13.94,9.25,9.25,0,0,1-6.92,2.77,9.39,9.39,0,0,1-7-2.77,10.35,10.35,0,0,1,0-13.94A9.36,9.36,0,0,1,259.89,757.73Zm-6.51,9.71a7,7,0,0,0,1.8,5,6.63,6.63,0,0,0,9.37,0l0,0a7.14,7.14,0,0,0,1.79-5,6.92,6.92,0,0,0-1.79-4.93,6.63,6.63,0,0,0-9.38,0l0,0A6.84,6.84,0,0,0,253.38,767.44Z"/><path class="cls-3" d="M273.51,758.08h6.86a9.38,9.38,0,0,1,7,2.6,10.09,10.09,0,0,1,0,13.59,9.56,9.56,0,0,1-7,2.58h-6.86Zm6.86,2.82h-3.86V774h3.86a6.47,6.47,0,0,0,4.79-1.73,7.64,7.64,0,0,0,0-9.67,6.41,6.41,0,0,0-4.79-1.69Z"/><path class="cls-3" d="M298.68,758.08h15.79v2.86h-6.4v15.95h-3V760.94h-6.38Z"/><path class="cls-3" d="M320.56,758.08h3.22l7.43,18.77h-3.3l-1.8-4.59h-7.9l-1.77,4.59h-3.3Zm1.93,4.77-.35-1-.35,1-2.6,6.71h5.95Z"/><path class="cls-3" d="M339.75,757.73a5.69,5.69,0,0,1,4.09,1.41,5.61,5.61,0,0,1,1.6,4h-3.06a2.89,2.89,0,0,0-.76-2,2.62,2.62,0,0,0-2-.74,2.54,2.54,0,0,0-1.86.66,2.34,2.34,0,0,0-.68,1.81,2.06,2.06,0,0,0,.75,1.74,11.48,11.48,0,0,0,2.79,1.37,10,10,0,0,1,4.12,2.31,4.47,4.47,0,0,1,1.24,3.35,5.19,5.19,0,0,1-1.69,4.07,6.4,6.4,0,0,1-4.34,1.48,6.52,6.52,0,0,1-4.67-1.6,5.94,5.94,0,0,1-1.71-4.38h3a3.46,3.46,0,0,0,.93,2.46,3.37,3.37,0,0,0,2.45.86,3.22,3.22,0,0,0,2.19-.72,2.59,2.59,0,0,0,.79-2,2.2,2.2,0,0,0-.82-1.74,8.73,8.73,0,0,0-2.85-1.37,10.68,10.68,0,0,1-4-2.17,4.68,4.68,0,0,1-1.26-3.46,5.15,5.15,0,0,1,1.53-3.86A5.52,5.52,0,0,1,339.75,757.73Z"/><path class="cls-3" d="M348.21,758.08H364v2.86h-6.4v15.95h-3V760.94h-6.4Z"/><path class="cls-3" d="M367.26,758.08h10.53v2.86h-7.53v4.9h6.57v2.79h-6.57v5.44h7.53v2.82H367.26Z"/><path class="cls-3" d="M380.63,768.62h8.45v2.54h-8.45Z"/><path class="cls-3" d="M392.7,758.08h3v18.77h-3Z"/><path class="cls-3" d="M413,758.08h3v18.77h-3l-8.61-12.49-.72-1.18v13.67h-3V758.08h2.95l8.63,12.47.8,1.26Z"/><path class="cls-3" d="M433.09,758.08h3.22l7.43,18.77h-3.3l-1.8-4.59h-7.9L429,776.85h-3.3Zm1.94,4.77-.35-1-.35,1-2.6,6.71h6Z"/><path class="cls-3" d="M447.09,758.08h3v16h8.12v2.82H447.09Z"/><path class="cls-3" d="M461.75,758.08h3v16h8.12v2.82H461.75Z"/><path class="cls-3" d="M488.64,758.08h3.22l7.42,18.77H496l-1.8-4.59h-7.91l-1.77,4.59h-3.3Zm1.93,4.77-.35-1-.35,1-2.6,6.71h5.94Z"/><path class="cls-3" d="M510.14,757.73a9,9,0,0,1,5.49,1.61,8.12,8.12,0,0,1,3,4.53h-3.32c-.81-2.21-2.53-3.32-5.18-3.32a5.54,5.54,0,0,0-4.42,2,7.11,7.11,0,0,0-1.72,5,7.22,7.22,0,0,0,1.72,5,5.72,5.72,0,0,0,4.53,2,6,6,0,0,0,3.86-1.18,4.48,4.48,0,0,0,1.53-3.4h-5.1v-3h8.29v1.45a8.73,8.73,0,0,1-2.33,6.43,8.43,8.43,0,0,1-6.25,2.34,9,9,0,0,1-6.78-2.77,10.54,10.54,0,0,1,0-13.94A8.71,8.71,0,0,1,510.14,757.73Z"/><path class="cls-3" d="M523.06,758.08H533.6v2.86h-7.54v4.9h6.57v2.79h-6.57v5.44h7.54v2.82H523.06Z"/><path class="cls-3" d="M543,757.73a5.69,5.69,0,0,1,4.09,1.41,5.61,5.61,0,0,1,1.59,4h-3a2.82,2.82,0,0,0-.77-2,2.6,2.6,0,0,0-1.94-.74,2.49,2.49,0,0,0-1.86.66,2.34,2.34,0,0,0-.69,1.81,2.06,2.06,0,0,0,.75,1.74,11.48,11.48,0,0,0,2.79,1.37,10.07,10.07,0,0,1,4.13,2.31,4.55,4.55,0,0,1,1.23,3.35,5.23,5.23,0,0,1-1.68,4.07,6.4,6.4,0,0,1-4.35,1.48,6.5,6.5,0,0,1-4.66-1.6,6,6,0,0,1-1.72-4.38h3a3.46,3.46,0,0,0,.93,2.46,3.33,3.33,0,0,0,2.45.86,3.14,3.14,0,0,0,2.18-.72,2.52,2.52,0,0,0,.79-2,2.19,2.19,0,0,0-.81-1.74,8.88,8.88,0,0,0-2.86-1.37,10.68,10.68,0,0,1-4-2.17,4.63,4.63,0,0,1-1.25-3.46,5.1,5.1,0,0,1,1.52-3.86A5.55,5.55,0,0,1,543,757.73Z"/><path class="cls-3" d="M195.56,631.21c.82.33,1,.66,1,1.22,0,1.19-1.13,1.66-6.42,1.66h-3.45c-2.84,0-3.51-.6-3.51-2.68V616.64H178c-.49,9.27-2.78,15.06-12.35,18.47l-.23-.46c7.65-4.17,9.34-9.77,9.57-18h-8.84l-.3-1h25l1.89-2.35s2.15,1.62,3.44,2.78c-.1.36-.43.53-.89.53h-9.4v14.1c0,.6.16.8,1.39.8h3c.93,0,1.87,0,2.81-.07a.64.64,0,0,0,.7-.49,34.24,34.24,0,0,0,1.26-5.27h.43Zm-26-22.75-.23-.93h18.48l1.82-2.32s2.09,1.59,3.34,2.72c-.09.36-.43.53-.89.53Z"/><path class="cls-3" d="M213,612.07a2.61,2.61,0,0,1-1.49.4,30.48,30.48,0,0,1-3.51,5.16c6.49,2.32,4.67,6.59,2.42,5a11.55,11.55,0,0,0-2.62-4.2v15.69c0,.24-.86.9-2.12.9h-.48V620.58a32.54,32.54,0,0,1-5.5,4.2l-.4-.33a36.12,36.12,0,0,0,9.36-12.51h-8.24l-.3-1h5.08v-6.4l3.7.37c0,.46-.36.79-1.19.89v5.14h1.13l1.62-1.53Zm15.83,19.1s1.42,1.46,2.22,2.45c-.07.34-.4.5-.83.5H210.1l-.27-.93h4.38V605.94l2.82,1.19h7.18l1.29-1.69,3.15,2.38a2.34,2.34,0,0,1-1.52.63v24.7h.46Zm-12.12-23.08v7.39h7.85v-7.39Zm7.85,8.35h-7.85v7.61h7.85Zm-7.85,16.75h7.85V625h-7.85Z"/><path class="cls-3" d="M236.66,611.84c1.12,3.54,1.16,6.45-.24,7.88s-3.47-.17-1.68-2.06a9.61,9.61,0,0,0,1.39-5.79Zm9.93,1.06a1,1,0,0,1-1.26.29,33.65,33.65,0,0,1-4.14,3.58,52.74,52.74,0,0,1-.53,6.52c7.42,3.38,5.23,8.61,2.78,6.59a13,13,0,0,0-2.91-5.79c-.79,4.5-2.45,8-6,10.73l-.47-.53c5.37-6,4.64-15,4.64-29.37l3.74.39c-.07.5-.43.8-1.16.93,0,3.41,0,6.52-.06,9.37.82-1.62,1.75-3.67,2.18-4.77ZM264.3,632c.7.27.87.56.87,1.06,0,1-.93,1.46-4.77,1.46H258c-2.28,0-2.68-.6-2.68-2.22v-8.68h-3.51c-.43,4.84-1.62,8.81-10.73,11.49l-.4-.53c7.45-3,8.15-6.72,8.35-11h-5.43l-.27-1h4.21v-5.16h-4.37l-.27-.93h4.64v-4.75l3.47.36c0,.43-.33.7-1,.83v3.64h7.15v-4.83l3.48.36c0,.4-.3.7-1,.83v3.64h1.59l1.43-2s1.62,1.43,2.55,2.42c-.07.37-.4.5-.83.5h-4.77v5.16H261l1.42-2s1.69,1.39,2.65,2.41c-.06.37-.39.53-.82.53h-6.46v8.12c0,.43.1.53.86.53h3.67c.29,0,.4-.06.53-.36a22.64,22.64,0,0,0,1-3.78h.38ZM244,608.94h8.34v-4.07l3.78.36c-.1.46-.4.76-1.23.86v2.85h5.23l1.56-2s1.79,1.42,2.85,2.45c-.1.36-.4.53-.86.53H254.9v3.84c0,.27-1.09.73-2.05.73h-.5v-4.57h-8.08Zm6,13.77h7.15v-5.16H250Z"/><path class="cls-3" d="M298.41,610.58a2.76,2.76,0,0,1-1.42.59v20.2c0,2-.46,3.25-4.14,3.61a2.84,2.84,0,0,0-.89-1.92,6.69,6.69,0,0,0-3.21-1v-.49s3.87.26,4.73.26c.66,0,.86-.2.86-.76V610.74h-9.77a11.53,11.53,0,0,1-.63,1.79c9.67,2.29,8.91,8,6.1,6.62-1.13-2-4-4.43-6.43-6-1.29,2.45-3.71,4.77-8.28,6.69l-.39-.49c4.4-2.59,6.19-5.6,6.95-8.65h-8.51V634c0,.33-1,1-2.15,1h-.46V608.49l2.84,1.29h8.51a33.6,33.6,0,0,0,.4-5.1l3.84.37c-.07.4-.36.76-1.06.83a28.49,28.49,0,0,1-.5,3.9H294l1.29-1.62Zm-12,7.75c-.1.36-.39.59-1.15.59a24.86,24.86,0,0,1-1.2,2.82c10,3.18,9,8.94,6.13,7.48-1.09-2.22-4-5-6.49-6.82a16.68,16.68,0,0,1-8.94,7.61l-.27-.46c4.71-2.65,7.26-7.52,8.12-12.25Z"/><path class="cls-3" d="M329.84,622.7s2,1.52,3.11,2.61c-.1.37-.36.53-.86.53h-7.38v5.63c0,2-.43,3.25-4.11,3.58a2.55,2.55,0,0,0-.83-1.82,6.69,6.69,0,0,0-3.21-1v-.49s4,.26,4.74.26.83-.2.83-.66v-5.5H303.52l-.27-1h18.88v-2.61l3.57.36v-1.22H310.47v1c0,.26-1.09.86-2.15.86h-.4V610.68l2.78,1.19h5.9V609H304.28l-.27-1H316.6v-3.41l3.8.4c-.1.46-.39.79-1.19.93V608h8.38l1.69-2.18s1.89,1.55,3,2.61c-.1.37-.43.53-.89.53H319.21v2.85h6.19l1.3-1.42,2.88,2.18a2.22,2.22,0,0,1-1.3.63v8.54c0,.27-1.32.86-2.15.86h-.3c-.1.43-.43.67-1.12.8v1.42h3.5Zm-20.3,4.1c8.74,1.23,7.12,7.32,4.18,5.63a11.61,11.61,0,0,0-4.44-5.3Zm.93-13.94v3.28h6.13v-3.28Zm0,7.59h6.13V617.1h-6.13Zm8.74-7.59v3.28h6.49v-3.28Zm6.49,7.59V617.1h-6.49v3.35Z"/><path class="cls-3" d="M348.68,605.41l2.75,2.15a2.36,2.36,0,0,1-1.19.57v10.36a3.79,3.79,0,0,1-2.15.76h-.4v-1.82H341.5V634c0,.36-.93,1-2.15,1h-.47V605.55l2.75,1.29h5.76Zm-7.18,2.35v3.81h6.19v-3.81Zm6.19,8.71v-3.94H341.5v3.94Zm19.37-8.87a2.51,2.51,0,0,1-1.39.66v23.11c0,2-.46,3.28-4.37,3.64a2.86,2.86,0,0,0-.93-1.92A8.64,8.64,0,0,0,356.8,632v-.49s4.43.3,5.29.3.93-.24.93-.8V617.43h-6.49v.86c0,.23-1.09.8-2.15.8H354V605.68l2.72,1.16h6l1.29-1.63Zm-10.53.16v3.81H363v-3.81Zm6.49,8.71v-3.94h-6.49v3.94Z"/><path class="cls-3" d="M398.42,607.07s2.09,1.62,3.31,2.81c-.1.37-.39.53-.86.53H377.36v7.12c0,5.5-.39,12.62-5.76,17.45l-.46-.33c3.28-5,3.64-11.19,3.64-17.09v-9.37l3.05,1.26h8.27v-4.93l3.81.36c-.06.47-.36.8-1.22.9v3.67h7.94Zm-.33,7.42s2,1.58,3.21,2.71c-.1.33-.43.5-.89.5H389.85v5.82h5.69L396.8,622l2.68,2.06a1.9,1.9,0,0,1-1.26.56v9.5a2.74,2.74,0,0,1-2.15.7h-.43v-2.19H382.21v1.66c0,.2-.8.73-2.09.73h-.43V622.33l2.88,1.19h4.64V611.41l3.87.36c-.06.5-.4.79-1.22,1v4h6.52Zm-15.89,10v7.21h13.44v-7.21Z"/><path class="cls-3" d="M405,286.07Q391.77,275,379.53,273.29a62,62,0,0,0-11.31-.41A179.57,179.57,0,0,1,388,307.57q6.21,14.83,14.4,16a12.22,12.22,0,0,0,10.09-3.16,15.54,15.54,0,0,0,5.38-9.81Q419.53,298.48,405,286.07Z"/><path class="cls-3" d="M68.3,150.13l-.9-1,11-5.59-2.7-5.32,6.65-2.62c.24.58.11,1.18-.91,1.91l1.81,3.58,7.67-3.89-2.71-5.36L95,129.16c.23.58.07,1.2-.91,1.9l1.81,3.58,4.17-2.11.81-4.74s4.1.91,6.56,1.65c.16.51-.2,1-.84,1.28l-10.1,5.11,1.62,3.2c.22.42-1.4,2.1-3.61,3.22l-.81.41-2.18-4.3-7.63,3.88,1.73,3.4c.21.43-1.36,2.08-3.49,3.16l-.81.41L79,144.7Zm10,21.72c2-5.71,3-14.23,2.11-22.25l7.88-.72c0,.62-.34,1.24-1.43,1.63a51.9,51.9,0,0,1-1.12,6.88l3.62-.45c.07.45-.17.94-.91,1.48l8.76,17.35c.11.32-1.48,2.25-3.35,3.2l-.9.45-8.71-17.2A42.89,42.89,0,0,1,79,172.11Zm41.82-13.78c1.75-.14,2.41.22,2.89,1.16,1.1,2.17-.45,4.08-8,7.91l-4.6,2.33c-4.52,2.29-6.27,2-8.12-1.66l-11.62-23,6.66-2.57c.24.57,0,1.21-.84,1.82l5.26,10.39a62.5,62.5,0,0,0,2.92-13.79l7.82,1.07c-.13.71-.51,1.12-1.87,1.38a48,48,0,0,1-8.22,12.61l4.18,8.27c.45.89.88,1,2.41.22l4.09-2.07c1.53-.78,2.81-1.42,3.43-1.79a1.7,1.7,0,0,0,.91-1.26,44.46,44.46,0,0,0-1-7l.42-.21Z"/><path class="cls-3" d="M167.6,140.94c1.63,0,2.15.5,2.5,1.49.75,2.12-.79,3.78-8.35,6.46l-4.68,1.66c-4.49,1.6-5.8,1-7-2.42l-3.86-10.91-3.41,1.21c2.23,9.59-1.4,16.35-13.1,22.78l-.37-.48c8.21-6.56,9.77-12.43,7.66-20.24l-.85.3.32.9c.2.59-1.57,2.58-3.78,3.36l-.81.29L122,117.4l6.38.27,16.33-5.79,1.54-3.69,6.54,2.14a3.75,3.75,0,0,1-1.54,1.66l7.69,21.69c.08.38-2.1,2.37-3.9,3l-.9.32-.89-2.29-2,.7.08.23,3.35,9.45c.22.63.47.74,1.86.25l4-1.44c1.44-.51,2.75-1,3.36-1.24a1.27,1.27,0,0,0,.89-1.08,57.59,57.59,0,0,0-.1-6.7l.54-.19Zm-39.21-21.88,2.07,5.88,17.14-6.08-2.07-5.92Zm19.66,1-17.14,6.11,2.14,6,17.16-6Zm-12.42,19.4,17.14-6.09-2.13-6-17.15,6.08Z"/><path class="cls-3" d="M173.27,116.66l.11-.85a34.82,34.82,0,0,1,6.45-.45c3.48.06,7.11,1.22,7.74,4.06a2.42,2.42,0,0,1-1.59,3l-.32.08c-2.23.49-3.57-1.36-6.18-2.79A30.19,30.19,0,0,0,173.27,116.66Zm3.77-11,.1-.9a33.28,33.28,0,0,1,6.76-.61c3.41.18,6.5,1.11,7.15,4.09a2.49,2.49,0,0,1-1.73,3c-2.24.49-3.48-1.14-6.45-2.83a33.24,33.24,0,0,0-5.83-2.8Zm32.76-.38,1,.37c-2.59,10.44-11,22.29-19.87,30.58-1.34,1.22-1.61,2.89-3.19,3.24-2,.44-5.59-1-7.41-2.76a10.9,10.9,0,0,1-2.19-4.41l.53-.46c1.27.85,3.21,2.33,5,1.93,5.38-1.19,20.34-17.14,26.13-28.54Z"/><path class="cls-3" d="M222.81,108.94c1.6,1.77,2.53,3,5.05,2.74,5.09-.49,19.35-2.8,22.22-3.31,3.16-.59,5.26-1.17,6.41-1.28,2.85-.27,5.46,1,5.65,3,.13,1.38-.94,2.15-2.94,2.34s-3.58.2-6.91.51c-3.61.34-14.19,2-17.81,2.8-3.39.65-4,1.86-5.8,2s-5.09-2.63-6.17-4.88a7.64,7.64,0,0,1-.48-3.6Z"/><path class="cls-3" d="M279,95.09c1,1.41,2.31,2.83,3.93,2.87,3.3.09,11.69-1.27,14-1.78,1.2-.26,2-1.62,3-1.59,2.06,0,6.25,3.84,6.21,5.37s-2.25,2-2.84,2.83a84.94,84.94,0,0,1-7.47,9.74c7.76,2.64,14.66,7.36,14.52,12.61a3,3,0,0,1-3,3c-1.86,0-3.06-1.51-4.62-4.09-2.1-3.68-3.87-7.12-8.23-10.19a55,55,0,0,1-23.77,14.08l-.5-1c11.37-5.52,23.43-17.38,27.54-26.58.3-.71,0-.91-.5-.92a79.87,79.87,0,0,0-10.48,2.5c-1.59.48-2.19,1.61-3.52,1.58-2.11-.06-4.28-2.89-4.8-4.67a9.79,9.79,0,0,1-.29-3.49Zm24.41-4.15c2.66.79,4.88,1.71,6.32,3.13a3.36,3.36,0,0,1,1.31,2.71,1.67,1.67,0,0,1-1.63,1.69h-.22c-.76,0-1.36-.7-2.1-1.87a22.24,22.24,0,0,0-4.16-5Zm4.48-3.08a16.73,16.73,0,0,1,6.14,2.46,3.62,3.62,0,0,1,1.59,3,1.52,1.52,0,0,1-1.39,1.62H314c-.95,0-1.5-.76-2.38-2a19.45,19.45,0,0,0-4.18-4.5Z"/><path class="cls-3" d="M363.33,105.7l.77.69c-6.84,9.57-16.65,16.64-28.58,21.76-1.65.73-2.49,2.2-3.86,2-2.7-.39-5.6-3.66-6.27-5.69A10.66,10.66,0,0,1,325,120l.73-.33c1,1.3,2.36,3.34,4.06,3.58C334.86,124,355.21,113.83,363.33,105.7ZM328.9,95.94c6.41,1.7,13.76,5.61,13.05,10.48a3.09,3.09,0,0,1-3.41,2.73h-.12c-1.51-.22-2.38-1.21-3.32-3a30.75,30.75,0,0,0-6.73-9.47Z"/><path class="cls-3" d="M380.85,134.42c3.39.43,7.08.88,10.73,1.28l-.07.62c-5.11.79-12.62,1.67-23.61,2.44a2.15,2.15,0,0,1-1.65.79l-.85-7.25c2.08.36,5.64.89,10,1.43l2.15-7.92L369,123.49V122.1l8.89,2.42,1.76-6.58,6.62,2.39c-.26.57-.69.9-1.85.78l-1.3,4.83,2.07.57,3.76-3.09s2.37,3.47,3.64,5.69c-.22.48-.79.58-1.44.4l-8.38-2.28Zm15-32.14s2.48,3.44,3.83,5.74c-.27.47-.8.57-1.44.4l-10.36-2.82a79.13,79.13,0,0,1-7.67,7.09l9.58,2a18.82,18.82,0,0,0-1.78-5.08l.46-.22c12,6.86,5,15.4,1.45,10.48a12.36,12.36,0,0,0,0-3.84c-3.89.33-9.2.56-16.28.77a1.94,1.94,0,0,1-1.66.64l-.38-6.79c1.38.38,3.53.86,6.14,1.43,1.3-2.42,2.76-5.59,3.86-8.2l-7.55-2.06v-1.38L392,105.31Zm2.75,34.28c-.12.46-2.5.85-4.39.34l-.88-.24,8-29.34,6.41,2.44c-.32.61-.76,1-2.06.82Zm19-27.62c-.28.67-.86,1-2,.89l-9.39,34.58c-1,3.64-2.33,5.5-8.41,4.4a6.82,6.82,0,0,0-.06-4c-.46-1-1.33-1.84-3.44-2.81l.18-.65s4.53,1.53,5.49,1.79c.79.22,1.08.05,1.24-.55L411,106.44Z"/><path class="cls-3" d="M443.21,142.94c1.42,7.15,6.92,14.34,13,18.81l-.31.49c-2.15-.42-4.38.61-6,2.87q-8-8.9-7.54-22.09l-7.22,17.42c-.24.57-3.06.9-5,.08l-1-.42,6.05-14.6c-6.45,3.48-14.29,5.19-22.92,5.07l-.18-.69a46.37,46.37,0,0,0,22.12-10.7L420,133.29l.09-1.35,17.6,7.29,4.88-11.77-15.37-6.35.16-1.38L443,126.22l3.19-7.49,6.65,3.53c-.34.58-.88.87-2.14.56l-2.33,5.6,8,3.31,4.55-2.51s2.29,3.95,3.65,6.53c-.29.44-.91.45-1.53.19l-15.17-6.29L443,141.43l9.39,3.89,4.73-2.54s2.33,4,3.72,6.61c-.34.43-.87.47-1.53.19Zm-11.4-19.11c10.43,9,1.55,15.94-1.26,10,1.13-3.1,1.1-7,.79-10Zm13.76,17.28a84.43,84.43,0,0,0,7.94-8.44l5.54,5.35a1.77,1.77,0,0,1-2.14,0,40.25,40.25,0,0,1-11,3.62Z"/><path class="cls-3" d="M463.28,167.57a3.67,3.67,0,1,1,1.68,5.37A4,4,0,0,1,463.28,167.57Zm20.38-22c-1,2-3.41,5.17-8,10.72l-4.16,5.9-1.32-.69,2.44-6.81c2-6.94,3.23-10.7,4.27-12.68,1.19-2.29,3.08-2.81,5.19-1.7s2.77,2.93,1.58,5.22Z"/><path class="cls-3" d="M481,177.19a4,4,0,1,1,1.47,5.46l-.07,0A4,4,0,0,1,481,177.19Zm21.46-21c-1.14,1.93-3.66,5-8.56,10.29l-4.46,5.69-1.28-.75,2.78-6.68c2.31-6.84,3.76-10.52,4.9-12.46,1.31-2.22,3.22-2.64,5.28-1.43a3.54,3.54,0,0,1,1.74,4.69,4.09,4.09,0,0,1-.4.67Z"/><path class="cls-3" d="M11.05,265.12c.18.28,0,.61-.39,1.13,4.19.86,9.32-.23,13.86-2.08l.24.31a2.43,2.43,0,0,0-.06,2.46c-4.6,1.32-9.95,1.52-14.14-.11,1.19,4.62.86,11.57-.83,16.82l-.4-.1c1.06-5.05.61-12.82-1.28-16.58Zm5.6,3.94s1.91-.22,3.14-.27c.17.23.06.52-.19.78l-7.32,7.48-.68-.38L17,271.2Zm5.7,1.26,3-.27a2.08,2.08,0,0,1-.59,1.19c.9,2.25,2.48,6.5,3.46,9.47a3.26,3.26,0,0,1-1.73,1.37c-1-3.1-2.49-7-3.57-9.55l-9.57,9.78-.67-.37,9.76-10Z"/><path class="cls-3" d="M46.64,251.19S48.71,251,50,251c.15.25,0,.53-.23.75l-6.59,5.84,4,4.53c.1.12-.1.94-.93,1.67l-.29.26-4.41-5-8.82,7.75-.65-.42,3.34-2.94-5.24-5.87,2.52-.87,3.78-3.33-3.2-3.65-4.1,3.69a22.7,22.7,0,0,1-.69,8.6h-.43a30.59,30.59,0,0,0-2.19-12.34L29,248.56a1,1,0,0,1-.5,1q.36,1.5.57,3L38,244.75l-.09-2.28s2-.18,3.38-.16c.13.26,0,.53-.27.78l-6,5.24,3.21,3.61,3-2.65-.11-2.15S43,247,44.29,247c.13.22,0,.51-.26.74l-5.35,4.7,4,4.56,4.07-3.58ZM41,258.51,37,254l-4,3.53L37,262Z"/><path class="cls-3" d="M64.4,245.88c4.33-4.8,4.63-9.18,1.84-12.88a7.22,7.22,0,0,0-10-1.88,4.91,4.91,0,0,0-.51.39c-.24.18-.47.39-.73.61a4.76,4.76,0,0,1,2.76,1.52,13.07,13.07,0,0,1,1.92,3.91c1,3.15,1.62,8.85-.6,10.52-1.46,1.1-4.63-.08-6.58-2.67a10,10,0,0,1-1.58-8,11.13,11.13,0,0,1,4.4-6.76c4.37-3.3,9.85-2.86,13.07,1.41,2.66,3.53,2.94,8.72-3.52,14.2Zm-10.14-13A9.6,9.6,0,0,0,52,237.81a8.18,8.18,0,0,0,1.47,6.13c1.4,1.87,3.37,2.73,4.22,2.1,1.29-1,.8-5.51.26-7.89a12.35,12.35,0,0,0-1.77-3.89,4.12,4.12,0,0,0-2-1.39Z"/><path class="cls-3" d="M81.46,224.45a15.31,15.31,0,0,1,4.84-5.31c2.6-1.66,5.44-1.28,7.06,1.25,1.42,2.21.91,5.19-1.88,7a5.75,5.75,0,0,1-5.65.23l.14-.55a6,6,0,0,0,4.21-.86,3.55,3.55,0,0,0,1.51-4.78c-.07-.12-.14-.25-.22-.36-1-1.58-2.81-2.23-5.12-.74-1.72,1.09-3.07,3.22-4.15,5.25,2,2.95,2.77,3.57,3.29,4.37.64,1,.69,2.51,0,3s-1-.34-2.15-.54a21.61,21.61,0,0,0-3.31-.26c-.24,1-.32,1.46-.67,1.68a1.33,1.33,0,0,1-1,.07,1.69,1.69,0,0,1-1.13-.77c-.38-.58-.36-.84.19-1.13a2.13,2.13,0,0,0,1.09-1.1c.46-.9,1.3-3.27,2.25-5.07l-.88-1.36-1.67-2.64a17.26,17.26,0,0,1-2.12,1.88c-1.15.73-2.29,1.06-4.44-.49l.18-.48c1.75.35,2.27.35,3.35-.4a13.7,13.7,0,0,0,2.1-2c-1-1.52-1.83-2.89-2.18-3.4s-.53-.54-1-.45a5.33,5.33,0,0,0-1.52.73l-.31-.35a3.71,3.71,0,0,1,1.34-1.57c.89-.57,2.82-.8,3.18-.23s.23,1.07.52,1.86a17.76,17.76,0,0,0,1,2.12c1.14-1.56,1.4-2.64,1.81-2.9s1.22-.72,1.66-.09a1.3,1.3,0,0,1-.17,1.36,31.91,31.91,0,0,1-2.4,3.27c.55,1,1.15,2,1.74,2.91Zm0,2.57a37,37,0,0,0-1.35,4.38c1-.11,2.24-.27,3-.4.59-.13.64-.38.36-.82Zm.75-13.25A7.82,7.82,0,0,1,85,211.69c2-.85,4.49-.38,5.45,1a1,1,0,0,1-.06,1.41l0,0c-.44.4-1.13,0-1.73.49a10,10,0,0,0-1.32,1.71l-.46-.2a24.41,24.41,0,0,0,1-2.29c.07-.44,0-.65-.49-.85-1.55-.65-3.35.2-4.77,1.23Z"/><path class="cls-3" d="M92.5,206.05l-.5-.6,6.21-3.35-1.45-2.69,2.71-1.14c.13.34.07.66-.48,1l1,1.83,4.7-2.55-1.48-2.61,2.74-1.16c.15.33.07.66-.46,1l1,1.83,3.07-1.66.34-2.08s1.89.32,3,.66c.09.27-.07.51-.37.67l-5.72,3.09,1,1.76c.09.18-.43.84-1.25,1.31l-.29.16-1.22-2.26-4.71,2.54,1,1.88c.11.2-.51.89-1.22,1.27l-.29.16-1.27-2.35Zm5.82,11.63a28.53,28.53,0,0,0,1-12.18l3.14-.35c0,.31-.18.65-.72.88a26.12,26.12,0,0,1-.29,3.63l1.69-.24a.94.94,0,0,1-.49.79l5.12,9.47c0,.15-.53.9-1.21,1.27l-.29.16-5.17-9.56a22.47,22.47,0,0,1-2.4,6.26Zm22.33-7.48c.73-.1,1,0,1.17.39.47.86-.23,1.62-4.25,3.79l-2.64,1.39c-2.08,1.13-2.85,1-3.67-.46l-6.72-12.44,2.68-1.09c.14.3,0,.63-.44,1l3.08,5.69a34.32,34.32,0,0,0,2.34-8l3.09.46c-.06.33-.25.52-.89.63a27.85,27.85,0,0,1-4.21,7.5l2.62,4.88c.27.5.52.57,1.51,0l2.42-1.3c1.11-.6,1.93-1.08,2.26-1.28a.7.7,0,0,0,.38-.65,25.47,25.47,0,0,0-.94-3.78l.27-.15Z"/><path class="cls-3" d="M145.57,199c.65,0,.89.11,1.06.48.36.82-.27,1.5-4.07,3.2L140,203.84c-2,.89-2.58.7-3.19-.66l-2.6-5.78-2.41,1.08c1.45,5-.24,8.44-5.9,12.2l-.26-.31c4.38-3.75,5.39-6.73,4.07-11l-1.67.75.34.77c.1.21-.45,1-1.25,1.35l-.31.14-6.48-14.54h2.42l9.6-4.29.49-1.54,2.88.71a2.07,2.07,0,0,1-.81.9l5.29,11.83a3.17,3.17,0,0,1-1.3,1.31l-.31.13-.53-1.19-2,.88h0l2.38,5.33c.15.35.28.38,1.1,0l2.3-1a19.26,19.26,0,0,0,2.08-1c.3-.2.36-.27.35-.54a23.45,23.45,0,0,0-.57-3.55l.3-.14Zm-22.64-10.37,1.36,3.06,10-4.47-1.36-3Zm11.67-.7-10,4.46,1.42,3.17,10-4.46Zm-6.85,11.5,10-4.46-1.44-3.21-10,4.46Z"/><path class="cls-3" d="M154.21,186.39c0,1.48-.15,4.39-.07,5.39a7.31,7.31,0,0,0,.25,1.91c.27.75,1,1.37,1.25,2a.84.84,0,0,1-.33,1.14l-.19.08a1.85,1.85,0,0,1-1.62-.48,11.25,11.25,0,0,1-3.4-5,23.65,23.65,0,0,1-1.12-6.72,16.75,16.75,0,0,0-.48-3.16,4.15,4.15,0,0,0-2.26-2.14l.25-.44a5,5,0,0,1,1.67.25c.74.23,2.32,1,2.71,2.09.21.58,0,1.16-.09,2.73a15.55,15.55,0,0,0,.52,6.5,4.22,4.22,0,0,0,1,1.8c.28.25.47.24.57-.18.25-1,.57-4.35.72-5.77Zm.73-6.29a11.92,11.92,0,0,1,5.27-3.83,8,8,0,0,1,3.58-.65,1.21,1.21,0,0,1,1.16.7c.13.39,0,.71-.5,1a9.78,9.78,0,0,0-2,1.23,40,40,0,0,0-3.21,3.55l-.54-.3c.78-1.18,2-2.93,2.25-3.53.19-.4.15-.57-1.49,0a15.76,15.76,0,0,0-4.16,2.33Zm2.39,7.46a9.43,9.43,0,0,0,1.39,1.77c1.39,1.2,2.91,1.56,5.91.48a25.08,25.08,0,0,0,3.91-1.88c.75-.27,1.62-.26,1.85.37.41,1.14-1.79,2.25-4.5,3.22-4,1.43-6.54.7-8.06-1.65a9.12,9.12,0,0,1-1-2Z"/><path class="cls-3" d="M180.05,178.17c-.11,1.44-.35,4.44-.43,5.42a7.78,7.78,0,0,0,.14,1.86c.21.79.8,1.48,1,2.15a.88.88,0,0,1-.45,1.13l-.16.05c-.5.14-1-.17-1.6-.66a11.52,11.52,0,0,1-3.08-5.5,26.71,26.71,0,0,1-.71-7.18,14,14,0,0,0-.2-3.17,4.59,4.59,0,0,0-2.18-2.39l.29-.4a4.07,4.07,0,0,1,1.68.37,4.68,4.68,0,0,1,2.57,2.38c.16.57-.09,1.15-.3,2.7a17.2,17.2,0,0,0,.11,7,5.07,5.07,0,0,0,1,2.17c.24.28.47.25.6-.16.31-1,.8-4.48,1-5.91Zm9-5.7c.73,2.47,1.56,4.73,2.16,6.47a9.77,9.77,0,0,1,4.73,1.13,2.1,2.1,0,0,1,1.27,1.22c.16.6,0,1-.51,1.15s-.83-.11-1.55-.48a10.55,10.55,0,0,0-3.24-1.24,5.22,5.22,0,0,1,.18.56c.56,2-.35,3.69-3.47,4.55-2.21.6-4.34,0-4.86-1.87-.6-2.18,1.41-3.8,4.14-4.54a10.18,10.18,0,0,1,1.64-.35c-.55-1.71-1.38-4.15-1.95-6.15a22.83,22.83,0,0,1-2.63.93c-1.53.42-2.71.42-4.61-1.37l.26-.42a6,6,0,0,0,3.76.3,15.11,15.11,0,0,0,2.78-1c-.33-1.19-.68-2.48-.85-3.08s-.34-.78-.75-.8a8.09,8.09,0,0,0-1.84.18l-.18-.46a5.23,5.23,0,0,1,1.68-1.2c1.24-.34,2.81,0,3,.63a16.08,16.08,0,0,1,.08,1.84,15.14,15.14,0,0,0,.32,2c.4-.27.74-.49,1-.7,1.14-.79,1.49-1.2,1.71-1.26.59-.17,1.55-.08,1.71.49s-.17.87-1,1.46A29.61,29.61,0,0,1,189,172.2Zm.85,8a10.39,10.39,0,0,0-2.66.41c-1.49.41-2.91,1.46-2.59,2.6s1.53,1.21,2.91.83c2.66-.73,2.89-1.83,2.37-3.74Z"/><path class="cls-3" d="M218.94,161.87s1.78.94,2.85,1.62c0,.27-.25.44-.58.5L205,167.14l.42,2.15c.17.85.28,1.72.37,2.59l7.87-1.52.85-1.45,2.71,1.35a2.09,2.09,0,0,1-1.05.75l1.81,9.34a3.59,3.59,0,0,1-1.62.83l-.33.07L214,171l-8.23,1.59c.31,4.13-.45,8.18-3.94,11.37l-.38-.22c3-4.12,2.87-9.06,1.9-14.08l-1.74-9,2.93-.26c0,.37-.13.66-.74.88l1,5.1,6.4-1.25-1.34-6.93,3-.29c0,.36-.14.63-.73.84l1.16,6,4.62-.89Z"/><path class="cls-3" d="M234.39,155.38c-.07.32-.35.59-.91.63a36.42,36.42,0,0,1-2,6l1.23.29c-.05.24-.26.45-.69.58l1.73,14.86a2.57,2.57,0,0,1-1.64.86h-.36l-1.54-13.93a23.11,23.11,0,0,1-2.79,4l-.39-.21a41,41,0,0,0,4.18-13.69Zm13.38,2.47a27,27,0,0,1,2.54,1.8c0,.29-.28.45-.62.48l-3.9.46,1.52,13.12c.19,1.64-.08,2.7-3.26,3.41a2.09,2.09,0,0,0-1-1.47,7.65,7.65,0,0,0-3.14-.51v-.39s3.83-.18,4.57-.27.75-.27.69-.72l-1.49-12.93-10,1.11-.29-.71,10.14-1.18-.73-6.33H246c0,.4-.23.65-.86.8l.61,5.32,1-.12Zm-12.09,6.47c7.17,2.46,6.07,7.22,3.76,5.83a16.82,16.82,0,0,0-4-5.65Z"/><path class="cls-3" d="M262.28,163.88c-.52,1.75-1.24,4.25-1.45,5.23a6.32,6.32,0,0,0-.19,1.74c0,.82.44,1.27.48,2.16a.83.83,0,0,1-.74.92h-.17a1.87,1.87,0,0,1-1.46-1,11.66,11.66,0,0,1-1.78-6.26c-.14-3.37,1.35-7.21,1.27-9.27a4.46,4.46,0,0,0-1.61-2.79l.29-.37a5.72,5.72,0,0,1,1.6.71,4.51,4.51,0,0,1,2,2.9,5.73,5.73,0,0,1-.73,2.19,15.53,15.53,0,0,0-1.46,6.29,6.39,6.39,0,0,0,.6,2.68c.22.37.43.36.64,0,.46-.84,1.48-3.58,2.1-5.33Zm5.62-9.7a5.67,5.67,0,0,1,2-.65c1.06,0,2.78.63,2.82,1.38a11.38,11.38,0,0,0-.32,1.76c0,.59.06,1.49.13,2.41a13.21,13.21,0,0,0,1.31-.52,10,10,0,0,1,1.39-.7c.64,0,1.5.3,1.53.89,0,.44-.18.73-.78,1a18.28,18.28,0,0,1-3.27,1.19c.27,2.74.69,6.69-.27,9-1.06,2.8-3.35,4.15-6.24,5.2l-.3-.48c2.33-1.41,4-2.84,4.73-5.55.71-2.11.48-5.29.27-7.76a18.21,18.21,0,0,1-2.84.35,4.77,4.77,0,0,1-4.47-2.46l.29-.4a6.78,6.78,0,0,0,4,1.2,14,14,0,0,0,2.86-.48c-.13-1.44-.3-3.05-.41-3.79-.08-.56-.24-.74-.63-.85a8.55,8.55,0,0,0-1.74-.29Z"/><path class="cls-3" d="M285,159.2c0-1.41-.24-2.17-1.9-3.48l.22-.35a6.51,6.51,0,0,1,1.84.44c1,.5,2.39,1.78,2.35,2.88s-1.12,2.72-1.21,5.52c-.09,3,1.24,4.59,2.25,5.13a.66.66,0,0,0,.92-.15l0,0a40.16,40.16,0,0,0,2.68-4.57l.63.3a40.94,40.94,0,0,0-1.63,4.71c-.22,1.25.19,1.34.17,2,0,.83-.89,1.26-2.08.73-2-.94-4.5-3.28-4.5-8C284.75,162.43,285,160.54,285,159.2Zm12-.38.2-.56a8.22,8.22,0,0,1,5,2.68,8.69,8.69,0,0,1,2.05,5.8c0,1.18-.47,1.74-1.29,1.71a1,1,0,0,1-.95-1,16.46,16.46,0,0,0-1.14-5,7.41,7.41,0,0,0-3.85-3.63Z"/><path class="cls-3" d="M315.38,155.12l.18-.5a8.88,8.88,0,0,1,4.65,1.75,3.09,3.09,0,0,1,1.44,2.86c-.06.66-.41,1-1,1s-1-.33-2.12-.44a18.05,18.05,0,0,0-3.82.13c-.44,0-.56.21-.59.46s.21,1,.18,1.6a9.93,9.93,0,0,1-.6,2.13,17.71,17.71,0,0,0-.91,3.45c0,.28.12.32.34.19,2.76-1.79,6-3,8.9-2.73,3.89.39,5.55,3.16,5.29,5.8-.47,4.71-7.67,5.93-13.64,4.89v-.6a26.18,26.18,0,0,0,5-.35c4.8-.91,6.36-2.85,6.55-4.77a3.65,3.65,0,0,0-3.26-4h-.21c-2.87-.29-6.16,1.92-8.22,3.88-.52.54-.91,1.36-1.5,1.3a1.46,1.46,0,0,1-1-.72,2.17,2.17,0,0,1-.44-1.36c.05-.46.29-1,.46-1.74.32-1.41,1-3.67,1.32-4.9a16.08,16.08,0,0,0,.27-2.17,1.25,1.25,0,0,1,1.23-1.2c1.28-.18,3.82-.5,4.83-.78.37-.12.42-.35.13-.79A7.41,7.41,0,0,0,315.38,155.12Z"/><path class="cls-3" d="M343,158.94a4.14,4.14,0,0,1,2-.32c1.14.2,2.69,1.06,2.58,1.74s-.58,1-.72,1.63c-.07.3-.18.75-.27,1.31,4.41.27,5.72.23,6.23.31,1,.17,2.34.94,2.19,1.88-.1.56-.43.68-1,.59a31.39,31.39,0,0,0-7.67-1.5c-.23,1.22-.47,2.61-.65,3.88a5,5,0,0,1,.48,3.63c-.81,4.81-5,7-10.26,7.24l-.2-.63c3.28-.62,6.11-2,7.49-4.24-2.69.61-4.35-1.75-3.92-4.31a3.53,3.53,0,0,1,3.9-3.12l.1,0a3.6,3.6,0,0,1,1,.3c.1-.74.24-1.78.35-2.89a48.18,48.18,0,0,0-6.69.13,13.4,13.4,0,0,1-2.51.34,3.54,3.54,0,0,1-2.1-2.39,4.52,4.52,0,0,1,0-1.64l.49-.1c.51,1,.84,1.79,1.7,1.93s6.2.34,9.23.48c.1-.92.17-1.77.22-2.38s-.07-.67-.46-.86a6.93,6.93,0,0,0-1.65-.54Zm1.3,12c.26-1.55-.3-2.55-1.39-2.73a2.21,2.21,0,0,0-2.45,1.94v.06a2.15,2.15,0,0,0,1.52,2.65l.12,0C343.31,173.07,344,172.54,344.27,170.94Zm5.58-12.41a8.75,8.75,0,0,1,2.45,2,2,2,0,0,1,.56,1.66.67.67,0,0,1-.71.61l-.12,0c-.41-.07-.59-.64-.95-1.33a13,13,0,0,0-1.63-2.57Zm3-.45a8.72,8.72,0,0,1,2.53,1.86,2,2,0,0,1,.55,1.66.7.7,0,0,1-.77.6h-.06c-.38-.07-.6-.6-1-1.31a10.71,10.71,0,0,0-1.64-2.45Z"/><path class="cls-3" d="M361.05,164.42a5,5,0,0,1,2-.14c1.15.28,2.58,1.94,2.43,2.59-.12.47-.76.72-1,1.5-.47,1.31-2.17,7.76-2.72,10.08-.06.25,0,.34.23.35,4.65-.32,11.66-2.91,16.06-5.72l.34.56c-4.13,3.59-9.79,6-15.78,7.42-.92.23-1.1.85-1.7.7a3.51,3.51,0,0,1-1.6-2.7c.11-.43.64-.7.87-1.54.49-1.71,2.26-9,2.56-11,.11-.55,0-.91-1.73-1.7Z"/><path class="cls-3" d="M401.53,177.36l.43.51c-4.54,4.38-10.34,7-16.85,8.82-.67.17-1.17.74-1.76.56a5.13,5.13,0,0,1-2.52-3,5.59,5.59,0,0,1,.06-2l.45-.13c.45,1,1,2.06,1.81,2.31C385.27,185.13,396.45,181.39,401.53,177.36Zm-16.32-7.56c2.77,1.58,5.84,4.27,5.2,6.36a1.13,1.13,0,0,1-1.34.82l-.07,0c-.51-.16-.81-.6-1.18-1.57a17.09,17.09,0,0,0-3.06-5.19Z"/><path class="cls-3" d="M414.84,181.49a36.92,36.92,0,0,0,5,1.25c.7.11,1.1-.29,1.56-.12s1.87,2,1.59,2.75c-.19.51-1.14.39-1.67.85a41.42,41.42,0,0,1-5.67,4.09c1,1.56,1.69,3.14,1.35,4.17a1,1,0,0,1-1.21.74l-.15-.05c-.8-.28-.81-1.41-1.78-3.92A30.77,30.77,0,0,1,400,194.39l-.12-.63a35.24,35.24,0,0,0,13.18-4.2,21.93,21.93,0,0,0-3.75-5.11,23.16,23.16,0,0,1-6.36,1.82l-.18-.62c4.77-1.4,10.85-5.39,11.4-6.83.16-.44-.3-1.08-1-1.78l.28-.36a5.39,5.39,0,0,1,1.48.59c1.09.61,2.16,1.92,2,2.4s-.58.52-1.17,1c-.35.27-.69.53-1.07.8Zm4.85,2.51a29.47,29.47,0,0,0-3.93-.81,6.59,6.59,0,0,1-1.47-.2,1.9,1.9,0,0,1-.72-.77,36.31,36.31,0,0,1-3.55,2,34.24,34.24,0,0,1,4.54,4.55,22.83,22.83,0,0,0,5.24-4.25C420,184.22,420,184.07,419.69,184Z"/><path class="cls-3" d="M431.07,190.14l.22-.47a5,5,0,0,1,1.6.45c.87.46,2.19,2.26,1.83,3-.23.51-.78.54-1.17,1.07a17,17,0,0,1-12.16,6.75l-.17-.61c5-1.31,9.64-5.13,11-8.12C432.56,191.44,431.62,190.61,431.07,190.14Zm6.11-.85a4.35,4.35,0,0,1,1.77.4c1.05.48,2.23,2.16,1.94,2.79s-.76.35-1.2,1.06c-.65,1.11-3.57,7-4.37,8.71-.14.3,0,.47.29.47a31.42,31.42,0,0,0,11.5-2.12l.29.59a31,31,0,0,1-12,3.73c-.68.08-1.36.62-1.87.39a3,3,0,0,1-.84-2.6c.21-.47.57-.5,1.07-1.4.68-1.24,3.67-7.37,4.56-9.67.26-.62-.25-1.17-1.35-1.87Z"/><path class="cls-3" d="M451.51,211.12c-.95,3.15-3.2,4.11-4.62,4.08-.95,0-1.82-.54-1.73-1.28s.72-.93,1.41-1a5,5,0,0,0,4.64-2Zm16.33,1.1-2.57,4.63.81.45,1.86-.9a28.25,28.25,0,0,1,.93,2.87.62.62,0,0,1-.79,0l-19.82-11,.2-.77,3.39,1.89,2.57-4.63-3.37-1.82.16-.76,3.58,2,2.1-3.77a17.6,17.6,0,0,1-4.51.58l-.13-.39a25.24,25.24,0,0,0,8.45-4.46l2,2.56c-.27.18-.63.18-1.09-.16a23.82,23.82,0,0,1-2.28,1.09l.23.27,11.65,6.42,2-.85s.72,1.76,1.1,2.94c-.21.21-.49.19-.81,0l-2.72-1.47-2.57,4.63.86.48,1.89-.86a29,29,0,0,1,1,2.86.58.58,0,0,1-.76,0Zm-13.54.71c2.08,5-1.67,7.14-2.17,4.74a11.86,11.86,0,0,0,1.79-4.8Zm-.85-2.65,2.2,1.23,2.57-4.63-2.2-1.23Zm2.93-5.28,2.21,1.23,2.57-4.63-2.2-1.23Zm3.46,2.78-2.57,4.63,2.38,1.32,2.57-4.63Zm-1.46,7.39c3.65,5.12.08,7.9-.78,5.57a11.18,11.18,0,0,0,.42-5.56Zm4.4-12.67-2.57,4.63,2.39,1.32,2.57-4.63Zm3.42,8.81L463.84,210l-2.57,4.63,2.36,1.31Zm-3.31,6c5.59,5.81,1.95,9.61.65,7.18.46-2-.18-5.07-1-7.12Zm3.89-12.61-2.57,4.65,2.36,1.31,2.58-4.63Z"/><path class="cls-3" d="M480.21,221.71c4.31,4.72.81,7.4-.1,5.2a9.1,9.1,0,0,0-.14-4.83l-5.68,8.6c-.15.24-1.11.16-1.69-.23l-.32-.21,5.29-8a19.41,19.41,0,0,1-7,2.2l-.09-.46a24.42,24.42,0,0,0,8.37-5.13l-3.26-2.16.22-.71,4.12,2.72,5.38-8.15,2.21,1.82c-.26.26-.55.38-1.17.09l-4.81,7.3,1.31.86,1.86-.62s.56,1.67.85,2.78a.67.67,0,0,1-.81,0l-3.6-2.38Zm.3-11.75c2.2,5.21-1.49,7.21-1.95,5a13.47,13.47,0,0,0,1.61-5Zm11.79,20.87s.68,1.58,1.06,2.64a.61.61,0,0,1-.75.15l-3.12-1.23-3.81,5.77c-.16.24-1.16.16-1.8-.26l-.32-.21,4-6.05-6.86-2.7.05-.73L488,231l8.61-13,2.27,1.87c-.26.26-.55.37-1.14.11l-7.8,11.82.46.18Zm-9-12.25c1.17-1,2.93-2.62,4.37-4l1.83,2.22a1,1,0,0,1-1.08-.09,35.54,35.54,0,0,1-4.91,2.23Zm3.35,2.86c4.65,4.33,1.33,7.19.27,5a9,9,0,0,0-.59-5Zm3.81-4.7c4.34,4.47,1,7.14,0,5a8.9,8.9,0,0,0-.29-4.93Z"/><path class="cls-3" d="M510.08,231.13c3.2,2.42,3.75,5.22,2.14,7.36-1.18,1.55-3.31,2.23-6.24.82,2.73,2.74,2.89,5.18,1.49,7-1.55,2.05-4.76,2.85-9.05-.4l-6.13-4.63.59-.78,2.26,1.35c1.55-2,3.07-4,4.59-6l.82-1.09c1.51-2,3-4,4.45-6L503.08,227l.59-.78Zm-11.4,13.58c2.8,2.12,5.09,2.08,6.64,0s1.1-4.26-2-6.62l-1.29-1c-1.76,2.34-3.32,4.39-4.81,6.45Zm8.53-14.36c-1.5,1.9-3,3.88-4.51,5.87l1.19.9c2.71,2,4.67,2,6.25-.07s1-3.72-1.35-5.51Z"/><path class="cls-3" d="M525.39,243.38c3.07,2.58,3.47,5.41,1.75,7.45-1.25,1.5-3.41,2.07-6.26.51,2.58,2.87,2.61,5.32,1.12,7.08-1.65,2-4.9,2.6-9-.86l-5.88-4.94.63-.75,2.19,1.47c1.64-1.87,3.26-3.8,4.88-5.73l.88-1c1.6-1.91,3.19-3.8,4.74-5.72l-1.83-1.9.63-.75Zm-12.09,13c2.7,2.27,5,2.34,6.64.37s1.31-4.19-1.68-6.71L517,249c-1.89,2.24-3.54,4.21-5.14,6.19Zm9.27-13.9c-1.59,1.82-3.2,3.73-4.8,5.64l1.14.95c2.6,2.19,4.55,2.26,6.24.25s1.2-3.66-1.06-5.56Z"/><path class="cls-3" d="M530,279.81a6.73,6.73,0,0,1-3.14-1.68c-2.59-2.44-2.14-5.65-.06-7.93-2.39-3.13-2.5-7.86,1.42-12,4.23-4.49,9.8-4.3,13-1.27s3.84,8.42-.51,13c-3.9,4.14-8.86,4.35-12.15,2-1.87,2.06-1.84,4.24-.08,5.9a8.65,8.65,0,0,0,1.82,1.22Zm-1.43-9.43c2.85,2.68,7,.81,10-2.43s4.65-7.46,1.8-10.14-7-.86-10.06,2.36S525.72,267.68,528.59,270.38Z"/><path class="cls-3" d="M539,279.74a1.74,1.74,0,0,1,2.47,0l0,0A1.76,1.76,0,0,1,539,282.2h0A1.75,1.75,0,0,1,539,279.74Zm13.88-8.93c-.81.79-2.82,2.31-5.92,4.72l-3.21,2.59-.6-.6,2.68-3.15c2.51-3,4.06-5,4.87-5.79a1.57,1.57,0,1,1,2.44,2A3.19,3.19,0,0,1,552.89,270.81Z"/><path class="cls-3" d="M545.92,286.94a1.75,1.75,0,1,1-.1,2.47h0A1.75,1.75,0,0,1,545.92,286.94ZM560,278.4c-.84.77-2.88,2.23-6,4.56l-3.28,2.5-.58-.62,2.77-3.07c2.59-3,4.2-4.89,5-5.66a1.56,1.56,0,0,1,2.25,2.15,1.85,1.85,0,0,1-.14.14Z"/><path class="cls-3" d="M125.81,249.05l.38.66a5.71,5.71,0,0,1-1.34,1c-1.19.69-1.92.67-2.65-.1L119.65,248c-1.28-1.33-2.11-1.31-3.7-.39l-1,.59c1,1.78,2,3.46,3,5.08l1.9-.83.38.67-5.38,3.12-.38-.67,1.67-1.22c-.94-1.7-1.91-3.38-2.9-5.09l-.55-.94c-1-1.71-2-3.41-3-5.07l-1.9.84-.38-.66,5.36-3.11c2.9-1.68,5.33-1.43,6.56.68.87,1.5.55,3.49-1.41,5.14,1.36-.44,2.4-.13,3.69,1.08l2.63,2.49Zm-9.75-2.43c2-1.19,2.38-2.94,1.46-4.53s-2.41-2.06-4.42-.9l-1.66,1c1,1.72,1.92,3.4,3.07,5.37Z"/><path class="cls-3" d="M137,239.68l1.7,3.55-10.12,5.24-.35-.68,1.72-1.15c-.85-1.74-1.74-3.46-2.65-5.22l-.5-1c-.91-1.76-1.81-3.5-2.74-5.2l-1.93.75-.35-.68,9.74-5,1.9,3.4-1,.51-1.87-2.34-4.66,2.42c.84,1.72,1.74,3.44,2.65,5.22l3-1.53-.72-2.09.81-.42,2.39,4.63-.81.42-1.25-1.76-3,1.54c1,1.93,1.91,3.69,2.85,5.41l5-2.6-.84-2.91Z"/><path class="cls-3" d="M148.84,223l-1.58,1L153,236.68l-.72.33-13.36-7.53,4.68,10.16,2.28-.71.32.7-4.76,2.17-.32-.69,1.58-1-5.16-11.41-.32-.16-1.52.47-.32-.7,3.11-1.37,12.13,6.89-4.29-9.31-2.27.72-.32-.7,4.76-2.17Z"/><path class="cls-3" d="M158.83,219.21c.67,1.82,1.4,3.66,2.13,5.5l.41,1c.71,1.8,1.43,3.62,2.19,5.41l2.21-.61.28.71-6.19,2.46-.29-.72,2-1.06c-.67-1.8-1.38-3.6-2.11-5.44l-.4-1c-.73-1.84-1.46-3.68-2.22-5.46l-3.22,1.28.53,3-1,.41-1.29-3.75,11.28-4.47,1.59,3.6-1,.4-1.67-2.53Z"/><path class="cls-3" d="M179.09,210.94c3-1,5.06-.05,5.7,1.95.47,1.46-.06,3.13-2.29,4.38,3-.51,4.64.49,5.19,2.22.62,1.92-.32,4.35-4.34,5.64L177.59,227l-.23-.73,1.89-.84c-.56-1.88-1.16-3.76-1.77-5.65l-.32-1c-.6-1.87-1.19-3.71-1.83-5.55l-2,.42-.23-.73Zm-1.79,1.49c.54,1.82,1.14,3.68,1.74,5.55l1.11-.36c2.54-.81,3.41-2.09,2.78-4.05s-1.94-2.33-4.15-1.62Zm5.37,12c2.64-.85,3.64-2.34,3-4.26s-2.25-2.63-5.17-1.69l-1.21.38c.7,2.2,1.32,4.12,2,6Z"/><path class="cls-3" d="M193.84,206.63c3-.82,5,.19,5.6,2.21.4,1.49-.2,3.13-2.48,4.27,3-.37,4.6.7,5.08,2.46.53,2-.53,4.33-4.6,5.43l-5.83,1.58-.2-.74,1.93-.76c-.47-1.9-1-3.81-1.51-5.72l-.28-1c-.51-1.89-1-3.77-1.56-5.63l-2.05.33-.2-.74ZM192,208c.46,1.84,1,3.73,1.49,5.62l1.13-.3c2.57-.7,3.49-1.93,3-3.92s-1.82-2.42-4.06-1.81Zm4.82,12.21c2.67-.72,3.74-2.16,3.22-4.11s-2.12-2.73-5.09-1.93l-1.23.33c.61,2.22,1.13,4.17,1.69,6.09Z"/><path class="cls-3" d="M219.43,219.94a5.37,5.37,0,0,1-2.49,1.29c-2.72.59-4.61-1.13-5.16-3.49-3.09.16-6.2-1.87-7.15-6.25-1-4.74,1.57-8.26,5-9s7.16,1.25,8.22,6.13c1,4.36-1.12,7.66-4.11,8.74.5,2.13,1.93,3.08,3.79,2.67a7.53,7.53,0,0,0,1.59-.63Zm-6.75-3.26c3-.66,3.62-4.16,2.88-7.57s-2.76-6.32-5.76-5.67-3.68,4.17-2.94,7.56,2.8,6.3,5.82,5.64Z"/><path class="cls-3" d="M228.51,208.94c-.53-3.62,1.65-5.88,4.21-6.26s5.31,1.14,5.85,4.77-1.68,5.81-4.23,6.18S229.05,212.51,228.51,208.94Zm8-1.19c-.45-3-1.81-4.51-3.71-4.23s-2.78,2.09-2.33,5.12,1.78,4.44,3.7,4.15,2.83-2,2.38-5.07Z"/><path class="cls-3" d="M245.21,203.94c.52-1.88,1.67-3.08,2.9-3.22a1.74,1.74,0,0,1,1.67.65c.1.93-.2,1.55-1.08,1.64a2,2,0,0,1-1.43-.47l-.29-.21a5.34,5.34,0,0,0-1.59,3.12l.19,1.72c.11,1,.3,2.55.44,3.67l1.86.06.07.69-5.34.58-.07-.68,1.58-.42c-.1-1.11-.25-2.67-.37-3.7l-.12-1.14c-.14-1.25-.24-2-.38-2.88h-1.76l-.07-.67,3-1.54.33.17Z"/><path class="cls-3" d="M266,196.38c0,1.93.15,3.91.25,5.89l0,1.09c.1,1.94.2,3.89.33,5.83l2.29.13v.76l-6.66.33v-.76l2.27-.36c-.05-1.92-.15-3.85-.25-5.83l-.05-1.09c-.1-2-.2-4-.33-5.89l-3.47.17-.46,3-1.11,0v-3.94l12.12-.6.34,3.93h-1.07l-.77-2.94Z"/><path class="cls-3" d="M283.94,208.94a2.12,2.12,0,0,1-1.88,1.16,1.92,1.92,0,0,1-2-1.7c-1.19,1.21-1.95,1.81-3.29,1.83a2.67,2.67,0,0,1-3-2.3,2.17,2.17,0,0,1,0-.36c0-1.36.73-2.34,3.61-3.41a20,20,0,0,1,2.53-.77v-.69c0-2.18-.67-2.73-2.17-2.71a4.73,4.73,0,0,0-1.25.2l-.4,1.52c-.17.69-.52,1-1.09,1a.9.9,0,0,1-1-.76v-.07c.35-1.7,1.95-2.76,4.24-2.8s3.45,1,3.49,3.75l.08,4.8c0,1,.32,1.41.82,1.4a1.16,1.16,0,0,0,.89-.55Zm-4-4.86a20.74,20.74,0,0,0-2,.7c-1.93.77-2.26,1.65-2.24,2.46a1.59,1.59,0,0,0,1.48,1.69,2,2,0,0,0,.34,0c.79,0,1.29-.34,2.51-1.33Z"/><path class="cls-3" d="M297.61,209.51v.69l-3-.09-3.25-5.74-1.52,1.45c0,1.05,0,2.18-.06,3.21l1.73.29V210l-5.36-.16v-.69l1.74-.19c.06-1.21.12-2.52.16-3.71l.3-9.95-1.79-.21v-.67l3.44-.82.29.17-.19,3.14-.24,7.77,4.12-4-1.72-.42v-.73l5.08.16v.72l-2.07.22-2.62,2.49,3.55,6.13Z"/><path class="cls-3" d="M301.88,205.11c-.16,2.92,1.21,4.5,3.37,4.64a3.75,3.75,0,0,0,3.21-1.38l.42.34a4.51,4.51,0,0,1-4.34,2.23c-3-.2-4.84-2.34-4.61-5.78s2.73-5.45,5.45-5.26a4,4,0,0,1,3.87,4.12l0,.38a4.73,4.73,0,0,1-.25,1.22Zm4.33-.49c1,.06,1.22-.43,1.27-1.15a2.5,2.5,0,0,0-2.23-2.73h0c-1.35-.09-2.86.94-3.26,3.54Z"/><path class="cls-3" d="M333.21,206.39c-.66,4.82-4.27,7.22-7.71,6.75s-6.34-3.59-5.66-8.57c.66-4.81,4.31-7.22,7.75-6.75S333.84,201.44,333.21,206.39Zm-7.58,5.81c3,.41,4.83-2.66,5.3-6.12s-.43-6.89-3.47-7.3-4.89,2.65-5.36,6.09.43,6.91,3.49,7.33Z"/><path class="cls-3" d="M346.66,215.7l-.12.65-3.05-.38.17-2a5.21,5.21,0,0,1-4.26,1.34c-1.77-.33-2.67-1.57-2.11-4.46l1.1-5.53-1.51-.61.12-.64,3.25.28.18.26-.67,3.06-.64,3.42c-.36,1.94.13,2.73,1.32,2.95a4.39,4.39,0,0,0,3.3-.86l1.3-6.6-1.5-.59.12-.65,3.21.25.15.25-.63,3.07-1.18,6.27Z"/><path class="cls-3" d="M355.85,217.56a3.15,3.15,0,0,1-2.75.54,2.28,2.28,0,0,1-2-2.48,2,2,0,0,1,.15-.59c.12-.51.24-1,.42-1.78l1.17-5.25-1.83-.41.17-.76,2,.19,1.22-2.79,1.24.28-.78,3,2.9.65-.22.94-2.91-.65-1.56,7c-.25,1.14.11,1.72.88,1.89a2.54,2.54,0,0,0,1.62-.28Z"/><path class="cls-3" d="M374.21,211.61a3.56,3.56,0,0,1,1.47.92,2.59,2.59,0,0,1,.71,2c-.11.43-.42.39-1.3.4a36.92,36.92,0,0,0-5.94.61c-.22,1.13-.56,2.44-.74,3.1s-.49.81-1,.68a.78.78,0,0,1-.61-.92.5.5,0,0,1,0-.13c.13-.49.47-1.42.76-2.41-2.08.56-3.77,1.38-4.07,2.49s.7,1.81,2.57,2.31c2.89.79,4.19.47,5.07.71s1.2.58,1.06,1.09-.3.58-1,.6a20.72,20.72,0,0,1-4.51-.66c-3.66-1-4.55-2.52-4.12-4.1s2.74-2.68,5.3-3.48c.38-1.63.23-2.32-.76-2.59s-2.66.54-3.68,1.2-1.73,1.44-2.28,1.31-.64-.58-.48-1.14,1-.85,2.05-1.49a19.48,19.48,0,0,0,3.64-2.82q-.75-.12-1.47-.3c-1.58-.43-1.77-1.11-2-2.84l.43-.11a3,3,0,0,0,2.27,1.87,10.34,10.34,0,0,0,1.85.29,8.58,8.58,0,0,0,1-1.46.49.49,0,0,0,0-.68.28.28,0,0,0-.11-.08,4.33,4.33,0,0,0-1-.66l.11-.33a3.57,3.57,0,0,1,1.26.07c.66.18,1.94.87,1.8,1.39-.08.27-.27.39-.58.75a7.87,7.87,0,0,1-1,1,21.13,21.13,0,0,0,2.51-.15c.87-.12,1.06-.28,1.36-.2.5.14.93.42.8.89-.07.27-.3.42-.77.52a22,22,0,0,1-5,.14,24.17,24.17,0,0,1-2.47,2.16c-.11.09-.08.21.08.16a4.6,4.6,0,0,1,2.33-.11c1.21.32,1.75,1.35,1.59,2.79,1.74-.4,3.83-.67,5.08-1,.38-.11.47-.29.28-.66a2.82,2.82,0,0,0-.77-.94Z"/><path class="cls-3" d="M387.74,211.2a4,4,0,0,1,1.2.43c.86.44,1.77,1.45,1.64,1.83s-.42.43-.89.81l-1,.82.28.12a30.75,30.75,0,0,0,3.81.82c.56.06.87-.24,1.22-.13s1.63,1.49,1.43,2.09c-.15.42-.85.35-1.32.74a25.16,25.16,0,0,1-15.9,6.82l-.15-.5c5.78-.9,11.92-4.3,14.75-7.63.16-.22.11-.33-.08-.39a25.4,25.4,0,0,0-3-.51,5,5,0,0,1-1.16-.11c-.21-.07-.43-.36-.69-.74a18.43,18.43,0,0,1-7.53,3l-.14-.47C384,217,388,214,388.4,212.89c.12-.37-.26-.88-.81-1.39Z"/><path class="cls-3" d="M397.37,232.53l-.07-.46c4.4-.52,7.19-2.3,9-6a44.4,44.4,0,0,0,1.9-4.7.83.83,0,0,0-.08-.94,4,4,0,0,0-1-.75l.13-.36a3.46,3.46,0,0,1,1.6.07c.75.29,1.79,1.62,1.61,2.07s-.56.41-.83,1c-.48,1.1-1.38,3.11-1.89,4.23C405.71,230.94,402.33,232.74,397.37,232.53Zm3.28-14.65.14-.35a3.62,3.62,0,0,1,1.3.21c.74.29,1.75,1.56,1.54,2.09s-.52.49-.86,1.18-1.89,4.7-2.25,5.62-.73,1-1.14.79-.6-1-.28-1.85c.19-.49.65-1.11,1.25-2.57.35-.88,1.08-2.76,1.27-3.52.13-.44.15-.61-.09-.88A6,6,0,0,0,400.65,217.88Z"/><path class="cls-3" d="M410.12,237.59l-.06-.4c5.87-.29,11.07-3.77,11.77-5.31.14-.31-.05-.69-.58-1.28l.19-.22a4.75,4.75,0,0,1,.94.38,2.46,2.46,0,0,1,1,2.29c-.15.33-.58.36-1,.68A16.43,16.43,0,0,1,410.12,237.59Zm2.8-9.73.31-.1a6.61,6.61,0,0,1,.94,1.44,3.07,3.07,0,0,1,.4,2.6.76.76,0,0,1-.95.45l-.05,0c-.66-.3-.33-1.08-.37-2.3A8.46,8.46,0,0,0,412.92,227.86Zm3.68.48.29-.1a6.39,6.39,0,0,1,1,1.51,2.72,2.72,0,0,1,.27,2.4.78.78,0,0,1-1,.42l0,0c-.64-.3-.27-1.06-.28-2.22a8.87,8.87,0,0,0-.23-2Z"/><path class="cls-3" d="M434.55,230.7a4.18,4.18,0,0,1,1.12.6c.78.56,1.53,1.7,1.35,2.06s-.49.36-1,.66-.75.45-1.15.66l.26.15a29,29,0,0,0,3.64,1.39c.55.14.9-.1,1.22.06s1.39,1.72,1.1,2.28c-.2.39-.89.22-1.41.54a25.2,25.2,0,0,1-16.76,4.34l-.07-.52c5.85,0,12.43-2.46,15.73-5.32.2-.2.16-.3,0-.4a25,25,0,0,0-2.89-.95,4.81,4.81,0,0,1-1.13-.29,1.91,1.91,0,0,1-.57-.83,18.36,18.36,0,0,1-7.9,1.82l-.06-.49c3.9-.64,8.35-3,8.9-4,.17-.35-.13-.91-.6-1.49Z"/><path class="cls-3" d="M439.58,249.94a1.38,1.38,0,1,1,.53,1.87h0A1.38,1.38,0,0,1,439.58,249.94Zm8.51-9.78c-.44.77-1.62,2.36-3.43,4.86l-1.85,2.66-.58-.32,1.33-3c1.23-2.83,2-4.66,2.4-5.44a1.23,1.23,0,1,1,2.24,1,2,2,0,0,1-.11.2Z"/><path class="cls-3" d="M446.37,253.8a1.37,1.37,0,0,1,2.35,1.41,1.39,1.39,0,0,1-1.88.47A1.37,1.37,0,0,1,446.37,253.8Zm8.73-9.57c-.45.76-1.67,2.32-3.53,4.78l-1.92,2.61-.57-.34,1.39-2.93c1.3-2.8,2.08-4.61,2.54-5.37a1.22,1.22,0,0,1,1.64-.53,1.24,1.24,0,0,1,.53,1.65l-.08.13Z"/><path class="cls-1" d="M298.15,31.84c13.91,4.41,11.83,11,25.74,15.37s16-2.13,29.89,2.29,11.82,11,25.73,15.36,16-2.12,29.89,2.29,11.82,10.95,25.73,15.37,16-2.13,29.89,2.28,11.83,11,25.74,15.38,16-2.13,29.89,2.28,11.83,11,25.74,15.37,16-2.12,29.89,2.29,11.84,11,25.75,15.37"/><circle class="cls-2" cx="275.76" cy="21.12" r="10.79"/><circle class="cls-2" cx="363.45" cy="27.51" r="5.4"/><circle class="cls-2" cx="594.92" cy="187.56" r="10.79"/><circle class="cls-2" cx="541.86" cy="155.37" r="5.4"/><circle class="cls-2" cx="506.18" cy="68.9" r="13.04"/><circle class="cls-2" cx="624.28" cy="139.74" r="5.4"/><circle class="cls-2" cx="473.55" cy="276.98" r="8.47"/></svg>