<svg xmlns="http://www.w3.org/2000/svg" width="126.089" height="103.999" viewBox="0 0 126.089 103.999"><defs><style>.a{fill:#fff;}.b{fill:#c73d13;}</style></defs><g transform="translate(-608.936 24.9)"><g transform="translate(614 -19)"><g transform="translate(-6 -6)"><path class="a" d="M16.4.2a62.534,62.534,0,0,0,6.2,88.5,63.279,63.279,0,0,0,88.9-6.1,62.563,62.563,0,0,0,0-82.5H16.4Z"/></g></g><g transform="translate(662 23.858)"><g transform="translate(0 39.817)"><path class="b" d="M-5.8-24.7A2.73,2.73,0,0,0-7-25.6a4.1,4.1,0,0,0-1.1-.1H-11c-.1,0-.1,0-.1.1h0v6.4c0,.1,0,.1.1.1h2.9a2.982,2.982,0,0,0,2.4-1.2,4.282,4.282,0,0,0,.6-2.2,4.1,4.1,0,0,0-.1-1.1A2.384,2.384,0,0,0-5.8-24.7ZM-7-21.4a1.424,1.424,0,0,1-1.3.9H-9.5v-3.9h1.2a1.346,1.346,0,0,1,1.2.5l.2.5.2.8A2.133,2.133,0,0,1-7-21.4Z"/><path class="b" d="M1.6-19.8a.6.6,0,0,1-.1-.4v-3.6a1.411,1.411,0,0,0-.8-1.5,4.058,4.058,0,0,0-1.9-.4,2.855,2.855,0,0,0-2.3.8A3.36,3.36,0,0,0-4-23.5h1.6a.864.864,0,0,1,.3-.6,1.135,1.135,0,0,1,.8-.3,2.2,2.2,0,0,1,.8.1.55.55,0,0,1,.3.5.55.55,0,0,1-.3.5,1.7,1.7,0,0,1-.7.1l-.5.2a4.191,4.191,0,0,0-1.5.4,1.965,1.965,0,0,0-.9,1.7,1.974,1.974,0,0,0,.6,1.4,2.389,2.389,0,0,0,1.4.5,2.663,2.663,0,0,0,1.2-.3c.3-.2.5-.4.8-.6v.3l.1.3H1.8v-.3C1.7-19.6,1.7-19.7,1.6-19.8ZM-.2-22.4v.6a1.173,1.173,0,0,1-.5,1.1,1.689,1.689,0,0,1-1,.3,1.421,1.421,0,0,1-.6-.2.481.481,0,0,1-.2-.6.67.67,0,0,1,.4-.7,1.884,1.884,0,0,1,.8-.2h.4l.4-.1C-.4-22.2-.3-22.3-.2-22.4Z"/><path class="b" d="M6.7-25.7h0a2.01,2.01,0,0,0-1.3.4,1.555,1.555,0,0,0-.6.8v-1H3.2v6.3H4.9v-3a1.978,1.978,0,0,1,.2-1.1,1.2,1.2,0,0,1,1.3-.6h.5v-1.7C6.9-25.7,6.8-25.7,6.7-25.7Z"/><path class="b" d="M12.1-22.2a1.8,1.8,0,0,1-.2,1,1.387,1.387,0,0,1-1.2.7,1.05,1.05,0,0,1-.9-.5,2.2,2.2,0,0,1-.1-.8v-3.8H8v3.8a4.529,4.529,0,0,0,.3,1.6,1.886,1.886,0,0,0,1.9,1,2.769,2.769,0,0,0,.9-.1,2.177,2.177,0,0,0,.8-.5l.2-.3.1-.1v.8h1.6v-6.3H12.1Z"/><path class="b" d="M24.3-24.9a1.555,1.555,0,0,0-.8-.6,2.353,2.353,0,0,0-.8-.2,2.016,2.016,0,0,0-1.1.3,3.044,3.044,0,0,0-.8.8,1.794,1.794,0,0,0-.5-.7,2.663,2.663,0,0,0-1.2-.3,1.746,1.746,0,0,0-1.2.4,1.794,1.794,0,0,0-.5.7v-.9H15.8v6.3h1.7V-23a2.2,2.2,0,0,1,.1-.8.807.807,0,0,1,.9-.4.909.909,0,0,1,.8.4,2.2,2.2,0,0,1,.1.8v3.7h1.7V-23a1.7,1.7,0,0,1,.1-.7.875.875,0,0,1,.9-.6.909.909,0,0,1,.8.4,1.268,1.268,0,0,1,.1.6v4h1.7v-4a2.769,2.769,0,0,0-.1-.9A1.08,1.08,0,0,0,24.3-24.9Z"/><path class="b" d="M31.7-19.8a.6.6,0,0,1-.1-.4v-3.6a1.411,1.411,0,0,0-.8-1.5,4.058,4.058,0,0,0-1.9-.4,2.855,2.855,0,0,0-2.3.8,2.106,2.106,0,0,0-.5,1.3h1.6a.864.864,0,0,1,.3-.6,1.135,1.135,0,0,1,.8-.3,2.2,2.2,0,0,1,.8.1.55.55,0,0,1,.3.5.55.55,0,0,1-.3.5,1.7,1.7,0,0,1-.7.1l-.6.3a4.191,4.191,0,0,0-1.5.4,1.965,1.965,0,0,0-.9,1.7,1.974,1.974,0,0,0,.6,1.4,2.389,2.389,0,0,0,1.4.5,2.663,2.663,0,0,0,1.2-.3c.3-.2.5-.4.8-.6v.3l.1.4h1.8v-.3C31.8-19.7,31.7-19.7,31.7-19.8Zm-1.8-2.6v.6a1.606,1.606,0,0,1-.5,1.1,1.689,1.689,0,0,1-1,.3,1.421,1.421,0,0,1-.6-.2.481.481,0,0,1-.2-.6.67.67,0,0,1,.4-.7,1.884,1.884,0,0,1,.8-.2l.4-.1.4-.1C29.6-22.2,29.8-22.3,29.9-22.4Z"/></g><g transform="translate(5.943 0.089)"><path class="b" d="M3.1-5.3A16.023,16.023,0,0,0-1.5-8.8c-.3-.2-.2-.3.2-.3A22.814,22.814,0,0,1,4.5-7.4a23.14,23.14,0,0,0,2.8-6.2c0-.3-.1-.4-.4-.4-.1,0-1.1.1-2.9.2-1.9.2-3.1.3-3.4.3A25.26,25.26,0,0,1-3.1-9.9,21.783,21.783,0,0,1-8.5-6.4a1.421,1.421,0,0,1-.6.2h0A9.8,9.8,0,0,0-10.4-4a8.807,8.807,0,0,0,.9,8.3A28.9,28.9,0,0,0-3.9,1.6,27.026,27.026,0,0,0,3.1-5.3Z"/><path class="b" d="M17.6,2.7A8.722,8.722,0,0,0,15.9-7a12.188,12.188,0,0,0,0-2.7c-.5-2.9-.7-6.2-1.9-8.9a11.433,11.433,0,0,0-3.7-4.7,10.8,10.8,0,0,0-6.5-2.4c-5.1.1-6.8,1.7-8.2,3.1a15.509,15.509,0,0,0-4.1,8.4c-.4,3-.8,4.6-.5,7.6.1,0,.1,0,.1-.1a28.49,28.49,0,0,0,5.8-6.2A21.936,21.936,0,0,0-.3-18.4c.3-.7,0-1.3-.9-1.6-.3,0-.3-.1-.1-.3a4.424,4.424,0,0,1,1.5-.5,4.721,4.721,0,0,1,2.5,1.1c1.1.7,1.6,1.3,1.6,1.7a.55.55,0,0,1-.3.5,2.092,2.092,0,0,0-.6.4,15.583,15.583,0,0,0-1.6,2,26.073,26.073,0,0,0,4.8-.5A2.1,2.1,0,0,0,7.7-16a1.234,1.234,0,0,1,.8-.4,8.989,8.989,0,0,1,2.4,1.2c1,.7,1.5,1.2,1.5,1.6a1.012,1.012,0,0,1-.4.7,2.66,2.66,0,0,0-1,1.1c-.2.3-.4.7-.8,1.4-.5.8-.8,1.4-1,1.7C8.3-7.1,7.7-6.1,7.4-5.6a7.825,7.825,0,0,1,3.2,4.4C10.9.3,10,1.3,8.7,1,8.2.9,6.4-1,5.1-2.7,1.6,1-3.1,3.5-9.1,4.8A10.3,10.3,0,0,0-3.6,8.2C1.8,9.8,8.5,9.4,12.6,7.4A11.958,11.958,0,0,0,17.6,2.7ZM13.9-16.7a2.589,2.589,0,0,1-.7,1.1,1.314,1.314,0,0,1-1.2.3,2.664,2.664,0,0,1-1.7-2,15.9,15.9,0,0,0-2.1-4.1,4.869,4.869,0,0,1,1.2.1,7.26,7.26,0,0,1,3.1,1.7C13.6-18.6,14.1-17.7,13.9-16.7Z"/></g><path class="b" d="M22.9-22.2A6.061,6.061,0,0,0,20-23.6a2.854,2.854,0,0,0-1.3,0,18.655,18.655,0,0,1,2.2,3.9c.5,1.1,1,1.7,1.6,1.8a1.19,1.19,0,0,0,1.1-.4,2.384,2.384,0,0,0,.6-1.1A2.487,2.487,0,0,0,22.9-22.2Z"/></g></g></svg>