<svg xmlns="http://www.w3.org/2000/svg" width="803.214" height="3113" viewBox="0 0 803.214 3113"><defs><style>.a,.b,.c{fill:#fff;}.a,.f{font-size:14px;}.a{font-family:NotoSansJP-Regular, Noto Sans JP;}.b,.c{font-size:18px;}.b,.d{font-family:Roboto-Regular, Roboto;}.b,.c,.f{letter-spacing:0.1em;}.c,.f{font-family:PingFangSC-Regular, PingFang SC;}.e{fill:none;stroke:#fff;stroke-linecap:round;}.f{fill:#5a8fcb;}</style></defs><g transform="translate(-281.5 -400)"><text class="a" transform="translate(972 3509)"><tspan x="0" y="0">※税抜</tspan><tspan y="0">き</tspan><tspan y="0">価格表示</tspan></text><g transform="translate(0 1388)"><text class="b" transform="translate(916 1718)"><tspan x="0" y="0">¥3400</tspan></text><text class="c" transform="translate(315 1718)"><tspan x="0" y="0">ファミリーセット</tspan><tspan class="d" y="0">(</tspan><tspan y="0">３～４人前</tspan><tspan class="d" y="0">)</tspan></text><path class="e" d="M183,1570.063H985.214" transform="translate(99 171.438)"/><text class="c" transform="translate(315 1780)"><tspan x="0" y="0">カルビ</tspan><tspan class="d" y="0">/</tspan><tspan y="0">ハラミ</tspan><tspan class="d" y="0">/</tspan><tspan y="0">あじわいカルビ</tspan><tspan class="d" y="0">/</tspan><tspan y="0">ホルモン</tspan><tspan class="d" y="0">/</tspan><tspan y="0">トリ</tspan><tspan class="d" y="0">/</tspan><tspan y="0">ブタ</tspan><tspan class="d" y="0">/</tspan><tspan y="0">ウィンナー</tspan><tspan class="d" y="0">/</tspan><tspan y="0">野菜</tspan></text><path class="e" d="M183,1570.063H985.214" transform="translate(99 234.438)"/><text class="b" transform="translate(916 1842)"><tspan x="0" y="0">¥2400</tspan></text><text class="c" transform="translate(315 1842)"><tspan x="0" y="0">ペアセット</tspan><tspan class="d" y="0">(</tspan><tspan y="0">２人前</tspan><tspan class="d" y="0">)</tspan></text><path class="e" d="M183,1570.063H985.214" transform="translate(99 298.438)"/><text class="c" transform="translate(315 1906)"><tspan x="0" y="0">カルビ</tspan><tspan class="d" y="0">/</tspan><tspan y="0">ハラミ</tspan><tspan class="d" y="0">/</tspan><tspan y="0">あじわいカルビ</tspan><tspan class="d" y="0">/</tspan><tspan y="0">ホルモン</tspan><tspan class="d" y="0">/</tspan><tspan y="0">トリ</tspan><tspan class="d" y="0">/</tspan><tspan y="0">ウィンナー</tspan><tspan class="d" y="0">/</tspan><tspan y="0">野菜海の幸セット</tspan></text><path class="e" d="M183,1570.063H985.214" transform="translate(99 362.438)"/><text class="b" transform="translate(916 1974)"><tspan x="0" y="0">¥1580</tspan></text><text class="c" transform="translate(315 1974)"><tspan x="0" y="0">ペアセット</tspan><tspan class="d" y="0">(</tspan><tspan y="0">２人前</tspan><tspan class="d" y="0">)</tspan></text><path class="e" d="M183,1570.063H985.214" transform="translate(99 430.438)"/><text class="c" transform="translate(315 2038)"><tspan x="0" y="0">上ホルモン</tspan><tspan class="d" y="0">/</tspan><tspan y="0">よめなかせ</tspan><tspan class="d" y="0">/</tspan><tspan y="0">歌声</tspan><tspan class="d" y="0">/</tspan><tspan y="0">ホルモン</tspan><tspan class="d" y="0">/</tspan><tspan y="0">ギアラ</tspan></text><path class="e" d="M183,1570.063H985.214" transform="translate(99 494.438)"/></g><g transform="translate(0 1000)"><text class="b" transform="translate(916 1718)"><tspan x="0" y="0">¥680</tspan></text><text class="c" transform="translate(315 1718)"><tspan x="0" y="0">イカ</tspan></text><path class="e" d="M183,1570.063H985.214" transform="translate(99 171.438)"/><text class="b" transform="translate(916 1780)"><tspan x="0" y="0">¥790</tspan></text><text class="c" transform="translate(315 1780)"><tspan x="0" y="0">エビ</tspan></text><path class="e" d="M183,1570.063H985.214" transform="translate(99 234.438)"/><text class="b" transform="translate(916 1842)"><tspan x="0" y="0">¥790</tspan></text><text class="c" transform="translate(315 1842)"><tspan x="0" y="0">貝柱</tspan></text><path class="e" d="M183,1570.063H985.214" transform="translate(99 298.438)"/><text class="b" transform="translate(916 1906)"><tspan x="0" y="0">¥890</tspan></text><text class="c" transform="translate(315 1906)"><tspan x="0" y="0">海の幸セット</tspan></text><path class="e" d="M183,1570.063H985.214" transform="translate(99 362.438)"/></g><g transform="translate(0 612)"><text class="b" transform="translate(916 1718)"><tspan x="0" y="0" xml:space="preserve">¥600    ¥330</tspan></text><text class="c" transform="translate(315 1718)"><tspan x="0" y="0">若ドリ</tspan></text><path class="e" d="M183,1570.063H985.214" transform="translate(99 171.438)"/><text class="b" transform="translate(916 1780)"><tspan x="0" y="0" xml:space="preserve">¥600    ¥330</tspan></text><text class="c" transform="translate(315 1780)"><tspan x="0" y="0">鶏のせせり</tspan></text><path class="e" d="M183,1570.063H985.214" transform="translate(99 234.438)"/><text class="b" transform="translate(916 1842)"><tspan x="0" y="0">¥530</tspan></text><text class="c" transform="translate(315 1842)"><tspan x="0" y="0">あらびきウィンナー</tspan></text><path class="e" d="M183,1570.063H985.214" transform="translate(99 298.438)"/><text class="b" transform="translate(916 1906)"><tspan x="0" y="0">¥550</tspan></text><text class="c" transform="translate(315 1906)"><tspan x="0" y="0">厚切りベーコン</tspan></text><path class="e" d="M183,1570.063H985.214" transform="translate(99 362.438)"/></g><g transform="translate(0 160)"><text class="b" transform="translate(916 1718)"><tspan x="0" y="0" xml:space="preserve">¥550    ¥300</tspan></text><text class="c" transform="translate(315 1718)"><tspan x="0" y="0">豚トロ</tspan></text><path class="e" d="M183,1570.063H985.214" transform="translate(99 171.438)"/><text class="b" transform="translate(916 1780)"><tspan x="0" y="0" xml:space="preserve">¥550    ¥300</tspan></text><text class="c" transform="translate(315 1780)"><tspan x="0" y="0">豚肉</tspan><tspan class="d" y="0">(</tspan><tspan y="0">つらみ</tspan><tspan class="d" y="0">)</tspan></text><path class="e" d="M183,1570.063H985.214" transform="translate(99 234.438)"/><text class="b" transform="translate(916 1842)"><tspan x="0" y="0" xml:space="preserve">¥600    ¥330</tspan></text><text class="c" transform="translate(315 1842)"><tspan x="0" y="0">豚ロース</tspan></text><path class="e" d="M183,1570.063H985.214" transform="translate(99 298.438)"/><text class="b" transform="translate(916 1906)"><tspan x="0" y="0" xml:space="preserve">¥600    ¥330</tspan></text><text class="c" transform="translate(315 1906)"><tspan x="0" y="0">豚バラ</tspan></text><path class="e" d="M183,1570.063H985.214" transform="translate(99 362.438)"/><text class="b" transform="translate(916 1970)"><tspan x="0" y="0" xml:space="preserve">¥500    ¥270</tspan></text><text class="c" transform="translate(315 1970)"><tspan x="0" y="0">歌声</tspan><tspan class="d" y="0">(</tspan><tspan y="0">タレ・辛ダレ</tspan><tspan class="d" y="0">)</tspan><tspan y="0">豚の軟骨</tspan></text><path class="e" d="M183,1570.063H985.214" transform="translate(99 426.438)"/></g><g transform="translate(0 -1242)"><text class="b" transform="translate(916 1718)"><tspan x="0" y="0" xml:space="preserve">¥960    ¥530</tspan></text><text class="c" transform="translate(315 1718)"><tspan x="0" y="0">カルビ</tspan></text><path class="e" d="M183,1570.063H985.214" transform="translate(99 171.438)"/><text class="b" transform="translate(916 1780)"><tspan x="0" y="0" xml:space="preserve">¥840    ¥470</tspan></text><text class="c" transform="translate(315 1780)"><tspan x="0" y="0">ハラミ</tspan></text><path class="e" d="M183,1570.063H985.214" transform="translate(99 234.438)"/><text class="b" transform="translate(916 1842)"><tspan x="0" y="0" xml:space="preserve">¥960    ¥530</tspan></text><text class="c" transform="translate(315 1842)"><tspan x="0" y="0">タン</tspan></text><path class="e" d="M183,1570.063H985.214" transform="translate(99 298.438)"/><text class="b" transform="translate(916 1906)"><tspan x="0" y="0" xml:space="preserve">¥960    ¥530</tspan></text><text class="c" transform="translate(315 1906)"><tspan x="0" y="0">ネギ塩タン</tspan></text><path class="e" d="M183,1570.063H985.214" transform="translate(99 362.438)"/><text class="b" transform="translate(904 1970)"><tspan x="0" y="0" xml:space="preserve">¥1060    ¥590</tspan></text><text class="c" transform="translate(315 1970)"><tspan x="0" y="0">ロース</tspan></text><path class="e" d="M183,1570.063H985.214" transform="translate(99 426.438)"/><text class="b" transform="translate(916 2035)"><tspan x="0" y="0" xml:space="preserve">¥680    ¥380</tspan></text><text class="c" transform="translate(315 2035)"><tspan x="0" y="0">味わいカルビ</tspan><tspan class="d" y="0">(</tspan><tspan y="0">中落ち</tspan><tspan class="d" y="0">)</tspan></text><path class="e" d="M183,1570.063H985.214" transform="translate(99 488.438)"/><text class="b" transform="translate(916 2097)"><tspan x="0" y="0" xml:space="preserve">¥530    ¥270</tspan></text><text class="c" transform="translate(315 2097)"><tspan x="0" y="0">ギアラ</tspan><tspan class="d" y="0">(</tspan><tspan y="0">赤セン</tspan><tspan class="d" y="0">)</tspan></text><path class="e" d="M183,1570.063H985.214" transform="translate(99 551.438)"/><text class="b" transform="translate(916 2159)"><tspan x="0" y="0" xml:space="preserve">¥820    ¥450</tspan></text><text class="c" transform="translate(315 2159)"><tspan x="0" y="0">上ミノ</tspan></text><path class="e" d="M183,1570.063H985.214" transform="translate(99 615.438)"/><text class="b" transform="translate(916 2223)"><tspan x="0" y="0" xml:space="preserve">¥580    ¥300</tspan></text><text class="c" transform="translate(315 2223)"><tspan x="0" y="0">センマイ</tspan></text><path class="e" d="M183,1570.063H985.214" transform="translate(99 679.438)"/><text class="b" transform="translate(916 2287)"><tspan x="0" y="0" xml:space="preserve">¥700    ¥380</tspan></text><text class="c" transform="translate(315 2287)"><tspan x="0" y="0">上ホルモン</tspan></text><path class="e" d="M183,1570.063H985.214" transform="translate(99 743.438)"/><text class="b" transform="translate(916 2351)"><tspan x="0" y="0" xml:space="preserve">¥630    ¥330</tspan></text><text class="c" transform="translate(315 2351)"><tspan x="0" y="0">ホルモン</tspan></text><path class="e" d="M183,1570.063H985.214" transform="translate(99 804.438)"/><text class="b" transform="translate(916 2413)"><tspan x="0" y="0" xml:space="preserve">¥580    ¥300</tspan></text><text class="c" transform="translate(315 2413)"><tspan x="0" y="0">よめなかせ</tspan></text><path class="e" d="M183,1570.063H985.214" transform="translate(99 867.438)"/><text class="b" transform="translate(916 2475)"><tspan x="0" y="0" xml:space="preserve">¥580    ¥300</tspan></text><text class="c" transform="translate(315 2475)"><tspan x="0" y="0">混合</tspan></text><path class="e" d="M183,1570.063H985.214" transform="translate(99 931.438)"/><text class="b" transform="translate(916 2539)"><tspan x="0" y="0" xml:space="preserve">¥630    ¥330</tspan></text><text class="c" transform="translate(315 2539)"><tspan x="0" y="0">レバー</tspan></text><path class="e" d="M183,1570.063H985.214" transform="translate(99 995.438)"/><text class="b" transform="translate(916 2603)"><tspan x="0" y="0" xml:space="preserve">¥630    ¥330</tspan></text><text class="c" transform="translate(315 2603)"><tspan x="0" y="0">心臓</tspan></text><path class="e" d="M183,1570.063H985.214" transform="translate(99 1059.438)"/><text class="b" transform="translate(916 2668)"><tspan x="0" y="0" xml:space="preserve">¥580    ¥300</tspan></text><text class="c" transform="translate(315 2668)"><tspan x="0" y="0">牛ホホ肉</tspan><tspan class="d" y="0">(</tspan><tspan y="0">ツラミ</tspan><tspan class="d" y="0">)</tspan></text><path class="e" d="M183,1570.063H985.214" transform="translate(99 1121.438)"/><text class="b" transform="translate(904 2730)"><tspan x="0" y="0" xml:space="preserve">¥1010    ¥560</tspan></text><text class="c" transform="translate(315 2730)"><tspan x="0" y="0">骨つきカルビ</tspan></text><path class="e" d="M183,1570.063H985.214" transform="translate(99 1184.438)"/><text class="b" transform="translate(904 2792)"><tspan x="0" y="0" xml:space="preserve">¥1310    ¥730</tspan></text><text class="c" transform="translate(315 2792)"><tspan x="0" y="0">上カルビ</tspan></text><path class="e" d="M183,1570.063H985.214" transform="translate(99 1248.438)"/><text class="b" transform="translate(904 2856)"><tspan x="0" y="0" xml:space="preserve">¥1730    ¥960</tspan></text><text class="c" transform="translate(315 2856)"><tspan x="0" y="0">上タン</tspan><tspan class="d" y="0">(10</tspan><tspan y="0">食限定</tspan><tspan class="d" y="0">)</tspan></text><path class="e" d="M183,1570.063H985.214" transform="translate(99 1312.438)"/><text class="b" transform="translate(904 2920)"><tspan x="0" y="0" xml:space="preserve">¥1730    ¥960</tspan></text><text class="c" transform="translate(315 2920)"><tspan x="0" y="0">上ロース</tspan></text><path class="e" d="M183,1570.063H985.214" transform="translate(99 1376.438)"/></g><text class="f" transform="translate(921 415)"><tspan x="0" y="0">通常</tspan><tspan class="d" y="0" xml:space="preserve">       </tspan><tspan y="0">ハーフ</tspan></text><text class="f" transform="translate(326 415)"><tspan x="0" y="0">部位</tspan></text></g></svg>