<?xml version="1.0" standalone="no"?>
<!DOCTYPE svg PUBLIC "-//W3C//DTD SVG 20010904//EN"
 "http://www.w3.org/TR/2001/REC-SVG-20010904/DTD/svg10.dtd">
<svg version="1.0" xmlns="http://www.w3.org/2000/svg"
 width="543.000000pt" height="543.000000pt" viewBox="0 0 543.000000 543.000000"
 preserveAspectRatio="xMidYMid meet">
<metadata>
Created by potrace 1.11, written by Peter Selinger 2001-2013
</metadata>
<g transform="translate(0.000000,543.000000) scale(0.100000,-0.100000)"
fill="#000000" stroke="none">
<path d="M2737 5424 c-1 -1 -56 -4 -122 -8 -66 -3 -129 -8 -140 -10 -11 -2
-47 -7 -80 -10 -283 -32 -582 -151 -764 -302 -278 -231 -423 -413 -563 -704
-113 -234 -229 -610 -253 -820 -3 -30 -8 -62 -10 -70 -2 -8 -7 -35 -10 -60 -3
-25 -10 -72 -15 -105 -9 -57 -12 -81 -24 -165 -16 -117 -21 -208 -21 -390 0
-219 5 -310 18 -310 4 0 7 4 7 8 0 5 19 22 43 39 62 45 211 174 297 257 279
271 482 525 678 852 138 230 311 606 328 715 14 85 -53 166 -168 203 -10 3
-18 10 -18 16 0 24 194 100 256 100 121 0 354 -117 516 -260 82 -72 118 -124
118 -170 0 -46 -11 -60 -82 -99 -32 -18 -78 -57 -106 -89 -65 -75 -194 -254
-187 -260 13 -14 384 10 515 33 14 2 45 7 70 10 145 20 222 47 304 110 72 55
117 75 151 69 58 -10 356 -176 441 -245 64 -52 133 -131 139 -159 13 -59 -2
-87 -80 -145 -86 -65 -136 -136 -258 -365 -24 -47 -57 -108 -72 -135 -190
-342 -208 -374 -302 -526 l-53 -86 108 -109 c156 -158 290 -354 357 -520 73
-181 27 -363 -105 -417 -58 -24 -151 -16 -202 18 -82 54 -225 198 -403 405
-54 63 -104 122 -112 130 -11 12 -24 4 -91 -66 -473 -495 -1110 -843 -1922
-1050 -96 -25 -179 -46 -184 -47 -15 -5 157 -171 244 -235 325 -242 816 -391
1440 -438 187 -14 608 -8 730 11 14 2 52 6 85 10 111 12 285 45 422 81 383 99
654 249 916 507 299 293 416 552 422 932 3 184 -10 276 -61 432 -55 171 -155
349 -266 478 l-43 51 2 174 c1 152 -5 249 -21 325 -2 11 -7 45 -11 75 -4 30
-9 66 -11 80 -5 29 -12 76 -19 123 -87 629 -152 884 -297 1170 -124 246 -365
505 -634 680 -243 160 -496 253 -734 273 -67 5 -160 10 -163 8z m813 -647 c8
-2 31 -7 50 -11 173 -38 344 -141 511 -306 132 -130 190 -241 185 -356 -4
-107 -53 -187 -146 -238 -45 -24 -60 -28 -113 -24 -150 10 -231 102 -343 385
-64 162 -166 370 -238 482 -25 39 -46 73 -46 76 0 5 111 -2 140 -8z"/>
<path d="M4150 5134 c0 -3 15 -27 34 -53 62 -84 190 -304 240 -411 109 -236
137 -287 178 -331 72 -77 141 -99 230 -73 124 37 200 187 169 336 -42 201
-344 460 -610 522 -60 14 -241 22 -241 10z"/>
<path d="M3128 3605 c-2 -2 -41 -5 -88 -9 -47 -3 -107 -9 -135 -11 -27 -3 -77
-7 -110 -10 -109 -8 -210 -17 -232 -20 -18 -3 -94 -8 -287 -20 -28 -1 -45 -9
-58 -26 -180 -227 -562 -570 -886 -794 -178 -124 -535 -315 -588 -315 -7 0
-28 -19 -47 -42 -90 -114 -186 -305 -233 -466 -34 -118 -39 -164 -38 -337 1
-204 34 -358 122 -565 56 -133 107 -216 129 -212 37 7 282 107 413 169 314
149 596 332 865 562 138 118 355 336 460 462 11 13 40 48 64 77 69 83 151 196
148 204 -1 5 -41 48 -89 97 -139 140 -379 319 -600 446 -65 36 -62 49 10 42
209 -22 531 -111 794 -220 l106 -44 60 101 c143 242 236 442 312 675 56 171
63 212 43 241 -13 18 -24 21 -74 19 -32 -1 -60 -3 -61 -4z"/>
</g>
</svg>
