<svg xmlns="http://www.w3.org/2000/svg" width="360" height="96.053" viewBox="0 0 360 96.053"><defs><style>.a,.c{fill:#fff;}.a{font-size:14px;font-family:PTSans-Regular, PT Sans;}.b{font-family:PingFangSC-Regular, PingFang SC;}</style></defs><g transform="translate(-504 -7158.947)"><text class="a" transform="translate(504 7250)"><tspan x="0" y="0">Copyright(C) 2020 </tspan><tspan class="b" y="0">焼肉ダルマ　青江店</tspan><tspan y="0" xml:space="preserve"> All Rights Reserved.</tspan></text><g transform="translate(662 7158.858)"><g transform="translate(0 39.817)"><path class="c" d="M5.292,201.791a2.307,2.307,0,0,0-1.209-.852,4.012,4.012,0,0,0-1.07-.139H.119a.128.128,0,0,0-.119.119v6.363a.128.128,0,0,0,.119.119H3.013a2.591,2.591,0,0,0,2.359-1.249,4.078,4.078,0,0,0,.555-2.2,4.179,4.179,0,0,0-.139-1.07A2.613,2.613,0,0,0,5.292,201.791ZM4.063,205.2a1.262,1.262,0,0,1-1.269.852H1.606v-3.944H2.795c.595,0,.991.159,1.169.476a2.866,2.866,0,0,1,.3,1.447A3.08,3.08,0,0,1,4.063,205.2Z" transform="translate(0 -200.8)"/><path class="c" d="M41.009,206.806a.931.931,0,0,1-.1-.436l-.02-.733v-2.894a1.55,1.55,0,0,0-.813-1.546,4.29,4.29,0,0,0-1.863-.4,2.714,2.714,0,0,0-2.26.832,2.449,2.449,0,0,0-.476,1.348h.1L37.1,203a1.292,1.292,0,0,1,.258-.575,1.056,1.056,0,0,1,.813-.277,1.723,1.723,0,0,1,.793.139.521.521,0,0,1,.258.515.5.5,0,0,1-.337.456,2.779,2.779,0,0,1-.654.139l-.555.059a3.938,3.938,0,0,0-1.467.416,1.862,1.862,0,0,0-.912,1.7,1.807,1.807,0,0,0,.575,1.407,2.054,2.054,0,0,0,1.427.5,2.25,2.25,0,0,0,1.209-.317,3.2,3.2,0,0,0,.753-.614c0,.059.04.337.04.337l.1.357,1.824.02.02-.258A1.376,1.376,0,0,1,41.009,206.806Zm-1.8-2.6v.575a1.317,1.317,0,0,1-.456,1.13,1.721,1.721,0,0,1-.971.317.848.848,0,0,1-.555-.178.7.7,0,0,1-.238-.595.744.744,0,0,1,.377-.694,2.692,2.692,0,0,1,.753-.218l.377-.079.436-.119S39.145,204.249,39.2,204.209Zm-3.687-1.269a.15.15,0,0,1,.02-.079.15.15,0,0,0-.02.079Z" transform="translate(-28.313 -200.8)"/><path class="c" d="M75.748,200.8h-.079a1.9,1.9,0,0,0-1.229.4,3.1,3.1,0,0,0-.634.813v-1.031l-1.586-.02-.02,6.3,1.665.02.02-3.013a2.312,2.312,0,0,1,.2-1.11,1.374,1.374,0,0,1,1.328-.634h.2l.277.02v-.02h0v-.1l.04-1.586A.735.735,0,0,0,75.748,200.8Z" transform="translate(-57.908 -200.8)"/><path class="c" d="M100.944,205.109a2.611,2.611,0,0,1-.159.971,1.166,1.166,0,0,1-1.15.674.892.892,0,0,1-.872-.456,2.015,2.015,0,0,1-.119-.793V201.72a.019.019,0,0,0-.02-.02h-1.7l-.02,3.806a3.971,3.971,0,0,0,.277,1.645,1.921,1.921,0,0,0,1.9,1.031,2.679,2.679,0,0,0,.852-.119,2.15,2.15,0,0,0,.753-.476l.218-.258.079-.119v.813l1.645.02.02-6.3-1.7-.02Z" transform="translate(-77.72 -201.522)"/><path class="c" d="M143.682,201.633a1.873,1.873,0,0,0-.753-.575,2.477,2.477,0,0,0-.833-.159,2.452,2.452,0,0,0-1.15.258,2.029,2.029,0,0,0-.793.793,1.807,1.807,0,0,0-.535-.733,1.942,1.942,0,0,0-1.169-.317,1.915,1.915,0,0,0-1.249.377,2.362,2.362,0,0,0-.535.654v-.852l-1.645-.02-.02,6.283,1.7.02.02-3.806a1.5,1.5,0,0,1,.139-.753.958.958,0,0,1,.932-.436.808.808,0,0,1,.793.436,1.95,1.95,0,0,1,.119.793v3.726l1.665.02.02-3.746a1.582,1.582,0,0,1,.139-.714.957.957,0,0,1,.932-.555.8.8,0,0,1,.793.416,1.236,1.236,0,0,1,.119.575V207.3l1.7.02c.02-.02.04-3.964.04-3.964a5.6,5.6,0,0,0-.059-.932A1.967,1.967,0,0,0,143.682,201.633Z" transform="translate(-108.282 -200.88)"/><path class="c" d="M192.928,206.806a.931.931,0,0,1-.1-.436l-.02-.733v-2.894A1.55,1.55,0,0,0,192,201.2a4.29,4.29,0,0,0-1.863-.4,2.714,2.714,0,0,0-2.26.832,2.393,2.393,0,0,0-.476,1.348h.1l1.526.02a1.292,1.292,0,0,1,.258-.575,1.056,1.056,0,0,1,.813-.277,1.582,1.582,0,0,1,.773.139.521.521,0,0,1,.258.515.5.5,0,0,1-.337.456,2.779,2.779,0,0,1-.654.139l-.555.059a3.938,3.938,0,0,0-1.467.416,1.862,1.862,0,0,0-.912,1.7,1.807,1.807,0,0,0,.575,1.407,2.054,2.054,0,0,0,1.427.5,2.25,2.25,0,0,0,1.209-.317,3.292,3.292,0,0,0,.753-.614c0,.059.04.337.04.337l.1.357,1.824.02.02-.258C193.067,206.925,192.988,206.865,192.928,206.806Zm-1.784-2.6v.575a1.343,1.343,0,0,1-.456,1.13,1.721,1.721,0,0,1-.971.317.848.848,0,0,1-.555-.178.7.7,0,0,1-.238-.595.744.744,0,0,1,.377-.694,2.491,2.491,0,0,1,.753-.218l.377-.079.436-.119C190.847,204.348,191.065,204.249,191.144,204.209Zm-3.707-1.269a.15.15,0,0,1,.02-.079.15.15,0,0,0-.02.079Z" transform="translate(-150.146 -200.8)"/></g><g transform="translate(5.943 0.089)"><path class="c" d="M44.216,67.761a17.6,17.6,0,0,0-4.6-3.568c-.317-.2-.277-.278.139-.238a21.165,21.165,0,0,1,5.847,1.7A20.691,20.691,0,0,0,48.359,59.5c.04-.337-.079-.5-.377-.5q-.178,0-2.854.238c-1.982.178-3.132.258-3.429.258a24.949,24.949,0,0,1-3.707,3.647,22.612,22.612,0,0,1-5.451,3.489,2.917,2.917,0,0,1-.614.218l-.02.02a9.01,9.01,0,0,0-1.288,2.24c-1.249,2.676-.515,5.867.912,8.166a25.721,25.721,0,0,0,5.649-2.735A26.521,26.521,0,0,0,44.216,67.761Z" transform="translate(-29.98 -47.323)"/><path class="c" d="M66.748,28.476a8.688,8.688,0,0,0-1.665-9.693,14.6,14.6,0,0,0,0-2.735c-.515-2.934-.674-6.184-1.863-8.92A11.359,11.359,0,0,0,59.553,2.45,10.5,10.5,0,0,0,53.032.091c-5.074.1-6.779,1.685-8.246,3.052C42.447,5.3,41.3,8.5,40.663,11.509c-.416,2.973-.832,4.618-.515,7.592a.916.916,0,0,0,.139-.139,26.158,26.158,0,0,0,5.728-6.085A24.743,24.743,0,0,0,48.81,7.386c.3-.714-.02-1.269-.912-1.606q-.387-.059-.059-.3a3.829,3.829,0,0,1,1.546-.5,5.117,5.117,0,0,1,2.5,1.051c1.051.714,1.586,1.308,1.586,1.744a.506.506,0,0,1-.3.5,2.567,2.567,0,0,0-.614.357,14.8,14.8,0,0,0-1.586,2.042,23.729,23.729,0,0,0,4.777-.5A2.462,2.462,0,0,0,56.8,9.626a1.554,1.554,0,0,1,.813-.436A8.56,8.56,0,0,1,60.029,10.4Q61.515,11.409,61.515,12a.727.727,0,0,1-.416.654,3.022,3.022,0,0,0-1.011,1.051c-.159.258-.416.714-.773,1.387-.515.932-.832,1.526-.971,1.764-.872,1.586-1.487,2.6-1.824,3.092a10.326,10.326,0,0,1,3.211,4.6c.258,1.546-.595,2.478-1.923,2.161-.5-.119-2.3-2-3.647-3.707-3.389,3.766-8.107,6.283-14.113,7.592a11.142,11.142,0,0,0,5.55,3.409c5.431,1.566,12.091,1.249,16.154-.773A12.125,12.125,0,0,0,66.748,28.476ZM63,8.932A1.79,1.79,0,0,1,62.288,10a1.48,1.48,0,0,1-1.249.258c-.694-.159-1.269-.813-1.724-1.982a19.09,19.09,0,0,0-2.061-4.123,5.36,5.36,0,0,1,1.249.139,6.634,6.634,0,0,1,3.072,1.724Q63.3,7.564,63,8.932Z" transform="translate(-38.043 -0.089)"/></g><path class="c" d="M155.223,10.719a5.7,5.7,0,0,0-2.854-1.427,6.4,6.4,0,0,0-1.269-.04,19.005,19.005,0,0,1,2.2,3.885c.456,1.11,1.011,1.7,1.606,1.784a1.353,1.353,0,0,0,1.13-.357,1.716,1.716,0,0,0,.595-1.09A3.139,3.139,0,0,0,155.223,10.719Z" transform="translate(-121.191 -7.337)"/></g></g></svg>