<svg xmlns="http://www.w3.org/2000/svg" xmlns:xlink="http://www.w3.org/1999/xlink" width="551" height="252.013" viewBox="0 0 551 252.013"><defs><style>.a{fill:#fff;font-size:20px;font-family:NotoSansJP-Regular, Noto Sans JP;}.b{fill:#5a8fcb;}.c{filter:url(#a);}</style><filter id="a" x="235.973" y="0" width="84.1" height="75.4" filterUnits="userSpaceOnUse"><feOffset dx="3" dy="3" input="SourceAlpha"/><feGaussianBlur stdDeviation="1" result="b"/><feFlood flood-opacity="0.161"/><feComposite operator="in" in2="b"/><feComposite in="SourceGraphic"/></filter></defs><g transform="translate(-408 -2572.987)"><text class="a" transform="translate(450 2790)"><tspan x="0" y="0" xml:space="preserve">営業時間 : 11:00 ~ 15:00  (</tspan><tspan y="0" xml:space="preserve">オーダーストップ  14:30)</tspan><tspan x="0" y="29" xml:space="preserve">　　　　   17:00 ~ 22:00  (オーダーストップ  21:30）</tspan></text><text class="a" transform="translate(485 2741)"><tspan x="0" y="0">駐車場 : 40台完備　第2駐車場</tspan><tspan y="0">あり (</tspan><tspan y="0">徒歩1分)</tspan></text><text class="a" transform="translate(408 2691)"><tspan x="0" y="0">住所 : 岡山県岡山市帰宅青江1-22-7 (青江交差点北</tspan><tspan y="0">へ４００</tspan><tspan y="0">ｍ)</tspan></text><g transform="translate(683.023 2607.688)"><g transform="translate(-39.05 -34.7)"><g class="c" transform="matrix(1, 0, 0, 1, -235.97, 0)"><path class="b" d="M39,0A17.1,17.1,0,0,0,22,17.1c0,7.6,11.2,21.5,15.4,26.6a2.1,2.1,0,0,0,3.3,0c4.3-5,15.4-18.9,15.4-26.6A17.1,17.1,0,0,0,39,0Zm0,22.8a5.7,5.7,0,1,1,5.7-5.7A5.7,5.7,0,0,1,39,22.8ZM2.7,29.3a4.3,4.3,0,0,0-2.7,4V67.2a2.2,2.2,0,0,0,3,2l18.7-8.5V29.1a41,41,0,0,1-2.9-6.3ZM39,48.7a6.5,6.5,0,0,1-4.9-2.3A129.43,129.43,0,0,1,26,36V60.7l26,8.7V36a129.43,129.43,0,0,1-8.1,10.4A6.5,6.5,0,0,1,39,48.7ZM75.1,21.8,56.4,30.4v39l19-7.6a4.3,4.3,0,0,0,2.7-4V23.9a2.2,2.2,0,0,0-3-2Z" transform="translate(235.97 0)"/></g></g></g></g></svg>