<svg xmlns="http://www.w3.org/2000/svg" xmlns:xlink="http://www.w3.org/1999/xlink" width="785" height="391" viewBox="0 0 785 391"><defs><style>.a{fill:#5a8fcb;stroke:#707070;}.b{fill:#c73d13;}.c,.d,.g,.h,.i{fill:#fff;}.d{font-size:8px;font-family:HelveticaNeue-Thin, Helvetica Neue;font-weight:200;letter-spacing:0.15em;}.e{letter-spacing:0.13em;}.f{letter-spacing:0.07em;}.g{font-size:22px;}.g,.h,.i{font-family:NotoSansJP-Regular, Noto Sans JP;}.h{font-size:33px;letter-spacing:0.1em;}.i{font-size:14px;}.j{stroke:none;}.k{fill:none;}.l{filter:url(#c);}.m{filter:url(#a);}</style><filter id="a" x="32.5" y="120.406" width="352.797" height="207.994" filterUnits="userSpaceOnUse"><feOffset dx="3" dy="3" input="SourceAlpha"/><feGaussianBlur stdDeviation="1.5" result="b"/><feFlood flood-opacity="0.161"/><feComposite operator="in" in2="b"/><feComposite in="SourceGraphic"/></filter><filter id="c" x="71.5" y="45.5" width="618" height="57" filterUnits="userSpaceOnUse"><feOffset dx="3" dy="3" input="SourceAlpha"/><feGaussianBlur stdDeviation="1.5" result="d"/><feFlood flood-opacity="0.161"/><feComposite operator="in" in2="d"/><feComposite in="SourceGraphic"/></filter></defs><g transform="translate(-143 -4754)"><g class="a" transform="translate(143 4754)"><rect class="j" width="785" height="391"/><rect class="k" x="0.5" y="0.5" width="784" height="390"/></g><g transform="translate(177 4875.906)"><g class="m" transform="matrix(1, 0, 0, 1, -34, -121.91)"><rect class="b" width="343.797" height="198.994" rx="20.89" transform="translate(34 121.91)"/></g><path class="c" d="M213.769,245.6a6.508,6.508,0,0,0-3.411-2.4,11.318,11.318,0,0,0-3.019-.391h-8.163a.363.363,0,0,0-.335.335v17.948a.363.363,0,0,0,.335.335h8.141a7.31,7.31,0,0,0,6.654-3.522,11.5,11.5,0,0,0,1.566-6.206,11.786,11.786,0,0,0-.391-3.019A7.369,7.369,0,0,0,213.769,245.6Zm-3.467,9.617a3.562,3.562,0,0,1-3.578,2.4h-3.355V246.49h3.355c1.677,0,2.8.447,3.3,1.342a8.564,8.564,0,0,1,.839,4.082A8.689,8.689,0,0,1,210.3,255.212Z" transform="translate(-87.663 -107.043)"/><path class="c" d="M250.237,259.741a2.628,2.628,0,0,1-.28-1.23l-.056-2.069v-8.163c0-2.181-.783-3.634-2.292-4.361a12.1,12.1,0,0,0-5.256-1.118q-4.529,0-6.374,2.348a6.905,6.905,0,0,0-1.342,3.8h.28l4.305.056a3.646,3.646,0,0,1,.727-1.621,2.98,2.98,0,0,1,2.292-.783,4.859,4.859,0,0,1,2.237.391,1.47,1.47,0,0,1,.727,1.454,1.409,1.409,0,0,1-.951,1.286,7.829,7.829,0,0,1-1.845.391l-1.566.168a11.11,11.11,0,0,0-4.138,1.174,5.25,5.25,0,0,0-2.572,4.809,5.1,5.1,0,0,0,1.6,3.97,5.792,5.792,0,0,0,4.026,1.4,6.346,6.346,0,0,0,3.411-.895,9.025,9.025,0,0,0,2.125-1.733c0,.168.112.951.112.951l.28,1.006,5.144.056.056-.727A3.881,3.881,0,0,1,250.237,259.741Zm-5.088-7.325v1.621c-.056,1.566-.447,2.628-1.286,3.187a4.853,4.853,0,0,1-2.74.895,2.393,2.393,0,0,1-1.566-.5,1.963,1.963,0,0,1-.671-1.677,2.1,2.1,0,0,1,1.062-1.957,7.593,7.593,0,0,1,2.125-.615l1.062-.224,1.23-.335S244.981,252.528,245.149,252.416Zm-10.4-3.578a.425.425,0,0,1,.056-.224.424.424,0,0,0-.056.224Z" transform="translate(-103.219 -107.043)"/><path class="c" d="M281.048,242.8h-.224a5.373,5.373,0,0,0-3.467,1.118,8.739,8.739,0,0,0-1.789,2.292V243.3l-4.473-.056-.056,17.78,4.7.056.056-8.5a6.52,6.52,0,0,1,.559-3.131c.615-1.174,1.9-1.789,3.746-1.789h.559l.783.056v-.056h0v-.28l.112-4.473A2.075,2.075,0,0,0,281.048,242.8Z" transform="translate(-119.494 -107.041)"/><path class="c" d="M307.137,253.317a7.364,7.364,0,0,1-.447,2.74,3.288,3.288,0,0,1-3.243,1.9,2.517,2.517,0,0,1-2.46-1.286,5.686,5.686,0,0,1-.335-2.237V243.756a.056.056,0,0,0-.056-.056h-4.809l-.056,10.735a11.182,11.182,0,0,0,.783,4.641c.895,1.9,2.74,2.907,5.368,2.907a7.559,7.559,0,0,0,2.4-.335,6.067,6.067,0,0,0,2.125-1.342l.615-.727.224-.335v2.292l4.641.056.056-17.78-4.809-.056Z" transform="translate(-130.374 -107.44)"/><path class="c" d="M358.33,244.962a5.284,5.284,0,0,0-2.125-1.621,7.043,7.043,0,0,0-5.591.28,5.72,5.72,0,0,0-2.237,2.237,5.1,5.1,0,0,0-1.51-2.069,5.479,5.479,0,0,0-3.3-.895,5.4,5.4,0,0,0-3.522,1.062,6.665,6.665,0,0,0-1.51,1.845v-2.4l-4.641-.056-.056,17.724,4.809.056.056-10.735a4.221,4.221,0,0,1,.391-2.125,2.7,2.7,0,0,1,2.628-1.23,2.281,2.281,0,0,1,2.237,1.23,5.5,5.5,0,0,1,.336,2.237v10.512l4.7.056.056-10.568a4.473,4.473,0,0,1,.391-2.013,2.7,2.7,0,0,1,2.628-1.566,2.245,2.245,0,0,1,2.237,1.174,3.489,3.489,0,0,1,.335,1.621v11.238l4.809.056c.056-.056.112-11.183.112-11.183a15.794,15.794,0,0,0-.168-2.628,5.546,5.546,0,0,0-1.062-2.237Z" transform="translate(-147.181 -107.081)"/><path class="c" d="M402.193,259.741a2.628,2.628,0,0,1-.28-1.23l-.056-2.069v-8.163c0-2.181-.783-3.634-2.292-4.361a12.1,12.1,0,0,0-5.256-1.118q-4.529,0-6.374,2.348a6.749,6.749,0,0,0-1.342,3.8h.28l4.305.056a3.645,3.645,0,0,1,.727-1.621,2.98,2.98,0,0,1,2.292-.783,4.473,4.473,0,0,1,2.181.391,1.47,1.47,0,0,1,.727,1.454,1.409,1.409,0,0,1-.951,1.286,7.827,7.827,0,0,1-1.845.391l-1.566.168a11.109,11.109,0,0,0-4.138,1.174,5.25,5.25,0,0,0-2.572,4.809,5.1,5.1,0,0,0,1.621,3.97,5.793,5.793,0,0,0,4.026,1.4,6.346,6.346,0,0,0,3.411-.895,9.283,9.283,0,0,0,2.125-1.733c0,.168.112.951.112.951l.28,1.006,5.144.056.056-.727C402.584,260.076,402.36,259.908,402.193,259.741Zm-5.032-7.325v1.621c-.056,1.51-.447,2.628-1.286,3.187a4.854,4.854,0,0,1-2.74.895,2.393,2.393,0,0,1-1.566-.5,1.963,1.963,0,0,1-.671-1.677,2.1,2.1,0,0,1,1.062-1.957,7.029,7.029,0,0,1,2.125-.615l1.062-.224,1.23-.335C396.322,252.807,396.937,252.528,397.16,252.416ZM386.7,248.838a.425.425,0,0,1,.056-.224.425.425,0,0,0-.056.224Z" transform="translate(-170.188 -107.043)"/><path class="c" d="M268.959,125.713c-3.019-3.578-8-7.269-12.972-10.064-.895-.559-.783-.783.391-.671a59.7,59.7,0,0,1,16.494,4.809,58.367,58.367,0,0,0,7.772-17.389c.112-.951-.224-1.4-1.062-1.4q-.5,0-8.051.671c-5.591.5-8.834.727-9.673.727A70.378,70.378,0,0,1,251.4,112.686a63.786,63.786,0,0,1-15.376,9.841,8.23,8.23,0,0,1-1.733.615l-.056.056a25.418,25.418,0,0,0-3.657,6.318c-3.523,7.548-1.454,16.55,2.572,23.036a72.551,72.551,0,0,0,15.935-7.716A74.811,74.811,0,0,0,268.959,125.713Z" transform="translate(-100.863 -44.528)"/><path class="c" d="M314.226,122.163a24.508,24.508,0,0,0-4.7-27.341,41.191,41.191,0,0,0,0-7.716c-1.454-8.275-1.9-17.445-5.256-25.161-1.9-5.032-5.759-9.561-10.344-13.2-4.529-3.411-10.791-6.821-18.4-6.654-14.314.28-19.122,4.753-23.26,8.611-6.6,6.095-9.841,15.1-11.63,23.6-1.174,8.387-2.348,13.028-1.454,21.415a2.584,2.584,0,0,0,.391-.391,73.8,73.8,0,0,0,16.136-17.165A69.8,69.8,0,0,0,263.6,62.671c.839-2.013-.056-3.578-2.572-4.529q-1.09-.168-.168-.839a10.8,10.8,0,0,1,4.361-1.4c1.733,0,4.082,1.006,7.045,2.963s4.473,3.69,4.473,4.92a1.426,1.426,0,0,1-.839,1.4,7.269,7.269,0,0,0-1.733,1.006,41.763,41.763,0,0,0-4.473,5.759,66.934,66.934,0,0,0,13.475-1.4,6.944,6.944,0,0,0,2.963-1.566,4.383,4.383,0,0,1,2.292-1.23c.783,0,3.019,1.118,6.821,3.411q4.193,2.852,4.193,4.529a2.052,2.052,0,0,1-1.174,1.845,8.527,8.527,0,0,0-2.852,2.963c-.447.727-1.174,2.013-2.181,3.914-1.454,2.628-2.348,4.305-2.74,4.976-2.46,4.473-4.193,7.325-5.144,8.722,4.417,3.467,8.5,10.008,9.058,12.972.727,4.361-1.677,6.989-5.424,6.094-1.4-.335-6.486-5.647-10.288-10.456-9.561,10.623-22.868,17.724-39.81,21.415,4.193,5.088,9.841,7.828,15.656,9.617,15.32,4.417,34.107,3.523,45.569-2.181A34.2,34.2,0,0,0,314.226,122.163Zm-10.568-55.13a5.032,5.032,0,0,1-2.013,3.019,4.177,4.177,0,0,1-3.522.727c-1.957-.447-3.578-2.292-4.864-5.591a53.85,53.85,0,0,0-5.815-11.63,15.1,15.1,0,0,1,3.522.391,18.714,18.714,0,0,1,8.666,4.864q4.864,4.361,4.026,8.219Z" transform="translate(-105.314 -18.556)"/><path class="c" d="M361.57,55.4a16.076,16.076,0,0,0-8.051-4.026,18.049,18.049,0,0,0-3.578-.112,53.609,53.609,0,0,1,6.184,10.959c1.286,3.131,2.852,4.809,4.529,5.032a3.819,3.819,0,0,0,3.187-1.006,4.842,4.842,0,0,0,1.677-3.075C365.931,60.6,364.589,58.032,361.57,55.4Z" transform="translate(-154.279 -22.584)"/><text class="d" transform="translate(83 172.244)"><tspan x="0" y="0">EVERLA</tspan><tspan class="e" y="0">S</tspan><tspan y="0">TING GOOD </tspan><tspan class="f" y="0">T</tspan><tspan y="0">A</tspan><tspan class="e" y="0">S</tspan><tspan y="0">TE-IN ALL </tspan><tspan class="e" y="0">A</tspan><tspan y="0">GE</tspan></text></g><text class="g" transform="translate(662 5102)"><tspan x="0" y="0">スタンプカード</tspan><tspan y="0">発行中!!</tspan></text><g class="l" transform="matrix(1, 0, 0, 1, 143, 4754)"><text class="h" transform="translate(73 85)"><tspan x="0" y="0">どんどん</tspan><tspan y="0">食</tspan><tspan y="0">べて、どんどん</tspan><tspan y="0">貯</tspan><tspan y="0">めよう！</tspan></text></g><text class="i" transform="translate(554 4917)"><tspan x="0" y="0">※ ご</tspan><tspan y="0">飲食１,０００円毎</tspan><tspan y="0">にスタンプ１</tspan><tspan y="0">個捺印</tspan><tspan y="0">します</tspan><tspan x="0" y="20">※ スタンプ３６</tspan><tspan y="20">個</tspan><tspan y="20">で、</tspan><tspan y="20">次回１,０００円値引</tspan><tspan y="20">いたします</tspan><tspan x="0" y="40">※ </tspan><tspan y="40">現金</tspan><tspan y="40">との</tspan><tspan y="40">交換及</tspan><tspan y="40">び</tspan><tspan y="40">他券</tspan><tspan y="40">との</tspan><tspan y="40">併用</tspan><tspan y="40">はできません</tspan><tspan x="0" y="60">※ </tspan><tspan y="60">紛失</tspan><tspan y="60">などによる</tspan><tspan y="60">再発行</tspan><tspan y="60">はいたしません</tspan><tspan x="0" y="80">※ </tspan><tspan y="80">発行店</tspan><tspan y="80">のみご</tspan><tspan y="80">利用頂</tspan><tspan y="80">けます</tspan><tspan x="0" y="100">※ スタンプカードのご</tspan><tspan y="100">利用</tspan><tspan y="100">は、１</tspan><tspan y="100">回</tspan><tspan y="100">につき１</tspan><tspan y="100">冊限</tspan><tspan y="100">りと</tspan><tspan x="0" y="120" xml:space="preserve">      させて</tspan><tspan y="120">頂</tspan><tspan y="120">きます</tspan></text></g></svg>