<svg xmlns="http://www.w3.org/2000/svg" width="400" height="185" viewBox="0 0 400 185"><defs><style>.a{fill:#5a8fcb;}</style></defs><g transform="translate(-966 -4893)"><path class="a" d="M18.5,0H348a0,0,0,0,1,0,0V37a0,0,0,0,1,0,0H18.5A18.5,18.5,0,0,1,0,18.5v0A18.5,18.5,0,0,1,18.5,0Z" transform="translate(1018 5041)"/><path class="a" d="M18.5,0H400a0,0,0,0,1,0,0V37a0,0,0,0,1,0,0H18.5A18.5,18.5,0,0,1,0,18.5v0A18.5,18.5,0,0,1,18.5,0Z" transform="translate(966 4967)"/><path class="a" d="M18.5,0H216a0,0,0,0,1,0,0V37a0,0,0,0,1,0,0H18.5A18.5,18.5,0,0,1,0,18.5v0A18.5,18.5,0,0,1,18.5,0Z" transform="translate(1150 4893)"/></g></svg>