<svg xmlns="http://www.w3.org/2000/svg" xmlns:xlink="http://www.w3.org/1999/xlink" width="934" height="289" viewBox="0 0 934 289"><defs><style>.a,.b{fill:#5a8fcb;}.b{stroke:#707070;}.c{fill:#c73d13;}.d,.e,.h,.i,.j{fill:#fff;}.e{font-size:5px;font-family:HelveticaNeue-Thin, Helvetica Neue;font-weight:200;letter-spacing:0.15em;}.f{letter-spacing:0.13em;}.g{letter-spacing:0.07em;}.h{font-size:15px;}.h,.i,.j{font-family:NotoSansJP-Regular, Noto Sans JP;}.i{font-size:24px;letter-spacing:0.1em;}.j{font-size:9px;}.k{stroke:none;}.l{fill:none;}.m{filter:url(#c);}.n{filter:url(#a);}</style><filter id="a" x="23.629" y="88.62" width="263.091" height="156.071" filterUnits="userSpaceOnUse"><feOffset dx="3" dy="3" input="SourceAlpha"/><feGaussianBlur stdDeviation="1.5" result="b"/><feFlood flood-opacity="0.161"/><feComposite operator="in" in2="b"/><feComposite in="SourceGraphic"/></filter><filter id="c" x="76.5" y="32.5" width="452" height="44" filterUnits="userSpaceOnUse"><feOffset dx="3" dy="3" input="SourceAlpha"/><feGaussianBlur stdDeviation="1.5" result="d"/><feFlood flood-opacity="0.161"/><feComposite operator="in" in2="d"/><feComposite in="SourceGraphic"/></filter></defs><g transform="translate(-216 -5185)"><g transform="translate(922.63 5210.999)"><rect class="a" width="167" height="25" rx="12.5" transform="translate(60.37 98.002)"/><rect class="a" width="213" height="25" rx="12.5" transform="translate(0.37 49.001)"/><rect class="a" width="132" height="24" rx="12" transform="translate(95.37 0.001)"/><rect class="a" width="25" height="25" rx="12.5" transform="translate(18.37 98.002)"/></g><g transform="translate(216 5184.827)"><g class="b" transform="translate(0 0.173)"><rect class="k" width="580" height="289"/><rect class="l" x="0.5" y="0.5" width="579" height="288"/></g><g transform="translate(25.129 90.293)"><g class="n" transform="matrix(1, 0, 0, 1, -25.13, -90.12)"><rect class="c" width="254.091" height="147.071" rx="20.89" transform="translate(25.13 90.12)"/></g><path class="d" d="M209.873,244.866a4.81,4.81,0,0,0-2.521-1.777,8.365,8.365,0,0,0-2.231-.289h-6.033a.269.269,0,0,0-.248.248v13.265a.269.269,0,0,0,.248.248H205.1a5.4,5.4,0,0,0,4.918-2.6,8.5,8.5,0,0,0,1.157-4.587,8.711,8.711,0,0,0-.289-2.231A5.447,5.447,0,0,0,209.873,244.866Zm-2.562,7.108a2.632,2.632,0,0,1-2.645,1.777h-2.479v-8.223h2.479c1.24,0,2.066.331,2.438.992a6.329,6.329,0,0,1,.62,3.017A6.422,6.422,0,0,1,207.311,251.974Z" transform="translate(-116.672 -142.466)"/><path class="d" d="M246.033,255.32a1.942,1.942,0,0,1-.207-.909l-.041-1.529v-6.033a3.231,3.231,0,0,0-1.694-3.223,8.946,8.946,0,0,0-3.884-.826q-3.347,0-4.711,1.736a5.1,5.1,0,0,0-.992,2.81h.207l3.182.041a2.694,2.694,0,0,1,.537-1.2,2.2,2.2,0,0,1,1.694-.579,3.592,3.592,0,0,1,1.653.289,1.087,1.087,0,0,1,.537,1.074,1.041,1.041,0,0,1-.7.95,5.786,5.786,0,0,1-1.364.289l-1.157.124a8.211,8.211,0,0,0-3.058.868,3.88,3.88,0,0,0-1.9,3.554,3.769,3.769,0,0,0,1.182,2.934,4.281,4.281,0,0,0,2.975,1.033,4.69,4.69,0,0,0,2.521-.661,6.669,6.669,0,0,0,1.57-1.281c0,.124.083.7.083.7l.207.744,3.8.041.041-.537A2.867,2.867,0,0,1,246.033,255.32Zm-3.76-5.413v1.2a2.746,2.746,0,0,1-.95,2.355,3.587,3.587,0,0,1-2.025.661,1.769,1.769,0,0,1-1.157-.372,1.451,1.451,0,0,1-.5-1.24,1.55,1.55,0,0,1,.785-1.446,5.612,5.612,0,0,1,1.57-.455l.785-.165.909-.248S242.148,249.989,242.272,249.906Zm-7.686-2.645a.314.314,0,0,1,.041-.165.314.314,0,0,0-.041.165Z" transform="translate(-137.376 -142.465)"/><path class="d" d="M278.437,242.8h-.165a3.971,3.971,0,0,0-2.562.826,6.459,6.459,0,0,0-1.322,1.694v-2.149l-3.306-.041-.041,13.141,3.471.041.041-6.281a4.819,4.819,0,0,1,.413-2.314,2.864,2.864,0,0,1,2.769-1.322h.413l.579.041v-.041h0v-.207l.083-3.306A1.531,1.531,0,0,0,278.437,242.8Z" transform="translate(-159.036 -142.463)"/><path class="d" d="M304.158,250.808a5.442,5.442,0,0,1-.331,2.025,2.43,2.43,0,0,1-2.4,1.4,1.86,1.86,0,0,1-1.818-.95,4.2,4.2,0,0,1-.248-1.653v-7.893a.041.041,0,0,0-.041-.041H295.77l-.041,7.934a8.265,8.265,0,0,0,.578,3.43,4.005,4.005,0,0,0,3.967,2.149,5.586,5.586,0,0,0,1.777-.248,4.484,4.484,0,0,0,1.57-.992l.455-.537.165-.248v1.694l3.43.041.041-13.141-3.554-.041Z" transform="translate(-173.517 -142.994)"/><path class="d" d="M351.94,244.421a3.9,3.9,0,0,0-1.57-1.2,5.205,5.205,0,0,0-4.132.207,4.228,4.228,0,0,0-1.653,1.653,3.769,3.769,0,0,0-1.116-1.529,4.05,4.05,0,0,0-2.438-.661,3.992,3.992,0,0,0-2.6.785,4.925,4.925,0,0,0-1.116,1.364v-1.777l-3.43-.041-.041,13.1,3.554.041.041-7.934a3.119,3.119,0,0,1,.289-1.57,2,2,0,0,1,1.942-.909,1.686,1.686,0,0,1,1.653.909,4.067,4.067,0,0,1,.248,1.653v7.769l3.471.041.041-7.81a3.307,3.307,0,0,1,.289-1.488,2,2,0,0,1,1.942-1.157,1.659,1.659,0,0,1,1.653.868,2.578,2.578,0,0,1,.248,1.2v8.306l3.554.041c.041-.041.083-8.265.083-8.265a11.67,11.67,0,0,0-.124-1.942,4.1,4.1,0,0,0-.785-1.653Z" transform="translate(-195.885 -142.516)"/><path class="d" d="M397.974,255.32a1.942,1.942,0,0,1-.207-.909l-.041-1.529v-6.033a3.231,3.231,0,0,0-1.694-3.223,8.946,8.946,0,0,0-3.884-.826q-3.347,0-4.711,1.736a4.988,4.988,0,0,0-.992,2.81h.207l3.182.041a2.694,2.694,0,0,1,.537-1.2,2.2,2.2,0,0,1,1.694-.579,3.306,3.306,0,0,1,1.612.289,1.087,1.087,0,0,1,.537,1.074,1.041,1.041,0,0,1-.7.95,5.785,5.785,0,0,1-1.364.289l-1.157.124a8.211,8.211,0,0,0-3.058.868,3.881,3.881,0,0,0-1.9,3.554,3.769,3.769,0,0,0,1.2,2.934,4.281,4.281,0,0,0,2.975,1.033,4.69,4.69,0,0,0,2.521-.661,6.86,6.86,0,0,0,1.57-1.281c0,.124.083.7.083.7l.207.744,3.8.041.041-.537C398.264,255.568,398.1,255.444,397.974,255.32Zm-3.719-5.413v1.2a2.8,2.8,0,0,1-.95,2.355,3.587,3.587,0,0,1-2.025.661,1.768,1.768,0,0,1-1.157-.372,1.45,1.45,0,0,1-.5-1.24,1.55,1.55,0,0,1,.785-1.446,5.2,5.2,0,0,1,1.57-.455l.785-.165.909-.248C393.635,250.2,394.09,249.989,394.255,249.906Zm-7.727-2.645a.314.314,0,0,1,.041-.165.314.314,0,0,0-.041.165Z" transform="translate(-226.506 -142.465)"/><path class="d" d="M258.475,119.265a36.693,36.693,0,0,0-9.587-7.438c-.661-.413-.579-.579.289-.5a44.123,44.123,0,0,1,12.191,3.554,43.138,43.138,0,0,0,5.744-12.852c.083-.7-.165-1.033-.785-1.033q-.372,0-5.951.5c-4.132.372-6.529.537-7.149.537a52.016,52.016,0,0,1-7.728,7.6,47.143,47.143,0,0,1-11.364,7.273,6.082,6.082,0,0,1-1.281.455l-.041.041a18.785,18.785,0,0,0-2.7,4.67c-2.6,5.579-1.074,12.232,1.9,17.025a53.62,53.62,0,0,0,11.777-5.7A55.291,55.291,0,0,0,258.475,119.265Z" transform="translate(-134.24 -59.263)"/><path class="d" d="M294.565,101.269a18.113,18.113,0,0,0-3.471-20.207,30.44,30.44,0,0,0,0-5.7c-1.074-6.116-1.4-12.893-3.884-18.6a23.681,23.681,0,0,0-7.645-9.752c-3.347-2.521-7.975-5.041-13.6-4.918-10.579.207-14.133,3.513-17.191,6.364-4.876,4.5-7.273,11.157-8.6,17.439-.868,6.2-1.736,9.628-1.074,15.827a1.908,1.908,0,0,0,.289-.289,54.548,54.548,0,0,0,11.926-12.686A51.585,51.585,0,0,0,257.151,57.3c.62-1.488-.041-2.645-1.9-3.347q-.806-.124-.124-.62a7.983,7.983,0,0,1,3.223-1.033c1.281,0,3.017.744,5.207,2.19s3.306,2.727,3.306,3.636a1.054,1.054,0,0,1-.62,1.033,5.372,5.372,0,0,0-1.281.744,30.868,30.868,0,0,0-3.306,4.256,49.469,49.469,0,0,0,9.959-1.033,5.132,5.132,0,0,0,2.19-1.157,3.239,3.239,0,0,1,1.694-.909c.579,0,2.231.826,5.042,2.521q3.1,2.108,3.1,3.347a1.517,1.517,0,0,1-.868,1.364,6.3,6.3,0,0,0-2.108,2.19c-.331.537-.868,1.488-1.612,2.893-1.074,1.942-1.736,3.182-2.025,3.678-1.818,3.306-3.1,5.413-3.8,6.446,3.265,2.562,6.281,7.4,6.694,9.587.537,3.223-1.24,5.165-4.008,4.5-1.033-.248-4.794-4.174-7.6-7.728-7.066,7.852-16.9,13.1-29.423,15.827,3.1,3.76,7.273,5.785,11.571,7.108,11.323,3.265,25.207,2.6,33.679-1.612A25.278,25.278,0,0,0,294.565,101.269Zm-7.81-40.745a3.719,3.719,0,0,1-1.488,2.231,3.087,3.087,0,0,1-2.6.537c-1.446-.331-2.645-1.694-3.6-4.132a39.8,39.8,0,0,0-4.3-8.6,11.158,11.158,0,0,1,2.6.289,13.831,13.831,0,0,1,6.405,3.6q3.6,3.223,2.975,6.075Z" transform="translate(-140.163 -24.696)"/><path class="d" d="M358.535,54.314a11.881,11.881,0,0,0-5.951-2.975,13.339,13.339,0,0,0-2.645-.083,39.62,39.62,0,0,1,4.57,8.1c.95,2.314,2.108,3.554,3.347,3.719a2.822,2.822,0,0,0,2.355-.744,3.579,3.579,0,0,0,1.24-2.273C361.759,58.157,360.767,56.256,358.535,54.314Z" transform="translate(-205.332 -30.057)"/><text class="e" transform="translate(61.343 126.388)"><tspan x="0" y="0">EVERLA</tspan><tspan class="f" y="0">S</tspan><tspan y="0">TING GOOD </tspan><tspan class="g" y="0">T</tspan><tspan y="0">A</tspan><tspan class="f" y="0">S</tspan><tspan y="0">TE-IN ALL </tspan><tspan class="f" y="0">A</tspan><tspan y="0">GE</tspan></text></g><text class="h" transform="translate(384 255.173)"><tspan x="0" y="0">スタンプカード</tspan><tspan y="0">発行中!!</tspan></text><g class="m" transform="matrix(1, 0, 0, 1, 0, 0.17)"><text class="i" transform="translate(78 62)"><tspan x="0" y="0">どんどん</tspan><tspan y="0">食</tspan><tspan y="0">べて、どんどん</tspan><tspan y="0">貯</tspan><tspan y="0">めよう！</tspan></text></g><text class="j" transform="translate(304 118.173)"><tspan x="0" y="0">※ ご</tspan><tspan y="0">飲食１,０００円毎</tspan><tspan y="0">にスタンプ１</tspan><tspan y="0">個捺印</tspan><tspan y="0">します</tspan><tspan x="0" y="13">※ スタンプ３６</tspan><tspan y="13">個</tspan><tspan y="13">で、</tspan><tspan y="13">次回１,０００円値引</tspan><tspan y="13">いたします</tspan><tspan x="0" y="26">※ </tspan><tspan y="26">現金</tspan><tspan y="26">との</tspan><tspan y="26">交換及</tspan><tspan y="26">び</tspan><tspan y="26">他券</tspan><tspan y="26">との</tspan><tspan y="26">併用</tspan><tspan y="26">はできません</tspan><tspan x="0" y="39">※ </tspan><tspan y="39">紛失</tspan><tspan y="39">などによる</tspan><tspan y="39">再発行</tspan><tspan y="39">はいたしません</tspan><tspan x="0" y="52">※ </tspan><tspan y="52">発行店</tspan><tspan y="52">のみご</tspan><tspan y="52">利用頂</tspan><tspan y="52">けます</tspan><tspan x="0" y="65">※ スタンプカードのご</tspan><tspan y="65">利用</tspan><tspan y="65">は、１</tspan><tspan y="65">回</tspan><tspan y="65">につき１</tspan><tspan y="65">冊限</tspan><tspan y="65">りと</tspan><tspan x="0" y="78" xml:space="preserve">      させて</tspan><tspan y="78">頂</tspan><tspan y="78">きます</tspan></text></g></g></svg>