<svg xmlns="http://www.w3.org/2000/svg" width="346" height="185" viewBox="0 0 346 185"><defs><style>.a{fill:#5a8fcb;}</style></defs><g transform="translate(295 -4876)"><path class="a" d="M0,0H223.5A18.5,18.5,0,0,1,242,18.5v0A18.5,18.5,0,0,1,223.5,37H0a0,0,0,0,1,0,0V0A0,0,0,0,1,0,0Z" transform="translate(-295 5024)"/><path class="a" d="M0,0H327.5A18.5,18.5,0,0,1,346,18.5v0A18.5,18.5,0,0,1,327.5,37H0a0,0,0,0,1,0,0V0A0,0,0,0,1,0,0Z" transform="translate(-295 4950)"/><path class="a" d="M0,0H231.5A18.5,18.5,0,0,1,250,18.5v0A18.5,18.5,0,0,1,231.5,37H0a0,0,0,0,1,0,0V0A0,0,0,0,1,0,0Z" transform="translate(-295 4876)"/></g></svg>