<svg xmlns="http://www.w3.org/2000/svg" xmlns:xlink="http://www.w3.org/1999/xlink" width="785" height="391" viewBox="0 0 785 391"><defs><style>.a{fill:#5a8fcb;stroke:#707070;}.b,.c,.d{fill:#fff;}.b{font-size:33px;letter-spacing:0.1em;}.b,.c{font-family:NotoSansJP-Regular, Noto Sans JP;}.c,.d{font-size:20px;}.d{font-family:PTSans-Regular, PT Sans;}.e{font-family:PingFangSC-Regular, PingFang SC;}.f{fill:#c73d13;}.g{stroke:none;}.h{fill:none;}.i{filter:url(#m);}.j{filter:url(#k);}.k{filter:url(#i);}.l{filter:url(#g);}.m{filter:url(#e);}.n{filter:url(#c);}.o{filter:url(#a);}</style><filter id="a" x="117.5" y="41.5" width="153" height="57" filterUnits="userSpaceOnUse"><feOffset dx="3" dy="3" input="SourceAlpha"/><feGaussianBlur stdDeviation="1.5" result="b"/><feFlood flood-opacity="0.161"/><feComposite operator="in" in2="b"/><feComposite in="SourceGraphic"/></filter><filter id="c" x="123.57" y="108.452" width="169.438" height="191.635" filterUnits="userSpaceOnUse"><feOffset dx="3" dy="3" input="SourceAlpha"/><feGaussianBlur stdDeviation="3" result="d"/><feFlood flood-opacity="0.161"/><feComposite operator="in" in2="d"/><feComposite in="SourceGraphic"/></filter><filter id="e" x="94" y="200.798" width="43.905" height="88.216" filterUnits="userSpaceOnUse"><feOffset dx="3" dy="3" input="SourceAlpha"/><feGaussianBlur stdDeviation="3" result="f"/><feFlood flood-opacity="0.161"/><feComposite operator="in" in2="f"/><feComposite in="SourceGraphic"/></filter><filter id="g" x="165.653" y="150.156" width="61.055" height="23.774" filterUnits="userSpaceOnUse"><feOffset dx="3" dy="3" input="SourceAlpha"/><feGaussianBlur stdDeviation="3" result="h"/><feFlood flood-opacity="0.161"/><feComposite operator="in" in2="h"/><feComposite in="SourceGraphic"/></filter><filter id="i" x="165.653" y="159.952" width="61.055" height="23.774" filterUnits="userSpaceOnUse"><feOffset dx="3" dy="3" input="SourceAlpha"/><feGaussianBlur stdDeviation="3" result="j"/><feFlood flood-opacity="0.161"/><feComposite operator="in" in2="j"/><feComposite in="SourceGraphic"/></filter><filter id="k" x="165.653" y="169.748" width="61.055" height="23.779" filterUnits="userSpaceOnUse"><feOffset dx="3" dy="3" input="SourceAlpha"/><feGaussianBlur stdDeviation="3" result="l"/><feFlood flood-opacity="0.161"/><feComposite operator="in" in2="l"/><feComposite in="SourceGraphic"/></filter><filter id="m" x="165.653" y="179.544" width="61.055" height="23.778" filterUnits="userSpaceOnUse"><feOffset dx="3" dy="3" input="SourceAlpha"/><feGaussianBlur stdDeviation="3" result="n"/><feFlood flood-opacity="0.161"/><feComposite operator="in" in2="n"/><feComposite in="SourceGraphic"/></filter></defs><g transform="translate(-143 -4754)"><g class="a" transform="translate(143 4754)"><rect class="g" width="785" height="391"/><rect class="h" x="0.5" y="0.5" width="784" height="390"/></g><g class="o" transform="matrix(1, 0, 0, 1, 143, 4754)"><text class="b" transform="translate(119 81)"><tspan x="0" y="0">Takeout</tspan></text></g><text class="c" transform="translate(484 4883)"><tspan x="0" y="0">1, お</tspan><tspan y="0">持</tspan><tspan y="0">ち</tspan><tspan y="0">帰</tspan><tspan y="0">りをご</tspan><tspan y="0">希望</tspan><tspan y="0">のお</tspan><tspan y="0">客様</tspan><tspan y="0">は</tspan><tspan y="0">右</tspan><tspan y="0">の</tspan><tspan x="0" y="29">　アイコンをクリックし、 </tspan><tspan y="29">FAX</tspan><tspan y="29">用紙</tspan><tspan y="29">を</tspan><tspan x="0" y="58">　ダウンロード</tspan></text><text class="d" transform="translate(484 4982)"><tspan x="0" y="0">2, </tspan><tspan class="e" y="0">必要事項を記入後、当店まで送付し</tspan><tspan y="0"></tspan><tspan class="e"><tspan x="0" y="28">　て頂きます</tspan></tspan></text><text class="d" transform="translate(484 5051)"><tspan x="0" y="0">3, </tspan><tspan class="e" y="0">受付完了後、</tspan><tspan y="0"> </tspan><tspan class="e" y="0">指定日に商品をお引き</tspan><tspan y="0"></tspan><tspan class="e"><tspan x="0" y="28">　取り下さい</tspan></tspan></text><g transform="translate(241.513 4867.009)"><g class="n" transform="matrix(1, 0, 0, 1, -98.51, -113.01)"><path class="f" d="M191.727,79.049h15.16c11.265,0,18.1,6.919,18.09,18.181q-.037,30.049,0,60.1c0,10.67-7.042,17.742-17.713,17.746H91.376c-10.826,0-17.84-7.038-17.836-17.832V96.733c0-10.588,6.977-17.618,17.545-17.684,3.895-.021,7.8,0,11.9,0V1.475H105.4q25.543,0,51.078-.025a4.375,4.375,0,0,1,3.439,1.379q15.123,15.185,30.37,30.275a4.576,4.576,0,0,1,1.514,3.562c-.066,13.2-.041,26.4-.041,39.591Zm-7.441-40.683H154.738V8.993H110.62V86.276h73.667Zm-88.622,85a7.387,7.387,0,1,0-6.988-7.35,7.387,7.387,0,0,0,6.988,7.35Zm.033,7.408a7.363,7.363,0,1,0,5.245,2.171A7.387,7.387,0,0,0,95.7,130.775Z" transform="translate(56.03 113.01)"/></g><g class="m" transform="matrix(1, 0, 0, 1, -98.51, -113.01)"><path class="f" d="M27.356,261.8v25.831c0,5.676-3.373,9.029-9.053,9.029-2.8,0-5.606.029-8.4,0a8.106,8.106,0,0,1-8.372-8.245q-.074-26.852,0-53.713A8.115,8.115,0,0,1,9.729,226.5c3-.062,6.012-.037,9.029,0,5.138.041,8.586,3.472,8.618,8.655.037,8.881,0,17.766,0,26.647Z" transform="translate(98.51 -19.66)"/></g><g class="l" transform="matrix(1, 0, 0, 1, -98.51, -113.01)"><path class="f" d="M215.224,103.06c2.84,0,3.919,1.178,3.911,2.9s-1.1,2.873-3.936,2.873H179.774c-2.417-.041-3.694-1.3-3.694-2.873s1.309-2.844,3.731-2.873Z" transform="translate(-4.43 53.1)"/></g><g class="k" transform="matrix(1, 0, 0, 1, -98.51, -113.01)"><path class="f" d="M215.224,126.93c2.84,0,3.919,1.178,3.911,2.9s-1.1,2.873-3.936,2.873H179.774c-2.417-.041-3.694-1.293-3.694-2.873s1.309-2.844,3.731-2.873Z" transform="translate(-4.43 39.02)"/></g><g class="j" transform="matrix(1, 0, 0, 1, -98.51, -113.01)"><path class="f" d="M215.224,150.8c2.84,0,3.919,1.178,3.911,2.906s-1.1,2.873-3.936,2.873H179.774c-2.417-.041-3.694-1.293-3.694-2.873s1.309-2.84,3.731-2.873Z" transform="translate(-4.43 24.95)"/></g><g class="i" transform="matrix(1, 0, 0, 1, -98.51, -113.01)"><path class="f" d="M215.224,174.67c2.84,0,3.919,1.178,3.911,2.906s-1.1,2.873-3.936,2.873H179.774c-2.417-.041-3.694-1.293-3.694-2.873s1.309-2.844,3.731-2.873Z" transform="translate(-4.43 10.87)"/></g></g></g></svg>