<svg xmlns="http://www.w3.org/2000/svg" xmlns:xlink="http://www.w3.org/1999/xlink" width="934" height="289" viewBox="0 0 934 289"><defs><style>.a,.b{fill:#007bff;}.b{stroke:#707070;}.c,.d,.e{fill:#fff;}.c{font-size:24px;letter-spacing:0.1em;}.c,.d{font-family:NotoSansJP-Regular, Noto Sans JP;}.d,.e{font-size:13px;}.e{font-family:PTSans-Regular, PT Sans;}.f{font-family:PingFangSC-Regular, PingFang SC;}.g{fill:#c73d13;}.h{stroke:none;}.i{fill:none;}.j{filter:url(#m);}.k{filter:url(#k);}.l{filter:url(#i);}.m{filter:url(#g);}.n{filter:url(#e);}.o{filter:url(#c);}.p{filter:url(#a);}</style><filter id="a" x="440.5" y="29.5" width="114" height="44" filterUnits="userSpaceOnUse"><feOffset dx="3" dy="3" input="SourceAlpha"/><feGaussianBlur stdDeviation="1.5" result="b"/><feFlood flood-opacity="0.161"/><feComposite operator="in" in2="b"/><feComposite in="SourceGraphic"/></filter><filter id="c" x="443.522" y="78.156" width="129.924" height="146.329" filterUnits="userSpaceOnUse"><feOffset dx="3" dy="3" input="SourceAlpha"/><feGaussianBlur stdDeviation="3" result="d"/><feFlood flood-opacity="0.161"/><feComposite operator="in" in2="d"/><feComposite in="SourceGraphic"/></filter><filter id="e" x="421.668" y="146.406" width="37.146" height="69.895" filterUnits="userSpaceOnUse"><feOffset dx="3" dy="3" input="SourceAlpha"/><feGaussianBlur stdDeviation="3" result="f"/><feFlood flood-opacity="0.161"/><feComposite operator="in" in2="f"/><feComposite in="SourceGraphic"/></filter><filter id="g" x="474.624" y="108.977" width="49.821" height="22.268" filterUnits="userSpaceOnUse"><feOffset dx="3" dy="3" input="SourceAlpha"/><feGaussianBlur stdDeviation="3" result="h"/><feFlood flood-opacity="0.161"/><feComposite operator="in" in2="h"/><feComposite in="SourceGraphic"/></filter><filter id="i" x="474.624" y="116.217" width="49.821" height="22.268" filterUnits="userSpaceOnUse"><feOffset dx="3" dy="3" input="SourceAlpha"/><feGaussianBlur stdDeviation="3" result="j"/><feFlood flood-opacity="0.161"/><feComposite operator="in" in2="j"/><feComposite in="SourceGraphic"/></filter><filter id="k" x="474.624" y="123.458" width="49.821" height="22.271" filterUnits="userSpaceOnUse"><feOffset dx="3" dy="3" input="SourceAlpha"/><feGaussianBlur stdDeviation="3" result="l"/><feFlood flood-opacity="0.161"/><feComposite operator="in" in2="l"/><feComposite in="SourceGraphic"/></filter><filter id="m" x="474.624" y="130.698" width="49.821" height="22.271" filterUnits="userSpaceOnUse"><feOffset dx="3" dy="3" input="SourceAlpha"/><feGaussianBlur stdDeviation="3" result="n"/><feFlood flood-opacity="0.161"/><feComposite operator="in" in2="n"/><feComposite in="SourceGraphic"/></filter></defs><g transform="translate(-216 -4682)"><g transform="translate(216 4696.712)"><rect class="a" width="179" height="26" rx="13" transform="translate(0 103.288)"/><rect class="a" width="184" height="27" rx="13.5" transform="translate(28 51.288)"/><rect class="a" width="134" height="26" rx="13" transform="translate(0 0.288)"/><rect class="a" width="28" height="26" rx="13" transform="translate(151 0.288)"/></g><g transform="translate(569.783 4681.566)"><g class="b" transform="translate(0.217 0.433)"><rect class="h" width="580" height="289"/><rect class="i" x="0.5" y="0.5" width="579" height="288"/></g><g class="p" transform="matrix(1, 0, 0, 1, -353.78, 0.43)"><text class="c" transform="translate(442 59)"><tspan x="0" y="0">Takeout</tspan></text></g><text class="d" transform="translate(252.217 93.433)"><tspan x="0" y="0">1, お</tspan><tspan y="0">持</tspan><tspan y="0">ち</tspan><tspan y="0">帰</tspan><tspan y="0">りをご</tspan><tspan y="0">希望</tspan><tspan y="0">のお</tspan><tspan y="0">客様</tspan><tspan y="0">は</tspan><tspan y="0">右</tspan><tspan y="0">の</tspan><tspan x="0" y="19">　アイコンをクリックし、 </tspan><tspan y="19">FAX</tspan><tspan y="19">用紙</tspan><tspan y="19">を</tspan><tspan x="0" y="38">　ダウンロード</tspan></text><text class="e" transform="translate(252.217 166.433)"><tspan x="0" y="0">2, </tspan><tspan class="f" y="0">必要事項を記入後、当店まで送付し</tspan><tspan y="0"></tspan><tspan class="f"><tspan x="0" y="18">　て頂きます</tspan></tspan></text><text class="e" transform="translate(252.217 218.433)"><tspan x="0" y="0">3, </tspan><tspan class="f" y="0">受付完了後、</tspan><tspan y="0"> </tspan><tspan class="f" y="0">指定日に商品をお引き</tspan><tspan y="0"></tspan><tspan class="f"><tspan x="0" y="18">　取り下さい</tspan></tspan></text><g transform="translate(73.885 84.589)"><g class="o" transform="matrix(1, 0, 0, 1, -427.67, -84.16)"><path class="g" d="M160.889,58.8h11.2c8.326,0,13.379,5.114,13.37,13.437q-.027,22.209,0,44.421c0,7.886-5.2,13.112-13.091,13.115H86.722c-8,0-13.185-5.2-13.182-13.179V71.869c0-7.826,5.156-13.021,12.967-13.07,2.878-.015,5.763,0,8.8,0V1.467h1.78q18.878,0,37.751-.018a3.233,3.233,0,0,1,2.542,1.019q11.177,11.223,22.445,22.376a3.382,3.382,0,0,1,1.119,2.633c-.049,9.755-.03,19.509-.03,29.261Zm-5.5-30.068H133.551V7.023H100.945V64.141H155.39Zm-65.5,62.823a5.46,5.46,0,1,0-5.165-5.432,5.46,5.46,0,0,0,5.165,5.432Zm.024,5.475a5.441,5.441,0,1,0,3.877,1.6A5.46,5.46,0,0,0,89.916,97.029Z" transform="translate(375.98 82.71)"/></g><g class="n" transform="matrix(1, 0, 0, 1, -427.67, -84.16)"><path class="g" d="M20.606,252.581v19.091c0,4.195-2.493,6.673-6.691,6.673-2.072,0-4.143.021-6.212,0a5.991,5.991,0,0,1-6.188-6.094q-.055-19.846,0-39.7a6,6,0,0,1,6.066-6.066c2.22-.046,4.444-.027,6.673,0a6.076,6.076,0,0,1,6.37,6.4c.027,6.564,0,13.131,0,19.694Z" transform="translate(426.18 -74.05)"/></g><g class="m" transform="matrix(1, 0, 0, 1, -427.67, -84.16)"><path class="g" d="M205.01,103.06c2.1,0,2.9.871,2.891,2.144s-.81,2.123-2.909,2.123H178.81c-1.787-.03-2.73-.958-2.73-2.123s.968-2.1,2.757-2.123Z" transform="translate(304.54 11.92)"/></g><g class="l" transform="matrix(1, 0, 0, 1, -427.67, -84.16)"><path class="g" d="M205.01,126.93c2.1,0,2.9.871,2.891,2.144s-.81,2.123-2.909,2.123H178.81c-1.787-.03-2.73-.955-2.73-2.123s.968-2.1,2.757-2.123Z" transform="translate(304.54 -4.71)"/></g><g class="k" transform="matrix(1, 0, 0, 1, -427.67, -84.16)"><path class="g" d="M205.01,150.8c2.1,0,2.9.871,2.891,2.147s-.81,2.123-2.909,2.123H178.81c-1.787-.03-2.73-.955-2.73-2.123s.968-2.1,2.757-2.123Z" transform="translate(304.54 -21.34)"/></g><g class="j" transform="matrix(1, 0, 0, 1, -427.67, -84.16)"><path class="g" d="M205.01,174.67c2.1,0,2.9.871,2.891,2.147s-.81,2.123-2.909,2.123H178.81c-1.787-.03-2.73-.955-2.73-2.123s.968-2.1,2.757-2.123Z" transform="translate(304.54 -37.97)"/></g></g></g></g></svg>