<svg xmlns="http://www.w3.org/2000/svg" xmlns:xlink="http://www.w3.org/1999/xlink" width="365.627" height="407" viewBox="0 0 365.627 407"><defs><style>.a,.b,.c{fill:#fff;}.b{font-size:49px;font-family:PBunkyuMdMinStdN-EB, A P-OTF Bunkyu MidasiM StdN;}.c{font-size:20px;font-family:KyokaICAPro-Medium, A-OTF Kyoukasho ICA Pro;font-weight:500;letter-spacing:0.1em;}.d{filter:url(#ag);}.e{filter:url(#ae);}.f{filter:url(#ac);}.g{filter:url(#aa);}.h{filter:url(#y);}.i{filter:url(#w);}.j{filter:url(#u);}.k{filter:url(#s);}.l{filter:url(#q);}.m{filter:url(#o);}.n{filter:url(#m);}.o{filter:url(#k);}.p{filter:url(#i);}.q{filter:url(#g);}.r{filter:url(#e);}.s{filter:url(#c);}.t{filter:url(#a);}</style><filter id="a" x="239.158" y="131.528" width="92.591" height="105.383" filterUnits="userSpaceOnUse"><feOffset dx="3" dy="3" input="SourceAlpha"/><feGaussianBlur stdDeviation="3" result="b"/><feFlood flood-opacity="0.161"/><feComposite operator="in" in2="b"/><feComposite in="SourceGraphic"/></filter><filter id="c" x="33.881" y="130.788" width="92.838" height="106.071" filterUnits="userSpaceOnUse"><feOffset dx="3" dy="3" input="SourceAlpha"/><feGaussianBlur stdDeviation="3" result="d"/><feFlood flood-opacity="0.161"/><feComposite operator="in" in2="d"/><feComposite in="SourceGraphic"/></filter><filter id="e" x="44.228" y="56.075" width="143.02" height="89.965" filterUnits="userSpaceOnUse"><feOffset dx="3" dy="3" input="SourceAlpha"/><feGaussianBlur stdDeviation="3" result="f"/><feFlood flood-opacity="0.161"/><feComposite operator="in" in2="f"/><feComposite in="SourceGraphic"/></filter><filter id="g" x="179.108" y="56" width="141.73" height="90.222" filterUnits="userSpaceOnUse"><feOffset dx="3" dy="3" input="SourceAlpha"/><feGaussianBlur stdDeviation="3" result="h"/><feFlood flood-opacity="0.161"/><feComposite operator="in" in2="h"/><feComposite in="SourceGraphic"/></filter><filter id="i" x="225.678" y="198.682" width="97.22" height="49.122" filterUnits="userSpaceOnUse"><feOffset dx="3" dy="3" input="SourceAlpha"/><feGaussianBlur stdDeviation="3" result="j"/><feFlood flood-opacity="0.161"/><feComposite operator="in" in2="j"/><feComposite in="SourceGraphic"/></filter><filter id="k" x="42.848" y="198.868" width="97.61" height="48.953" filterUnits="userSpaceOnUse"><feOffset dx="3" dy="3" input="SourceAlpha"/><feGaussianBlur stdDeviation="3" result="l"/><feFlood flood-opacity="0.161"/><feComposite operator="in" in2="l"/><feComposite in="SourceGraphic"/></filter><filter id="m" x="191.838" y="80.709" width="59.4" height="39.299" filterUnits="userSpaceOnUse"><feOffset dx="3" dy="3" input="SourceAlpha"/><feGaussianBlur stdDeviation="3" result="n"/><feFlood flood-opacity="0.161"/><feComposite operator="in" in2="n"/><feComposite in="SourceGraphic"/></filter><filter id="o" x="114.418" y="80.269" width="59.24" height="39.729" filterUnits="userSpaceOnUse"><feOffset dx="3" dy="3" input="SourceAlpha"/><feGaussianBlur stdDeviation="3" result="p"/><feFlood flood-opacity="0.161"/><feComposite operator="in" in2="p"/><feComposite in="SourceGraphic"/></filter><filter id="q" x="44.197" y="257.914" width="45.911" height="134.904" filterUnits="userSpaceOnUse"><feOffset dx="3" dy="3" input="SourceAlpha"/><feGaussianBlur stdDeviation="3" result="r"/><feFlood flood-opacity="0.161"/><feComposite operator="in" in2="r"/><feComposite in="SourceGraphic"/></filter><filter id="s" x="0" y="243.691" width="38.616" height="72.817" filterUnits="userSpaceOnUse"><feOffset dx="3" dy="3" input="SourceAlpha"/><feGaussianBlur stdDeviation="3" result="t"/><feFlood flood-opacity="0.161"/><feComposite operator="in" in2="t"/><feComposite in="SourceGraphic"/></filter><filter id="u" x="275.314" y="257.527" width="46.025" height="135.551" filterUnits="userSpaceOnUse"><feOffset dx="3" dy="3" input="SourceAlpha"/><feGaussianBlur stdDeviation="3" result="v"/><feFlood flood-opacity="0.161"/><feComposite operator="in" in2="v"/><feComposite in="SourceGraphic"/></filter><filter id="w" x="301.071" y="252.921" width="46.34" height="110.247" filterUnits="userSpaceOnUse"><feOffset dx="3" dy="3" input="SourceAlpha"/><feGaussianBlur stdDeviation="3" result="x"/><feFlood flood-opacity="0.161"/><feComposite operator="in" in2="x"/><feComposite in="SourceGraphic"/></filter><filter id="y" x="18.263" y="253.156" width="46.405" height="110.422" filterUnits="userSpaceOnUse"><feOffset dx="3" dy="3" input="SourceAlpha"/><feGaussianBlur stdDeviation="3" result="z"/><feFlood flood-opacity="0.161"/><feComposite operator="in" in2="z"/><feComposite in="SourceGraphic"/></filter><filter id="aa" x="73.626" y="264.29" width="47.13" height="128.687" filterUnits="userSpaceOnUse"><feOffset dx="3" dy="3" input="SourceAlpha"/><feGaussianBlur stdDeviation="3" result="ab"/><feFlood flood-opacity="0.161"/><feComposite operator="in" in2="ab"/><feComposite in="SourceGraphic"/></filter><filter id="ac" x="327.153" y="243.806" width="38.474" height="73.182" filterUnits="userSpaceOnUse"><feOffset dx="3" dy="3" input="SourceAlpha"/><feGaussianBlur stdDeviation="3" result="ad"/><feFlood flood-opacity="0.161"/><feComposite operator="in" in2="ad"/><feComposite in="SourceGraphic"/></filter><filter id="ae" x="245.047" y="264.388" width="47.312" height="129.16" filterUnits="userSpaceOnUse"><feOffset dx="3" dy="3" input="SourceAlpha"/><feGaussianBlur stdDeviation="3" result="af"/><feFlood flood-opacity="0.161"/><feComposite operator="in" in2="af"/><feComposite in="SourceGraphic"/></filter><filter id="ag" x="150" y="124" width="67" height="283" filterUnits="userSpaceOnUse"><feOffset dx="3" dy="3" input="SourceAlpha"/><feGaussianBlur stdDeviation="3" result="ah"/><feFlood flood-opacity="0.161"/><feComposite operator="in" in2="ah"/><feComposite in="SourceGraphic"/></filter></defs><g transform="translate(5.998 61.998)"><g class="t" transform="matrix(1, 0, 0, 1, -6, -62)"><path class="a" d="M239.16,124.42a7.429,7.429,0,0,1,.47-1.52c9-17.29,23.47-27.78,41.8-33.17,9-2.64,16,.16,21.29,8,2.53,3.76,4.27,8,6.37,12.1.23.43.42.88.67,1.3.06.09.3.08.85.19a83.6,83.6,0,0,0-10.55-35.41l.74-.38c1.39,2.33,2.93,4.59,4.14,7,7.34,14.69,9.9,30.25,8.4,46.56-.7,7.58-1.85,15-5.22,22a23.52,23.52,0,0,1-7.95,9.45c-3.9,2.62-8.06,3.17-12.32,1.15a122.049,122.049,0,0,1-12.36-6.48c-2.56-1.6-4.6-4-7-6-4.05-3.28-8.19-6.45-12.29-9.67-.3-.23-.65-.41-1.29-.82,8-1.19,15.35-1.41,22.18,3,3.76,2.44,7.65,4.7,11.55,6.93a5.68,5.68,0,0,0,3.35.47c-5.55-6.16-13-9.69-19.56-14.3l.42-.65c3.64,2.19,7.33,4.3,10.92,6.58,3.36,2.15,6.59,4.51,10,6.67.54.35,1.43.16,2.16.22-.3-.66-.43-1.61-.95-1.93-5-3.22-10.15-6.33-15.24-9.47-.2-.12-.37-.28-.39-.85,1.11.48,2.25.89,3.3,1.45,4.48,2.39,8.91,4.85,13.39,7.23,1,.52,2.22,1.62,2.9,0,.24-.56-.7-2.11-1.47-2.53-4.86-2.66-9.83-5.12-14.76-7.66l.27-.7L300.43,140c1.45-2,1.34-2.7-1-3.6-4.16-1.6-8.38-3-12.57-4.57l.13-.7c2.74.55,5.51,1,8.23,1.67,1.62.38,3.15,1.09,4.77,1.46a6,6,0,0,0,2.13-.36c-.29-.93-.33-2.45-.91-2.7a35.331,35.331,0,0,0-6.43-1.88,67,67,0,0,1-7.43-1.66,8.289,8.289,0,0,1,1.92-.32c3.4.23,6.79.55,10.19.79,1,.07,2.48,1.06,2.67-1,.16-1.76-.44-2.86-2.53-2.76-3,.15-6,.15-9,.2a6.56,6.56,0,0,1-2.88-.45,11.35,11.35,0,0,1,2.22-.74c3.05-.41,6.13-.67,9.17-1.13.71-.11,1.34-.8,2-1.22-.74-.33-1.5-1-2.22-1-3.49.19-7,.56-10.45.86a6,6,0,0,1-3.07-.36c3-.75,6.05-1.52,9.09-2.25,1.37-.33,2.78-.53,4.13-.93.52-.16.92-.71,1.37-1.09-.55-.38-1.14-1.14-1.64-1.08q-5.56.68-11.1,1.64c-1.84.31-3.65.87-5.47,1.31l-.25-.8c3.76-1.32,7.52-2.65,11.29-3.93a34.061,34.061,0,0,0,3.35-1,7.7,7.7,0,0,0,1.76-1.56c-.85-.58-1.83-1.78-2.53-1.63a49.889,49.889,0,0,0-7.36,2.32,114.232,114.232,0,0,1-10.89,3.82c1.84-1,3.63-2.17,5.53-3.08,3.29-1.59,6.67-3,10-4.6.74-.36,1.87-1.4,1.75-1.79-.47-1.55-1.78-1.53-3-.86-4.84,2.57-9.69,5.12-14.5,7.76-1.85,1-3.6,2.21-5.39,3.33l-.49-.72,18.63-12.72A2.2,2.2,0,0,0,287,101a2.09,2.09,0,0,0-.71.29,94.23,94.23,0,0,0-23.54,17.94c2.86.22,5.22.25,7.52.61a26.48,26.48,0,0,1,6.25,1.61c3.72,1.58,4.24,5.83.93,8.17a13.89,13.89,0,0,1-9.94,2.73,56.408,56.408,0,0,0-7.24.07h-5.21l-.09-.64c2.74-.5,5.49-1,8.22-1.53a30,30,0,0,0,4.57-1.17c.65-.25,1.08-1.08,1.61-1.65-.65-.4-1.35-1.19-2-1.13a111.746,111.746,0,0,0-11.83,1.47c-4.23.85-8.36,2.19-12.54,3.3a1.63,1.63,0,0,1-1.41-.35c1.13-.69,2.23-1.45,3.39-2.09,5.17-2.84,10.36-5.65,15.53-8.5a7.76,7.76,0,0,0,1.34-1.1c6.33-5.76,12.64-11.54,19-17.27.52-.47,1.39-.55,1.9-1-2.5-2-4.14-1.32-5.61-.09q-8.64,7.18-17.21,14.45c-1.51,1.28-3,2.61-4.48,3.92l-.54-.49c5.2-5.93,10.41-11.85,15.82-18a5,5,0,0,0-5.32,1.53c-3.69,3.84-7.4,7.67-11.07,11.54a12.22,12.22,0,0,0-1.23,1.86l-.82-.72,7.91-9.79-.64-.6C251.91,110,245.84,117.48,239.16,124.42Z" transform="translate(6 62)"/></g><g class="s" transform="matrix(1, 0, 0, 1, -6, -62)"><path class="a" d="M47.59,74.79A94.93,94.93,0,0,0,37,109.85a12.05,12.05,0,0,0,.28,2.31c1.76-3.72,3.15-7.06,4.87-10.21,3.05-5.56,6.65-10.73,13.31-12.36,5.43-1.34,10.75-.34,15.89,1.71C87,97.5,99.7,107,107.64,122.17q.57,1.11,1.08,2.25a7.641,7.641,0,0,1-.2.91C102,117.69,95.75,110.13,88,104.14l-.66.59,8.62,10.66-.11.08c-3-2.84-5.81-5.79-8.88-8.49s-4.65-7.07-10.32-6.84l16.14,18.41-.47.45c-4.3-3.74-8.57-7.53-12.92-11.21-3-2.58-6.23-5-9.34-7.51C68.6,99.12,67,99,65,100l1.88,1.76c6.26,5.7,12.51,11.42,18.81,17.08a19.51,19.51,0,0,0,3.11,1.94c4.86,3,9.73,5.9,14.44,9.35-2.91-.67-5.94-1-8.71-2.07-4.65-1.77-9.44-1.82-14.25-1.81-.71,0-1.42.82-2.13,1.26.57.54,1.06,1.39,1.73,1.56,3.27.83,6.59,1.5,9.89,2.17,1,.2,1.94.23,2.91.34v.61H87.59c-3,.07-5.94,0-8.88.33-2.55.27-8.7-2.32-10-4.57A4.32,4.32,0,0,1,70,122a4.49,4.49,0,0,1,1.18-.53,78.63,78.63,0,0,1,10.45-2,21.449,21.449,0,0,1,3,0,9,9,0,0,0-.93-1.55,99.9,99.9,0,0,0-21.22-16.1c-1.64-.91-3.1-1-4.53.77L77.8,116.27l-.41.61c-3.77-2.33-7.49-4.77-11.35-7a98.4,98.4,0,0,0-9.84-4.82c-.76-.32-2,.42-3,.67.57.65,1,1.55,1.72,1.9,4.61,2.3,9.28,4.47,13.93,6.7a2.54,2.54,0,0,1,1.28,1.32c-3.31-1.28-6.6-2.59-9.92-3.82-2.41-.9-4.86-1.72-7.3-2.54-1.38-.46-2.51-.18-3,1.36-.5,1.71.94,1.62,1.9,1.93l14.35,4.65-.24.9c-1.76-.41-3.5-.89-5.28-1.22-3.35-.62-6.7-1.25-10.09-1.67-.86-.1-1.83.61-2.75.94a8.15,8.15,0,0,0,2.2,1.4,109.822,109.822,0,0,1,12.3,3.52l-3.66-.29c-3.41-.27-6.8-.6-10.21-.75-.65,0-1.33.65-2,1a6.81,6.81,0,0,0,2.06,1.18c3.12.46,6.28.75,9.41,1.15a3.15,3.15,0,0,1,2.08,1.12c-.65,0-1.31.11-2,.1-3.33-.06-6.67-.08-10-.25-2-.09-2.5,1-2.45,2.62,0,2,1.47,1.25,2.55,1.16,3.23-.29,6.46-.6,9.69-.84a3.93,3.93,0,0,1,2.52.71c-2.36.41-4.72.75-7.06,1.23-2.11.44-4.19,1-6.27,1.58-1.5.41-2.13,1.58-1.45,2.84.26.49,1.81.62,2.66.42,3.23-.74,6.41-1.73,9.64-2.53a5.05,5.05,0,0,1,3,.23l-12,4.37c-.47.17-1.11.25-1.35.6a13.93,13.93,0,0,0-1.09,2.39c.78.13,1.67.56,2.31.32,4.9-1.83,9.75-3.8,14.63-5.7a2.05,2.05,0,0,1,1.76.11c-3.6,1.78-7.21,3.52-10.79,5.34a40.731,40.731,0,0,0-5,2.88c-.49.34-.57,1.29-.83,2,.78.13,1.74.63,2.3.34,5.47-2.8,10.88-5.73,16.31-8.61a1.65,1.65,0,0,1,1.47,0L51.2,146.53c.94,2.37,2,1.4,3,.72,5.86-3.78,11.72-7.57,17.6-11.32a6.42,6.42,0,0,1,2.93-1.07L55.09,148.3l.48,1.13a11.831,11.831,0,0,0,3.31-.73c3.83-2.17,7.45-4.75,11.38-6.72,5.72-2.86,11.64-5.32,18.34-3.78a24.14,24.14,0,0,0,3.41.3,1.51,1.51,0,0,1-.05.6c-6.56,3.77-11.54,9.44-17.27,14.19a44.5,44.5,0,0,1-18.32,9.31c-4.29,1-8-1-11.13-3.84-5.08-4.64-7.58-10.68-9-17.18a92.82,92.82,0,0,1-.89-37.23A73.93,73.93,0,0,1,46,76.86,25.882,25.882,0,0,1,47.59,74.79Z" transform="translate(6 62)"/></g><g class="r" transform="matrix(1, 0, 0, 1, -6, -62)"><path class="a" d="M105,10.81l10.13,4.75-.18.39L97.19,11.26l-.35,1.1,10.29,3.18-.08.65L104.59,16c-3.86-.41-7.75-.94-11.63-1.19a9.93,9.93,0,0,0-3.13.78l.09.78,17.2,1.56v1.05c-.56,0-1.12.1-1.67.09l-17-.36a4.22,4.22,0,0,0-4.32,2.48l16.58-.85.06.9c-2.59.33-5.19.58-7.77,1-3.76.63-7.55,1.25-11.24,2.18-1.25.32-2.26,1.55-3.38,2.36l.42.74,19.34-3.56.21,1c-3.29.8-6.61,1.46-9.85,2.42-4.06,1.21-8.07,2.58-12.06,4-2.39.86-2.91,3.08-3.82,5.93,6.71-3.72,12.8-7,19.91-7.55-3.11,1.43-6.34,2.64-9.31,4.33-4.11,2.33-8.09,4.93-12,7.63-.89.62-1.16,2.11-1.72,3.19l.55.35L88.6,34.07l.49.78c-1.32.83-2.69,1.6-4,2.5-5,3.47-9.92,7-14.82,10.51-1.19.85-2,2-1,3.85L88.1,38.13l.57.7c-.65.49-1.3,1-1.93,1.49q-7.44,6-14.87,12.1a3.75,3.75,0,0,0-1.2,1.25,11.1,11.1,0,0,0-.4,2.44,7,7,0,0,0,2.06-.76c4.19-3.54,8.28-7.2,12.48-10.73,1.43-1.2,3.07-2.14,4.62-3.2l.42.51c-3.12,2.76-6.29,5.46-9.34,8.29-2.36,2.21-4.59,4.57-6.82,6.92-.3.32-.24,1-.35,1.5.54.08,1.26.43,1.58.21a38.849,38.849,0,0,0,3.92-3.09c5.51-4.93,11-9.94,16.51-14.82a16.8,16.8,0,0,1,5.39-3.11c-.82.68-1.71,1.3-2.47,2C91.36,46.54,84.42,53.23,77.59,60c-4.46,4.45-8.75,9-14.75,11.42a7.76,7.76,0,0,1-10.18-4.1A7.54,7.54,0,0,1,52.07,65c-.62-4.83,1-9.25,2.62-13.6,2.21-6,4.78-11.87,7.16-17.81A2.4,2.4,0,0,0,61.76,32c-8,7.67-12.66,17.42-17.53,27.19a20.05,20.05,0,0,1,1.08-3.72c4.24-8.54,8.45-17.11,12.91-25.55A68.86,68.86,0,0,1,74.4,9.72C82,3.14,90.62-1.45,101.05.55a46.19,46.19,0,0,1,13.4,5.11,177.55,177.55,0,0,1,29.5,20,52.29,52.29,0,0,0,9.89,6.16c2.1,1.1,3.06.65,5.35-1.11-.87-.78-1.62-1.57-2.5-2.22-3.85-2.82-7.75-5.48-11.46-8.43a8.33,8.33,0,0,1-2.65-9.89C144.42,6,149.24,4.3,154,6.55c5.91,2.78,9.91,7.27,9.84,14.11-.06,6.5-.2,12.86,5.41,17.79l-.92.49-7.27-6.79c-4.39,3.43-5.85,3.48-10.93.46-9.93-5.92-19.77-12-29.82-17.7-3.35-1.91-7.19-3-10.88-4.26a20.14,20.14,0,0,0-4.37-.51Z" transform="translate(6 62)"/></g><g class="q" transform="matrix(1, 0, 0, 1, -6, -62)"><path class="a" d="M240.63,18.38c5.48-1.92,11.33-1.34,17-1.87l.22-.76a10,10,0,0,0-2.88-1c-3.9.24-7.78.69-11.67,1.08-1,.1-1.93.29-2.89.44l-.18-.68,10.61-3.26-.32-1.09-17.68,4.69-.19-.38,10.07-4.74v-.58c-1.53.13-3.19-.07-4.57.45-4.72,1.8-9.58,3.45-14,5.9-8.5,4.74-16.71,10-25,15-.92.56-1.82,1.17-2.78,1.67-4.52,2.38-5.83,2.23-9.7-1.14l-7.07,6.54-.49-.46a20.159,20.159,0,0,0,2.44-3.89,56.751,56.751,0,0,0,2.26-8.51c.35-1.94,0-4,.15-6A15.41,15.41,0,0,1,195.34,6a8,8,0,0,1,9.19,3.18c1.82,3,1.5,7.53-1.17,9.94-2.83,2.55-6,4.73-9.05,7-1.39,1.05-2.89,2-4.25,3.07-.51.41-1.22,1.45-1.08,1.66.44.6,1.32,1.38,1.91,1.3,1.94-.28,4.07-.51,5.67-1.5A88.547,88.547,0,0,0,206,23.77,172.261,172.261,0,0,1,237.84,3.22c9.89-5,19.64-4,29,1.8,9.13,5.67,16,13.6,21.37,22.71,4.48,7.56,8.36,15.49,12.36,23.33a23.591,23.591,0,0,1,2.27,7.54c-2.39-4.72-4.66-9.51-7.21-14.15a49.571,49.571,0,0,0-9.56-12.63l-.7.41c.73,1.7,1.57,3.36,2.17,5.1,2.73,7.85,5.66,15.63,8,23.6a8.73,8.73,0,0,1-5.33,10.83,7.19,7.19,0,0,1-6.89-1,62.179,62.179,0,0,1-9.72-7.35C264.84,54.75,257,45.24,246.84,38l.38-.52a48.45,48.45,0,0,1,4.94,3.38c5.62,4.94,11.14,10,16.71,15a27.219,27.219,0,0,0,3.25,2.7c.5.32,1.35.09,2,.11-.19-.64-.19-1.47-.61-1.87-4.36-4.21-8.79-8.36-13.21-12.51-.83-.78-1.68-1.53-2.51-2.3l.51-.65c3.23,2.49,6.53,4.9,9.67,7.5,2.5,2.06,4.79,4.38,7.24,6.5a5.93,5.93,0,0,0,2.06.71c-.15-.85,0-2-.49-2.49-3.9-3.49-7.89-6.88-11.92-10.21-1.89-1.57-3.93-3-5.9-4.44l.52-.72,18.85,13.58c1.23-1.68.26-2.81-.84-3.65-3.95-3-7.95-6-12-8.86-2.23-1.56-4.63-2.88-6.82-4.53,6.84,2.49,12.7,6.75,18.7,10.77l.82-.72c-.72-1.1-1.23-2.47-2.21-3.26a68.8,68.8,0,0,0-20.14-11.29,1,1,0,0,1-.65-.69c7.14.7,13.25,4.1,19.57,7.3-.78-2.31-1.23-4.84-4-5.67-6.77-2-13.55-4-20.33-5.94a1.86,1.86,0,0,1-1.07-.58c6.68-.37,13,2,19.49,3l.46-.85c-1.18-.83-2.26-2.13-3.56-2.4-5.45-1.12-11-1.94-16.46-2.86-.81-.14-1.62-.24-2.44-.35v-.85l16.4.81c-.87-2.11-2.43-2.48-4.15-2.45-5.66.1-11.32.24-17,.37h-1.45Z" transform="translate(6 62)"/></g><g class="p" transform="matrix(1, 0, 0, 1, -6, -62)"><path class="a" d="M225.68,147.09c.28-.32.4-.61.59-.66,6.87-1.75,13.59-5.11,20.89-3.15,6.21,1.67,12.17,3.72,17.2,8.39a227.269,227.269,0,0,0,21.28,17.24c6.32,4.58,10.26,3.89,16-1.41a14.38,14.38,0,0,1,3.26-2.5,9.444,9.444,0,0,1-.55,1.32c-4.23,6.62-10.67,8.88-19.45,6.66a106.49,106.49,0,0,1-31.19-13A118.3,118.3,0,0,0,238,152.1c-3.53-1.56-7.2-2.8-10.8-4.21A15.816,15.816,0,0,1,225.68,147.09Z" transform="translate(6 62)"/></g><g class="o" transform="matrix(1, 0, 0, 1, -6, -62)"><path class="a" d="M122.46,146.79a14.745,14.745,0,0,1-1.45.92c-5.5,2.25-11.08,4.33-16.5,6.77-3.52,1.58-6.76,3.77-10.21,5.53-11.38,5.81-22.69,11.81-35.62,13.6a14.31,14.31,0,0,1-15.83-9c.84.79,1.69,1.56,2.52,2.36,6.38,6.06,10.07,6.44,17.4,1.5a91.694,91.694,0,0,0,7.72-5.91c3.86-3.25,7.47-6.81,11.45-9.91,3.38-2.65,6.84-5.72,10.78-7,7.44-2.45,15.21-4.4,23-.8a51.7,51.7,0,0,0,6.74,1.94Z" transform="translate(6 62)"/></g><g class="n" transform="matrix(1, 0, 0, 1, -6, -62)"><path class="a" d="M191.84,45.33c3.79-2.65,7.51-5.41,11.38-7.94a104.431,104.431,0,0,1,25.15-12.47c1.47-.47,3.24,0,4.87,0-.93,1.26-1.61,3-2.86,3.68a118.6,118.6,0,0,1-11.13,5.51c-8,3.56-16.12,7-24.18,10.5-1,.42-1.88.93-2.82,1.4Z" transform="translate(6 62)"/></g><g class="m" transform="matrix(1, 0, 0, 1, -6, -62)"><path class="a" d="M155.42,46c-4.5-2.25-8.92-4.7-13.54-6.68-6.63-2.84-13.45-5.22-20-8.07a34.66,34.66,0,0,1-6.62-4.34c-.52-.39-.57-1.39-.84-2.12.69-.17,1.47-.66,2-.48a120.378,120.378,0,0,1,11.46,4A128.839,128.839,0,0,1,154,44.14c.58.44,1.11,1,1.66,1.44Z" transform="translate(6 62)"/></g><g class="l" transform="matrix(1, 0, 0, 1, -6, -62)"><path class="a" d="M67.17,318.82c-3-4.22-6.29-8.31-9.06-12.69A88.309,88.309,0,0,1,46,274.91a93.9,93.9,0,0,1,2.25-45.59c2.83-9.23,8.06-17.12,14.59-24.16A8.49,8.49,0,0,1,65.55,203c1.45-.59,3.5-1.48,4.5-.89a5.69,5.69,0,0,1,2.06,4.33,36.69,36.69,0,0,1-1.32,9.08,236.563,236.563,0,0,0-7.43,34.62c-1.85,14.48-2.62,29-1,43.56.87,8,2.3,16,5.43,23.51a5.721,5.721,0,0,1,.23,1.15Z" transform="translate(6 62)"/></g><g class="k" transform="matrix(1, 0, 0, 1, -6, -62)"><path class="a" d="M16.91,200.8c-4.91,8.59-6.34,18-6.8,27.61-.18,3.91-.26,7.82-.41,11.73a18.63,18.63,0,0,1-.22,2.11l-.7.26A73.941,73.941,0,0,1,5,235.45C.47,225-1.55,214,1.36,202.8c1.93-7.42,7.57-12,14.64-14.62,3.76-1.38,5.39.24,4.27,4a39.64,39.64,0,0,1-3.36,8.62Z" transform="translate(6 62)"/></g><g class="j" transform="matrix(1, 0, 0, 1, -6, -62)"><path class="a" d="M303.34,257.69a91,91,0,0,1-20.55,58.1c-.91,1.14-1.94,2.19-2.91,3.29l-.34-.24c.95-3,2-6.08,2.85-9.15a99,99,0,0,0,3.68-26.12,268.777,268.777,0,0,0-1-26.92,220.248,220.248,0,0,0-8.21-41.48,44.538,44.538,0,0,1-1.45-7.34c-.26-2.26-.12-4.71,2.25-5.89s4,.42,5.56,1.81A59.06,59.06,0,0,1,298,225.19C302.26,235.58,303.37,246.53,303.34,257.69Z" transform="translate(6 62)"/></g><g class="i" transform="matrix(1, 0, 0, 1, -6, -62)"><path class="a" d="M314.4,284.09c-1.47,1.74-3,3.39-4.58,5.08l-.54-.31c.28-.89.56-1.79.82-2.69,4.41-15.33,6.68-30.85,4-46.77a100.51,100.51,0,0,0-10.72-32c-.48-.87-.89-1.79-1.35-2.67-1-2-1.55-3.91.06-5.8a5.32,5.32,0,0,1,6.61-1.41c2.94,1.76,6,3.7,8.19,6.29,8,9.61,11.59,21,12.37,33.35A66.4,66.4,0,0,1,316.5,281C315.78,282,315.2,283.16,314.4,284.09Z" transform="translate(6 62)"/></g><g class="h" transform="matrix(1, 0, 0, 1, -6, -62)"><path class="a" d="M46.2,203.48c-2,4.66-4.5,9.11-6.4,13.81a97,97,0,0,0-4.91,57.82c1,4.73,2.37,9.4,3.57,14.1l-.57.37c-2.35-3-4.81-6-7-9.13a64.41,64.41,0,0,1-11.29-25.9c-3.43-18.66-.49-36,11.57-51.11a22.15,22.15,0,0,1,5.61-4.87,10.66,10.66,0,0,1,5.41-1.41,4.34,4.34,0,0,1,4,6.32Z" transform="translate(6 62)"/></g><g class="g" transform="matrix(1, 0, 0, 1, -6, -62)"><path class="a" d="M102.73,215.32c-1.09,9.82-2.37,19.66-4.39,29.32-1.88,9-4.8,17.81-7.2,26.72-3.31,12.27-3.54,24.82-3.25,37.41.08,3.31,0,6.63,0,9.94l-.5.27c-1.84-3.87-3.77-7.69-5.5-11.6-4.14-9.39-8.17-19-8.26-29.36-.06-8.6,1.13-17.22,2.09-25.8a57.35,57.35,0,0,1,2.64-13.15c3-8.5,5.06-17.49,10.63-24.89a22.77,22.77,0,0,1,4.43-4.34c1.87-1.41,4.41-2.34,6.21-.6C101.23,210.76,103,213.39,102.73,215.32Z" transform="translate(6 62)"/></g><g class="f" transform="matrix(1, 0, 0, 1, -6, -62)"><path class="a" d="M335.24,211.8c-1.09-4.62-3.71-8.86-5.49-13.33a52.58,52.58,0,0,1-2.49-7.78c-.5-2.15.84-3.27,2.88-2.76a22.55,22.55,0,0,1,6.2,2.43c6.88,4.26,10.86,10.4,11.22,18.63.5,11.4-1.7,22.16-7.73,32-.3.48-.67.91-1.47,2-.23-4.72-.27-8.7-.67-12.64C337.06,224.1,336.67,217.82,335.24,211.8Z" transform="translate(6 62)"/></g><g class="e" transform="matrix(1, 0, 0, 1, -6, -62)"><path class="a" d="M260.17,319.55l-.88-.27c.07-.81.14-1.61.19-2.41,1-15.85.87-31.6-3.3-47.1-3-11.08-6-22.16-8.42-33.37-1.49-7-1.89-14.15-2.67-21.25a6.14,6.14,0,0,1,3.14-6.09c2.23-1.38,4.41-.4,6.31.89,4.15,2.84,6.51,7.08,8.37,11.57,2.17,5.22,4.69,10.41,5.95,15.86,3.22,14,6.51,28.09,5.21,42.66-.72,8-3.32,15.61-6.38,23C265.38,308.62,262.69,314.05,260.17,319.55Z" transform="translate(6 62)"/></g><g class="d" transform="matrix(1, 0, 0, 1, -6, -62)"><text class="b" transform="translate(156 173)"><tspan x="0" y="0">焼</tspan><tspan x="0" y="54">肉</tspan><tspan x="0" y="108">ダ</tspan><tspan x="0" y="162">ル</tspan><tspan x="0" y="216">マ</tspan></text></g><text class="c" transform="translate(174.002 -43.998)"><tspan x="-21" y="0">元祖</tspan><tspan x="-54" y="25">焼肉専門店</tspan></text></g></svg>