<svg xmlns="http://www.w3.org/2000/svg" width="384" height="768" viewBox="0 0 384 768"><defs><style>.a{fill:#007bff;}.b{font-size:32px;}.b,.c{font-family:NotoSerifJP-ExtraLight, Noto Serif JP;font-weight:200;}.c{fill:#fff;font-size:15.749px;baseline-shift:8.999099846546754;}</style></defs><g transform="translate(-225 -50)"><path class="a" d="M384,0C596.077,0,768,171.923,768,384S596.077,768,384,768Z" transform="translate(-159 50)"/><g transform="translate(225 132.213)"><text class="b" transform="translate(143 144.787)"><tspan x="0" y="0">焼</tspan><tspan x="0" y="40">肉</tspan><tspan x="0" y="80">と</tspan><tspan x="0" y="120">韓</tspan><tspan x="0" y="160">国</tspan><tspan x="0" y="200">料</tspan><tspan x="0" y="240">理</tspan><tspan x="0" y="280">の</tspan><tspan x="0" y="320">お</tspan><tspan x="0" y="360">店</tspan></text><text class="c" transform="translate(199 141.787)"><tspan x="0" y="0">創</tspan><tspan x="0" y="30">業</tspan><tspan x="0" y="60">五</tspan><tspan x="0" y="90">十</tspan><tspan x="0" y="120">年</tspan><tspan x="0" y="150"></tspan><tspan x="0" y="180">岡</tspan><tspan x="0" y="210">山</tspan></text></g></g></svg>